<svg width="210" height="87" viewBox="0 0 210 87" fill="none" xmlns="http://www.w3.org/2000/svg">
<path d="M39.0798 33.0578C38.2456 34.1987 37.1895 35.0782 35.9115 35.6964C34.6336 36.3146 33.1666 36.5137 31.5105 36.2937C29.8701 36.0522 28.1243 35.2546 26.2731 33.9009L22.2048 30.9259L15.5465 40.0312L11.8657 37.3396L28.2752 14.8993L36.0244 20.5659C37.7464 21.8251 38.979 23.189 39.7222 24.6574C40.5026 26.1201 40.8135 27.5698 40.6549 29.0065C40.5178 30.4589 39.9928 31.8093 39.0798 33.0578ZM28.4689 30.8981C29.8681 31.9213 31.1403 32.3726 32.2856 32.252C33.4466 32.1099 34.4521 31.4577 35.3021 30.2954C37.0965 27.8414 36.6054 25.5992 33.8286 23.5687L29.7603 20.5937L24.4006 27.9231L28.4689 30.8981Z" fill="#1E4364"/>
<path d="M35.9115 35.6964L35.4761 34.7962L35.4761 34.7962L35.9115 35.6964ZM31.5105 36.2937L31.3648 37.2831L31.3788 37.285L31.5105 36.2937ZM22.2048 30.9259L22.7951 30.1187L21.9879 29.5285L21.3976 30.3357L22.2048 30.9259ZM15.5465 40.0312L14.9563 40.8384L15.7635 41.4287L16.3537 40.6215L15.5465 40.0312ZM11.8657 37.3396L11.0585 36.7493L10.4682 37.5565L11.2754 38.1468L11.8657 37.3396ZM28.2752 14.8993L28.8655 14.0921L28.0583 13.5018L27.468 14.309L28.2752 14.8993ZM39.7222 24.6574L38.83 25.109L38.8348 25.1186L38.8399 25.1282L39.7222 24.6574ZM40.6549 29.0065L39.661 28.8967L39.6601 28.9046L39.6593 28.9125L40.6549 29.0065ZM32.2856 32.252L32.3903 33.2465L32.3987 33.2456L32.407 33.2446L32.2856 32.252ZM29.7603 20.5937L30.3505 19.7865L29.5433 19.1963L28.9531 20.0035L29.7603 20.5937ZM24.4006 27.9231L23.5934 27.3329L23.0031 28.1401L23.8103 28.7304L24.4006 27.9231ZM38.2726 32.4676C37.5355 33.4756 36.6073 34.249 35.4761 34.7962L36.347 36.5966C37.7717 35.9074 38.9557 34.9218 39.887 33.6481L38.2726 32.4676ZM35.4761 34.7962C34.4035 35.315 33.1393 35.5013 31.6421 35.3024L31.3788 37.285C33.1938 37.5261 34.8637 37.3141 36.347 36.5966L35.4761 34.7962ZM31.6561 35.3044C30.2262 35.0939 28.631 34.3863 26.8634 33.0937L25.6828 34.7081C27.6176 36.1229 29.5139 37.0105 31.3648 37.283L31.6561 35.3044ZM26.8634 33.0937L22.7951 30.1187L21.6145 31.7332L25.6828 34.7081L26.8634 33.0937ZM21.3976 30.3357L14.7393 39.4409L16.3537 40.6215L23.012 31.5162L21.3976 30.3357ZM16.1368 39.224L12.4559 36.5324L11.2754 38.1468L14.9563 40.8384L16.1368 39.224ZM12.6729 37.9298L29.0824 15.4896L27.468 14.309L11.0585 36.7493L12.6729 37.9298ZM27.685 15.7065L35.4341 21.3731L36.6147 19.7587L28.8655 14.0921L27.685 15.7065ZM35.4341 21.3731C37.0653 22.5659 38.1759 23.8166 38.83 25.109L40.6144 24.2059C39.7822 22.5613 38.4275 21.0844 36.6147 19.7587L35.4341 21.3731ZM38.8399 25.1282C39.5399 26.44 39.7943 27.6887 39.661 28.8967L41.6489 29.1162C41.8327 27.4508 41.4654 25.8002 40.6045 24.1867L38.8399 25.1282ZM39.6593 28.9125C39.5402 30.1746 39.0859 31.3554 38.2726 32.4676L39.887 33.6481C40.8997 32.2633 41.4954 30.7432 41.6505 29.1004L39.6593 28.9125ZM27.8786 31.7053C29.3797 32.803 30.899 33.4035 32.3903 33.2465L32.1809 31.2575C31.3816 31.3416 30.3564 31.0395 29.0592 30.0909L27.8786 31.7053ZM32.407 33.2446C33.9037 33.0615 35.1366 32.2158 36.1093 30.8856L34.4949 29.7051C33.7676 30.6996 32.9895 31.1584 32.1641 31.2594L32.407 33.2446ZM36.1093 30.8856C37.1178 29.5066 37.5816 28.0438 37.2564 26.5593C36.9379 25.1054 35.9088 23.851 34.4189 22.7615L33.2383 24.3759C34.5251 25.3169 35.13 26.1989 35.3027 26.9872C35.4687 27.7449 35.2809 28.6302 34.4949 29.7051L36.1093 30.8856ZM34.4189 22.7615L30.3505 19.7865L29.17 21.4009L33.2383 24.3759L34.4189 22.7615ZM28.9531 20.0035L23.5934 27.3329L25.2078 28.5134L30.5675 21.184L28.9531 20.0035ZM23.8103 28.7304L27.8786 31.7053L29.0592 30.0909L24.9909 27.1159L23.8103 28.7304Z" fill="#1E4364"/>
<path d="M49.4288 59.7351L48.146 46.9692L44.9714 45.5435L40.4159 55.6875L36.2561 53.8194L47.645 28.4593L56.4024 32.3922C58.3485 33.2661 59.8376 34.3441 60.8696 35.6261C61.926 36.919 62.5259 38.2846 62.6692 39.7229C62.8369 41.1721 62.6039 42.6022 61.9703 44.0131C61.2274 45.6673 60.0636 46.957 58.4788 47.8823C56.9292 48.7942 55.0478 49.0455 52.8346 48.6362L54.3913 61.9637L49.4288 59.7351ZM46.4626 42.223L51.0603 44.2877C52.6172 44.9869 53.9596 45.122 55.0876 44.6932C56.24 44.2753 57.1111 43.4095 57.7011 42.0959C58.291 40.7823 58.3606 39.5858 57.9099 38.5064C57.4701 37.4027 56.4596 36.4958 54.8784 35.7857L50.2808 33.7209L46.4626 42.223Z" fill="#1E4364"/>
<path d="M49.4288 59.7351L48.4338 59.8351L48.4916 60.4104L49.0191 60.6473L49.4288 59.7351ZM48.146 46.9691L49.141 46.8692L49.0832 46.2938L48.5557 46.0569L48.146 46.9691ZM44.9714 45.5435L45.3811 44.6313L44.4689 44.2216L44.0592 45.1338L44.9714 45.5435ZM40.4159 55.6875L40.0062 56.5998L40.9185 57.0094L41.3281 56.0972L40.4159 55.6875ZM36.2561 53.8194L35.3439 53.4098L34.9342 54.322L35.8464 54.7317L36.2561 53.8194ZM47.645 28.4593L48.0546 27.5471L47.1424 27.1374L46.7327 28.0497L47.645 28.4593ZM60.8696 35.6261L60.0907 36.2532L60.0952 36.2588L60.8696 35.6261ZM62.6692 39.7229L61.6742 39.8221L61.6749 39.83L61.6759 39.8379L62.6692 39.7229ZM58.4788 47.8823L57.9746 47.0187L57.9716 47.0205L58.4788 47.8823ZM52.8346 48.6362L53.0164 47.6529L51.6841 47.4065L51.8413 48.7522L52.8346 48.6362ZM54.3913 61.9637L53.9816 62.8759L55.589 63.5978L55.3846 61.8477L54.3913 61.9637ZM46.4626 42.223L45.5504 41.8133L45.1407 42.7255L46.053 43.1352L46.4626 42.223ZM55.0876 44.6932L54.7467 43.7531L54.7395 43.7557L54.7323 43.7585L55.0876 44.6932ZM57.9099 38.5064L56.9809 38.8765L56.984 38.8841L56.9871 38.8917L57.9099 38.5064ZM50.2808 33.7209L50.6904 32.8087L49.7782 32.399L49.3685 33.3113L50.2808 33.7209ZM50.4238 59.6351L49.141 46.8692L47.151 47.0691L48.4338 59.8351L50.4238 59.6351ZM48.5557 46.0569L45.3811 44.6313L44.5618 46.4557L47.7363 47.8814L48.5557 46.0569ZM44.0592 45.1338L39.5037 55.2779L41.3281 56.0972L45.8837 45.9532L44.0592 45.1338ZM40.8256 54.7753L36.6658 52.9072L35.8464 54.7317L40.0062 56.5998L40.8256 54.7753ZM37.1683 54.2291L48.5572 28.869L46.7327 28.0497L35.3439 53.4098L37.1683 54.2291ZM47.2353 29.3716L55.9927 33.3044L56.8121 31.4799L48.0546 27.5471L47.2353 29.3716ZM55.9927 33.3044C57.8362 34.1323 59.1824 35.125 60.0907 36.2532L61.6486 34.999C60.4928 33.5633 58.8608 32.4 56.8121 31.4799L55.9927 33.3044ZM60.0952 36.2588C61.047 37.4237 61.5532 38.6085 61.6742 39.8221L63.6643 39.6237C63.4986 37.9608 62.805 36.4143 61.644 34.9934L60.0952 36.2588ZM61.6759 39.8379C61.8216 41.0972 61.6225 42.3466 61.0581 43.6035L62.8826 44.4228C63.5854 42.8578 63.8523 41.2471 63.6626 39.608L61.6759 39.8379ZM61.0581 43.6035C60.4017 45.0651 59.3817 46.1972 57.9746 47.0187L58.983 48.7459C60.7455 47.7169 62.0532 46.2696 62.8826 44.4228L61.0581 43.6035ZM57.9716 47.0205C56.6779 47.7818 55.0545 48.0298 53.0164 47.6529L52.6527 49.6196C55.0411 50.0612 57.1805 49.8066 58.986 48.7442L57.9716 47.0205ZM51.8413 48.7522L53.3981 62.0797L55.3846 61.8477L53.8278 48.5202L51.8413 48.7522ZM54.801 61.0515L49.8384 58.8228L49.0191 60.6473L53.9816 62.8759L54.801 61.0515ZM46.053 43.1352L50.6506 45.1999L51.47 43.3755L46.8723 41.3107L46.053 43.1352ZM50.6506 45.1999C52.3481 45.9623 53.9796 46.1843 55.443 45.6279L54.7323 43.7585C53.9396 44.0598 52.8862 44.0115 51.47 43.3755L50.6506 45.1999ZM55.4286 45.6333C56.8797 45.107 57.9335 44.0193 58.6133 42.5055L56.7888 41.6862C56.2888 42.7997 55.6003 43.4435 54.7467 43.7531L55.4286 45.6333ZM58.6133 42.5055C59.2884 41.0023 59.4137 39.5125 58.8327 38.1211L56.9871 38.8917C57.3075 39.659 57.2936 40.5622 56.7888 41.6862L58.6133 42.5055ZM58.8389 38.1362C58.2666 36.6999 56.9981 35.6414 55.2881 34.8735L54.4688 36.6979C55.9211 37.3502 56.6737 38.1054 56.9809 38.8765L58.8389 38.1362ZM55.2881 34.8735L50.6904 32.8087L49.8711 34.6332L54.4688 36.6979L55.2881 34.8735ZM49.3685 33.3113L45.5504 41.8133L47.3749 42.6326L51.193 34.1306L49.3685 33.3113Z" fill="#1E4364"/>
<path d="M75.213 42.8925L73.4063 50.85L82.7681 52.9755L81.9445 56.6031L72.5827 54.4776L70.6963 62.7862L81.2283 65.1774L80.4047 68.805L65.4259 65.4042L71.5898 38.2552L86.5686 41.656L85.745 45.2837L75.213 42.8925Z" fill="#1E4364"/>
<path d="M75.213 42.8925L75.4344 41.9173L74.4592 41.6959L74.2378 42.6711L75.213 42.8925ZM73.4063 50.85L72.4312 50.6285L72.2098 51.6037L73.1849 51.8251L73.4063 50.85ZM82.7681 52.9755L83.7433 53.1969L83.9647 52.2217L82.9895 52.0003L82.7681 52.9755ZM81.9445 56.6031L81.7231 57.5783L82.6982 57.7997L82.9196 56.8245L81.9445 56.6031ZM72.5827 54.4776L72.8041 53.5024L71.8289 53.281L71.6075 54.2562L72.5827 54.4776ZM70.6963 62.7862L69.7212 62.5648L69.4997 63.54L70.4749 63.7614L70.6963 62.7862ZM81.2283 65.1774L82.2035 65.3988L82.4249 64.4236L81.4497 64.2022L81.2283 65.1774ZM80.4047 68.805L80.1833 69.7802L81.1584 70.0016L81.3799 69.0264L80.4047 68.805ZM65.4259 65.4042L64.4507 65.1828L64.2293 66.158L65.2045 66.3794L65.4259 65.4042ZM71.5898 38.2552L71.8112 37.28L70.836 37.0586L70.6146 38.0338L71.5898 38.2552ZM86.5686 41.656L87.5438 41.8774L87.7652 40.9022L86.79 40.6808L86.5686 41.656ZM85.745 45.2837L85.5236 46.2588L86.4988 46.4802L86.7202 45.5051L85.745 45.2837ZM74.2378 42.6711L72.4312 50.6285L74.3815 51.0714L76.1882 43.1139L74.2378 42.6711ZM73.1849 51.8251L82.5467 53.9506L82.9895 52.0003L73.6277 49.8748L73.1849 51.8251ZM81.7929 52.754L80.9693 56.3817L82.9196 56.8245L83.7433 53.1969L81.7929 52.754ZM82.1659 55.6279L72.8041 53.5024L72.3613 55.4528L81.7231 57.5783L82.1659 55.6279ZM71.6075 54.2562L69.7212 62.5648L71.6715 63.0076L73.5579 54.699L71.6075 54.2562ZM70.4749 63.7614L81.0069 66.1525L81.4497 64.2022L70.9177 61.811L70.4749 63.7614ZM80.2531 64.956L79.4295 68.5836L81.3799 69.0264L82.2035 65.3988L80.2531 64.956ZM80.6261 67.8299L65.6473 64.4291L65.2045 66.3794L80.1833 69.7802L80.6261 67.8299ZM66.4011 65.6257L72.565 38.4766L70.6146 38.0338L64.4507 65.1828L66.4011 65.6257ZM71.3684 39.2304L86.3472 42.6312L86.79 40.6808L71.8112 37.28L71.3684 39.2304ZM85.5934 41.4346L84.7698 45.0622L86.7202 45.5051L87.5438 41.8774L85.5934 41.4346ZM85.9664 44.3085L75.4344 41.9173L74.9916 43.8677L85.5236 46.2588L85.9664 44.3085Z" fill="#1E4364"/>
<path d="M120.426 42.7158L120.717 70.5143L116.157 70.562L115.958 51.523L107.678 70.6507L104.518 70.6838L95.7993 51.734L95.9986 70.773L91.4388 70.8207L91.1479 43.0222L96.0676 42.9707L106.055 64.6674L115.547 42.7669L120.426 42.7158Z" fill="#1E4364"/>
<path d="M120.426 42.7158L121.426 42.7053L121.416 41.7054L120.416 41.7159L120.426 42.7158ZM120.717 70.5143L120.728 71.5142L121.728 71.5038L121.717 70.5038L120.717 70.5143ZM116.157 70.562L115.158 70.5725L115.168 71.5724L116.168 71.5619L116.157 70.562ZM115.958 51.523L116.958 51.5126L115.041 51.1258L115.958 51.523ZM107.678 70.6507L107.688 71.6507L108.338 71.6439L108.596 71.048L107.678 70.6507ZM104.518 70.6838L103.61 71.1018L103.881 71.6905L104.529 71.6838L104.518 70.6838ZM95.7993 51.734L96.7078 51.316L94.7994 51.7445L95.7993 51.734ZM95.9986 70.773L96.009 71.7729L97.009 71.7625L96.9985 70.7625L95.9986 70.773ZM91.4388 70.8207L90.4389 70.8312L90.4493 71.8311L91.4493 71.8206L91.4388 70.8207ZM91.1479 43.0222L91.1374 42.0223L90.1375 42.0327L90.1479 43.0327L91.1479 43.0222ZM96.0676 42.9707L96.976 42.5526L96.7051 41.964L96.0571 41.9708L96.0676 42.9707ZM106.055 64.6674L105.147 65.0855L106.083 67.1187L106.973 65.065L106.055 64.6674ZM115.547 42.7669L115.536 41.7669L114.887 41.7737L114.629 42.3692L115.547 42.7669ZM119.426 42.7263L119.717 70.5247L121.717 70.5038L121.426 42.7053L119.426 42.7263ZM120.707 69.5143L116.147 69.5621L116.168 71.5619L120.728 71.5142L120.707 69.5143ZM117.157 70.5515L116.958 51.5126L114.958 51.5335L115.158 70.5725L117.157 70.5515ZM115.041 51.1258L106.76 70.2535L108.596 71.048L116.876 51.9203L115.041 51.1258ZM107.667 69.6508L104.508 69.6839L104.529 71.6838L107.688 71.6507L107.667 69.6508ZM105.427 70.2658L96.7078 51.316L94.8909 52.152L103.61 71.1018L105.427 70.2658ZM94.7994 51.7445L94.9986 70.7834L96.9985 70.7625L96.7993 51.7235L94.7994 51.7445ZM95.9881 69.773L91.4283 69.8207L91.4493 71.8206L96.009 71.7729L95.9881 69.773ZM92.4388 70.8102L92.1478 43.0117L90.1479 43.0327L90.4389 70.8312L92.4388 70.8102ZM91.1583 44.0222L96.0781 43.9707L96.0571 41.9708L91.1374 42.0223L91.1583 44.0222ZM95.1592 43.3889L105.147 65.0855L106.964 64.2492L96.976 42.5526L95.1592 43.3889ZM106.973 65.065L116.464 43.1645L114.629 42.3692L105.138 64.2697L106.973 65.065ZM115.557 43.7668L120.437 43.7157L120.416 41.7159L115.536 41.7669L115.557 43.7668Z" fill="#1E4364"/>
<path d="M131.353 39.8787L137.129 67.072L132.669 68.0194L126.892 40.8261L131.353 39.8787Z" fill="#1E4364"/>
<path d="M131.353 39.8787L132.331 39.6709L132.123 38.6927L131.145 38.9005L131.353 39.8787ZM137.129 67.072L137.337 68.0502L138.315 67.8424L138.107 66.8642L137.129 67.072ZM132.669 68.0194L131.69 68.2272L131.898 69.2054L132.876 68.9976L132.669 68.0194ZM126.892 40.8261L126.685 39.848L125.706 40.0557L125.914 41.0339L126.892 40.8261ZM130.375 40.0865L136.151 67.2798L138.107 66.8642L132.331 39.6709L130.375 40.0865ZM136.921 66.0938L132.461 67.0413L132.876 68.9976L137.337 68.0502L136.921 66.0938ZM133.647 67.8117L127.87 40.6184L125.914 41.0339L131.69 68.2272L133.647 67.8117ZM127.1 41.8043L131.561 40.8569L131.145 38.9005L126.685 39.848L127.1 41.8043Z" fill="#1E4364"/>
<path d="M160.546 59.9075C158.158 60.901 155.724 61.2636 153.244 60.9954C150.778 60.6924 148.54 59.7895 146.529 58.2868C144.532 56.7491 143.011 54.7246 141.966 52.2132C140.921 49.7018 140.563 47.2083 140.891 44.7326C141.243 42.2466 142.186 40.0349 143.719 38.0974C145.267 36.125 147.235 34.642 149.623 33.6486C152.036 32.645 154.476 32.2946 156.941 32.5977C159.421 32.8658 161.654 33.7564 163.641 35.2694C165.628 36.7824 167.143 38.7946 168.188 41.306C169.233 43.8174 169.596 46.3233 169.279 48.8236C168.951 51.2993 168.013 53.5233 166.466 55.4957C164.932 57.4333 162.959 58.9039 160.546 59.9075ZM159.025 56.2512C160.724 55.5446 162.08 54.5331 163.092 53.2168C164.093 51.8758 164.667 50.3377 164.811 48.6024C164.97 46.8323 164.656 44.9993 163.867 43.1034C163.078 41.2075 162.005 39.7043 160.648 38.5938C159.315 37.4729 157.826 36.8074 156.179 36.5972C154.532 36.387 152.859 36.6352 151.16 37.3419C149.461 38.0485 148.105 39.06 147.093 40.3763C146.081 41.6926 145.49 43.2236 145.321 44.9691C145.177 46.7044 145.499 48.52 146.287 50.4158C147.076 52.3117 148.141 53.8323 149.484 54.9778C150.842 56.0883 152.349 56.761 154.006 56.9959C155.653 57.2061 157.326 56.9579 159.025 56.2512Z" fill="#1E4364"/>
<path d="M153.244 60.9954L153.122 61.988L153.129 61.9889L153.136 61.9896L153.244 60.9954ZM146.529 58.2868L145.918 59.0791L145.924 59.0835L145.93 59.0879L146.529 58.2868ZM140.891 44.7326L139.9 44.5923L139.899 44.6014L140.891 44.7326ZM143.719 38.0974L144.503 38.718L144.506 38.7147L143.719 38.0974ZM156.941 32.5977L156.819 33.5902L156.826 33.5911L156.834 33.5919L156.941 32.5977ZM163.641 35.2694L163.035 36.065L163.641 35.2694ZM169.279 48.8236L170.27 48.9548L170.271 48.9495L169.279 48.8236ZM166.466 55.4957L167.25 56.1163L167.252 56.1131L166.466 55.4957ZM163.092 53.2168L163.884 53.8264L163.893 53.8153L163.092 53.2168ZM164.811 48.6024L163.815 48.513L163.815 48.5194L164.811 48.6024ZM160.648 38.5938L160.004 39.3591L160.015 39.3677L160.648 38.5938ZM156.179 36.5972L156.052 37.5892L156.179 36.5972ZM147.093 40.3763L147.886 40.9859L147.886 40.9859L147.093 40.3763ZM145.321 44.9691L144.326 44.8726L144.325 44.886L145.321 44.9691ZM149.484 54.9778L148.835 55.7386L148.843 55.7452L148.851 55.7517L149.484 54.9778ZM154.006 56.9959L153.866 57.9861L153.88 57.9878L154.006 56.9959ZM160.162 58.9842C157.923 59.9156 155.658 60.2506 153.351 60.0012L153.136 61.9896C155.79 62.2766 158.392 61.8864 160.93 60.8309L160.162 58.9842ZM153.366 60.0029C151.075 59.7214 149.001 58.8854 147.127 57.4856L145.93 59.0879C148.079 60.6936 150.482 61.6635 153.122 61.988L153.366 60.0029ZM147.139 57.4944C145.291 56.0716 143.872 54.1926 142.889 51.8292L141.043 52.5973C142.149 55.2566 143.772 57.4267 145.918 59.0791L147.139 57.4944ZM142.889 51.8292C141.906 49.4656 141.579 47.1493 141.882 44.8638L139.899 44.6014C139.546 47.2672 139.937 49.9381 141.043 52.5973L142.889 51.8292ZM141.881 44.8729C142.209 42.5595 143.082 40.5141 144.503 38.718L142.935 37.4768C141.29 39.5556 140.277 41.9338 139.9 44.5923L141.881 44.8729ZM144.506 38.7147C145.945 36.8815 147.772 35.5017 150.008 34.5719L149.239 32.7253C146.698 33.7824 144.59 35.3684 142.933 37.48L144.506 38.7147ZM150.008 34.5719C152.269 33.6312 154.534 33.3094 156.819 33.5902L157.063 31.6051C154.417 31.2799 151.804 31.6587 149.239 32.7253L150.008 34.5719ZM156.834 33.5919C159.132 33.8404 161.193 34.6622 163.035 36.065L164.247 34.4738C162.115 32.8506 159.71 31.8912 157.049 31.6035L156.834 33.5919ZM163.035 36.065C164.869 37.4618 166.282 39.3265 167.265 41.6901L169.111 40.922C168.005 38.2628 166.386 36.103 164.247 34.4738L163.035 36.065ZM167.265 41.6901C168.248 44.0535 168.581 46.384 168.287 48.6977L170.271 48.9495C170.612 46.2625 170.218 43.5813 169.111 40.922L167.265 41.6901ZM168.288 48.6924C167.983 50.9899 167.117 53.0462 165.679 54.8784L167.252 56.1131C168.91 54.0005 169.919 51.6087 170.27 48.9548L168.288 48.6924ZM165.681 54.8751C164.26 56.6717 162.427 58.0419 160.162 58.9842L160.93 60.8309C163.491 59.7658 165.605 58.1949 167.25 56.1163L165.681 54.8751ZM159.409 57.1745C161.252 56.4082 162.755 55.2957 163.884 53.8263L162.299 52.6072C161.404 53.7705 160.197 54.6809 158.641 55.3279L159.409 57.1745ZM163.893 53.8153C165.011 52.318 165.648 50.5996 165.808 48.6855L163.815 48.5194C163.685 50.0758 163.176 51.4337 162.291 52.6183L163.893 53.8153ZM165.807 48.6919C165.983 46.7369 165.631 44.7415 164.79 42.7193L162.944 43.4875C163.68 45.257 163.958 46.9276 163.815 48.513L165.807 48.6919ZM164.79 42.7193C163.949 40.6976 162.786 39.051 161.281 37.8198L160.015 39.3677C161.225 40.3576 162.207 41.7174 162.944 43.4875L164.79 42.7193ZM161.292 37.8284C159.82 36.5903 158.152 35.841 156.305 35.6052L156.052 37.5892C157.499 37.7738 158.811 38.3556 160.005 39.3591L161.292 37.8284ZM156.305 35.6052C154.467 35.3706 152.618 35.6522 150.776 36.4185L151.544 38.2652C153.099 37.6182 154.596 37.4034 156.052 37.5892L156.305 35.6052ZM150.776 36.4185C148.933 37.1849 147.43 38.2974 146.3 39.7668L147.886 40.9859C148.78 39.8226 149.988 38.9122 151.544 38.2652L150.776 36.4185ZM146.3 39.7668C145.168 41.2402 144.512 42.9514 144.326 44.8726L146.317 45.0656C146.469 43.4957 146.995 42.145 147.886 40.9859L146.3 39.7668ZM144.325 44.886C144.165 46.8069 144.525 48.7828 145.364 50.7999L147.21 50.0318C146.472 48.2571 146.189 46.6019 146.318 45.0522L144.325 44.886ZM145.364 50.7999C146.203 52.8174 147.355 54.4755 148.835 55.7386L150.133 54.2169C148.928 53.1892 147.948 51.806 147.21 50.0318L145.364 50.7999ZM148.851 55.7517C150.343 56.9723 152.019 57.7243 153.866 57.986L154.147 56.0058C152.679 55.7978 151.341 55.2044 150.118 54.2038L148.851 55.7517ZM153.88 57.9878C155.718 58.2225 157.567 57.9409 159.409 57.1745L158.641 55.3279C157.086 55.9749 155.588 56.1897 154.133 56.0039L153.88 57.9878Z" fill="#1E4364"/>
<path d="M190.183 43.3771C188.672 44.4737 187.125 45.2016 185.54 45.561C183.94 45.8987 182.442 45.8327 181.047 45.3629C179.651 44.893 178.484 44.0107 177.544 42.7159L181.493 39.8491C182.284 40.7576 183.242 41.2819 184.365 41.4221C185.51 41.5467 186.697 41.1625 187.927 40.2695C189.2 39.3453 189.974 38.3225 190.247 37.2013C190.505 36.0586 190.282 35.0016 189.577 34.0305C189.028 33.2752 188.355 32.8246 187.558 32.6788C186.781 32.5174 185.965 32.55 185.108 32.7767C184.272 32.9877 183.162 33.3651 181.778 33.9089C180.028 34.5857 178.549 35.0667 177.339 35.3518C176.135 35.5997 174.903 35.5379 173.645 35.1662C172.387 34.7945 171.248 33.9073 170.23 32.5046C169.29 31.2098 168.792 29.8419 168.734 28.4008C168.676 26.9597 169.042 25.5573 169.832 24.1934C170.621 22.8295 171.782 21.5915 173.314 20.4793C175.494 18.897 177.673 18.1549 179.854 18.253C182.04 18.3137 183.897 19.2388 185.427 21.0282L181.348 23.989C180.688 23.2159 179.791 22.7965 178.656 22.7308C177.52 22.6651 176.37 23.0552 175.205 23.9012C174.147 24.6688 173.48 25.5651 173.203 26.5903C172.925 27.6154 173.155 28.6351 173.891 29.6494C174.392 30.3399 175.013 30.763 175.752 30.9185C176.496 31.0368 177.287 30.9905 178.122 30.7795C178.957 30.5685 180.046 30.2067 181.387 29.6943C183.174 29.0234 184.68 28.5561 185.906 28.2926C187.153 28.0133 188.414 28.0703 189.688 28.4635C190.967 28.8195 192.124 29.7097 193.158 31.134C193.989 32.2777 194.459 33.5839 194.569 35.0525C194.701 36.5054 194.401 37.9755 193.669 39.463C192.942 40.9131 191.78 42.2178 190.183 43.3771Z" fill="#1E4364"/>
<path d="M185.54 45.561L185.747 46.5394L185.754 46.5378L185.762 46.5362L185.54 45.561ZM181.047 45.3629L181.366 44.4151L181.047 45.3629ZM177.544 42.7159L176.956 41.9067L176.147 42.4941L176.735 43.3034L177.544 42.7159ZM181.493 39.8491L182.247 39.1924L181.646 38.5023L180.906 39.0399L181.493 39.8491ZM184.365 41.4221L184.241 42.4144L184.249 42.4154L184.257 42.4163L184.365 41.4221ZM190.247 37.2013L191.219 37.4383L191.221 37.4299L191.223 37.4214L190.247 37.2013ZM187.558 32.6788L187.354 33.6579L187.366 33.6604L187.378 33.6626L187.558 32.6788ZM185.108 32.7767L185.353 33.7463L185.363 33.7434L185.108 32.7767ZM181.778 33.9089L182.138 34.8415L182.143 34.8397L181.778 33.9089ZM177.339 35.3518L177.54 36.3313L177.554 36.3284L177.568 36.3252L177.339 35.3518ZM168.734 28.4008L169.733 28.3609L169.733 28.3609L168.734 28.4008ZM169.832 24.1934L170.697 24.6943L170.697 24.6943L169.832 24.1934ZM179.854 18.253L179.809 19.2519L179.817 19.2523L179.826 19.2526L179.854 18.253ZM185.427 21.0282L186.014 21.8375L186.891 21.2014L186.187 20.3784L185.427 21.0282ZM181.348 23.989L180.588 24.6383L181.188 25.3411L181.936 24.7982L181.348 23.989ZM173.203 26.5903L174.168 26.8514L174.168 26.8514L173.203 26.5903ZM175.752 30.9185L175.546 31.8971L175.57 31.9022L175.595 31.9062L175.752 30.9185ZM181.387 29.6943L181.036 28.7581L181.03 28.7601L181.387 29.6943ZM185.906 28.2926L186.116 29.2702L186.124 29.2684L185.906 28.2926ZM189.688 28.4635L189.393 29.4191L189.406 29.4232L189.42 29.427L189.688 28.4635ZM194.569 35.0525L193.572 35.1275L193.573 35.1352L193.573 35.143L194.569 35.0525ZM193.669 39.463L194.563 39.911L194.566 39.9048L193.669 39.463ZM189.596 42.5678C188.178 43.5966 186.753 44.2605 185.319 44.5857L185.762 46.5362C187.496 46.1428 189.167 45.3507 190.771 44.1863L189.596 42.5678ZM185.334 44.5825C183.889 44.8876 182.574 44.8218 181.366 44.4151L180.728 46.3106C182.311 46.8436 183.992 46.9099 185.747 46.5394L185.334 44.5825ZM181.366 44.4151C180.185 44.0174 179.182 43.2705 178.353 42.1285L176.735 43.3034C177.785 44.7509 179.118 45.7687 180.728 46.3106L181.366 44.4151ZM178.131 43.5252L182.08 40.6584L180.906 39.0399L176.956 41.9067L178.131 43.5252ZM180.739 40.5059C181.681 41.587 182.857 42.2417 184.241 42.4144L184.489 40.4298C183.626 40.3222 182.888 39.9282 182.247 39.1924L180.739 40.5059ZM184.257 42.4163C185.719 42.5753 187.149 42.0699 188.515 41.0788L187.34 39.4603C186.245 40.255 185.301 40.518 184.473 40.428L184.257 42.4163ZM188.515 41.0788C189.91 40.0659 190.872 38.8615 191.219 37.4383L189.276 36.9643C189.076 37.7835 188.491 38.6246 187.34 39.4603L188.515 41.0788ZM191.223 37.4214C191.546 35.9904 191.255 34.6404 190.386 33.443L188.767 34.6179C189.308 35.3628 189.465 36.1267 189.272 36.9812L191.223 37.4214ZM190.386 33.443C189.711 32.5134 188.826 31.8941 187.737 31.6951L187.378 33.6626C187.884 33.7551 188.346 34.037 188.767 34.6179L190.386 33.443ZM187.761 31.6998C186.816 31.5032 185.841 31.5483 184.852 31.8099L185.363 33.7434C186.088 33.5517 186.747 33.5316 187.354 33.6579L187.761 31.6998ZM184.863 31.8071C183.967 32.0333 182.812 32.4282 181.412 32.9781L182.143 34.8397C183.512 34.3019 184.577 33.9421 185.353 33.7462L184.863 31.8071ZM181.417 32.9762C179.691 33.6439 178.258 34.1077 177.109 34.3785L177.568 36.3252C178.839 36.0256 180.365 35.5274 182.138 34.8415L181.417 32.9762ZM177.137 34.3724C176.105 34.5849 175.04 34.5355 173.928 34.2072L173.362 36.1252C174.767 36.5402 176.165 36.6145 177.54 36.3313L177.137 34.3724ZM173.928 34.2072C172.941 33.9154 171.97 33.1987 171.039 31.9172L169.421 33.0921C170.527 34.616 171.833 35.6737 173.362 36.1252L173.928 34.2072ZM171.039 31.9172C170.202 30.764 169.782 29.5834 169.733 28.3609L167.735 28.4407C167.801 30.1003 168.378 31.6557 169.421 33.0921L171.039 31.9172ZM169.733 28.3609C169.684 27.1265 169.994 25.91 170.697 24.6943L168.966 23.6925C168.091 25.2045 167.669 26.7929 167.735 28.4407L169.733 28.3609ZM170.697 24.6943C171.404 23.4734 172.46 22.3348 173.902 21.2885L172.727 19.67C171.104 20.8482 169.838 22.1857 168.966 23.6925L170.697 24.6943ZM173.902 21.2885C175.942 19.8073 177.904 19.1663 179.809 19.2519L179.898 17.254C177.443 17.1436 175.045 17.9868 172.727 19.67L173.902 21.2885ZM179.826 19.2526C181.706 19.3048 183.305 20.085 184.667 21.678L186.187 20.3784C184.49 18.3926 182.373 17.3226 179.881 17.2533L179.826 19.2526ZM184.84 20.2189L180.761 23.1797L181.936 24.7982L186.014 21.8375L184.84 20.2189ZM182.109 23.3396C181.25 22.3338 180.085 21.8119 178.713 21.7325L178.598 23.7291C179.496 23.7812 180.127 24.098 180.588 24.6383L182.109 23.3396ZM178.713 21.7325C177.292 21.6502 175.919 22.1473 174.617 23.0919L175.792 24.7104C176.822 23.9632 177.749 23.68 178.598 23.7291L178.713 21.7325ZM174.617 23.0919C173.419 23.9619 172.587 25.0363 172.237 26.3291L174.168 26.8514C174.373 26.0939 174.876 25.3757 175.792 24.7104L174.617 23.0919ZM172.237 26.3291C171.867 27.7002 172.204 29.027 173.082 30.2368L174.7 29.0619C174.106 28.2432 173.984 27.5306 174.168 26.8514L172.237 26.3291ZM173.082 30.2368C173.708 31.1 174.532 31.6838 175.546 31.8971L175.958 29.94C175.493 29.8422 175.076 29.5798 174.7 29.0619L173.082 30.2368ZM175.595 31.9062C176.491 32.0485 177.419 31.9885 178.367 31.749L177.877 29.8099C177.154 29.9925 176.502 30.0252 175.908 29.9309L175.595 31.9062ZM178.367 31.749C179.257 31.5242 180.387 31.147 181.744 30.6284L181.03 28.7601C179.705 29.2665 178.658 29.6127 177.877 29.8099L178.367 31.749ZM181.739 30.6304C183.501 29.9689 184.956 29.5196 186.116 29.2702L185.695 27.3149C184.404 27.5927 182.847 28.0779 181.036 28.7581L181.739 30.6304ZM186.124 29.2684C187.194 29.0289 188.278 29.0749 189.393 29.4191L189.982 27.508C188.55 27.0657 187.112 26.9977 185.687 27.3167L186.124 29.2684ZM189.42 29.427C190.42 29.7053 191.405 30.4205 192.349 31.7214L193.968 30.5465C192.844 28.9989 191.515 27.9338 189.956 27.5001L189.42 29.427ZM192.349 31.7214C193.066 32.7086 193.475 33.8357 193.572 35.1275L195.567 34.9775C195.443 33.3321 194.912 31.8469 193.968 30.5465L192.349 31.7214ZM193.573 35.143C193.687 36.3887 193.434 37.6756 192.771 39.0211L194.566 39.9048C195.368 38.2754 195.716 36.622 195.565 34.962L193.573 35.143ZM192.774 39.015C192.133 40.2941 191.091 41.4826 189.596 42.5678L190.771 44.1863C192.469 42.9531 193.75 41.5322 194.563 39.911L192.774 39.015Z" fill="#1E4364"/>
</svg>
