<svg width="239" height="99" viewBox="0 0 239 99" fill="none" xmlns="http://www.w3.org/2000/svg">
<path d="M29.3039 41.0532L21.083 32.8127L15.6493 35.4084L12.2875 32.0385L39.0311 19.4272L42.7602 23.1652L30.0854 49.8788L26.6953 46.4806L29.3039 41.0532ZM31.0335 37.5197L36.9878 25.1948L24.6205 31.0915L31.0335 37.5197Z" fill="#1E4364"/>
<path d="M29.3039 41.0532L30.2052 41.4863L30.5119 40.8482L30.0119 40.3469L29.3039 41.0532ZM21.083 32.8127L21.7909 32.1064L21.2908 31.6051L20.6519 31.9103L21.083 32.8127ZM15.6493 35.4084L14.9414 36.1146L15.4414 36.6159L16.0804 36.3107L15.6493 35.4084ZM12.2875 32.0385L11.861 31.1341L10.5767 31.7397L11.5795 32.7448L12.2875 32.0385ZM39.0311 19.4272L39.739 18.721L39.2416 18.2223L38.6046 18.5227L39.0311 19.4272ZM42.7602 23.1652L43.6637 23.5938L43.9656 22.9575L43.4681 22.4589L42.7602 23.1652ZM30.0854 49.8788L29.3775 50.585L30.3802 51.5902L30.9889 50.3074L30.0854 49.8788ZM26.6953 46.4806L25.794 46.0475L25.4873 46.6856L25.9874 47.1869L26.6953 46.4806ZM31.0335 37.5197L30.3255 38.2259L31.3208 39.2236L31.9339 37.9547L31.0335 37.5197ZM36.9878 25.1948L37.8882 25.6298L39.1262 23.0673L36.5574 24.2921L36.9878 25.1948ZM24.6205 31.0915L24.1902 30.1889L22.9144 30.7972L23.9126 31.7978L24.6205 31.0915ZM30.0119 40.3469L21.7909 32.1064L20.375 33.5189L28.596 41.7594L30.0119 40.3469ZM20.6519 31.9103L15.2183 34.506L16.0804 36.3107L21.514 33.715L20.6519 31.9103ZM16.3572 34.7021L12.9954 31.3323L11.5795 32.7448L14.9414 36.1146L16.3572 34.7021ZM12.714 32.943L39.4576 20.3317L38.6046 18.5227L11.861 31.1341L12.714 32.943ZM38.3232 20.1335L42.0522 23.8714L43.4681 22.4589L39.739 18.721L38.3232 20.1335ZM41.8567 22.7365L29.1819 49.4501L30.9889 50.3074L43.6637 23.5938L41.8567 22.7365ZM30.7933 49.1725L27.4033 45.7744L25.9874 47.1869L29.3775 50.585L30.7933 49.1725ZM27.5966 46.9138L30.2052 41.4863L28.4026 40.62L25.794 46.0475L27.5966 46.9138ZM31.9339 37.9547L37.8882 25.6298L36.0874 24.7598L30.133 37.0847L31.9339 37.9547ZM36.5574 24.2921L24.1902 30.1889L25.0509 31.9942L37.4182 26.0974L36.5574 24.2921ZM23.9126 31.7978L30.3255 38.2259L31.7414 36.8134L25.3285 30.3853L23.9126 31.7978Z" fill="#1E4364"/>
<path d="M50.3948 63.4207L50.7822 50.5964L47.8198 48.7702L41.9844 58.2361L38.1028 55.8431L52.6912 32.1785L60.8632 37.2162C62.6792 38.3357 64.0155 39.5981 64.8722 41.0033C65.7516 42.4226 66.1688 43.8546 66.124 45.2993C66.1019 46.758 65.6851 48.1457 64.8734 49.4623C63.9218 51.0059 62.6002 52.1334 60.9086 52.8448C59.2536 53.5476 57.3555 53.5522 55.2143 52.8587L55.0255 66.2755L50.3948 63.4207ZM49.73 45.6717L54.0203 48.3165C55.4731 49.2121 56.7865 49.5206 57.9607 49.242C59.1576 48.9774 60.1339 48.2322 60.8896 47.0064C61.6452 45.7806 61.8698 44.6033 61.5632 43.4745C61.2706 42.323 60.3866 41.2924 58.9111 40.3828L54.6208 37.738L49.73 45.6717Z" fill="#1E4364"/>
<path d="M50.3948 63.4207L49.3952 63.3905L49.3778 63.9685L49.87 64.272L50.3948 63.4207ZM50.7822 50.5964L51.7817 50.6266L51.7992 50.0486L51.3069 49.7451L50.7822 50.5964ZM47.8198 48.7702L48.3446 47.9189L47.4933 47.3942L46.9686 48.2454L47.8198 48.7702ZM41.9844 58.2361L41.4597 59.0873L42.3109 59.6121L42.8357 58.7608L41.9844 58.2361ZM38.1028 55.8431L37.2515 55.3184L36.7267 56.1696L37.578 56.6944L38.1028 55.8431ZM52.6912 32.1785L53.216 31.3272L52.3647 30.8024L51.84 31.6537L52.6912 32.1785ZM64.8722 41.0033L64.0183 41.5239L64.0221 41.53L64.8722 41.0033ZM66.124 45.2993L65.1245 45.2683L65.1243 45.2762L65.1242 45.2841L66.124 45.2993ZM60.9086 52.8448L60.5209 51.923L60.5177 51.9244L60.9086 52.8448ZM55.2143 52.8587L55.5224 51.9074L54.2334 51.4899L54.2144 52.8446L55.2143 52.8587ZM55.0255 66.2755L54.5008 67.1267L56.0007 68.0513L56.0254 66.2895L55.0255 66.2755ZM49.73 45.6717L48.8787 45.1469L48.354 45.9981L49.2052 46.5229L49.73 45.6717ZM57.9607 49.242L57.7449 48.2655L57.7374 48.2672L57.7299 48.269L57.9607 49.242ZM61.5632 43.4745L60.594 43.7208L60.596 43.7287L60.5982 43.7366L61.5632 43.4745ZM54.6208 37.738L55.1455 36.8868L54.2943 36.362L53.7695 37.2133L54.6208 37.738ZM51.3943 63.4509L51.7817 50.6266L49.7826 50.5662L49.3952 63.3905L51.3943 63.4509ZM51.3069 49.7451L48.3446 47.9189L47.2951 49.6214L50.2574 51.4476L51.3069 49.7451ZM46.9686 48.2454L41.1332 57.7113L42.8357 58.7608L48.6711 49.295L46.9686 48.2454ZM42.5092 57.3848L38.6275 54.9919L37.578 56.6944L41.4597 59.0873L42.5092 57.3848ZM38.954 56.3679L53.5425 32.7032L51.84 31.6537L37.2515 55.3184L38.954 56.3679ZM52.1665 33.0297L60.3384 38.0675L61.388 36.365L53.216 31.3272L52.1665 33.0297ZM60.3384 38.0675C62.0586 39.1279 63.2644 40.2871 64.0183 41.5239L65.726 40.4828C64.7666 38.909 63.2998 37.5435 61.388 36.365L60.3384 38.0675ZM64.0221 41.53C64.8144 42.8087 65.1623 44.0492 65.1245 45.2683L67.1236 45.3303C67.1754 43.6599 66.6887 42.0364 65.7222 40.4766L64.0221 41.53ZM65.1242 45.2841C65.1049 46.5518 64.7452 47.7647 64.0222 48.9375L65.7247 49.987C66.6249 48.5267 67.0989 46.9643 67.1239 45.3145L65.1242 45.2841ZM64.0222 48.9375C63.1814 50.3014 62.0229 51.2913 60.5209 51.923L61.2963 53.7666C63.1776 52.9754 64.6623 51.7103 65.7247 49.987L64.0222 48.9375ZM60.5177 51.9244C59.1361 52.5111 57.4942 52.546 55.5224 51.9074L54.9061 53.8101C57.2169 54.5584 59.3712 54.5841 61.2994 53.7653L60.5177 51.9244ZM54.2144 52.8446L54.0256 66.2614L56.0254 66.2895L56.2142 52.8728L54.2144 52.8446ZM55.5503 65.4242L50.9195 62.5695L49.87 64.272L54.5008 67.1267L55.5503 65.4242ZM49.2052 46.5229L53.4955 49.1677L54.545 47.4652L50.2547 44.8204L49.2052 46.5229ZM53.4955 49.1677C55.0795 50.1442 56.6683 50.5764 58.1916 50.215L57.7299 48.269C56.9048 48.4648 55.8666 48.2799 54.545 47.4652L53.4955 49.1677ZM58.1766 50.2184C59.6838 49.8852 60.8701 48.9437 61.7408 47.5311L60.0383 46.4816C59.3978 47.5207 58.6315 48.0695 57.7449 48.2655L58.1766 50.2184ZM61.7408 47.5311C62.6056 46.1284 62.9235 44.6675 62.5282 43.2124L60.5982 43.7366C60.8161 44.539 60.6849 45.4328 60.0383 46.4816L61.7408 47.5311ZM62.5324 43.2282C62.1516 41.7297 61.0315 40.5153 59.4358 39.5316L58.3863 41.2341C59.7416 42.0696 60.3896 42.9163 60.594 43.7208L62.5324 43.2282ZM59.4358 39.5316L55.1455 36.8868L54.096 38.5893L58.3863 41.2341L59.4358 39.5316ZM53.7695 37.2133L48.8787 45.1469L50.5812 46.1964L55.472 38.2628L53.7695 37.2133Z" fill="#1E4364"/>
<path d="M77.9946 49.8997L75.2433 57.5819L84.2812 60.8186L83.027 64.3208L73.9891 61.084L71.1165 69.1052L81.2841 72.7465L80.0298 76.2487L65.5692 71.0699L74.9559 44.86L89.4165 50.0389L88.1622 53.541L77.9946 49.8997Z" fill="#1E4364"/>
<path d="M77.9946 49.8997L78.3318 48.9582L77.3903 48.6211L77.0532 49.5625L77.9946 49.8997ZM75.2433 57.5819L74.3019 57.2447L73.9647 58.1862L74.9062 58.5233L75.2433 57.5819ZM84.2812 60.8186L85.2227 61.1558L85.5598 60.2144L84.6184 59.8772L84.2812 60.8186ZM83.027 64.3208L82.6898 65.2623L83.6313 65.5994L83.9684 64.658L83.027 64.3208ZM73.9891 61.084L74.3263 60.1426L73.3848 59.8054L73.0476 60.7469L73.9891 61.084ZM71.1165 69.1052L70.175 68.768L69.8379 69.7095L70.7793 70.0466L71.1165 69.1052ZM81.2841 72.7465L82.2255 73.0837L82.5627 72.1423L81.6212 71.8051L81.2841 72.7465ZM80.0298 76.2487L79.6927 77.1902L80.6341 77.5273L80.9713 76.5859L80.0298 76.2487ZM65.5692 71.0699L64.6278 70.7327L64.2906 71.6742L65.2321 72.0113L65.5692 71.0699ZM74.9559 44.86L75.293 43.9186L74.3516 43.5814L74.0144 44.5229L74.9559 44.86ZM89.4165 50.0389L90.3579 50.376L90.6951 49.4346L89.7536 49.0974L89.4165 50.0389ZM88.1622 53.541L87.8251 54.4825L88.7665 54.8196L89.1037 53.8782L88.1622 53.541ZM77.0532 49.5625L74.3019 57.2447L76.1848 57.919L78.936 50.2368L77.0532 49.5625ZM74.9062 58.5233L83.9441 61.7601L84.6184 59.8772L75.5805 56.6404L74.9062 58.5233ZM83.3398 60.4815L82.0855 63.9837L83.9684 64.658L85.2227 61.1558L83.3398 60.4815ZM83.3641 63.3794L74.3263 60.1426L73.6519 62.0255L82.6898 65.2623L83.3641 63.3794ZM73.0476 60.7469L70.175 68.768L72.0579 69.4423L74.9305 61.4212L73.0476 60.7469ZM70.7793 70.0466L80.9469 73.688L81.6212 71.8051L71.4536 68.1637L70.7793 70.0466ZM80.3426 72.4094L79.0884 75.9116L80.9713 76.5859L82.2255 73.0837L80.3426 72.4094ZM80.367 75.3073L65.9064 70.1284L65.2321 72.0113L79.6927 77.1902L80.367 75.3073ZM66.5107 71.407L75.8973 45.1972L74.0144 44.5229L64.6278 70.7327L66.5107 71.407ZM74.6187 45.8015L89.0793 50.9803L89.7536 49.0974L75.293 43.9186L74.6187 45.8015ZM88.475 49.7017L87.2208 53.2039L89.1037 53.8782L90.3579 50.376L88.475 49.7017ZM88.4994 52.5996L78.3318 48.9582L77.6574 50.8411L87.8251 54.4825L88.4994 52.5996Z" fill="#1E4364"/>
<path d="M113.431 82.0535L108.907 81.4877L97.8682 59.1859L95.2925 79.7855L90.7678 79.2197L94.2219 51.5948L98.7466 52.1606L109.79 74.4228L112.361 53.8628L116.885 54.4286L113.431 82.0535Z" fill="#1E4364"/>
<path d="M113.431 82.0535L113.307 83.0458L114.299 83.1698L114.424 82.1776L113.431 82.0535ZM108.907 81.4877L108.01 81.9313L108.249 82.4133L108.782 82.48L108.907 81.4877ZM97.8682 59.1859L98.7644 58.7423L97.2887 55.7607L96.8759 59.0618L97.8682 59.1859ZM95.2925 79.7855L95.1685 80.7778L96.1607 80.9018L96.2848 79.9096L95.2925 79.7855ZM90.7678 79.2197L89.7755 79.0957L89.6514 80.0879L90.6437 80.212L90.7678 79.2197ZM94.2219 51.5948L94.3459 50.6026L93.3537 50.4785L93.2296 51.4708L94.2219 51.5948ZM98.7466 52.1606L99.6425 51.7162L99.4037 51.235L98.8707 51.1683L98.7466 52.1606ZM109.79 74.4228L108.894 74.8671L110.37 77.8426L110.782 74.5468L109.79 74.4228ZM112.361 53.8628L112.485 52.8706L111.492 52.7465L111.368 53.7388L112.361 53.8628ZM116.885 54.4286L117.878 54.5527L118.002 53.5604L117.009 53.4363L116.885 54.4286ZM113.555 81.0612L109.031 80.4955L108.782 82.48L113.307 83.0458L113.555 81.0612ZM109.803 81.0441L98.7644 58.7423L96.972 59.6295L108.01 81.9313L109.803 81.0441ZM96.8759 59.0618L94.3002 79.6614L96.2848 79.9096L98.8605 59.31L96.8759 59.0618ZM95.4166 78.7932L90.8918 78.2275L90.6437 80.212L95.1685 80.7778L95.4166 78.7932ZM91.76 79.3438L95.2141 51.7189L93.2296 51.4708L89.7755 79.0957L91.76 79.3438ZM94.0978 52.5871L98.6226 53.1529L98.8707 51.1683L94.3459 50.6026L94.0978 52.5871ZM97.8508 52.605L108.894 74.8671L110.686 73.9784L99.6425 51.7162L97.8508 52.605ZM110.782 74.5468L113.353 53.9869L111.368 53.7388L108.798 74.2987L110.782 74.5468ZM112.237 54.8551L116.761 55.4209L117.009 53.4363L112.485 52.8706L112.237 54.8551ZM115.893 54.3045L112.439 81.9294L114.424 82.1776L117.878 54.5527L115.893 54.3045Z" fill="#1E4364"/>
<path d="M127.336 57.3592L128.111 65.4823L137.668 64.5705L138.021 68.2737L128.464 69.1855L129.273 77.667L140.025 76.6412L140.378 80.3444L125.087 81.8033L122.443 54.0891L137.734 52.6302L138.087 56.3334L127.336 57.3592Z" fill="#1E4364"/>
<path d="M127.336 57.3592L127.241 56.3637L126.245 56.4587L126.34 57.4542L127.336 57.3592ZM128.111 65.4823L127.115 65.5773L127.21 66.5728L128.206 66.4778L128.111 65.4823ZM137.667 64.5705L138.663 64.4755L138.568 63.4801L137.573 63.575L137.667 64.5705ZM138.021 68.2737L138.116 69.2692L139.111 69.1742L139.016 68.1787L138.021 68.2737ZM128.464 69.1855L128.369 68.19L127.374 68.285L127.469 69.2805L128.464 69.1855ZM129.273 77.667L128.278 77.762L128.373 78.7574L129.368 78.6625L129.273 77.667ZM140.025 76.6412L141.02 76.5462L140.925 75.5508L139.93 75.6457L140.025 76.6412ZM140.378 80.3444L140.473 81.3399L141.468 81.2449L141.373 80.2494L140.378 80.3444ZM125.087 81.8033L124.092 81.8982L124.187 82.8937L125.182 82.7987L125.087 81.8033ZM122.443 54.0891L122.348 53.0936L121.353 53.1886L121.448 54.1841L122.443 54.0891ZM137.734 52.6302L138.729 52.5353L138.634 51.5398L137.639 51.6348L137.734 52.6302ZM138.087 56.3334L138.182 57.3289L139.178 57.2339L139.083 56.2385L138.087 56.3334ZM126.34 57.4542L127.115 65.5773L129.106 65.3873L128.331 57.2642L126.34 57.4542ZM128.206 66.4778L137.762 65.566L137.573 63.575L128.016 64.4868L128.206 66.4778ZM136.672 64.6655L137.025 68.3687L139.016 68.1787L138.663 64.4755L136.672 64.6655ZM137.926 67.2782L128.369 68.19L128.559 70.181L138.116 69.2692L137.926 67.2782ZM127.469 69.2805L128.278 77.762L130.269 77.572L129.46 69.0905L127.469 69.2805ZM129.368 78.6625L140.12 77.6367L139.93 75.6457L129.178 76.6715L129.368 78.6625ZM139.029 76.7362L139.382 80.4394L141.373 80.2494L141.02 76.5462L139.029 76.7362ZM140.283 79.3489L124.992 80.8078L125.182 82.7987L140.473 81.3399L140.283 79.3489ZM126.083 81.7083L123.439 53.9941L121.448 54.1841L124.092 81.8982L126.083 81.7083ZM122.538 55.0846L137.829 53.6257L137.639 51.6348L122.348 53.0936L122.538 55.0846ZM136.738 52.7252L137.092 56.4284L139.083 56.2385L138.729 52.5353L136.738 52.7252ZM137.992 55.338L127.241 56.3637L127.431 58.3547L138.182 57.3289L137.992 55.338Z" fill="#1E4364"/>
<path d="M165.084 74.0461L155.652 65.3485L152.331 66.3891L155.656 77.0003L151.304 78.3638L142.992 51.8357L152.153 48.9652C154.188 48.3273 156.018 48.1453 157.641 48.4193C159.289 48.6853 160.644 49.3086 161.706 50.2893C162.793 51.262 163.568 52.4863 164.03 53.9622C164.573 55.6926 164.558 57.4298 163.987 59.1737C163.433 60.8843 162.192 62.3209 160.265 63.4837L170.275 72.4195L165.084 74.0461ZM151.242 62.9156L156.052 61.4086C157.68 60.8983 158.774 60.1084 159.333 59.0389C159.918 57.9615 159.995 56.7357 159.564 55.3616C159.134 53.9875 158.392 53.0463 157.338 52.5381C156.277 52.0044 154.919 51.9967 153.265 52.515L148.456 54.022L151.242 62.9156Z" fill="#1E4364"/>
<path d="M165.084 74.0461L164.406 74.7812L164.831 75.1732L165.383 75.0003L165.084 74.0461ZM155.652 65.3485L156.33 64.6134L155.904 64.2214L155.353 64.3943L155.652 65.3485ZM152.331 66.3891L152.032 65.4348L151.078 65.7339L151.377 66.6881L152.331 66.3891ZM155.656 77.0003L155.955 77.9546L156.909 77.6556L156.61 76.7013L155.656 77.0003ZM151.304 78.3638L150.35 78.6629L150.649 79.6171L151.604 79.3181L151.304 78.3638ZM142.992 51.8357L142.693 50.8815L141.739 51.1805L142.038 52.1347L142.992 51.8357ZM157.641 48.4193L157.474 49.4053L157.481 49.4065L157.641 48.4193ZM161.706 50.2893L161.027 51.0239L161.033 51.0293L161.039 51.0346L161.706 50.2893ZM163.987 59.1737L163.036 58.8624L163.035 58.8657L163.987 59.1737ZM160.265 63.4837L159.748 62.6275L158.588 63.3274L159.599 64.2297L160.265 63.4837ZM170.275 72.4195L170.574 73.3737L172.255 72.8468L170.941 71.6735L170.275 72.4195ZM151.242 62.9156L150.288 63.2146L150.587 64.1689L151.541 63.8699L151.242 62.9156ZM159.333 59.0389L158.454 58.562L158.451 58.5688L158.447 58.5756L159.333 59.0389ZM157.338 52.5381L156.889 53.4315L156.896 53.4352L156.904 53.4388L157.338 52.5381ZM148.456 54.022L148.157 53.0678L147.202 53.3668L147.501 54.321L148.456 54.022ZM165.762 73.3109L156.33 64.6134L154.974 66.0837L164.406 74.7812L165.762 73.3109ZM155.353 64.3943L152.032 65.4348L152.63 67.3433L155.951 66.3028L155.353 64.3943ZM151.377 66.6881L154.702 77.2994L156.61 76.7013L153.285 66.0901L151.377 66.6881ZM155.357 76.0461L151.005 77.4096L151.604 79.3181L155.955 77.9546L155.357 76.0461ZM152.259 78.0648L143.946 51.5367L142.038 52.1347L150.35 78.6629L152.259 78.0648ZM143.291 52.79L152.452 49.9194L151.854 48.0109L142.693 50.8815L143.291 52.79ZM152.452 49.9194C154.38 49.3152 156.046 49.1642 157.474 49.4053L157.807 47.4332C155.99 47.1264 153.997 47.3394 151.854 48.0109L152.452 49.9194ZM157.481 49.4065C158.966 49.6461 160.131 50.1964 161.027 51.0239L162.384 49.5547C161.157 48.4208 159.611 47.7244 157.8 47.432L157.481 49.4065ZM161.039 51.0346C161.984 51.8799 162.664 52.9465 163.076 54.2613L164.985 53.6632C164.472 52.0262 163.602 50.6442 162.372 49.544L161.039 51.0346ZM163.076 54.2613C163.555 55.7902 163.544 57.314 163.036 58.8624L164.937 59.4851C165.572 57.5456 165.59 55.595 164.985 53.6632L163.076 54.2613ZM163.035 58.8657C162.573 60.2938 161.523 61.5567 159.748 62.6275L160.782 64.3399C162.861 63.0851 164.293 61.4748 164.938 59.4818L163.035 58.8657ZM159.599 64.2297L169.609 73.1655L170.941 71.6735L160.931 62.7377L159.599 64.2297ZM169.976 71.4652L164.785 73.0918L165.383 75.0003L170.574 73.3737L169.976 71.4652ZM151.541 63.8699L156.351 62.3628L155.753 60.4543L150.943 61.9614L151.541 63.8699ZM156.351 62.3628C158.127 61.8064 159.494 60.8896 160.22 59.5023L158.447 58.5756C158.054 59.3271 157.234 59.9901 155.753 60.4543L156.351 62.3628ZM160.212 59.5158C160.949 58.1591 161.015 56.6461 160.519 55.0626L158.61 55.6606C158.975 56.8254 158.887 57.7639 158.454 58.562L160.212 59.5158ZM160.519 55.0626C160.026 53.4901 159.131 52.2926 157.773 51.6374L156.904 53.4388C157.653 53.8001 158.242 54.4849 158.61 55.6606L160.519 55.0626ZM157.788 51.6447C156.406 50.9501 154.755 51.0002 152.966 51.5607L153.564 53.4692C155.083 52.9932 156.148 53.0587 156.889 53.4315L157.788 51.6447ZM152.966 51.5607L148.157 53.0678L148.755 54.9763L153.564 53.4692L152.966 51.5607ZM147.501 54.321L150.288 63.2146L152.197 62.6166L149.41 53.723L147.501 54.321Z" fill="#1E4364"/>
<path d="M192.026 61.4971C189.824 62.8545 187.477 63.5962 184.986 63.7222C182.504 63.8115 180.151 63.2727 177.928 62.1057C175.713 60.902 173.893 59.1424 172.465 56.827C171.038 54.5116 170.291 52.1057 170.224 49.6094C170.18 47.099 170.763 44.7663 171.972 42.6113C173.19 40.4196 174.899 38.6451 177.101 37.2877C179.326 35.9163 181.679 35.1859 184.162 35.0966C186.653 34.9707 188.999 35.4982 191.199 36.6791C193.399 37.8601 195.213 39.6083 196.641 41.9237C198.068 44.2391 198.822 46.6563 198.903 49.1754C198.969 51.6718 198.394 54.0159 197.176 56.2076C195.967 58.3626 194.25 60.1257 192.026 61.4971ZM189.947 58.1262C191.514 57.1606 192.693 55.9482 193.485 54.4888C194.263 53.0067 194.587 51.3975 194.456 49.6611C194.334 47.888 193.734 46.1275 192.657 44.3796C191.579 42.6317 190.283 41.3164 188.767 40.4336C187.275 39.5368 185.699 39.1144 184.039 39.1664C182.38 39.2183 180.767 39.7271 179.2 40.6927C177.634 41.6582 176.455 42.8707 175.663 44.33C174.871 45.7894 174.529 47.3943 174.637 49.1447C174.767 50.8811 175.372 52.6232 176.449 54.3711C177.527 56.119 178.819 57.4527 180.325 58.3722C181.841 59.255 183.435 59.6818 185.109 59.6525C186.768 59.6005 188.381 59.0918 189.947 58.1262Z" fill="#1E4364"/>
<path d="M184.986 63.7222L185.022 64.7216L185.029 64.7213L185.037 64.7209L184.986 63.7222ZM177.928 62.1057L177.45 62.9842L177.457 62.9877L177.463 62.9911L177.928 62.1057ZM170.224 49.6094L169.224 49.6268L169.225 49.636L170.224 49.6094ZM171.972 42.6113L172.844 43.1006L172.846 43.0969L171.972 42.6113ZM184.162 35.0966L184.198 36.096L184.205 36.0957L184.212 36.0954L184.162 35.0966ZM191.199 36.6791L190.726 37.5603L191.199 36.6791ZM198.903 49.1754L199.902 49.1488L199.902 49.1435L198.903 49.1754ZM197.176 56.2076L198.048 56.6968L198.05 56.6932L197.176 56.2076ZM193.485 54.4888L194.364 54.9658L194.37 54.9536L193.485 54.4888ZM194.456 49.6611L193.458 49.7297L193.459 49.7361L194.456 49.6611ZM188.767 40.4336L188.252 41.2909L188.264 41.2976L188.767 40.4336ZM184.039 39.1664L184.07 40.1659L184.039 39.1664ZM175.663 44.33L176.542 44.807L176.542 44.807L175.663 44.33ZM174.637 49.1447L173.639 49.2062L173.64 49.2197L174.637 49.1447ZM180.325 58.3722L179.804 59.2258L179.813 59.2311L179.822 59.2363L180.325 58.3722ZM185.109 59.6525L185.126 60.6524L185.14 60.652L185.109 59.6525ZM191.501 60.6459C189.437 61.9184 187.252 62.6063 184.936 62.7235L185.037 64.7209C187.702 64.5861 190.211 63.7906 192.55 62.3484L191.501 60.6459ZM184.95 62.7229C182.644 62.8058 180.463 62.3072 178.393 61.2202L177.463 62.9911C179.839 64.2381 182.364 64.8172 185.022 64.7216L184.95 62.7229ZM178.405 61.2271C176.356 60.1133 174.66 58.4813 173.316 56.3023L171.614 57.3518C173.125 59.8036 175.07 61.6907 177.45 62.9842L178.405 61.2271ZM173.316 56.3023C171.973 54.1231 171.285 51.8874 171.224 49.5827L169.225 49.636C169.296 52.3241 170.103 54.9001 171.614 57.3518L173.316 56.3023ZM171.224 49.5919C171.183 47.2557 171.723 45.0983 172.844 43.1006L171.1 42.122C169.803 44.4342 169.177 46.9422 169.224 49.6268L171.224 49.5919ZM172.846 43.0969C173.978 41.0599 175.565 39.4094 177.626 38.1389L176.576 36.4364C174.234 37.8808 172.401 39.7793 171.098 42.1256L172.846 43.0969ZM177.626 38.1389C179.711 36.8535 181.897 36.1787 184.198 36.096L184.126 34.0973C181.461 34.1931 178.94 34.9791 176.576 36.4364L177.626 38.1389ZM184.212 36.0954C186.521 35.9786 188.686 36.4653 190.726 37.5603L191.672 35.798C189.311 34.531 186.784 33.9627 184.111 34.0979L184.212 36.0954ZM190.726 37.5603C192.757 38.6505 194.446 40.2693 195.789 42.4485L197.492 41.3989C195.98 38.9473 194.041 37.0697 191.672 35.798L190.726 37.5603ZM195.789 42.4485C197.133 44.6275 197.828 46.8764 197.903 49.2074L199.902 49.1435C199.815 46.4363 199.003 43.8507 197.492 41.3989L195.789 42.4485ZM197.903 49.2021C197.965 51.5188 197.433 53.686 196.302 55.7219L198.05 56.6932C199.354 54.3457 199.974 51.8249 199.902 49.1488L197.903 49.2021ZM196.304 55.7183C195.183 57.7165 193.589 59.3584 191.501 60.6459L192.55 62.3484C194.911 60.8931 196.751 59.0086 198.048 56.6968L196.304 55.7183ZM190.472 58.9774C192.171 57.9304 193.48 56.5949 194.364 54.9658L192.606 54.0118C191.906 55.3015 190.857 56.3909 189.423 57.2749L190.472 58.9774ZM194.37 54.9536C195.239 53.2987 195.597 51.5014 195.453 49.5861L193.459 49.7361C193.576 51.2936 193.287 52.7148 192.599 54.024L194.37 54.9536ZM195.454 49.5925C195.319 47.6343 194.657 45.7192 193.508 43.8548L191.806 44.9044C192.811 46.5359 193.349 48.1418 193.458 49.7297L195.454 49.5925ZM193.508 43.8548C192.359 41.9909 190.951 40.5482 189.271 39.5695L188.264 41.2976C189.615 42.0846 190.8 43.2725 191.806 44.9044L193.508 43.8548ZM189.283 39.5764C187.634 38.5858 185.869 38.1086 184.008 38.1668L184.07 40.1659C185.528 40.1202 186.916 40.4878 188.252 41.2908L189.283 39.5764ZM184.008 38.1668C182.155 38.2249 180.374 38.7943 178.676 39.8414L179.725 41.5439C181.159 40.6599 182.604 40.2118 184.07 40.1659L184.008 38.1668ZM178.676 39.8414C176.977 40.8885 175.668 42.224 174.784 43.8531L176.542 44.807C177.242 43.5174 178.291 42.4279 179.725 41.5439L178.676 39.8414ZM174.784 43.8531C173.897 45.4866 173.52 47.2797 173.639 49.2062L175.635 49.0831C175.538 47.5089 175.844 46.0922 176.542 44.807L174.784 43.8531ZM173.64 49.2197C173.784 51.1418 174.451 53.0362 175.598 54.8959L177.3 53.8464C176.292 52.2102 175.751 50.6204 175.634 49.0697L173.64 49.2197ZM175.598 54.8959C176.744 56.756 178.143 58.2118 179.804 59.2258L180.846 57.5186C179.494 56.6936 178.309 55.4821 177.3 53.8464L175.598 54.8959ZM179.822 59.2363C181.487 60.2065 183.261 60.685 185.126 60.6523L185.091 58.6526C183.609 58.6786 182.194 58.3035 180.829 57.5081L179.822 59.2363ZM185.14 60.652C186.993 60.594 188.774 60.0245 190.472 58.9774L189.423 57.2749C187.989 58.159 186.544 58.6071 185.077 58.653L185.14 60.652Z" fill="#1E4364"/>
<path d="M218.583 40.3424C217.279 41.6783 215.877 42.6571 214.376 43.2788C212.855 43.8818 211.368 44.0697 209.913 43.8422C208.458 43.6147 207.158 42.9423 206.013 41.8247L209.422 38.3323C210.355 39.0941 211.387 39.4493 212.518 39.3978C213.667 39.3273 214.773 38.7481 215.835 37.6603C216.934 36.5344 217.523 35.3957 217.603 34.2444C217.665 33.0745 217.266 32.0705 216.407 31.2323C215.739 30.5805 215 30.25 214.189 30.241C213.396 30.2129 212.597 30.383 211.791 30.7511C211.003 31.1001 209.972 31.6595 208.699 32.4293C207.089 33.3917 205.712 34.1156 204.568 34.601C203.423 35.0487 202.199 35.1955 200.896 35.0417C199.593 34.8878 198.321 34.2055 197.081 32.9949C195.936 31.8774 195.213 30.6133 194.913 29.2026C194.613 27.7919 194.737 26.3478 195.285 24.8703C195.832 23.3927 196.767 21.9764 198.09 20.6215C199.971 18.694 201.994 17.5945 204.16 17.323C206.324 17.0138 208.312 17.6119 210.122 19.1174L206.601 22.7243C205.82 22.0738 204.865 21.812 203.735 21.9388C202.605 22.0657 201.537 22.6444 200.531 23.675C199.619 24.6101 199.112 25.6063 199.012 26.6635C198.912 27.7208 199.31 28.6871 200.207 29.5625C200.818 30.1585 201.5 30.4708 202.255 30.4993C203.009 30.4902 203.78 30.3111 204.568 29.962C205.356 29.613 206.367 29.0727 207.603 28.3411C209.251 27.3782 210.657 26.6633 211.82 26.1966C213.002 25.7108 214.254 25.5541 215.576 25.7266C216.898 25.8614 218.189 26.5434 219.448 27.7727C220.46 28.7599 221.144 29.9678 221.501 31.3967C221.876 32.8064 221.828 34.3062 221.357 35.896C220.886 37.448 219.961 38.9302 218.583 40.3424Z" fill="#1E4364"/>
<path d="M214.376 43.2788L214.744 44.2083L214.751 44.2055L214.758 44.2027L214.376 43.2788ZM209.913 43.8422L210.068 42.8542L209.913 43.8422ZM206.013 41.8247L205.298 41.1263L204.599 41.8419L205.315 42.5404L206.013 41.8247ZM209.422 38.3323L210.054 37.5576L209.345 36.979L208.706 37.6339L209.422 38.3323ZM212.518 39.3978L212.563 40.3968L212.571 40.3964L212.579 40.396L212.518 39.3978ZM217.603 34.2444L218.601 34.314L218.602 34.3053L218.602 34.2967L217.603 34.2444ZM214.189 30.241L214.153 31.2404L214.165 31.2408L214.178 31.241L214.189 30.241ZM211.791 30.7511L212.196 31.6654L212.206 31.6608L211.791 30.7511ZM208.699 32.4293L209.213 33.2876L209.217 33.285L208.699 32.4293ZM204.568 34.601L204.932 35.5323L204.945 35.5272L204.958 35.5216L204.568 34.601ZM194.913 29.2026L195.891 28.9946L195.891 28.9946L194.913 29.2026ZM195.285 24.8703L196.222 25.2179L196.222 25.2179L195.285 24.8703ZM204.16 17.323L204.284 18.3152L204.293 18.3142L204.301 18.313L204.16 17.323ZM210.122 19.1174L210.837 19.8158L211.593 19.041L210.761 18.3486L210.122 19.1174ZM206.601 22.7243L205.961 23.4927L206.672 24.0841L207.317 23.4227L206.601 22.7243ZM199.012 26.6635L200.007 26.758L200.007 26.758L199.012 26.6635ZM202.255 30.4993L202.217 31.4986L202.242 31.4996L202.267 31.4992L202.255 30.4993ZM207.603 28.3411L207.099 27.4777L207.094 27.4806L207.603 28.3411ZM211.82 26.1966L212.192 27.1247L212.2 27.1215L211.82 26.1966ZM215.576 25.7266L215.447 26.7182L215.461 26.72L215.475 26.7215L215.576 25.7266ZM221.501 31.3967L220.53 31.639L220.532 31.6465L220.534 31.654L221.501 31.3967ZM221.357 35.896L222.314 36.1866L222.316 36.18L221.357 35.896ZM217.867 39.6439C216.644 40.8972 215.352 41.7921 213.993 42.3549L214.758 44.2027C216.402 43.522 217.914 42.4593 219.298 41.0408L217.867 39.6439ZM214.007 42.3492C212.634 42.8939 211.327 43.0511 210.068 42.8542L209.759 44.8302C211.409 45.0882 213.077 44.8698 214.744 44.2083L214.007 42.3492ZM210.068 42.8542C208.836 42.6616 207.722 42.0948 206.712 41.1091L205.315 42.5404C206.595 43.7898 208.081 44.5679 209.759 44.8302L210.068 42.8542ZM206.729 42.5232L210.137 39.0308L208.706 37.6339L205.298 41.1263L206.729 42.5232ZM208.789 39.107C209.9 40.0135 211.17 40.4602 212.563 40.3968L212.473 38.3989C211.604 38.4384 210.81 38.1747 210.054 37.5576L208.789 39.107ZM212.579 40.396C214.047 40.3059 215.372 39.5662 216.55 38.3588L215.119 36.9619C214.174 37.9301 213.288 38.3487 212.457 38.3997L212.579 40.396ZM216.55 38.3588C217.755 37.1249 218.499 35.7754 218.601 34.314L216.606 34.1749C216.547 35.0161 216.113 35.9438 215.119 36.9619L216.55 38.3588ZM218.602 34.2967C218.679 32.8316 218.164 31.5501 217.106 30.5167L215.709 31.948C216.367 32.5909 216.651 33.3174 216.605 34.1922L218.602 34.2967ZM217.106 30.5167C216.283 29.7143 215.307 29.2534 214.2 29.2411L214.178 31.241C214.693 31.2467 215.195 31.4466 215.709 31.948L217.106 30.5167ZM214.224 29.2417C213.259 29.2075 212.306 29.4165 211.375 29.8414L212.206 31.6608C212.888 31.3494 213.534 31.2184 214.153 31.2404L214.224 29.2417ZM211.385 29.8368C210.541 30.2109 209.469 30.7951 208.182 31.5736L209.217 33.285C210.476 32.5238 211.464 31.9893 212.196 31.6653L211.385 29.8368ZM208.186 31.5709C206.598 32.5204 205.264 33.2195 204.177 33.6804L204.958 35.5216C206.16 35.0118 207.581 34.2631 209.213 33.2876L208.186 31.5709ZM204.204 33.6697C203.222 34.0535 202.164 34.1845 201.013 34.0486L200.779 36.0348C202.233 36.2066 203.624 36.0438 204.932 35.5323L204.204 33.6697ZM201.013 34.0486C199.99 33.9278 198.912 33.3853 197.779 32.2792L196.382 33.7105C197.73 35.0258 199.195 35.8478 200.779 36.0348L201.013 34.0486ZM197.779 32.2792C196.759 31.2839 196.146 30.1913 195.891 28.9946L193.935 29.4106C194.28 31.0352 195.112 32.4708 196.382 33.7105L197.779 32.2792ZM195.891 28.9946C195.634 27.7863 195.734 26.5349 196.222 25.2179L194.347 24.5227C193.74 26.1608 193.592 27.7976 193.935 29.4106L195.891 28.9946ZM196.222 25.2179C196.713 23.8952 197.562 22.5946 198.806 21.3199L197.374 19.923C195.973 21.3583 194.952 22.8902 194.347 24.5227L196.222 25.2179ZM198.806 21.3199C200.567 19.5155 202.392 18.5524 204.284 18.3152L204.035 16.3308C201.597 16.6365 199.375 17.8725 197.374 19.923L198.806 21.3199ZM204.301 18.313C206.163 18.047 207.871 18.546 209.482 19.8862L210.761 18.3486C208.753 16.6779 206.486 15.9806 204.018 16.333L204.301 18.313ZM209.406 18.4189L205.886 22.0258L207.317 23.4227L210.837 19.8158L209.406 18.4189ZM207.241 21.9559C206.225 21.1095 204.989 20.7918 203.623 20.9451L203.846 22.9326C204.741 22.8321 205.416 23.0381 205.961 23.4927L207.241 21.9559ZM203.623 20.9451C202.208 21.104 200.939 21.8258 199.816 22.9765L201.247 24.3734C202.135 23.4631 203.001 23.0275 203.846 22.9326L203.623 20.9451ZM199.816 22.9765C198.781 24.0363 198.143 25.2358 198.016 26.5691L200.007 26.758C200.082 25.9768 200.456 25.1839 201.247 24.3734L199.816 22.9765ZM198.016 26.5691C197.882 27.9831 198.439 29.234 199.509 30.2782L200.905 28.8468C200.181 28.1402 199.941 27.4585 200.007 26.758L198.016 26.5691ZM199.509 30.2782C200.272 31.0232 201.182 31.4595 202.217 31.4986L202.293 29.5C201.818 29.4821 201.363 29.2938 200.905 28.8468L199.509 30.2782ZM202.267 31.4992C203.175 31.4882 204.079 31.2724 204.973 30.8763L204.163 29.0478C203.481 29.3497 202.844 29.4921 202.243 29.4994L202.267 31.4992ZM204.973 30.8763C205.812 30.5045 206.862 29.9419 208.113 29.2016L207.094 27.4806C205.873 28.2035 204.899 28.7216 204.163 29.0478L204.973 30.8763ZM208.108 29.2045C209.732 28.255 211.091 27.5663 212.192 27.1247L211.448 25.2685C210.222 25.7603 208.769 26.5014 207.099 27.4777L208.108 29.2045ZM212.2 27.1215C213.214 26.7049 214.29 26.5672 215.447 26.7182L215.706 24.735C214.219 24.541 212.79 24.7167 211.44 25.2717L212.2 27.1215ZM215.475 26.7215C216.508 26.8268 217.599 27.3655 218.75 28.4884L220.147 27.0571C218.778 25.7213 217.288 24.896 215.678 24.7318L215.475 26.7215ZM218.75 28.4884C219.623 29.3404 220.217 30.3821 220.53 31.639L222.471 31.1544C222.071 29.5536 221.297 28.1793 220.147 27.0571L218.75 28.4884ZM220.534 31.654C220.856 32.8628 220.825 34.1739 220.399 35.6119L222.316 36.18C222.832 34.4385 222.896 32.7501 222.467 31.1393L220.534 31.654ZM220.401 35.6053C219.985 36.9743 219.157 38.3218 217.867 39.6439L219.298 41.0408C220.765 39.5385 221.787 37.9217 222.314 36.1866L220.401 35.6053Z" fill="#1E4364"/>
</svg>
