<svg width="311" height="126" viewBox="0 0 311 126" fill="none" xmlns="http://www.w3.org/2000/svg">
<path d="M27.5307 45.7022L25.0359 41.8852L34.9072 19.0428L17.5297 30.4006L15.0349 26.5836L38.3389 11.3523L40.8337 15.1694L30.9958 37.9898L48.3399 26.6539L50.8346 30.471L27.5307 45.7022Z" fill="#1E4364"/>
<path d="M27.5307 45.7022L26.6936 46.2493L27.2407 47.0864L28.0778 46.5393L27.5307 45.7022ZM25.0359 41.8852L24.1179 41.4885L23.9046 41.9821L24.1988 42.4323L25.0359 41.8852ZM34.9072 19.0428L35.8252 19.4395L37.1449 16.3856L34.3601 18.2057L34.9072 19.0428ZM17.5297 30.4006L16.6926 30.9477L17.2397 31.7848L18.0768 31.2377L17.5297 30.4006ZM15.0349 26.5836L14.4878 25.7465L13.6508 26.2936L14.1979 27.1307L15.0349 26.5836ZM38.3389 11.3523L39.176 10.8052L38.6289 9.96816L37.7918 10.5153L38.3389 11.3523ZM40.8337 15.1694L41.752 15.5652L41.9646 15.0719L41.6707 14.6223L40.8337 15.1694ZM30.9958 37.9898L30.0775 37.5939L28.7626 40.6441L31.5429 38.8269L30.9958 37.9898ZM48.3399 26.6539L49.1769 26.1068L48.6298 25.2698L47.7928 25.8169L48.3399 26.6539ZM50.8346 30.471L51.3817 31.308L52.2188 30.7609L51.6717 29.9239L50.8346 30.471ZM28.3677 45.1551L25.873 41.3381L24.1988 42.4323L26.6936 46.2493L28.3677 45.1551ZM25.9539 42.2819L35.8252 19.4395L33.9893 18.6461L24.1179 41.4885L25.9539 42.2819ZM34.3601 18.2057L16.9826 29.5635L18.0768 31.2377L35.4543 19.8799L34.3601 18.2057ZM18.3668 29.8535L15.872 26.0365L14.1979 27.1307L16.6926 30.9477L18.3668 29.8535ZM15.582 27.4206L38.886 12.1894L37.7918 10.5153L14.4878 25.7465L15.582 27.4206ZM37.5018 11.8994L39.9966 15.7165L41.6707 14.6223L39.176 10.8052L37.5018 11.8994ZM39.9154 14.7735L30.0775 37.5939L31.9141 38.3857L41.752 15.5652L39.9154 14.7735ZM31.5429 38.8269L48.887 27.491L47.7928 25.8169L30.4487 37.1528L31.5429 38.8269ZM47.5028 27.201L49.9976 31.0181L51.6717 29.9239L49.1769 26.1068L47.5028 27.201ZM50.2875 29.6339L26.9836 44.8651L28.0778 46.5393L51.3817 31.308L50.2875 29.6339Z" fill="#1E4364"/>
<path d="M57.6847 38.1044L45.2279 50.7071C43.7469 52.2053 43.0203 53.7181 43.0481 55.2453C43.0948 56.7913 43.8199 58.2579 45.2233 59.6451C46.6457 61.051 48.1207 61.759 49.6481 61.7689C51.1945 61.7977 52.7082 61.0629 54.1891 59.5646L66.6459 46.9619L69.889 50.1675L57.4885 62.7133C55.8951 64.3254 54.1945 65.3441 52.3867 65.7694C50.579 66.1948 48.8154 66.1014 47.0958 65.4891C45.3763 64.8769 43.8054 63.8677 42.383 62.4618C40.9605 61.0558 39.9332 59.4967 39.301 57.7845C38.6877 56.0909 38.5927 54.3473 39.016 52.5534C39.4392 50.7596 40.4476 49.0567 42.041 47.4446L54.4415 34.8988L57.6847 38.1044Z" fill="#1E4364"/>
<path d="M57.6847 38.1044L58.3959 38.8074L59.0988 38.0962L58.3876 37.3932L57.6847 38.1044ZM43.0481 55.2453L42.0482 55.2635L42.0485 55.2755L43.0481 55.2453ZM49.6481 61.7689L49.6667 60.769L49.6546 60.769L49.6481 61.7689ZM66.6459 46.9619L67.3489 46.2507L66.6377 45.5477L65.9347 46.259L66.6459 46.9619ZM69.889 50.1675L70.6002 50.8705L71.3032 50.1593L70.592 49.4563L69.889 50.1675ZM52.3867 65.7694L52.6158 66.7429L52.3867 65.7694ZM47.0958 65.4891L47.4313 64.547L47.0958 65.4891ZM39.301 57.7845L38.3607 58.125L38.3629 58.1308L39.301 57.7845ZM39.016 52.5534L38.0427 52.3238L39.016 52.5534ZM54.4415 34.8988L55.1445 34.1876L54.4333 33.4846L53.7303 34.1958L54.4415 34.8988ZM56.9734 37.4014L44.5167 50.0041L45.9391 51.41L58.3959 38.8074L56.9734 37.4014ZM44.5167 50.0041C42.9199 51.6196 42.014 53.3776 42.0482 55.2635L44.0479 55.2271C44.0267 54.0586 44.574 52.7911 45.9391 51.41L44.5167 50.0041ZM42.0485 55.2755C42.105 57.1434 42.9867 58.8404 44.5203 60.3563L45.9263 58.9339C44.653 57.6753 44.0846 56.4391 44.0476 55.2151L42.0485 55.2755ZM44.5203 60.3563C46.0689 61.8869 47.7801 62.7568 49.6416 62.7689L49.6546 60.769C48.4613 60.7612 47.2226 60.2152 45.9263 58.9339L44.5203 60.3563ZM49.6295 62.7688C51.5374 62.8042 53.299 61.8877 54.9003 60.2676L53.4779 58.8616C52.1174 60.2381 50.8516 60.7911 49.6667 60.7691L49.6295 62.7688ZM54.9003 60.2676L67.3571 47.6649L65.9347 46.259L53.4779 58.8616L54.9003 60.2676ZM65.9429 47.6731L69.1861 50.8787L70.592 49.4563L67.3489 46.2507L65.9429 47.6731ZM69.1778 49.4645L56.7773 62.0103L58.1997 63.4163L70.6002 50.8705L69.1778 49.4645ZM56.7773 62.0103C55.2867 63.5183 53.7458 64.4223 52.1577 64.796L52.6158 66.7429C54.6431 66.2658 56.5034 65.1324 58.1997 63.4163L56.7773 62.0103ZM52.1577 64.796C50.5337 65.1781 48.9662 65.0936 47.4313 64.547L46.7604 66.4312C48.6645 67.1091 50.6242 67.2115 52.6158 66.7429L52.1577 64.796ZM47.4313 64.547C45.8625 63.9885 44.4143 63.0636 43.0859 61.7506L41.68 63.173C43.1964 64.6719 44.8902 65.7653 46.7604 66.4312L47.4313 64.547ZM43.0859 61.7506C41.7576 60.4376 40.8159 59.0003 40.2391 57.4381L38.3629 58.1308C39.0505 59.9932 40.1635 61.6741 41.68 63.173L43.0859 61.7506ZM40.2412 57.444C39.6958 55.9377 39.6095 54.3924 39.9892 52.7831L38.0427 52.3238C37.5759 54.3022 37.6797 56.2442 38.3607 58.1249L40.2412 57.444ZM39.9892 52.7831C40.3616 51.2051 41.2583 49.6589 42.7522 48.1476L41.3298 46.7416C39.6368 48.4544 38.5169 50.3141 38.0427 52.3238L39.9892 52.7831ZM42.7522 48.1476L55.1527 35.6018L53.7303 34.1958L41.3298 46.7416L42.7522 48.1476ZM53.7386 35.61L56.9817 38.8156L58.3876 37.3932L55.1445 34.1876L53.7386 35.61Z" fill="#1E4364"/>
<path d="M76.8628 59.6804L72.3052 66.4491L80.2683 71.8109L78.1906 74.8966L70.2275 69.5348L65.4689 76.602L74.4274 82.6341L72.3496 85.7198L59.6087 77.1408L75.158 54.0479L87.899 62.6268L85.8213 65.7125L76.8628 59.6804Z" fill="#1E4364"/>
<path d="M76.8628 59.6804L77.4213 58.851L76.5918 58.2924L76.0333 59.1219L76.8628 59.6804ZM72.3052 66.4491L71.4757 65.8905L70.9172 66.72L71.7467 67.2786L72.3052 66.4491ZM80.2683 71.8109L81.0978 72.3694L81.6563 71.5399L80.8268 70.9814L80.2683 71.8109ZM78.1906 74.8966L77.6321 75.7261L78.4616 76.2846L79.0201 75.4551L78.1906 74.8966ZM70.2275 69.5348L70.786 68.7053L69.9566 68.1467L69.398 68.9762L70.2275 69.5348ZM65.4689 76.602L64.6394 76.0435L64.0809 76.873L64.9104 77.4315L65.4689 76.602ZM74.4274 82.6341L75.2568 83.1926L75.8154 82.3631L74.9859 81.8046L74.4274 82.6341ZM72.3496 85.7198L71.7911 86.5492L72.6206 87.1078L73.1791 86.2783L72.3496 85.7198ZM59.6087 77.1408L58.7792 76.5823L58.2207 77.4118L59.0502 77.9703L59.6087 77.1408ZM75.158 54.0479L75.7166 53.2184L74.8871 52.6599L74.3285 53.4893L75.158 54.0479ZM87.899 62.6268L88.7285 63.1853L89.287 62.3558L88.4575 61.7973L87.899 62.6268ZM85.8213 65.7125L85.2627 66.542L86.0922 67.1005L86.6507 66.271L85.8213 65.7125ZM76.0333 59.1219L71.4757 65.8905L73.1347 67.0076L77.6923 60.239L76.0333 59.1219ZM71.7467 67.2786L79.7098 72.6404L80.8268 70.9814L72.8637 65.6196L71.7467 67.2786ZM79.4388 71.2524L77.3611 74.3381L79.0201 75.4551L81.0978 72.3694L79.4388 71.2524ZM78.7491 74.0671L70.786 68.7053L69.669 70.3642L77.6321 75.7261L78.7491 74.0671ZM69.398 68.9762L64.6394 76.0435L66.2984 77.1605L71.057 70.0933L69.398 68.9762ZM64.9104 77.4315L73.8688 83.4635L74.9859 81.8046L66.0274 75.7725L64.9104 77.4315ZM73.5979 82.0755L71.5202 85.1612L73.1791 86.2783L75.2568 83.1926L73.5979 82.0755ZM72.9082 84.8903L60.1672 76.3113L59.0502 77.9703L71.7911 86.5492L72.9082 84.8903ZM60.4382 77.6993L75.9875 54.6064L74.3285 53.4893L58.7792 76.5823L60.4382 77.6993ZM74.5995 54.8774L87.3404 63.4563L88.4575 61.7973L75.7166 53.2184L74.5995 54.8774ZM87.0695 62.0683L84.9918 65.154L86.6507 66.271L88.7285 63.1853L87.0695 62.0683ZM86.3798 64.883L77.4213 58.851L76.3043 60.5099L85.2627 66.542L86.3798 64.883Z" fill="#1E4364"/>
<path d="M114.901 75.1782L94.3385 96.6026L89.4869 94.5191L90.8273 64.8396L95.3113 66.7653L93.7594 91.2606L110.491 73.2841L114.901 75.1782Z" fill="#1E4364"/>
<path d="M114.901 75.1782L115.623 75.8706L116.622 74.829L115.296 74.2593L114.901 75.1782ZM94.3385 96.6026L93.9439 97.5215L94.5803 97.7948L95.0599 97.2951L94.3385 96.6026ZM89.4869 94.5191L88.488 94.474L88.4567 95.165L89.0923 95.438L89.4869 94.5191ZM90.8273 64.8396L91.2219 63.9207L89.8935 63.3503L89.8283 64.7945L90.8273 64.8396ZM95.3113 66.7653L96.3093 66.8285L96.3539 66.1247L95.7059 65.8464L95.3113 66.7653ZM93.7594 91.2606L92.7614 91.1974L92.5845 93.9908L94.4914 91.9419L93.7594 91.2606ZM110.491 73.2841L110.885 72.3652L110.238 72.0874L109.759 72.6028L110.491 73.2841ZM114.18 74.4857L93.617 95.9102L95.0599 97.2951L115.623 75.8706L114.18 74.4857ZM94.7331 95.6838L89.8815 93.6003L89.0923 95.438L93.9439 97.5215L94.7331 95.6838ZM90.4859 94.5642L91.8263 64.8847L89.8283 64.7945L88.488 94.474L90.4859 94.5642ZM90.4327 65.7585L94.9167 67.6841L95.7059 65.8464L91.2219 63.9207L90.4327 65.7585ZM94.3133 66.702L92.7614 91.1974L94.7574 91.3239L96.3093 66.8285L94.3133 66.702ZM94.4914 91.9419L111.223 73.9654L109.759 72.6028L93.0274 90.5793L94.4914 91.9419ZM110.096 74.2029L114.507 76.097L115.296 74.2593L110.885 72.3652L110.096 74.2029Z" fill="#1E4364"/>
<path d="M130.637 101.053L119.221 98.7807L116.151 103.961L111.483 103.032L126.686 77.6717L131.864 78.7025L136.198 107.951L131.49 107.014L130.637 101.053ZM130.108 97.1547L128.197 83.6009L121.203 95.3821L130.108 97.1547Z" fill="#1E4364"/>
<path d="M130.637 101.053L131.627 100.911L131.527 100.21L130.833 100.072L130.637 101.053ZM119.221 98.7807L119.417 97.7999L118.722 97.6617L118.361 98.2708L119.221 98.7807ZM116.151 103.961L115.956 104.942L116.65 105.08L117.011 104.471L116.151 103.961ZM111.483 103.032L110.625 102.518L109.895 103.735L111.287 104.012L111.483 103.032ZM126.686 77.6717L126.881 76.691L126.19 76.5535L125.828 77.1576L126.686 77.6717ZM131.864 78.7025L132.853 78.5559L132.75 77.8592L132.059 77.7217L131.864 78.7025ZM136.198 107.951L136.002 108.932L137.395 109.209L137.187 107.805L136.198 107.951ZM131.49 107.014L130.5 107.156L130.6 107.857L131.295 107.995L131.49 107.014ZM130.108 97.1547L129.913 98.1355L131.295 98.4106L131.098 97.0151L130.108 97.1547ZM128.197 83.6009L129.188 83.4613L128.79 80.6433L127.338 83.0904L128.197 83.6009ZM121.203 95.3821L120.343 94.8716L119.621 96.087L121.008 96.3629L121.203 95.3821ZM130.833 100.072L119.417 97.7999L119.026 99.7614L130.442 102.034L130.833 100.072ZM118.361 98.2708L115.291 103.451L117.011 104.471L120.082 99.2906L118.361 98.2708ZM116.346 102.98L111.678 102.051L111.287 104.012L115.956 104.942L116.346 102.98ZM112.34 103.546L127.543 78.1859L125.828 77.1576L110.625 102.518L112.34 103.546ZM126.491 78.6525L131.669 79.6832L132.059 77.7217L126.881 76.691L126.491 78.6525ZM130.875 78.849L135.209 108.098L137.187 107.805L132.853 78.5559L130.875 78.849ZM136.393 106.97L131.685 106.033L131.295 107.995L136.002 108.932L136.393 106.97ZM132.48 106.873L131.627 100.911L129.647 101.195L130.5 107.156L132.48 106.873ZM131.098 97.0151L129.188 83.4613L127.207 83.7405L129.118 97.2943L131.098 97.0151ZM127.338 83.0904L120.343 94.8716L122.063 95.8926L129.057 84.1114L127.338 83.0904ZM121.008 96.3629L129.913 98.1355L130.303 96.1739L121.398 94.4014L121.008 96.3629Z" fill="#1E4364"/>
<path d="M181.137 78.6153L184.389 106.224L179.86 106.758L178.438 94.6814L165.448 96.2116L166.87 108.288L162.342 108.822L159.089 81.2124L163.618 80.679L165.013 92.5171L178.003 90.987L176.608 79.1488L181.137 78.6153Z" fill="#1E4364"/>
<path d="M181.137 78.6153L182.13 78.4984L182.013 77.5052L181.02 77.6222L181.137 78.6153ZM184.389 106.224L184.506 107.218L185.499 107.101L185.382 106.107L184.389 106.224ZM179.86 106.758L178.867 106.875L178.984 107.868L179.977 107.751L179.86 106.758ZM178.438 94.6814L179.431 94.5644L179.314 93.5713L178.321 93.6883L178.438 94.6814ZM165.448 96.2116L165.331 95.2184L164.338 95.3354L164.455 96.3286L165.448 96.2116ZM166.87 108.288L166.987 109.281L167.98 109.164L167.863 108.171L166.87 108.288ZM162.342 108.822L161.348 108.939L161.465 109.932L162.459 109.815L162.342 108.822ZM159.089 81.2124L158.972 80.2193L157.979 80.3363L158.096 81.3294L159.089 81.2124ZM163.618 80.679L164.611 80.562L164.494 79.5688L163.501 79.6858L163.618 80.679ZM165.013 92.5171L164.019 92.6341L164.136 93.6272L165.13 93.5103L165.013 92.5171ZM178.003 90.987L178.12 91.9801L179.113 91.8631L178.996 90.87L178.003 90.987ZM176.608 79.1488L176.491 78.1557L175.498 78.2727L175.615 79.2658L176.608 79.1488ZM180.144 78.7323L183.396 106.341L185.382 106.107L182.13 78.4984L180.144 78.7323ZM184.272 105.231L179.743 105.765L179.977 107.751L184.506 107.218L184.272 105.231ZM180.854 106.641L179.431 94.5644L177.445 94.7984L178.867 106.875L180.854 106.641ZM178.321 93.6883L165.331 95.2184L165.565 97.2047L178.555 95.6745L178.321 93.6883ZM164.455 96.3286L165.877 108.405L167.863 108.171L166.441 96.0946L164.455 96.3286ZM166.753 107.295L162.225 107.828L162.459 109.815L166.987 109.281L166.753 107.295ZM163.335 108.705L160.083 81.0954L158.096 81.3294L161.348 108.939L163.335 108.705ZM159.206 82.2056L163.735 81.6721L163.501 79.6858L158.972 80.2193L159.206 82.2056ZM162.625 80.7959L164.019 92.6341L166.006 92.4001L164.611 80.562L162.625 80.7959ZM165.13 93.5103L178.12 91.9801L177.886 89.9938L164.896 91.524L165.13 93.5103ZM178.996 90.87L177.601 79.0318L175.615 79.2658L177.01 91.1039L178.996 90.87ZM176.725 80.1419L181.254 79.6085L181.02 77.6222L176.491 78.1557L176.725 80.1419Z" fill="#1E4364"/>
<path d="M191.653 75.7674L197.388 92.5336C198.07 94.5269 199.101 95.8513 200.48 96.5067C201.885 97.1535 203.521 97.1575 205.389 96.5189C207.281 95.8716 208.572 94.8664 209.261 93.5033C209.975 92.1315 209.992 90.449 209.31 88.4557L203.575 71.6894L207.89 70.2136L213.599 86.9042C214.332 89.0489 214.487 91.0252 214.063 92.8332C213.638 94.6412 212.769 96.1786 211.455 97.4454C210.141 98.7122 208.538 99.6692 206.645 100.317C204.753 100.964 202.899 101.189 201.085 100.993C199.295 100.787 197.692 100.096 196.274 98.9177C194.857 97.7398 193.781 96.0784 193.048 93.9338L187.339 77.2432L191.653 75.7674Z" fill="#1E4364"/>
<path d="M191.653 75.7673L192.599 75.4437L192.276 74.4975L191.33 74.8212L191.653 75.7673ZM200.48 96.5067L200.051 97.41L200.062 97.4151L200.48 96.5067ZM209.261 93.5033L208.374 93.0413L208.369 93.052L209.261 93.5033ZM203.575 71.6894L203.251 70.7433L202.305 71.0669L202.629 72.0131L203.575 71.6894ZM207.89 70.2136L208.836 69.89L208.512 68.9438L207.566 69.2675L207.89 70.2136ZM214.063 92.8332L215.036 93.0617L214.063 92.8332ZM211.455 97.4454L210.761 96.7255L211.455 97.4454ZM201.085 100.993L200.971 101.986L200.977 101.987L201.085 100.993ZM196.274 98.9177L195.635 99.6868L196.274 98.9177ZM187.339 77.2432L187.015 76.297L186.069 76.6206L186.392 77.5668L187.339 77.2432ZM190.707 76.091L196.442 92.8573L198.334 92.21L192.599 75.4437L190.707 76.091ZM196.442 92.8573C197.177 95.0065 198.348 96.6006 200.051 97.41L200.91 95.6034C199.854 95.1019 198.963 94.0474 198.334 92.21L196.442 92.8573ZM200.062 97.4151C201.76 98.1965 203.672 98.1629 205.712 97.465L205.065 95.5727C203.371 96.1521 202.011 96.1104 200.899 95.5983L200.062 97.4151ZM205.712 97.465C207.772 96.7604 209.313 95.6158 210.153 93.9545L208.369 93.052C207.83 94.117 206.789 94.9828 205.065 95.5727L205.712 97.465ZM210.148 93.9652C211.029 92.2729 210.993 90.2875 210.256 88.1321L208.364 88.7794C208.99 90.6106 208.922 91.9902 208.374 93.0413L210.148 93.9652ZM210.256 88.1321L204.521 71.3658L202.629 72.0131L208.364 88.7794L210.256 88.1321ZM203.899 72.6356L208.213 71.1598L207.566 69.2675L203.251 70.7433L203.899 72.6356ZM206.943 70.5373L212.653 87.2279L214.545 86.5806L208.836 69.89L206.943 70.5373ZM212.653 87.2279C213.339 89.2341 213.462 91.0163 213.089 92.6047L215.036 93.0617C215.512 91.0341 215.326 88.8637 214.545 86.5806L212.653 87.2279ZM213.089 92.6047C212.708 94.2289 211.934 95.5946 210.761 96.7255L212.149 98.1653C213.604 96.7626 214.569 95.0535 215.036 93.0617L213.089 92.6047ZM210.761 96.7255C209.562 97.8812 208.089 98.7659 206.322 99.3704L206.969 101.263C208.986 100.573 210.72 99.5432 212.149 98.1653L210.761 96.7255ZM206.322 99.3704C204.554 99.9748 202.848 100.178 201.193 99.9983L200.977 101.987C202.951 102.201 204.951 101.953 206.969 101.263L206.322 99.3704ZM201.199 99.999C199.607 99.8165 198.185 99.2054 196.914 98.1486L195.635 99.6868C197.199 100.986 198.984 101.758 200.971 101.986L201.199 99.999ZM196.914 98.1486C195.667 97.1124 194.682 95.6208 193.994 93.6101L192.102 94.2574C192.881 96.5361 194.047 98.3671 195.635 99.6868L196.914 98.1486ZM193.994 93.6101L188.285 76.9195L186.392 77.5668L192.102 94.2574L193.994 93.6101ZM187.662 78.1893L191.977 76.7135L191.33 74.8212L187.015 76.297L187.662 78.1893Z" fill="#1E4364"/>
<path d="M219.513 68.2058L223.543 75.3011L231.891 70.5599L233.728 73.7945L225.38 78.5358L229.588 85.9442L238.979 80.6102L240.816 83.8449L227.461 91.4309L213.711 67.2233L227.067 59.6372L228.904 62.8719L219.513 68.2058Z" fill="#1E4364"/>
<path d="M219.513 68.2058L219.019 67.3363L218.15 67.8301L218.644 68.6997L219.513 68.2058ZM223.543 75.3011L222.674 75.795L223.168 76.6646L224.037 76.1707L223.543 75.3011ZM231.891 70.5599L232.76 70.066L232.266 69.1965L231.397 69.6903L231.891 70.5599ZM233.728 73.7945L234.222 74.6641L235.091 74.1702L234.597 73.3006L233.728 73.7945ZM225.38 78.5358L224.887 77.6663L224.017 78.1601L224.511 79.0297L225.38 78.5358ZM229.588 85.9442L228.719 86.4381L229.213 87.3076L230.082 86.8137L229.588 85.9442ZM238.979 80.6102L239.849 80.1164L239.355 79.2468L238.485 79.7407L238.979 80.6102ZM240.816 83.8449L241.31 84.7144L242.18 84.2205L241.686 83.351L240.816 83.8449ZM227.461 91.4309L226.591 91.9248L227.085 92.7943L227.954 92.3005L227.461 91.4309ZM213.711 67.2233L213.217 66.3537L212.347 66.8476L212.841 67.7171L213.711 67.2233ZM227.067 59.6372L227.936 59.1433L227.442 58.2738L226.573 58.7677L227.067 59.6372ZM228.904 62.8719L229.398 63.7414L230.267 63.2475L229.774 62.378L228.904 62.8719ZM218.644 68.6997L222.674 75.795L224.413 74.8073L220.383 67.7119L218.644 68.6997ZM224.037 76.1707L232.385 71.4294L231.397 69.6903L223.049 74.4316L224.037 76.1707ZM231.021 71.0538L232.858 74.2884L234.597 73.3006L232.76 70.066L231.021 71.0538ZM233.234 72.925L224.887 77.6663L225.874 79.4053L234.222 74.6641L233.234 72.925ZM224.511 79.0297L228.719 86.4381L230.458 85.4503L226.25 78.0419L224.511 79.0297ZM230.082 86.8137L239.473 81.4798L238.485 79.7407L229.094 85.0746L230.082 86.8137ZM238.11 81.1041L239.947 84.3388L241.686 83.351L239.849 80.1164L238.11 81.1041ZM240.323 82.9754L226.967 90.5614L227.954 92.3005L241.31 84.7144L240.323 82.9754ZM228.33 90.937L214.58 66.7294L212.841 67.7171L226.591 91.9248L228.33 90.937ZM214.205 68.0928L227.561 60.5067L226.573 58.7677L213.217 66.3537L214.205 68.0928ZM226.197 60.1311L228.034 63.3657L229.774 62.378L227.936 59.1433L226.197 60.1311ZM228.41 62.0023L219.019 67.3363L220.007 69.0753L229.398 63.7414L228.41 62.0023Z" fill="#1E4364"/>
<path d="M251.103 71.8669L258.46 66.0162L260.751 68.8965L249.824 77.5855L232.521 55.8269L236.09 52.9886L251.103 71.8669Z" fill="#1E4364"/>
<path d="M251.103 71.8669L250.32 72.4894L250.943 73.272L251.725 72.6496L251.103 71.8669ZM258.46 66.0162L259.243 65.3938L258.62 64.6111L257.838 65.2335L258.46 66.0162ZM260.751 68.8965L261.373 69.6792L262.156 69.0567L261.533 68.274L260.751 68.8965ZM249.824 77.5855L249.042 78.2079L249.664 78.9906L250.447 78.3681L249.824 77.5855ZM232.521 55.8269L231.899 55.0442L231.116 55.6666L231.738 56.4493L232.521 55.8269ZM236.09 52.9886L236.873 52.3662L236.25 51.5835L235.468 52.2059L236.09 52.9886ZM251.725 72.6496L259.083 66.7989L257.838 65.2335L250.48 71.0843L251.725 72.6496ZM257.677 66.6386L259.968 69.5189L261.533 68.274L259.243 65.3938L257.677 66.6386ZM260.128 68.1138L249.202 76.8028L250.447 78.3681L261.373 69.6792L260.128 68.1138ZM250.607 76.963L233.304 55.2044L231.738 56.4493L249.042 78.2079L250.607 76.963ZM233.144 56.6095L236.713 53.7713L235.468 52.2059L231.899 55.0442L233.144 56.6095ZM235.307 53.611L250.32 72.4894L251.886 71.2445L236.873 52.3662L235.307 53.611Z" fill="#1E4364"/>
<path d="M267.962 56.6124L274.391 49.755L277.076 52.272L267.527 62.4559L247.247 43.4416L250.366 40.115L267.962 56.6124Z" fill="#1E4364"/>
<path d="M267.962 56.6124L267.278 57.3419L268.007 58.0259L268.691 57.2963L267.962 56.6124ZM274.391 49.755L275.075 49.0255L274.345 48.3415L273.661 49.071L274.391 49.755ZM277.076 52.272L277.805 52.956L278.489 52.2264L277.76 51.5425L277.076 52.272ZM267.527 62.4559L266.843 63.1855L267.573 63.8694L268.257 63.1399L267.527 62.4559ZM247.247 43.4416L246.517 42.7576L245.833 43.4871L246.563 44.1711L247.247 43.4416ZM250.366 40.115L251.05 39.3855L250.32 38.7015L249.636 39.431L250.366 40.115ZM268.691 57.2963L275.12 50.4389L273.661 49.071L267.232 55.9284L268.691 57.2963ZM273.707 50.4845L276.392 53.0015L277.76 51.5425L275.075 49.0255L273.707 50.4845ZM276.346 51.588L266.798 61.772L268.257 63.1399L277.805 52.956L276.346 51.588ZM268.211 61.7264L247.931 42.7121L246.563 44.1711L266.843 63.1855L268.211 61.7264ZM247.976 44.1256L251.095 40.799L249.636 39.431L246.517 42.7576L247.976 44.1256ZM249.682 40.8445L267.278 57.3419L268.646 55.8829L251.05 39.3855L249.682 40.8445Z" fill="#1E4364"/>
<path d="M287.463 27.8617L281.126 37.6253L284.802 42.3953L282.21 46.388L264.281 22.8763L267.155 18.4474L295.93 25.2503L293.317 29.2765L287.463 27.8617ZM283.646 26.91L270.348 23.6672L278.703 34.5263L283.646 26.91Z" fill="#1E4364"/>
<path d="M287.463 27.8617L287.698 26.8897L287.01 26.7233L286.625 27.3173L287.463 27.8617ZM281.126 37.6253L280.287 37.0809L279.902 37.6748L280.334 38.2357L281.126 37.6253ZM284.802 42.3953L285.64 42.9398L286.026 42.3458L285.594 41.785L284.802 42.3953ZM282.21 46.388L281.415 46.9944L282.276 48.1234L283.049 46.9325L282.21 46.388ZM264.281 22.8763L263.442 22.3318L263.058 22.9226L263.485 23.4826L264.281 22.8763ZM267.155 18.4474L267.385 17.4742L266.7 17.3122L266.316 17.903L267.155 18.4474ZM295.93 25.2503L296.769 25.7948L297.542 24.6038L296.16 24.2771L295.93 25.2503ZM293.317 29.2765L293.082 30.2485L293.77 30.4149L294.155 29.821L293.317 29.2765ZM283.646 26.91L284.485 27.4545L285.252 26.2724L283.883 25.9385L283.646 26.91ZM270.348 23.6672L270.585 22.6956L267.82 22.0214L269.555 24.2769L270.348 23.6672ZM278.703 34.5263L277.91 35.1361L278.772 36.2563L279.541 35.0707L278.703 34.5263ZM286.625 27.3173L280.287 37.0809L281.965 38.1697L288.302 28.4061L286.625 27.3173ZM280.334 38.2357L284.009 43.0057L285.594 41.785L281.918 37.0149L280.334 38.2357ZM283.963 41.8509L281.371 45.8436L283.049 46.9325L285.64 42.9398L283.963 41.8509ZM283.005 45.7816L265.076 22.2699L263.485 23.4826L281.415 46.9944L283.005 45.7816ZM265.119 23.4207L267.994 18.9919L266.316 17.903L263.442 22.3318L265.119 23.4207ZM266.925 19.4206L295.7 26.2235L296.16 24.2771L267.385 17.4742L266.925 19.4206ZM295.091 24.7059L292.478 28.7321L294.155 29.821L296.769 25.7948L295.091 24.7059ZM293.552 28.3045L287.698 26.8897L287.228 28.8337L293.082 30.2485L293.552 28.3045ZM283.883 25.9385L270.585 22.6956L270.111 24.6387L283.409 27.8816L283.883 25.9385ZM269.555 24.2769L277.91 35.1361L279.495 33.9165L271.141 23.0574L269.555 24.2769ZM279.541 35.0707L284.485 27.4545L282.807 26.3656L277.864 33.9819L279.541 35.0707Z" fill="#1E4364"/>
</svg>
