<svg width="350" height="189" viewBox="0 0 350 189" fill="none" xmlns="http://www.w3.org/2000/svg">
<path d="M44.7427 33.3089L17.0066 35.1932L16.7085 30.6429L35.7047 29.3524L16.154 22.1811L15.9474 19.0278L34.3866 9.23556L15.3904 10.526L15.0922 5.97581L42.8283 4.09158L43.15 9.00106L22.0382 20.2177L44.4236 28.4394L44.7427 33.3089Z" fill="#1E4364"/>
<path d="M44.7427 33.3089L44.8081 34.3068L45.8058 34.239L45.7404 33.2412L44.7427 33.3089ZM17.0066 35.1932L16.0089 35.2609L16.0743 36.2588L17.072 36.191L17.0066 35.1932ZM16.7085 30.6429L16.6431 29.6451L15.6454 29.7128L15.7108 30.7107L16.7085 30.6429ZM35.7047 29.3524L35.7701 30.3503L36.0509 28.4133L35.7047 29.3524ZM16.154 22.1811L15.1563 22.2488L15.1988 22.8968L15.8078 23.1202L16.154 22.1811ZM15.9474 19.0278L15.4802 18.1447L14.9074 18.4489L14.9497 19.0956L15.9474 19.0278ZM34.3866 9.23556L34.8538 10.1187L34.3212 8.2377L34.3866 9.23556ZM15.3904 10.526L14.3927 10.5938L14.4581 11.5917L15.4558 11.5239L15.3904 10.526ZM15.0922 5.97581L15.0269 4.97795L14.0292 5.04572L14.0945 6.04358L15.0922 5.97581ZM42.8283 4.09158L43.826 4.0238L43.7606 3.02594L42.7629 3.09372L42.8283 4.09158ZM43.15 9.00106L43.6174 9.88411L44.1901 9.57983L44.1477 8.93328L43.15 9.00106ZM22.0382 20.2177L21.5709 19.3347L19.5926 20.3858L21.6917 21.1567L22.0382 20.2177ZM44.4236 28.4394L45.4213 28.3716L45.3789 27.724L44.7702 27.5004L44.4236 28.4394ZM44.6773 32.3111L16.9412 34.1953L17.072 36.191L44.8081 34.3068L44.6773 32.3111ZM18.0043 35.1254L17.7062 30.5751L15.7108 30.7107L16.0089 35.2609L18.0043 35.1254ZM16.7739 31.6408L35.7701 30.3503L35.6393 28.3546L16.6431 29.6451L16.7739 31.6408ZM36.0509 28.4133L16.5002 21.2419L15.8078 23.1202L35.3585 30.2915L36.0509 28.4133ZM17.1517 22.1133L16.9451 18.96L14.9497 19.0956L15.1563 22.2488L17.1517 22.1133ZM16.4146 19.911L34.8538 10.1187L33.9194 8.35242L15.4802 18.1447L16.4146 19.911ZM34.3212 8.2377L15.325 9.52819L15.4558 11.5239L34.452 10.2334L34.3212 8.2377ZM16.3881 10.4583L16.0899 5.90803L14.0945 6.04358L14.3927 10.5938L16.3881 10.4583ZM15.1576 6.97367L42.8937 5.08944L42.7629 3.09372L15.0269 4.97795L15.1576 6.97367ZM41.8306 4.15936L42.1523 9.06883L44.1477 8.93328L43.826 4.0238L41.8306 4.15936ZM42.6826 8.118L21.5709 19.3347L22.5056 21.1008L43.6174 9.88411L42.6826 8.118ZM21.6917 21.1567L44.077 29.3784L44.7702 27.5004L22.3848 19.2788L21.6917 21.1567ZM43.4259 28.5072L43.745 33.3767L45.7404 33.2412L45.4213 28.3716L43.4259 28.5072Z" fill="#1E4364"/>
<path d="M29.9263 61.6991L26.5591 50.5568L20.5604 50.3405L19.1835 45.784L48.6311 46.9943L50.1585 52.0486L26.4732 69.9066L25.0846 65.3119L29.9263 61.6991ZM33.1058 59.3616L44.1273 51.1719L30.4792 50.6698L33.1058 59.3616Z" fill="#1E4364"/>
<path d="M29.9263 61.6991L30.5161 62.5027L31.0854 62.0779L30.8805 61.4001L29.9263 61.6991ZM26.5591 50.5568L27.5134 50.2578L27.3086 49.58L26.6032 49.5545L26.5591 50.5568ZM20.5604 50.3405L19.6061 50.6395L19.811 51.3173L20.5163 51.3427L20.5604 50.3405ZM19.1835 45.784L19.2325 44.782L17.8185 44.7239L18.2292 46.083L19.1835 45.784ZM48.6311 46.9943L49.5854 46.6954L49.3817 46.0212L48.6802 45.9923L48.6311 46.9943ZM50.1585 52.0486L50.7523 52.8492L51.3165 52.4238L51.1128 51.7496L50.1585 52.0486ZM26.4732 69.9066L25.5189 70.2056L25.9296 71.5647L27.067 70.7072L26.4732 69.9066ZM25.0846 65.3119L24.4949 64.5082L23.9256 64.933L24.1304 65.6108L25.0846 65.3119ZM33.1058 59.3616L32.1516 59.6606L32.5592 61.0096L33.694 60.1664L33.1058 59.3616ZM44.1273 51.1719L44.7155 51.9767L47.0069 50.274L44.1721 50.1697L44.1273 51.1719ZM30.4792 50.6698L30.5241 49.6676L29.1161 49.6158L29.525 50.9688L30.4792 50.6698ZM30.8805 61.4001L27.5134 50.2578L25.6049 50.8557L28.972 61.9981L30.8805 61.4001ZM26.6032 49.5545L20.6045 49.3383L20.5163 51.3427L26.515 51.559L26.6032 49.5545ZM21.5147 50.0415L20.1377 45.485L18.2292 46.083L19.6061 50.6395L21.5147 50.0415ZM19.1344 46.786L48.5821 47.9964L48.6802 45.9923L19.2325 44.782L19.1344 46.786ZM47.6769 47.2933L49.2042 52.3476L51.1128 51.7496L49.5854 46.6954L47.6769 47.2933ZM49.5647 51.248L25.8793 69.106L27.067 70.7072L50.7523 52.8492L49.5647 51.248ZM27.4274 69.6076L26.0389 65.0129L24.1304 65.6108L25.5189 70.2056L27.4274 69.6076ZM25.6744 66.1155L30.5161 62.5027L29.3365 60.8955L24.4949 64.5082L25.6744 66.1155ZM33.694 60.1664L44.7155 51.9767L43.5392 50.3671L32.5177 58.5568L33.694 60.1664ZM44.1721 50.1697L30.5241 49.6676L30.4344 51.672L44.0825 52.1741L44.1721 50.1697ZM29.525 50.9688L32.1516 59.6606L34.0601 59.0626L31.4335 50.3708L29.525 50.9688Z" fill="#1E4364"/>
<path d="M63.4501 81.5734L60.1805 83.3478L56.7489 76.7916L35.5846 88.2771L33.47 84.2371L54.6343 72.7515L51.1842 66.1598L54.4537 64.3855L63.4501 81.5734Z" fill="#1E4364"/>
<path d="M63.4501 81.5734L63.9138 82.4594L64.7927 81.9824L64.329 81.0965L63.4501 81.5734ZM60.1805 83.3478L59.3016 83.8248L59.7653 84.7107L60.6443 84.2338L60.1805 83.3478ZM56.7489 76.7916L57.6278 76.3146L57.1641 75.4286L56.2852 75.9056L56.7489 76.7916ZM35.5846 88.2771L34.7057 88.7541L35.1694 89.6401L36.0483 89.1631L35.5846 88.2771ZM33.47 84.2371L33.0063 83.3511L32.1274 83.8281L32.5911 84.7141L33.47 84.2371ZM54.6343 72.7515L55.098 73.6375L55.977 73.1605L55.5132 72.2745L54.6343 72.7515ZM51.1842 66.1598L50.7204 65.2739L49.8415 65.7508L50.3052 66.6368L51.1842 66.1598ZM54.4537 64.3855L55.3326 63.9085L54.8689 63.0225L53.99 63.4995L54.4537 64.3855ZM62.9864 80.6875L59.7168 82.4618L60.6443 84.2338L63.9138 82.4594L62.9864 80.6875ZM61.0594 82.8708L57.6278 76.3146L55.87 77.2685L59.3016 83.8248L61.0594 82.8708ZM56.2852 75.9056L35.1209 87.3912L36.0483 89.1631L57.2127 77.6775L56.2852 75.9056ZM36.4635 87.8002L34.3489 83.7601L32.5911 84.7141L34.7057 88.7541L36.4635 87.8002ZM33.9337 85.1231L55.098 73.6375L54.1706 71.8655L33.0063 83.3511L33.9337 85.1231ZM55.5132 72.2745L52.0631 65.6829L50.3052 66.6368L53.7554 73.2285L55.5132 72.2745ZM51.6479 67.0458L54.9175 65.2715L53.99 63.4995L50.7204 65.2739L51.6479 67.0458ZM53.5748 64.8625L62.5712 82.0504L64.329 81.0965L55.3326 63.9085L53.5748 64.8625Z" fill="#1E4364"/>
<path d="M45.7242 104.95C45.2467 104.275 45.0719 103.543 45.1999 102.755C45.3279 101.966 45.7252 101.328 46.3917 100.839C47.0582 100.35 47.7789 100.168 48.5539 100.294C49.3289 100.42 49.9552 100.82 50.4327 101.495C50.8948 102.148 51.0619 102.869 50.9339 103.657C50.8059 104.445 50.4087 105.084 49.7422 105.573C49.0757 106.062 48.3549 106.244 47.5799 106.118C46.8049 105.992 46.1864 105.603 45.7242 104.95Z" fill="#1E4364"/>
<path d="M45.1999 102.755L46.1785 102.914L46.1785 102.914L45.1999 102.755ZM48.5539 100.294L48.3923 101.289L48.5539 100.294ZM50.9339 103.657L49.9553 103.498L50.9339 103.657ZM47.5799 106.118L47.7416 105.122L47.5799 106.118ZM46.5305 104.358C46.1987 103.889 46.0954 103.426 46.1785 102.914L44.2214 102.596C44.0484 103.661 44.2947 104.661 44.918 105.541L46.5305 104.358ZM46.1785 102.914C46.2616 102.402 46.5062 101.995 46.9694 101.655L45.814 100.022C44.9441 100.661 44.3943 101.531 44.2214 102.596L46.1785 102.914ZM46.9694 101.655C47.4325 101.315 47.8892 101.208 48.3923 101.289L48.7156 99.2984C47.6686 99.1284 46.6839 99.3842 45.814 100.022L46.9694 101.655ZM48.3923 101.289C48.8953 101.371 49.2947 101.618 49.6265 102.086L51.239 100.903C50.6157 100.023 49.7625 99.4684 48.7156 99.2984L48.3923 101.289ZM49.6265 102.086C49.9371 102.525 50.04 102.977 49.9553 103.498L51.9125 103.816C52.0838 102.76 51.8526 101.77 51.239 100.903L49.6265 102.086ZM49.9553 103.498C49.8722 104.01 49.6276 104.417 49.1645 104.757L50.3198 106.389C51.1897 105.751 51.7396 104.881 51.9125 103.816L49.9553 103.498ZM49.1645 104.757C48.7014 105.097 48.2446 105.204 47.7416 105.122L47.4183 107.113C48.4652 107.283 49.4499 107.028 50.3198 106.389L49.1645 104.757ZM47.7416 105.122C47.229 105.039 46.8412 104.797 46.5305 104.358L44.918 105.541C45.5316 106.408 46.3808 106.945 47.4183 107.113L47.7416 105.122Z" fill="#1E4364"/>
<path d="M72.54 115.61C74.2449 113.49 76.2556 111.99 78.5719 111.11C80.9088 110.247 83.2827 110.04 85.6936 110.488C88.1417 110.933 90.359 111.984 92.3455 113.64C94.6186 115.536 96.1761 117.79 97.018 120.402C97.897 123.01 97.9002 125.686 97.0274 128.43L92.819 124.92C93.1854 123.316 93.1027 121.823 92.571 120.442C92.0393 119.062 91.1284 117.833 89.8383 116.757C88.4252 115.579 86.9067 114.85 85.2827 114.572C83.6587 114.294 82.0446 114.492 80.4403 115.168C78.8565 115.861 77.4211 117.007 76.1341 118.607C74.847 120.207 74.026 121.866 73.6709 123.583C73.3363 125.318 73.4545 126.979 74.0255 128.566C74.6132 130.133 75.6135 131.505 77.0266 132.684C78.3167 133.76 79.6789 134.427 81.1132 134.686C82.5475 134.945 84.0007 134.733 85.4729 134.052L89.6813 137.562C87.2112 138.973 84.634 139.497 81.9498 139.133C79.286 138.786 76.8176 137.665 74.5445 135.769C72.5375 134.095 71.0808 132.099 70.1742 129.781C69.2842 127.441 69.0247 125.02 69.3956 122.517C69.787 120.031 70.8352 117.729 72.54 115.61Z" fill="#1E4364"/>
<path d="M78.5719 111.11L78.2308 110.162L78.2223 110.165L78.5719 111.11ZM85.6936 110.488L85.5186 111.48L85.5227 111.481L85.6936 110.488ZM97.018 120.402L96.0761 120.713L96.0804 120.726L97.018 120.402ZM97.0274 128.43L96.4006 129.209L97.5244 130.146L97.9706 128.743L97.0274 128.43ZM92.819 124.92L91.8534 124.688L91.7137 125.3L92.1922 125.699L92.819 124.92ZM92.571 120.442L93.4938 120.077L92.571 120.442ZM85.2827 114.572L85.1215 115.567L85.1215 115.567L85.2827 114.572ZM80.4403 115.168L80.0584 114.236L80.0462 114.241L80.4403 115.168ZM73.6709 123.583L72.7007 123.372L72.6982 123.386L73.6709 123.583ZM74.0255 128.566L73.0946 128.91L73.0995 128.923L74.0255 128.566ZM81.1132 134.686L80.9434 135.679L81.1132 134.686ZM85.4729 134.052L86.0997 133.273L85.6212 132.873L85.0598 133.133L85.4729 134.052ZM89.6813 137.562L90.169 138.442L91.4319 137.72L90.3081 136.783L89.6813 137.562ZM81.9498 139.133L82.0774 138.133L82.0722 138.133L81.9498 139.133ZM70.1742 129.781L69.2498 130.142L69.2533 130.151L70.1742 129.781ZM69.3956 122.517L68.4168 122.354L68.4154 122.363L69.3956 122.517ZM73.308 116.25C74.9125 114.255 76.7831 112.868 78.9216 112.055L78.2223 110.165C75.728 111.113 73.5773 112.725 71.7721 114.969L73.308 116.25ZM78.9131 112.058C81.0877 111.255 83.2836 111.064 85.5186 111.48L85.8686 109.496C83.2818 109.015 80.7299 109.239 78.2308 110.162L78.9131 112.058ZM85.5227 111.481C87.7981 111.894 89.8595 112.869 91.7187 114.42L92.9722 112.861C90.8586 111.098 88.4854 109.971 85.8646 109.495L85.5227 111.481ZM91.7187 114.42C93.8585 116.204 95.2985 118.301 96.0762 120.713L97.9598 120.09C97.0537 117.28 95.3787 114.868 92.9722 112.861L91.7187 114.42ZM96.0804 120.726C96.8863 123.117 96.8944 125.569 96.0842 128.116L97.9706 128.743C98.9059 125.803 98.9077 122.903 97.9555 120.077L96.0804 120.726ZM97.6542 127.65L93.4458 124.14L92.1922 125.699L96.4006 129.209L97.6542 127.65ZM93.7846 125.151C94.191 123.372 94.1069 121.669 93.4938 120.077L91.6482 120.808C92.0986 121.977 92.1798 123.259 91.8534 124.688L93.7846 125.151ZM93.4938 120.077C92.8915 118.513 91.8679 117.148 90.4651 115.978L89.2115 117.536C90.389 118.518 91.1872 119.61 91.6482 120.808L93.4938 120.077ZM90.4651 115.978C88.9327 114.7 87.2568 113.888 85.444 113.577L85.1215 115.567C86.5566 115.812 87.9177 116.457 89.2115 117.536L90.4651 115.978ZM85.444 113.577C83.6261 113.266 81.8242 113.492 80.0585 114.236L80.8221 116.1C82.265 115.493 83.6913 115.322 85.1215 115.567L85.444 113.577ZM80.0462 114.241C78.293 115.008 76.7354 116.264 75.3661 117.967L76.902 119.248C78.1067 117.75 79.42 116.714 80.8344 116.095L80.0462 114.241ZM75.3661 117.967C73.9968 119.669 73.0939 121.471 72.7008 123.372L74.641 123.794C74.9581 122.26 75.6973 120.745 76.902 119.248L75.3661 117.967ZM72.6982 123.386C72.3304 125.292 72.4584 127.141 73.0947 128.91L74.9562 128.222C74.4506 126.817 74.3422 125.344 74.6436 123.781L72.6982 123.386ZM73.0995 128.923C73.7556 130.672 74.8674 132.185 76.3998 133.463L77.6534 131.904C76.3596 130.825 75.4708 129.594 74.9514 128.209L73.0995 128.923ZM76.3998 133.463C77.8026 134.633 79.3185 135.386 80.9434 135.679L81.283 133.693C80.0393 133.468 78.8309 132.886 77.6534 131.904L76.3998 133.463ZM80.9434 135.679C82.5971 135.977 84.253 135.726 85.8861 134.97L85.0598 133.133C83.7484 133.741 82.4978 133.912 81.283 133.693L80.9434 135.679ZM84.8462 134.831L89.0545 138.341L90.3081 136.783L86.0997 133.273L84.8462 134.831ZM89.1936 136.682C86.9006 137.992 84.5382 138.467 82.0773 138.134L81.8222 140.133C84.7299 140.527 87.5218 139.954 90.169 138.442L89.1936 136.682ZM82.0722 138.133C79.6106 137.812 77.3139 136.777 75.1712 134.99L73.9177 136.548C76.3213 138.553 78.9614 139.761 81.8273 140.134L82.0722 138.133ZM75.1712 134.99C73.2871 133.418 71.9357 131.56 71.095 129.41L69.2533 130.151C70.2259 132.638 71.788 134.772 73.9177 136.548L75.1712 134.99ZM71.0984 129.419C70.2716 127.246 70.0304 125.002 70.3759 122.671L68.4154 122.363C68.0191 125.038 68.2969 127.637 69.2499 130.142L71.0984 129.419ZM70.3745 122.68C70.7358 120.385 71.7034 118.245 73.308 116.25L71.7721 114.969C69.9669 117.213 68.8383 119.678 68.4168 122.354L70.3745 122.68Z" fill="#1E4364"/>
<path d="M104.811 155.424C102.499 154.265 100.627 152.655 99.1943 150.594C97.7973 148.522 96.9969 146.227 96.793 143.708C96.6244 141.178 97.1322 138.689 98.3163 136.24C99.5004 133.791 101.123 131.875 103.183 130.492C105.268 129.121 107.537 128.38 109.99 128.268C112.479 128.143 114.88 128.661 117.192 129.82C119.528 130.991 121.395 132.613 122.792 134.685C124.224 136.746 125.03 139.029 125.21 141.535C125.39 144.042 124.888 146.519 123.704 148.968C122.52 151.417 120.892 153.345 118.82 154.751C116.759 156.134 114.484 156.888 111.996 157.012C109.542 157.125 107.148 156.595 104.811 155.424ZM106.535 151.859C108.18 152.683 109.826 153.046 111.473 152.947C113.132 152.825 114.656 152.246 116.044 151.212C117.468 150.166 118.627 148.719 119.521 146.871C120.415 145.022 120.829 143.216 120.763 141.453C120.721 139.702 120.236 138.132 119.309 136.742C118.382 135.353 117.095 134.246 115.451 133.421C113.806 132.596 112.16 132.234 110.513 132.332C108.865 132.431 107.336 132.992 105.923 134.014C104.535 135.047 103.394 136.489 102.5 138.337C101.606 140.186 101.174 141.998 101.205 143.773C101.27 145.535 101.761 147.124 102.677 148.537C103.604 149.927 104.89 151.034 106.535 151.859Z" fill="#1E4364"/>
<path d="M99.1943 150.594L98.3743 151.156L98.3784 151.162L98.3826 151.168L99.1943 150.594ZM96.793 143.708L95.8009 143.767L95.8014 143.775L95.802 143.782L96.793 143.708ZM103.183 130.492L102.636 129.648L102.629 129.653L103.183 130.492ZM109.99 128.268L110.044 129.272L110.048 129.272L109.99 128.268ZM122.792 134.685L121.972 135.247L121.976 135.253L121.98 135.259L122.792 134.685ZM125.21 141.535L124.219 141.6L125.21 141.535ZM118.82 154.751L119.374 155.591L119.379 155.588L118.82 154.751ZM111.996 157.012L112.049 158.017L112.053 158.017L111.996 157.012ZM111.473 152.947L111.541 153.951L111.554 153.95L111.473 152.947ZM116.044 151.212L115.455 150.397L115.45 150.401L116.044 151.212ZM120.763 141.453L119.769 141.469L119.769 141.482L120.763 141.453ZM119.309 136.742L118.486 137.3L119.309 136.742ZM110.513 132.332L110.58 133.336L110.58 133.336L110.513 132.332ZM105.923 134.014L105.34 133.194L105.329 133.202L105.923 134.014ZM101.205 143.773L100.21 143.781L100.211 143.791L100.211 143.802L101.205 143.773ZM102.677 148.537L101.846 149.083L101.854 149.095L102.677 148.537ZM105.247 154.524C103.079 153.437 101.338 151.937 100.006 150.021L98.3826 151.168C99.9152 153.373 101.919 155.092 104.376 156.324L105.247 154.524ZM100.014 150.033C98.7163 148.107 97.9739 145.981 97.7839 143.635L95.802 143.782C96.0199 146.473 96.8783 148.937 98.3743 151.156L100.014 150.033ZM97.785 143.65C97.6291 141.308 98.0959 138.992 99.2102 136.688L97.4224 135.792C96.1685 138.385 95.6198 141.048 95.8009 143.767L97.785 143.65ZM99.2102 136.688C100.325 134.383 101.836 132.609 103.738 131.332L102.629 129.653C100.41 131.142 98.6761 133.199 97.4224 135.792L99.2102 136.688ZM103.731 131.337C105.67 130.061 107.77 129.376 110.044 129.272L109.937 127.263C107.304 127.383 104.866 128.182 102.636 129.648L103.731 131.337ZM110.048 129.272C112.361 129.156 114.592 129.635 116.757 130.72L117.627 128.92C115.167 127.686 112.597 127.13 109.933 127.263L110.048 129.272ZM116.757 130.72C118.946 131.818 120.677 133.327 121.972 135.247L123.612 134.124C122.112 131.899 120.11 130.164 117.627 128.92L116.757 130.72ZM121.98 135.259C123.307 137.169 124.052 139.276 124.219 141.6L126.202 141.471C126.009 138.782 125.14 136.323 123.603 134.112L121.98 135.259ZM124.219 141.6C124.385 143.913 123.925 146.215 122.81 148.52L124.598 149.416C125.852 146.823 126.396 144.17 126.202 141.471L124.219 141.6ZM122.81 148.52C121.696 150.824 120.178 152.613 118.261 153.915L119.379 155.588C121.606 154.076 123.344 152.009 124.598 149.416L122.81 148.52ZM118.265 153.912C116.353 155.195 114.25 155.892 111.938 156.008L112.053 158.017C114.719 157.884 117.165 157.073 119.374 155.591L118.265 153.912ZM111.942 156.008C109.667 156.112 107.44 155.623 105.247 154.524L104.376 156.324C106.855 157.567 109.417 158.137 112.049 158.017L111.942 156.008ZM106.1 152.759C107.884 153.653 109.702 154.062 111.541 153.951L111.406 151.944C109.95 152.031 108.477 151.713 106.971 150.958L106.1 152.759ZM111.554 153.95C113.407 153.813 115.107 153.164 116.638 152.024L115.45 150.401C114.205 151.328 112.857 151.836 111.392 151.944L111.554 153.95ZM116.633 152.028C118.205 150.873 119.461 149.29 120.415 147.319L118.627 146.422C117.792 148.148 116.73 149.46 115.455 150.397L116.633 152.028ZM120.415 147.319C121.368 145.347 121.829 143.379 121.757 141.424L119.769 141.482C119.828 143.054 119.461 144.697 118.627 146.422L120.415 147.319ZM121.757 141.438C121.711 139.504 121.172 137.743 120.132 136.185L118.486 137.3C119.301 138.521 119.731 139.901 119.769 141.469L121.757 141.438ZM120.132 136.185C119.096 134.634 117.67 133.415 115.886 132.521L115.015 134.321C116.521 135.076 117.667 136.072 118.486 137.3L120.132 136.185ZM115.886 132.521C114.102 131.627 112.284 131.218 110.445 131.329L110.58 133.336C112.036 133.249 113.509 133.566 115.015 134.321L115.886 132.521ZM110.445 131.329C108.601 131.439 106.895 132.069 105.34 133.194L106.507 134.833C107.777 133.914 109.13 133.423 110.58 133.336L110.445 131.329ZM105.329 133.202C103.792 134.346 102.557 135.922 101.606 137.889L103.394 138.785C104.231 137.055 105.277 135.749 106.517 134.825L105.329 133.202ZM101.606 137.889C100.655 139.856 100.177 141.824 100.21 143.781L102.199 143.764C102.172 142.171 102.557 140.515 103.394 138.785L101.606 137.889ZM100.211 143.802C100.283 145.739 100.826 147.508 101.847 149.083L103.507 147.991C102.696 146.74 102.257 145.332 102.198 143.743L100.211 143.802ZM101.854 149.095C102.889 150.646 104.316 151.865 106.1 152.759L106.971 150.958C105.465 150.203 104.319 149.208 103.499 147.98L101.854 149.095Z" fill="#1E4364"/>
<path d="M149.462 170.034L145.032 168.954L136.454 145.495L131.702 165.704L127.272 164.624L133.645 137.523L138.075 138.603L146.662 162.023L151.405 141.853L155.835 142.933L149.462 170.034Z" fill="#1E4364"/>
<path d="M149.462 170.034L149.233 171.008L150.204 171.245L150.433 170.271L149.462 170.034ZM145.032 168.954L144.095 169.293L144.28 169.8L144.803 169.927L145.032 168.954ZM136.454 145.495L137.391 145.156L136.244 142.02L135.483 145.258L136.454 145.495ZM131.702 165.704L131.473 166.677L132.445 166.914L132.674 165.941L131.702 165.704ZM127.272 164.624L126.3 164.387L126.071 165.36L127.043 165.597L127.272 164.624ZM133.645 137.523L133.874 136.55L132.902 136.313L132.673 137.286L133.645 137.523ZM138.075 138.603L139.012 138.263L138.826 137.757L138.304 137.63L138.075 138.603ZM146.662 162.023L145.725 162.363L146.873 165.493L147.633 162.26L146.662 162.023ZM151.405 141.853L151.634 140.88L150.662 140.643L150.433 141.616L151.405 141.853ZM155.835 142.933L156.806 143.17L157.035 142.197L156.064 141.96L155.835 142.933ZM149.691 169.061L145.261 167.981L144.803 169.927L149.233 171.008L149.691 169.061ZM145.968 168.615L137.391 145.156L135.518 145.834L144.095 169.293L145.968 168.615ZM135.483 145.258L130.731 165.467L132.674 165.941L137.426 145.732L135.483 145.258ZM131.931 164.731L127.501 163.65L127.043 165.597L131.473 166.677L131.931 164.731ZM128.243 164.861L134.617 137.76L132.673 137.286L126.3 164.387L128.243 164.861ZM133.416 138.497L137.846 139.577L138.304 137.63L133.874 136.55L133.416 138.497ZM137.139 138.943L145.725 162.363L147.598 161.683L139.012 138.263L137.139 138.943ZM147.633 162.26L152.376 142.09L150.433 141.616L145.69 161.786L147.633 162.26ZM151.176 142.827L155.606 143.907L156.064 141.96L151.634 140.88L151.176 142.827ZM154.863 142.697L148.49 169.797L150.433 170.271L156.806 143.17L154.863 142.697Z" fill="#1E4364"/>
<path d="M169.57 171.871C167.704 171.805 166.036 171.427 164.565 170.734C163.096 170.016 161.955 169.042 161.142 167.813C160.33 166.583 159.951 165.169 160.005 163.57L164.882 163.741C164.948 164.944 165.381 165.947 166.181 166.749C167.008 167.552 168.181 167.98 169.7 168.033C171.272 168.088 172.511 167.758 173.415 167.043C174.321 166.301 174.794 165.33 174.835 164.131C174.866 163.198 174.612 162.429 174.072 161.823C173.559 161.218 172.895 160.741 172.08 160.392C171.291 160.044 170.183 159.658 168.757 159.235C166.961 158.691 165.498 158.159 164.368 157.64C163.266 157.094 162.333 156.287 161.569 155.22C160.804 154.152 160.452 152.752 160.51 151.02C160.564 149.421 161.012 148.036 161.852 146.865C162.692 145.693 163.842 144.813 165.303 144.224C166.764 143.635 168.44 143.374 170.333 143.44C173.024 143.535 175.2 144.291 176.859 145.711C178.547 147.104 179.444 148.977 179.551 151.328L174.514 151.152C174.468 150.136 174.018 149.253 173.163 148.503C172.308 147.752 171.161 147.352 169.721 147.301C168.416 147.255 167.338 147.551 166.49 148.188C165.641 148.825 165.195 149.77 165.153 151.023C165.124 151.876 165.353 152.591 165.841 153.168C166.356 153.72 167.007 154.17 167.796 154.518C168.585 154.866 169.666 155.251 171.039 155.672C172.861 156.243 174.336 156.802 175.465 157.349C176.62 157.896 177.58 158.717 178.343 159.811C179.134 160.88 179.5 162.293 179.44 164.052C179.392 165.465 178.961 166.784 178.145 168.009C177.357 169.236 176.216 170.21 174.725 170.931C173.26 171.627 171.542 171.94 169.57 171.871Z" fill="#1E4364"/>
<path d="M164.565 170.734L164.127 171.633L164.134 171.636L164.141 171.639L164.565 170.734ZM161.142 167.813L161.976 167.262L161.142 167.813ZM160.005 163.57L160.039 162.571L159.04 162.536L159.006 163.535L160.005 163.57ZM164.882 163.741L165.881 163.688L165.831 162.774L164.916 162.742L164.882 163.741ZM166.181 166.749L165.474 167.455L165.479 167.46L165.485 167.466L166.181 166.749ZM173.415 167.043L174.036 167.828L174.043 167.822L174.05 167.817L173.415 167.043ZM174.072 161.823L173.31 162.469L173.318 162.478L173.326 162.487L174.072 161.823ZM172.08 160.392L171.677 161.307L171.687 161.311L172.08 160.392ZM168.757 159.235L168.469 160.192L168.473 160.193L168.757 159.235ZM164.368 157.64L163.926 158.536L163.938 158.542L163.951 158.548L164.368 157.64ZM161.852 146.865L162.665 147.448L162.665 147.448L161.852 146.865ZM165.303 144.224L165.678 145.152L165.678 145.152L165.303 144.224ZM176.859 145.711L176.21 146.47L176.217 146.476L176.223 146.481L176.859 145.711ZM179.551 151.328L179.517 152.328L180.599 152.366L180.55 151.284L179.551 151.328ZM174.514 151.152L173.515 151.195L173.556 152.119L174.48 152.151L174.514 151.152ZM166.49 148.188L167.091 148.988L167.091 148.988L166.49 148.188ZM165.841 153.168L165.077 153.813L165.093 153.832L165.11 153.85L165.841 153.168ZM171.039 155.672L171.337 154.718L171.331 154.716L171.039 155.672ZM175.465 157.349L175.03 158.249L175.037 158.252L175.465 157.349ZM178.343 159.811L177.523 160.383L177.531 160.394L177.54 160.406L178.343 159.811ZM178.145 168.009L177.313 167.455L177.308 167.461L177.304 167.468L178.145 168.009ZM174.725 170.931L175.155 171.835L175.161 171.832L174.725 170.931ZM169.604 170.871C167.853 170.81 166.321 170.456 164.99 169.83L164.141 171.639C165.751 172.397 167.555 172.801 169.536 172.87L169.604 170.871ZM165.004 169.836C163.676 169.187 162.679 168.326 161.976 167.262L160.308 168.363C161.23 169.758 162.515 170.845 164.127 171.633L165.004 169.836ZM161.976 167.262C161.289 166.221 160.957 165.016 161.005 163.605L159.006 163.535C158.945 165.323 159.371 166.945 160.308 168.363L161.976 167.262ZM159.971 164.569L164.848 164.741L164.916 162.742L160.039 162.571L159.971 164.569ZM163.884 163.795C163.962 165.226 164.488 166.467 165.474 167.455L166.889 166.043C166.274 165.427 165.934 164.662 165.881 163.688L163.884 163.795ZM165.485 167.466C166.541 168.491 167.98 168.973 169.666 169.032L169.734 167.034C168.382 166.986 167.475 166.612 166.877 166.032L165.485 167.466ZM169.666 169.032C171.389 169.093 172.888 168.736 174.036 167.828L172.795 166.258C172.134 166.781 171.155 167.083 169.734 167.034L169.666 169.032ZM174.05 167.817C175.184 166.887 175.784 165.645 175.834 164.166L173.835 164.096C173.804 165.016 173.458 165.714 172.781 166.269L174.05 167.817ZM175.834 164.166C175.873 163.018 175.556 161.985 174.819 161.158L173.326 162.487C173.669 162.872 173.86 163.378 173.835 164.096L175.834 164.166ZM174.835 161.176C174.21 160.439 173.413 159.875 172.472 159.472L171.687 161.311C172.377 161.606 172.909 161.996 173.31 162.469L174.835 161.176ZM172.482 159.477C171.637 159.104 170.483 158.704 169.041 158.276L168.473 160.193C169.884 160.612 170.945 160.984 171.677 161.307L172.482 159.477ZM169.045 158.277C167.274 157.741 165.858 157.225 164.786 156.731L163.951 158.548C165.138 159.094 166.648 159.641 168.469 160.192L169.045 158.277ZM164.811 156.743C163.866 156.276 163.057 155.581 162.382 154.638L160.756 155.801C161.609 156.993 162.666 157.912 163.926 158.536L164.811 156.743ZM162.382 154.638C161.782 153.8 161.456 152.638 161.51 151.055L159.511 150.985C159.447 152.867 159.827 154.504 160.756 155.801L162.382 154.638ZM161.51 151.055C161.558 149.631 161.952 148.442 162.665 147.448L161.039 146.281C160.071 147.63 159.571 149.211 159.511 150.985L161.51 151.055ZM162.665 147.448C163.384 146.445 164.376 145.677 165.678 145.152L164.928 143.297C163.309 143.95 162 144.942 161.039 146.281L162.665 147.448ZM165.678 145.152C166.986 144.624 168.519 144.377 170.299 144.44L170.366 142.441C168.362 142.37 166.542 142.646 164.928 143.297L165.678 145.152ZM170.299 144.44C172.818 144.528 174.76 145.23 176.21 146.47L177.509 144.951C175.64 143.353 173.23 142.541 170.366 142.441L170.299 144.44ZM176.223 146.481C177.674 147.68 178.457 149.279 178.552 151.373L180.55 151.284C180.431 148.674 179.419 146.528 177.496 144.94L176.223 146.481ZM179.585 150.329L174.548 150.152L174.48 152.151L179.517 152.328L179.585 150.329ZM175.513 151.108C175.453 149.787 174.855 148.658 173.822 147.751L172.504 149.254C173.181 149.848 173.483 150.485 173.515 151.195L175.513 151.108ZM173.822 147.751C172.751 146.812 171.362 146.358 169.755 146.302L169.688 148.3C170.959 148.345 171.864 148.693 172.504 149.254L173.822 147.751ZM169.755 146.302C168.275 146.25 166.959 146.584 165.889 147.388L167.091 148.988C167.718 148.517 168.556 148.261 169.688 148.3L169.755 146.302ZM165.889 147.388C164.753 148.24 164.204 149.494 164.154 150.988L166.152 151.058C166.187 150.047 166.528 149.41 167.091 148.988L165.889 147.388ZM164.154 150.988C164.117 152.054 164.408 153.021 165.077 153.813L166.604 152.524C166.298 152.161 166.131 151.698 166.152 151.058L164.154 150.988ZM165.11 153.85C165.73 154.514 166.498 155.038 167.394 155.433L168.199 153.603C167.516 153.302 166.982 152.926 166.571 152.487L165.11 153.85ZM167.394 155.433C168.234 155.803 169.357 156.202 170.746 156.628L171.331 154.716C169.975 154.3 168.936 153.928 168.199 153.603L167.394 155.433ZM170.741 156.627C172.537 157.19 173.962 157.732 175.03 158.249L175.9 156.449C174.71 155.873 173.184 155.297 171.337 154.718L170.741 156.627ZM175.037 158.252C176.028 158.722 176.855 159.425 177.523 160.383L179.163 159.24C178.304 158.009 177.212 157.071 175.892 156.445L175.037 158.252ZM177.54 160.406C178.158 161.241 178.495 162.411 178.441 164.017L180.439 164.087C180.504 162.176 180.11 160.518 179.146 159.217L177.54 160.406ZM178.441 164.017C178.399 165.236 178.03 166.377 177.313 167.455L178.978 168.564C179.892 167.191 180.385 165.693 180.439 164.087L178.441 164.017ZM177.304 167.468C176.628 168.519 175.638 169.378 174.288 170.031L175.161 171.832C176.795 171.041 178.086 169.952 178.987 168.551L177.304 167.468ZM174.295 170.028C173.003 170.641 171.45 170.936 169.604 170.871L169.536 172.87C171.634 172.944 173.517 172.612 175.155 171.835L174.295 170.028Z" fill="#1E4364"/>
<path d="M203.996 141.005L204.532 144.686L197.215 145.791L200.687 169.62L196.178 170.301L192.707 146.473L185.35 147.584L184.814 143.903L203.996 141.005Z" fill="#1E4364"/>
<path d="M203.996 141.005L204.985 140.856L204.841 139.866L203.852 140.015L203.996 141.005ZM204.532 144.686L204.677 145.676L205.665 145.526L205.521 144.537L204.532 144.686ZM197.215 145.791L197.071 144.802L196.082 144.951L196.227 145.941L197.215 145.791ZM200.687 169.62L200.831 170.609L201.82 170.46L201.676 169.47L200.687 169.62ZM196.178 170.301L195.19 170.45L195.334 171.44L196.323 171.29L196.178 170.301ZM192.707 146.473L193.695 146.323L193.551 145.334L192.562 145.483L192.707 146.473ZM185.35 147.584L184.361 147.733L184.505 148.723L185.494 148.573L185.35 147.584ZM184.814 143.903L184.67 142.913L183.681 143.063L183.825 144.052L184.814 143.903ZM203.007 141.154L203.544 144.835L205.521 144.537L204.985 140.856L203.007 141.154ZM204.388 143.696L197.071 144.802L197.36 146.781L204.677 145.676L204.388 143.696ZM196.227 145.941L199.698 169.769L201.676 169.47L198.204 145.642L196.227 145.941ZM200.543 168.63L196.034 169.311L196.323 171.29L200.831 170.609L200.543 168.63ZM197.167 170.152L193.695 146.323L191.718 146.622L195.19 170.45L197.167 170.152ZM192.562 145.483L185.206 146.594L185.494 148.573L192.851 147.462L192.562 145.483ZM186.339 147.434L185.803 143.753L183.825 144.052L184.361 147.733L186.339 147.434ZM184.958 144.892L204.14 141.994L203.852 140.015L184.67 142.913L184.958 144.892Z" fill="#1E4364"/>
<path d="M231.315 161.397L221.708 152.986L218.425 154.14L221.993 164.672L217.691 166.183L208.771 139.853L217.828 136.671C219.841 135.964 221.659 135.721 223.282 135.942C224.931 136.155 226.296 136.735 227.377 137.684C228.484 138.623 229.285 139.825 229.782 141.29C230.363 143.008 230.391 144.75 229.864 146.518C229.353 148.252 228.152 149.734 226.26 150.964L236.447 159.595L231.315 161.397ZM217.257 150.692L222.012 149.022C223.622 148.456 224.693 147.628 225.224 146.537C225.781 145.437 225.828 144.205 225.366 142.841C224.904 141.477 224.142 140.558 223.08 140.083C222.01 139.583 220.657 139.62 219.022 140.195L214.267 141.865L217.257 150.692Z" fill="#1E4364"/>
<path d="M231.315 161.397L230.657 162.157L231.09 162.536L231.635 162.344L231.315 161.397ZM221.708 152.986L222.366 152.227L221.933 151.848L221.387 152.039L221.708 152.986ZM218.425 154.14L218.104 153.192L217.161 153.524L217.481 154.471L218.425 154.14ZM221.993 164.672L222.314 165.619L223.257 165.287L222.936 164.34L221.993 164.672ZM217.691 166.183L216.747 166.514L217.068 167.461L218.011 167.13L217.691 166.183ZM208.771 139.853L208.45 138.906L207.506 139.237L207.827 140.184L208.771 139.853ZM223.282 135.942L223.14 136.937L223.147 136.938L223.282 135.942ZM227.377 137.684L226.719 138.443L226.725 138.448L226.731 138.453L227.377 137.684ZM229.864 146.518L228.909 146.238L228.908 146.241L229.864 146.518ZM226.26 150.964L225.724 150.122L224.585 150.862L225.614 151.734L226.26 150.964ZM236.447 159.595L236.768 160.542L238.43 159.958L237.093 158.824L236.447 159.595ZM217.257 150.692L216.313 151.023L216.634 151.971L217.578 151.639L217.257 150.692ZM225.224 146.537L224.337 146.088L224.334 146.095L224.33 146.101L225.224 146.537ZM223.08 140.083L222.654 140.994L222.662 140.997L222.669 141.001L223.08 140.083ZM214.267 141.865L213.946 140.918L213.002 141.249L213.323 142.196L214.267 141.865ZM231.972 160.638L222.366 152.227L221.051 153.746L230.657 162.157L231.972 160.638ZM221.387 152.039L218.104 153.192L218.746 155.087L222.029 153.933L221.387 152.039ZM217.481 154.471L221.049 165.003L222.936 164.34L219.368 153.808L217.481 154.471ZM221.672 163.724L217.37 165.236L218.011 167.13L222.314 165.619L221.672 163.724ZM218.634 165.851L209.714 139.521L207.827 140.184L216.747 166.514L218.634 165.851ZM209.091 140.8L218.149 137.618L217.507 135.724L208.45 138.906L209.091 140.8ZM218.149 137.618C220.056 136.949 221.712 136.742 223.14 136.937L223.424 134.948C221.606 134.7 219.626 134.98 217.507 135.724L218.149 137.618ZM223.147 136.938C224.633 137.129 225.806 137.642 226.719 138.443L228.036 136.924C226.785 135.828 225.229 135.18 223.417 134.947L223.147 136.938ZM226.731 138.453C227.693 139.27 228.396 140.317 228.838 141.622L230.725 140.959C230.175 139.334 229.275 137.977 228.024 136.914L226.731 138.453ZM228.838 141.622C229.352 143.139 229.377 144.668 228.909 146.238L230.818 146.799C231.404 144.833 231.375 142.876 230.725 140.959L228.838 141.622ZM228.908 146.241C228.482 147.688 227.467 148.99 225.724 150.122L226.795 151.805C228.837 150.478 230.224 148.816 230.819 146.796L228.908 146.241ZM225.614 151.734L235.802 160.365L237.093 158.824L226.905 150.194L225.614 151.734ZM236.126 158.647L230.994 160.45L231.635 162.344L236.768 160.542L236.126 158.647ZM217.578 151.639L222.333 149.969L221.691 148.075L216.936 149.745L217.578 151.639ZM222.333 149.969C224.089 149.352 225.429 148.388 226.118 146.972L224.33 146.101C223.957 146.868 223.156 147.56 221.691 148.075L222.333 149.969ZM226.112 146.986C226.812 145.601 226.842 144.082 226.31 142.51L224.423 143.173C224.814 144.329 224.749 145.273 224.337 146.088L226.112 146.986ZM226.31 142.51C225.781 140.949 224.86 139.778 223.492 139.166L222.669 141.001C223.424 141.338 224.027 142.006 224.423 143.173L226.31 142.51ZM223.506 139.172C222.113 138.521 220.469 138.626 218.701 139.247L219.343 141.142C220.845 140.614 221.907 140.645 222.654 140.994L223.506 139.172ZM218.701 139.247L213.946 140.918L214.587 142.812L219.343 141.142L218.701 139.247ZM213.323 142.196L216.313 151.023L218.2 150.361L215.21 141.533L213.323 142.196Z" fill="#1E4364"/>
<path d="M236.52 128.659L245.399 143.993C246.455 145.816 247.719 146.908 249.191 147.269C250.685 147.615 252.279 147.281 253.97 146.265C255.685 145.235 256.744 143.978 257.147 142.492C257.573 140.992 257.258 139.331 256.202 137.508L247.323 122.173L251.232 119.826L260.072 135.092C261.207 137.053 261.746 138.969 261.689 140.838C261.631 142.708 261.088 144.402 260.058 145.923C259.028 147.443 257.655 148.718 255.94 149.747C254.226 150.777 252.466 151.382 250.661 151.564C248.879 151.732 247.182 151.382 245.571 150.515C243.959 149.647 242.585 148.233 241.45 146.271L232.61 131.006L236.52 128.659Z" fill="#1E4364"/>
<path d="M236.52 128.659L237.377 128.144L236.876 127.278L236.019 127.793L236.52 128.659ZM249.191 147.269L248.95 148.247L248.962 148.25L249.191 147.269ZM257.147 142.492L256.193 142.22L256.189 142.232L257.147 142.492ZM247.323 122.173L246.822 121.308L245.964 121.822L246.465 122.688L247.323 122.173ZM251.232 119.826L252.09 119.311L251.589 118.446L250.731 118.961L251.232 119.826ZM261.689 140.838L262.681 140.862L261.689 140.838ZM260.058 145.923L259.24 145.357L260.058 145.923ZM250.661 151.564L250.745 152.566L250.752 152.566L250.661 151.564ZM245.571 150.515L245.1 151.405L245.571 150.515ZM232.61 131.006L232.109 130.14L231.252 130.655L231.753 131.52L232.61 131.006ZM235.663 129.173L244.542 144.508L246.257 143.479L237.377 128.144L235.663 129.173ZM244.542 144.508C245.68 146.474 247.133 147.802 248.95 148.247L249.431 146.29C248.304 146.014 247.23 145.159 246.257 143.479L244.542 144.508ZM248.962 148.25C250.768 148.669 252.623 148.24 254.472 147.13L253.469 145.399C251.934 146.321 250.602 146.561 249.419 146.287L248.962 148.25ZM254.472 147.13C256.338 146.01 257.613 144.563 258.104 142.752L256.189 142.232C255.875 143.393 255.032 144.461 253.469 145.399L254.472 147.13ZM258.101 142.764C258.626 140.914 258.201 138.965 257.059 136.993L255.345 138.023C256.314 139.698 256.519 141.071 256.193 142.22L258.101 142.764ZM257.059 136.993L248.18 121.658L246.465 122.688L255.345 138.023L257.059 136.993ZM247.824 123.039L251.733 120.691L250.731 118.961L246.822 121.308L247.824 123.039ZM250.375 120.341L259.214 135.606L260.929 134.577L252.09 119.311L250.375 120.341ZM259.214 135.606C260.277 137.441 260.747 139.172 260.696 140.814L262.681 140.862C262.746 138.765 262.138 136.665 260.929 134.577L259.214 135.606ZM260.696 140.814C260.645 142.494 260.16 144 259.24 145.357L260.875 146.488C262.015 144.805 262.618 142.921 262.681 140.862L260.696 140.814ZM259.24 145.357C258.301 146.744 257.041 147.92 255.439 148.882L256.442 150.612C258.27 149.515 259.754 148.142 260.875 146.488L259.24 145.357ZM255.439 148.882C253.838 149.843 252.217 150.396 250.57 150.562L250.752 152.566C252.715 152.368 254.613 151.71 256.442 150.612L255.439 148.882ZM250.576 150.561C248.991 150.711 247.487 150.403 246.041 149.625L245.1 151.405C246.877 152.362 248.766 152.753 250.745 152.566L250.576 150.561ZM246.041 149.625C244.624 148.862 243.372 147.596 242.307 145.757L240.592 146.786C241.799 148.87 243.294 150.433 245.1 151.405L246.041 149.625ZM242.307 145.757L233.468 130.491L231.753 131.52L240.592 146.786L242.307 145.757ZM233.112 131.871L237.021 129.524L236.019 127.793L232.109 130.14L233.112 131.871Z" fill="#1E4364"/>
<path d="M263.95 127.953C262.116 125.945 260.926 123.712 260.38 121.255C259.853 118.78 259.97 116.357 260.729 113.986C261.49 111.577 262.81 109.483 264.688 107.705C266.838 105.67 269.24 104.406 271.894 103.912C274.55 103.381 277.155 103.742 279.708 104.997L275.728 108.764C274.216 108.176 272.753 108.056 271.338 108.404C269.923 108.752 268.605 109.504 267.385 110.659C266.049 111.924 265.137 113.356 264.648 114.957C264.16 116.557 264.137 118.213 264.58 119.923C265.041 121.615 265.965 123.22 267.349 124.736C268.734 126.253 270.238 127.307 271.861 127.899C273.505 128.473 275.137 128.58 276.758 128.22C278.361 127.841 279.831 127.019 281.167 125.754C282.387 124.599 283.219 123.316 283.663 121.904C284.107 120.492 284.096 118.997 283.63 117.419L287.61 113.652C288.653 116.336 288.817 119.008 288.103 121.666C287.409 124.306 285.987 126.643 283.837 128.678C281.939 130.475 279.801 131.673 277.424 132.271C275.028 132.85 272.637 132.782 270.251 132.067C267.885 131.333 265.784 129.962 263.95 127.953Z" fill="#1E4364"/>
<path d="M260.38 121.255L259.412 121.47L259.414 121.479L260.38 121.255ZM260.729 113.986L261.671 114.298L261.673 114.294L260.729 113.986ZM271.894 103.912L272.071 104.905L272.084 104.902L271.894 103.912ZM279.708 104.997L280.382 105.735L281.445 104.729L280.14 104.088L279.708 104.997ZM275.728 108.764L275.373 109.707L275.95 109.931L276.403 109.503L275.728 108.764ZM271.338 108.404L271.106 107.423L271.338 108.404ZM264.648 114.957L265.595 115.255L265.595 115.255L264.648 114.957ZM264.58 119.923L263.621 120.181L263.625 120.195L264.58 119.923ZM271.861 127.899L271.526 128.849L271.539 128.854L271.861 127.899ZM276.758 128.22L276.968 129.206L276.981 129.203L276.758 128.22ZM283.663 121.904L284.607 122.211L283.663 121.904ZM283.63 117.419L282.956 116.681L282.504 117.109L282.681 117.711L283.63 117.419ZM287.61 113.652L288.532 113.28L287.999 111.908L286.936 112.914L287.61 113.652ZM288.103 121.666L287.147 121.401L287.146 121.406L288.103 121.666ZM277.424 132.271L277.651 133.253L277.66 133.251L277.424 132.271ZM270.251 132.067L269.961 133.032L269.97 133.035L270.251 132.067ZM264.677 127.266C262.951 125.375 261.851 123.299 261.347 121.031L259.414 121.479C260.002 124.125 261.282 126.514 263.224 128.641L264.677 127.266ZM261.349 121.04C260.858 118.737 260.967 116.496 261.671 114.298L259.787 113.674C258.972 116.218 258.848 118.823 259.412 121.47L261.349 121.04ZM261.673 114.294C262.38 112.054 263.604 110.108 265.363 108.443L264.014 106.966C262.015 108.858 260.601 111.099 259.786 113.678L261.673 114.294ZM265.363 108.443C267.386 106.528 269.619 105.361 272.071 104.905L271.718 102.92C268.861 103.451 266.29 104.812 264.014 106.966L265.363 108.443ZM272.084 104.902C274.519 104.415 276.906 104.741 279.276 105.906L280.14 104.088C277.403 102.744 274.581 102.347 271.705 102.922L272.084 104.902ZM279.034 104.258L275.054 108.026L276.403 109.503L280.382 105.735L279.034 104.258ZM276.083 107.821C274.406 107.169 272.738 107.022 271.106 107.423L271.57 109.385C272.768 109.09 274.027 109.183 275.373 109.707L276.083 107.821ZM271.106 107.423C269.503 107.818 268.038 108.665 266.711 109.92L268.06 111.397C269.173 110.343 270.343 109.687 271.57 109.385L271.106 107.423ZM266.711 109.92C265.262 111.292 264.247 112.872 263.702 114.659L265.595 115.255C266.026 113.841 266.836 112.555 268.06 111.397L266.711 109.92ZM263.702 114.659C263.155 116.45 263.134 118.299 263.621 120.181L265.538 119.665C265.14 118.127 265.165 116.664 265.595 115.255L263.702 114.659ZM263.625 120.195C264.136 122.068 265.15 123.81 266.623 125.424L268.075 124.049C266.779 122.629 265.947 121.163 265.534 119.652L263.625 120.195ZM266.623 125.424C268.096 127.037 269.729 128.193 271.526 128.849L272.197 126.949C270.747 126.42 269.371 125.468 268.075 124.049L266.623 125.424ZM271.539 128.854C273.345 129.484 275.161 129.607 276.968 129.206L276.548 127.235C275.113 127.553 273.665 127.462 272.184 126.945L271.539 128.854ZM276.981 129.203C278.771 128.78 280.392 127.864 281.841 126.492L280.493 125.015C279.269 126.173 277.951 126.902 276.535 127.238L276.981 129.203ZM281.841 126.492C283.168 125.237 284.104 123.81 284.607 122.211L282.72 121.597C282.335 122.821 281.606 123.961 280.493 125.015L281.841 126.492ZM284.607 122.211C285.119 120.583 285.096 118.878 284.579 117.128L282.681 117.711C283.097 119.117 283.096 120.402 282.72 121.597L284.607 122.211ZM284.305 118.158L288.284 114.391L286.936 112.914L282.956 116.681L284.305 118.158ZM286.689 114.024C287.657 116.516 287.802 118.964 287.148 121.401L289.059 121.931C289.833 119.051 289.649 116.157 288.532 113.28L286.689 114.024ZM287.146 121.406C286.504 123.846 285.189 126.022 283.163 127.94L284.511 129.417C286.784 127.265 288.313 124.766 289.061 121.926L287.146 121.406ZM283.163 127.94C281.381 129.627 279.392 130.737 277.187 131.292L277.66 133.251C280.211 132.608 282.497 131.323 284.511 129.417L283.163 127.94ZM277.196 131.29C274.97 131.828 272.755 131.765 270.532 131.099L269.97 133.035C272.52 133.799 275.086 133.873 277.651 133.253L277.196 131.29ZM270.541 131.102C268.356 130.424 266.403 129.156 264.677 127.266L263.224 128.641C265.166 130.768 267.413 132.242 269.961 133.032L270.541 131.102Z" fill="#1E4364"/>
<path d="M287.681 104.814C285.444 103.268 283.784 101.36 282.702 99.0889C281.634 96.7958 281.206 94.4095 281.417 91.9299C281.62 89.413 282.439 87.0783 283.874 84.9258C285.515 82.4627 287.575 80.6938 290.054 79.6192C292.525 78.5072 295.146 78.2765 297.917 78.927L294.878 83.4871C293.272 83.2525 291.818 83.4631 290.515 84.1189C289.213 84.7748 288.096 85.8017 287.165 87.1997C286.144 88.7308 285.575 90.3305 285.456 91.9987C285.338 93.6669 285.686 95.2846 286.5 96.8518C287.328 98.3967 288.587 99.7528 290.277 100.92C291.966 102.087 293.669 102.778 295.385 102.991C297.116 103.183 298.731 102.922 300.232 102.208C301.711 101.48 302.96 100.35 303.981 98.8192C304.912 97.4212 305.437 95.985 305.554 94.5105C305.672 93.0361 305.327 91.5824 304.52 90.1496L307.559 85.5894C309.176 87.9708 309.933 90.536 309.831 93.2852C309.744 96.0121 308.88 98.6072 307.239 101.07C305.789 103.245 303.972 104.89 301.787 106.005C299.58 107.105 297.233 107.574 294.746 107.411C292.274 107.226 289.919 106.361 287.681 104.814Z" fill="#1E4364"/>
<path d="M282.702 99.0889L281.805 99.5149L281.809 99.5233L282.702 99.0889ZM281.417 91.9299L282.405 92.0227L282.406 92.0186L281.417 91.9299ZM290.054 79.6192L290.448 80.5465L290.46 80.541L290.054 79.6192ZM297.917 78.927L298.739 79.4954L299.551 78.2777L298.134 77.9452L297.917 78.927ZM294.878 83.4871L294.742 84.4846L295.355 84.5741L295.7 84.0556L294.878 83.4871ZM290.515 84.1189L290.07 83.2155L290.515 84.1189ZM285.456 91.9987L286.446 92.0774L286.446 92.0774L285.456 91.9987ZM286.5 96.8518L285.623 97.3177L285.629 97.3297L286.5 96.8518ZM295.385 102.991L295.27 103.992L295.283 103.993L295.385 102.991ZM300.232 102.208L300.657 103.122L300.669 103.116L300.232 102.208ZM305.554 94.5105L306.543 94.598L305.554 94.5105ZM304.52 90.1496L303.697 89.5811L303.351 90.0996L303.659 90.646L304.52 90.1496ZM307.559 85.5894L308.374 85.0207L307.547 83.8032L306.736 85.021L307.559 85.5894ZM309.831 93.2852L308.84 93.241L308.84 93.2463L309.831 93.2852ZM301.787 106.005L302.229 106.91L302.237 106.906L301.787 106.005ZM294.746 107.411L294.679 108.416L294.688 108.417L294.746 107.411ZM288.236 103.982C286.13 102.527 284.593 100.751 283.594 98.6544L281.809 99.5233C282.974 101.969 284.757 104.009 287.127 105.647L288.236 103.982ZM283.598 98.6628C282.605 96.5289 282.21 94.3214 282.405 92.0227L280.428 91.8371C280.202 94.4976 280.664 97.0627 281.805 99.5149L283.598 98.6628ZM282.406 92.0186C282.595 89.6793 283.354 87.5089 284.696 85.4943L283.051 84.3574C281.525 86.6477 280.646 89.1467 280.428 91.8413L282.406 92.0186ZM284.696 85.4943C286.242 83.1756 288.159 81.5391 290.448 80.5464L289.659 78.692C286.992 79.8485 284.789 81.7498 283.051 84.3574L284.696 85.4943ZM290.46 80.541C292.726 79.5216 295.127 79.3049 297.699 79.9088L298.134 77.9452C295.165 77.248 292.324 77.4928 289.647 78.6974L290.46 80.541ZM297.094 78.3585L294.055 82.9186L295.7 84.0556L298.739 79.4954L297.094 78.3585ZM295.013 82.4896C293.231 82.2294 291.572 82.4593 290.07 83.2155L290.961 85.0224C292.063 84.4669 293.312 84.2756 294.742 84.4846L295.013 82.4896ZM290.07 83.2155C288.595 83.9585 287.355 85.1112 286.342 86.6312L287.987 87.7682C288.838 86.4922 289.831 85.5911 290.961 85.0224L290.07 83.2155ZM286.342 86.6312C285.235 88.2916 284.599 90.0578 284.467 91.92L286.446 92.0774C286.551 90.6032 287.053 89.17 287.987 87.7682L286.342 86.6312ZM284.467 91.92C284.334 93.7874 284.727 95.5929 285.623 97.3177L287.376 96.3858C286.644 94.9764 286.342 93.5465 286.446 92.0774L284.467 91.92ZM285.629 97.3297C286.546 99.0398 287.925 100.51 289.722 101.752L290.831 100.088C289.25 98.9953 288.11 97.7535 287.37 96.3738L285.629 97.3297ZM289.722 101.752C291.519 102.994 293.371 103.755 295.27 103.991L295.499 101.991C293.967 101.8 292.413 101.181 290.831 100.088L289.722 101.752ZM295.283 103.993C297.186 104.203 298.985 103.917 300.657 103.122L299.807 101.295C298.478 101.927 297.046 102.162 295.486 101.989L295.283 103.993ZM300.669 103.116C302.32 102.303 303.697 101.048 304.803 99.3877L303.158 98.2507C302.224 99.6526 301.101 100.657 299.795 101.301L300.669 103.116ZM304.803 99.3877C305.816 97.8676 306.41 96.2684 306.543 94.598L304.565 94.4231C304.464 95.7016 304.008 96.9748 303.158 98.2507L304.803 99.3877ZM306.543 94.598C306.679 92.898 306.276 91.2425 305.38 89.6531L303.659 90.646C304.378 91.9224 304.665 93.1742 304.565 94.4231L306.543 94.598ZM305.342 90.718L308.381 86.1579L306.736 85.021L303.697 89.5811L305.342 90.718ZM306.743 86.1581C308.244 88.3688 308.933 90.7207 308.84 93.241L310.823 93.3293C310.933 90.3514 310.107 87.5728 308.374 85.0207L306.743 86.1581ZM308.84 93.2463C308.759 95.7663 307.963 98.1802 306.416 100.502L308.061 101.639C309.797 99.0342 310.729 96.258 310.823 93.3241L308.84 93.2463ZM306.416 100.502C305.055 102.544 303.363 104.07 301.337 105.104L302.237 106.906C304.581 105.71 306.523 103.946 308.061 101.639L306.416 100.502ZM301.345 105.1C299.295 106.122 297.12 106.557 294.804 106.406L294.688 108.417C297.346 108.591 299.865 108.089 302.229 106.91L301.345 105.1ZM294.813 106.406C292.531 106.235 290.342 105.438 288.236 103.982L287.127 105.647C289.496 107.284 292.017 108.217 294.679 108.416L294.813 106.406Z" fill="#1E4364"/>
<path d="M295.46 64.5L320.61 76.3459L318.724 80.4976L293.574 68.6516L295.46 64.5Z" fill="#1E4364"/>
<path d="M295.46 64.5L295.874 63.5895L294.969 63.1634L294.556 64.0738L295.46 64.5ZM320.61 76.3459L321.515 76.772L321.928 75.8616L321.024 75.4354L320.61 76.3459ZM318.724 80.4976L318.31 81.408L319.215 81.8341L319.629 80.9237L318.724 80.4976ZM293.574 68.6516L292.67 68.2255L292.256 69.136L293.161 69.5621L293.574 68.6516ZM295.047 65.4104L320.196 77.2563L321.024 75.4354L295.874 63.5895L295.047 65.4104ZM319.705 75.9198L317.819 80.0715L319.629 80.9237L321.515 76.772L319.705 75.9198ZM319.138 79.5871L293.988 67.7412L293.161 69.5621L318.31 81.408L319.138 79.5871ZM294.479 69.0778L296.365 64.9261L294.556 64.0738L292.67 68.2255L294.479 69.0778Z" fill="#1E4364"/>
<path d="M329.094 53.3484C328.422 55.8464 327.225 57.9902 325.501 59.7797C323.759 61.5363 321.681 62.7427 319.268 63.3989C316.837 64.0222 314.311 63.9687 311.69 63.2384C309.07 62.5082 306.883 61.2479 305.127 59.4576C303.379 57.6416 302.207 55.5295 301.612 53.1214C300.998 50.6803 301.027 48.2108 301.698 45.7128C302.377 43.1891 303.587 41.0489 305.329 39.2923C307.053 37.5028 309.118 36.2928 311.524 35.6624C313.93 35.0319 316.443 35.0818 319.063 35.8121C321.683 36.5423 323.884 37.8062 325.665 39.6036C327.42 41.3939 328.605 43.5096 329.219 45.9506C329.814 48.3587 329.772 50.8247 329.094 53.3484ZM325.279 52.2852C325.757 50.5083 325.785 48.8136 325.362 47.201C324.914 45.5813 324.049 44.1775 322.766 42.9897C321.466 41.7689 319.826 40.8829 317.848 40.3316C315.87 39.7804 314.029 39.6963 312.324 40.0793C310.627 40.4367 309.193 41.1997 308.023 42.3683C306.853 43.537 306.029 45.0098 305.551 46.7868C305.074 48.5637 305.046 50.2584 305.468 51.871C305.891 53.4836 306.74 54.8966 308.015 56.1102C309.297 57.298 310.927 58.1676 312.905 58.7189C314.883 59.2702 316.734 59.3707 318.457 59.0206C320.162 58.6375 321.612 57.8652 322.808 56.7036C323.978 55.535 324.802 54.0622 325.279 52.2852ZM297.373 40.2306L299.278 49.9381L296.042 49.036L293.636 39.1889L297.373 40.2306Z" fill="#1E4364"/>
<path d="M325.501 59.7797L326.211 60.49L326.216 60.4849L326.221 60.4797L325.501 59.7797ZM319.268 63.3989L319.522 64.3703L319.529 64.3685L319.536 64.3666L319.268 63.3989ZM305.127 59.4576L304.413 60.1516L304.419 60.1581L305.127 59.4576ZM301.612 53.1214L302.58 52.8871L302.579 52.883L301.612 53.1214ZM305.329 39.2923L306.039 40.0027L306.044 39.9975L306.049 39.9923L305.329 39.2923ZM311.524 35.6624L311.783 36.6324L311.524 35.6624ZM325.665 39.6036L326.373 38.9031L326.369 38.8993L325.665 39.6036ZM329.219 45.9506L330.187 45.7163L330.186 45.7123L329.219 45.9506ZM325.362 47.201L326.327 46.953L326.323 46.9396L325.362 47.201ZM322.766 42.9897L322.089 43.7197L322.093 43.7241L322.766 42.9897ZM312.324 40.0793L312.536 41.0605L312.55 41.0576L312.324 40.0793ZM308.023 42.3683L308.729 43.082L308.023 42.3683ZM305.468 51.871L306.433 51.623L306.433 51.623L305.468 51.871ZM308.015 56.1102L307.332 56.8354L307.342 56.8446L308.015 56.1102ZM318.457 59.0206L318.662 60.0031L318.672 60.001L318.682 59.9988L318.457 59.0206ZM322.808 56.7036L323.504 57.427L323.514 57.4173L322.808 56.7036ZM297.373 40.2306L298.352 40.0442L298.232 39.4318L297.633 39.2649L297.373 40.2306ZM299.278 49.9381L299.019 50.9038L300.568 51.3356L300.257 49.7517L299.278 49.9381ZM296.042 49.036L295.073 49.2677L295.214 49.8433L295.782 50.0017L296.042 49.036ZM293.636 39.1889L293.895 38.2232L292.263 37.7683L292.667 39.4206L293.636 39.1889ZM328.131 53.0799C327.501 55.4218 326.385 57.4154 324.782 59.0797L326.221 60.4797C328.065 58.5649 329.344 56.2711 330.057 53.6169L328.131 53.0799ZM324.792 59.0693C323.173 60.7014 321.248 61.82 319.001 62.4312L319.536 64.3666C322.114 63.6654 324.345 62.3712 326.211 60.49L324.792 59.0693ZM319.014 62.4275C316.764 63.0043 314.416 62.96 311.95 62.2727L311.431 64.2041C314.205 64.9774 316.909 65.0401 319.522 64.3703L319.014 62.4275ZM311.95 62.2727C309.484 61.5854 307.456 60.4099 305.835 58.7571L304.419 60.1581C306.309 62.0859 308.656 63.4309 311.431 64.2041L311.95 62.2727ZM305.842 58.7637C304.215 57.0737 303.132 55.1195 302.58 52.8871L300.644 53.3557C301.282 55.9395 302.543 58.2094 304.413 60.1515L305.842 58.7637ZM302.579 52.883C302.008 50.6143 302.033 48.3193 302.661 45.9813L300.735 45.4444C300.02 48.1023 299.987 50.7464 300.645 53.3597L302.579 52.883ZM302.661 45.9813C303.297 43.6157 304.424 41.6304 306.039 40.0027L304.62 38.582C302.75 40.4674 301.456 42.7625 300.735 45.4444L302.661 45.9813ZM306.049 39.9923C307.646 38.3336 309.552 37.2169 311.783 36.6324L311.265 34.6923C308.683 35.3687 306.459 36.672 304.61 38.5923L306.049 39.9923ZM311.783 36.6324C314.004 36.0504 316.337 36.0905 318.803 36.7778L319.323 34.8464C316.548 34.0731 313.856 34.0135 311.265 34.6923L311.783 36.6324ZM318.803 36.7778C321.269 37.4651 323.312 38.6448 324.961 40.308L326.369 38.8993C324.455 36.9676 322.097 35.6196 319.323 34.8464L318.803 36.7778ZM324.957 40.3042C326.586 41.9656 327.681 43.9214 328.252 46.1889L330.186 45.7123C329.528 43.0977 328.254 40.8222 326.373 38.9031L324.957 40.3042ZM328.251 46.1849C328.802 48.4178 328.768 50.7105 328.131 53.0799L330.057 53.6169C330.777 50.9388 330.825 48.2997 330.187 45.7163L328.251 46.1849ZM326.243 52.5537C326.761 50.6268 326.798 48.7531 326.327 46.953L324.397 47.449C324.771 48.874 324.753 50.3899 324.316 52.0168L326.243 52.5537ZM326.323 46.9396C325.823 45.1311 324.854 43.5655 323.44 42.2552L322.093 43.7241C323.243 44.7895 324.005 46.0315 324.401 47.4623L326.323 46.9396ZM323.444 42.2596C322.008 40.9114 320.217 39.9539 318.108 39.3659L317.589 41.2974C319.435 41.8119 320.923 42.6264 322.089 43.7197L323.444 42.2596ZM318.108 39.3659C315.998 38.778 313.989 38.6764 312.099 39.1011L312.55 41.0576C314.069 40.7161 315.742 40.7827 317.589 41.2974L318.108 39.3659ZM312.112 39.0982C310.237 39.4929 308.629 40.3441 307.317 41.6547L308.729 43.082C309.757 42.0553 311.017 41.3804 312.536 41.0604L312.112 39.0982ZM307.317 41.6547C306.011 42.9593 305.106 44.5913 304.588 46.5183L306.515 47.0552C306.952 45.4283 307.695 44.1148 308.729 43.082L307.317 41.6547ZM304.588 46.5183C304.07 48.4452 304.032 50.3189 304.504 52.119L306.433 51.623C306.06 50.198 306.077 48.6821 306.515 47.0552L304.588 46.5183ZM304.504 52.119C304.977 53.924 305.929 55.4997 307.332 56.8354L308.698 55.3851C307.551 54.2936 306.805 53.0431 306.433 51.623L304.504 52.119ZM307.342 56.8446C308.761 58.1595 310.541 59.0981 312.646 59.6846L313.165 57.7532C311.313 57.2371 309.833 56.4366 308.688 55.3758L307.342 56.8446ZM312.646 59.6846C314.751 60.2713 316.762 60.3892 318.662 60.0031L318.252 58.038C316.706 58.3522 315.016 58.2691 313.165 57.7532L312.646 59.6846ZM318.682 59.9988C320.556 59.5778 322.171 58.7215 323.504 57.4269L322.111 55.9804C321.052 57.0088 319.768 57.6972 318.232 58.0423L318.682 59.9988ZM323.514 57.4173C324.82 56.1127 325.725 54.4807 326.243 52.5537L324.316 52.0168C323.879 53.6437 323.135 54.9572 322.101 55.99L323.514 57.4173ZM296.394 40.417L298.3 50.1245L300.257 49.7517L298.352 40.0442L296.394 40.417ZM299.538 48.9724L296.301 48.0703L295.782 50.0017L299.019 50.9038L299.538 48.9724ZM297.01 48.8043L294.604 38.9572L292.667 39.4206L295.073 49.2677L297.01 48.8043ZM293.376 40.1546L297.114 41.1963L297.633 39.2649L293.895 38.2232L293.376 40.1546Z" fill="#1E4364"/>
<path d="M334.949 6.05711L334.749 10.6127L313.409 23.3753L334.147 24.3195L333.947 28.8751L306.136 27.6089L306.336 23.0533L327.637 10.2889L306.938 9.34655L307.138 4.79093L334.949 6.05711Z" fill="#1E4364"/>
<path d="M334.949 6.05711L335.948 6.10259L335.992 5.10356L334.993 5.05808L334.949 6.05711ZM334.749 10.6127L335.264 11.4713L335.725 11.1955L335.748 10.6582L334.749 10.6127ZM313.409 23.3753L312.895 22.5168L310.042 24.2231L313.365 24.3744L313.409 23.3753ZM334.147 24.3195L335.146 24.365L335.19 23.366L334.191 23.3205L334.147 24.3195ZM333.947 28.8751L333.904 29.8742L334.902 29.9196L334.946 28.9206L333.947 28.8751ZM306.136 27.6089L305.137 27.5635L305.093 28.5625L306.092 28.608L306.136 27.6089ZM306.336 23.0533L305.821 22.1953L305.361 22.4712L305.337 23.0079L306.336 23.0533ZM327.637 10.2889L328.152 11.147L330.999 9.44093L327.681 9.28986L327.637 10.2889ZM306.938 9.34654L305.939 9.30106L305.895 10.3001L306.894 10.3456L306.938 9.34654ZM307.138 4.79093L307.182 3.7919L306.183 3.74642L306.139 4.74545L307.138 4.79093ZM333.95 6.01163L333.75 10.5672L335.748 10.6582L335.948 6.10259L333.95 6.01163ZM334.235 9.75418L312.895 22.5168L313.923 24.2339L335.264 11.4713L334.235 9.75418ZM313.365 24.3744L334.104 25.3186L334.191 23.3205L313.453 22.3763L313.365 24.3744ZM333.148 24.274L332.948 28.8296L334.946 28.9206L335.146 24.365L333.148 24.274ZM333.991 27.8761L306.18 26.6099L306.092 28.608L333.904 29.8742L333.991 27.8761ZM307.135 27.6544L307.335 23.0988L305.337 23.0079L305.137 27.5635L307.135 27.6544ZM306.851 23.9114L328.152 11.147L327.122 9.43082L305.821 22.1953L306.851 23.9114ZM327.681 9.28986L306.982 8.34751L306.894 10.3456L327.593 11.2879L327.681 9.28986ZM307.937 9.39203L308.137 4.83642L306.139 4.74545L305.939 9.30106L307.937 9.39203ZM307.094 5.78997L334.905 7.05615L334.993 5.05808L307.182 3.7919L307.094 5.78997Z" fill="#1E4364"/>
</svg>
