<svg width="255" height="97" viewBox="0 0 255 97" fill="none" xmlns="http://www.w3.org/2000/svg">
<path d="M22.0046 44.6976C19.95 43.1262 18.4188 41.1996 17.4109 38.918C16.4405 36.6314 16.103 34.2414 16.3986 31.7481C16.7315 29.2498 17.7242 26.9204 19.3767 24.7599C21.0291 22.5994 23.0093 21.042 25.317 20.0878C27.646 19.1497 30.0328 18.8603 32.4776 19.2193C34.9597 19.5735 37.228 20.5362 39.2826 22.1077C41.3584 23.6954 42.8815 25.6325 43.8519 27.9191C44.8598 30.2007 45.2053 32.5801 44.8886 35.0572C44.5719 37.5343 43.5873 39.8531 41.9348 42.0136C40.2823 44.1741 38.2941 45.7421 35.9701 46.7175C33.6624 47.6718 31.2674 47.9719 28.7853 47.6178C26.3406 47.2587 24.0804 46.2853 22.0046 44.6976ZM24.4104 41.5522C25.8719 42.67 27.4257 43.3381 29.0717 43.5563C30.7339 43.7533 32.3525 43.4806 33.9276 42.7381C35.5401 41.9906 36.97 40.8014 38.2175 39.1704C39.4649 37.5395 40.2302 35.8586 40.5132 34.1279C40.8174 32.4133 40.6487 30.7903 40.0071 29.2589C39.3656 27.7274 38.314 26.4028 36.8525 25.2849C35.391 24.1671 33.8372 23.499 32.1912 23.2808C30.5452 23.0626 28.9241 23.3166 27.3278 24.0429C25.7527 24.7854 24.3415 25.9722 23.094 27.6031C21.8466 29.2341 21.0626 30.9174 20.7422 32.6532C20.4592 34.3839 20.6304 36.0256 21.2558 37.5782C21.8973 39.1097 22.9489 40.4343 24.4104 41.5522Z" fill="#1E4364"/>
<path d="M17.4109 38.918L16.4904 39.3087L16.4933 39.3154L16.4962 39.3221L17.4109 38.918ZM16.3986 31.7481L15.4073 31.616L15.4064 31.6232L15.4055 31.6304L16.3986 31.7481ZM25.317 20.0878L24.9434 19.1602L24.9349 19.1637L25.317 20.0878ZM32.4776 19.2193L32.3322 20.2087L32.3363 20.2093L32.4776 19.2193ZM43.8519 27.9191L42.9314 28.3098L42.9343 28.3165L42.9372 28.3232L43.8519 27.9191ZM44.8886 35.0572L43.8967 34.9304L44.8886 35.0572ZM35.9701 46.7175L36.3523 47.6417L36.3572 47.6396L35.9701 46.7175ZM28.7853 47.6178L28.64 48.6071L28.6441 48.6077L28.7853 47.6178ZM29.0717 43.5563L28.9402 44.5477L28.954 44.5493L29.0717 43.5563ZM33.9276 42.7381L33.507 41.8308L33.5012 41.8335L33.9276 42.7381ZM40.5132 34.1279L39.5285 33.9532L39.5263 33.9665L40.5132 34.1279ZM40.0071 29.2589L39.0848 29.6453L40.0071 29.2589ZM32.1912 23.2808L32.0598 24.2721L32.0598 24.2722L32.1912 23.2808ZM27.3278 24.0429L26.9136 23.1327L26.9014 23.1384L27.3278 24.0429ZM20.7422 32.6532L19.7588 32.4716L19.757 32.4817L19.7553 32.4918L20.7422 32.6532ZM21.2558 37.5782L20.3281 37.9519L20.3334 37.9646L21.2558 37.5782ZM22.6121 43.9033C20.686 42.4301 19.263 40.6359 18.3257 38.5139L16.4962 39.3221C17.5746 41.7633 19.214 43.8222 21.3971 45.4919L22.6121 43.9033ZM18.3315 38.5273C17.4298 36.4028 17.1163 34.1882 17.3916 31.8658L15.4055 31.6304C15.0897 34.2947 15.4512 36.86 16.4904 39.3087L18.3315 38.5273ZM17.3898 31.8802C17.6979 29.5685 18.6158 27.4007 20.171 25.3674L18.5824 24.1524C16.8326 26.4401 15.7651 28.9312 15.4073 31.616L17.3898 31.8802ZM20.171 25.3674C21.7262 23.3341 23.5686 21.8929 25.6992 21.0119L24.9349 19.1637C22.4499 20.1912 20.3321 21.8648 18.5824 24.1524L20.171 25.3674ZM25.6907 21.0154C27.858 20.1424 30.0659 19.8758 32.3322 20.2087L32.6229 18.23C29.9998 17.8447 27.4341 18.157 24.9434 19.1602L25.6907 21.0154ZM32.3363 20.2093C34.6433 20.5384 36.7521 21.4312 38.6751 22.902L39.8901 21.3134C37.7039 19.6413 35.276 18.6085 32.6188 18.2294L32.3363 20.2093ZM38.6751 22.902C40.6208 24.3902 42.0322 26.191 42.9314 28.3098L44.7725 27.5284C43.7308 25.0741 42.096 23.0006 39.8901 21.3134L38.6751 22.902ZM42.9372 28.3232C43.8714 30.4379 44.1903 32.6337 43.8967 34.9304L45.8805 35.184C46.2203 32.5265 45.8482 29.9635 44.7667 27.515L42.9372 28.3232ZM43.8967 34.9304C43.6043 37.2173 42.6957 39.3728 41.1405 41.4061L42.7291 42.6212C44.4788 40.3335 45.5395 37.8514 45.8805 35.184L43.8967 34.9304ZM41.1405 41.4061C39.5854 43.4394 37.7336 44.8929 35.5831 45.7955L36.3572 47.6396C38.8547 46.5913 40.9793 44.9089 42.7291 42.6212L41.1405 41.4061ZM35.588 45.7934C33.4464 46.679 31.2322 46.9567 28.9266 46.6278L28.6441 48.6077C31.3026 48.987 33.8784 48.6646 36.3523 47.6417L35.588 45.7934ZM28.9306 46.6284C26.6638 46.2954 24.5609 45.3939 22.6121 43.9033L21.3971 45.4919C23.5998 47.1767 26.0174 48.2219 28.64 48.6071L28.9306 46.6284ZM23.8029 42.3465C25.3878 43.5587 27.1028 44.304 28.9403 44.5476L29.2031 42.565C27.7485 42.3721 26.356 41.7814 25.0179 40.7579L23.8029 42.3465ZM28.954 44.5493C30.81 44.7693 32.6166 44.4616 34.354 43.6426L33.5012 41.8335C32.0885 42.4995 30.6578 42.7373 29.1894 42.5632L28.954 44.5493ZM34.3482 43.6453C36.129 42.8198 37.6813 41.5175 39.0118 39.7779L37.4232 38.5629C36.2588 40.0852 34.9511 41.1614 33.507 41.8308L34.3482 43.6453ZM39.0118 39.7779C40.342 38.0387 41.1863 36.208 41.5001 34.2892L39.5263 33.9665C39.274 35.5093 38.5878 37.0402 37.4232 38.5629L39.0118 39.7779ZM41.4978 34.3026C41.8338 32.4086 41.649 30.59 40.9295 28.8725L39.0848 29.6453C39.6484 30.9907 39.8009 32.4181 39.5286 33.9532L41.4978 34.3026ZM40.9295 28.8725C40.2133 27.1629 39.0449 25.7028 37.46 24.4906L36.245 26.0792C37.5831 27.1027 38.5178 28.2919 39.0848 29.6453L40.9295 28.8725ZM37.46 24.4906C35.8751 23.2784 34.1601 22.5331 32.3226 22.2895L32.0598 24.2722C33.5144 24.465 34.9069 25.0557 36.245 26.0792L37.46 24.4906ZM32.3226 22.2895C30.4801 22.0452 28.6705 22.3334 26.9137 23.1327L27.7419 24.9532C29.1776 24.2999 30.6103 24.08 32.0598 24.2721L32.3226 22.2895ZM26.9014 23.1384C25.1579 23.9603 23.6269 25.2604 22.2997 26.9956L23.8883 28.2107C25.056 26.684 26.3475 25.6106 27.7542 24.9475L26.9014 23.1384ZM22.2997 26.9956C20.9722 28.7313 20.1122 30.5575 19.7588 32.4716L21.7256 32.8347C22.0131 31.2773 22.7209 29.7369 23.8883 28.2107L22.2997 26.9956ZM19.7553 32.4918C19.4443 34.3939 19.6312 36.2214 20.3282 37.9518L22.1833 37.2046C21.6296 35.8298 21.4741 34.3739 21.7291 32.8145L19.7553 32.4918ZM20.3334 37.9646C21.0496 39.6742 22.218 41.1343 23.8029 42.3465L25.0179 40.7579C23.6798 39.7344 22.7451 38.5452 22.1781 37.1918L20.3334 37.9646Z" fill="#1E4364"/>
<path d="M55.9625 44.3684L50.2716 55.1598C49.8859 55.891 49.7712 56.5088 49.9273 57.0132C50.1194 57.5064 50.6282 57.9707 51.4538 58.4061L53.9305 59.7122L52.1579 63.0734L48.9736 61.3941C47.1573 60.4363 45.9895 59.2778 45.4703 57.9187C44.951 56.5595 45.1951 54.9246 46.2027 53.014L51.8936 42.2227L49.5938 41.0098L51.3291 37.7194L53.6289 38.9322L56.1851 34.0849L60.254 36.2307L57.6977 41.0779L62.4389 43.5782L60.7036 46.8687L55.9625 44.3684Z" fill="#1E4364"/>
<path d="M55.9625 44.3684L56.4289 43.4839L55.5444 43.0174L55.0779 43.9019L55.9625 44.3684ZM49.9273 57.0132L48.972 57.3088L48.9825 57.3429L48.9954 57.3761L49.9273 57.0132ZM53.9305 59.7122L54.815 60.1786L55.2815 59.2941L54.3969 58.8276L53.9305 59.7122ZM52.1579 63.0734L51.6914 63.958L52.576 64.4244L53.0424 63.5399L52.1579 63.0734ZM45.4703 57.9187L44.5361 58.2756L45.4703 57.9187ZM51.8936 42.2227L52.7781 42.6891L53.2446 41.8046L52.3601 41.3381L51.8936 42.2227ZM49.5938 41.0098L48.7093 40.5434L48.2428 41.4279L49.1273 41.8944L49.5938 41.0098ZM51.3291 37.7194L51.7955 36.8348L50.911 36.3683L50.4445 37.2529L51.3291 37.7194ZM53.6289 38.9322L53.1624 39.8167L54.0469 40.2832L54.5134 39.3986L53.6289 38.9322ZM56.1851 34.0849L56.6516 33.2004L55.767 32.7339L55.3006 33.6184L56.1851 34.0849ZM60.254 36.2307L61.1385 36.6971L61.605 35.8126L60.7205 35.3461L60.254 36.2307ZM57.6977 41.0779L56.8132 40.6115L56.3467 41.496L57.2313 41.9625L57.6977 41.0779ZM62.4389 43.5782L63.3234 44.0447L63.7899 43.1601L62.9053 42.6937L62.4389 43.5782ZM60.7036 46.8687L60.2371 47.7532L61.1217 48.2197L61.5881 47.3351L60.7036 46.8687ZM55.0779 43.9019L49.387 54.6933L51.1561 55.6262L56.847 44.8349L55.0779 43.9019ZM49.387 54.6933C48.9457 55.5302 48.7029 56.4394 48.972 57.3088L50.8826 56.7175C50.8394 56.5781 50.8262 56.2517 51.1561 55.6262L49.387 54.6933ZM48.9954 57.3761C49.3205 58.2107 50.0957 58.8204 50.9873 59.2906L51.9202 57.5215C51.1607 57.121 50.9182 56.8021 50.8591 56.6502L48.9954 57.3761ZM50.9873 59.2906L53.464 60.5967L54.3969 58.8276L51.9202 57.5215L50.9873 59.2906ZM53.0459 59.2457L51.2734 62.6069L53.0424 63.5399L54.815 60.1786L53.0459 59.2457ZM52.6244 62.1889L49.44 60.5096L48.5071 62.2787L51.6914 63.958L52.6244 62.1889ZM49.44 60.5096C47.7509 59.6188 46.8072 58.616 46.4044 57.5618L44.5361 58.2756C45.1719 59.9396 46.5637 61.2538 48.5071 62.2787L49.44 60.5096ZM46.4044 57.5618C46.0293 56.58 46.148 55.2615 47.0872 53.4805L45.3181 52.5475C44.2422 54.5877 43.8727 56.539 44.5361 58.2756L46.4044 57.5618ZM47.0872 53.4805L52.7781 42.6891L51.0091 41.7562L45.3181 52.5475L47.0872 53.4805ZM52.3601 41.3381L50.0603 40.1253L49.1273 41.8944L51.4271 43.1072L52.3601 41.3381ZM50.4783 41.4763L52.2136 38.1858L50.4445 37.2529L48.7093 40.5434L50.4783 41.4763ZM50.8626 38.6039L53.1624 39.8167L54.0953 38.0476L51.7955 36.8348L50.8626 38.6039ZM54.5134 39.3986L57.0696 34.5514L55.3006 33.6184L52.7443 38.4657L54.5134 39.3986ZM55.7186 34.9694L59.7875 37.1152L60.7205 35.3461L56.6516 33.2004L55.7186 34.9694ZM59.3694 35.7642L56.8132 40.6115L58.5823 41.5444L61.1385 36.6971L59.3694 35.7642ZM57.2313 41.9625L61.9724 44.4627L62.9053 42.6937L58.1642 40.1934L57.2313 41.9625ZM61.5543 43.1117L59.8191 46.4022L61.5881 47.3351L63.3234 44.0447L61.5543 43.1117ZM61.1701 45.9841L56.4289 43.4839L55.496 45.2529L60.2371 47.7532L61.1701 45.9841Z" fill="#1E4364"/>
<path d="M71.8838 50.9795C72.9061 50.1709 74.0373 49.6751 75.2775 49.4921C76.5521 49.2937 77.8994 49.4655 79.3194 50.0077L77.6359 54.4172L76.5522 54.0035C74.8831 53.3662 73.4508 53.3047 72.2555 53.8188C71.0851 54.3425 70.1004 55.6506 69.3014 57.7433L65.164 68.5804L60.9039 66.9539L68.765 46.3635L73.0251 47.99L71.8838 50.9795Z" fill="#1E4364"/>
<path d="M71.8838 50.9795L70.9495 50.6228L69.653 54.0188L72.5041 51.7638L71.8838 50.9795ZM75.2775 49.4921L75.4235 50.4814L75.4313 50.4802L75.2775 49.4921ZM79.3194 50.0077L80.2537 50.3644L80.6103 49.4301L79.6761 49.0735L79.3194 50.0077ZM77.6359 54.4172L77.2793 55.3515L78.2135 55.7081L78.5702 54.7739L77.6359 54.4172ZM72.2555 53.8188L71.8604 52.9002L71.8537 52.9031L71.8471 52.906L72.2555 53.8188ZM65.164 68.5804L64.8073 69.5146L65.7416 69.8713L66.0982 68.937L65.164 68.5804ZM60.9039 66.9539L59.9697 66.5972L59.613 67.5315L60.5473 67.8881L60.9039 66.9539ZM68.765 46.3635L69.1217 45.4293L68.1875 45.0726L67.8308 46.0068L68.765 46.3635ZM73.0251 47.99L73.9593 48.3466L74.316 47.4124L73.3818 47.0557L73.0251 47.99ZM72.5041 51.7638C73.3947 51.0595 74.3637 50.6378 75.4235 50.4814L75.1315 48.5028C73.7109 48.7125 72.4174 49.2824 71.2634 50.1952L72.5041 51.7638ZM75.4313 50.4802C76.5055 50.313 77.6762 50.4507 78.9628 50.9419L79.6761 49.0735C78.1227 48.4804 76.5986 48.2744 75.1237 48.504L75.4313 50.4802ZM78.3852 49.651L76.7017 54.0606L78.5702 54.7739L80.2537 50.3644L78.3852 49.651ZM77.9926 53.483L76.9089 53.0693L76.1955 54.9377L77.2793 55.3515L77.9926 53.483ZM76.9089 53.0693C75.089 52.3744 73.3723 52.2499 71.8604 52.9002L72.6506 54.7374C73.5294 54.3595 74.6772 54.358 76.1955 54.9377L76.9089 53.0693ZM71.8471 52.906C70.3071 53.595 69.1953 55.2175 68.3672 57.3866L70.2357 58.1C71.0054 56.0837 71.863 55.0899 72.6639 54.7316L71.8471 52.906ZM68.3672 57.3866L64.2298 68.2237L66.0982 68.937L70.2357 58.1L68.3672 57.3866ZM65.5207 67.6461L61.2606 66.0197L60.5473 67.8881L64.8073 69.5146L65.5207 67.6461ZM61.8382 67.3106L69.6993 46.7202L67.8308 46.0068L59.9697 66.5972L61.8382 67.3106ZM68.4084 47.2977L72.6684 48.9242L73.3818 47.0557L69.1217 45.4293L68.4084 47.2977ZM72.0909 47.6333L70.9495 50.6228L72.818 51.3362L73.9593 48.3466L72.0909 47.6333Z" fill="#1E4364"/>
<path d="M90.2661 76.467C88.2326 76.0298 86.4927 75.1784 85.0464 73.9128C83.6057 72.6212 82.5954 71.0402 82.0156 69.1699C81.4414 67.2735 81.3925 65.2172 81.8689 63.0012C82.3397 60.8113 83.2396 58.9727 84.5685 57.4854C85.8975 55.9982 87.4943 54.9777 89.359 54.4239C91.2237 53.8702 93.1859 53.8147 95.2455 54.2575C97.3051 54.7003 99.0711 55.5573 100.543 56.8285C102.016 58.0997 103.052 59.6863 103.652 61.5882C104.253 63.4902 104.318 65.5362 103.847 67.7262C103.376 69.9161 102.463 71.7519 101.108 73.2336C99.7529 74.7152 98.1142 75.7403 96.1917 76.3089C94.301 76.8571 92.3258 76.9098 90.2661 76.467ZM91.0985 72.5955C92.2456 72.8421 93.3734 72.7981 94.4818 72.4636C95.6162 72.1347 96.614 71.4901 97.4751 70.5296C98.3363 69.5691 98.935 68.3068 99.2713 66.7425C99.6076 65.1783 99.5908 63.7972 99.221 62.5994C98.8567 61.3755 98.2381 60.3833 97.3651 59.6228C96.4921 58.8624 95.4821 58.3588 94.335 58.1122C93.1878 57.8656 92.0601 57.9095 90.9517 58.244C89.8693 58.5841 88.9237 59.24 88.1147 60.2117C87.3114 61.1573 86.7415 62.4122 86.4052 63.9765C85.9064 66.2968 86.1062 68.2218 87.0048 69.7515C87.935 71.2607 89.2996 72.2087 91.0985 72.5955Z" fill="#1E4364"/>
<path d="M85.0464 73.9128L84.3788 74.6575L84.3879 74.6654L85.0464 73.9128ZM82.0156 69.1699L81.0585 69.4597L81.0604 69.466L82.0156 69.1699ZM89.359 54.4239L89.0743 53.4653L89.0743 53.4653L89.359 54.4239ZM100.543 56.8284L101.197 56.0715L100.543 56.8284ZM101.108 73.2336L100.37 72.5587L101.108 73.2336ZM96.1917 76.3089L96.4702 77.2694L96.4754 77.2679L96.1917 76.3089ZM94.4818 72.4636L94.2033 71.5031L94.1928 71.5063L94.4818 72.4636ZM97.4751 70.5296L96.7306 69.8621L97.4751 70.5296ZM99.221 62.5994L98.2624 62.8846L98.2655 62.8944L99.221 62.5994ZM90.9517 58.244L90.6627 57.2866L90.6519 57.29L90.9517 58.244ZM88.1147 60.2117L88.8769 60.8592L88.8832 60.8515L88.1147 60.2117ZM87.0048 69.7515L86.1425 70.258L86.1479 70.2671L86.1535 70.2762L87.0048 69.7515ZM90.4763 75.4893C88.5949 75.0849 87.0129 74.3049 85.7049 73.1603L84.3879 74.6654C85.9725 76.052 87.8703 76.9748 90.056 77.4447L90.4763 75.4893ZM85.7139 73.1683C84.4096 71.9988 83.4977 70.5735 82.9707 68.8737L81.0604 69.466C81.6932 71.5068 82.8018 73.2435 84.3788 74.6574L85.7139 73.1683ZM82.9727 68.88C82.4543 67.168 82.4006 65.2859 82.8465 63.2114L80.8912 62.791C80.3844 65.1486 80.4285 67.3789 81.0585 69.4597L82.9727 68.88ZM82.8465 63.2114C83.2855 61.1697 84.1145 59.4943 85.3142 58.1517L83.8229 56.8191C82.3646 58.451 81.3939 60.4528 80.8912 62.791L82.8465 63.2114ZM85.3142 58.1517C86.5229 56.7991 87.9615 55.8821 89.6437 55.3825L89.0743 53.4653C87.0271 54.0733 85.2721 55.1973 83.8229 56.8191L85.3142 58.1517ZM89.6437 55.3826C91.3345 54.8804 93.1257 54.8246 95.0353 55.2351L95.4557 53.2798C93.2461 52.8048 91.113 52.8599 89.0743 53.4653L89.6437 55.3826ZM95.0353 55.2351C96.945 55.6457 98.5549 56.4327 99.89 57.5854L101.197 56.0715C99.5873 54.6818 97.6653 53.7548 95.4557 53.2798L95.0353 55.2351ZM99.89 57.5854C101.218 58.7322 102.153 60.1594 102.699 61.8892L104.606 61.2873C103.951 59.2131 102.813 57.4671 101.197 56.0715L99.89 57.5854ZM102.699 61.8892C103.241 63.6062 103.308 65.4743 102.869 67.516L104.824 67.9364C105.327 65.5981 105.265 63.3743 104.606 61.2873L102.699 61.8892ZM102.869 67.516C102.431 69.5531 101.592 71.2226 100.37 72.5587L101.846 73.9084C103.334 72.2812 104.321 70.2792 104.824 67.9364L102.869 67.516ZM100.37 72.5587C99.1376 73.9063 97.6558 74.8331 95.9081 75.35L96.4754 77.2679C98.5726 76.6476 100.368 75.5241 101.846 73.9084L100.37 72.5587ZM95.9133 75.3485C94.1925 75.8474 92.3858 75.8999 90.4763 75.4893L90.056 77.4447C92.2657 77.9197 94.4094 77.8669 96.4702 77.2694L95.9133 75.3485ZM90.8883 73.5731C92.1985 73.8548 93.4981 73.8051 94.7707 73.421L94.1928 71.5063C93.2487 71.7912 92.2927 71.8294 91.3087 71.6178L90.8883 73.5731ZM94.7602 73.4241C96.0908 73.0383 97.2456 72.2836 98.2197 71.1971L96.7306 69.8621C95.9825 70.6965 95.1417 71.2311 94.2033 71.5032L94.7602 73.4241ZM98.2197 71.1971C99.2218 70.0794 99.8847 68.6466 100.249 66.9527L98.2936 66.5323C97.9852 67.9669 97.4507 69.0588 96.7306 69.8621L98.2197 71.1971ZM100.249 66.9527C100.611 65.2662 100.609 63.7051 100.176 62.3044L98.2655 62.8944C98.5726 63.8893 98.6036 65.0903 98.2936 66.5323L100.249 66.9527ZM100.179 62.3142C99.7669 60.9279 99.0524 59.7664 98.022 58.8688L96.7083 60.3769C97.4238 61.0002 97.9466 61.8231 98.2625 62.8846L100.179 62.3142ZM98.022 58.8688C97.0196 57.9956 95.8553 57.4162 94.5451 57.1345L94.1248 59.0899C95.1088 59.3014 95.9646 59.7291 96.7083 60.3769L98.022 58.8688ZM94.5451 57.1345C93.2349 56.8528 91.9354 56.9026 90.6628 57.2867L91.2406 59.2014C92.1848 58.9164 93.1407 58.8783 94.1248 59.0899L94.5451 57.1345ZM90.6519 57.29C89.3659 57.6941 88.2635 58.4701 87.3462 59.5719L88.8832 60.8515C89.5839 60.0099 90.3728 59.4741 91.2515 59.198L90.6519 57.29ZM87.3526 59.5642C86.4159 60.6667 85.7888 62.0861 85.4276 63.7663L87.3829 64.1867C87.6943 62.7383 88.2068 61.6478 88.8768 60.8591L87.3526 59.5642ZM85.4276 63.7663C84.8942 66.2472 85.0793 68.448 86.1425 70.258L87.867 69.245C87.1332 67.9956 86.9186 66.3463 87.3829 64.1867L85.4276 63.7663ZM86.1535 70.2762C87.2327 72.0272 88.8342 73.1315 90.8883 73.5731L91.3087 71.6178C89.7649 71.2859 88.6373 70.4943 87.8561 69.2268L86.1535 70.2762Z" fill="#1E4364"/>
<path d="M150.022 50.9769L141.568 79.444L136.302 79.8164L123.887 52.8248L128.755 52.4806L138.605 74.9619L145.234 51.3155L150.022 50.9769Z" fill="#1E4364"/>
<path d="M150.022 50.9769L150.98 51.2616L151.391 49.8776L149.951 49.9794L150.022 50.9769ZM141.568 79.444L141.639 80.4415L142.33 80.3927L142.527 79.7287L141.568 79.444ZM136.302 79.8164L135.393 80.2343L135.682 80.8627L136.372 80.8139L136.302 79.8164ZM123.887 52.8248L123.816 51.8273L122.374 51.9293L122.979 53.2427L123.887 52.8248ZM128.755 52.4806L129.671 52.0793L129.388 51.4334L128.684 51.4831L128.755 52.4806ZM138.605 74.9619L137.689 75.3632L138.812 77.9269L139.568 75.2318L138.605 74.9619ZM145.234 51.3155L145.163 50.318L144.461 50.3676L144.271 51.0455L145.234 51.3155ZM149.063 50.6923L140.61 79.1594L142.527 79.7287L150.98 51.2616L149.063 50.6923ZM141.498 78.4465L136.231 78.8189L136.372 80.8139L141.639 80.4415L141.498 78.4465ZM137.21 79.3986L124.796 52.4069L122.979 53.2427L135.393 80.2343L137.21 79.3986ZM123.958 53.8223L128.825 53.4781L128.684 51.4831L123.816 51.8273L123.958 53.8223ZM127.839 52.8819L137.689 75.3632L139.521 74.5606L129.671 52.0793L127.839 52.8819ZM139.568 75.2318L146.197 51.5854L144.271 51.0455L137.642 74.692L139.568 75.2318ZM145.304 52.313L150.092 51.9744L149.951 49.9794L145.163 50.318L145.304 52.313Z" fill="#1E4364"/>
<path d="M156.929 66.602C156.35 64.4657 156.275 62.4554 156.703 60.571C157.158 58.6795 158.022 57.0776 159.296 55.7652C160.59 54.42 162.163 53.4963 164.016 52.9939C165.689 52.5405 167.234 52.4809 168.65 52.8152C170.086 53.1168 171.31 53.6554 172.321 54.4311L171.484 51.3426L175.924 50.1391L181.69 71.4114L177.25 72.6149L176.392 69.4492C175.918 70.6553 175.128 71.7673 174.022 72.7853C172.917 73.8034 171.54 74.5356 169.893 74.9821C168.066 75.4775 166.267 75.4677 164.498 74.9527C162.721 74.4121 161.155 73.4273 159.801 71.9986C158.466 70.5371 157.508 68.7382 156.929 66.602ZM174.362 61.9595C173.964 60.4924 173.31 59.3021 172.399 58.3885C171.514 57.468 170.506 56.8572 169.374 56.5561C168.243 56.255 167.111 56.2579 165.978 56.5649C164.846 56.8718 163.867 57.441 163.043 58.2723C162.211 59.0779 161.633 60.105 161.309 61.3534C161.003 62.5691 161.048 63.9105 161.446 65.3776C161.844 66.8446 162.489 68.0513 163.381 68.9975C164.298 69.9368 165.326 70.5699 166.465 70.8968C167.622 71.1909 168.754 71.188 169.861 70.888C170.993 70.581 171.972 70.0118 172.796 69.1805C173.621 68.3491 174.183 67.3127 174.482 66.0713C174.799 64.7971 174.759 63.4265 174.362 61.9595Z" fill="#1E4364"/>
<path d="M156.703 60.571L155.731 60.3374L155.728 60.3492L156.703 60.571ZM159.296 55.7652L160.014 56.4618L160.017 56.4582L159.296 55.7652ZM168.65 52.8152L168.421 53.7884L168.433 53.7913L168.445 53.7938L168.65 52.8152ZM172.321 54.4311L171.713 55.2247L174.06 57.0251L173.286 54.1695L172.321 54.4311ZM171.484 51.3426L171.222 50.3774L170.257 50.639L170.519 51.6042L171.484 51.3426ZM175.924 50.1391L176.889 49.8775L176.627 48.9123L175.662 49.1739L175.924 50.1391ZM181.69 71.4114L181.951 72.3766L182.917 72.115L182.655 71.1498L181.69 71.4114ZM177.25 72.6149L176.285 72.8765L176.547 73.8417L177.512 73.5801L177.25 72.6149ZM176.392 69.4492L177.357 69.1875L176.567 66.2721L175.461 69.0832L176.392 69.4492ZM174.022 72.7853L173.345 72.0497L173.345 72.0497L174.022 72.7853ZM164.498 74.9527L164.206 75.9095L164.218 75.9129L164.498 74.9527ZM159.801 71.9986L159.063 72.6731L159.069 72.6799L159.075 72.6865L159.801 71.9986ZM172.399 58.3885L171.678 59.0816L171.685 59.0881L171.691 59.0946L172.399 58.3885ZM169.374 56.5561L169.117 57.5224L169.374 56.5561ZM163.043 58.2723L163.739 58.9905L163.746 58.9836L163.753 58.9765L163.043 58.2723ZM161.309 61.3534L160.341 61.1017L160.339 61.1094L161.309 61.3534ZM163.381 68.9975L162.653 69.6835L162.659 69.69L162.665 69.6964L163.381 68.9975ZM166.465 70.8968L166.189 71.8579L166.204 71.8622L166.219 71.8659L166.465 70.8968ZM172.796 69.1805L173.506 69.8847L172.796 69.1805ZM174.482 66.0713L173.511 65.8293L173.509 65.8372L174.482 66.0713ZM157.894 66.3403C157.352 64.3389 157.291 62.4958 157.679 60.7927L155.728 60.3492C155.258 62.415 155.348 64.5926 155.964 66.8636L157.894 66.3403ZM157.676 60.8045C158.091 59.076 158.872 57.6373 160.014 56.4618L158.579 55.0686C157.172 56.5179 156.225 58.283 155.731 60.3374L157.676 60.8045ZM160.017 56.4582C161.181 55.2476 162.594 54.4155 164.277 53.9591L163.754 52.0288C161.731 52.5771 159.998 53.5924 158.575 55.0721L160.017 56.4582ZM164.277 53.9591C165.82 53.5409 167.194 53.499 168.421 53.7884L168.88 51.8419C167.273 51.4627 165.557 51.5401 163.754 52.0288L164.277 53.9591ZM168.445 53.7938C169.756 54.0693 170.836 54.5528 171.713 55.2247L172.93 53.6376C171.783 52.758 170.416 52.1643 168.856 51.8365L168.445 53.7938ZM173.286 54.1695L172.449 51.081L170.519 51.6042L171.356 54.6928L173.286 54.1695ZM171.745 52.3078L176.185 51.1043L175.662 49.1739L171.222 50.3774L171.745 52.3078ZM174.958 50.4007L180.725 71.6731L182.655 71.1498L176.889 49.8775L174.958 50.4007ZM181.428 70.4463L176.988 71.6498L177.512 73.5801L181.951 72.3766L181.428 70.4463ZM178.215 72.3533L177.357 69.1875L175.427 69.7108L176.285 72.8765L178.215 72.3533ZM175.461 69.0832C175.051 70.1277 174.357 71.1179 173.345 72.0497L174.7 73.521C175.899 72.4168 176.785 71.1828 177.323 69.8151L175.461 69.0832ZM173.345 72.0497C172.373 72.945 171.145 73.6067 169.632 74.017L170.155 75.9473C171.936 75.4645 173.461 74.6617 174.7 73.521L173.345 72.0497ZM169.632 74.017C167.976 74.4656 166.365 74.4547 164.777 73.9926L164.218 75.9129C166.169 76.4807 168.155 76.4893 170.155 75.9473L169.632 74.017ZM164.789 73.9961C163.188 73.5089 161.769 72.6215 160.527 71.3106L159.075 72.6865C160.541 74.2332 162.254 75.3153 164.206 75.9094L164.789 73.9961ZM160.539 71.324C159.323 69.9934 158.437 68.3412 157.894 66.3403L155.964 66.8636C156.58 69.1352 157.608 71.0808 159.063 72.6731L160.539 71.324ZM175.327 61.6978C174.892 60.0929 174.161 58.7397 173.107 57.6825L171.691 59.0946C172.458 59.8645 173.036 60.8919 173.397 62.2211L175.327 61.6978ZM173.12 57.6955C172.12 56.6555 170.956 55.942 169.632 55.5897L169.117 57.5224C170.056 57.7723 170.908 58.2805 171.678 59.0816L173.12 57.6955ZM169.632 55.5897C168.33 55.2432 167.019 55.2468 165.717 55.5997L166.24 57.53C167.203 57.269 168.156 57.2667 169.117 57.5224L169.632 55.5897ZM165.717 55.5997C164.415 55.9526 163.282 56.6116 162.333 57.5681L163.753 58.9765C164.453 58.2704 165.277 57.7911 166.24 57.53L165.717 55.5997ZM162.347 57.5541C161.369 58.5015 160.706 59.6966 160.341 61.1017L162.276 61.6051C162.56 60.5133 163.054 59.6543 163.739 58.9905L162.347 57.5541ZM160.339 61.1094C159.983 62.5232 160.048 64.0417 160.481 65.6392L162.411 65.1159C162.049 63.7793 162.022 62.6151 162.278 61.5974L160.339 61.1094ZM160.481 65.6392C160.914 67.2382 161.63 68.5987 162.653 69.6835L164.108 68.3116C163.347 67.5038 162.773 66.4511 162.411 65.1159L160.481 65.6392ZM162.665 69.6964C163.691 70.7459 164.866 71.4782 166.189 71.8579L166.741 69.9356C165.787 69.6616 164.906 69.1277 164.096 68.2987L162.665 69.6964ZM166.219 71.8659C167.535 72.2007 168.843 72.2001 170.123 71.8531L169.599 69.9228C168.666 70.1759 167.709 70.1811 166.711 69.9276L166.219 71.8659ZM170.123 71.8531C171.424 71.5002 172.558 70.8412 173.506 69.8847L172.086 68.4763C171.386 69.1824 170.562 69.6618 169.599 69.9228L170.123 71.8531ZM173.506 69.8847C174.471 68.9119 175.116 67.7079 175.454 66.3054L173.509 65.8372C173.249 66.9176 172.771 67.7864 172.086 68.4763L173.506 69.8847ZM175.452 66.3132C175.817 64.8491 175.762 63.3034 175.327 61.6978L173.397 62.2211C173.757 63.5496 173.782 64.7452 173.511 65.8294L175.452 66.3132Z" fill="#1E4364"/>
<path d="M185.421 37.8959L197.188 65.0566L193.004 66.8693L181.237 39.7087L185.421 37.8959Z" fill="#1E4364"/>
<path d="M185.421 37.8959L186.339 37.4984L185.941 36.5808L185.024 36.9784L185.421 37.8959ZM197.188 65.0566L197.586 65.9742L198.503 65.5766L198.106 64.6591L197.188 65.0566ZM193.004 66.8693L192.086 67.2669L192.484 68.1844L193.401 67.7869L193.004 66.8693ZM181.237 39.7087L180.839 38.7911L179.922 39.1886L180.319 40.1062L181.237 39.7087ZM184.504 38.2935L196.27 65.4541L198.106 64.6591L186.339 37.4984L184.504 38.2935ZM196.791 64.139L192.606 65.9517L193.401 67.7869L197.586 65.9742L196.791 64.139ZM193.921 66.4718L182.155 39.3112L180.319 40.1062L192.086 67.2669L193.921 66.4718ZM181.634 40.6263L185.819 38.8135L185.024 36.9784L180.839 38.7911L181.634 40.6263Z" fill="#1E4364"/>
<path d="M216.206 55.4844C214.43 56.5664 212.582 57.1458 210.661 57.2225C208.727 57.2765 206.906 56.8244 205.198 55.8662C203.477 54.8852 202.027 53.4268 200.848 51.4909C199.682 49.5778 199.07 47.6245 199.011 45.6309C198.952 43.6373 199.409 41.798 200.381 40.1131C201.353 38.4282 202.739 37.0379 204.538 35.942C206.337 34.8462 208.208 34.2529 210.151 34.1623C212.094 34.0716 213.938 34.5099 215.682 35.477C217.427 36.4441 218.882 37.8842 220.047 39.7973C221.212 41.7104 221.813 43.6707 221.849 45.6782C221.885 47.6857 221.401 49.5571 220.397 51.2925C219.403 52.9913 218.006 54.3886 216.206 55.4844ZM214.146 52.1024C215.149 51.492 215.937 50.6841 216.511 49.6788C217.108 48.6595 217.388 47.5051 217.352 46.2157C217.316 44.9262 216.882 43.5983 216.05 42.2318C215.217 40.8653 214.255 39.8747 213.163 39.2599C212.056 38.6224 210.924 38.3281 209.768 38.3769C208.611 38.4258 207.532 38.7554 206.529 39.3657C205.527 39.9761 204.739 40.7839 204.165 41.7893C203.614 42.7808 203.379 43.9074 203.46 45.1691C203.528 46.4081 203.978 47.7108 204.81 49.0773C206.045 51.1043 207.514 52.3636 209.219 52.8554C210.933 53.3105 212.575 53.0595 214.146 52.1024Z" fill="#1E4364"/>
<path d="M210.661 57.2225L210.689 58.2222L210.701 58.2217L210.661 57.2225ZM205.198 55.8662L204.703 56.7351L204.709 56.7383L205.198 55.8662ZM200.381 40.1131L199.515 39.6134L199.515 39.6134L200.381 40.1131ZM210.151 34.1623L210.105 33.1634L210.151 34.1623ZM221.849 45.6782L220.849 45.6962L221.849 45.6782ZM220.397 51.2925L221.26 51.7979L221.263 51.7932L220.397 51.2925ZM216.511 49.6788L215.648 49.1734L215.642 49.1829L216.511 49.6788ZM217.352 46.2157L216.353 46.2436L217.352 46.2157ZM213.163 39.2599L212.663 40.1264L212.672 40.1314L213.163 39.2599ZM204.165 41.7893L203.297 41.2934L203.291 41.3033L204.165 41.7893ZM203.46 45.1691L204.459 45.1146L204.458 45.1046L203.46 45.1691ZM209.219 52.8554L208.942 53.8162L208.952 53.8191L208.962 53.8219L209.219 52.8554ZM215.686 54.6304C214.043 55.6314 212.358 56.1539 210.621 56.2233L210.701 58.2217C212.805 58.1376 214.817 57.5014 216.727 56.3385L215.686 54.6304ZM210.633 56.2229C208.882 56.2718 207.24 55.865 205.688 54.9941L204.709 56.7383C206.572 57.7839 208.572 58.2813 210.689 58.2222L210.633 56.2229ZM205.694 54.9974C204.139 54.1117 202.805 52.7829 201.702 50.9707L199.993 52.0111C201.248 54.0706 202.814 55.6587 204.703 56.7351L205.694 54.9974ZM201.702 50.9707C200.615 49.1872 200.064 47.401 200.011 45.6013L198.012 45.6604C198.076 47.848 198.749 49.9685 199.993 52.0111L201.702 50.9707ZM200.011 45.6013C199.957 43.7881 200.37 42.1329 201.247 40.6129L199.515 39.6134C198.448 41.4632 197.947 43.4864 198.012 45.6604L200.011 45.6013ZM201.247 40.6129C202.129 39.0851 203.39 37.8121 205.058 36.7961L204.018 35.088C202.088 36.2636 200.578 37.7713 199.515 39.6134L201.247 40.6129ZM205.058 36.7961C206.726 35.78 208.436 35.2434 210.198 35.1612L210.105 33.1634C207.98 33.2625 205.948 33.9123 204.018 35.088L205.058 36.7961ZM210.198 35.1612C211.951 35.0794 213.611 35.472 215.198 36.3516L216.167 34.6024C214.265 33.5478 212.238 33.0639 210.105 33.1634L210.198 35.1612ZM215.198 36.3516C216.772 37.2246 218.106 38.534 219.193 40.3175L220.901 39.2772C219.657 37.2345 218.081 35.6636 216.167 34.6024L215.198 36.3516ZM219.193 40.3175C220.277 42.097 220.816 43.886 220.849 45.6962L222.849 45.6602C222.809 43.4554 222.147 41.3238 220.901 39.2772L219.193 40.3175ZM220.849 45.6962C220.882 47.5221 220.444 49.2142 219.532 50.7918L221.263 51.7932C222.358 49.9001 222.888 47.8492 222.849 45.6602L220.849 45.6962ZM219.535 50.7872C218.629 52.3332 217.354 53.6144 215.686 54.6304L216.727 56.3385C218.657 55.1628 220.176 53.6494 221.26 51.7979L219.535 50.7872ZM214.667 52.9564C215.811 52.2593 216.72 51.329 217.379 50.1747L215.642 49.1829C215.153 50.0393 214.486 50.7247 213.626 51.2483L214.667 52.9564ZM217.374 50.1841C218.074 48.9886 218.393 47.6464 218.352 46.1878L216.353 46.2436C216.384 47.3639 216.142 48.3304 215.648 49.1734L217.374 50.1841ZM218.352 46.1878C218.31 44.6872 217.805 43.1914 216.904 41.7116L215.196 42.7519C215.959 44.0052 216.322 45.1653 216.353 46.2436L218.352 46.1878ZM216.904 41.7116C216.007 40.2383 214.931 39.1073 213.653 38.3884L212.672 40.1314C213.58 40.642 214.428 41.4922 215.196 42.7519L216.904 41.7116ZM213.662 38.3935C212.409 37.6714 211.091 37.3202 209.726 37.3778L209.81 39.376C210.758 39.336 211.704 39.5734 212.663 40.1264L213.662 38.3935ZM209.726 37.3778C208.397 37.4339 207.154 37.8145 206.009 38.5117L207.05 40.2198C207.909 39.6962 208.825 39.4176 209.81 39.376L209.726 37.3778ZM206.009 38.5117C204.865 39.2088 203.956 40.139 203.297 41.2934L205.034 42.2852C205.523 41.4288 206.19 40.7433 207.05 40.2198L206.009 38.5117ZM203.291 41.3033C202.636 42.4814 202.37 43.803 202.462 45.2336L204.458 45.1046C204.388 44.0119 204.591 43.0802 205.039 42.2753L203.291 41.3033ZM202.462 45.2237C202.541 46.6682 203.062 48.1297 203.956 49.5975L205.664 48.5571C204.894 47.2919 204.515 46.1479 204.459 45.1146L202.462 45.2237ZM203.956 49.5975C205.276 51.7648 206.925 53.2343 208.942 53.8162L209.496 51.8946C208.104 51.4929 206.813 50.4438 205.664 48.5571L203.956 49.5975ZM208.962 53.8219C210.95 54.3499 212.872 54.0493 214.667 52.9564L213.626 51.2483C212.278 52.0697 210.915 52.2711 209.476 51.8889L208.962 53.8219Z" fill="#1E4364"/>
<path d="M225.254 25.4767C225.043 24.1906 225.158 22.9608 225.599 21.7873C226.043 20.5763 226.846 19.4812 228.009 18.502L231.05 22.112L230.162 22.8593C228.796 24.0103 228.048 25.2332 227.918 26.5279C227.809 27.8055 228.475 29.3009 229.919 31.0141L237.391 39.8863L233.904 42.8239L219.705 25.9668L223.193 23.0292L225.254 25.4767Z" fill="#1E4364"/>
<path d="M225.254 25.4767L224.49 26.1209L226.831 28.9012L226.241 25.3143L225.254 25.4767ZM225.599 21.7873L226.535 22.1392L226.537 22.1318L225.599 21.7873ZM228.009 18.502L228.774 17.8578L228.13 17.0929L227.365 17.7371L228.009 18.502ZM231.05 22.112L231.694 22.8769L232.459 22.2327L231.814 21.4678L231.05 22.112ZM227.918 26.5279L226.923 26.4282L226.922 26.4354L226.922 26.4426L227.918 26.5279ZM237.391 39.8863L238.036 40.6511L238.801 40.0069L238.156 39.2421L237.391 39.8863ZM233.904 42.8239L233.139 43.4681L233.783 44.233L234.548 43.5888L233.904 42.8239ZM219.705 25.9668L219.061 25.202L218.296 25.8462L218.94 26.611L219.705 25.9668ZM223.193 23.0292L223.958 22.3849L223.314 21.6201L222.549 22.2643L223.193 23.0292ZM226.241 25.3143C226.057 24.1939 226.158 23.142 226.535 22.1392L224.663 21.4355C224.157 22.7796 224.029 24.1872 224.268 25.639L226.241 25.3143ZM226.537 22.1318C226.912 21.1111 227.6 20.154 228.653 19.2668L227.365 17.7371C226.093 18.8084 225.174 20.0415 224.66 21.4429L226.537 22.1318ZM227.244 19.1462L230.285 22.7563L231.814 21.4678L228.774 17.8578L227.244 19.1462ZM230.405 21.3472L229.518 22.0945L230.807 23.6242L231.694 22.8769L230.405 21.3472ZM229.518 22.0945C228.028 23.3495 227.087 24.7906 226.923 26.4282L228.913 26.6276C229.008 25.6758 229.564 24.6712 230.807 23.6242L229.518 22.0945ZM226.922 26.4426C226.778 28.1236 227.658 29.8825 229.154 31.6583L230.683 30.3699C229.293 28.7192 228.84 27.4874 228.914 26.6132L226.922 26.4426ZM229.154 31.6583L236.627 40.5305L238.156 39.2421L230.683 30.3699L229.154 31.6583ZM236.747 39.1214L233.26 42.0591L234.548 43.5888L238.036 40.6511L236.747 39.1214ZM234.669 42.1797L220.47 25.3226L218.94 26.611L233.139 43.4681L234.669 42.1797ZM220.349 26.7316L223.837 23.794L222.549 22.2643L219.061 25.202L220.349 26.7316ZM222.428 23.6734L224.49 26.1209L226.019 24.8324L223.958 22.3849L222.428 23.6734Z" fill="#1E4364"/>
</svg>
