<svg width="203" height="86" viewBox="0 0 203 86" fill="none" xmlns="http://www.w3.org/2000/svg">
<path d="M31.6709 41.9752C30.8859 43.053 29.8786 43.8698 28.6489 44.4257C27.4408 44.9973 26.0839 45.2297 24.5782 45.1227C23.0941 45.0314 21.6045 44.5402 20.1092 43.6491L18.2016 46.268L16.1 44.7372L18.0076 42.1183C16.1227 40.4485 14.9477 38.6194 14.4825 36.6311C14.0173 34.6427 14.4284 32.7648 15.7158 30.9973L19.6604 33.8704C19.1127 34.7581 18.8719 35.6549 18.9379 36.5607C19.0196 37.445 19.4474 38.2845 20.2213 39.079L25.4023 31.9659C24.225 30.5475 23.3172 29.3255 22.6788 28.2996C22.0561 27.2522 21.7197 26.0835 21.6696 24.7934C21.6411 23.519 22.145 22.1705 23.1812 20.7479C24.4843 18.9588 26.1849 17.9376 28.2829 17.6842C30.3965 17.4093 32.5371 17.9127 34.7046 19.1945L36.6122 16.5756L38.7138 18.1064L36.8062 20.7253C38.5775 22.2793 39.6575 23.9897 40.0463 25.8565C40.4724 27.7174 40.1093 29.5973 38.9571 31.4963L35.0125 28.6232C35.4345 27.9079 35.6076 27.1267 35.5318 26.2797C35.4716 25.4111 35.135 24.6051 34.5219 23.8616L29.435 30.8454C30.628 32.2422 31.5359 33.4643 32.1586 34.5116C32.797 35.5375 33.1304 36.6876 33.1589 37.962C33.2031 39.2148 32.7071 40.5526 31.6709 41.9752ZM27.0731 23.2857C26.4294 24.1694 26.1856 25.0476 26.3418 25.9202C26.5196 26.8084 26.9836 27.7567 27.7338 28.765L32.4909 22.2338C31.4855 21.6665 30.4985 21.4589 29.5299 21.6112C28.5828 21.7791 27.7639 22.3373 27.0731 23.2857ZM22.3229 40.6098C23.3812 41.1497 24.3996 41.3142 25.3781 41.1031C26.3723 40.8705 27.1834 40.3231 27.8114 39.4609C28.4394 38.5987 28.6566 37.7343 28.4632 36.8676C28.3069 35.995 27.8537 35.0546 27.1036 34.0463L22.3229 40.6098Z" fill="#1E4364"/>
<path d="M28.6489 44.4257L28.2369 43.5145L28.229 43.5181L28.2212 43.5218L28.6489 44.4257ZM24.5782 45.1227L24.6491 44.1252L24.6396 44.1246L24.5782 45.1227ZM20.1092 43.6491L20.6211 42.7901L19.8378 42.3232L19.3009 43.0603L20.1092 43.6491ZM18.2016 46.268L17.6129 47.0763L18.4212 47.6651L19.0099 46.8567L18.2016 46.268ZM16.1 44.7372L15.2917 44.1485L14.7029 44.9568L15.5113 45.5455L16.1 44.7372ZM18.0076 42.1183L18.8159 42.7071L19.351 41.9724L18.6707 41.3698L18.0076 42.1183ZM14.4825 36.6311L13.5088 36.8589L14.4825 36.6311ZM15.7158 30.9973L16.3046 30.189L15.4963 29.6002L14.9075 30.4085L15.7158 30.9973ZM19.6604 33.8704L20.5115 34.3954L20.9977 33.6073L20.2491 33.0621L19.6604 33.8704ZM18.9379 36.5607L17.9406 36.6334L17.9413 36.6431L17.9422 36.6528L18.9379 36.5607ZM20.2213 39.079L19.5049 39.7767L20.3318 40.6258L21.0296 39.6678L20.2213 39.079ZM25.4023 31.9659L26.2106 32.5546L26.6686 31.9258L26.1718 31.3272L25.4023 31.9659ZM22.6788 28.2996L21.8192 28.8107L21.8244 28.8194L21.8298 28.828L22.6788 28.2996ZM21.6696 24.7934L20.6699 24.8157L20.6701 24.824L20.6704 24.8322L21.6696 24.7934ZM28.2829 17.6842L28.4028 18.677L28.4118 18.6759L28.2829 17.6842ZM34.7046 19.1945L34.1956 20.0553L34.9778 20.5179L35.5129 19.7833L34.7046 19.1945ZM36.6122 16.5756L37.2009 15.7673L36.3926 15.1785L35.8039 15.9869L36.6122 16.5756ZM38.7138 18.1064L39.5221 18.6951L40.1108 17.8868L39.3025 17.2981L38.7138 18.1064ZM36.8062 20.7253L35.9979 20.1365L35.4602 20.8747L36.1467 21.477L36.8062 20.7253ZM40.0463 25.8565L39.0673 26.0604L39.0693 26.0701L39.0715 26.0797L40.0463 25.8565ZM38.9571 31.4963L38.3683 32.3046L39.2477 32.9451L39.812 32.015L38.9571 31.4963ZM35.0125 28.6232L34.1512 28.115L33.6899 28.8969L34.4237 29.4315L35.0125 28.6232ZM35.5318 26.2797L34.5342 26.3488L34.5349 26.3588L34.5358 26.3689L35.5318 26.2797ZM34.5219 23.8616L35.2934 23.2253L34.4728 22.2303L33.7135 23.2728L34.5219 23.8616ZM29.435 30.8454L28.6267 30.2566L28.162 30.8946L28.6746 31.4948L29.435 30.8454ZM32.1586 34.5117L31.299 35.0227L31.3042 35.0314L31.3096 35.04L32.1586 34.5117ZM33.1589 37.962L32.1591 37.9844L32.1595 37.9972L33.1589 37.962ZM26.3418 25.9202L25.3575 26.0964L25.3593 26.1064L25.3613 26.1164L26.3418 25.9202ZM27.7338 28.765L26.9315 29.3619L27.7423 30.4517L28.5421 29.3537L27.7338 28.765ZM32.4909 22.2338L33.2992 22.8226L33.9604 21.9148L32.9823 21.3629L32.4909 22.2338ZM29.5299 21.6111L29.3746 20.6233L29.365 20.6248L29.3553 20.6265L29.5299 21.6111ZM22.3229 40.6098L21.5146 40.021L20.8248 40.9681L21.8685 41.5006L22.3229 40.6098ZM25.3781 41.1031L25.5889 42.0806L25.5974 42.0788L25.6059 42.0768L25.3781 41.1031ZM28.4632 36.8676L27.4788 37.0438L27.4826 37.0647L27.4872 37.0854L28.4632 36.8676ZM27.1036 34.0463L27.9059 33.4494L27.095 32.3595L26.2953 33.4575L27.1036 34.0463ZM30.8626 41.3864C30.1808 42.3224 29.3108 43.029 28.2369 43.5145L29.0608 45.3369C30.4463 44.7106 31.591 43.7835 32.4792 42.564L30.8626 41.3864ZM28.2212 43.5218C27.1877 44.0108 26.0058 44.2216 24.6491 44.1252L24.5074 46.1202C26.1619 46.2377 27.6938 45.9839 29.0766 45.3296L28.2212 43.5218ZM24.6396 44.1246C23.3398 44.0447 22.0028 43.6135 20.6211 42.7901L19.5972 44.5081C21.2061 45.4669 22.8485 46.0182 24.5169 46.1208L24.6396 44.1246ZM19.3009 43.0603L17.3933 45.6792L19.0099 46.8567L20.9175 44.2378L19.3009 43.0603ZM18.7904 45.4597L16.6888 43.9289L15.5113 45.5455L17.6129 47.0763L18.7904 45.4597ZM16.9083 45.326L18.8159 42.7071L17.1993 41.5296L15.2917 44.1485L16.9083 45.326ZM18.6707 41.3698C16.9042 39.8048 15.8642 38.1472 15.4562 36.4033L13.5088 36.8589C14.0311 39.0916 15.3412 41.0922 17.3445 42.8668L18.6707 41.3698ZM15.4562 36.4033C15.0624 34.7202 15.3942 33.1373 16.5241 31.586L14.9075 30.4085C13.4626 32.3923 12.9722 34.5652 13.5088 36.8589L15.4562 36.4033ZM15.1271 31.8056L19.0716 34.6787L20.2491 33.0621L16.3046 30.189L15.1271 31.8056ZM18.8093 33.3454C18.1683 34.3844 17.8571 35.4878 17.9406 36.6334L19.9353 36.4881C19.8868 35.822 20.0572 35.1318 20.5115 34.3954L18.8093 33.3454ZM17.9422 36.6528C18.0498 37.817 18.6121 38.86 19.5049 39.7767L20.9377 38.3813C20.2828 37.7089 19.9895 37.073 19.9337 36.4687L17.9422 36.6528ZM21.0296 39.6678L26.2106 32.5546L24.594 31.3771L19.413 38.4903L21.0296 39.6678ZM26.1718 31.3272C25.0101 29.9277 24.1332 28.7441 23.5278 27.7713L21.8298 28.828C22.5011 29.9068 23.4399 31.1674 24.6328 32.6046L26.1718 31.3272ZM23.5383 27.7886C23.0059 26.8931 22.7129 25.8884 22.6689 24.7546L20.6704 24.8322C20.7265 26.2786 21.1062 27.6114 21.8192 28.8107L23.5383 27.7886ZM22.6694 24.771C22.6474 23.7857 23.0341 22.6483 23.9895 21.3366L22.3729 20.1591C21.2559 21.6926 20.6349 23.2523 20.6699 24.8157L22.6694 24.771ZM23.9895 21.3366C25.1379 19.76 26.5947 18.8953 28.4027 18.677L28.163 16.6914C25.775 16.9798 23.8307 18.1576 22.3729 20.1591L23.9895 21.3366ZM28.4118 18.6759C30.2658 18.4347 32.184 18.8657 34.1956 20.0553L35.2136 18.3338C32.8903 16.9598 30.5273 16.3839 28.1539 16.6926L28.4118 18.6759ZM35.5129 19.7833L37.4205 17.1644L35.8039 15.9869L33.8963 18.6058L35.5129 19.7833ZM36.0234 17.3839L38.125 18.9147L39.3025 17.2981L37.2009 15.7673L36.0234 17.3839ZM37.9055 17.5176L35.9979 20.1365L37.6145 21.3141L39.5221 18.6951L37.9055 17.5176ZM36.1467 21.477C37.794 22.9223 38.7323 24.452 39.0673 26.0604L41.0253 25.6526C40.5827 23.5275 39.3609 21.6364 37.4657 19.9736L36.1467 21.477ZM39.0715 26.0797C39.4301 27.6457 39.1432 29.2618 38.1021 30.9775L39.812 32.015C41.0754 29.9328 41.5146 27.789 41.0211 25.6333L39.0715 26.0797ZM39.5458 30.688L35.6013 27.8148L34.4237 29.4315L38.3683 32.3046L39.5458 30.688ZM35.8738 29.1313C36.4048 28.2313 36.6218 27.2405 36.5278 26.1905L34.5358 26.3689C34.5934 27.0129 34.4643 27.5844 34.1512 28.115L35.8738 29.1313ZM36.5294 26.2106C36.4533 25.1119 36.0243 24.1117 35.2934 23.2253L33.7504 24.4978C34.2457 25.0984 34.4899 25.7103 34.5342 26.3488L36.5294 26.2106ZM33.7135 23.2728L28.6267 30.2566L30.2433 31.4341L35.3302 24.4503L33.7135 23.2728ZM28.6746 31.4948C29.8472 32.8678 30.716 34.042 31.299 35.0227L33.0181 34.0006C32.3557 32.8865 31.4088 31.6166 30.1954 30.1959L28.6746 31.4948ZM31.3096 35.04C31.848 35.9053 32.1345 36.8788 32.1592 37.9843L34.1587 37.9396C34.1264 36.4964 33.7459 35.1697 33.0076 33.9833L31.3096 35.04ZM32.1595 37.9972C32.1932 38.9518 31.8192 40.073 30.8626 41.3864L32.4792 42.564C33.595 41.0321 34.213 39.4779 34.1583 37.9267L32.1595 37.9972ZM26.2648 22.6969C25.5006 23.7461 25.1425 24.8952 25.3575 26.0964L27.3262 25.7439C27.2288 25.1999 27.3582 24.5928 27.8814 23.8744L26.2648 22.6969ZM25.3613 26.1164C25.5771 27.1946 26.1251 28.2781 26.9315 29.3619L28.5361 28.168C27.8421 27.2353 27.4622 26.4222 27.3224 25.7239L25.3613 26.1164ZM28.5421 29.3537L33.2992 22.8226L31.6826 21.645L26.9255 28.1762L28.5421 29.3537ZM32.9823 21.3629C31.817 20.7053 30.6038 20.4301 29.3746 20.6233L29.6851 22.599C30.3933 22.4877 31.1541 22.6277 31.9994 23.1047L32.9823 21.3629ZM29.3553 20.6265C28.1001 20.8491 27.0723 21.5882 26.2648 22.6969L27.8814 23.8744C28.4554 23.0863 29.0655 22.7091 29.7045 22.5958L29.3553 20.6265ZM21.8685 41.5006C23.0919 42.1248 24.345 42.3489 25.5889 42.0806L25.1673 40.1256C24.4542 40.2794 23.6705 40.1747 22.7773 39.719L21.8685 41.5006ZM25.6059 42.0768C26.8446 41.787 27.8574 41.0962 28.6197 40.0497L27.0031 38.8722C26.5093 39.5501 25.9 39.954 25.1503 40.1294L25.6059 42.0768ZM28.6197 40.0497C29.3797 39.0062 29.7078 37.8531 29.4391 36.6497L27.4872 37.0854C27.6055 37.6154 27.499 38.1912 27.0031 38.8722L28.6197 40.0497ZM29.4475 36.6913C29.255 35.6163 28.7124 34.5334 27.9059 33.4494L26.3013 34.6432C26.9951 35.5758 27.3588 36.3737 27.4788 37.0438L29.4475 36.6913ZM26.2953 33.4575L21.5146 40.021L23.1312 41.1986L27.9119 34.6351L26.2953 33.4575Z" fill="#1E4364"/>
<path d="M40.174 49.2479L41.5016 46.0744L61.3413 33.4752L66.4336 35.6055L59.1934 52.9121L62.6252 54.3478L61.0969 58.001L57.6651 56.5653L55.3186 62.1743L51.1857 60.4453L53.5322 54.8363L40.174 49.2479ZM60.6944 38.2342L46.5364 47.617L55.245 51.2603L60.6944 38.2342Z" fill="#1E4364"/>
<path d="M40.174 49.2479L39.2515 48.862L38.8655 49.7845L39.7881 50.1705L40.174 49.2479ZM41.5016 46.0744L40.9655 45.2303L40.7004 45.3987L40.5791 45.6885L41.5016 46.0744ZM61.3413 33.4752L61.7272 32.5526L61.2457 32.3512L60.8052 32.631L61.3413 33.4752ZM66.4336 35.6055L67.3561 35.9915L67.7421 35.069L66.8195 34.683L66.4336 35.6055ZM59.1934 52.9121L58.2709 52.5262L57.8849 53.4487L58.8075 53.8346L59.1934 52.9121ZM62.6252 54.3478L63.5477 54.7337L63.9336 53.8112L63.0111 53.4253L62.6252 54.3478ZM61.0969 58.001L60.7109 58.9235L61.6335 59.3095L62.0194 58.3869L61.0969 58.001ZM57.6651 56.5653L58.051 55.6428L57.1285 55.2568L56.7426 56.1794L57.6651 56.5653ZM55.3186 62.1743L54.9326 63.0968L55.8552 63.4827L56.2411 62.5602L55.3186 62.1743ZM51.1857 60.4453L50.2631 60.0593L49.8772 60.9818L50.7997 61.3678L51.1857 60.4453ZM53.5322 54.8363L54.4547 55.2222L54.8406 54.2997L53.9181 53.9138L53.5322 54.8363ZM60.6944 38.2342L61.617 38.6202L62.8886 35.5805L60.142 37.4007L60.6944 38.2342ZM46.5364 47.617L45.9839 46.7835L44.424 47.8173L46.1504 48.5396L46.5364 47.617ZM55.245 51.2603L54.859 52.1828L55.7816 52.5688L56.1675 51.6462L55.245 51.2603ZM41.0965 49.6339L42.4242 46.4604L40.5791 45.6885L39.2515 48.862L41.0965 49.6339ZM42.0377 46.9186L61.8773 34.3193L60.8052 32.631L40.9655 45.2303L42.0377 46.9186ZM60.9553 34.3977L66.0477 36.5281L66.8195 34.683L61.7272 32.5526L60.9553 34.3977ZM65.5111 35.2196L58.2709 52.5262L60.1159 53.298L67.3561 35.9915L65.5111 35.2196ZM58.8075 53.8346L62.2392 55.2703L63.0111 53.4253L59.5793 51.9896L58.8075 53.8346ZM61.7027 53.9619L60.1743 57.6151L62.0194 58.3869L63.5477 54.7337L61.7027 53.9619ZM61.4828 57.0785L58.051 55.6428L57.2791 57.4878L60.7109 58.9235L61.4828 57.0785ZM56.7426 56.1794L54.3961 61.7883L56.2411 62.5602L58.5876 56.9512L56.7426 56.1794ZM55.7045 61.2517L51.5716 59.5227L50.7997 61.3678L54.9326 63.0968L55.7045 61.2517ZM52.1082 60.8312L54.4547 55.2222L52.6096 54.4504L50.2631 60.0593L52.1082 60.8312ZM53.9181 53.9138L40.5599 48.3254L39.7881 50.1705L53.1462 55.7588L53.9181 53.9138ZM60.142 37.4007L45.9839 46.7835L47.0888 48.4506L61.2468 39.0678L60.142 37.4007ZM46.1504 48.5396L54.859 52.1828L55.6309 50.3378L46.9223 46.6945L46.1504 48.5396ZM56.1675 51.6462L61.617 38.6202L59.7719 37.8483L54.3225 50.8744L56.1675 51.6462Z" fill="#1E4364"/>
<path d="M70.3059 51.3708C71.0711 46.8214 72.4308 43.3995 74.3851 41.1052C76.3701 38.789 79.2428 37.9472 83.0034 38.5797C86.7639 39.2122 89.19 40.9453 90.2818 43.779C91.4043 46.5908 91.5829 50.2714 90.8177 54.8208C90.0437 59.4228 88.662 62.8951 86.6725 65.2375C84.7138 67.5581 81.8542 68.4022 78.0937 67.7697C74.3332 67.1372 71.8939 65.4019 70.7758 62.5638C69.6885 59.7038 69.5318 55.9728 70.3059 51.3708ZM86.3998 54.0777C86.7581 51.9476 86.9164 50.122 86.8748 48.6006C86.8596 47.0838 86.5086 45.7944 85.8219 44.7324C85.1396 43.6442 83.9701 42.9607 82.3133 42.6821C80.6566 42.4034 79.3279 42.6667 78.3271 43.4718C77.3308 44.2507 76.5642 45.3521 76.0272 46.7761C75.5165 48.2045 75.0821 49.9838 74.7238 52.1139C74.3523 54.3228 74.1719 56.1989 74.1828 57.7421C74.1936 59.2853 74.5424 60.5878 75.2291 61.6498C75.9421 62.7161 77.127 63.3886 78.7837 63.6673C80.4404 63.946 81.767 63.6959 82.7633 62.917C83.7859 62.1425 84.5548 61.028 85.0699 59.5733C85.5849 58.1185 86.0283 56.2867 86.3998 54.0777Z" fill="#1E4364"/>
<path d="M74.3851 41.1052L73.6258 40.4545L73.6238 40.4567L74.3851 41.1052ZM90.2818 43.779L89.3486 44.1385L89.3531 44.1497L90.2818 43.779ZM86.6725 65.2375L85.9103 64.5902L85.9084 64.5925L86.6725 65.2375ZM70.7758 62.5638L69.841 62.9192L69.8454 62.9303L70.7758 62.5638ZM86.8748 48.6006L85.8749 48.6107L85.875 48.6193L85.8752 48.628L86.8748 48.6006ZM85.8219 44.7324L84.9745 45.2637L84.9821 45.2754L85.8219 44.7324ZM78.3271 43.4718L78.9431 44.2597L78.954 44.251L78.3271 43.4718ZM76.0272 46.7761L75.0915 46.4233L75.0885 46.4314L75.0856 46.4395L76.0272 46.7761ZM74.1828 57.7421L75.1828 57.7351L75.1828 57.7351L74.1828 57.7421ZM75.2291 61.6498L74.3894 62.1928L74.3936 62.1992L74.3978 62.2056L75.2291 61.6498ZM82.7633 62.917L82.1596 62.1198L82.1535 62.1244L82.1474 62.1292L82.7633 62.917ZM85.0699 59.5733L86.0125 59.907L85.0699 59.5733ZM71.292 51.5367C72.0419 47.0783 73.3557 43.8558 75.1463 41.7536L73.6238 40.4567C71.5059 42.9431 70.1002 46.5644 69.3197 51.2049L71.292 51.5367ZM75.1444 41.7559C76.8421 39.7749 79.3229 38.9747 82.8375 39.5658L83.1692 37.5935C79.1628 36.9197 75.898 37.8031 73.6258 40.4545L75.1444 41.7559ZM82.8375 39.5658C86.3526 40.1571 88.4175 41.7217 89.3487 44.1385L91.2149 43.4194C89.9625 40.1688 87.1751 38.2673 83.1692 37.5935L82.8375 39.5658ZM89.3531 44.1497C90.3809 46.7244 90.5811 50.1988 89.8316 54.6549L91.8039 54.9867C92.5848 50.344 92.4277 46.4572 91.2105 43.4082L89.3531 44.1497ZM89.8316 54.6549C89.0731 59.1644 87.7376 62.4386 85.9103 64.5902L87.4347 65.8849C89.5863 63.3515 91.0143 59.6813 91.8039 54.9867L89.8316 54.6549ZM85.9084 64.5925C84.2379 66.5717 81.7747 67.3748 78.2596 66.7835L77.9278 68.7558C81.9337 69.4296 85.1898 68.5446 87.4367 65.8826L85.9084 64.5925ZM78.2596 66.7835C74.745 66.1924 72.6625 64.6246 71.7062 62.1972L69.8454 62.9303C71.1253 66.1791 73.9214 68.082 77.9278 68.7558L78.2596 66.7835ZM71.7106 62.2084C70.7111 59.5797 70.5332 56.0482 71.292 51.5367L69.3197 51.2049C68.5304 55.8974 68.6658 59.8279 69.8411 62.9192L71.7106 62.2084ZM87.3859 54.2436C87.7509 52.0739 87.9184 50.1799 87.8745 48.5733L85.8752 48.628C85.9145 50.064 85.7653 51.8214 85.4137 53.9119L87.3859 54.2436ZM87.8748 48.5906C87.858 46.9226 87.47 45.4395 86.6616 44.1894L84.9821 45.2754C85.5472 46.1492 85.8611 47.245 85.8749 48.6107L87.8748 48.5906ZM86.6691 44.2012C85.7918 42.8018 84.3257 42.0065 82.4792 41.6959L82.1475 43.6682C83.6145 43.915 84.4874 44.4865 84.9746 45.2636L86.6691 44.2012ZM82.4792 41.6959C80.6328 41.3854 78.9871 41.6573 77.7003 42.6927L78.954 44.251C79.6686 43.676 80.6805 43.4215 82.1475 43.6682L82.4792 41.6959ZM77.7113 42.684C76.5435 43.5968 75.68 44.8628 75.0915 46.4233L76.9629 47.129C77.4484 45.8415 78.1181 44.9045 78.943 44.2597L77.7113 42.684ZM75.0856 46.4395C74.5487 47.9412 74.102 49.782 73.7377 51.948L75.71 52.2797C76.0622 50.1855 76.4844 48.4679 76.9688 47.1128L75.0856 46.4395ZM73.7377 51.948C73.3604 54.191 73.1714 56.1285 73.1828 57.7491L75.1828 57.7351C75.1724 56.2693 75.3441 54.4547 75.71 52.2797L73.7377 51.948ZM73.1828 57.7491C73.1947 59.4404 73.5787 60.939 74.3894 62.1928L76.0688 61.1068C75.5062 60.2366 75.1926 59.1301 75.1828 57.7351L73.1828 57.7491ZM74.3978 62.2056C75.3074 63.566 76.7778 64.344 78.6178 64.6535L78.9496 62.6812C77.4762 62.4333 76.5768 61.8663 76.0604 61.0939L74.3978 62.2056ZM78.6178 64.6535C80.456 64.9626 82.0955 64.7084 83.3792 63.7048L82.1474 62.1292C81.4385 62.6834 80.4249 62.9293 78.9496 62.6812L78.6178 64.6535ZM83.367 63.7142C84.5747 62.7996 85.4456 61.5081 86.0125 59.907L84.1272 59.2395C83.6639 60.5478 82.9971 61.4855 82.1596 62.1198L83.367 63.7142ZM86.0125 59.907C86.5534 58.3793 87.0087 56.4866 87.3859 54.2436L85.4137 53.9119C85.0478 56.0868 84.6165 57.8577 84.1272 59.2395L86.0125 59.907Z" fill="#1E4364"/>
<path d="M101.354 70.0596C100.527 70.0627 99.8325 69.7853 99.2704 69.2273C98.7084 68.6694 98.4258 67.9771 98.4228 67.1505C98.4197 66.3238 98.6971 65.6294 99.255 65.0674C99.813 64.5053 100.505 64.2227 101.332 64.2197C102.132 64.2167 102.813 64.4942 103.375 65.0521C103.937 65.61 104.22 66.3023 104.223 67.129C104.226 67.9556 103.948 68.65 103.39 69.2121C102.832 69.7741 102.154 70.0567 101.354 70.0596Z" fill="#1E4364"/>
<path d="M99.2704 69.2273L99.9749 68.5176L99.9749 68.5176L99.2704 69.2273ZM99.255 65.0674L99.9648 65.7718L99.255 65.0674ZM103.375 65.0521L102.671 65.7618L103.375 65.0521ZM103.39 69.2121L102.681 68.5076L103.39 69.2121ZM101.35 69.0596C100.775 69.0618 100.34 68.8798 99.9749 68.5176L98.566 69.9371C99.3253 70.6908 100.278 71.0636 101.357 71.0596L101.35 69.0596ZM99.9749 68.5176C99.6101 68.1555 99.4249 67.7212 99.4227 67.1468L97.4228 67.1542C97.4268 68.2331 97.8067 69.1834 98.566 69.9371L99.9749 68.5176ZM99.4227 67.1468C99.4206 66.5724 99.6026 66.1367 99.9648 65.7718L98.5453 64.3629C97.7916 65.1222 97.4188 66.0752 97.4228 67.1542L99.4227 67.1468ZM99.9648 65.7718C100.327 65.407 100.761 65.2218 101.336 65.2197L101.328 63.2197C100.249 63.2237 99.299 63.6036 98.5453 64.3629L99.9648 65.7718ZM101.336 65.2197C101.873 65.2177 102.299 65.3929 102.671 65.7618L104.08 64.3424C103.327 63.5955 102.39 63.2157 101.328 63.2197L101.336 65.2197ZM102.671 65.7618C103.035 66.124 103.221 66.5583 103.223 67.1327L105.223 67.1253C105.219 66.0464 104.839 65.0961 104.08 64.3424L102.671 65.7618ZM103.223 67.1327C103.225 67.7071 103.043 68.1428 102.681 68.5076L104.1 69.9166C104.854 69.1573 105.227 68.2042 105.223 67.1253L103.223 67.1327ZM102.681 68.5076C102.312 68.8793 101.888 69.0576 101.35 69.0596L101.357 71.0596C102.419 71.0557 103.353 70.669 104.1 69.9166L102.681 68.5076Z" fill="#1E4364"/>
<path d="M111.703 54.8112C110.904 50.2675 111.042 46.588 112.118 43.7726C113.215 40.9263 115.641 39.173 119.397 38.5126C123.153 37.8523 126.018 38.6751 127.994 40.9812C129.992 43.2563 131.39 46.6657 132.189 51.2093C132.997 55.8055 132.855 59.5399 131.762 62.4124C130.692 65.2541 128.278 67.0051 124.523 67.6655C120.767 68.3258 117.888 67.5053 115.886 65.2039C113.905 62.8716 112.511 59.4073 111.703 54.8112ZM127.776 51.9851C127.402 49.8578 126.942 48.0841 126.394 46.6641C125.873 45.2395 125.111 44.1415 124.109 43.37C123.103 42.5723 121.772 42.3189 120.117 42.6098C118.463 42.9007 117.298 43.5928 116.624 44.6861C115.945 45.7531 115.591 47.0474 115.56 48.5689C115.556 50.0859 115.741 51.908 116.115 54.0354C116.503 56.2416 116.96 58.0701 117.486 59.5209C118.012 60.9718 118.776 62.083 119.778 62.8544C120.806 63.6213 122.148 63.8592 123.802 63.5683C125.457 63.2774 126.624 62.5984 127.302 61.5314C128.007 60.4598 128.36 59.1524 128.359 57.6092C128.359 56.066 128.164 54.1913 127.776 51.9851Z" fill="#1E4364"/>
<path d="M112.118 43.7726L111.185 43.413L111.184 43.4158L112.118 43.7726ZM127.994 40.9812L127.235 41.6319L127.243 41.6409L127.994 40.9812ZM131.762 62.4124L130.828 62.057L130.827 62.0598L131.762 62.4124ZM115.886 65.2039L115.124 65.8512L115.131 65.8602L115.886 65.2039ZM126.394 46.6641L125.455 47.0077L125.458 47.0158L125.461 47.0239L126.394 46.6641ZM124.109 43.37L123.488 44.1538L123.499 44.1624L124.109 43.37ZM116.624 44.6861L117.468 45.2229L117.475 45.211L116.624 44.6861ZM115.56 48.5689L114.561 48.549L114.56 48.5576L114.56 48.5663L115.56 48.5689ZM117.486 59.5209L118.426 59.1802L118.426 59.1802L117.486 59.5209ZM119.778 62.8544L119.168 63.6468L119.174 63.6515L119.18 63.6561L119.778 62.8544ZM127.302 61.5314L126.467 60.9818L126.463 60.9882L126.459 60.9947L127.302 61.5314ZM128.359 57.6092L129.359 57.6088L128.359 57.6092ZM112.688 54.638C111.905 50.1853 112.067 46.7091 113.052 44.1294L111.184 43.4158C110.018 46.4669 109.903 50.3497 110.718 54.9843L112.688 54.638ZM113.051 44.1322C113.989 41.6978 116.06 40.1147 119.57 39.4975L119.224 37.5277C115.222 38.2313 112.44 40.1548 111.185 43.413L113.051 44.1322ZM119.57 39.4975C123.081 38.8803 125.55 39.6651 127.235 41.6318L128.754 40.3305C126.487 37.6852 123.224 36.8243 119.224 37.5277L119.57 39.4975ZM127.243 41.6409C129.072 43.7242 130.421 46.932 131.204 51.3825L133.174 51.0362C132.358 46.3994 130.912 42.7884 128.746 40.3214L127.243 41.6409ZM131.204 51.3825C131.996 55.8862 131.831 59.4185 130.828 62.057L132.697 62.7679C133.878 59.6612 133.998 55.7248 133.174 51.0362L131.204 51.3825ZM130.827 62.0598C129.913 64.4834 127.86 66.0633 124.349 66.6806L124.696 68.6504C128.697 67.9469 131.47 66.0248 132.698 62.765L130.827 62.0598ZM124.349 66.6806C120.839 67.2977 118.353 66.5159 116.64 64.5475L115.131 65.8602C117.423 68.4947 120.694 69.3539 124.696 68.6504L124.349 66.6806ZM116.648 64.5566C114.828 62.4129 113.48 59.1438 112.688 54.638L110.718 54.9843C111.542 59.6709 112.983 63.3302 115.124 65.8511L116.648 64.5566ZM128.761 51.812C128.38 49.645 127.905 47.8039 127.327 46.3044L125.461 47.0239C125.978 48.3642 126.424 50.0705 126.792 52.1583L128.761 51.812ZM127.333 46.3205C126.76 44.754 125.899 43.4858 124.719 42.5776L123.499 44.1624C124.324 44.7972 124.986 45.725 125.455 47.0077L127.333 46.3205ZM124.73 42.5863C123.436 41.5604 121.788 41.3007 119.944 41.6249L120.29 43.5947C121.756 43.3371 122.769 43.5841 123.488 44.1538L124.73 42.5863ZM119.944 41.6249C118.1 41.9491 116.64 42.7553 115.773 44.1612L117.475 45.211C117.957 44.4303 118.825 43.8523 120.29 43.5947L119.944 41.6249ZM115.78 44.1493C114.985 45.3998 114.594 46.8816 114.561 48.549L116.56 48.5888C116.588 47.2131 116.906 46.1063 117.468 45.2228L115.78 44.1493ZM114.56 48.5663C114.556 50.1611 114.75 52.0454 115.13 54.2086L117.1 53.8622C116.732 51.7707 116.556 50.0107 116.56 48.5716L114.56 48.5663ZM115.13 54.2086C115.524 56.4487 115.994 58.338 116.546 59.8617L118.426 59.1802C117.927 57.8021 117.482 56.0344 117.1 53.8622L115.13 54.2086ZM116.546 59.8617C117.122 61.4518 117.985 62.736 119.168 63.6468L120.388 62.062C119.567 61.4299 118.901 60.4918 118.426 59.1802L116.546 59.8617ZM119.18 63.6561C120.492 64.6343 122.138 64.8763 123.975 64.5532L123.629 62.5834C122.158 62.8421 121.12 62.6082 120.376 62.0528L119.18 63.6561ZM123.975 64.5532C125.811 64.2304 127.271 63.443 128.146 62.0682L126.459 60.9947C125.976 61.7539 125.102 62.3244 123.629 62.5834L123.975 64.5532ZM128.138 62.0811C128.97 60.8155 129.36 59.3073 129.359 57.6088L127.359 57.6096C127.36 58.9975 127.044 60.1041 126.467 60.9818L128.138 62.0811ZM129.359 57.6088C129.359 55.9882 129.155 54.0521 128.761 51.812L126.792 52.1583C127.173 54.3305 127.359 56.1437 127.359 57.6096L129.359 57.6088Z" fill="#1E4364"/>
<path d="M139.199 49.1739C137.387 44.9313 136.684 41.3169 137.091 38.3306C137.511 35.3093 139.475 33.0498 142.982 31.5521C146.489 30.0544 149.466 30.2034 151.915 31.9993C154.378 33.7602 156.515 36.7619 158.327 41.0045C160.16 45.2962 160.872 48.9649 160.462 52.0107C160.066 55.0215 158.114 57.2758 154.607 58.7735C151.1 60.2712 148.11 60.1274 145.637 58.342C143.178 56.5216 141.032 53.4656 139.199 49.1739ZM154.207 42.7641C153.359 40.7777 152.507 39.1554 151.65 37.8973C150.819 36.6287 149.827 35.7328 148.676 35.2096C147.514 34.6619 146.161 34.718 144.616 35.3778C143.071 36.0376 142.094 36.9766 141.686 38.1946C141.268 39.3881 141.218 40.7291 141.534 42.2176C141.876 43.6957 142.47 45.4279 143.319 47.4144C144.199 49.4743 145.06 51.1509 145.902 52.444C146.744 53.7371 147.741 54.6453 148.892 55.1685C150.068 55.6812 151.428 55.6076 152.973 54.9478C154.518 54.2879 155.5 53.3613 155.918 52.1678C156.361 50.9638 156.406 49.6106 156.055 48.108C155.703 46.6054 155.087 44.8241 154.207 42.7641Z" fill="#1E4364"/>
<path d="M137.091 38.3306L136.1 38.1927L136.1 38.1957L137.091 38.3306ZM151.915 31.9993L151.324 32.8058L151.334 32.8128L151.915 31.9993ZM160.462 52.0107L159.471 51.8773L159.47 51.8803L160.462 52.0107ZM145.637 58.342L145.042 59.1458L145.052 59.1528L145.637 58.342ZM151.65 37.8973L150.814 38.4456L150.819 38.4528L150.824 38.4599L151.65 37.8973ZM148.676 35.2096L148.249 36.1142L148.262 36.12L148.676 35.2096ZM141.686 38.1946L142.63 38.5253L142.635 38.512L141.686 38.1946ZM141.534 42.2176L140.556 42.4258L140.558 42.4342L140.56 42.4426L141.534 42.2176ZM145.902 52.444L146.74 51.8983L146.74 51.8983L145.902 52.444ZM148.892 55.1685L148.478 56.0789L148.485 56.0821L148.492 56.0851L148.892 55.1685ZM155.918 52.1678L154.98 51.8227L154.977 51.8299L154.974 51.8371L155.918 52.1678ZM156.055 48.108L157.028 47.88L156.055 48.108ZM140.118 48.7812C138.343 44.6235 137.709 41.2017 138.081 38.4654L136.1 38.1957C135.659 41.432 136.431 45.2391 138.279 49.5667L140.118 48.7812ZM138.081 38.4684C138.441 35.8844 140.097 33.8715 143.374 32.4717L142.589 30.6325C138.853 32.2281 136.581 34.7343 136.1 38.1927L138.081 38.4684ZM143.374 32.4717C146.653 31.0717 149.235 31.2741 151.324 32.8057L152.507 31.1929C149.697 29.1328 146.325 29.037 142.589 30.6325L143.374 32.4717ZM151.334 32.8128C153.589 34.4251 155.633 37.2416 157.408 41.3973L159.247 40.6118C157.398 36.2822 155.167 33.0952 152.497 31.1858L151.334 32.8128ZM157.408 41.3973C159.204 45.6026 159.847 49.0797 159.471 51.8773L161.453 52.1441C161.896 48.8501 161.117 44.9898 159.247 40.6118L157.408 41.3973ZM159.47 51.8803C159.132 54.4481 157.493 56.4538 154.215 57.8538L155 59.6931C158.736 58.0977 160.999 55.5949 161.453 52.1411L159.47 51.8803ZM154.215 57.8538C150.937 59.2536 148.338 59.0582 146.222 57.5312L145.052 59.1528C147.883 61.1966 151.264 61.2888 155 59.6931L154.215 57.8538ZM146.232 57.5382C143.972 55.8651 141.915 52.9884 140.118 48.7812L138.279 49.5667C140.148 53.9427 142.384 57.1781 145.042 59.1457L146.232 57.5382ZM155.127 42.3713C154.263 40.348 153.381 38.6633 152.477 37.3346L150.824 38.4599C151.632 39.6475 152.455 41.2073 153.288 43.1568L155.127 42.3713ZM152.487 37.349C151.572 35.954 150.445 34.9151 149.089 34.2992L148.262 36.12C149.209 36.5505 150.065 37.3033 150.814 38.4456L152.487 37.349ZM149.102 34.3051C147.608 33.6008 145.945 33.7228 144.223 34.4582L145.008 36.2974C146.376 35.7132 147.42 35.723 148.249 36.1141L149.102 34.3051ZM144.223 34.4582C142.501 35.1936 141.262 36.3109 140.738 37.8771L142.635 38.512C142.926 37.6422 143.64 36.8817 145.008 36.2974L144.223 34.4582ZM140.743 37.8639C140.253 39.2627 140.209 40.7945 140.556 42.4258L142.512 42.0095C142.226 40.6636 142.284 39.5134 142.63 38.5252L140.743 37.8639ZM140.56 42.4426C140.919 43.9965 141.537 45.7872 142.399 47.8071L144.238 47.0216C143.404 45.0686 142.832 43.3948 142.509 41.9926L140.56 42.4426ZM142.399 47.8071C143.292 49.8988 144.179 51.6318 145.064 52.9898L146.74 51.8983C145.94 50.67 145.105 49.0499 144.238 47.0216L142.399 47.8071ZM145.064 52.9898C145.987 54.4071 147.119 55.4612 148.478 56.0789L149.306 54.2581C148.362 53.8294 147.501 53.0672 146.74 51.8983L145.064 52.9898ZM148.492 56.0851C149.993 56.7392 151.65 56.6003 153.366 55.8674L152.581 54.0281C151.207 54.6149 150.144 54.6232 149.292 54.2518L148.492 56.0851ZM153.366 55.8674C155.08 55.1353 156.323 54.0362 156.862 52.4985L154.974 51.8371C154.677 52.6863 153.956 53.4406 152.581 54.0281L153.366 55.8674ZM156.857 52.5129C157.38 51.0911 157.415 49.5338 157.028 47.88L155.081 48.3359C155.397 49.6873 155.342 50.8366 154.98 51.8227L156.857 52.5129ZM157.028 47.88C156.659 46.3021 156.02 44.463 155.127 42.3713L153.288 43.1568C154.154 45.1851 154.747 46.9087 155.081 48.3359L157.028 47.88Z" fill="#1E4364"/>
<path d="M164.691 37.4273C161.961 33.7083 160.454 30.3486 160.171 27.3482C159.892 24.3106 161.29 21.6635 164.364 19.4069C167.438 17.1504 170.372 16.6179 173.165 17.8094C175.964 18.9635 178.729 21.4001 181.459 25.119C184.22 28.8809 185.748 32.2915 186.042 35.3507C186.341 38.3726 184.954 41.0118 181.88 43.2683C178.806 45.5248 175.862 46.0652 173.047 44.8896C170.238 43.6766 167.453 41.1892 164.691 37.4273ZM177.847 27.77C176.569 26.0288 175.37 24.6431 174.25 23.6128C173.151 22.5668 171.982 21.9201 170.741 21.6726C169.486 21.4037 168.18 21.7663 166.826 22.7604C165.472 23.7546 164.735 24.891 164.615 26.1699C164.479 27.4272 164.735 28.7446 165.382 30.122C166.051 31.4836 167.024 33.035 168.303 34.7763C169.628 36.582 170.848 38.0186 171.962 39.0861C173.077 40.1536 174.254 40.8111 175.494 41.0585C176.756 41.2902 178.064 40.909 179.418 39.9148C180.773 38.9207 181.518 37.795 181.653 36.5376C181.81 35.2645 181.547 33.9364 180.862 32.5533C180.178 31.1702 179.173 29.5758 177.847 27.77Z" fill="#1E4364"/>
<path d="M160.171 27.3482L159.175 27.4394L159.175 27.4424L160.171 27.3482ZM173.165 17.8094L172.773 18.7292L172.784 18.7338L173.165 17.8094ZM186.042 35.3507L185.046 35.4463L185.047 35.4494L186.042 35.3507ZM173.047 44.8896L172.65 45.8077L172.661 45.8123L173.047 44.8896ZM174.25 23.6128L173.56 24.3371L173.566 24.343L173.573 24.3488L174.25 23.6128ZM170.741 21.6726L170.532 22.6506L170.546 22.6533L170.741 21.6726ZM164.615 26.1699L165.609 26.2771L165.611 26.2632L164.615 26.1699ZM165.382 30.122L164.477 30.5472L164.481 30.5551L164.485 30.5628L165.382 30.122ZM171.962 39.0861L172.654 38.364L172.654 38.364L171.962 39.0861ZM175.494 41.0585L175.299 42.0392L175.306 42.0407L175.314 42.0421L175.494 41.0585ZM181.653 36.5376L180.661 36.4152L180.66 36.4228L180.659 36.4304L181.653 36.5376ZM180.862 32.5533L181.758 32.1097L180.862 32.5533ZM165.497 36.8355C162.822 33.191 161.426 30.0033 161.166 27.2541L159.175 27.4424C159.483 30.694 161.1 34.2256 163.885 38.019L165.497 36.8355ZM161.166 27.2571C160.929 24.659 162.083 22.322 164.956 20.2131L163.773 18.6008C160.498 21.0049 158.856 23.9621 159.175 27.4394L161.166 27.2571ZM164.956 20.2131C167.83 18.1038 170.391 17.713 172.773 18.7292L173.558 16.8895C170.353 15.5228 167.047 16.1971 163.773 18.6008L164.956 20.2131ZM172.784 18.7338C175.347 19.7907 177.979 22.0681 180.652 25.7108L182.265 24.5273C179.479 20.7321 176.582 18.1364 173.547 16.8849L172.784 18.7338ZM180.652 25.7108C183.358 29.397 184.776 32.6364 185.046 35.4463L187.037 35.2551C186.719 31.9466 185.082 28.3649 182.265 24.5273L180.652 25.7108ZM185.047 35.4494C185.302 38.0266 184.162 40.3529 181.288 42.4622L182.472 44.0744C185.746 41.6707 187.38 38.7186 187.037 35.252L185.047 35.4494ZM181.288 42.4622C178.415 44.5711 175.84 44.9724 173.432 43.9668L172.661 45.8123C175.884 47.1581 179.197 46.4785 182.472 44.0744L181.288 42.4622ZM173.443 43.9715C170.861 42.8567 168.204 40.5235 165.497 36.8355L163.885 38.019C166.701 41.8549 169.614 44.4966 172.65 45.8076L173.443 43.9715ZM178.653 27.1783C177.351 25.4047 176.11 23.9648 174.927 22.8768L173.573 24.3488C174.63 25.3213 175.787 26.6529 177.041 28.3618L178.653 27.1783ZM174.939 22.8886C173.731 21.7384 172.397 20.9832 170.937 20.692L170.546 22.6533C171.566 22.8569 172.571 23.3952 173.56 24.3371L174.939 22.8886ZM170.951 20.6948C169.336 20.349 167.744 20.8463 166.234 21.9543L167.418 23.5666C168.617 22.6863 169.635 22.4584 170.532 22.6505L170.951 20.6948ZM166.234 21.9543C164.725 23.0623 163.773 24.4321 163.619 26.0766L165.611 26.2632C165.696 25.35 166.219 24.4468 167.418 23.5666L166.234 21.9543ZM163.621 26.0626C163.462 27.5363 163.768 29.0378 164.477 30.5472L166.287 29.6967C165.702 28.4514 165.497 27.3181 165.609 26.2771L163.621 26.0626ZM164.485 30.5628C165.188 31.9943 166.197 33.5974 167.496 35.368L169.109 34.1845C167.852 32.4726 166.914 30.9729 166.28 29.6812L164.485 30.5628ZM167.496 35.368C168.842 37.2015 170.1 38.6872 171.271 39.8083L172.654 38.364C171.596 37.35 170.414 35.9624 169.109 34.1845L167.496 35.368ZM171.271 39.8083C172.492 40.9783 173.835 41.7471 175.299 42.0392L175.69 40.0779C174.674 39.8751 173.662 39.329 172.654 38.364L171.271 39.8083ZM175.314 42.0421C176.923 42.3376 178.506 41.8251 180.01 40.721L178.827 39.1087C177.622 39.9928 176.589 40.2428 175.675 40.075L175.314 42.0421ZM180.01 40.721C181.513 39.6179 182.473 38.2649 182.647 36.6449L180.659 36.4304C180.562 37.3251 180.033 38.2234 178.827 39.1087L180.01 40.721ZM182.646 36.6601C182.831 35.1566 182.512 33.632 181.758 32.1097L179.966 32.9968C180.581 34.2408 180.789 35.3724 180.661 36.4152L182.646 36.6601ZM181.758 32.1097C181.04 30.6573 179.999 29.0118 178.653 27.1783L177.041 28.3618C178.346 30.1397 179.316 31.6831 179.966 32.9968L181.758 32.1097Z" fill="#1E4364"/>
</svg>
