<svg width="203" height="86" viewBox="0 0 203 86" fill="none" xmlns="http://www.w3.org/2000/svg">
<path d="M31.6213 42.0016C30.8445 43.0853 29.8434 43.9097 28.6179 44.4749C27.4142 45.0557 26.0591 45.2983 24.5527 45.2027C23.0679 45.1227 21.5746 44.6427 20.0726 43.7629L18.1849 46.3962L16.0718 44.8814L17.9595 42.2481C16.062 40.5926 14.8732 38.7724 14.393 36.7877C13.9128 34.8029 14.3096 32.9219 15.5836 31.1447L19.5498 33.9879C19.0089 34.8798 18.7749 35.7783 18.8478 36.6836C18.9362 37.5673 19.3703 38.4035 20.1501 39.1922L25.2772 32.04C24.0892 30.6306 23.1721 29.4154 22.526 28.3945C21.8954 27.3518 21.5502 26.1856 21.4904 24.896C21.4522 23.6218 21.9459 22.2695 22.9713 20.8391C24.2608 19.0402 25.9536 18.0062 28.0496 17.737C30.1612 17.4461 32.3055 17.9333 34.4826 19.1987L36.3703 16.5654L38.4834 18.0802L36.5958 20.7135C38.3787 22.2541 39.4716 23.9563 39.8745 25.82C40.3147 27.6776 39.9658 29.5603 38.828 31.4679L34.8618 28.6247C35.2784 27.9062 35.4456 27.1238 35.3634 26.2773C35.2966 25.4092 34.9539 24.6058 34.3352 23.8669L29.3013 30.889C30.5048 32.2768 31.4219 33.492 32.0525 34.5346C32.6987 35.5556 33.0408 36.7031 33.0789 37.9773C33.1326 39.2298 32.6467 40.5712 31.6213 42.0016ZM26.8823 23.3474C26.2453 24.236 26.0082 25.116 26.171 25.9874C26.3555 26.8743 26.8266 27.819 27.5844 28.8216L32.292 22.2546C31.2823 21.6949 30.2938 21.4948 29.3263 21.6544C28.3806 21.8294 27.5659 22.3938 26.8823 23.3474ZM22.2632 40.707C23.3256 41.2389 24.3452 41.3956 25.3221 41.1772C26.3145 40.9371 27.1214 40.3836 27.7429 39.5166C28.3643 38.6497 28.5751 37.7836 28.375 36.9184C28.2122 36.047 27.7519 35.1101 26.9941 34.1075L22.2632 40.707Z" fill="#1E4364"/>
<path d="M28.6179 44.4749L28.1991 43.5669L28.1912 43.5705L28.1834 43.5743L28.6179 44.4749ZM24.5527 45.2027L24.616 44.2047L24.6065 44.2041L24.5527 45.2027ZM20.0726 43.7629L20.578 42.9L19.7912 42.4391L19.2598 43.1803L20.0726 43.7629ZM18.1849 46.3962L17.6023 47.2089L18.415 47.7915L18.9976 46.9788L18.1849 46.3962ZM16.0718 44.8814L15.259 44.2987L14.6764 45.1115L15.4891 45.6941L16.0718 44.8814ZM17.9595 42.2481L18.7722 42.8307L19.3017 42.0921L18.6169 41.4946L17.9595 42.2481ZM14.393 36.7877L13.421 37.0228L14.393 36.7877ZM15.5836 31.1447L16.1663 30.3319L15.3535 29.7493L14.7709 30.5621L15.5836 31.1447ZM19.5498 33.9879L20.4049 34.5065L20.8851 33.7147L20.1325 33.1751L19.5498 33.9879ZM18.8478 36.6836L17.851 36.7639L17.8518 36.7735L17.8527 36.7832L18.8478 36.6836ZM20.1501 39.1922L19.439 39.8953L20.2723 40.7381L20.9629 39.7748L20.1501 39.1922ZM25.2772 32.04L26.0899 32.6226L26.5432 31.9904L26.0418 31.3955L25.2772 32.04ZM22.526 28.3945L21.6703 28.912L21.6756 28.9207L21.681 28.9292L22.526 28.3945ZM21.4904 24.896L20.4908 24.9259L20.4911 24.9341L20.4914 24.9423L21.4904 24.896ZM28.0496 17.737L28.177 18.7289L28.1861 18.7276L28.0496 17.737ZM34.4826 19.1987L33.9801 20.0633L34.7659 20.5199L35.2954 19.7813L34.4826 19.1987ZM36.3703 16.5654L36.9529 15.7526L36.1402 15.17L35.5576 15.9828L36.3703 16.5654ZM38.4834 18.0802L39.2962 18.6628L39.8788 17.8501L39.0661 17.2675L38.4834 18.0802ZM36.5958 20.7135L35.783 20.1309L35.2509 20.8731L35.9419 21.4702L36.5958 20.7135ZM39.8746 25.82L38.8971 26.0313L38.8992 26.041L38.9015 26.0506L39.8746 25.82ZM38.828 31.4679L38.2454 32.2806L39.1296 32.9145L39.6868 31.9802L38.828 31.4679ZM34.8618 28.6247L33.9967 28.1231L33.5413 28.9085L34.2792 29.4374L34.8618 28.6247ZM35.3634 26.2773L34.3663 26.354L34.3671 26.364L34.368 26.3741L35.3634 26.2773ZM34.3352 23.8669L35.1018 23.2249L34.2738 22.2361L33.5224 23.2843L34.3352 23.8669ZM29.3013 30.889L28.4886 30.3064L28.0287 30.9479L28.5459 31.5442L29.3013 30.889ZM32.0525 34.5346L31.1968 35.0521L31.2021 35.0608L31.2075 35.0694L32.0525 34.5346ZM33.0789 37.9773L32.0793 38.0072L32.0799 38.0201L33.0789 37.9773ZM26.171 25.9874L25.188 26.171L25.1899 26.181L25.1919 26.191L26.171 25.9874ZM27.5844 28.8216L26.7866 29.4245L27.6057 30.5082L28.3971 29.4042L27.5844 28.8216ZM32.292 22.2546L33.1047 22.8372L33.759 21.9245L32.7768 21.38L32.292 22.2546ZM29.3263 21.6544L29.1636 20.6677L29.1539 20.6693L29.1443 20.6711L29.3263 21.6544ZM22.2632 40.707L21.4505 40.1244L20.7679 41.0766L21.8156 41.6012L22.2632 40.707ZM25.3221 41.1772L25.5403 42.1531L25.5488 42.1512L25.5573 42.1491L25.3221 41.1772ZM28.375 36.9184L27.392 37.1021L27.3959 37.123L27.4007 37.1436L28.375 36.9184ZM26.9941 34.1075L27.7919 33.5045L26.9728 32.4209L26.1814 33.5249L26.9941 34.1075ZM30.8086 41.419C30.1339 42.3601 29.2693 43.0733 28.1991 43.5669L29.0367 45.383C30.4175 44.7462 31.555 43.8105 32.4341 42.5843L30.8086 41.419ZM28.1834 43.5743C27.1536 44.0711 25.9734 44.2908 24.616 44.2047L24.4893 46.2007C26.1447 46.3057 27.6747 46.0403 29.0524 45.3756L28.1834 43.5743ZM24.6065 44.2041C23.3061 44.134 21.9659 43.713 20.578 42.9L19.5671 44.6258C21.1832 45.5724 22.8298 46.1113 24.4988 46.2012L24.6065 44.2041ZM19.2598 43.1803L17.3721 45.8136L18.9976 46.9788L20.8853 44.3455L19.2598 43.1803ZM18.7675 45.5834L16.6544 44.0686L15.4891 45.6941L17.6023 47.2089L18.7675 45.5834ZM16.8845 45.464L18.7722 42.8307L17.1467 41.6655L15.259 44.2987L16.8845 45.464ZM18.6169 41.4946C16.8386 39.943 15.7861 38.2933 15.3649 36.5525L13.421 37.0228C13.9602 39.2516 15.2854 41.2421 17.302 43.0016L18.6169 41.4946ZM15.3649 36.5525C14.9584 34.8724 15.2783 33.2871 16.3964 31.7273L14.7709 30.5621C13.341 32.5567 12.8671 34.7333 13.421 37.0228L15.3649 36.5525ZM15.001 31.9574L18.9672 34.8006L20.1325 33.1751L16.1663 30.3319L15.001 31.9574ZM18.6948 33.4693C18.0617 34.5132 17.7588 35.6189 17.851 36.7639L19.8445 36.6034C19.791 35.9378 19.9562 35.2463 20.4049 34.5065L18.6948 33.4693ZM17.8527 36.7832C17.9691 37.9466 18.5393 38.9853 19.439 39.8953L20.8612 38.4891C20.2012 37.8216 19.9032 37.188 19.8428 36.5841L17.8527 36.7832ZM20.9629 39.7748L26.0899 32.6226L24.4644 31.4574L19.3374 38.6095L20.9629 39.7748ZM26.0418 31.3955C24.8696 30.0048 23.9838 28.828 23.371 27.8597L21.681 28.9292C22.3605 30.0029 23.3088 31.2564 24.5126 32.6845L26.0418 31.3955ZM23.3817 27.8769C22.8425 26.9855 22.5419 25.983 22.4893 24.8496L20.4914 24.9423C20.5585 26.3883 20.9483 27.7181 21.6703 28.912L23.3817 27.8769ZM22.4899 24.866C22.4604 23.8809 22.8386 22.7406 23.784 21.4217L22.1586 20.2565C21.0532 21.7984 20.444 23.3627 20.4908 24.9259L22.4899 24.866ZM23.784 21.4217C24.9205 19.8364 26.3707 18.9608 28.177 18.7288L27.9222 16.7451C25.5365 17.0515 23.6012 18.244 22.1586 20.2565L23.784 21.4217ZM28.1861 18.7276C30.0382 18.4724 31.9596 18.8889 33.9801 20.0633L34.9851 18.3341C32.6514 16.9777 30.2841 16.4197 27.9132 16.7463L28.1861 18.7276ZM35.2954 19.7813L37.1831 17.148L35.5576 15.9828L33.6699 18.6161L35.2954 19.7813ZM35.7877 17.3781L37.9008 18.893L39.0661 17.2675L36.9529 15.7526L35.7877 17.3781ZM37.6707 17.4976L35.783 20.1309L37.4085 21.2961L39.2962 18.6628L37.6707 17.4976ZM35.9419 21.4702C37.6002 22.903 38.55 24.4255 38.8971 26.0313L40.852 25.6087C40.3933 23.487 39.1572 21.6052 37.2496 19.9568L35.9419 21.4702ZM38.9015 26.0506C39.2719 27.6139 38.9972 29.2321 37.9692 30.9556L39.6868 31.9802C40.9344 29.8885 41.3575 27.7414 40.8476 25.5895L38.9015 26.0506ZM39.4106 30.6552L35.4444 27.812L34.2792 29.4374L38.2454 32.2806L39.4106 30.6552ZM35.7269 29.1263C36.2511 28.2223 36.4606 27.2299 36.3587 26.1806L34.368 26.3741C34.4306 27.0177 34.3058 27.5901 33.9967 28.1231L35.7269 29.1263ZM36.3604 26.2007C36.276 25.1026 35.8395 24.1057 35.1018 23.2249L33.5685 24.509C34.0684 25.1059 34.3173 25.7159 34.3663 26.354L36.3604 26.2007ZM33.5224 23.2843L28.4886 30.3064L30.1141 31.4717L35.1479 24.4496L33.5224 23.2843ZM28.5459 31.5442C29.7288 32.9082 30.6064 34.0759 31.1968 35.0521L32.9082 34.0171C32.2374 32.908 31.2809 31.6453 30.0568 30.2339L28.5459 31.5442ZM31.2075 35.0694C31.7525 35.9305 32.0463 36.9019 32.0794 38.0072L34.0785 37.9474C34.0353 36.5044 33.6448 35.1807 32.8975 33.9998L31.2075 35.0694ZM32.0799 38.0201C32.1207 38.9744 31.7553 40.0984 30.8086 41.419L32.4341 42.5843C33.5382 41.044 34.1445 39.4851 34.078 37.9345L32.0799 38.0201ZM26.0695 22.7648C25.3133 23.8197 24.9639 24.9715 25.188 26.171L27.154 25.8037C27.0525 25.2605 27.1772 24.6523 27.695 23.93L26.0695 22.7648ZM25.1919 26.191C25.4159 27.2676 25.9721 28.3469 26.7866 29.4245L28.3821 28.2186C27.6811 27.2911 27.295 26.4809 27.15 25.7837L25.1919 26.191ZM28.3971 29.4042L33.1047 22.8372L31.4792 21.672L26.7716 28.2389L28.3971 29.4042ZM32.7768 21.38C31.6065 20.7312 30.3912 20.4652 29.1636 20.6677L29.4891 22.641C30.1963 22.5244 30.9582 22.6586 31.8071 23.1292L32.7768 21.38ZM29.1443 20.6711C27.8909 20.9031 26.8687 21.65 26.0695 22.7648L27.695 23.93C28.2631 23.1376 28.8703 22.7558 29.5084 22.6377L29.1443 20.6711ZM21.8156 41.6012C23.0437 42.2161 24.2985 42.4308 25.5403 42.1531L25.1039 40.2013C24.392 40.3605 23.6075 40.2617 22.7109 39.8128L21.8156 41.6012ZM25.5573 42.1491C26.7937 41.85 27.8013 41.1515 28.5556 40.0992L26.9301 38.934C26.4415 39.6156 25.8352 40.0242 25.0869 40.2052L25.5573 42.1491ZM28.5556 40.0992C29.3077 39.0501 29.6271 37.8945 29.3493 36.6932L27.4007 37.1436C27.523 37.6727 27.421 38.2493 26.9301 38.934L28.5556 40.0992ZM29.358 36.7347C29.1574 35.6611 28.6066 34.5824 27.7919 33.5045L26.1964 34.7105C26.8973 35.6378 27.267 36.4329 27.392 37.1021L29.358 36.7347ZM26.1814 33.5249L21.4505 40.1244L23.076 41.2896L27.8069 34.6901L26.1814 33.5249Z" fill="#1E4364"/>
<path d="M65.3878 38.9002L53.0014 33.7876L49.9644 41.1454C50.7669 40.6689 51.7701 40.405 52.9741 40.3538C54.2027 40.3128 55.3962 40.5314 56.5547 41.0096C58.6253 41.8643 60.1183 42.9998 61.0338 44.4163C61.9739 45.8429 62.4353 47.346 62.418 48.9255C62.4254 50.5153 62.1187 52.0619 61.4981 53.5656C60.7452 55.3896 59.7162 56.8689 58.4113 58.0035C57.1412 59.1237 55.6357 59.8005 53.8949 60.034C52.1788 60.2776 50.3101 59.9823 48.2889 59.148C45.6021 58.039 43.72 56.4832 42.6426 54.4806C41.5651 52.478 41.3189 50.3137 41.904 47.9877L46.0081 49.6817C45.8011 50.9521 46.0235 52.1258 46.6752 53.2026C47.3372 54.2547 48.3707 55.0708 49.7757 55.6507C51.5258 56.3731 53.051 56.3824 54.3512 55.6786C55.6761 54.9849 56.6997 53.7631 57.4221 52.013C58.1547 50.2382 58.2706 48.6993 57.7698 47.3964C57.2793 46.0688 56.1712 45.0489 54.4458 44.3367C53.238 43.8381 52.0878 43.724 50.9954 43.9943C49.9378 44.2501 49.0104 44.8194 48.2134 45.702L44.2202 44.0538L50.6453 28.4877L66.9139 35.2028L65.3878 38.9002Z" fill="#1E4364"/>
<path d="M65.3878 38.9002L65.0062 39.8246L65.9306 40.2061L66.3121 39.2818L65.3878 38.9002ZM53.0014 33.7876L53.383 32.8632L52.4586 32.4817L52.0771 33.406L53.0014 33.7876ZM49.9644 41.1454L49.04 40.7639L47.8954 43.5369L50.4749 42.0053L49.9644 41.1454ZM52.9741 40.3538L52.9407 39.3544L52.9316 39.3547L52.9741 40.3538ZM61.0338 44.4163L60.1939 44.9591L60.1988 44.9665L61.0338 44.4163ZM62.418 48.9255L61.4181 48.9146L61.418 48.9224L61.418 48.9302L62.418 48.9255ZM58.4113 58.0035L57.7551 57.2489L57.7499 57.2535L58.4113 58.0035ZM53.8949 60.034L53.762 59.0428L53.7544 59.0439L53.8949 60.034ZM42.6426 54.4806L43.5232 54.0068L42.6426 54.4806ZM41.904 47.9877L42.2856 47.0633L41.2164 46.622L40.9342 47.7437L41.904 47.9877ZM46.0081 49.6817L46.9951 49.8426L47.1227 49.0599L46.3897 48.7573L46.0081 49.6817ZM46.6752 53.2026L45.8198 53.7204L45.8242 53.7278L45.8288 53.7351L46.6752 53.2026ZM54.3512 55.6786L53.8873 54.7926L53.8752 54.7992L54.3512 55.6786ZM57.7698 47.3964L56.8317 47.743L56.8364 47.7551L57.7698 47.3964ZM50.9954 43.9943L51.2305 44.9663L51.2356 44.965L50.9954 43.9943ZM48.2134 45.702L47.8318 46.6264L48.4832 46.8953L48.9555 46.3722L48.2134 45.702ZM44.2202 44.0538L43.2958 43.6722L42.9143 44.5966L43.8386 44.9781L44.2202 44.0538ZM50.6453 28.4877L51.0269 27.5633L50.1025 27.1818L49.721 28.1061L50.6453 28.4877ZM66.9139 35.2028L67.8383 35.5844L68.2198 34.66L67.2955 34.2785L66.9139 35.2028ZM65.7693 37.9759L53.383 32.8632L52.6199 34.7119L65.0062 39.8246L65.7693 37.9759ZM52.0771 33.406L49.04 40.7639L50.8887 41.5269L53.9258 34.1691L52.0771 33.406ZM50.4749 42.0053C51.0999 41.6341 51.931 41.3991 53.0165 41.3529L52.9316 39.3547C51.6092 39.411 50.4339 39.7036 49.4538 40.2856L50.4749 42.0053ZM53.0074 41.3533C54.0911 41.3171 55.1434 41.5089 56.1732 41.934L56.9363 40.0853C55.649 39.5539 54.3142 39.3086 52.9407 39.3544L53.0074 41.3533ZM56.1732 41.934C58.1165 42.7361 59.4199 43.7614 60.1939 44.9591L61.8736 43.8735C60.8167 42.2382 59.134 40.9924 56.9363 40.0853L56.1732 41.934ZM60.1988 44.9665C61.0386 46.2409 61.433 47.5508 61.4181 48.9146L63.418 48.9365C63.4376 47.1412 62.9092 45.4449 61.8688 43.866L60.1988 44.9665ZM61.418 48.9302C61.4248 50.3843 61.145 51.7999 60.5737 53.184L62.4224 53.9471C63.0924 52.324 63.426 50.6462 63.418 48.9209L61.418 48.9302ZM60.5737 53.184C59.8716 54.8849 58.9274 56.2297 57.7552 57.2489L59.0674 58.7582C60.5051 57.5082 61.6187 55.8943 62.4224 53.9471L60.5737 53.184ZM57.7499 57.2535C56.6339 58.2377 55.3143 58.8346 53.762 59.0428L54.0279 61.0251C55.9571 60.7663 57.6484 60.0096 59.0727 58.7536L57.7499 57.2535ZM53.7544 59.0439C52.2557 59.2567 50.5692 59.0074 48.6704 58.2237L47.9073 60.0724C50.051 60.9572 52.102 61.2986 54.0355 61.024L53.7544 59.0439ZM48.6704 58.2237C46.1366 57.1778 44.4638 55.7551 43.5232 54.0068L41.7619 54.9544C42.9762 57.2113 45.0677 58.9002 47.9073 60.0724L48.6704 58.2237ZM43.5232 54.0068C42.5709 52.2368 42.3459 50.3302 42.8738 48.2316L40.9342 47.7437C40.2919 50.2972 40.5593 52.7193 41.7619 54.9544L43.5232 54.0068ZM41.5225 48.912L45.6266 50.606L46.3897 48.7573L42.2856 47.0633L41.5225 48.912ZM45.0212 49.5208C44.7768 51.0201 45.0418 52.4352 45.8198 53.7204L47.5307 52.6847C47.0051 51.8163 46.8254 50.8841 46.9951 49.8426L45.0212 49.5208ZM45.8288 53.7351C46.624 54.9989 47.8407 55.9339 49.3942 56.5751L50.1573 54.7264C48.9007 54.2077 48.0505 53.5106 47.5217 52.6701L45.8288 53.7351ZM49.3942 56.5751C51.3378 57.3773 53.1913 57.4435 54.8273 56.558L53.8752 54.7992C52.9107 55.3213 51.7139 55.3689 50.1573 54.7264L49.3942 56.5751ZM54.8151 56.5645C56.3983 55.7356 57.5589 54.3024 58.3465 52.3945L56.4978 51.6314C55.8405 53.2237 54.9539 54.2343 53.8874 54.7927L54.8151 56.5645ZM58.3465 52.3945C59.1395 50.4732 59.3256 48.657 58.7033 47.0377L56.8364 47.7551C57.2155 48.7417 57.1698 50.0032 56.4978 51.6314L58.3465 52.3945ZM58.7078 47.0498C58.0923 45.384 56.7244 44.1953 54.8273 43.4123L54.0642 45.261C55.6181 45.9024 56.4662 46.7536 56.8318 47.743L58.7078 47.0498ZM54.8273 43.4123C53.4554 42.846 52.0866 42.6941 50.7552 43.0236L51.2356 44.965C52.0891 44.7538 53.0205 44.8302 54.0642 45.261L54.8273 43.4123ZM50.7603 43.0223C49.489 43.3299 48.39 44.0144 47.4712 45.0318L48.9555 46.3722C49.6309 45.6244 50.3866 45.1704 51.2305 44.9663L50.7603 43.0223ZM48.5949 44.7777L44.6017 43.1294L43.8386 44.9781L47.8318 46.6264L48.5949 44.7777ZM45.1445 44.4353L51.5697 28.8692L49.721 28.1061L43.2958 43.6722L45.1445 44.4353ZM50.2638 29.412L66.5324 36.1272L67.2955 34.2785L51.0269 27.5633L50.2638 29.412ZM65.9896 34.8213L64.4634 38.5187L66.3121 39.2818L67.8383 35.5844L65.9896 34.8213Z" fill="#1E4364"/>
<path d="M70.3523 51.2223C71.1084 46.6714 72.4613 43.2468 74.4109 40.9486C76.3913 38.6284 79.2624 37.7808 83.0241 38.4058C86.7859 39.0308 89.2155 40.759 90.313 43.5905C91.4411 46.4 91.6271 50.0803 90.871 54.6313C90.1062 59.2348 88.7314 62.7098 86.7467 65.0563C84.7926 67.3808 81.9347 68.2306 78.173 67.6056C74.4112 66.9806 71.9684 65.2502 70.8447 62.4143C69.7516 59.5566 69.5875 55.8259 70.3523 51.2223ZM86.4516 53.897C86.8056 51.7662 86.9603 49.9402 86.9157 48.419C86.8974 46.9022 86.5438 45.6135 85.855 44.5529C85.1705 43.466 83.9996 42.7849 82.3424 42.5096C80.6851 42.2342 79.3569 42.5001 78.3577 43.3073C77.363 44.0882 76.5985 45.1911 76.0644 46.6162C75.5566 48.0456 75.1257 49.8258 74.7717 51.9565C74.4046 54.1663 74.228 56.0427 74.2419 57.5858C74.2559 59.129 74.6073 60.4309 75.2961 61.4914C76.0112 62.5564 77.1975 63.2265 78.8547 63.5018C80.512 63.7772 81.838 63.5244 82.8328 62.7435C83.8539 61.9671 84.6205 60.8509 85.1327 59.3952C85.6448 57.9395 86.0845 56.1067 86.4516 53.897Z" fill="#1E4364"/>
<path d="M74.4109 40.9486L73.6503 40.2994L73.6484 40.3017L74.4109 40.9486ZM90.313 43.5905L89.3805 43.9519L89.385 43.9631L90.313 43.5905ZM86.7467 65.0563L85.9832 64.4105L85.9812 64.4128L86.7467 65.0563ZM70.8447 62.4143L69.9106 62.7716L69.915 62.7827L70.8447 62.4143ZM86.9157 48.419L85.9158 48.4311L85.9159 48.4397L85.9161 48.4483L86.9157 48.419ZM85.855 44.5529L85.0087 45.0858L85.0163 45.0976L85.855 44.5529ZM78.3577 43.3073L78.9753 44.094L78.9861 44.0852L78.3577 43.3073ZM76.0644 46.6162L75.128 46.2652L75.125 46.2733L75.1221 46.2814L76.0644 46.6162ZM74.2419 57.5858L75.2419 57.5768L75.2419 57.5768L74.2419 57.5858ZM75.2961 61.4914L74.4575 62.0361L74.4617 62.0425L74.4659 62.0489L75.2961 61.4914ZM82.8328 62.7436L82.2275 61.9476L82.2214 61.9522L82.2153 61.9569L82.8328 62.7436ZM85.1327 59.3952L86.076 59.7271L85.1327 59.3952ZM71.3388 51.3862C72.0797 46.9264 73.387 43.7013 75.1735 41.5955L73.6484 40.3017C71.5355 42.7923 70.137 46.4163 69.3658 51.0584L71.3388 51.3862ZM75.1715 41.5978C76.8653 39.6134 79.3445 38.8082 82.8602 39.3923L83.188 37.4193C79.1803 36.7535 75.9173 37.6435 73.6503 40.2994L75.1715 41.5978ZM82.8602 39.3923C86.3766 39.9765 88.4446 41.537 89.3806 43.9519L91.2454 43.2291C89.9865 39.981 87.1952 38.0851 83.188 37.4193L82.8602 39.3923ZM89.385 43.9631C90.418 46.5357 90.6251 50.0097 89.8846 54.4674L91.8575 54.7951C92.6291 50.1509 92.4642 46.2644 91.241 43.2179L89.385 43.9631ZM89.8846 54.4674C89.1351 58.9783 87.8062 62.2552 85.9832 64.4105L87.5102 65.7021C89.6567 63.1644 91.0773 59.4913 91.8575 54.7951L89.8846 54.4674ZM85.9812 64.4128C84.3147 66.3953 81.8532 67.2033 78.3368 66.6191L78.0091 68.5921C82.0163 69.2578 85.2706 68.3663 87.5122 65.6997L85.9812 64.4128ZM78.3368 66.6191C74.8211 66.035 72.7355 64.4714 71.7743 62.0459L69.915 62.7827C71.2014 66.029 74.0013 67.9262 78.0091 68.5921L78.3368 66.6191ZM71.7787 62.0571C70.774 59.4304 70.589 55.8993 71.3388 51.3862L69.3658 51.0584C68.5859 55.7525 68.7292 59.6827 69.9107 62.7716L71.7787 62.0571ZM87.4381 54.0609C87.7987 51.8905 87.9624 49.9962 87.9153 48.3897L85.9161 48.4483C85.9582 49.8842 85.8126 51.642 85.4651 53.7331L87.4381 54.0609ZM87.9156 48.4069C87.8955 46.739 87.5045 45.2567 86.6936 44.0082L85.0163 45.0976C85.5831 45.9702 85.8993 47.0653 85.9158 48.4311L87.9156 48.4069ZM86.7012 44.02C85.821 42.6224 84.3533 41.83 82.5062 41.5231L82.1785 43.496C83.646 43.7399 84.52 44.3097 85.0088 45.0858L86.7012 44.02ZM82.5062 41.5231C80.6592 41.2162 79.0141 41.4915 77.7293 42.5294L78.9861 44.0852C79.6996 43.5088 80.711 43.2522 82.1785 43.496L82.5062 41.5231ZM77.7403 42.5207C76.5744 43.4359 75.7133 44.7036 75.128 46.2652L77.0008 46.9672C77.4837 45.6787 78.1516 44.7404 78.9752 44.0939L77.7403 42.5207ZM75.1221 46.2814C74.5882 47.7843 74.1452 49.626 73.7852 51.7927L75.7582 52.1204C76.1062 50.0255 76.525 48.307 77.0067 46.951L75.1221 46.2814ZM73.7852 51.7927C73.4125 54.0364 73.2273 55.9743 73.242 57.5949L75.2419 57.5768C75.2287 56.1111 75.3967 54.2961 75.7582 52.1204L73.7852 51.7927ZM73.242 57.5949C73.2573 59.2862 73.6442 60.784 74.4575 62.0361L76.1348 60.9467C75.5703 60.0777 75.2545 58.9718 75.2419 57.5768L73.242 57.5949ZM74.4659 62.0489C75.3782 63.4075 76.8502 64.1825 78.6909 64.4883L79.0186 62.5154C77.5448 62.2705 76.6443 61.7052 76.1263 60.9339L74.4659 62.0489ZM78.6909 64.4883C80.5296 64.7938 82.1686 64.5363 83.4503 63.5302L82.2153 61.9569C81.5075 62.5126 80.4944 62.7605 79.0186 62.5154L78.6909 64.4883ZM83.4381 63.5395C84.644 62.6225 85.5123 61.3293 86.076 59.7271L84.1894 59.0633C83.7287 60.3726 83.0638 61.3116 82.2275 61.9476L83.4381 63.5395ZM86.076 59.7271C86.6139 58.1983 87.0653 56.3047 87.4381 54.0609L85.4651 53.7331C85.1037 55.9088 84.6758 57.6806 84.1894 59.0633L86.076 59.7271Z" fill="#1E4364"/>
<path d="M101.432 69.8723C100.605 69.8754 99.9106 69.5979 99.3486 69.04C98.7866 68.482 98.504 67.7897 98.501 66.9631C98.498 66.1364 98.7754 65.442 99.3334 64.88C99.8913 64.3179 100.584 64.0354 101.41 64.0324C102.21 64.0295 102.891 64.307 103.453 64.8649C104.015 65.4229 104.298 66.1152 104.301 66.9418C104.304 67.7685 104.027 68.4628 103.469 69.0249C102.911 69.5869 102.232 69.8694 101.432 69.8723Z" fill="#1E4364"/>
<path d="M99.3486 69.04L100.053 68.3303L100.053 68.3303L99.3486 69.04ZM99.3334 64.88L100.043 65.5845L99.3334 64.88ZM103.453 64.8649L102.749 65.5746L103.453 64.8649ZM103.469 69.0249L102.759 68.3204L103.469 69.0249ZM101.428 68.8724C100.854 68.8745 100.418 68.6924 100.053 68.3303L98.6441 69.7497C99.4033 70.5034 100.356 70.8763 101.435 70.8723L101.428 68.8724ZM100.053 68.3303C99.6883 67.9681 99.5031 67.5338 99.501 66.9594L97.501 66.9667C97.5049 68.0456 97.8848 68.9959 98.6441 69.7497L100.053 68.3303ZM99.501 66.9594C99.4989 66.385 99.6809 65.9493 100.043 65.5845L98.6237 64.1755C97.87 64.9347 97.4971 65.8878 97.501 66.9667L99.501 66.9594ZM100.043 65.5845C100.405 65.2197 100.84 65.0345 101.414 65.0324L101.407 63.0324C100.328 63.0363 99.3774 63.4162 98.6237 64.1755L100.043 65.5845ZM101.414 65.0324C101.952 65.0304 102.377 65.2056 102.749 65.5746L104.158 64.1552C103.405 63.4083 102.469 63.0285 101.407 63.0324L101.414 65.0324ZM102.749 65.5746C103.114 65.9368 103.299 66.3711 103.301 66.9455L105.301 66.9382C105.297 65.8593 104.917 64.909 104.158 64.1552L102.749 65.5746ZM103.301 66.9455C103.303 67.5199 103.121 67.9556 102.759 68.3204L104.178 69.7294C104.932 68.9701 105.305 68.0171 105.301 66.9382L103.301 66.9455ZM102.759 68.3204C102.39 68.6921 101.966 68.8704 101.428 68.8724L101.435 70.8723C102.497 70.8685 103.431 70.4818 104.178 69.7294L102.759 68.3204Z" fill="#1E4364"/>
<path d="M111.808 54.622C111.019 50.0767 111.165 46.3975 112.246 43.5843C113.349 40.7403 115.779 38.9921 119.536 38.3396C123.293 37.6871 126.157 38.5159 128.128 40.8261C130.121 43.1054 131.512 46.5177 132.301 51.063C133.1 55.6608 132.95 59.3949 131.851 62.2652C130.775 65.1046 128.358 66.8506 124.601 67.5031C120.844 68.1555 117.966 67.329 115.969 65.0234C113.994 62.687 112.607 59.2198 111.808 54.622ZM127.887 51.8296C127.518 49.7014 127.061 47.9268 126.516 46.5057C125.998 45.08 125.239 43.9803 124.238 43.2068C123.233 42.407 121.903 42.1508 120.248 42.4382C118.593 42.7257 117.427 43.4153 116.75 44.5072C116.069 45.5728 115.712 46.8663 115.678 48.3878C115.671 49.9047 115.852 51.7273 116.222 53.8554C116.605 56.0624 117.058 57.8919 117.581 59.3438C118.104 60.7958 118.866 61.9085 119.866 62.6821C120.893 63.4511 122.234 63.6919 123.889 63.4044C125.544 63.1169 126.712 62.4404 127.393 61.3749C128.101 60.3047 128.456 58.998 128.458 57.4548C128.461 55.9116 128.271 54.0365 127.887 51.8296Z" fill="#1E4364"/>
<path d="M112.246 43.5843L111.314 43.2227L111.313 43.2255L112.246 43.5843ZM128.128 40.8261L127.367 41.4752L127.375 41.4843L128.128 40.8261ZM131.851 62.2652L130.918 61.9078L130.916 61.9106L131.851 62.2652ZM115.969 65.0234L115.206 65.6691L115.213 65.6782L115.969 65.0234ZM126.516 46.5057L125.576 46.8473L125.579 46.8554L125.582 46.8635L126.516 46.5057ZM124.238 43.2068L123.615 43.9893L123.627 43.9979L124.238 43.2068ZM116.75 44.5072L117.593 45.0458L117.6 45.0339L116.75 44.5072ZM115.678 48.3878L114.679 48.3658L114.679 48.3744L114.678 48.3831L115.678 48.3878ZM117.581 59.3438L118.522 59.005L118.522 59.005L117.581 59.3438ZM119.866 62.6821L119.254 63.4732L119.26 63.4779L119.267 63.4825L119.866 62.6821ZM127.393 61.3749L126.559 60.8234L126.555 60.8298L126.551 60.8363L127.393 61.3749ZM128.458 57.4548L129.458 57.4565L128.458 57.4548ZM112.793 54.4509C112.02 49.9966 112.189 46.5207 113.179 43.9431L111.313 43.2255C110.141 46.2742 110.018 50.1568 110.823 54.7931L112.793 54.4509ZM113.178 43.9459C114.122 41.5134 116.196 39.9346 119.707 39.3248L119.365 37.3543C115.362 38.0495 112.576 39.9671 111.314 43.2227L113.178 43.9459ZM119.707 39.3248C123.219 38.7149 125.686 39.5049 127.367 41.4751L128.889 40.177C126.628 37.527 123.367 36.6593 119.365 37.3543L119.707 39.3248ZM127.375 41.4843C129.2 43.5713 130.543 46.782 131.316 51.2341L133.287 50.8919C132.481 46.2534 131.042 42.6394 128.881 40.1679L127.375 41.4843ZM131.316 51.2341C132.099 55.7394 131.926 59.2714 130.918 61.9078L132.785 62.6226C133.973 59.5184 134.101 55.5823 133.287 50.8919L131.316 51.2341ZM130.916 61.9106C129.998 64.3323 127.942 65.9079 124.43 66.5178L124.772 68.4883C128.774 67.7933 131.551 65.877 132.787 62.6197L130.916 61.9106ZM124.43 66.5178C120.918 67.1276 118.433 66.3406 116.725 64.3686L115.213 65.6782C117.5 68.3174 120.769 69.1835 124.772 68.4883L124.43 66.5178ZM116.733 64.3777C114.917 62.2303 113.576 58.9583 112.793 54.4509L110.823 54.7931C111.637 59.4813 113.07 63.1437 115.206 65.6691L116.733 64.3777ZM128.873 51.6584C128.496 49.4907 128.025 47.6487 127.45 46.1479L125.582 46.8635C126.096 48.2049 126.539 49.9121 126.902 52.0007L128.873 51.6584ZM127.456 46.164C126.886 44.5963 126.028 43.3263 124.85 42.4157L123.627 43.9979C124.45 44.6344 125.11 45.5636 125.576 46.8473L127.456 46.164ZM124.861 42.4243C123.569 41.3958 121.922 41.1326 120.077 41.453L120.419 43.4235C121.885 43.1689 122.898 43.4181 123.616 43.9892L124.861 42.4243ZM120.077 41.453C118.232 41.7733 116.77 42.5765 115.9 43.9805L117.6 45.0339C118.083 44.2542 118.953 43.678 120.419 43.4235L120.077 41.453ZM115.908 43.9686C115.109 45.2175 114.715 46.6984 114.679 48.3658L116.678 48.4098C116.709 47.0342 117.029 45.928 117.593 45.0457L115.908 43.9686ZM114.678 48.3831C114.671 49.9779 114.861 51.8625 115.237 54.0265L117.207 53.6843C116.844 51.592 116.672 49.8316 116.678 48.3926L114.678 48.3831ZM115.237 54.0265C115.626 56.2675 116.091 58.1578 116.64 59.6826L118.522 59.005C118.025 57.6259 117.585 55.8573 117.207 53.6843L115.237 54.0265ZM116.64 59.6826C117.213 61.2739 118.073 62.5599 119.254 63.4732L120.478 61.891C119.658 61.2571 118.995 60.3176 118.522 59.005L116.64 59.6826ZM119.267 63.4825C120.576 64.4635 122.222 64.7089 124.06 64.3897L123.718 62.4191C122.246 62.6748 121.209 62.4387 120.466 61.8817L119.267 63.4825ZM124.06 64.3897C125.897 64.0707 127.358 63.2863 128.236 61.9134L126.551 60.8363C126.066 61.5945 125.192 62.1632 123.718 62.4191L124.06 64.3897ZM128.228 61.9263C129.063 60.6624 129.455 59.155 129.458 57.4565L127.458 57.4531C127.456 58.841 127.138 59.947 126.559 60.8234L128.228 61.9263ZM129.458 57.4565C129.461 55.8359 129.262 53.8994 128.873 51.6584L126.902 52.0007C127.28 54.1736 127.461 55.9873 127.458 57.4531L129.458 57.4565Z" fill="#1E4364"/>
<path d="M139.351 49.0419C137.56 44.7905 136.875 41.1727 137.295 38.1885C137.731 35.1693 139.705 32.9193 143.219 31.4386C146.733 29.9579 149.711 30.1214 152.151 31.9291C154.605 33.7019 156.728 36.714 158.519 40.9653C160.331 45.2658 161.025 48.938 160.6 51.9817C160.189 54.9906 158.227 57.2354 154.713 58.7161C151.199 60.1968 148.209 60.0384 145.745 58.2411C143.294 56.4088 141.163 53.3424 139.351 49.0419ZM154.391 42.7049C153.552 40.7144 152.707 39.088 151.857 37.8257C151.032 36.5531 150.044 35.6524 148.896 35.1237C147.736 34.5704 146.383 34.6199 144.835 35.2722C143.286 35.9245 142.306 36.8587 141.892 38.0747C141.468 39.2662 141.411 40.6069 141.72 42.097C142.054 43.5767 142.641 45.3118 143.48 47.3023C144.349 49.3666 145.202 51.0473 146.038 52.3445C146.874 53.6416 147.866 54.5546 149.015 55.0834C150.189 55.6018 151.549 55.5348 153.098 54.8825C154.646 54.2301 155.632 53.3082 156.056 52.1168C156.504 50.915 156.556 49.562 156.212 48.0577C155.867 46.5534 155.26 44.7691 154.391 42.7049Z" fill="#1E4364"/>
<path d="M137.295 38.1885L136.306 38.0458L136.305 38.0488L137.295 38.1885ZM152.151 31.9291L151.555 32.7327L151.565 32.7398L152.151 31.9291ZM160.6 51.9817L159.609 51.8435L159.609 51.8465L160.6 51.9817ZM145.745 58.2411L145.146 59.042L145.155 59.049L145.745 58.2411ZM151.857 37.8257L151.018 38.37L151.023 38.3772L151.028 38.3844L151.857 37.8257ZM148.896 35.1237L148.465 36.0262L148.477 36.0321L148.896 35.1237ZM141.892 38.0747L142.834 38.41L142.839 38.3967L141.892 38.0747ZM141.72 42.097L140.741 42.3004L140.743 42.3088L140.745 42.3172L141.72 42.097ZM146.038 52.3445L146.879 51.8028L146.879 51.8028L146.038 52.3445ZM149.015 55.0834L148.597 55.9918L148.604 55.995L148.611 55.9981L149.015 55.0834ZM156.056 52.1168L155.119 51.7671L155.116 51.7743L155.114 51.7815L156.056 52.1168ZM156.212 48.0577L157.187 47.8345L156.212 48.0577ZM140.273 48.6536C138.517 44.4874 137.9 41.0625 138.286 38.3281L136.305 38.0488C135.849 41.2829 136.602 45.0937 138.43 49.4302L140.273 48.6536ZM138.285 38.3311C138.657 35.7488 140.323 33.744 143.608 32.3601L142.831 30.5171C139.087 32.0946 136.804 34.5897 136.306 38.0458L138.285 38.3311ZM143.608 32.3601C146.892 30.9761 149.474 31.1909 151.555 32.7327L152.746 31.1256C149.947 29.0519 146.574 28.9398 142.831 30.5171L143.608 32.3601ZM151.565 32.7398C153.812 34.363 155.843 37.1894 157.597 41.3536L159.441 40.577C157.612 36.2386 155.397 33.0408 152.736 31.1185L151.565 32.7398ZM157.597 41.3536C159.373 45.5676 160 49.0478 159.609 51.8435L161.59 52.12C162.05 48.8281 161.289 44.9641 159.441 40.577L157.597 41.3536ZM159.609 51.8465C159.259 54.4127 157.609 56.4104 154.325 57.7945L155.101 59.6376C158.845 58.0603 161.12 55.5685 161.591 52.1169L159.609 51.8465ZM154.325 57.7945C151.04 59.1784 148.442 58.9703 146.334 57.4331L145.155 59.049C147.977 61.1065 151.357 61.2151 155.101 59.6376L154.325 57.7945ZM146.344 57.4402C144.091 55.7561 142.049 52.8695 140.273 48.6536L138.43 49.4302C140.277 53.8152 142.497 57.0614 145.146 59.0419L146.344 57.4402ZM155.312 42.3166C154.458 40.2891 153.584 38.6001 152.687 37.2671L151.028 38.3844C151.83 39.5759 152.646 41.1397 153.469 43.0932L155.312 42.3166ZM152.696 37.2815C151.788 35.8821 150.666 34.8377 149.314 34.2153L148.477 36.0321C149.423 36.4672 150.275 37.2241 151.018 38.37L152.696 37.2815ZM149.326 34.2212C147.836 33.5097 146.172 33.6236 144.446 34.3507L145.223 36.1937C146.594 35.6161 147.637 35.631 148.465 36.0261L149.326 34.2212ZM144.446 34.3507C142.721 35.0777 141.477 36.189 140.945 37.7527L142.839 38.3967C143.134 37.5284 143.852 36.7714 145.223 36.1937L144.446 34.3507ZM140.95 37.7395C140.453 39.1359 140.402 40.6675 140.741 42.3004L142.699 41.8936C142.42 40.5464 142.483 39.3965 142.834 38.41L140.95 37.7395ZM140.745 42.3172C141.096 43.8729 141.705 45.6666 142.558 47.6906L144.401 46.914C143.576 44.957 143.013 43.2805 142.696 41.8767L140.745 42.3172ZM142.558 47.6906C143.441 49.7866 144.32 51.5239 145.198 52.8861L146.879 51.8028C146.085 50.5706 145.257 48.9465 144.401 46.914L142.558 47.6906ZM145.198 52.8861C146.114 54.3079 147.241 55.3675 148.597 55.9918L149.433 54.175C148.492 53.7417 147.634 52.9754 146.879 51.8028L145.198 52.8861ZM148.611 55.9981C150.108 56.6594 151.766 56.5285 153.486 55.804L152.709 53.9609C151.332 54.5411 150.269 54.5441 149.419 54.1687L148.611 55.9981ZM153.486 55.804C155.204 55.0802 156.452 53.9872 156.998 52.4521L155.114 51.7815C154.812 52.6293 154.088 53.38 152.709 53.9609L153.486 55.804ZM156.993 52.4665C157.522 51.0472 157.566 49.4901 157.187 47.8345L155.237 48.2809C155.547 49.6338 155.486 50.7828 155.119 51.7671L156.993 52.4665ZM157.187 47.8345C156.825 46.2547 156.195 44.4126 155.312 42.3166L153.469 43.0932C154.325 45.1256 154.91 46.8521 155.237 48.2809L157.187 47.8345Z" fill="#1E4364"/>
<path d="M164.933 37.4105C162.232 33.6709 160.751 30.2998 160.49 27.2973C160.235 24.2576 161.653 21.6212 164.744 19.3882C167.835 17.1551 170.773 16.6449 173.557 17.8576C176.347 19.033 179.093 21.4906 181.794 25.2302C184.527 29.013 186.029 32.4351 186.299 35.4964C186.576 38.5205 185.168 41.1491 182.077 43.3821C178.986 45.6152 176.038 46.1332 173.232 44.9361C170.432 43.7018 167.666 41.1933 164.933 37.4105ZM178.163 27.8536C176.898 26.1027 175.709 24.7079 174.597 23.6691C173.506 22.6148 172.342 21.9592 171.103 21.7023C169.85 21.4239 168.542 21.7765 167.18 22.7603C165.818 23.7441 165.072 24.8749 164.943 26.1528C164.798 27.4091 165.043 28.7284 165.68 30.1107C166.338 31.4773 167.3 33.0361 168.565 34.787C169.877 36.6028 171.086 38.0486 172.192 39.1246C173.298 40.2006 174.47 40.867 175.709 41.1238C176.969 41.3651 178.279 40.9938 179.641 40.01C181.003 39.0262 181.757 37.9062 181.902 36.6499C182.069 35.378 181.815 34.0479 181.141 32.6597C180.467 31.2714 179.474 29.6694 178.163 27.8536Z" fill="#1E4364"/>
<path d="M160.49 27.2973L159.493 27.3809L159.493 27.3839L160.49 27.2973ZM173.557 17.8576L173.157 18.7745L173.168 18.7792L173.557 17.8576ZM186.299 35.4964L185.303 35.5844L185.303 35.5875L186.299 35.4964ZM173.232 44.9361L172.829 45.8512L172.84 45.8559L173.232 44.9361ZM174.597 23.6691L173.902 24.3881L173.908 24.3941L173.914 24.4L174.597 23.6691ZM171.103 21.7023L170.887 22.6786L170.9 22.6815L171.103 21.7023ZM164.943 26.1528L165.936 26.2676L165.938 26.2537L164.943 26.1528ZM165.68 30.1107L164.772 30.529L164.776 30.5369L164.779 30.5446L165.68 30.1107ZM172.192 39.1246L172.889 38.4077L172.889 38.4077L172.192 39.1246ZM175.709 41.1238L175.506 42.103L175.513 42.1045L175.521 42.106L175.709 41.1238ZM181.902 36.6499L180.91 36.5199L180.909 36.5275L180.908 36.5351L181.902 36.6499ZM181.141 32.6597L182.041 32.2229L181.141 32.6597ZM165.744 36.8249C163.097 33.1601 161.725 29.9618 161.486 27.2107L159.493 27.3839C159.776 30.6378 161.367 34.1816 164.123 37.9961L165.744 36.8249ZM161.486 27.2137C161.268 24.6139 162.44 22.2858 165.329 20.1988L164.158 18.5776C160.865 20.9567 159.201 23.9013 159.493 27.3809L161.486 27.2137ZM165.329 20.1988C168.219 18.1114 170.783 17.7402 173.157 18.7744L173.956 16.9408C170.762 15.5497 167.451 16.1988 164.158 18.5776L165.329 20.1988ZM173.168 18.7792C175.723 19.8555 178.337 22.1528 180.983 25.8157L182.605 24.6446C179.848 20.8283 176.97 18.2106 173.945 16.936L173.168 18.7792ZM180.983 25.8157C183.661 29.5225 185.054 32.7726 185.303 35.5844L187.295 35.4083C187.003 32.0975 185.392 28.5035 182.605 24.6446L180.983 25.8157ZM185.303 35.5875C185.539 38.1666 184.381 40.4842 181.492 42.5715L182.663 44.1927C185.956 41.814 187.612 38.8744 187.295 35.4053L185.303 35.5875ZM181.492 42.5715C178.603 44.6586 176.024 45.0402 173.625 44.0163L172.84 45.8559C176.051 47.2262 179.37 46.5718 182.663 44.1927L181.492 42.5715ZM173.636 44.0211C171.062 42.8866 168.423 40.5333 165.744 36.8249L164.123 37.9961C166.909 41.8533 169.803 44.517 172.829 45.8512L173.636 44.0211ZM178.973 27.268C177.685 25.4845 176.454 24.0353 175.279 22.9383L173.914 24.4C174.964 25.3805 176.111 26.7208 177.352 28.4392L178.973 27.268ZM175.292 22.9502C174.093 21.7908 172.764 21.0255 171.307 20.7232L170.9 22.6815C171.919 22.8928 172.92 23.4388 173.902 24.3881L175.292 22.9502ZM171.32 20.7261C169.708 20.368 168.112 20.8532 166.594 21.9497L167.766 23.5709C168.971 22.6998 169.991 22.4797 170.887 22.6785L171.32 20.7261ZM166.594 21.9497C165.077 23.0462 164.115 24.4087 163.948 26.052L165.938 26.2537C166.03 25.3412 166.56 24.442 167.766 23.5709L166.594 21.9497ZM163.949 26.038C163.779 27.5104 164.074 29.0142 164.772 30.529L166.588 29.6923C166.013 28.4425 165.816 27.3078 165.936 26.2676L163.949 26.038ZM164.779 30.5446C165.471 31.9814 166.468 33.5922 167.754 35.3726L169.376 34.2014C168.132 32.48 167.206 30.9732 166.581 29.6767L164.779 30.5446ZM167.754 35.3726C169.086 37.2163 170.333 38.7115 171.495 39.8414L172.889 38.4077C171.838 37.3857 170.667 35.9892 169.376 34.2014L167.754 35.3726ZM171.495 39.8414C172.707 41.0207 174.044 41.7997 175.506 42.103L175.912 40.1447C174.897 39.9342 173.889 39.3804 172.889 38.4077L171.495 39.8414ZM175.521 42.106C177.128 42.4137 178.714 41.9133 180.227 40.8206L179.056 39.1994C177.845 40.0743 176.809 40.3164 175.897 40.1417L175.521 42.106ZM180.227 40.8206C181.738 39.7291 182.708 38.3833 182.895 36.7647L180.908 36.5351C180.805 37.429 180.268 38.3233 179.056 39.1994L180.227 40.8206ZM182.893 36.7799C183.09 35.2779 182.782 33.7509 182.041 32.2229L180.241 33.0964C180.848 34.3449 181.047 35.4782 180.91 36.5199L182.893 36.7799ZM182.041 32.2229C181.333 30.765 180.305 29.1117 178.973 27.268L177.352 28.4392C178.643 30.227 179.601 31.7777 180.241 33.0964L182.041 32.2229Z" fill="#1E4364"/>
</svg>
