<svg width="284" height="130" viewBox="0 0 284 130" fill="none" xmlns="http://www.w3.org/2000/svg">
<path d="M21.4406 48.7052C23.2886 46.7094 25.4061 45.3447 27.7933 44.6113C30.2 43.896 32.6035 43.8318 35.0037 44.4188C37.4416 45.0043 39.6096 46.1757 41.5076 47.9331C43.6796 49.9441 45.1087 52.2668 45.795 54.901C46.5191 57.5339 46.3568 60.1819 45.3082 62.8452L41.2871 59.1221C41.7552 57.5568 41.7643 56.0751 41.3142 54.6772C40.8641 53.2792 40.0227 52.0096 38.79 50.8682C37.4399 49.6181 35.9557 48.8072 34.3374 48.4354C32.7191 48.0637 31.0813 48.1645 29.4239 48.7377C27.7861 49.3291 26.2697 50.3781 24.8747 51.8848C23.4796 53.3915 22.5502 54.984 22.0865 56.6625C21.6422 58.359 21.6586 60.0095 22.1355 61.614C22.6304 63.1989 23.553 64.6164 24.9032 65.8665C26.1359 67.0079 27.4665 67.7492 28.8949 68.0905C30.3232 68.4318 31.7998 68.309 33.3246 67.7219L37.3457 71.445C34.7708 72.6952 32.1431 73.0605 29.4624 72.5409C26.8013 72.0395 24.3847 70.7832 22.2128 68.7722C20.2952 66.9967 18.9515 64.935 18.1819 62.587C17.4303 60.2194 17.3187 57.8083 17.8469 55.3537C18.3948 52.9173 19.5927 50.7011 21.4406 48.7052Z" fill="#1E4364"/>
<path d="M27.7933 44.6113L27.5084 43.6527L27.4996 43.6554L27.7933 44.6113ZM35.0037 44.4188L34.7661 45.3902L34.7702 45.3911L35.0037 44.4188ZM45.795 54.901L44.8273 55.1532L44.8308 55.1662L45.795 54.901ZM45.3082 62.8452L44.6288 63.579L45.7026 64.5732L46.2387 63.2116L45.3082 62.8452ZM41.2871 59.1221L40.329 58.8356L40.1505 59.4326L40.6077 59.8559L41.2871 59.1221ZM41.3142 54.6772L42.2661 54.3707L41.3142 54.6772ZM34.3374 48.4354L34.1135 49.4101L34.1135 49.4101L34.3374 48.4354ZM29.4239 48.7377L29.097 47.7926L29.0843 47.7972L29.4239 48.7377ZM22.0865 56.6625L21.1225 56.3961L21.1191 56.4092L22.0865 56.6625ZM22.1355 61.614L21.1768 61.8989L21.1809 61.9121L22.1355 61.614ZM28.8949 68.0905L28.6624 69.0632L28.8949 68.0905ZM33.3246 67.7219L34.004 66.9882L33.5468 66.5649L32.9653 66.7887L33.3246 67.7219ZM37.3457 71.445L37.7824 72.3446L39.0988 71.7055L38.0251 70.7113L37.3457 71.445ZM29.4624 72.5409L29.6527 71.5592L29.6475 71.5582L29.4624 72.5409ZM18.1819 62.587L17.2287 62.8895L17.2316 62.8985L18.1819 62.587ZM17.8469 55.3537L16.8712 55.1343L16.8693 55.1433L17.8469 55.3537ZM22.1744 49.3846C23.9136 47.5062 25.8832 46.2443 28.087 45.5672L27.4996 43.6554C24.9291 44.4452 22.6635 45.9125 20.7068 48.0258L22.1744 49.3846ZM28.0782 45.5699C30.3178 44.9042 32.541 44.846 34.7661 45.3901L35.2412 43.4474C32.6659 42.8176 30.0822 42.8878 27.5084 43.6527L28.0782 45.5699ZM34.7702 45.3911C37.036 45.9353 39.0517 47.0221 40.8282 48.6669L42.187 47.1993C40.1674 45.3294 37.8472 44.0733 35.2372 43.4464L34.7702 45.3911ZM40.8282 48.6669C42.8728 50.5599 44.1934 52.7198 44.8274 55.1532L46.7627 54.6489C46.0241 51.8137 44.4863 49.3283 42.187 47.1993L40.8282 48.6669ZM44.8308 55.1662C45.4946 57.5799 45.3511 60.0065 44.3777 62.4789L46.2387 63.2116C47.3624 60.3574 47.5435 57.4878 46.7593 54.6359L44.8308 55.1662ZM45.9876 62.1115L41.9665 58.3884L40.6077 59.8559L44.6288 63.579L45.9876 62.1115ZM42.2452 59.4087C42.7645 57.6723 42.785 55.9825 42.2661 54.3707L40.3623 54.9836C40.7435 56.1677 40.746 57.4413 40.329 58.8356L42.2452 59.4087ZM42.2661 54.3707C41.7562 52.787 40.8098 51.3755 39.4694 50.1344L38.1106 51.602C39.2357 52.6437 39.9721 53.7715 40.3623 54.9836L42.2661 54.3707ZM39.4694 50.1344C38.0053 48.7788 36.3677 47.8758 34.5613 47.4608L34.1135 49.4101C35.5436 49.7386 36.8745 50.4574 38.1106 51.602L39.4694 50.1344ZM34.5613 47.4608C32.7498 47.0447 30.9212 47.1617 29.097 47.7927L29.7508 49.6828C31.2414 49.1672 32.6884 49.0827 34.1135 49.4101L34.5613 47.4608ZM29.0843 47.7972C27.2714 48.4518 25.6251 49.6024 24.1409 51.2054L25.6084 52.5642C26.9143 51.1539 28.3009 50.2064 29.7635 49.6783L29.0843 47.7972ZM24.1409 51.2054C22.6567 52.8084 21.6359 54.5382 21.1226 56.3961L23.0503 56.9288C23.4645 55.4299 24.3026 53.9745 25.6084 52.5642L24.1409 51.2054ZM21.1191 56.4092C20.6309 58.2737 20.6454 60.1106 21.1769 61.8989L23.094 61.3291C22.6717 59.9084 22.6536 58.4443 23.0538 56.9158L21.1191 56.4092ZM21.1809 61.9121C21.7335 63.6813 22.7596 65.2446 24.2238 66.6003L25.5826 65.1327C24.3464 63.9882 23.5274 62.7165 23.09 61.3159L21.1809 61.9121ZM24.2238 66.6003C25.5641 67.8413 27.0442 68.6765 28.6624 69.0632L29.1273 67.1179C27.8887 66.822 26.7077 66.1744 25.5826 65.1327L24.2238 66.6003ZM28.6624 69.0632C30.3094 69.4567 31.9925 69.3063 33.6839 68.6552L32.9653 66.7887C31.6071 67.3116 30.3371 67.407 29.1273 67.1179L28.6624 69.0632ZM32.6452 68.4557L36.6663 72.1788L38.0251 70.7113L34.004 66.9882L32.6452 68.4557ZM36.9089 70.5455C34.5186 71.706 32.1102 72.0355 29.6526 71.5592L29.2721 73.5227C32.1759 74.0855 35.023 73.6844 37.7824 72.3446L36.9089 70.5455ZM29.6475 71.5582C27.1884 71.0948 24.9394 69.934 22.8921 68.0385L21.5334 69.506C23.83 71.6325 26.4141 72.9841 29.2772 73.5236L29.6475 71.5582ZM22.8921 68.0385C21.0918 66.3715 19.8458 64.4526 19.1321 62.2755L17.2316 62.8985C18.0573 65.4173 19.4985 67.6219 21.5334 69.506L22.8921 68.0385ZM19.135 62.2844C18.4367 60.0846 18.3325 57.8504 18.8245 55.5641L16.8693 55.1433C16.3048 57.7662 16.4239 60.3541 17.2287 62.8895L19.135 62.2844ZM18.8226 55.5731C19.3283 53.3238 20.4352 51.263 22.1744 49.3846L20.7068 48.0258C18.7501 50.1392 17.4612 52.5108 16.8713 55.1344L18.8226 55.5731Z" fill="#1E4364"/>
<path d="M58.0287 87.3833L48.0194 81.4416L43.4002 85.305L39.3071 82.8752L62.0828 64.0196L66.6231 66.7148L60.9767 95.7387L56.8491 93.2885L58.0287 87.3833ZM58.8269 83.5311L61.5352 70.1139L51.019 78.8962L58.8269 83.5311Z" fill="#1E4364"/>
<path d="M58.0287 87.3833L59.0093 87.5792L59.148 86.8849L58.5392 86.5234L58.0287 87.3833ZM48.0194 81.4416L48.5299 80.5817L47.921 80.2203L47.3779 80.6746L48.0194 81.4416ZM43.4002 85.305L42.8898 86.1649L43.4986 86.5263L44.0418 86.0721L43.4002 85.305ZM39.3071 82.8752L38.6694 82.1049L37.5757 83.0104L38.7966 83.7351L39.3071 82.8752ZM62.0828 64.0196L62.5933 63.1597L61.9876 62.8002L61.4451 63.2493L62.0828 64.0196ZM66.6231 66.7148L67.6047 66.9058L67.7392 66.2144L67.1336 65.8549L66.6231 66.7148ZM60.9767 95.7387L60.4662 96.5986L61.6871 97.3234L61.9583 95.9297L60.9767 95.7387ZM56.8491 93.2885L55.8685 93.0926L55.7298 93.787L56.3387 94.1484L56.8491 93.2885ZM58.8269 83.5311L58.3165 84.391L59.5283 85.1104L59.8072 83.729L58.8269 83.5311ZM61.5352 70.1139L62.5155 70.3118L63.0786 67.5222L60.8943 69.3463L61.5352 70.1139ZM51.019 78.8962L50.378 78.1286L49.2932 79.0346L50.5085 79.7561L51.019 78.8962ZM58.5392 86.5234L48.5299 80.5817L47.509 82.3015L57.5183 88.2433L58.5392 86.5234ZM47.3779 80.6746L42.7587 84.5379L44.0418 86.0721L48.661 82.2087L47.3779 80.6746ZM43.9107 84.4451L39.8175 82.0153L38.7966 83.7351L42.8898 86.1649L43.9107 84.4451ZM39.9448 83.6455L62.7205 64.7899L61.4451 63.2493L38.6694 82.1049L39.9448 83.6455ZM61.5724 64.8795L66.1127 67.5747L67.1336 65.8549L62.5933 63.1597L61.5724 64.8795ZM65.6415 66.5239L59.9951 95.5477L61.9583 95.9297L67.6047 66.9058L65.6415 66.5239ZM61.4871 94.8788L57.3596 92.4286L56.3387 94.1484L60.4662 96.5986L61.4871 94.8788ZM57.8298 93.4844L59.0093 87.5792L57.0481 87.1875L55.8685 93.0926L57.8298 93.4844ZM59.8072 83.729L62.5155 70.3118L60.555 69.916L57.8467 83.3333L59.8072 83.729ZM60.8943 69.3463L50.378 78.1286L51.66 79.6637L62.1762 70.8814L60.8943 69.3463ZM50.5085 79.7561L58.3165 84.391L59.3374 82.6712L51.5295 78.0363L50.5085 79.7561Z" fill="#1E4364"/>
<path d="M73.0206 86.16C73.8878 83.5819 75.2597 81.4691 77.1363 79.8214C79.0381 78.1822 81.204 77.1383 83.6339 76.6896C86.0975 76.2241 88.5552 76.4037 91.0068 77.2284C93.8124 78.1721 96.0682 79.7046 97.7742 81.8259C99.514 83.9304 100.452 86.4122 100.587 89.2713L95.3932 87.5241C95.1784 85.9045 94.5791 84.5494 93.5955 83.4588C92.6119 82.3683 91.3239 81.5552 89.7315 81.0196C87.9876 80.433 86.3014 80.3019 84.673 80.6263C83.0445 80.9507 81.592 81.7141 80.3154 82.9165C79.064 84.1274 78.111 85.7059 77.4563 87.6521C76.8017 89.5983 76.6069 91.4319 76.8721 93.1529C77.1625 94.8824 77.8541 96.3811 78.9468 97.649C80.0481 98.8917 81.4708 99.8063 83.2147 100.393C84.8071 100.929 86.3246 101.059 87.7674 100.785C89.2101 100.511 90.5065 99.7931 91.6566 98.6325L96.8506 100.38C95.0147 102.576 92.7677 103.986 90.1096 104.611C87.4769 105.245 84.7577 105.09 81.9522 104.146C79.4752 103.313 77.4044 101.983 75.7397 100.157C74.0836 98.3061 72.9932 96.1528 72.4687 93.6974C71.9694 91.2505 72.1534 88.7381 73.0206 86.16Z" fill="#1E4364"/>
<path d="M77.1363 79.8214L76.4834 79.0639L76.4765 79.0699L77.1363 79.8214ZM83.6339 76.6896L83.8155 77.6729L83.8195 77.6722L83.6339 76.6896ZM97.7742 81.8259L96.9949 82.4527L97.0035 82.4631L97.7742 81.8259ZM100.587 89.2713L100.268 90.2191L101.655 90.6857L101.586 89.224L100.587 89.2713ZM95.3932 87.5241L94.4019 87.6556L94.4838 88.2733L95.0744 88.472L95.3932 87.5241ZM93.5955 83.4588L94.3381 82.7891L93.5955 83.4588ZM84.673 80.6263L84.8683 81.607L84.8683 81.607L84.673 80.6263ZM80.3154 82.9165L79.6297 82.1885L79.62 82.1979L80.3154 82.9165ZM76.8721 93.1529L75.8836 93.3052L75.8859 93.3185L76.8721 93.1529ZM78.9468 97.649L78.1893 98.3019L78.1985 98.3123L78.9468 97.649ZM87.7674 100.785L87.9542 101.767L87.7674 100.785ZM91.6566 98.6325L91.9754 97.6847L91.3848 97.486L90.9462 97.9286L91.6566 98.6325ZM96.8506 100.38L97.6178 101.021L98.5564 99.8984L97.1694 99.4319L96.8506 100.38ZM90.1096 104.611L89.8807 103.638L89.8756 103.639L90.1096 104.611ZM75.7397 100.157L74.9944 100.824L75.0007 100.831L75.7397 100.157ZM72.4687 93.6974L71.4888 93.8973L71.4907 93.9063L72.4687 93.6974ZM73.9684 86.4788C74.7845 84.0525 76.0636 82.094 77.796 80.5728L76.4765 79.0699C74.4558 80.8442 72.991 83.1114 72.0728 85.8412L73.9684 86.4788ZM77.7891 80.5789C79.559 79.0535 81.5628 78.0889 83.8155 77.6729L83.4523 75.7062C80.8451 76.1876 78.5173 77.311 76.4834 79.0639L77.7891 80.5789ZM83.8195 77.6722C86.1093 77.2395 88.3934 77.4043 90.688 78.1762L91.3257 76.2806C88.7169 75.403 86.0857 75.2086 83.4482 75.7069L83.8195 77.6722ZM90.688 78.1762C93.329 79.0646 95.419 80.4931 96.9949 82.4526L98.5534 81.1992C96.7173 78.9161 94.2957 77.2796 91.3257 76.2806L90.688 78.1762ZM97.0035 82.4631C98.5985 84.3924 99.4625 86.6645 99.5883 89.3187L101.586 89.224C101.441 86.1599 100.43 83.4684 98.5449 81.1887L97.0035 82.4631ZM100.906 88.3235L95.712 86.5763L95.0744 88.472L100.268 90.2191L100.906 88.3235ZM96.3845 87.3927C96.1462 85.596 95.4722 84.0464 94.3381 82.7891L92.8529 84.1286C93.6861 85.0523 94.2105 86.2129 94.4019 87.6556L96.3845 87.3927ZM94.3381 82.7891C93.2237 81.5536 91.7817 80.6542 90.0504 80.0718L89.4127 81.9674C90.866 82.4563 92 83.183 92.8529 84.1286L94.3381 82.7891ZM90.0504 80.0718C88.1591 79.4356 86.2954 79.2834 84.4776 79.6456L84.8683 81.607C86.3074 81.3203 87.816 81.4303 89.4127 81.9674L90.0504 80.0718ZM84.4776 79.6456C82.6548 80.0087 81.0348 80.8652 79.6297 82.1885L81.001 83.6445C82.1492 82.5631 83.4343 81.8927 84.8683 81.607L84.4776 79.6456ZM79.62 82.1979C78.2348 83.5382 77.205 85.2627 76.5085 87.3333L78.4041 87.9709C79.0169 86.1492 79.8932 84.7165 81.0108 83.6351L79.62 82.1979ZM76.5085 87.3333C75.812 89.4039 75.5902 91.4001 75.8837 93.3051L77.8604 93.0006C77.6236 91.4636 77.7914 89.7927 78.4041 87.9709L76.5085 87.3333ZM75.8859 93.3185C76.205 95.2193 76.9714 96.8888 78.1894 98.3019L79.7043 96.9962C78.7367 95.8735 78.1199 94.5455 77.8582 92.9873L75.8859 93.3185ZM78.1985 98.3123C79.4278 99.6994 81.0047 100.705 82.8959 101.341L83.5336 99.4451C81.9368 98.908 80.6685 98.0839 79.6952 96.9858L78.1985 98.3123ZM82.8959 101.341C84.6273 101.923 86.3197 102.078 87.9542 101.767L87.5806 99.8025C86.3295 100.04 84.9869 99.934 83.5336 99.4451L82.8959 101.341ZM87.9542 101.767C89.6177 101.451 91.0912 100.624 92.3669 99.3364L90.9462 97.9286C89.9219 98.9624 88.8026 99.5701 87.5806 99.8025L87.9542 101.767ZM91.3377 99.5803L96.5318 101.327L97.1694 99.4319L91.9754 97.6847L91.3377 99.5803ZM96.0834 99.7383C94.3791 101.777 92.3175 103.065 89.8807 103.638L90.3386 105.585C93.2178 104.908 95.6502 103.374 97.6178 101.021L96.0834 99.7383ZM89.8756 103.639C87.4427 104.225 84.9155 104.088 82.271 103.198L81.6334 105.094C84.6 106.092 87.5111 106.265 90.3436 105.584L89.8756 103.639ZM82.271 103.198C79.9455 102.416 78.0223 101.177 76.4787 99.4837L75.0007 100.831C76.7866 102.79 79.005 104.21 81.6334 105.094L82.271 103.198ZM76.485 99.4907C74.9462 97.7706 73.9352 95.7755 73.4466 93.4885L71.4907 93.9063C72.0512 96.53 73.2209 98.8416 74.9944 100.824L76.485 99.4907ZM73.4485 93.4975C72.9875 91.2385 73.1522 88.9052 73.9684 86.4788L72.0728 85.8412C71.1545 88.5709 70.9512 91.2625 71.4888 93.8973L73.4485 93.4975Z" fill="#1E4364"/>
<path d="M130.08 85.0324L127.022 112.664L122.49 112.162L123.827 100.076L110.827 98.6375L109.489 110.724L104.957 110.222L108.015 82.5908L112.547 83.0924L111.236 94.9401L124.237 96.3786L125.548 84.5309L130.08 85.0324Z" fill="#1E4364"/>
<path d="M130.08 85.0324L131.074 85.1424L131.184 84.1485L130.19 84.0385L130.08 85.0324ZM127.022 112.664L126.912 113.658L127.906 113.768L128.016 112.774L127.022 112.664ZM122.49 112.162L121.496 112.052L121.386 113.046L122.38 113.156L122.49 112.162ZM123.827 100.076L124.821 100.186L124.931 99.1921L123.937 99.0821L123.827 100.076ZM110.827 98.6375L110.937 97.6436L109.943 97.5336L109.833 98.5275L110.827 98.6375ZM109.489 110.724L109.379 111.718L110.373 111.828L110.483 110.834L109.489 110.724ZM104.957 110.222L103.963 110.112L103.853 111.106L104.847 111.216L104.957 110.222ZM108.015 82.5908L108.125 81.5969L107.131 81.4869L107.021 82.4809L108.015 82.5908ZM112.547 83.0924L113.541 83.2023L113.651 82.2084L112.657 82.0984L112.547 83.0924ZM111.236 94.9401L110.242 94.8301L110.132 95.824L111.126 95.934L111.236 94.9401ZM124.237 96.3786L124.127 97.3725L125.121 97.4825L125.231 96.4886L124.237 96.3786ZM125.548 84.5309L125.658 83.537L124.664 83.427L124.554 84.4209L125.548 84.5309ZM129.086 84.9224L126.028 112.554L128.016 112.774L131.074 85.1424L129.086 84.9224ZM127.132 111.67L122.6 111.168L122.38 113.156L126.912 113.658L127.132 111.67ZM123.484 112.272L124.821 100.186L122.834 99.9661L121.496 112.052L123.484 112.272ZM123.937 99.0821L110.937 97.6436L110.717 99.6314L123.717 101.07L123.937 99.0821ZM109.833 98.5275L108.495 110.614L110.483 110.834L111.821 98.7475L109.833 98.5275ZM109.599 109.73L105.067 109.228L104.847 111.216L109.379 111.718L109.599 109.73ZM105.951 110.332L109.008 82.7008L107.021 82.4809L103.963 110.112L105.951 110.332ZM107.905 83.5848L112.437 84.0863L112.657 82.0984L108.125 81.5969L107.905 83.5848ZM111.553 82.9824L110.242 94.8301L112.23 95.05L113.541 83.2023L111.553 82.9824ZM111.126 95.934L124.127 97.3725L124.347 95.3847L111.346 93.9461L111.126 95.934ZM125.231 96.4886L126.541 84.6409L124.554 84.4209L123.243 96.2686L125.231 96.4886ZM125.438 85.5248L129.97 86.0264L130.19 84.0385L125.658 83.537L125.438 85.5248Z" fill="#1E4364"/>
<path d="M151.962 111.854C149.39 112.131 146.953 111.789 144.651 110.83C142.372 109.842 140.481 108.342 138.977 106.331C137.497 104.291 136.612 101.919 136.321 99.2144C136.03 96.51 136.392 94.0169 137.407 91.7353C138.449 89.4508 139.979 87.5965 141.999 86.1724C144.041 84.7189 146.349 83.8539 148.921 83.5773C151.519 83.2978 153.958 83.6524 156.236 84.641C158.539 85.6003 160.429 87.0867 161.906 89.1003C163.383 91.1139 164.267 93.4729 164.558 96.1773C164.849 98.8817 164.488 101.388 163.476 103.696C162.46 105.978 160.931 107.845 158.888 109.299C156.869 110.723 154.56 111.575 151.962 111.854ZM151.539 107.917C153.368 107.72 154.954 107.134 156.298 106.158C157.638 105.155 158.623 103.843 159.253 102.219C159.907 100.566 160.124 98.7193 159.905 96.6778C159.685 94.6362 159.082 92.8907 158.094 91.4414C157.133 89.9891 155.893 88.929 154.373 88.2611C152.853 87.5931 151.178 87.3576 149.348 87.5543C147.519 87.7511 145.933 88.3374 144.589 89.3133C143.246 90.2893 142.246 91.5903 141.589 93.2165C140.959 94.8399 140.754 96.6723 140.974 98.7139C141.193 100.755 141.785 102.516 142.749 103.994C143.736 105.444 144.991 106.516 146.514 107.21C148.034 107.878 149.709 108.114 151.539 107.917Z" fill="#1E4364"/>
<path d="M144.651 110.83L144.253 111.748L144.259 111.75L144.266 111.753L144.651 110.83ZM138.977 106.331L138.167 106.918L138.172 106.924L138.176 106.93L138.977 106.331ZM137.407 91.7353L136.497 91.3204L136.493 91.3288L137.407 91.7353ZM141.999 86.1724L142.575 86.9896L142.578 86.9872L141.999 86.1724ZM156.236 84.641L155.838 85.5584L155.845 85.5613L155.852 85.5641L156.236 84.641ZM161.906 89.1003L161.099 89.6918L161.906 89.1003ZM163.476 103.696L164.389 104.103L164.391 104.098L163.476 103.696ZM158.888 109.299L159.465 110.116L159.468 110.114L158.888 109.299ZM156.298 106.158L156.886 106.967L156.897 106.959L156.298 106.158ZM159.253 102.219L158.324 101.851L158.321 101.857L159.253 102.219ZM158.094 91.4414L157.26 91.9932L157.268 92.0043L158.094 91.4414ZM154.373 88.2611L153.971 89.1766L154.373 88.2611ZM144.589 89.3134L145.177 90.1224L145.177 90.1224L144.589 89.3134ZM141.589 93.2165L140.662 92.8421L140.657 92.8547L141.589 93.2165ZM142.749 103.994L141.911 104.54L141.916 104.549L141.922 104.557L142.749 103.994ZM146.514 107.21L146.099 108.12L146.112 108.126L146.514 107.21ZM151.855 110.86C149.444 111.119 147.177 110.799 145.035 109.907L144.266 111.753C146.73 112.78 149.336 113.142 152.069 112.848L151.855 110.86ZM145.049 109.913C142.931 108.994 141.178 107.605 139.778 105.732L138.176 106.93C139.783 109.079 141.812 110.689 144.253 111.748L145.049 109.913ZM139.786 105.744C138.417 103.856 137.589 101.653 137.315 99.1074L135.326 99.3213C135.634 102.185 136.577 104.726 138.167 106.918L139.786 105.744ZM137.315 99.1074C137.041 96.5622 137.384 94.2482 138.321 92.1418L136.493 91.3288C135.4 93.7857 135.018 96.4577 135.326 99.3213L137.315 99.1074ZM138.317 92.1502C139.286 90.0242 140.703 88.3098 142.575 86.9896L141.422 85.3552C139.256 86.8832 137.611 88.8773 136.497 91.3204L138.317 92.1502ZM142.578 86.9872C144.477 85.6363 146.621 84.8304 149.028 84.5715L148.814 82.583C146.077 82.8773 143.606 83.8015 141.419 85.3576L142.578 86.9872ZM149.028 84.5715C151.463 84.3096 153.727 84.6423 155.838 85.5584L156.634 83.7237C154.188 82.6625 151.575 82.286 148.814 82.583L149.028 84.5715ZM155.852 85.5641C157.986 86.4533 159.73 87.8249 161.099 89.6918L162.712 88.5088C161.127 86.3486 159.092 84.7474 156.621 83.7179L155.852 85.5641ZM161.099 89.6918C162.463 91.5508 163.29 93.739 163.564 96.2843L165.552 96.0704C165.244 93.2068 164.303 90.6771 162.712 88.5088L161.099 89.6918ZM163.564 96.2843C163.837 98.8294 163.497 101.159 162.56 103.295L164.391 104.098C165.479 101.617 165.86 98.9341 165.552 96.0704L163.564 96.2843ZM162.562 103.29C161.62 105.407 160.206 107.134 158.309 108.484L159.468 110.114C161.656 108.557 163.301 106.549 164.389 104.103L162.562 103.29ZM158.312 108.482C156.44 109.802 154.295 110.598 151.855 110.86L152.069 112.848C154.826 112.552 157.299 111.644 159.465 110.116L158.312 108.482ZM151.645 108.911C153.629 108.698 155.386 108.056 156.885 106.967L155.71 105.349C154.523 106.211 153.107 106.742 151.432 106.923L151.645 108.911ZM156.897 106.959C158.393 105.839 159.491 104.372 160.186 102.581L158.321 101.857C157.756 103.313 156.883 104.471 155.699 105.357L156.897 106.959ZM160.183 102.587C160.905 100.762 161.133 98.7484 160.899 96.5708L158.91 96.7847C159.115 98.6903 158.909 100.371 158.324 101.851L160.183 102.587ZM160.899 96.5708C160.665 94.3938 160.015 92.4852 158.921 90.8784L157.268 92.0043C158.148 93.2963 158.705 94.8787 158.91 96.7847L160.899 96.5708ZM158.928 90.8896C157.867 89.2853 156.48 88.0946 154.775 87.3456L153.971 89.1766C155.306 89.7634 156.4 90.6929 157.26 91.9931L158.928 90.8896ZM154.775 87.3456C153.078 86.5999 151.225 86.3467 149.242 86.5601L149.455 88.5486C151.13 88.3684 152.627 88.5863 153.971 89.1766L154.775 87.3456ZM149.242 86.5601C147.258 86.7734 145.501 87.4149 144.002 88.5043L145.177 90.1224C146.364 89.26 147.78 88.7287 149.455 88.5486L149.242 86.5601ZM144.002 88.5043C142.498 89.5967 141.385 91.0523 140.662 92.8422L142.517 93.5909C143.107 92.1283 143.994 90.9818 145.177 90.1224L144.002 88.5043ZM140.657 92.8547C139.96 94.6516 139.746 96.6487 139.98 98.8208L141.968 98.6069C141.763 96.6959 141.959 95.0281 142.522 93.5783L140.657 92.8547ZM139.98 98.8208C140.213 100.993 140.848 102.91 141.911 104.54L143.586 103.448C142.722 102.122 142.174 100.517 141.968 98.6069L139.98 98.8208ZM141.922 104.557C143.007 106.15 144.402 107.346 146.099 108.12L146.929 106.3C145.58 105.685 144.465 104.737 143.575 103.431L141.922 104.557ZM146.112 108.126C147.809 108.871 149.662 109.125 151.645 108.911L151.432 106.923C149.757 107.103 148.26 106.885 146.916 106.295L146.112 108.126Z" fill="#1E4364"/>
<path d="M190.063 102.963L180.53 94.3755L177.222 95.4547L180.67 106.026L176.335 107.441L167.714 81.0111L176.84 78.034C178.869 77.3725 180.696 77.1692 182.322 77.4243C183.973 77.671 185.335 78.2785 186.408 79.2468C187.507 80.2068 188.296 81.422 188.775 82.8924C189.338 84.6164 189.343 86.3536 188.792 88.1041C188.259 89.821 187.035 91.272 185.121 92.4571L195.235 101.276L190.063 102.963ZM176.093 91.9941L180.884 90.4312C182.507 89.9019 183.591 89.0994 184.138 88.0235C184.71 86.9393 184.773 85.7127 184.326 84.3437C183.88 82.9747 183.127 82.0422 182.067 81.5463C181 81.025 179.642 81.0331 177.994 81.5707L173.203 83.1336L176.093 91.9941Z" fill="#1E4364"/>
<path d="M190.063 102.963L189.394 103.706L189.823 104.093L190.373 103.913L190.063 102.963ZM180.53 94.3755L181.199 93.6325L180.77 93.2455L180.22 93.4248L180.53 94.3755ZM177.222 95.4547L176.911 94.504L175.961 94.8141L176.271 95.7648L177.222 95.4547ZM180.67 106.026L180.98 106.977L181.931 106.667L181.621 105.716L180.67 106.026ZM176.335 107.441L175.384 107.751L175.694 108.701L176.645 108.391L176.335 107.441ZM167.714 81.0111L167.404 80.0604L166.453 80.3705L166.763 81.3212L167.714 81.0111ZM182.322 77.4243L182.167 78.4122L182.174 78.4133L182.322 77.4243ZM186.408 79.2468L185.738 79.9893L185.744 79.9946L185.75 79.9998L186.408 79.2468ZM188.792 88.1041L187.839 87.8038L187.838 87.8071L188.792 88.1041ZM185.121 92.4571L184.595 91.607L183.443 92.3204L184.464 93.2108L185.121 92.4571ZM195.235 101.276L195.545 102.226L197.22 101.68L195.892 100.522L195.235 101.276ZM176.093 91.9941L175.142 92.3042L175.452 93.2549L176.403 92.9448L176.093 91.9941ZM184.138 88.0235L183.254 87.5569L183.25 87.5637L183.247 87.5705L184.138 88.0235ZM182.067 81.5463L181.629 82.4449L181.636 82.4485L181.643 82.452L182.067 81.5463ZM173.203 83.1336L172.892 82.1829L171.942 82.493L172.252 83.4437L173.203 83.1336ZM190.732 102.22L181.199 93.6325L179.861 95.1185L189.394 103.706L190.732 102.22ZM180.22 93.4248L176.911 94.504L177.532 96.4054L180.84 95.3262L180.22 93.4248ZM176.271 95.7648L179.719 106.337L181.621 105.716L178.172 95.1446L176.271 95.7648ZM180.36 105.076L176.025 106.49L176.645 108.391L180.98 106.977L180.36 105.076ZM177.285 107.13L168.664 80.701L166.763 81.3212L175.384 107.751L177.285 107.13ZM168.024 81.9618L177.151 78.9847L176.53 77.0833L167.404 80.0604L168.024 81.9618ZM177.151 78.9847C179.072 78.3581 180.736 78.1877 182.167 78.4122L182.477 76.4363C180.656 76.1507 178.666 76.3869 176.53 77.0833L177.151 78.9847ZM182.174 78.4133C183.662 78.6356 184.833 79.1722 185.738 79.9893L187.078 78.5043C185.837 77.3848 184.284 76.7064 182.469 76.4352L182.174 78.4133ZM185.75 79.9998C186.705 80.834 187.398 81.8927 187.825 83.2025L189.726 82.5823C189.194 80.9513 188.309 79.5796 187.066 78.4938L185.75 79.9998ZM187.825 83.2025C188.322 84.7258 188.328 86.2496 187.839 87.8038L189.746 88.4043C190.359 86.4576 190.354 84.5069 189.726 82.5823L187.825 83.2025ZM187.838 87.8071C187.392 89.2405 186.357 90.5156 184.595 91.607L185.648 93.3072C187.713 92.0283 189.125 90.4014 189.747 88.401L187.838 87.8071ZM184.464 93.2108L194.577 102.029L195.892 100.522L185.779 91.7034L184.464 93.2108ZM194.925 100.325L189.753 102.012L190.373 103.913L195.545 102.226L194.925 100.325ZM176.403 92.9448L181.194 91.3819L180.574 89.4805L175.783 91.0434L176.403 92.9448ZM181.194 91.3819C182.963 90.8048 184.32 89.8722 185.03 88.4765L183.247 87.5705C182.862 88.3266 182.05 88.999 180.574 89.4805L181.194 91.3819ZM185.022 88.4901C185.743 87.1249 185.791 85.6112 185.277 84.0336L183.375 84.6538C183.754 85.8143 183.677 86.7538 183.254 87.5569L185.022 88.4901ZM185.277 84.0336C184.766 82.467 183.857 81.28 182.491 80.6406L181.643 82.452C182.396 82.8045 182.993 83.4825 183.375 84.6538L185.277 84.0336ZM182.506 80.6477C181.117 79.9693 179.466 80.0386 177.684 80.62L178.304 82.5214C179.818 82.0276 180.883 82.0807 181.629 82.4449L182.506 80.6477ZM177.684 80.62L172.892 82.1829L173.513 84.0843L178.304 82.5214L177.684 80.62ZM172.252 83.4437L175.142 92.3042L177.043 91.684L174.153 82.8235L172.252 83.4437Z" fill="#1E4364"/>
<path d="M218.46 89.6953L207.478 83.0608L204.433 84.7448L209.814 94.4762L205.823 96.6827L192.371 72.3542L200.772 67.7088C202.639 66.6765 204.395 66.1322 206.04 66.0759C207.708 66.0067 209.16 66.3464 210.397 67.0948C211.657 67.8303 212.661 68.8748 213.409 70.2283C214.287 71.8152 214.62 73.5202 214.409 75.3432C214.209 77.13 213.281 78.7858 211.625 80.3106L223.221 87.0629L218.46 89.6953ZM202.671 81.5593L207.082 79.1205C208.576 78.2946 209.489 77.3018 209.823 76.1421C210.18 74.9695 210.01 73.7531 209.314 72.493C208.617 71.2328 207.701 70.4591 206.568 70.1719C205.421 69.8614 204.089 70.1255 202.572 70.9643L198.161 73.4031L202.671 81.5593Z" fill="#1E4364"/>
<path d="M218.46 89.6953L217.943 90.5512L218.438 90.8502L218.944 90.5704L218.46 89.6953ZM207.478 83.0608L207.995 82.2049L207.5 81.9059L206.994 82.1857L207.478 83.0608ZM204.433 84.7448L203.949 83.8696L203.074 84.3535L203.558 85.2287L204.433 84.7448ZM209.814 94.4762L210.298 95.3513L211.173 94.8674L210.689 93.9923L209.814 94.4762ZM205.823 96.6827L204.948 97.1666L205.432 98.0417L206.307 97.5578L205.823 96.6827ZM192.371 72.3542L191.887 71.4791L191.012 71.963L191.496 72.8381L192.371 72.3542ZM206.04 66.0759L206.074 67.0754L206.081 67.0751L206.04 66.0759ZM210.397 67.0948L209.879 67.9503L209.886 67.9544L209.893 67.9584L210.397 67.0948ZM214.409 75.3432L213.416 75.2283L213.415 75.2317L214.409 75.3432ZM211.625 80.3106L210.948 79.5751L209.951 80.493L211.122 81.1748L211.625 80.3106ZM223.221 87.0629L223.704 87.938L225.246 87.0854L223.724 86.1987L223.221 87.0629ZM202.671 81.5593L201.796 82.0432L202.28 82.9183L203.155 82.4344L202.671 81.5593ZM209.823 76.1421L208.866 75.8508L208.864 75.8581L208.862 75.8655L209.823 76.1421ZM206.568 70.1719L206.306 71.1372L206.314 71.1393L206.322 71.1413L206.568 70.1719ZM198.161 73.4031L197.678 72.528L196.802 73.0119L197.286 73.887L198.161 73.4031ZM218.977 88.8393L207.995 82.2049L206.961 83.9167L217.943 90.5512L218.977 88.8393ZM206.994 82.1857L203.949 83.8696L204.917 85.6199L207.962 83.9359L206.994 82.1857ZM203.558 85.2287L208.939 94.96L210.689 93.9923L205.308 84.2609L203.558 85.2287ZM209.33 93.601L205.339 95.8076L206.307 97.5578L210.298 95.3513L209.33 93.601ZM206.698 96.1988L193.246 71.8703L191.496 72.8381L204.948 97.1666L206.698 96.1988ZM192.855 73.2294L201.256 68.584L200.288 66.8337L191.887 71.4791L192.855 73.2294ZM201.256 68.584C203.024 67.6061 204.626 67.1249 206.074 67.0753L206.005 65.0765C204.163 65.1396 202.253 65.7469 200.288 66.8337L201.256 68.584ZM206.081 67.0751C207.584 67.0127 208.835 67.3188 209.879 67.9503L210.914 66.2393C209.485 65.3739 207.832 65.0007 205.998 65.0768L206.081 67.0751ZM209.893 67.9584C210.987 68.5975 211.867 69.5065 212.534 70.7122L214.284 69.7444C213.454 68.2431 212.326 67.063 210.901 66.2312L209.893 67.9584ZM212.534 70.7122C213.309 72.1144 213.603 73.6097 213.416 75.2283L215.403 75.4581C215.637 73.4307 215.264 71.5161 214.284 69.7444L212.534 70.7122ZM213.415 75.2317C213.248 76.7234 212.472 78.1709 210.948 79.5751L212.303 81.0462C214.089 79.4006 215.169 77.5365 215.403 75.4547L213.415 75.2317ZM211.122 81.1748L222.717 87.927L223.724 86.1987L212.128 79.4465L211.122 81.1748ZM222.737 86.1877L217.976 88.8201L218.944 90.5704L223.704 87.938L222.737 86.1877ZM203.155 82.4344L207.566 79.9956L206.598 78.2453L202.187 80.6842L203.155 82.4344ZM207.566 79.9956C209.194 79.0951 210.351 77.9232 210.784 76.4188L208.862 75.8655C208.627 76.6804 207.957 77.4941 206.598 78.2453L207.566 79.9956ZM210.78 76.4335C211.229 74.9569 210.992 73.4612 210.189 72.0091L208.438 72.9769C209.029 74.0451 209.131 74.9821 208.866 75.8508L210.78 76.4335ZM210.189 72.0091C209.391 70.567 208.275 69.5727 206.813 69.2025L206.322 71.1413C207.128 71.3455 207.842 71.8986 208.438 72.9769L210.189 72.0091ZM206.829 69.2067C205.337 68.8026 203.729 69.1821 202.088 70.0892L203.056 71.8394C204.449 71.069 205.505 70.9202 206.306 71.1372L206.829 69.2067ZM202.088 70.0892L197.678 72.528L198.645 74.2783L203.056 71.8394L202.088 70.0892ZM197.286 73.887L201.796 82.0432L203.546 81.0754L199.037 72.9192L197.286 73.887Z" fill="#1E4364"/>
<path d="M242.69 72.6077C240.734 74.3001 238.536 75.408 236.097 75.9313C233.661 76.4169 231.253 76.2618 228.871 75.4659C226.493 74.6323 224.414 73.187 222.634 71.1301C220.854 69.0732 219.732 66.8179 219.266 64.3644C218.821 61.8934 219.022 59.4976 219.871 57.1768C220.722 54.8184 222.125 52.793 224.081 51.1005C226.058 49.3906 228.264 48.2928 230.7 47.8071C233.139 47.2838 235.539 47.4289 237.9 48.2423C240.261 49.0557 242.331 50.4909 244.111 52.5478C245.891 54.6047 247.022 56.8701 247.505 59.3437C247.97 61.7973 247.778 64.2032 246.927 66.5616C246.078 68.8824 244.666 70.8977 242.69 72.6077ZM240.099 69.613C241.49 68.4091 242.46 67.0234 243.008 65.4561C243.539 63.8686 243.6 62.2283 243.193 60.5352C242.789 58.8045 241.915 57.1627 240.572 55.61C239.228 54.0572 237.738 52.9664 236.101 52.3377C234.484 51.6915 232.86 51.5269 231.23 51.8439C229.601 52.161 228.09 52.9215 226.698 54.1254C225.307 55.3293 224.337 56.715 223.789 58.2823C223.241 59.8497 223.16 61.4886 223.547 63.1991C223.954 64.8922 224.83 66.5152 226.173 68.0679C227.517 69.6207 229.006 70.7303 230.64 71.3967C232.277 72.0254 233.919 72.1913 235.567 71.8945C237.197 71.5774 238.707 70.8169 240.099 69.613Z" fill="#1E4364"/>
<path d="M236.097 75.9313L236.293 76.912L236.3 76.9106L236.307 76.909L236.097 75.9313ZM228.871 75.4659L228.541 76.4096L228.547 76.412L228.554 76.4143L228.871 75.4659ZM219.266 64.3644L218.282 64.5418L218.284 64.5508L219.266 64.3644ZM219.871 57.1768L220.81 57.5201L220.811 57.5162L219.871 57.1768ZM230.7 47.8071L230.895 48.7878L230.902 48.7864L230.91 48.7849L230.7 47.8071ZM237.9 48.2423L237.574 49.1878L237.9 48.2423ZM247.505 59.3437L248.487 59.1573L248.486 59.1521L247.505 59.3437ZM246.927 66.5616L247.866 66.9049L247.867 66.901L246.927 66.5616ZM243.008 65.4561L243.952 65.7862L243.956 65.7731L243.008 65.4561ZM243.193 60.5352L242.22 60.7627L242.221 60.7689L243.193 60.5352ZM236.101 52.3377L235.73 53.2663L235.742 53.2712L236.101 52.3377ZM231.23 51.8439L231.421 52.8255L231.23 51.8439ZM223.789 58.2823L224.733 58.6124L224.733 58.6124L223.789 58.2823ZM223.547 63.1991L222.572 63.4197L222.575 63.4329L223.547 63.1991ZM230.64 71.3967L230.262 72.3227L230.272 72.3265L230.282 72.3302L230.64 71.3967ZM235.567 71.8945L235.744 72.8787L235.758 72.8761L235.567 71.8945ZM242.035 71.8514C240.202 73.4381 238.156 74.4669 235.888 74.9535L236.307 76.909C238.917 76.3491 241.266 75.1622 243.344 73.3639L242.035 71.8514ZM235.902 74.9506C233.638 75.4018 231.406 75.2588 229.188 74.5174L228.554 76.4143C231.099 77.2648 233.684 77.4321 236.293 76.912L235.902 74.9506ZM229.202 74.5221C227.001 73.7508 225.065 72.4116 223.39 70.4758L221.878 71.7844C223.762 73.9625 225.984 75.5138 228.541 76.4096L229.202 74.5221ZM223.39 70.4758C221.715 68.5399 220.678 66.4431 220.249 64.178L218.284 64.5508C218.785 67.1928 219.993 69.6064 221.878 71.7844L223.39 70.4758ZM220.25 64.187C219.836 61.8876 220.023 59.6716 220.81 57.5201L218.931 56.8335C218.021 59.3236 217.806 61.8993 218.282 64.5418L220.25 64.187ZM220.811 57.5162C221.602 55.3242 222.905 53.4408 224.736 51.8567L223.427 50.3443C221.346 52.1451 219.841 54.3126 218.93 56.8374L220.811 57.5162ZM224.736 51.8567C226.588 50.254 228.638 49.2378 230.895 48.7878L230.504 46.8264C227.889 47.3477 225.527 48.5272 223.427 50.3443L224.736 51.8567ZM230.91 48.7849C233.17 48.2999 235.385 48.4336 237.574 49.1878L238.225 47.2968C235.692 46.4242 233.107 46.2678 230.49 46.8294L230.91 48.7849ZM237.574 49.1878C239.754 49.9387 241.68 51.2662 243.355 53.2021L244.867 51.8935C242.983 49.7155 240.768 48.1727 238.225 47.2968L237.574 49.1878ZM243.355 53.2021C245.03 55.1379 246.077 57.2464 246.523 59.5354L248.486 59.1521C247.967 56.4937 246.752 54.0716 244.867 51.8935L243.355 53.2021ZM246.522 59.5301C246.954 61.8071 246.776 64.0315 245.986 66.2222L247.867 66.901C248.779 64.375 248.986 61.7875 248.487 59.1573L246.522 59.5301ZM245.987 66.2183C245.201 68.3702 243.891 70.2461 242.035 71.8514L243.344 73.3639C245.441 71.5494 246.956 69.3946 247.866 66.9049L245.987 66.2183ZM240.753 70.3692C242.262 69.0637 243.34 67.5358 243.952 65.7862L242.064 65.126C241.58 66.5111 240.718 67.7545 239.444 68.8568L240.753 70.3692ZM243.956 65.7731C244.549 64.0005 244.615 62.169 244.166 60.3014L242.221 60.7689C242.586 62.2875 242.528 63.7366 242.06 65.1391L243.956 65.7731ZM244.167 60.3077C243.721 58.3963 242.761 56.6119 241.328 54.9556L239.815 56.2643C241.07 57.7136 241.858 59.2127 242.22 60.7627L244.167 60.3077ZM241.328 54.9556C239.895 53.2998 238.274 52.1012 236.459 51.4041L235.742 53.2712C237.202 53.8316 238.561 54.8145 239.815 56.2643L241.328 54.9556ZM236.472 51.4091C234.686 50.6952 232.867 50.5068 231.04 50.8623L231.421 52.8255C232.853 52.547 234.282 52.6877 235.73 53.2662L236.472 51.4091ZM231.04 50.8623C229.22 51.2163 227.553 52.0636 226.044 53.3692L227.353 54.8816C228.627 53.7794 229.981 53.1057 231.421 52.8255L231.04 50.8623ZM226.044 53.3692C224.535 54.6747 223.457 56.2026 222.845 57.9522L224.733 58.6124C225.217 57.2273 226.079 55.9839 227.353 54.8816L226.044 53.3692ZM222.845 57.9522C222.232 59.7067 222.146 61.5371 222.572 63.4197L224.523 62.9786C224.175 61.4401 224.25 59.9927 224.733 58.6124L222.845 57.9522ZM222.575 63.4329C223.026 65.307 223.987 67.0702 225.417 68.7223L226.929 67.4136C225.672 65.9601 224.883 64.4774 224.52 62.9654L222.575 63.4329ZM225.417 68.7223C226.847 70.3747 228.46 71.5878 230.262 72.3227L231.018 70.4707C229.551 69.8728 228.187 68.8668 226.929 67.4136L225.417 68.7223ZM230.282 72.3302C232.081 73.0212 233.908 73.2095 235.744 72.8786L235.389 70.9103C233.931 71.1732 232.474 71.0296 230.999 70.4631L230.282 72.3302ZM235.758 72.8761C237.577 72.5221 239.244 71.6748 240.753 70.3692L239.444 68.8568C238.17 69.959 236.816 70.6327 235.376 70.9129L235.758 72.8761Z" fill="#1E4364"/>
</svg>
