<svg width="334" height="141" viewBox="0 0 334 141" fill="none" xmlns="http://www.w3.org/2000/svg">
<path d="M21.8406 34.591L29.2504 24.1168L27.7906 20.9577L17.6962 25.6223L15.7834 21.4829L41.0194 9.82151L45.0463 18.5361C45.9412 20.4726 46.3574 22.2632 46.2948 23.9078C46.2434 25.5766 45.7999 27.0007 44.9641 28.18C44.1396 29.3836 43.0253 30.3097 41.6213 30.9585C39.9752 31.7192 38.2507 31.9286 36.4476 31.5867C34.68 31.2578 33.0955 30.2128 31.6941 28.4515L24.1226 39.5293L21.8406 34.591ZM31.0949 19.4309L33.209 24.006C33.9249 25.5553 34.8492 26.5382 35.9818 26.9549C37.1255 27.3958 38.351 27.3142 39.6582 26.7102C40.9654 26.1061 41.8031 25.249 42.1714 24.1388C42.5638 23.0174 42.3965 21.67 41.6694 20.0965L39.5553 15.5214L31.0949 19.4309Z" fill="#1E4364"/>
<path d="M21.8406 34.591L21.0243 34.0135L20.6903 34.4856L20.9329 35.0105L21.8406 34.591ZM29.2504 24.1168L30.0668 24.6943L30.4007 24.2222L30.1582 23.6973L29.2504 24.1168ZM27.7906 20.9577L28.6984 20.5383L28.2789 19.6305L27.3711 20.05L27.7906 20.9577ZM17.6962 25.6223L16.7885 26.0418L17.2079 26.9495L18.1157 26.5301L17.6962 25.6223ZM15.7834 21.4829L15.364 20.5751L14.4562 20.9946L14.8757 21.9023L15.7834 21.4829ZM41.0194 9.82151L41.9272 9.40203L41.5077 8.49427L40.5999 8.91374L41.0194 9.82151ZM46.2948 23.9078L45.2955 23.8698L45.2953 23.8771L46.2948 23.9078ZM44.9641 28.18L44.1482 27.6019L44.1436 27.6083L44.1392 27.6149L44.9641 28.18ZM36.4476 31.5867L36.6339 30.6042L36.6305 30.6036L36.4476 31.5867ZM31.6941 28.4515L32.4766 27.8289L31.633 26.7687L30.8685 27.8872L31.6941 28.4515ZM24.1226 39.5293L23.2148 39.9488L23.9539 41.5482L24.9482 40.0936L24.1226 39.5293ZM31.0949 19.4309L30.6754 18.5231L29.7677 18.9426L30.1871 19.8503L31.0949 19.4309ZM35.9818 26.9549L36.3414 26.0218L36.3343 26.0191L36.327 26.0164L35.9818 26.9549ZM42.1714 24.1388L41.2275 23.8085L41.2248 23.8162L41.2222 23.824L42.1714 24.1388ZM39.5553 15.5214L40.4631 15.1019L40.0436 14.1941L39.1358 14.6136L39.5553 15.5214ZM22.657 35.1686L30.0668 24.6943L28.434 23.5393L21.0243 34.0135L22.657 35.1686ZM30.1582 23.6973L28.6984 20.5383L26.8829 21.3772L28.3426 24.5363L30.1582 23.6973ZM27.3711 20.05L17.2768 24.7145L18.1157 26.5301L28.2101 21.8655L27.3711 20.05ZM18.604 25.2028L16.6912 21.0634L14.8757 21.9023L16.7885 26.0418L18.604 25.2028ZM16.2029 22.3906L41.4389 10.7293L40.5999 8.91374L15.364 20.5751L16.2029 22.3906ZM40.1116 10.241L44.1386 18.9556L45.9541 18.1166L41.9272 9.40203L40.1116 10.241ZM44.1386 18.9556C44.9862 20.79 45.3506 22.4224 45.2955 23.8698L47.2941 23.9459C47.3641 22.104 46.8962 20.1553 45.9541 18.1166L44.1386 18.9556ZM45.2953 23.8771C45.249 25.3806 44.8534 26.6067 44.1482 27.6019L45.78 28.7582C46.7463 27.3947 47.2378 25.7727 47.2943 23.9386L45.2953 23.8771ZM44.1392 27.6149C43.4227 28.6607 42.4525 29.4728 41.2019 30.0508L42.0408 31.8663C43.5981 31.1467 44.8566 30.1064 45.7891 28.7452L44.1392 27.6149ZM41.2019 30.0508C39.7474 30.7229 38.2348 30.9077 36.6339 30.6042L36.2613 32.5692C38.2665 32.9494 40.2031 32.7155 42.0408 31.8663L41.2019 30.0508ZM36.6305 30.6036C35.1548 30.329 33.7671 29.4508 32.4766 27.8289L30.9116 29.0741C32.4239 30.9748 34.2052 32.1867 36.2647 32.5698L36.6305 30.6036ZM30.8685 27.8872L23.297 38.965L24.9482 40.0936L32.5197 29.0158L30.8685 27.8872ZM25.0303 39.1098L22.7484 34.1716L20.9329 35.0105L23.2148 39.9488L25.0303 39.1098ZM30.1871 19.8503L32.3013 24.4255L34.1168 23.5865L32.0027 19.0114L30.1871 19.8503ZM32.3013 24.4255C33.0818 26.1147 34.1672 27.3529 35.6365 27.8934L36.327 26.0164C35.5312 25.7236 34.768 24.9959 34.1168 23.5865L32.3013 24.4255ZM35.6221 27.888C37.0624 28.4432 38.5713 28.314 40.0777 27.6179L39.2387 25.8024C38.1307 26.3144 37.1887 26.3484 36.3414 26.0218L35.6221 27.888ZM40.0777 27.6179C41.5736 26.9267 42.6458 25.8848 43.1205 24.4536L41.2222 23.824C40.9604 24.6132 40.3572 25.2856 39.2387 25.8024L40.0777 27.6179ZM43.1152 24.4691C43.626 23.0098 43.3635 21.3787 42.5772 19.677L40.7617 20.516C41.4295 21.9613 41.5017 23.025 41.2275 23.8085L43.1152 24.4691ZM42.5772 19.677L40.4631 15.1019L38.6475 15.9408L40.7617 20.516L42.5772 19.677ZM39.1358 14.6136L30.6754 18.5231L31.5144 20.3386L39.9748 16.4291L39.1358 14.6136Z" fill="#1E4364"/>
<path d="M52.4131 39.2833L45.7321 43.9683L51.2438 51.8284L48.198 53.9642L42.6863 46.1041L35.7104 50.9957L41.9111 59.8383L38.8653 61.9741L30.0466 49.398L52.8409 33.414L61.6596 45.9902L58.6138 48.1259L52.4131 39.2833Z" fill="#1E4364"/>
<path d="M52.4131 39.2833L53.2319 38.7092L52.6578 37.8904L51.839 38.4646L52.4131 39.2833ZM45.7321 43.9683L45.1579 43.1495L44.3392 43.7237L44.9133 44.5424L45.7321 43.9683ZM51.2438 51.8284L51.8179 52.6471L52.6367 52.073L52.0625 51.2542L51.2438 51.8284ZM48.198 53.9642L47.3792 54.5383L47.9533 55.3571L48.7721 54.7829L48.198 53.9642ZM42.6863 46.1041L43.505 45.5299L42.9309 44.7112L42.1121 45.2853L42.6863 46.1041ZM35.7104 50.9957L35.1363 50.177L34.3175 50.7511L34.8917 51.5699L35.7104 50.9957ZM41.9111 59.8383L42.4852 60.6571L43.304 60.0829L42.7299 59.2642L41.9111 59.8383ZM38.8653 61.9741L38.0466 62.5482L38.6207 63.367L39.4395 62.7929L38.8653 61.9741ZM30.0466 49.398L29.4724 48.5792L28.6537 49.1533L29.2278 49.9721L30.0466 49.398ZM52.8409 33.414L53.6596 32.8399L53.0855 32.0211L52.2667 32.5952L52.8409 33.414ZM61.6596 45.9902L62.2337 46.8089L63.0525 46.2348L62.4784 45.416L61.6596 45.9902ZM58.6138 48.1259L57.795 48.7001L58.3692 49.5188L59.1879 48.9447L58.6138 48.1259ZM51.839 38.4646L45.1579 43.1495L46.3062 44.787L52.9873 40.1021L51.839 38.4646ZM44.9133 44.5424L50.425 52.4025L52.0625 51.2542L46.5508 43.3942L44.9133 44.5424ZM50.6696 51.0096L47.6238 53.1454L48.7721 54.7829L51.8179 52.6471L50.6696 51.0096ZM49.0167 53.39L43.505 45.5299L41.8675 46.6782L47.3792 54.5383L49.0167 53.39ZM42.1121 45.2853L35.1363 50.177L36.2846 51.8145L43.2604 46.9228L42.1121 45.2853ZM34.8917 51.5699L41.0923 60.4125L42.7299 59.2642L36.5292 50.4216L34.8917 51.5699ZM41.337 59.0196L38.2912 61.1553L39.4395 62.7929L42.4852 60.6571L41.337 59.0196ZM39.6841 61.4L30.8653 48.8238L29.2278 49.9721L38.0466 62.5482L39.6841 61.4ZM30.6207 50.2167L53.415 34.2328L52.2667 32.5952L29.4724 48.5792L30.6207 50.2167ZM52.0221 33.9881L60.8408 46.5643L62.4784 45.416L53.6596 32.8399L52.0221 33.9881ZM61.0855 45.1714L58.0397 47.3072L59.1879 48.9447L62.2337 46.8089L61.0855 45.1714ZM59.4326 47.5518L53.2319 38.7092L51.5944 39.8575L57.795 48.7001L59.4326 47.5518Z" fill="#1E4364"/>
<path d="M81.0711 66.1499L61.6954 86.0853L58.4254 82.9072L66.9006 74.1872L57.5209 65.0709L49.0457 73.7908L45.7758 70.6127L65.1515 50.6772L68.4214 53.8554L60.1136 62.4032L69.4933 71.5196L77.8011 62.9717L81.0711 66.1499Z" fill="#1E4364"/>
<path d="M81.0711 66.1499L81.7882 66.8469L82.4852 66.1297L81.7681 65.4328L81.0711 66.1499ZM61.6954 86.0853L60.9985 86.8024L61.7156 87.4994L62.4125 86.7823L61.6954 86.0853ZM58.4254 82.9072L57.7083 82.2102L57.0114 82.9273L57.7285 83.6243L58.4254 82.9072ZM66.9006 74.1872L67.6177 74.8842L68.3146 74.1671L67.5975 73.4701L66.9006 74.1872ZM57.5209 65.0709L58.2178 64.3538L57.5007 63.6568L56.8038 64.3739L57.5209 65.0709ZM49.0457 73.7908L48.3488 74.5079L49.0659 75.2049L49.7628 74.4878L49.0457 73.7908ZM45.7758 70.6127L45.0587 69.9157L44.3617 70.6328L45.0788 71.3298L45.7758 70.6127ZM65.1515 50.6772L65.8484 49.9601L65.1313 49.2631L64.4344 49.9802L65.1515 50.6772ZM68.4214 53.8554L69.1385 54.5523L69.8355 53.8352L69.1184 53.1383L68.4214 53.8554ZM60.1136 62.4032L59.3965 61.7063L58.6995 62.4234L59.4166 63.1203L60.1136 62.4032ZM69.4933 71.5196L68.7963 72.2367L69.5134 72.9336L70.2104 72.2165L69.4933 71.5196ZM77.8011 62.9717L78.4981 62.2546L77.781 61.5576L77.084 62.2747L77.8011 62.9717ZM80.354 65.4529L60.9783 85.3884L62.4125 86.7823L81.7882 66.8469L80.354 65.4529ZM62.3924 85.3682L59.1224 82.1901L57.7285 83.6243L60.9985 86.8024L62.3924 85.3682ZM59.1426 83.6041L67.6177 74.8842L66.1835 73.4902L57.7083 82.2102L59.1426 83.6041ZM67.5975 73.4701L58.2178 64.3538L56.8239 65.788L66.2036 74.9043L67.5975 73.4701ZM56.8038 64.3739L48.3286 73.0939L49.7628 74.4878L58.238 65.7678L56.8038 64.3739ZM49.7427 73.0737L46.4727 69.8956L45.0788 71.3298L48.3488 74.5079L49.7427 73.0737ZM46.4929 71.3096L65.8686 51.3742L64.4344 49.9802L45.0587 69.9157L46.4929 71.3096ZM64.4545 51.3943L67.7245 54.5725L69.1184 53.1383L65.8484 49.9601L64.4545 51.3943ZM67.7043 53.1584L59.3965 61.7063L60.8307 63.1002L69.1385 54.5523L67.7043 53.1584ZM59.4166 63.1203L68.7963 72.2367L70.1903 70.8025L60.8106 61.6861L59.4166 63.1203ZM70.2104 72.2165L78.5182 63.6687L77.084 62.2747L68.7762 70.8226L70.2104 72.2165ZM77.1042 63.6888L80.3742 66.867L81.7681 65.4328L78.4981 62.2546L77.1042 63.6888Z" fill="#1E4364"/>
<path d="M88.5394 97.8066L78.6843 91.6125L73.9685 95.3572L69.9384 92.8242L93.1859 74.5534L97.6562 77.3632L91.2741 106.234L87.2101 103.68L88.5394 97.8066ZM89.4352 93.9759L92.4836 80.6318L81.7476 89.1441L89.4352 93.9759Z" fill="#1E4364"/>
<path d="M88.5394 97.8066L89.5147 98.0273L89.671 97.3367L89.0715 96.96L88.5394 97.8066ZM78.6843 91.6125L79.2165 90.7658L78.617 90.389L78.0625 90.8293L78.6843 91.6125ZM73.9685 95.3572L73.4363 96.2038L74.0358 96.5806L74.5903 96.1403L73.9685 95.3572ZM69.9384 92.8242L69.3205 92.038L68.2041 92.9153L69.4062 93.6709L69.9384 92.8242ZM93.1859 74.5534L93.718 73.7068L93.1217 73.332L92.568 73.7672L93.1859 74.5534ZM97.6562 77.3632L98.6327 77.579L98.7847 76.8913L98.1884 76.5165L97.6562 77.3632ZM91.2741 106.234L90.7419 107.081L91.944 107.836L92.2505 106.45L91.2741 106.234ZM87.2101 103.68L86.2348 103.459L86.0785 104.15L86.678 104.527L87.2101 103.68ZM89.4352 93.9759L88.9031 94.8226L90.0963 95.5725L90.4101 94.1986L89.4352 93.9759ZM92.4836 80.6318L93.4585 80.8545L94.0923 78.0802L91.8624 79.8483L92.4836 80.6318ZM81.7476 89.1441L81.1263 88.3605L80.0188 89.2386L81.2155 89.9907L81.7476 89.1441ZM89.0715 96.96L79.2165 90.7658L78.1522 92.4591L88.0073 98.6533L89.0715 96.96ZM78.0625 90.8293L73.3466 94.5741L74.5903 96.1403L79.3062 92.3956L78.0625 90.8293ZM74.5006 94.5105L70.4705 91.9775L69.4062 93.6709L73.4363 96.2038L74.5006 94.5105ZM70.5563 93.6104L93.8038 75.3397L92.568 73.7672L69.3205 92.038L70.5563 93.6104ZM92.6538 75.4001L97.1241 78.2098L98.1884 76.5165L93.718 73.7068L92.6538 75.4001ZM96.6798 77.1473L90.2977 106.018L92.2505 106.45L98.6327 77.579L96.6798 77.1473ZM91.8062 105.388L87.7423 102.833L86.678 104.527L90.7419 107.081L91.8062 105.388ZM88.1855 103.901L89.5147 98.0273L87.5641 97.5859L86.2348 103.459L88.1855 103.901ZM90.4101 94.1986L93.4585 80.8545L91.5088 80.4091L88.4604 93.7532L90.4101 94.1986ZM91.8624 79.8483L81.1263 88.3605L82.3689 89.9276L93.1049 81.4154L91.8624 79.8483ZM81.2155 89.9907L88.9031 94.8226L89.9674 93.1293L82.2798 88.2974L81.2155 89.9907Z" fill="#1E4364"/>
<path d="M119.218 102.294C120.521 103.07 121.429 104.253 121.941 105.843C122.453 107.432 122.418 109 121.835 110.548C121.336 111.87 120.535 112.936 119.432 113.746C118.363 114.54 117.063 115.004 115.53 115.139C114.007 115.248 112.384 114.979 110.662 114.33L100.257 110.407L110.063 84.3941L119.982 88.1332C121.754 88.8011 123.163 89.6743 124.21 90.7529C125.257 91.8315 125.912 93.0046 126.175 94.2722C126.447 95.5149 126.348 96.76 125.878 98.0077C125.313 99.5048 124.444 100.602 123.269 101.299C122.094 101.996 120.744 102.328 119.218 102.294ZM110.21 96.9319L115.488 98.9213C116.885 99.4481 118.088 99.5454 119.097 99.2132C120.14 98.8654 120.887 98.0927 121.339 96.8949C121.781 95.7222 121.725 94.6609 121.171 93.7111C120.651 92.7458 119.693 91.9998 118.296 91.473L113.018 89.4835L110.21 96.9319ZM111.6 110.708C113.048 111.253 114.315 111.332 115.401 110.944C116.488 110.555 117.267 109.737 117.737 108.49C118.217 107.217 118.161 106.042 117.57 104.964C116.979 103.886 115.96 103.075 114.512 102.529L108.898 100.413L105.836 108.535L111.6 110.708Z" fill="#1E4364"/>
<path d="M119.218 102.294L119.24 101.294L115.444 101.21L118.706 103.153L119.218 102.294ZM121.941 105.843L122.893 105.536L122.893 105.536L121.941 105.843ZM119.432 113.746L118.84 112.939L118.836 112.943L119.432 113.746ZM115.53 115.139L115.602 116.136L115.61 116.136L115.617 116.135L115.53 115.139ZM100.257 110.407L99.3214 110.054L98.9687 110.99L99.9044 111.343L100.257 110.407ZM110.063 84.3941L110.416 83.4584L109.48 83.1057L109.128 84.0414L110.063 84.3941ZM124.21 90.7529L123.492 91.4494L123.492 91.4494L124.21 90.7529ZM126.175 94.2722L125.195 94.4755L125.198 94.4864L126.175 94.2722ZM123.269 101.299L123.78 102.159L123.78 102.159L123.269 101.299ZM110.21 96.9319L109.275 96.5791L108.922 97.5148L109.858 97.8676L110.21 96.9319ZM119.097 99.2132L119.41 100.163L119.413 100.162L119.097 99.2132ZM121.171 93.7111L120.29 94.1851L120.298 94.2001L120.307 94.2149L121.171 93.7111ZM113.018 89.4835L113.371 88.5478L112.435 88.1951L112.082 89.1308L113.018 89.4835ZM115.401 110.944L115.065 110.002L115.401 110.944ZM108.898 100.413L109.251 99.477L108.315 99.1243L107.962 100.06L108.898 100.413ZM105.836 108.535L104.901 108.182L104.548 109.118L105.483 109.471L105.836 108.535ZM118.706 103.153C119.779 103.792 120.544 104.766 120.989 106.149L122.893 105.536C122.314 103.74 121.264 102.348 119.73 101.435L118.706 103.153ZM120.989 106.149C121.433 107.526 121.401 108.862 120.899 110.195L122.77 110.9C123.434 109.139 123.474 107.338 122.893 105.536L120.989 106.149ZM120.899 110.195C120.466 111.342 119.782 112.248 118.84 112.939L120.024 114.552C121.288 113.624 122.206 112.398 122.77 110.9L120.899 110.195ZM118.836 112.943C117.937 113.61 116.82 114.021 115.442 114.142L115.617 116.135C117.305 115.987 118.789 115.469 120.028 114.548L118.836 112.943ZM115.458 114.141C114.106 114.239 112.629 114.002 111.015 113.394L110.31 115.265C112.139 115.955 113.908 116.258 115.602 116.136L115.458 114.141ZM111.015 113.394L100.61 109.471L99.9044 111.343L110.31 115.265L111.015 113.394ZM101.193 110.76L110.999 84.7469L109.128 84.0414L99.3214 110.054L101.193 110.76ZM109.711 85.3299L119.629 89.0689L120.335 87.1975L110.416 83.4584L109.711 85.3299ZM119.629 89.0689C121.298 89.698 122.571 90.5001 123.492 91.4494L124.927 90.0564C123.755 88.8485 122.209 87.9042 120.335 87.1975L119.629 89.0689ZM123.492 91.4494C124.428 92.4141 124.977 93.4221 125.195 94.4754L127.154 94.069C126.846 92.5871 126.085 91.2489 124.927 90.0564L123.492 91.4494ZM125.198 94.4864C125.427 95.5308 125.348 96.5792 124.942 97.6549L126.814 98.3604C127.349 96.9409 127.467 95.499 127.151 94.058L125.198 94.4864ZM124.942 97.6549C124.444 98.9776 123.706 99.877 122.759 100.439L123.78 102.159C125.182 101.327 126.183 100.032 126.814 98.3604L124.942 97.6549ZM122.759 100.439C121.763 101.03 120.602 101.324 119.24 101.294L119.196 103.294C120.886 103.331 122.425 102.963 123.78 102.159L122.759 100.439ZM109.858 97.8676L115.135 99.8571L115.84 97.9856L110.563 95.9961L109.858 97.8676ZM115.135 99.8571C116.661 100.432 118.111 100.591 119.41 100.163L118.784 98.2633C118.065 98.5 117.109 98.464 115.84 97.9856L115.135 99.8571ZM119.413 100.162C120.79 99.7026 121.736 98.6754 122.274 97.2477L120.403 96.5422C120.038 97.5099 119.489 98.0282 118.78 98.2645L119.413 100.162ZM122.274 97.2477C122.806 95.8375 122.763 94.4556 122.035 93.2073L120.307 94.2149C120.687 94.8662 120.756 95.6068 120.403 96.5422L122.274 97.2477ZM122.051 93.2372C121.382 91.9929 120.189 91.1182 118.648 90.5373L117.943 92.4087C119.196 92.8813 119.921 93.4987 120.29 94.1851L122.051 93.2372ZM118.648 90.5373L113.371 88.5478L112.665 90.4192L117.943 92.4087L118.648 90.5373ZM112.082 89.1308L109.275 96.5791L111.146 97.2846L113.954 89.8363L112.082 89.1308ZM111.248 111.643C112.841 112.244 114.362 112.377 115.738 111.885L115.065 110.002C114.267 110.287 113.254 110.263 111.953 109.772L111.248 111.643ZM115.738 111.885C117.146 111.382 118.117 110.318 118.673 108.843L116.801 108.137C116.417 109.157 115.831 109.728 115.065 110.002L115.738 111.885ZM118.673 108.843C119.243 107.33 119.194 105.846 118.447 104.483L116.693 105.445C117.128 106.238 117.19 107.105 116.801 108.137L118.673 108.843ZM118.447 104.483C117.714 103.147 116.476 102.201 114.865 101.593L114.16 103.465C115.443 103.949 116.244 104.626 116.693 105.445L118.447 104.483ZM114.865 101.593L109.251 99.477L108.545 101.348L114.16 103.465L114.865 101.593ZM107.962 100.06L104.901 108.182L106.772 108.888L109.834 100.765L107.962 100.06ZM105.483 109.471L111.248 111.643L111.953 109.772L106.189 107.599L105.483 109.471Z" fill="#1E4364"/>
<path d="M140.309 93.9254L134.428 121.096L129.971 120.131L135.853 92.9607L140.309 93.9254Z" fill="#1E4364"/>
<path d="M140.309 93.9254L141.287 94.1369L141.498 93.1596L140.521 92.948L140.309 93.9254ZM134.428 121.096L134.217 122.074L135.194 122.285L135.405 121.308L134.428 121.096ZM129.971 120.131L128.994 119.92L128.782 120.897L129.76 121.109L129.971 120.131ZM135.853 92.9607L136.064 91.9833L135.087 91.7717L134.875 92.7491L135.853 92.9607ZM139.332 93.7138L133.451 120.885L135.405 121.308L141.287 94.1369L139.332 93.7138ZM134.64 120.119L130.183 119.154L129.76 121.109L134.217 122.074L134.64 120.119ZM130.949 120.343L136.83 93.1722L134.875 92.7491L128.994 119.92L130.949 120.343ZM135.641 93.938L140.098 94.9027L140.521 92.948L136.064 91.9833L135.641 93.938Z" fill="#1E4364"/>
<path d="M150.82 119.854L160.181 120.707L159.847 124.372L145.944 123.104L148.468 95.4191L153.009 95.8331L150.82 119.854Z" fill="#1E4364"/>
<path d="M150.82 119.854L149.824 119.763L149.733 120.759L150.729 120.849L150.82 119.854ZM160.181 120.707L161.177 120.798L161.267 119.802L160.272 119.711L160.181 120.707ZM159.847 124.372L159.756 125.368L160.752 125.458L160.843 124.462L159.847 124.372ZM145.944 123.104L144.948 123.014L144.858 124.009L145.854 124.1L145.944 123.104ZM148.468 95.4191L148.559 94.4233L147.563 94.3325L147.472 95.3283L148.468 95.4191ZM153.009 95.8331L154.005 95.9239L154.096 94.928L153.1 94.8372L153.009 95.8331ZM150.729 120.849L160.09 121.703L160.272 119.711L150.91 118.858L150.729 120.849ZM159.185 120.616L158.851 124.281L160.843 124.462L161.177 120.798L159.185 120.616ZM159.937 123.376L146.035 122.108L145.854 124.1L159.756 125.368L159.937 123.376ZM146.94 123.195L149.464 95.5099L147.472 95.3283L144.948 123.014L146.94 123.195ZM148.377 96.415L152.918 96.829L153.1 94.8372L148.559 94.4233L148.377 96.415ZM152.013 95.7423L149.824 119.763L151.815 119.944L154.005 95.9239L152.013 95.7423Z" fill="#1E4364"/>
<path d="M172.832 96.3858L173.703 124.172L169.145 124.315L168.274 96.5287L172.832 96.3858Z" fill="#1E4364"/>
<path d="M172.832 96.3858L173.831 96.3544L173.8 95.3549L172.8 95.3862L172.832 96.3858ZM173.703 124.172L173.734 125.172L174.734 125.14L174.702 124.141L173.703 124.172ZM169.145 124.315L168.146 124.346L168.177 125.346L169.177 125.315L169.145 124.315ZM168.274 96.5287L168.243 95.5292L167.243 95.5605L167.274 96.56L168.274 96.5287ZM171.832 96.4171L172.703 124.203L174.702 124.141L173.831 96.3544L171.832 96.4171ZM173.672 123.173L169.114 123.316L169.177 125.315L173.734 125.172L173.672 123.173ZM170.145 124.284L169.273 96.4973L167.274 96.56L168.146 124.346L170.145 124.284ZM168.305 97.5282L172.863 97.3853L172.8 95.3862L168.243 95.5292L168.305 97.5282Z" fill="#1E4364"/>
<path d="M198.431 93.011L199.057 96.6778L191.763 97.9245L195.82 121.66L191.325 122.429L187.268 98.6928L179.935 99.9462L179.308 96.2794L198.431 93.011Z" fill="#1E4364"/>
<path d="M198.431 93.011L199.416 92.8425L199.248 91.8568L198.262 92.0253L198.431 93.011ZM199.057 96.6778L199.226 97.6635L200.212 97.4951L200.043 96.5094L199.057 96.6778ZM191.763 97.9245L191.595 96.9388L190.609 97.1073L190.777 98.093L191.763 97.9245ZM195.82 121.66L195.988 122.646L196.974 122.478L196.806 121.492L195.82 121.66ZM191.325 122.429L190.339 122.597L190.508 123.583L191.494 123.414L191.325 122.429ZM187.268 98.6928L188.254 98.5243L188.086 97.5386L187.1 97.7071L187.268 98.6928ZM179.935 99.9462L178.949 100.115L179.117 101.1L180.103 100.932L179.935 99.9462ZM179.308 96.2794L179.139 95.2937L178.154 95.4621L178.322 96.4478L179.308 96.2794ZM197.445 93.1795L198.072 96.8463L200.043 96.5094L199.416 92.8425L197.445 93.1795ZM198.889 95.6921L191.595 96.9388L191.932 98.9102L199.226 97.6635L198.889 95.6921ZM190.777 98.093L194.834 121.829L196.806 121.492L192.749 97.7561L190.777 98.093ZM195.651 120.675L191.157 121.443L191.494 123.414L195.988 122.646L195.651 120.675ZM192.311 122.26L188.254 98.5243L186.283 98.8612L190.339 122.597L192.311 122.26ZM187.1 97.7071L179.766 98.9605L180.103 100.932L187.437 99.6785L187.1 97.7071ZM180.92 99.7777L180.294 96.1109L178.322 96.4478L178.949 100.115L180.92 99.7777ZM179.476 97.2651L198.599 93.9967L198.262 92.0253L179.139 95.2937L179.476 97.2651Z" fill="#1E4364"/>
<path d="M226.937 106.588L216.045 110.694L216.177 116.714L211.723 118.393L211.222 88.8293L216.163 86.9669L235.303 109.504L230.812 111.197L226.937 106.588ZM224.427 103.558L215.64 93.0633L215.93 106.761L224.427 103.558Z" fill="#1E4364"/>
<path d="M226.937 106.588L227.702 105.944L227.246 105.402L226.584 105.652L226.937 106.588ZM216.045 110.694L215.692 109.758L215.03 110.008L215.045 110.716L216.045 110.694ZM216.177 116.714L216.53 117.65L217.192 117.4L217.177 116.692L216.177 116.714ZM211.723 118.393L210.723 118.41L210.747 119.83L212.076 119.329L211.723 118.393ZM211.222 88.8293L210.87 87.8936L210.211 88.1421L210.223 88.8463L211.222 88.8293ZM216.163 86.9669L216.925 86.3195L216.469 85.7827L215.81 86.0311L216.163 86.9669ZM235.303 109.504L235.656 110.44L236.984 109.939L236.065 108.857L235.303 109.504ZM230.812 111.197L230.046 111.841L230.502 112.383L231.164 112.133L230.812 111.197ZM224.427 103.558L224.779 104.494L226.098 103.997L225.193 102.916L224.427 103.558ZM215.64 93.0633L216.407 92.4213L214.58 90.2393L214.64 93.0845L215.64 93.0633ZM215.93 106.761L214.931 106.782L214.961 108.196L216.283 107.697L215.93 106.761ZM226.584 105.652L215.692 109.758L216.398 111.629L227.289 107.523L226.584 105.652ZM215.045 110.716L215.177 116.736L217.177 116.692L217.045 110.672L215.045 110.716ZM215.824 115.778L211.37 117.457L212.076 119.329L216.53 117.65L215.824 115.778ZM212.723 118.376L212.222 88.8124L210.223 88.8463L210.723 118.41L212.723 118.376ZM211.575 89.7651L216.516 87.9026L215.81 86.0311L210.87 87.8936L211.575 89.7651ZM215.401 87.6142L234.541 110.151L236.065 108.857L216.925 86.3195L215.401 87.6142ZM234.95 108.568L230.459 110.261L231.164 112.133L235.656 110.44L234.95 108.568ZM231.577 110.554L227.702 105.944L226.171 107.231L230.046 111.841L231.577 110.554ZM225.193 102.916L216.407 92.4213L214.873 93.7052L223.66 104.2L225.193 102.916ZM214.64 93.0845L214.931 106.782L216.93 106.74L216.64 93.0421L214.64 93.0845ZM216.283 107.697L224.779 104.494L224.074 102.623L215.578 105.826L216.283 107.697Z" fill="#1E4364"/>
<path d="M235.291 94.131C233.807 91.8511 233.002 89.4641 232.875 86.9701C232.77 84.4615 233.295 82.1153 234.451 79.9315C235.615 77.7108 237.281 75.8952 239.449 74.4845C241.931 72.8703 244.532 72.0525 247.254 72.0313C249.984 71.9731 252.512 72.778 254.838 74.4461L250.245 77.4346C248.841 76.5979 247.407 76.2268 245.941 76.3213C244.476 76.4158 243.039 76.9212 241.631 77.8374C240.088 78.8408 238.939 80.0816 238.183 81.5599C237.427 83.0381 237.124 84.6508 237.275 86.3981C237.447 88.1308 238.094 89.8577 239.214 91.5788C240.333 93.2999 241.65 94.5906 243.164 95.4507C244.701 96.2963 246.305 96.6841 247.977 96.6141C249.635 96.5217 251.235 95.9738 252.778 94.9704C254.186 94.0542 255.23 92.9453 255.91 91.6438C256.591 90.3422 256.833 88.8804 256.636 87.2584L261.23 84.2699C261.812 87.0723 261.524 89.7096 260.364 92.1818C259.227 94.6395 257.418 96.6755 254.937 98.2897C252.747 99.7149 250.419 100.514 247.954 100.686C245.475 100.835 243.109 100.354 240.859 99.2415C238.63 98.1145 236.774 96.411 235.291 94.131Z" fill="#1E4364"/>
<path d="M232.875 86.9701L231.875 87.0119L231.876 87.0211L232.875 86.9701ZM234.451 79.9315L235.335 80.3994L235.337 80.3957L234.451 79.9315ZM247.254 72.0313L247.262 73.0313L247.276 73.031L247.254 72.0313ZM254.838 74.4461L255.384 75.2843L256.61 74.4863L255.421 73.6335L254.838 74.4461ZM250.245 77.4346L249.733 78.2935L250.268 78.6126L250.79 78.2728L250.245 77.4346ZM245.941 76.3213L245.877 75.3234L245.941 76.3213ZM238.183 81.5599L239.073 82.0153L239.073 82.0153L238.183 81.5599ZM237.275 86.3981L236.278 86.4839L236.279 86.4974L237.275 86.3981ZM243.164 95.4507L242.67 96.3203L242.682 96.3268L243.164 95.4507ZM247.977 96.6141L248.019 97.6133L248.033 97.6126L247.977 96.6141ZM255.91 91.6438L256.797 92.107L255.91 91.6438ZM256.636 87.2584L256.091 86.4202L255.569 86.76L255.643 87.3786L256.636 87.2584ZM261.23 84.2699L262.209 84.0664L261.911 82.6337L260.684 83.4317L261.23 84.2699ZM260.364 92.1818L259.459 91.7573L259.457 91.762L260.364 92.1818ZM247.954 100.686L248.014 101.684L248.024 101.683L247.954 100.686ZM240.859 99.2415L240.407 100.134L240.415 100.138L240.859 99.2415ZM236.129 93.5857C234.733 91.4399 233.991 89.2216 233.873 86.9191L231.876 87.0211C232.013 89.7067 232.882 92.2623 234.453 94.6764L236.129 93.5857ZM233.874 86.9282C233.776 84.5938 234.263 82.4239 235.335 80.3994L233.567 79.4636C232.327 81.8067 231.763 84.3292 231.876 87.0119L233.874 86.9282ZM235.337 80.3957C236.419 78.3317 237.965 76.643 239.995 75.3227L238.904 73.6463C236.597 75.1473 234.812 77.0899 233.566 79.4673L235.337 80.3957ZM239.995 75.3227C242.33 73.8032 244.748 73.0509 247.262 73.0312L247.246 71.0313C244.317 71.0542 241.531 71.9374 238.904 73.6463L239.995 75.3227ZM247.276 73.031C249.778 72.9777 252.096 73.7102 254.255 75.2587L255.421 73.6335C252.928 71.8458 250.19 70.9685 247.233 71.0315L247.276 73.031ZM254.293 73.6079L249.699 76.5964L250.79 78.2728L255.384 75.2843L254.293 73.6079ZM250.757 76.5757C249.2 75.6475 247.567 75.2144 245.877 75.3234L246.006 77.3192C247.247 77.2392 248.483 77.5482 249.733 78.2935L250.757 76.5757ZM245.877 75.3234C244.217 75.4305 242.617 76.003 241.085 76.9992L242.176 78.6756C243.461 77.8394 244.735 77.4012 246.006 77.3192L245.877 75.3234ZM241.085 76.9992C239.413 78.0873 238.137 79.4543 237.293 81.1044L239.073 82.0153C239.742 80.709 240.764 79.5943 242.176 78.6756L241.085 76.9992ZM237.293 81.1044C236.446 82.7591 236.113 84.5608 236.278 86.4839L238.271 86.3122C238.135 84.7408 238.407 83.317 239.073 82.0153L237.293 81.1044ZM236.279 86.4974C236.471 88.4153 237.184 90.293 238.375 92.1242L240.052 91.0335C239.004 89.4224 238.424 87.8462 238.27 86.2988L236.279 86.4974ZM238.375 92.1242C239.567 93.9553 240.994 95.3681 242.67 96.3202L243.658 94.5813C242.306 93.8131 241.1 92.6445 240.052 91.0335L238.375 92.1242ZM242.682 96.3268C244.371 97.2562 246.155 97.6913 248.019 97.6132L247.936 95.615C246.455 95.677 245.031 95.3365 243.646 94.5747L242.682 96.3268ZM248.033 97.6126C249.884 97.5094 251.651 96.8968 253.323 95.8086L252.232 94.1322C250.82 95.0509 249.387 95.534 247.922 95.6157L248.033 97.6126ZM253.323 95.8086C254.854 94.8124 256.026 93.5815 256.797 92.107L255.024 91.1806C254.434 92.3092 253.518 93.296 252.232 94.1322L253.323 95.8086ZM256.797 92.107C257.581 90.6063 257.847 88.9375 257.629 87.1383L255.643 87.3786C255.818 88.8234 255.6 90.0782 255.024 91.1806L256.797 92.107ZM257.182 88.0966L261.775 85.1081L260.684 83.4317L256.091 86.4202L257.182 88.0966ZM260.251 84.4734C260.791 87.0749 260.522 89.4908 259.459 91.7573L261.27 92.6064C262.526 89.9284 262.833 87.0697 262.209 84.0664L260.251 84.4734ZM259.457 91.762C258.406 94.0331 256.731 95.93 254.392 97.4515L255.483 99.1279C258.106 97.421 260.049 95.2459 261.272 92.6017L259.457 91.762ZM254.392 97.4515C252.335 98.7895 250.17 99.5285 247.884 99.688L248.024 101.683C250.668 101.499 253.158 100.64 255.483 99.1279L254.392 97.4515ZM247.894 99.6874C245.59 99.8266 243.398 99.3812 241.302 98.345L240.415 100.138C242.821 101.327 245.359 101.844 248.014 101.684L247.894 99.6874ZM241.31 98.3491C239.252 97.3086 237.525 95.7314 236.129 93.5857L234.453 94.6764C236.023 97.0905 238.008 98.9203 240.407 100.134L241.31 98.3491Z" fill="#1E4364"/>
<path d="M258.237 60.1773L276.979 80.7102L273.611 83.7843L254.869 63.2514L258.237 60.1773Z" fill="#1E4364"/>
<path d="M258.237 60.1773L258.976 59.5031L258.302 58.7645L257.563 59.4387L258.237 60.1773ZM276.979 80.7102L277.653 81.4488L278.392 80.7747L277.717 80.0361L276.979 80.7102ZM273.611 83.7843L272.872 84.4585L273.546 85.1971L274.285 84.5229L273.611 83.7843ZM254.869 63.2514L254.195 62.5128L253.457 63.1869L254.131 63.9255L254.869 63.2514ZM257.499 60.8514L276.24 81.3844L277.717 80.0361L258.976 59.5031L257.499 60.8514ZM276.305 79.9716L272.937 83.0457L274.285 84.5229L277.653 81.4488L276.305 79.9716ZM274.349 83.1102L255.608 62.5772L254.131 63.9255L272.872 84.4585L274.349 83.1102ZM255.544 63.99L258.912 60.9159L257.563 59.4387L254.195 62.5128L255.544 63.99Z" fill="#1E4364"/>
<path d="M293.708 62.8754C292.112 64.9111 290.168 66.4193 287.874 67.3999C285.576 68.3431 283.182 68.6521 280.693 68.3269C278.199 67.9643 275.881 66.9439 273.741 65.2658C271.6 63.5878 270.066 61.5893 269.139 59.2703C268.229 56.9303 267.968 54.5402 268.356 52.1C268.74 49.6222 269.73 47.3655 271.325 45.3298C272.938 43.273 274.893 41.7731 277.191 40.8299C279.484 39.8493 281.867 39.5321 284.341 39.8782C286.814 40.2244 289.121 41.2365 291.261 42.9146C293.402 44.5927 294.946 46.5994 295.894 48.9348C296.821 51.2538 297.092 53.6521 296.709 56.1298C296.321 58.5701 295.32 60.8186 293.708 62.8754ZM290.592 60.4323C291.727 58.9842 292.413 57.4385 292.651 55.7952C292.868 54.1354 292.614 52.5137 291.891 50.9299C291.162 49.3086 289.99 47.8646 288.374 46.5978C286.758 45.3311 285.087 44.5459 283.359 44.2423C281.649 43.9177 280.024 44.0671 278.485 44.6904C276.946 45.3137 275.609 46.3494 274.473 47.7975C273.338 49.2456 272.652 50.7913 272.414 52.4346C272.176 54.0779 272.411 55.702 273.118 57.3068C273.842 58.8906 275.012 60.3158 276.628 61.5826C278.244 62.8494 279.918 63.6533 281.649 63.9943C283.377 64.2979 285.02 64.1463 286.58 63.5394C288.119 62.9161 289.456 61.8804 290.592 60.4323ZM269.46 38.6324L267.438 48.2795L264.793 46.2066L266.406 36.2387L269.46 38.6324Z" fill="#1E4364"/>
<path d="M287.874 67.3999L288.254 68.325L288.261 68.3223L288.267 68.3194L287.874 67.3999ZM280.693 68.3269L280.549 69.3165L280.556 69.3175L280.563 69.3185L280.693 68.3269ZM269.139 59.2703L268.207 59.6329L268.211 59.6414L269.139 59.2703ZM268.356 52.1L269.344 52.257L269.344 52.253L268.356 52.1ZM277.191 40.8299L277.57 41.755L277.577 41.7522L277.584 41.7494L277.191 40.8299ZM284.341 39.8782L284.202 40.8686L284.341 39.8782ZM295.894 48.9348L296.823 48.5637L296.821 48.5588L295.894 48.9348ZM296.709 56.1298L297.696 56.2869L297.697 56.2829L296.709 56.1298ZM292.651 55.7952L293.641 55.9384L293.643 55.9247L292.651 55.7952ZM291.891 50.9299L290.978 51.3396L290.981 51.3455L291.891 50.9299ZM283.359 44.2423L283.173 45.2249L283.186 45.2272L283.359 44.2423ZM278.485 44.6904L278.86 45.6173L278.485 44.6904ZM272.414 52.4346L273.404 52.5778L273.404 52.5778L272.414 52.4346ZM273.118 57.3068L272.203 57.7101L272.209 57.7224L273.118 57.3068ZM281.649 63.9943L281.456 64.9755L281.466 64.9774L281.476 64.9792L281.649 63.9943ZM286.58 63.5394L286.943 64.4715L286.956 64.4663L286.58 63.5394ZM269.46 38.6324L270.439 38.8376L270.566 38.229L270.077 37.8454L269.46 38.6324ZM267.438 48.2795L266.821 49.0665L268.086 50.0587L268.416 48.4847L267.438 48.2795ZM264.793 46.2066L263.806 46.0468L263.712 46.6295L264.176 46.9936L264.793 46.2066ZM266.406 36.2387L267.023 35.4517L265.69 34.4065L265.419 36.079L266.406 36.2387ZM292.921 62.2584C291.425 64.1669 289.614 65.5684 287.481 66.4804L288.267 68.3194C290.721 67.2701 292.8 65.6553 294.495 63.4923L292.921 62.2584ZM287.495 66.4748C285.359 67.3511 283.141 67.6382 280.822 67.3353L280.563 69.3185C283.224 69.666 285.793 69.335 288.254 68.325L287.495 66.4748ZM280.837 67.3373C278.529 67.0017 276.372 66.058 274.357 64.4788L273.124 66.0529C275.39 67.8298 277.869 68.9268 280.549 69.3165L280.837 67.3373ZM274.357 64.4788C272.343 62.8995 270.924 61.0401 270.068 58.8992L268.211 59.6414C269.209 62.1385 270.857 64.276 273.124 66.0529L274.357 64.4788ZM270.071 58.9078C269.224 56.7302 268.984 54.5193 269.344 52.257L267.369 51.9429C266.952 54.5612 267.234 57.1305 268.207 59.6329L270.071 58.9078ZM269.344 52.253C269.701 49.9501 270.619 47.8521 272.112 45.9467L270.538 44.7128C268.84 46.879 267.779 49.2944 267.368 51.947L269.344 52.253ZM272.112 45.9467C273.624 44.0189 275.441 42.629 277.57 41.755L276.811 39.9048C274.344 40.9172 272.252 42.5272 270.538 44.7128L272.112 45.9467ZM277.584 41.7494C279.71 40.8405 281.909 40.5476 284.202 40.8686L284.479 38.8879C281.826 38.5165 279.259 38.8581 276.798 39.9104L277.584 41.7494ZM284.202 40.8686C286.485 41.1882 288.63 42.1223 290.645 43.7016L291.878 42.1276C289.612 40.3508 287.142 39.2607 284.479 38.8879L284.202 40.8686ZM290.645 43.7016C292.659 45.2808 294.09 47.1498 294.967 49.3108L296.821 48.5588C295.802 46.049 294.145 43.9045 291.878 42.1276L290.645 43.7016ZM294.965 49.3059C295.825 51.458 296.077 53.6753 295.72 55.9768L297.697 56.2829C298.108 53.629 297.816 51.0496 296.823 48.5637L294.965 49.3059ZM295.721 55.9728C295.361 58.2355 294.435 60.3275 292.921 62.2584L294.495 63.4923C296.206 61.3098 297.28 58.9048 297.696 56.2869L295.721 55.9728ZM291.379 61.0492C292.61 59.4789 293.375 57.7728 293.641 55.9384L291.661 55.652C291.451 57.1042 290.844 58.4895 289.805 59.8154L291.379 61.0492ZM293.643 55.9247C293.885 54.0714 293.598 52.2613 292.8 50.5142L290.981 51.3455C291.63 52.766 291.851 54.1994 291.659 55.6657L293.643 55.9247ZM292.803 50.5201C291.998 48.7296 290.715 47.162 288.991 45.8108L287.757 47.3849C289.266 48.5673 290.326 49.8877 290.978 51.3396L292.803 50.5201ZM288.991 45.8108C287.268 44.46 285.447 43.594 283.532 43.2574L283.186 45.2272C284.726 45.4978 286.249 46.2022 287.757 47.3849L288.991 45.8108ZM283.546 43.2598C281.656 42.9013 279.835 43.0645 278.109 43.7635L278.86 45.6173C280.212 45.0697 281.641 44.9342 283.173 45.2248L283.546 43.2598ZM278.109 43.7635C276.391 44.4593 274.917 45.6102 273.686 47.1806L275.26 48.4144C276.3 47.0886 277.5 46.1681 278.86 45.6173L278.109 43.7635ZM273.686 47.1806C272.455 48.7509 271.69 50.457 271.424 52.2914L273.404 52.5778C273.614 51.1256 274.221 49.7403 275.26 48.4144L273.686 47.1806ZM271.424 52.2914C271.158 54.1309 271.425 55.9438 272.203 57.71L274.033 56.9035C273.397 55.4602 273.194 54.025 273.404 52.5778L271.424 52.2914ZM272.209 57.7224C273.01 59.4755 274.292 61.0219 276.011 62.3696L277.245 60.7956C275.732 59.6098 274.674 58.3056 274.028 56.8911L272.209 57.7224ZM276.011 62.3696C277.731 63.7177 279.547 64.5994 281.456 64.9755L281.843 63.0132C280.289 62.7072 278.757 61.9811 277.245 60.7956L276.011 62.3696ZM281.476 64.9792C283.375 65.3129 285.204 65.1477 286.943 64.4714L286.218 62.6075C284.836 63.1448 283.379 63.2829 281.823 63.0094L281.476 64.9792ZM286.956 64.4663C288.674 63.7705 290.148 62.6196 291.379 61.0492L289.805 59.8154C288.765 61.1412 287.565 62.0617 286.205 62.6126L286.956 64.4663ZM268.481 38.4273L266.459 48.0743L268.416 48.4847L270.439 38.8376L268.481 38.4273ZM268.054 47.4925L265.41 45.4196L264.176 46.9936L266.821 49.0665L268.054 47.4925ZM265.78 46.3663L267.393 36.3985L265.419 36.079L263.806 46.0468L265.78 46.3663ZM265.789 37.0258L268.843 39.4195L270.077 37.8454L267.023 35.4517L265.789 37.0258Z" fill="#1E4364"/>
<path d="M317.396 21.6874L315.444 25.8086L290.81 29.3234L309.572 38.2085L307.621 42.3298L282.459 30.4145L284.411 26.2932L309.009 22.7613L290.283 13.8933L292.235 9.77208L317.396 21.6874Z" fill="#1E4364"/>
<path d="M317.396 21.6874L318.3 22.1154L318.728 21.2116L317.824 20.7836L317.396 21.6874ZM315.444 25.8086L315.586 26.7986L316.118 26.7226L316.348 26.2366L315.444 25.8086ZM290.81 29.3234L290.669 28.3334L287.375 28.8033L290.382 30.2272L290.81 29.3234ZM309.572 38.2085L310.476 38.6365L310.904 37.7327L310 37.3047L309.572 38.2085ZM307.621 42.3298L307.193 43.2335L308.097 43.6615L308.525 42.7578L307.621 42.3298ZM282.459 30.4145L281.556 29.9865L281.128 30.8903L282.031 31.3183L282.459 30.4145ZM284.411 26.2932L284.269 25.3034L283.737 25.3797L283.507 25.8652L284.411 26.2932ZM309.009 22.7613L309.152 23.7512L312.439 23.2791L309.437 21.8575L309.009 22.7613ZM290.283 13.8933L289.379 13.4653L288.951 14.3691L289.855 14.7971L290.283 13.8933ZM292.235 9.77208L292.663 8.8683L291.759 8.4403L291.331 9.34409L292.235 9.77208ZM316.492 21.2594L314.541 25.3806L316.348 26.2366L318.3 22.1154L316.492 21.2594ZM315.303 24.8186L290.669 28.3334L290.951 30.3134L315.586 26.7986L315.303 24.8186ZM290.382 30.2272L309.144 39.1123L310 37.3047L291.238 28.4196L290.382 30.2272ZM308.669 37.7805L306.717 41.9018L308.525 42.7578L310.476 38.6365L308.669 37.7805ZM308.049 41.426L282.887 29.5107L282.031 31.3183L307.193 43.2335L308.049 41.426ZM283.363 30.8425L285.315 26.7212L283.507 25.8652L281.556 29.9865L283.363 30.8425ZM284.553 27.2831L309.152 23.7512L308.867 21.7715L284.269 25.3034L284.553 27.2831ZM309.437 21.8575L290.711 12.9895L289.855 14.7971L308.581 23.6651L309.437 21.8575ZM291.187 14.3213L293.139 10.2001L291.331 9.34409L289.379 13.4653L291.187 14.3213ZM291.807 10.6759L316.968 22.5912L317.824 20.7836L292.663 8.8683L291.807 10.6759Z" fill="#1E4364"/>
</svg>
