<svg width="281" height="117" viewBox="0 0 281 117" fill="none" xmlns="http://www.w3.org/2000/svg">
<path d="M54.4092 35.6355L31.9233 51.9824L29.2419 48.2941L44.6424 37.0982L24.2555 41.4351L22.3974 38.8791L32.7879 20.7919L17.3874 31.9878L14.7061 28.2994L37.192 11.9525L40.0851 15.932L28.1913 36.6452L51.5397 31.6883L54.4092 35.6355Z" fill="#1E4364"/>
<path d="M54.4092 35.6355L54.9973 36.4443L55.8061 35.8563L55.2181 35.0475L54.4092 35.6355ZM31.9233 51.9824L31.1145 52.5705L31.7025 53.3793L32.5113 52.7913L31.9233 51.9824ZM29.2419 48.2941L28.6539 47.4853L27.8451 48.0733L28.4331 48.8821L29.2419 48.2941ZM44.6424 37.0982L45.2304 37.907L44.4343 36.1201L44.6424 37.0982ZM24.2555 41.4351L23.4467 42.0231L23.8285 42.5483L24.4636 42.4132L24.2555 41.4351ZM22.3974 38.8791L21.5303 38.381L21.2074 38.943L21.5885 39.4672L22.3974 38.8791ZM32.7879 20.7919L33.655 21.29L32.1999 19.983L32.7879 20.7919ZM17.3874 31.9878L16.5786 32.5758L17.1666 33.3846L17.9755 32.7966L17.3874 31.9878ZM14.7061 28.2994L14.1181 27.4906L13.3092 28.0786L13.8972 28.8874L14.7061 28.2994ZM37.192 11.9525L38.0008 11.3644L37.4128 10.5556L36.604 11.1436L37.192 11.9525ZM40.0851 15.932L40.9523 16.4299L41.2749 15.8681L40.8939 15.344L40.0851 15.932ZM28.1913 36.6452L27.3241 36.1472L26.2096 38.0882L28.399 37.6234L28.1913 36.6452ZM51.5397 31.6883L52.3485 31.1003L51.9669 30.5753L51.332 30.7101L51.5397 31.6883ZM53.8212 34.8266L31.3353 51.1736L32.5113 52.7913L54.9973 36.4443L53.8212 34.8266ZM32.7321 51.3944L30.0508 47.7061L28.4331 48.8821L31.1145 52.5705L32.7321 51.3944ZM29.8299 49.103L45.2304 37.907L44.0543 36.2894L28.6539 47.4853L29.8299 49.103ZM44.4343 36.1201L24.0474 40.457L24.4636 42.4132L44.8504 38.0763L44.4343 36.1201ZM25.0644 40.8471L23.2062 38.2911L21.5885 39.4672L23.4467 42.0231L25.0644 40.8471ZM23.2645 39.3773L33.655 21.29L31.9208 20.2937L21.5303 38.381L23.2645 39.3773ZM32.1999 19.983L16.7994 31.1789L17.9755 32.7966L33.3759 21.6007L32.1999 19.983ZM18.1963 31.3997L15.5149 27.7114L13.8972 28.8874L16.5786 32.5758L18.1963 31.3997ZM15.2941 29.1083L37.78 12.7613L36.604 11.1436L14.1181 27.4906L15.2941 29.1083ZM36.3832 12.5405L39.2762 16.52L40.8939 15.344L38.0008 11.3644L36.3832 12.5405ZM39.2179 15.434L27.3241 36.1472L29.0585 37.1431L40.9523 16.4299L39.2179 15.434ZM28.399 37.6234L51.7474 32.6665L51.332 30.7101L27.9836 35.667L28.399 37.6234ZM50.7308 32.2763L53.6004 36.2235L55.2181 35.0475L52.3485 31.1003L50.7308 32.2763Z" fill="#1E4364"/>
<path d="M59.9631 45.061L54.665 51.267L61.9662 57.5001L59.5509 60.3294L52.2496 54.0963L46.7177 60.5761L54.9316 67.5884L52.5163 70.4176L40.8343 60.4446L58.9103 39.271L70.5923 49.244L68.177 52.0732L59.9631 45.061Z" fill="#1E4364"/>
<path d="M59.9631 45.061L60.6124 44.3004L59.8518 43.6511L59.2026 44.4117L59.9631 45.061ZM54.665 51.267L53.9044 50.6178L53.2551 51.3783L54.0157 52.0276L54.665 51.267ZM61.9662 57.5001L62.7268 58.1494L63.376 57.3889L62.6155 56.7396L61.9662 57.5001ZM59.5509 60.3294L58.9016 61.0899L59.6621 61.7392L60.3114 60.9787L59.5509 60.3294ZM52.2496 54.0963L52.8989 53.3357L52.1384 52.6864L51.4891 53.447L52.2496 54.0963ZM46.7177 60.5761L45.9572 59.9269L45.3079 60.6874L46.0685 61.3367L46.7177 60.5761ZM54.9316 67.5884L55.6922 68.2377L56.3415 67.4771L55.5809 66.8278L54.9316 67.5884ZM52.5163 70.4176L51.867 71.1782L52.6276 71.8275L53.2769 71.0669L52.5163 70.4176ZM40.8343 60.4446L40.0738 59.7954L39.4245 60.5559L40.185 61.2052L40.8343 60.4446ZM58.9103 39.271L59.5596 38.5105L58.7991 37.8612L58.1498 38.6217L58.9103 39.271ZM70.5923 49.244L71.3529 49.8933L72.0022 49.1327L71.2416 48.4834L70.5923 49.244ZM68.177 52.0732L67.5277 52.8338L68.2883 53.483L68.9376 52.7225L68.177 52.0732ZM59.2026 44.4117L53.9044 50.6178L55.4255 51.9163L60.7236 45.7103L59.2026 44.4117ZM54.0157 52.0276L61.3169 58.2607L62.6155 56.7396L55.3142 50.5065L54.0157 52.0276ZM61.2057 56.8509L58.7903 59.6801L60.3114 60.9787L62.7268 58.1494L61.2057 56.8509ZM60.2002 59.5688L52.8989 53.3357L51.6003 54.8568L58.9016 61.0899L60.2002 59.5688ZM51.4891 53.447L45.9572 59.9269L47.4783 61.2254L53.0102 54.7456L51.4891 53.447ZM46.0685 61.3367L54.2824 68.3489L55.5809 66.8278L47.367 59.8156L46.0685 61.3367ZM54.1711 66.9391L51.7558 69.7683L53.2769 71.0669L55.6922 68.2377L54.1711 66.9391ZM53.1656 69.6571L41.4836 59.6841L40.185 61.2052L51.867 71.1782L53.1656 69.6571ZM41.5949 61.0939L59.6709 39.9203L58.1498 38.6217L40.0738 59.7954L41.5949 61.0939ZM58.2611 40.0316L69.9431 50.0045L71.2416 48.4834L59.5596 38.5105L58.2611 40.0316ZM69.8318 48.5947L67.4165 51.4239L68.9376 52.7225L71.3529 49.8933L69.8318 48.5947ZM68.8263 51.3127L60.6124 44.3004L59.3138 45.8215L67.5277 52.8338L68.8263 51.3127Z" fill="#1E4364"/>
<path d="M82.6744 56.8846C85.2781 58.2925 87.2807 60.0272 88.6822 62.0886C90.1199 64.1393 90.8591 66.3883 90.8999 68.8356C90.9769 71.2722 90.3432 73.7337 88.9987 76.2201C87.6542 78.7065 85.9477 80.5728 83.8793 81.819C81.8344 83.0779 79.5604 83.6672 77.0573 83.5869C74.5903 83.4959 72.055 82.7464 69.4513 81.3384L61.4642 77.0195L74.6873 52.5657L82.6744 56.8846ZM71.2207 78.0662C74.0824 79.6137 76.6942 80.0255 79.0561 79.3018C81.4179 78.5781 83.3599 76.8089 84.882 73.994C86.4167 71.1558 86.853 68.5268 86.1908 66.1073C85.5286 63.6878 83.7667 61.7043 80.9049 60.1568L76.929 58.0069L67.2448 75.9163L71.2207 78.0662Z" fill="#1E4364"/>
<path d="M88.6822 62.0886L87.8552 62.6509L87.8593 62.6568L87.8634 62.6627L88.6822 62.0886ZM90.8999 68.8356L89.9001 68.8523L89.9002 68.8597L89.9004 68.8672L90.8999 68.8356ZM83.8793 81.819L83.3633 80.9624L83.3551 80.9674L83.8793 81.819ZM77.0573 83.5869L77.0204 84.5862L77.0253 84.5864L77.0573 83.5869ZM61.4642 77.0195L60.5846 76.5439L60.1089 77.4235L60.9885 77.8992L61.4642 77.0195ZM74.6873 52.5657L75.1629 51.6861L74.2833 51.2104L73.8076 52.09L74.6873 52.5657ZM79.0561 79.3018L78.7631 78.3457L79.0561 79.3018ZM76.929 58.0069L77.4046 57.1273L76.525 56.6516L76.0494 57.5313L76.929 58.0069ZM67.2448 75.9163L66.3651 75.4406L65.8895 76.3202L66.7691 76.7959L67.2448 75.9163ZM82.1987 57.7642C84.6879 59.1102 86.5591 60.7445 87.8552 62.6509L89.5092 61.5264C88.0022 59.3099 85.8683 57.4748 83.15 56.005L82.1987 57.7642ZM87.8634 62.6627C89.1892 64.5538 89.8627 66.6095 89.9001 68.8523L91.8998 68.8189C91.8556 66.167 91.0505 63.7247 89.501 61.5146L87.8634 62.6627ZM89.9004 68.8672C89.971 71.1005 89.393 73.3884 88.119 75.7444L89.8783 76.6957C91.2933 74.0789 91.9828 71.4438 91.8994 68.804L89.9004 68.8672ZM88.119 75.7444C86.8449 78.1008 85.2542 79.8232 83.3633 80.9624L84.3954 82.6756C86.6412 81.3225 88.4635 79.3122 89.8783 76.6957L88.119 75.7444ZM83.3551 80.9674C81.4845 82.119 79.4054 82.6617 77.0894 82.5874L77.0253 84.5864C79.7154 84.6726 82.1843 84.0368 84.4036 82.6706L83.3551 80.9674ZM77.0942 82.5876C74.8083 82.5032 72.4221 81.8081 69.9269 80.4588L68.9756 82.2181C71.6879 83.6847 74.3724 84.4885 77.0204 84.5862L77.0942 82.5876ZM69.9269 80.4588L61.9398 76.1399L60.9885 77.8992L68.9756 82.2181L69.9269 80.4588ZM62.3438 77.4952L75.5669 53.0413L73.8076 52.09L60.5846 76.5439L62.3438 77.4952ZM74.2116 53.4453L82.1987 57.7642L83.15 56.005L75.1629 51.6861L74.2116 53.4453ZM70.745 78.9458C73.7647 80.5787 76.6575 81.0827 79.349 80.258L78.7631 78.3457C76.731 78.9684 74.4002 78.6486 71.6964 77.1866L70.745 78.9458ZM79.349 80.258C82.0298 79.4365 84.153 77.4445 85.7616 74.4697L84.0023 73.5184C82.5667 76.1733 80.806 77.7197 78.7631 78.3457L79.349 80.258ZM85.7616 74.4697C87.3824 71.4723 87.9033 68.5763 87.1554 65.8433L85.2263 66.3713C85.8027 68.4774 85.4511 70.8392 84.0023 73.5184L85.7616 74.4697ZM87.1554 65.8433C86.4013 63.0883 84.4076 60.914 81.3806 59.2772L80.4293 61.0365C83.1258 62.4946 84.656 64.2873 85.2263 66.3713L87.1554 65.8433ZM81.3806 59.2772L77.4046 57.1273L76.4533 58.8865L80.4293 61.0365L81.3806 59.2772ZM76.0494 57.5313L66.3651 75.4406L68.1244 76.3919L77.8086 58.4826L76.0494 57.5313ZM66.7691 76.7959L70.745 78.9458L71.6964 77.1866L67.7204 75.0366L66.7691 76.7959Z" fill="#1E4364"/>
<path d="M105.521 66.7893L96.7782 93.1787L92.4496 91.7446L101.192 65.3552L105.521 66.7893Z" fill="#1E4364"/>
<path d="M105.521 66.7893L106.47 67.1038L106.785 66.1545L105.836 65.84L105.521 66.7893ZM96.7782 93.1787L96.4637 94.128L97.413 94.4424L97.7275 93.4932L96.7782 93.1787ZM92.4496 91.7446L91.5003 91.4301L91.1858 92.3794L92.1351 92.6939L92.4496 91.7446ZM101.192 65.3552L101.507 64.4059L100.558 64.0914L100.243 65.0407L101.192 65.3552ZM104.572 66.4748L95.8289 92.8642L97.7275 93.4932L106.47 67.1038L104.572 66.4748ZM97.0927 92.2294L92.7641 90.7953L92.1351 92.6939L96.4637 94.128L97.0927 92.2294ZM93.3988 92.0591L102.142 65.6697L100.243 65.0407L91.5003 91.4301L93.3988 92.0591ZM100.878 66.3044L105.207 67.7385L105.836 65.84L101.507 64.4059L100.878 66.3044Z" fill="#1E4364"/>
<path d="M108.487 82.7499C108.859 80.0554 109.813 77.724 111.35 75.7556C112.913 73.7908 114.847 72.3617 117.15 71.4681C119.484 70.5519 121.932 70.2705 124.495 70.624C127.427 71.0286 129.929 72.1141 132 73.8804C134.102 75.624 135.485 77.8877 136.151 80.6715L130.722 79.9225C130.21 78.3712 129.368 77.1514 128.199 76.2632C127.029 75.375 125.612 74.8161 123.948 74.5865C122.125 74.335 120.444 74.5203 118.905 75.1424C117.365 75.7645 116.08 76.7851 115.05 78.2043C114.046 79.6271 113.404 81.3555 113.123 83.3896C112.843 85.4236 112.993 87.2614 113.574 88.9029C114.181 90.5481 115.14 91.8917 116.45 92.9338C117.763 93.9496 119.332 94.5832 121.154 94.8347C122.819 95.0643 124.334 94.91 125.7 94.3717C127.067 93.8334 128.207 92.887 129.12 91.5325L134.549 92.2815C133.154 94.781 131.209 96.5854 128.714 97.6948C126.246 98.8079 123.545 99.1621 120.613 98.7575C118.024 98.4003 115.742 97.4797 113.766 95.9958C111.794 94.4854 110.322 92.5729 109.349 90.2582C108.403 87.9471 108.115 85.4444 108.487 82.7499Z" fill="#1E4364"/>
<path d="M111.35 75.7556L110.567 75.1329L110.562 75.1402L111.35 75.7556ZM117.15 71.4681L117.512 72.4005L117.516 72.399L117.15 71.4681ZM132 73.8804L131.351 74.6414L131.362 74.65L132 73.8804ZM136.151 80.6715L136.014 81.6621L137.464 81.8621L137.123 80.4389L136.151 80.6715ZM130.722 79.9225L129.773 80.2363L129.968 80.8279L130.586 80.9131L130.722 79.9225ZM128.199 76.2632L128.804 75.4668L128.199 76.2632ZM118.905 75.1424L119.279 76.0696L119.279 76.0696L118.905 75.1424ZM115.05 78.2043L114.241 77.6167L114.233 77.6278L115.05 78.2043ZM113.574 88.9029L112.631 89.2367L112.636 89.2493L113.574 88.9029ZM116.45 92.9338L115.827 93.7165L115.838 93.7249L116.45 92.9338ZM125.7 94.3717L126.067 95.3021L125.7 94.3717ZM129.12 91.5325L129.257 90.5419L128.64 90.4567L128.291 90.9733L129.12 91.5325ZM134.549 92.2815L135.422 92.7688L136.135 91.4909L134.686 91.2909L134.549 92.2815ZM128.714 97.6948L128.308 96.7811L128.303 96.7832L128.714 97.6948ZM113.766 95.9958L113.158 96.7897L113.166 96.7954L113.766 95.9958ZM109.349 90.2582L108.424 90.6371L108.427 90.6456L109.349 90.2582ZM109.478 82.8866C109.828 80.3507 110.719 78.1882 112.138 76.371L110.562 75.1402C108.907 77.2598 107.89 79.7602 107.497 82.6132L109.478 82.8866ZM112.133 76.3782C113.587 74.5498 115.376 73.2288 117.512 72.4005L116.789 70.5358C114.317 71.4945 112.239 73.0318 110.568 75.133L112.133 76.3782ZM117.516 72.399C119.685 71.5473 121.96 71.2838 124.358 71.6147L124.631 69.6334C121.905 69.2572 119.284 69.5564 116.785 70.5373L117.516 72.399ZM124.358 71.6147C127.118 71.9955 129.438 73.0097 131.351 74.6413L132.649 73.1195C130.42 71.2185 127.736 70.0617 124.631 69.6334L124.358 71.6147ZM131.362 74.65C133.288 76.2485 134.56 78.3199 135.178 80.9041L137.123 80.4389C136.41 77.4555 134.915 74.9995 132.639 73.1108L131.362 74.65ZM136.288 79.6809L130.859 78.9319L130.586 80.9131L136.014 81.6621L136.288 79.6809ZM131.672 79.6086C131.103 77.8878 130.152 76.4909 128.804 75.4668L127.594 77.0596C128.585 77.8119 129.316 78.8545 129.773 80.2363L131.672 79.6086ZM128.804 75.4668C127.479 74.4606 125.894 73.8456 124.085 73.5959L123.811 75.5771C125.33 75.7867 126.58 76.2894 127.594 77.0596L128.804 75.4668ZM124.085 73.5959C122.108 73.3232 120.249 73.5208 118.53 74.2152L119.279 76.0696C120.64 75.5198 122.143 75.3469 123.811 75.5771L124.085 73.5959ZM118.53 74.2152C116.807 74.9116 115.375 76.0548 114.241 77.6168L115.859 78.7918C116.786 77.5154 117.924 76.6174 119.279 76.0696L118.53 74.2152ZM114.233 77.6278C113.122 79.2027 112.431 81.0888 112.133 83.2529L114.114 83.5263C114.377 81.6223 114.971 80.0515 115.867 78.7808L114.233 77.6278ZM112.133 83.2529C111.834 85.417 111.988 87.4196 112.631 89.2366L114.517 88.5692C113.998 87.1032 113.851 85.4303 114.114 83.5263L112.133 83.2529ZM112.636 89.2493C113.304 91.0574 114.368 92.5549 115.827 93.7164L117.073 92.1513C115.913 91.2285 115.059 90.0387 114.512 88.5565L112.636 89.2493ZM115.838 93.7249C117.304 94.8588 119.041 95.5526 121.018 95.8253L121.291 93.8441C119.622 93.6138 118.222 93.0404 117.062 92.1428L115.838 93.7249ZM121.018 95.8253C122.827 96.075 124.519 95.9119 126.067 95.3021L125.334 93.4413C124.149 93.908 122.81 94.0536 121.291 93.8441L121.018 95.8253ZM126.067 95.3021C127.642 94.6814 128.936 93.5942 129.949 92.0917L128.291 90.9733C127.478 92.1798 126.491 92.9853 125.334 93.4413L126.067 95.3021ZM128.984 92.5231L134.412 93.2721L134.686 91.2909L129.257 90.5419L128.984 92.5231ZM133.676 91.7942C132.381 94.1145 130.595 95.764 128.308 96.7811L129.121 98.6086C131.823 97.4069 133.928 95.4475 135.422 92.7688L133.676 91.7942ZM128.303 96.7832C126.022 97.8118 123.514 98.1482 120.75 97.7669L120.476 99.7481C123.577 100.176 126.469 99.8039 129.125 98.6065L128.303 96.7832ZM120.75 97.7669C118.319 97.4316 116.199 96.5722 114.367 95.1962L113.166 96.7954C115.285 98.3873 117.729 99.3691 120.476 99.7481L120.75 97.7669ZM114.374 95.2019C112.542 93.7985 111.177 92.0267 110.271 89.8707L108.427 90.6456C109.467 93.119 111.046 95.1722 113.158 96.7897L114.374 95.2019ZM110.274 89.8792C109.401 87.7457 109.128 85.4225 109.478 82.8866L107.497 82.6132C107.103 85.4663 107.405 88.1486 108.424 90.6371L110.274 89.8792Z" fill="#1E4364"/>
<path d="M160.493 92.7925L148.918 94.0179L147.527 99.8769L142.793 100.378L149.767 71.6441L155.018 71.0883L167.853 97.7251L163.08 98.2304L160.493 92.7925ZM158.828 89.2279L152.973 76.8555L149.799 90.1838L158.828 89.2279Z" fill="#1E4364"/>
<path d="M160.493 92.7925L161.396 92.3629L161.092 91.7235L160.388 91.798L160.493 92.7925ZM148.918 94.0179L148.812 93.0234L148.108 93.098L147.945 93.7869L148.918 94.0179ZM147.527 99.8769L147.632 100.871L148.336 100.797L148.5 100.108L147.527 99.8769ZM142.793 100.378L141.821 100.142L141.486 101.522L142.898 101.372L142.793 100.378ZM149.767 71.6441L149.662 70.6497L148.961 70.7238L148.795 71.4083L149.767 71.6441ZM155.018 71.0883L155.918 70.6542L155.613 70.0197L154.912 70.0938L155.018 71.0883ZM167.853 97.7251L167.958 98.7195L169.37 98.57L168.754 97.291L167.853 97.7251ZM163.08 98.2304L162.177 98.66L162.481 99.2994L163.185 99.2248L163.08 98.2304ZM158.828 89.2279L158.934 90.2224L160.335 90.074L159.732 88.8002L158.828 89.2279ZM152.973 76.8555L153.877 76.4278L152.66 73.8555L152.001 76.6238L152.973 76.8555ZM149.799 90.1838L148.826 89.9521L148.499 91.327L149.904 91.1782L149.799 90.1838ZM160.388 91.798L148.812 93.0234L149.023 95.0123L160.598 93.7869L160.388 91.798ZM147.945 93.7869L146.554 99.6459L148.5 100.108L149.891 94.2489L147.945 93.7869ZM147.421 98.8824L142.688 99.3835L142.898 101.372L147.632 100.871L147.421 98.8824ZM143.765 100.614L150.739 71.88L148.795 71.4083L141.821 100.142L143.765 100.614ZM149.872 72.6386L155.123 72.0827L154.912 70.0938L149.662 70.6497L149.872 72.6386ZM154.117 71.5224L166.952 98.1592L168.754 97.291L155.918 70.6542L154.117 71.5224ZM167.748 96.7306L162.974 97.2359L163.185 99.2248L167.958 98.7195L167.748 96.7306ZM163.983 97.8008L161.396 92.3629L159.59 93.2221L162.177 98.66L163.983 97.8008ZM159.732 88.8002L153.877 76.4278L152.069 77.2833L157.924 89.6557L159.732 88.8002ZM152.001 76.6238L148.826 89.9521L150.772 90.4155L153.946 77.0872L152.001 76.6238ZM149.904 91.1782L158.934 90.2224L158.723 88.2335L149.694 89.1894L149.904 91.1782Z" fill="#1E4364"/>
<path d="M171.428 82.86C170.5 80.3031 170.257 77.7957 170.698 75.3377C171.165 72.8707 172.209 70.7048 173.83 68.84C175.467 66.9411 177.502 65.5506 179.933 64.6684C182.716 63.6588 185.435 63.4523 188.091 64.0489C190.763 64.6113 193.043 65.9685 194.93 68.1206L189.778 69.9896C188.601 68.8564 187.288 68.1697 185.84 67.9294C184.391 67.6892 182.877 67.8555 181.298 68.4285C179.568 69.0561 178.167 70.004 177.095 71.2722C176.024 72.5404 175.363 74.0425 175.113 75.7784C174.889 77.5051 175.127 79.3336 175.827 81.2639C176.527 83.1941 177.517 84.7497 178.797 85.9308C180.102 87.1028 181.576 87.8443 183.221 88.1553C184.857 88.4413 186.539 88.2705 188.269 87.643C189.848 87.07 191.117 86.2268 192.074 85.1134C193.032 84 193.599 82.6312 193.776 81.0069L198.927 79.1378C198.859 81.9993 197.98 84.5025 196.29 86.6475C194.626 88.7833 192.402 90.356 189.619 91.3655C187.163 92.2568 184.715 92.5068 182.275 92.1154C179.826 91.699 177.632 90.6939 175.692 89.0999C173.777 87.4969 172.355 85.4169 171.428 82.86Z" fill="#1E4364"/>
<path d="M170.698 75.3377L169.716 75.1519L169.714 75.1609L170.698 75.3377ZM173.83 68.84L174.585 69.4962L174.588 69.493L173.83 68.84ZM188.091 64.0489L187.872 65.0247L187.885 65.0274L188.091 64.0489ZM194.93 68.1206L195.271 69.0606L196.647 68.5615L195.682 67.4613L194.93 68.1206ZM189.778 69.9896L189.085 70.71L189.534 71.1421L190.12 70.9296L189.778 69.9896ZM185.84 67.9294L186.003 66.9429L185.84 67.9294ZM177.095 71.2722L177.859 71.9176L177.859 71.9176L177.095 71.2722ZM175.113 75.7784L174.124 75.636L174.122 75.6494L175.113 75.7784ZM178.797 85.9308L178.119 86.6657L178.129 86.6747L178.797 85.9308ZM183.221 88.1553L183.035 89.138L183.049 89.1404L183.221 88.1553ZM192.074 85.1134L192.832 85.7655L192.074 85.1134ZM193.776 81.0069L193.435 80.0668L192.849 80.2793L192.782 80.8988L193.776 81.0069ZM198.927 79.1378L199.927 79.1617L199.962 77.6987L198.586 78.1978L198.927 79.1378ZM196.29 86.6475L195.505 86.0286L195.502 86.0327L196.29 86.6475ZM182.275 92.1154L182.107 93.1013L182.116 93.1028L182.275 92.1154ZM175.692 89.0999L175.05 89.8667L175.057 89.8726L175.692 89.0999ZM172.368 82.519C171.495 80.1125 171.275 77.7837 171.683 75.5145L169.714 75.1609C169.239 77.8077 169.505 80.4937 170.488 83.2011L172.368 82.519ZM171.681 75.5236C172.115 73.2277 173.082 71.2249 174.585 69.4961L173.075 68.1839C171.336 70.1847 170.215 72.5136 169.716 75.1519L171.681 75.5236ZM174.588 69.493C176.109 67.7281 177.999 66.4341 180.274 65.6084L179.592 63.7283C177.005 64.667 174.825 66.1542 173.073 68.1871L174.588 69.493ZM180.274 65.6084C182.894 64.6581 185.418 64.4735 187.872 65.0246L188.31 63.0732C185.452 62.4311 182.538 62.6596 179.592 63.7283L180.274 65.6084ZM187.885 65.0274C190.335 65.543 192.426 66.7821 194.178 68.7799L195.682 67.4613C193.659 65.1549 191.192 63.6795 188.297 63.0703L187.885 65.0274ZM194.589 67.1805L189.437 69.0496L190.12 70.9296L195.271 69.0606L194.589 67.1805ZM190.472 69.2692C189.166 68.0122 187.674 67.22 186.003 66.9429L185.676 68.916C186.903 69.1195 188.036 69.7007 189.085 70.71L190.472 69.2692ZM186.003 66.9429C184.362 66.6707 182.674 66.8655 180.956 67.4885L181.639 69.3686C183.08 68.8456 184.42 68.7076 185.676 68.916L186.003 66.9429ZM180.956 67.4885C179.081 68.169 177.528 69.211 176.332 70.6268L177.859 71.9176C178.806 70.7969 180.055 69.9431 181.639 69.3686L180.956 67.4885ZM176.332 70.6268C175.132 72.0464 174.398 73.7255 174.124 75.636L176.103 75.9207C176.328 74.3595 176.915 73.0345 177.859 71.9176L176.332 70.6268ZM174.122 75.6494C173.873 77.5608 174.142 79.5513 174.887 81.6049L176.767 80.9228C176.112 79.116 175.905 77.4494 176.105 75.9073L174.122 75.6494ZM174.887 81.6049C175.632 83.6586 176.702 85.3582 178.119 86.6656L179.475 85.196C178.333 84.1412 177.423 82.7296 176.767 80.9228L174.887 81.6049ZM178.129 86.6747C179.562 87.9628 181.202 88.7913 183.035 89.1379L183.407 87.1727C181.95 86.8973 180.641 86.2428 179.465 85.1869L178.129 86.6747ZM183.049 89.1404C184.875 89.4596 186.734 89.2635 188.61 88.583L187.928 86.7029C186.344 87.2775 184.839 87.423 183.393 87.1703L183.049 89.1404ZM188.61 88.583C190.327 87.96 191.747 87.0268 192.832 85.7655L191.316 84.4613C190.486 85.4267 189.369 86.18 187.928 86.7029L188.61 88.583ZM192.832 85.7655C193.937 84.4818 194.574 82.9167 194.77 81.115L192.782 80.8988C192.624 82.3456 192.127 83.5182 191.316 84.4613L192.832 85.7655ZM194.117 81.9469L199.268 80.0779L198.586 78.1978L193.435 80.0668L194.117 81.9469ZM197.927 79.114C197.864 81.7704 197.054 84.0622 195.505 86.0286L197.076 87.2663C198.906 84.9428 199.854 82.2283 199.927 79.1617L197.927 79.114ZM195.502 86.0327C193.963 88.0065 191.901 89.4739 189.278 90.4255L189.961 92.3056C192.903 91.238 195.288 89.5601 197.079 87.2622L195.502 86.0327ZM189.278 90.4255C186.972 91.2623 184.695 91.4909 182.433 91.1281L182.116 93.1028C184.734 93.5227 187.354 93.2514 189.961 92.3056L189.278 90.4255ZM182.442 91.1296C180.167 90.7427 178.133 89.8119 176.326 88.3273L175.057 89.8726C177.13 91.5758 179.485 92.6554 182.107 93.1013L182.442 91.1296ZM176.334 88.3331C174.566 86.8532 173.241 84.9254 172.368 82.519L170.488 83.2011C171.47 85.9085 172.988 88.1406 175.05 89.8667L176.334 88.3331Z" fill="#1E4364"/>
<path d="M200.897 54.9828L214.971 78.9568L211.039 81.2654L196.965 57.2914L200.897 54.9828Z" fill="#1E4364"/>
<path d="M200.897 54.9828L201.759 54.4766L201.253 53.6142L200.391 54.1205L200.897 54.9828ZM214.971 78.9568L215.478 79.8192L216.34 79.3129L215.834 78.4505L214.971 78.9568ZM211.039 81.2654L210.177 81.7717L210.683 82.634L211.545 82.1278L211.039 81.2654ZM196.965 57.2914L196.458 56.4291L195.596 56.9354L196.102 57.7977L196.965 57.2914ZM200.035 55.4891L214.109 79.4631L215.834 78.4505L201.759 54.4766L200.035 55.4891ZM214.465 78.0944L210.533 80.403L211.545 82.1278L215.478 79.8192L214.465 78.0944ZM211.901 80.7591L197.827 56.7852L196.102 57.7977L210.177 81.7717L211.901 80.7591ZM197.471 58.1538L201.403 55.8452L200.391 54.1205L196.458 56.4291L197.471 58.1538Z" fill="#1E4364"/>
<path d="M234.915 64.7418C232.966 66.4419 230.773 67.5584 228.336 68.0912C225.902 68.5864 223.493 68.4407 221.108 67.6541C218.726 66.8299 216.642 65.3928 214.854 63.3429C213.066 61.2929 211.935 59.0421 211.46 56.5905C211.005 54.1213 211.197 51.7246 212.036 49.4005C212.878 47.0388 214.273 45.0079 216.223 43.3078C218.192 41.5901 220.394 40.4837 222.828 39.9884C225.265 39.4556 227.665 39.5913 230.03 40.3954C232.394 41.1995 234.47 42.6265 236.258 44.6765C238.046 46.7264 239.186 48.9873 239.678 51.4591C240.153 53.9107 239.97 56.3174 239.128 58.6791C238.289 61.0032 236.885 63.0241 234.915 64.7418ZM232.313 61.7573C233.699 60.5479 234.664 59.1585 235.206 57.589C235.73 55.9994 235.785 54.3589 235.372 52.6674C234.961 50.9383 234.08 49.3 232.731 47.7525C231.381 46.205 229.886 45.1201 228.247 44.4978C226.627 43.8579 225.003 43.6997 223.375 44.0232C221.746 44.3466 220.238 45.113 218.852 46.3224C217.465 47.5318 216.501 48.9212 215.959 50.4907C215.417 52.0602 215.343 53.6994 215.736 55.4084C216.15 57.0999 217.031 58.7194 218.381 60.2669C219.731 61.8144 221.224 62.9181 222.861 63.5781C224.501 64.2004 226.143 64.3599 227.79 64.0565C229.418 63.7331 230.926 62.9667 232.313 61.7573ZM215.647 36.3793L211.85 45.4755L209.642 42.9432L213.097 33.4551L215.647 36.3793Z" fill="#1E4364"/>
<path d="M228.336 68.0912L228.535 69.0711L228.543 69.0697L228.55 69.0681L228.336 68.0912ZM221.108 67.6541L220.781 68.5992L220.788 68.6015L220.795 68.6038L221.108 67.6541ZM211.46 56.5905L210.476 56.7717L210.478 56.7807L211.46 56.5905ZM212.036 49.4005L212.976 49.7401L212.978 49.7362L212.036 49.4005ZM222.828 39.9884L223.028 40.9684L223.035 40.9669L223.042 40.9654L222.828 39.9884ZM230.03 40.3954L229.708 41.3421L230.03 40.3954ZM239.678 51.4591L240.66 51.2688L240.659 51.2636L239.678 51.4591ZM239.128 58.6791L240.069 59.0188L240.07 59.0149L239.128 58.6791ZM235.206 57.589L236.151 57.9154L236.155 57.9023L235.206 57.589ZM235.372 52.6674L234.399 52.8987L234.4 52.905L235.372 52.6674ZM228.247 44.4978L227.879 45.4279L227.892 45.4327L228.247 44.4978ZM223.375 44.0232L223.569 45.004L223.375 44.0232ZM215.959 50.4907L216.904 50.8171L216.904 50.8171L215.959 50.4907ZM215.736 55.4084L214.762 55.6328L214.765 55.646L215.736 55.4084ZM222.861 63.5781L222.487 64.5055L222.497 64.5093L222.506 64.513L222.861 63.5781ZM227.79 64.0565L227.971 65.04L227.984 65.0374L227.79 64.0565ZM215.647 36.3793L216.57 36.7645L216.809 36.1907L216.401 35.7221L215.647 36.3793ZM211.85 45.4755L211.097 46.1328L212.154 47.3448L212.773 45.8607L211.85 45.4755ZM209.642 42.9432L208.702 42.6011L208.5 43.1557L208.888 43.6005L209.642 42.9432ZM213.097 33.4551L213.85 32.7979L212.737 31.521L212.157 33.113L213.097 33.4551ZM234.258 63.9881C232.43 65.582 230.389 66.6188 228.122 67.1143L228.55 69.0681C231.157 68.498 233.501 67.3018 235.573 65.4954L234.258 63.9881ZM228.137 67.1113C225.875 67.5714 223.642 67.4372 221.422 66.7045L220.795 68.6038C223.343 69.4443 225.929 69.6015 228.535 69.0711L228.137 67.1113ZM221.435 66.7091C219.231 65.9464 217.29 64.6148 215.608 62.6856L214.1 64.0002C215.993 66.1709 218.222 67.7134 220.781 68.5992L221.435 66.7091ZM215.608 62.6856C213.925 60.7563 212.88 58.6636 212.441 56.4002L210.478 56.7807C210.989 59.4207 212.207 61.8296 214.1 64.0002L215.608 62.6856ZM212.443 56.4092C212.02 54.1114 212.198 51.8947 212.976 49.7401L211.095 49.0609C210.195 51.5545 209.99 54.1311 210.476 56.7717L212.443 56.4092ZM212.978 49.7362C213.76 47.5412 215.055 45.6526 216.88 44.0614L215.565 42.5541C213.491 44.3631 211.995 46.5364 211.094 49.0648L212.978 49.7362ZM216.88 44.0614C218.726 42.4514 220.772 41.4273 223.028 40.9684L222.629 39.0085C220.016 39.5401 217.658 40.7288 215.565 42.5541L216.88 44.0614ZM223.042 40.9654C225.3 40.4715 227.516 40.5966 229.708 41.3421L230.352 39.4486C227.815 38.5859 225.229 38.4397 222.615 39.0115L223.042 40.9654ZM229.708 41.3421C231.89 42.0845 233.822 43.4044 235.504 45.3338L237.011 44.0192C235.118 41.8486 232.898 40.3145 230.352 39.4486L229.708 41.3421ZM235.504 45.3338C237.187 47.263 238.242 49.3673 238.698 51.6545L240.659 51.2636C240.13 48.6073 238.904 46.1899 237.011 44.0192L235.504 45.3338ZM238.697 51.6493C239.138 53.9245 238.968 56.1496 238.186 58.3434L240.07 59.0149C240.972 56.4853 241.169 53.897 240.66 51.2688L238.697 51.6493ZM238.188 58.3395C237.41 60.4945 236.107 62.3755 234.258 63.9881L235.573 65.4954C237.663 63.6727 239.169 61.512 240.069 59.0188L238.188 58.3395ZM232.97 62.5109C234.474 61.1995 235.546 59.6674 236.151 57.9154L234.26 57.2626C233.781 58.6496 232.925 59.8964 231.655 61.0036L232.97 62.5109ZM236.155 57.9023C236.741 56.1274 236.799 54.2956 236.343 52.4299L234.4 52.905C234.771 54.4221 234.719 55.8715 234.256 57.2757L236.155 57.9023ZM236.345 52.4361C235.891 50.5265 234.924 48.7458 233.484 47.0952L231.977 48.4098C233.237 49.8542 234.031 51.3502 234.399 52.8987L236.345 52.4361ZM233.484 47.0952C232.045 45.445 230.419 44.2527 228.602 43.5628L227.892 45.4327C229.354 45.9874 230.717 46.965 231.977 48.4098L233.484 47.0952ZM228.614 43.5677C226.825 42.8609 225.006 42.6796 223.18 43.0423L223.569 45.004C225 44.7199 226.429 44.8549 227.879 45.4278L228.614 43.5677ZM223.18 43.0423C221.362 43.4034 219.698 44.2573 218.194 45.5687L219.509 47.076C220.779 45.9688 222.13 45.2898 223.569 45.004L223.18 43.0423ZM218.194 45.5687C216.691 46.8802 215.618 48.4123 215.013 50.1643L216.904 50.8171C217.383 49.4301 218.239 48.1833 219.509 47.076L218.194 45.5687ZM215.013 50.1643C214.407 51.9211 214.328 53.7519 214.762 55.6328L216.711 55.184C216.357 53.647 216.427 52.1992 216.904 50.8171L215.013 50.1643ZM214.765 55.646C215.223 57.5183 216.191 59.2777 217.627 60.9241L219.135 59.6096C217.871 58.1611 217.077 56.6815 216.708 55.1709L214.765 55.646ZM217.627 60.9241C219.064 62.571 220.682 63.7778 222.487 64.5055L223.235 62.6506C221.766 62.0585 220.398 61.0578 219.135 59.6096L217.627 60.9241ZM222.506 64.513C224.308 65.1969 226.136 65.378 227.971 65.0399L227.608 63.0731C226.151 63.3417 224.693 63.2038 223.216 62.6431L222.506 64.513ZM227.984 65.0374C229.802 64.6763 231.466 63.8224 232.97 62.5109L231.655 61.0036C230.386 62.1109 229.034 62.7898 227.595 63.0757L227.984 65.0374ZM214.724 35.9941L210.927 45.0903L212.773 45.8607L216.57 36.7645L214.724 35.9941ZM212.604 44.8183L210.396 42.286L208.888 43.6005L211.097 46.1328L212.604 44.8183ZM210.582 43.2854L214.036 33.7973L212.157 33.113L208.702 42.6011L210.582 43.2854ZM212.343 34.1124L214.893 37.0366L216.401 35.7221L213.85 32.7979L212.343 34.1124Z" fill="#1E4364"/>
<path d="M265.324 28.2026L262.734 31.9558L237.855 31.4579L254.942 43.2483L252.353 47.0015L229.438 31.1901L232.028 27.4369L256.874 27.9121L239.82 16.1444L242.41 12.3912L265.324 28.2026Z" fill="#1E4364"/>
<path d="M265.324 28.2026L266.147 28.7705L266.715 27.9475L265.892 27.3795L265.324 28.2026ZM262.734 31.9558L262.714 32.9556L263.252 32.9664L263.558 32.5237L262.734 31.9558ZM237.855 31.4579L237.875 30.4581L234.549 30.3916L237.287 32.281L237.855 31.4579ZM254.942 43.2483L255.765 43.8163L256.333 42.9932L255.51 42.4253L254.942 43.2483ZM252.353 47.0015L251.785 47.8246L252.608 48.3926L253.176 47.5695L252.353 47.0015ZM229.438 31.1901L228.615 30.6222L228.047 31.4453L228.87 32.0132L229.438 31.1901ZM232.028 27.4369L232.047 26.4371L231.51 26.4268L231.205 26.869L232.028 27.4369ZM256.874 27.9121L256.855 28.9119L260.176 28.9754L257.442 27.089L256.874 27.9121ZM239.82 16.1444L238.997 15.5765L238.429 16.3995L239.252 16.9675L239.82 16.1444ZM242.41 12.3912L242.978 11.5681L242.155 11.0002L241.587 11.8232L242.41 12.3912ZM264.501 27.6347L261.911 31.3879L263.558 32.5237L266.147 28.7705L264.501 27.6347ZM262.754 30.956L237.875 30.4581L237.835 32.4577L262.714 32.9556L262.754 30.956ZM237.287 32.281L254.374 44.0714L255.51 42.4253L238.423 30.6349L237.287 32.281ZM254.119 42.6804L251.529 46.4336L253.176 47.5695L255.765 43.8163L254.119 42.6804ZM252.92 46.1785L230.006 30.3671L228.87 32.0132L251.785 47.8246L252.92 46.1785ZM230.261 31.7581L232.851 28.0049L231.205 26.869L228.615 30.6222L230.261 31.7581ZM232.009 28.4367L256.855 28.9119L256.893 26.9123L232.047 26.4371L232.009 28.4367ZM257.442 27.089L240.388 15.3213L239.252 16.9675L256.306 28.7352L257.442 27.089ZM240.643 16.7123L243.233 12.9591L241.587 11.8232L238.997 15.5765L240.643 16.7123ZM241.842 13.2143L264.756 29.0257L265.892 27.3795L242.978 11.5681L241.842 13.2143Z" fill="#1E4364"/>
</svg>
