<svg width="201" height="86" viewBox="0 0 201 86" fill="none" xmlns="http://www.w3.org/2000/svg">
<path d="M31.6236 42.0012C30.8465 43.0847 29.8451 43.9088 28.6195 44.4737C27.4156 45.0541 26.0605 45.2963 24.5541 45.2004C23.0694 45.1199 21.5761 44.6396 20.0744 43.7593L18.186 46.3921L16.0733 44.8767L17.9617 42.244C16.0647 40.5879 14.8763 38.7675 14.3967 36.7826C13.917 34.7977 14.3144 32.9168 15.5889 31.1399L19.5543 33.9842C19.0131 34.8759 18.7789 35.7744 18.8515 36.6798C18.9396 37.5634 19.3735 38.3997 20.1532 39.1886L25.2822 32.0379C24.0946 30.6282 23.1778 29.4127 22.532 28.3916C21.9016 27.3488 21.5567 26.1825 21.4973 24.8928C21.4595 23.6186 21.9535 22.2665 22.9793 20.8363C24.2693 19.0378 25.9624 18.0042 28.0585 17.7356C30.1701 17.4452 32.3143 17.9331 34.4911 19.199L36.3795 16.5663L38.4922 18.0817L36.6038 20.7144C38.3863 22.2555 39.4788 23.958 39.8812 25.8219C40.3209 27.6796 39.9715 29.5621 38.8332 31.4694L34.8677 28.6252C35.2845 27.9068 35.4519 27.1244 35.3699 26.2779C35.3034 25.4098 34.9609 24.6063 34.3424 23.8673L29.3066 30.888C30.5098 32.276 31.4265 33.4915 32.0568 34.5343C32.7027 35.5555 33.0445 36.7031 33.0823 37.9773C33.1356 39.2297 32.6494 40.5711 31.6236 42.0012ZM26.8896 23.3457C26.2524 24.2341 26.015 25.1141 26.1776 25.9855C26.3618 26.8724 26.8327 27.8173 27.5902 28.82L32.2996 22.2544C31.2901 21.6944 30.3016 21.494 29.3341 21.6533C28.3883 21.8282 27.5735 22.3923 26.8896 23.3457ZM22.2659 40.704C23.3281 41.2362 24.3477 41.3932 25.3246 41.1751C26.3171 40.9352 27.1241 40.3819 27.7458 39.5152C28.3675 38.6484 28.5785 37.7824 28.3787 36.9171C28.2161 36.0457 27.7561 35.1086 26.9986 34.1058L22.2659 40.704Z" fill="#1E4364"/>
<path d="M28.6195 44.4737L28.201 43.5655L28.1931 43.5691L28.1853 43.5729L28.6195 44.4737ZM24.5541 45.2004L24.6177 44.2023L24.6082 44.2018L24.5541 45.2004ZM20.0744 43.7593L20.5801 42.8966L19.7933 42.4355L19.2618 43.1765L20.0744 43.7593ZM18.186 46.3921L17.6031 47.2047L18.4157 47.7876L18.9986 46.975L18.186 46.3921ZM16.0733 44.8767L15.2607 44.2939L14.6778 45.1065L15.4904 45.6893L16.0733 44.8767ZM17.9617 42.244L18.7743 42.8268L19.304 42.0883L18.6193 41.4906L17.9617 42.244ZM14.3967 36.7826L13.4246 37.0175L14.3967 36.7826ZM15.5889 31.1399L16.1717 30.3273L15.3591 29.7445L14.7763 30.5571L15.5889 31.1399ZM19.5543 33.9842L20.4092 34.503L20.8896 33.7113L20.1371 33.1716L19.5543 33.9842ZM18.8515 36.6798L17.8547 36.7597L17.8555 36.7694L17.8564 36.779L18.8515 36.6798ZM20.1532 39.1886L19.4419 39.8915L20.275 40.7346L20.9658 39.7715L20.1532 39.1886ZM25.2822 32.0379L26.0948 32.6207L26.5482 31.9886L26.047 31.3936L25.2822 32.0379ZM22.532 28.3916L21.6762 28.9089L21.6814 28.9176L21.6868 28.9261L22.532 28.3916ZM21.4973 24.8928L20.4977 24.9224L20.498 24.9306L20.4984 24.9388L21.4973 24.8928ZM28.0585 17.7356L28.1856 18.7275L28.1947 18.7263L28.0585 17.7356ZM34.4911 19.199L33.9883 20.0635L34.774 20.5204L35.3037 19.7819L34.4911 19.199ZM36.3795 16.5663L36.9623 15.7537L36.1498 15.1708L35.5669 15.9834L36.3795 16.5663ZM38.4922 18.0817L39.3048 18.6645L39.8876 17.8519L39.0751 17.2691L38.4922 18.0817ZM36.6038 20.7144L35.7912 20.1316L35.259 20.8737L35.9498 21.4709L36.6038 20.7144ZM39.8812 25.8219L38.9037 26.0329L38.9058 26.0425L38.9081 26.0521L39.8812 25.8219ZM38.8332 31.4694L38.2503 32.282L39.1343 32.9161L39.6918 31.9819L38.8332 31.4694ZM34.8677 28.6252L34.0028 28.1233L33.5471 28.9086L34.2849 29.4377L34.8677 28.6252ZM35.3699 26.2779L34.3728 26.3543L34.3736 26.3644L34.3746 26.3744L35.3699 26.2779ZM34.3424 23.8673L35.1092 23.2254L34.2815 22.2364L33.5298 23.2844L34.3424 23.8673ZM29.3066 30.888L28.494 30.3052L28.034 30.9465L28.551 31.543L29.3066 30.888ZM32.0568 34.5343L31.201 35.0516L31.2063 35.0603L31.2117 35.0689L32.0568 34.5343ZM33.0823 37.9773L32.0827 38.0069L32.0832 38.0198L33.0823 37.9773ZM26.1776 25.9855L25.1946 26.1689L25.1964 26.1789L25.1985 26.1889L26.1776 25.9855ZM27.5902 28.82L26.7923 29.4228L27.6111 30.5067L28.4028 29.4029L27.5902 28.82ZM32.2996 22.2544L33.1122 22.8372L33.7667 21.9247L32.7847 21.3799L32.2996 22.2544ZM29.3341 21.6533L29.1717 20.6666L29.162 20.6682L29.1524 20.67L29.3341 21.6533ZM22.2659 40.704L21.4533 40.1212L20.7704 41.0733L21.818 41.5981L22.2659 40.704ZM25.3246 41.175L25.5426 42.151L25.551 42.1491L25.5595 42.1471L25.3246 41.175ZM28.3787 36.9171L27.3957 37.1005L27.3996 37.1214L27.4043 37.1421L28.3787 36.9171ZM26.9986 34.1058L27.7965 33.5031L26.9777 32.4192L26.186 33.523L26.9986 34.1058ZM30.811 41.4184C30.1361 42.3593 29.2713 43.0722 28.201 43.5655L29.0381 45.3819C30.419 44.7454 31.5568 43.81 32.4362 42.5841L30.811 41.4184ZM28.1853 43.5729C27.1554 44.0694 25.9751 44.2889 24.6177 44.2024L24.4905 46.1983C26.1458 46.3038 27.6759 46.0388 29.0538 45.3745L28.1853 43.5729ZM24.6082 44.2018C23.3078 44.1314 21.9677 43.71 20.5801 42.8966L19.5687 44.6221C21.1845 45.5692 22.831 46.1085 24.5 46.1989L24.6082 44.2018ZM19.2618 43.1765L17.3734 45.8093L18.9986 46.975L20.887 44.3422L19.2618 43.1765ZM18.7688 45.5795L16.6561 44.0641L15.4904 45.6893L17.6031 47.2047L18.7688 45.5795ZM16.8859 45.4596L18.7743 42.8268L17.1491 41.6611L15.2607 44.2939L16.8859 45.4596ZM18.6193 41.4906C16.8414 39.9386 15.7894 38.2886 15.3687 36.5477L13.4246 37.0175C13.9633 39.2464 15.2879 41.2373 17.304 42.9973L18.6193 41.4906ZM15.3687 36.5477C14.9627 34.8675 15.2829 33.2822 16.4015 31.7228L14.7763 30.5571C13.3459 32.5514 12.8713 34.7278 13.4246 37.0175L15.3687 36.5477ZM15.006 31.9525L18.9715 34.7968L20.1371 33.1716L16.1717 30.3273L15.006 31.9525ZM18.6994 33.4654C18.066 34.5091 17.7629 35.6147 17.8547 36.7597L19.8483 36.5998C19.7949 35.9342 19.9603 35.2427 20.4092 34.503L18.6994 33.4654ZM17.8564 36.779C17.9725 37.9425 18.5424 38.9814 19.4419 39.8915L20.8645 38.4857C20.2047 37.8181 19.9068 37.1844 19.8466 36.5805L17.8564 36.779ZM20.9658 39.7715L26.0948 32.6207L24.4696 31.455L19.3406 38.6058L20.9658 39.7715ZM26.047 31.3936C24.8751 30.0026 23.9896 28.8255 23.3771 27.857L21.6868 28.9261C22.366 30 23.314 31.2537 24.5174 32.6822L26.047 31.3936ZM23.3878 27.8743C22.8489 26.9827 22.5485 25.9801 22.4962 24.8467L20.4984 24.9388C20.565 26.3849 20.9544 27.7148 21.6762 28.9089L23.3878 27.8743ZM22.4969 24.8632C22.4676 23.878 22.8461 22.7378 23.7919 21.4192L22.1667 20.2535C21.061 21.7951 20.4514 23.3593 20.4977 24.9224L22.4969 24.8632ZM23.7919 21.4192C24.9288 19.8342 26.3792 18.959 28.1856 18.7275L27.9314 16.7437C25.5456 17.0495 23.6099 18.2414 22.1667 20.2535L23.7919 21.4192ZM28.1947 18.7263C30.0469 18.4716 31.9682 18.8886 33.9883 20.0635L34.9938 18.3346C32.6605 16.9776 30.2934 16.4189 27.9223 16.7449L28.1947 18.7263ZM35.3037 19.7819L37.1921 17.1491L35.5669 15.9834L33.6785 18.6162L35.3037 19.7819ZM35.7967 17.3788L37.9094 18.8942L39.0751 17.2691L36.9623 15.7537L35.7967 17.3788ZM37.6796 17.4988L35.7912 20.1316L37.4164 21.2973L39.3048 18.6645L37.6796 17.4988ZM35.9498 21.4709C37.6076 22.9042 38.557 24.427 38.9037 26.0329L40.8587 25.6108C40.4006 23.489 39.165 21.6068 37.2578 19.9579L35.9498 21.4709ZM38.9081 26.0521C39.2781 27.6156 39.003 29.2336 37.9745 30.9569L39.6918 31.9819C40.94 29.8906 41.3636 27.7436 40.8543 25.5916L38.9081 26.0521ZM39.416 30.6568L35.4506 27.8126L34.2849 29.4377L38.2503 32.282L39.416 30.6568ZM35.7327 29.127C36.2571 28.2232 36.4669 27.2308 36.3652 26.1815L34.3746 26.3744C34.4369 27.018 34.312 27.5904 34.0028 28.1233L35.7327 29.127ZM36.367 26.2016C36.2829 25.1035 35.8466 24.1064 35.1092 23.2254L33.5755 24.5091C34.0752 25.1061 34.324 25.7162 34.3728 26.3543L36.367 26.2016ZM33.5298 23.2844L28.494 30.3052L30.1192 31.4708L35.155 24.4501L33.5298 23.2844ZM28.551 31.543C29.7336 32.9073 30.6109 34.0752 31.201 35.0516L32.9126 34.017C32.2421 32.9077 31.286 31.6448 30.0623 30.233L28.551 31.543ZM31.2117 35.0689C31.7564 35.9301 32.05 36.9016 32.0828 38.0069L34.0819 37.9476C34.0391 36.5046 33.649 35.1808 32.902 33.9998L31.2117 35.0689ZM32.0832 38.0198C32.1239 38.9741 31.7581 40.098 30.811 41.4184L32.4362 42.5841C33.5407 41.0441 34.1474 39.4854 34.0814 37.9347L32.0832 38.0198ZM26.077 22.7629C25.3205 23.8176 24.9708 24.9693 25.1946 26.1689L27.1606 25.8021C27.0593 25.2588 27.1842 24.6507 27.7022 23.9286L26.077 22.7629ZM25.1985 26.1889C25.4222 27.2655 25.9781 28.3449 26.7923 29.4228L28.3882 28.2173C27.6874 27.2896 27.3015 26.4793 27.1567 25.7821L25.1985 26.1889ZM28.4028 29.4029L33.1122 22.8372L31.487 21.6715L26.7776 28.2372L28.4028 29.4029ZM32.7847 21.3799C31.6146 20.7308 30.3994 20.4645 29.1717 20.6666L29.4966 22.64C30.2039 22.5236 30.9657 22.658 31.8145 23.1288L32.7847 21.3799ZM29.1524 20.67C27.8989 20.9017 26.8765 21.6483 26.077 22.7629L27.7022 23.9286C28.2705 23.1363 28.8778 22.7546 29.5159 22.6367L29.1524 20.67ZM21.818 41.5981C23.046 42.2133 24.3006 42.4284 25.5426 42.151L25.1066 40.1991C24.3947 40.3581 23.6103 40.2591 22.7138 39.81L21.818 41.5981ZM25.5595 42.1471C26.796 41.8482 27.8038 41.15 28.5584 40.098L26.9332 38.9323C26.4444 39.6138 25.8381 40.0222 25.0897 40.203L25.5595 42.1471ZM28.5584 40.098C29.3108 39.049 29.6305 37.8936 29.3531 36.6921L27.4043 37.1421C27.5265 37.6712 27.4243 38.2478 26.9332 38.9323L28.5584 40.098ZM29.3617 36.7337C29.1614 35.6601 28.6109 34.5812 27.7965 33.5031L26.2006 34.7086C26.9013 35.6361 27.2708 36.4313 27.3957 37.1005L29.3617 36.7337ZM26.186 33.523L21.4533 40.1212L23.0785 41.2869L27.8112 34.6887L26.186 33.523Z" fill="#1E4364"/>
<path d="M43.1235 50.228C46.3395 49.1744 48.8967 48.2788 50.7952 47.5411C52.7287 46.7891 54.449 45.8902 55.9562 44.8443C57.4635 43.7983 58.5156 42.5619 59.1126 41.1352C59.7302 39.6592 59.8573 38.3537 59.4939 37.2188C59.1551 36.0942 58.2353 35.2179 56.7347 34.59C55.2834 33.9827 53.9562 33.9766 52.7532 34.5717C51.5852 35.1525 50.6523 36.2075 49.9546 37.7368L45.8956 36.0383C47.1429 33.2648 48.8748 31.4746 51.0914 30.6677C53.3429 29.8465 55.711 29.9557 58.1955 30.9953C60.8769 32.1173 62.6591 33.7302 63.5421 35.8341C64.4497 37.9483 64.3888 40.2354 63.3595 42.6954C62.6184 44.4666 61.4479 45.9859 59.848 47.2532C58.283 48.5062 56.6005 49.5222 54.8003 50.301C53.0351 51.0655 50.8379 51.895 48.2089 52.7895L45.9308 53.5707L57.628 58.4652L56.1612 61.9707L38.2279 54.4668L39.5094 51.4041L43.1235 50.228Z" fill="#1E4364"/>
<path d="M43.1235 50.228L43.433 51.1789L43.4348 51.1783L43.1235 50.228ZM50.7952 47.5411L51.1574 48.4732L51.1577 48.4731L50.7952 47.5411ZM59.4939 37.2188L58.5364 37.5073L58.5389 37.5155L58.5415 37.5238L59.4939 37.2188ZM52.7532 34.5717L52.3098 33.6754L52.308 33.6763L52.7532 34.5717ZM49.9546 37.7368L49.5686 38.6592L50.4623 39.0332L50.8644 38.1518L49.9546 37.7368ZM45.8956 36.0383L44.9836 35.6282L44.5625 36.5645L45.5096 36.9608L45.8956 36.0383ZM51.0914 30.6677L51.4335 31.6074L51.4341 31.6071L51.0914 30.6677ZM63.5421 35.8341L62.62 36.2211L62.6232 36.2286L63.5421 35.8341ZM59.848 47.2532L59.2271 46.4693L59.223 46.4726L59.848 47.2532ZM54.8003 50.301L54.4033 49.3832L54.4029 49.3833L54.8003 50.301ZM48.2089 52.7895L47.8868 51.8428L47.8845 51.8436L48.2089 52.7895ZM45.9308 53.5707L45.6064 52.6248L43.1184 53.4779L45.5448 54.4932L45.9308 53.5707ZM57.628 58.4652L58.5505 58.8513L58.9365 57.9288L58.014 57.5428L57.628 58.4652ZM56.1612 61.9707L55.7752 62.8932L56.6977 63.2792L57.0837 62.3567L56.1612 61.9707ZM38.2279 54.4668L37.3054 54.0808L36.9194 55.0033L37.8419 55.3893L38.2279 54.4668ZM39.5094 51.4041L39.2 50.4532L38.7639 50.5951L38.5869 51.0181L39.5094 51.4041ZM43.4348 51.1783C46.6583 50.1222 49.2348 49.2202 51.1574 48.4732L50.4331 46.609C48.5586 47.3373 46.0206 48.2266 42.8122 49.2777L43.4348 51.1783ZM51.1577 48.4731C53.1551 47.6963 54.9467 46.762 56.5264 45.6658L55.3861 44.0227C53.9513 45.0184 52.3023 45.882 50.4328 46.6091L51.1577 48.4731ZM56.5264 45.6658C58.1606 44.5317 59.3518 43.1542 60.0351 41.5212L58.1901 40.7491C57.6794 41.9697 56.7663 43.0649 55.3861 44.0227L56.5264 45.6658ZM60.0351 41.5212C60.7128 39.9014 60.9038 38.3428 60.4462 36.9138L58.5415 37.5238C58.8108 38.3646 58.7476 39.4169 58.1901 40.7491L60.0351 41.5212ZM60.4514 36.9303C59.9966 35.421 58.7854 34.3641 57.1208 33.6675L56.3487 35.5125C57.6853 36.0718 58.3135 36.7673 58.5364 37.5073L60.4514 36.9303ZM57.1208 33.6675C55.4529 32.9697 53.818 32.9293 52.3098 33.6754L53.1967 35.468C54.0944 35.0239 55.1138 34.9958 56.3487 35.5125L57.1208 33.6675ZM52.308 33.6763C50.8816 34.3856 49.8098 35.6449 49.0448 37.3217L50.8644 38.1518C51.4948 36.7702 52.2887 35.9195 53.1985 35.4671L52.308 33.6763ZM50.3406 36.8143L46.2816 35.1158L45.5096 36.9608L49.5686 38.6592L50.3406 36.8143ZM46.8077 36.4485C47.9778 33.8464 49.5384 32.2972 51.4335 31.6074L50.7493 29.728C48.2112 30.652 46.308 32.6832 44.9836 35.6282L46.8077 36.4485ZM51.4341 31.6071C53.4194 30.883 55.5261 30.9623 57.8095 31.9178L58.5816 30.0728C55.8959 28.949 53.2664 28.8099 50.7488 29.7282L51.4341 31.6071ZM57.8095 31.9178C60.3183 32.9676 61.8644 34.4206 62.62 36.2211L64.4642 35.4471C63.4539 33.0398 61.4356 31.267 58.5816 30.0728L57.8095 31.9178ZM62.6232 36.2286C63.4068 38.0539 63.3798 40.0561 62.437 42.3094L64.282 43.0814C65.3978 40.4147 65.4926 37.8428 64.461 35.4397L62.6232 36.2286ZM62.437 42.3094C61.7652 43.9148 60.703 45.3002 59.2271 46.4693L60.4689 48.0371C62.1927 46.6716 63.4715 45.0184 64.282 43.0814L62.437 42.3094ZM59.223 46.4726C57.726 47.6712 56.1198 48.6405 54.4033 49.3832L55.1974 51.2188C57.0811 50.4038 58.8401 49.3413 60.473 48.0338L59.223 46.4726ZM54.4029 49.3833C52.6705 50.1336 50.5004 50.9536 47.8868 51.8428L48.531 53.7362C51.1754 52.8365 53.3996 51.9974 55.1978 51.2186L54.4029 49.3833ZM47.8845 51.8436L45.6064 52.6248L46.2552 54.5166L48.5333 53.7355L47.8845 51.8436ZM45.5448 54.4932L57.242 59.3877L58.014 57.5428L46.3168 52.6482L45.5448 54.4932ZM56.7055 58.0792L55.2387 61.5847L57.0837 62.3567L58.5505 58.8513L56.7055 58.0792ZM56.5472 61.0482L38.6139 53.5443L37.8419 55.3893L55.7752 62.8932L56.5472 61.0482ZM39.1504 54.8528L40.4319 51.7901L38.5869 51.0181L37.3054 54.0808L39.1504 54.8528ZM39.8189 52.355L43.433 51.1789L42.8141 49.2771L39.2 50.4532L39.8189 52.355Z" fill="#1E4364"/>
<path d="M68.5685 50.6584C69.3675 46.1148 70.7526 42.7031 72.7239 40.4234C74.7261 38.1221 77.6051 37.3016 81.3608 37.9621C85.1165 38.6226 87.5297 40.3736 88.6003 43.2154C89.7019 46.0354 89.8532 49.7173 89.0541 54.2609C88.2459 58.857 86.8384 62.3189 84.8316 64.6465C82.8557 66.9525 79.9899 67.7752 76.2342 67.1148C72.4784 66.4543 70.0521 64.7009 68.9552 61.8546C67.8891 58.9866 67.7602 55.2545 68.5685 50.6584ZM84.6418 53.485C85.016 51.3576 85.1879 49.5331 85.1576 48.0116C85.1536 46.4946 84.8122 45.2026 84.1334 44.1356C83.4593 43.0423 82.2949 42.3502 80.6403 42.0592C78.9857 41.7683 77.655 42.0216 76.6483 42.8193C75.6462 43.5908 74.8714 44.6865 74.3239 46.1064C73.8026 47.531 73.3549 49.307 72.9808 51.4343C72.5928 53.6405 72.3985 55.5151 72.3979 57.0584C72.3973 58.6016 72.7364 59.9067 73.4152 60.9737C74.1202 62.0454 75.3 62.7267 76.9546 63.0176C78.6093 63.3086 79.9376 63.0684 80.9397 62.2969C81.968 61.5301 82.7452 60.4213 83.2711 58.9705C83.797 57.5196 84.2539 55.6911 84.6418 53.485Z" fill="#1E4364"/>
<path d="M72.7239 40.4234L71.9695 39.7671L71.9675 39.7693L72.7239 40.4234ZM88.6003 43.2154L87.6645 43.568L87.6689 43.5792L88.6003 43.2154ZM84.8316 64.6465L84.0742 63.9935L84.0722 63.9958L84.8316 64.6465ZM68.9552 61.8546L68.0178 62.203L68.0221 62.2142L68.9552 61.8546ZM85.1576 48.0116L84.1576 48.0142L84.1576 48.0228L84.1578 48.0315L85.1576 48.0116ZM84.1334 44.1356L83.2822 44.6605L83.2897 44.6724L84.1334 44.1356ZM76.6483 42.8193L77.2584 43.6118L77.2693 43.6031L76.6483 42.8193ZM74.3239 46.1064L73.3908 45.7466L73.3877 45.7547L73.3847 45.7628L74.3239 46.1064ZM72.3979 57.0584L73.3979 57.0588L73.3979 57.0588L72.3979 57.0584ZM73.4152 60.9737L72.5714 61.5105L72.5755 61.5169L72.5797 61.5233L73.4152 60.9737ZM80.9397 62.2969L80.3419 61.4953L80.3358 61.4999L80.3297 61.5045L80.9397 62.2969ZM83.2711 58.9705L84.2112 59.3112L83.2711 58.9705ZM69.5534 50.8316C70.3364 46.379 71.6741 43.1664 73.4804 41.0775L71.9675 39.7693C69.8312 42.2399 68.3986 45.8506 67.5836 50.4852L69.5534 50.8316ZM73.4784 41.0798C75.1908 39.1115 77.6775 38.3297 81.1876 38.947L81.534 36.9772C77.5327 36.2736 74.2614 37.1327 71.9695 39.7671L73.4784 41.0798ZM81.1876 38.947C84.6982 39.5644 86.7514 41.1443 87.6645 43.5679L89.5361 42.8628C88.3079 39.6029 85.5347 37.6808 81.534 36.9772L81.1876 38.947ZM87.6689 43.5792C88.6775 46.1614 88.8519 49.6372 88.0693 54.0877L90.039 54.4341C90.8544 49.7973 90.7263 45.9094 89.5318 42.8515L87.6689 43.5792ZM88.0693 54.0877C87.2773 58.5913 85.9175 61.8556 84.0742 63.9935L85.5889 65.2995C87.7593 62.7822 89.2145 59.1227 90.039 54.4341L88.0693 54.0877ZM84.0722 63.9958C82.387 65.9625 79.918 66.7472 76.4073 66.1299L76.061 68.0997C80.0617 68.8032 83.3243 67.9424 85.5909 65.2972L84.0722 63.9958ZM76.4073 66.1299C72.8972 65.5126 70.8265 63.9294 69.8883 61.495L68.0221 62.2142C69.2778 65.4724 72.0597 67.396 76.061 68.0997L76.4073 66.1299ZM69.8925 61.5062C68.9127 58.8701 68.761 55.3374 69.5534 50.8316L67.5836 50.4852C66.7595 55.1717 66.8656 59.1031 68.0179 62.203L69.8925 61.5062ZM85.6267 53.6582C86.0078 51.4912 86.1894 49.5986 86.1574 47.9917L84.1578 48.0315C84.1864 49.4677 84.0241 51.224 83.657 53.3118L85.6267 53.6582ZM86.1576 48.0089C86.1532 46.3409 85.7762 44.8549 84.9772 43.5989L83.2897 44.6724C83.8482 45.5503 84.154 46.6484 84.1576 48.0142L86.1576 48.0089ZM84.9846 43.6107C84.1177 42.2049 82.6576 41.3986 80.8135 41.0743L80.4671 43.0441C81.9322 43.3018 82.8008 43.8798 83.2823 44.6605L84.9846 43.6107ZM80.8135 41.0743C78.9694 40.7501 77.3218 41.0098 76.0272 42.0356L77.2693 43.6031C77.9882 43.0335 79.0019 42.7865 80.4671 43.0441L80.8135 41.0743ZM76.0383 42.0269C74.8638 42.9311 73.9908 44.1905 73.3908 45.7466L75.2569 46.4662C75.7519 45.1824 76.4286 44.2504 77.2583 43.6117L76.0383 42.0269ZM73.3847 45.7628C72.8367 47.2605 72.3763 49.0979 71.9959 51.2611L73.9657 51.6075C74.3335 49.516 74.7684 47.8015 75.263 46.45L73.3847 45.7628ZM71.9959 51.2611C71.602 53.5012 71.3986 55.4373 71.3979 57.058L73.3979 57.0588C73.3985 55.593 73.5837 53.7797 73.9657 51.6075L71.9959 51.2611ZM71.3979 57.058C71.3972 58.7493 71.77 60.2507 72.5714 61.5105L74.2589 60.437C73.7027 59.5627 73.3973 58.4538 73.3979 57.0588L71.3979 57.058ZM72.5797 61.5233C73.4792 62.8905 74.9437 63.6794 76.7815 64.0025L77.1278 62.0327C75.6563 61.774 74.7612 61.2003 74.2506 60.4241L72.5797 61.5233ZM76.7815 64.0025C78.6173 64.3254 80.2586 64.0833 81.5497 63.0893L80.3297 61.5045C79.6167 62.0535 78.6012 62.2919 77.1278 62.0327L76.7815 64.0025ZM81.5375 63.0986C82.7519 62.193 83.6324 60.9081 84.2112 59.3112L82.3309 58.6297C81.8579 59.9345 81.1842 60.8672 80.3419 61.4953L81.5375 63.0986ZM84.2112 59.3112C84.7635 57.7876 85.2328 55.8983 85.6267 53.6582L83.657 53.3118C83.275 55.4839 82.8304 57.2516 82.3309 58.6297L84.2112 59.3112Z" fill="#1E4364"/>
<path d="M99.4767 69.5769C98.6501 69.5739 97.9578 69.2913 97.3999 68.7292C96.842 68.1672 96.5645 67.4728 96.5676 66.6461C96.5706 65.8195 96.8532 65.1272 97.4153 64.5692C97.9774 64.0113 98.6717 63.7339 99.4984 63.737C100.298 63.7399 100.977 64.0224 101.535 64.5845C102.093 65.1466 102.371 65.8409 102.368 66.6676C102.364 67.4943 102.082 68.1866 101.52 68.7445C100.958 69.3024 100.277 69.5799 99.4767 69.5769Z" fill="#1E4364"/>
<path d="M97.3999 68.7292L98.1096 68.0247L98.1096 68.0247L97.3999 68.7292ZM97.4153 64.5692L98.1198 65.279L97.4153 64.5692ZM101.535 64.5845L100.826 65.289L101.535 64.5845ZM101.52 68.7445L100.815 68.0348L101.52 68.7445ZM99.4805 68.5769C98.9061 68.5748 98.4717 68.3896 98.1096 68.0247L96.6902 69.4337C97.4438 70.193 98.3941 70.5729 99.473 70.5769L99.4805 68.5769ZM98.1096 68.0247C97.7474 67.6599 97.5654 67.2242 97.5676 66.6498L95.5676 66.6424C95.5636 67.7213 95.9365 68.6744 96.6902 69.4337L98.1096 68.0247ZM97.5676 66.6498C97.5697 66.0754 97.7549 65.6411 98.1198 65.279L96.7108 63.8595C95.9515 64.6132 95.5716 65.5635 95.5676 66.6424L97.5676 66.6498ZM98.1198 65.279C98.4846 64.9168 98.9203 64.7348 99.4947 64.737L99.5021 62.737C98.4232 62.733 97.4701 63.1058 96.7108 63.8595L98.1198 65.279ZM99.4947 64.737C100.032 64.7389 100.457 64.9173 100.826 65.289L102.245 63.88C101.498 63.1276 100.564 62.7409 99.5021 62.737L99.4947 64.737ZM100.826 65.289C101.188 65.6538 101.37 66.0895 101.368 66.6639L103.368 66.6713C103.372 65.5924 102.999 64.6393 102.245 63.88L100.826 65.289ZM101.368 66.6639C101.365 67.2383 101.18 67.6726 100.815 68.0348L102.224 69.4542C102.984 68.7005 103.364 67.7502 103.368 66.6713L101.368 66.6639ZM100.815 68.0348C100.444 68.4037 100.018 68.5789 99.4805 68.5769L99.473 70.5769C100.535 70.5808 101.472 70.2011 102.224 69.4542L100.815 68.0348Z" fill="#1E4364"/>
<path d="M109.938 54.4055C109.173 49.8561 109.338 46.1776 110.434 43.3702C111.552 40.5321 113.992 38.7967 117.752 38.1641C121.513 37.5315 124.372 38.3755 126.331 40.696C128.312 42.9858 129.685 46.4054 130.45 50.9548C131.224 55.5568 131.055 59.29 129.941 62.1545C128.849 64.9882 126.423 66.7213 122.663 67.354C118.902 67.9866 116.029 67.1448 114.044 64.8287C112.081 62.4819 110.712 59.0075 109.938 54.4055ZM126.032 51.698C125.674 49.568 125.226 47.7909 124.689 46.367C124.178 44.9386 123.425 43.8349 122.429 43.0561C121.428 42.251 120.099 41.9878 118.442 42.2665C116.786 42.5452 115.616 43.2287 114.934 44.3169C114.247 45.3789 113.883 46.6705 113.842 48.1918C113.826 49.7087 113.998 51.5322 114.356 53.6622C114.728 55.8712 115.171 57.703 115.686 59.1577C116.201 60.6124 116.957 61.7292 117.954 62.508C118.976 63.2825 120.316 63.5303 121.973 63.2516C123.629 62.9729 124.801 62.3026 125.488 61.2406C126.201 60.1742 126.563 58.8694 126.573 57.3262C126.584 55.7831 126.404 53.907 126.032 51.698Z" fill="#1E4364"/>
<path d="M110.434 43.3702L109.504 43.0037L109.503 43.0065L110.434 43.3702ZM126.331 40.696L125.567 41.3411L125.575 41.3502L126.331 40.696ZM129.941 62.1545L129.009 61.7921L129.008 61.795L129.941 62.1545ZM114.044 64.8287L113.277 65.4704L113.285 65.4795L114.044 64.8287ZM124.689 46.367L123.747 46.7036L123.75 46.7118L123.753 46.7198L124.689 46.367ZM122.429 43.0561L121.802 43.8353L121.813 43.844L122.429 43.0561ZM114.934 44.3169L115.774 44.86L115.781 44.8481L114.934 44.3169ZM113.842 48.1918L112.842 48.1645L112.842 48.1732L112.842 48.1818L113.842 48.1918ZM115.686 59.1577L116.629 58.8239L116.629 58.8239L115.686 59.1577ZM117.954 62.508L117.338 63.2959L117.344 63.3006L117.35 63.3053L117.954 62.508ZM125.488 61.2406L124.656 60.6848L124.652 60.6912L124.648 60.6976L125.488 61.2406ZM126.573 57.3262L127.573 57.3332L126.573 57.3262ZM110.924 54.2396C110.174 49.7812 110.362 46.3063 111.366 43.7339L109.503 43.0065C108.315 46.049 108.171 49.9309 108.952 54.5714L110.924 54.2396ZM111.365 43.7367C112.321 41.3093 114.403 39.7415 117.918 39.1503L117.586 37.178C113.58 37.852 110.784 39.7549 109.504 43.0037L111.365 43.7367ZM117.918 39.1503C121.433 38.5589 123.896 39.3619 125.567 41.341L127.095 40.051C124.848 37.389 121.592 36.5041 117.586 37.178L117.918 39.1503ZM125.575 41.3502C127.388 43.4469 128.714 46.6646 129.464 51.1207L131.436 50.7889C130.655 46.1463 129.235 42.5247 127.087 40.0418L125.575 41.3502ZM129.464 51.1207C130.223 55.6301 130.032 59.1611 129.009 61.7921L130.873 62.5168C132.077 59.4189 132.226 55.4835 131.436 50.7889L129.464 51.1207ZM129.008 61.795C128.077 64.2117 126.012 65.7765 122.497 66.3678L122.829 68.3401C126.834 67.6662 129.622 65.7646 130.874 62.514L129.008 61.795ZM122.497 66.3678C118.982 66.9591 116.501 66.1589 114.804 64.178L113.285 65.4795C115.557 68.1308 118.822 69.0141 122.829 68.3401L122.497 66.3678ZM114.811 64.1871C113.007 62.03 111.683 58.7511 110.924 54.2396L108.952 54.5714C109.742 59.2638 111.155 62.9337 113.277 65.4703L114.811 64.1871ZM127.018 51.5321C126.653 49.3625 126.192 47.5179 125.625 46.0141L123.753 46.7198C124.26 48.064 124.694 49.7735 125.046 51.8639L127.018 51.5321ZM125.631 46.0303C125.069 44.4596 124.217 43.1851 123.044 42.2683L121.813 43.844C122.633 44.4848 123.288 45.4175 123.747 46.7036L125.631 46.0303ZM123.055 42.277C121.768 41.2416 120.123 40.9697 118.276 41.2803L118.608 43.2526C120.075 43.0058 121.087 43.2603 121.802 43.8353L123.055 42.277ZM118.276 41.2803C116.43 41.5909 114.964 42.3863 114.087 43.7858L115.781 44.8481C116.268 44.071 117.141 43.4994 118.608 43.2526L118.276 41.2803ZM114.094 43.7739C113.289 45.0186 112.887 46.4974 112.842 48.1645L114.841 48.2191C114.879 46.8436 115.205 45.7392 115.774 44.8599L114.094 43.7739ZM112.842 48.1818C112.826 49.7765 113.006 51.6622 113.37 53.8281L115.342 53.4964C114.99 51.4022 114.827 49.6409 114.841 48.2019L112.842 48.1818ZM113.37 53.8281C113.747 56.0711 114.203 57.9639 114.744 59.4915L116.629 58.8239C116.14 57.4422 115.708 55.6713 115.342 53.4964L113.37 53.8281ZM114.744 59.4915C115.308 61.0859 116.161 62.3764 117.338 63.2959L118.569 61.7202C117.753 61.082 117.095 60.139 116.629 58.8239L114.744 59.4915ZM117.35 63.3053C118.654 64.2932 120.298 64.5473 122.138 64.2377L121.807 62.2655C120.333 62.5133 119.298 62.2717 118.557 61.7108L117.35 63.3053ZM122.138 64.2377C123.977 63.9285 125.443 63.1519 126.327 61.7836L124.648 60.6976C124.159 61.4533 123.282 62.0173 121.807 62.2655L122.138 64.2377ZM126.319 61.7964C127.161 60.537 127.561 59.0317 127.573 57.3332L125.573 57.3192C125.564 58.7071 125.24 59.8114 124.656 60.6848L126.319 61.7964ZM127.573 57.3332C127.585 55.7127 127.396 53.7751 127.018 51.5321L125.046 51.8639C125.412 54.0389 125.584 55.8535 125.573 57.3192L127.573 57.3332Z" fill="#1E4364"/>
<path d="M137.474 48.9713C135.694 44.7155 135.017 41.096 135.446 38.1128C135.888 35.0947 137.869 32.8497 141.386 31.3777C144.904 29.9057 147.881 30.0766 150.316 31.8904C152.766 33.6693 154.882 36.6866 156.662 40.9424C158.464 45.2474 159.148 48.9212 158.716 51.9639C158.298 54.9718 156.33 57.2116 152.812 58.6836C149.294 60.1556 146.305 59.9898 143.845 58.1863C141.399 56.348 139.276 53.2763 137.474 48.9713ZM152.529 42.6717C151.696 40.6791 150.855 39.0506 150.008 37.7863C149.186 36.5116 148.201 35.6085 147.053 35.0769C145.896 34.5207 144.542 34.5668 142.992 35.2153C141.442 35.8638 140.459 36.7955 140.042 38.0105C139.616 39.2009 139.555 40.5415 139.861 42.0323C140.191 43.5128 140.773 45.2494 141.607 47.242C142.472 49.3084 143.32 50.9912 144.153 52.2905C144.986 53.5897 145.976 54.5052 147.123 55.0368C148.296 55.5581 149.656 55.4945 151.206 54.846C152.756 54.1975 153.744 53.2781 154.171 52.0877C154.623 50.887 154.678 49.5341 154.338 48.029C153.997 46.5239 153.394 44.7381 152.529 42.6717Z" fill="#1E4364"/>
<path d="M135.446 38.1128L134.456 37.9677L134.456 37.9707L135.446 38.1128ZM150.316 31.8904L149.719 32.6925L149.729 32.6996L150.316 31.8904ZM158.716 51.9639L157.726 51.8233L157.725 51.8263L158.716 51.9639ZM143.845 58.1863L143.244 58.9858L143.254 58.9928L143.845 58.1863ZM150.008 37.7863L149.168 38.3284L149.173 38.3357L149.177 38.3428L150.008 37.7863ZM147.053 35.0769L146.62 35.9783L146.633 35.9842L147.053 35.0769ZM140.042 38.0105L140.984 38.3481L140.988 38.3349L140.042 38.0105ZM139.861 42.0323L138.881 42.2333L138.883 42.2417L138.885 42.2501L139.861 42.0323ZM144.153 52.2905L144.995 51.7509L144.995 51.7509L144.153 52.2905ZM147.123 55.0368L146.703 55.9441L146.71 55.9474L146.717 55.9505L147.123 55.0368ZM154.171 52.0877L153.235 51.7357L153.233 51.7429L153.23 51.7501L154.171 52.0877ZM154.338 48.029L155.313 47.8082L154.338 48.029ZM138.397 48.5853C136.652 44.4147 136.043 40.9884 136.436 38.2549L134.456 37.9707C133.992 41.2037 134.735 45.0163 136.552 49.3573L138.397 48.5853ZM136.435 38.2579C136.814 35.6766 138.485 33.6759 141.772 32.3002L141 30.4552C137.252 32.0234 134.963 34.5128 134.456 37.9677L136.435 38.2579ZM141.772 32.3002C145.061 30.9243 147.642 31.1455 149.719 32.6924L150.914 31.0884C148.12 29.0077 144.748 28.8872 141 30.4552L141.772 32.3002ZM149.729 32.6996C151.972 34.3284 153.996 37.1599 155.74 41.3284L157.585 40.5564C155.768 36.2134 153.56 33.0101 150.904 31.0812L149.729 32.6996ZM155.74 41.3284C157.505 45.5468 158.123 49.0285 157.726 51.8233L159.706 52.1046C160.173 48.814 159.422 44.948 157.585 40.5564L155.74 41.3284ZM157.725 51.8263C157.369 54.3915 155.714 56.3852 152.426 57.7611L153.198 59.6061C156.945 58.0381 159.227 55.552 159.706 52.1016L157.725 51.8263ZM152.426 57.7611C149.138 59.1368 146.541 58.9223 144.436 57.3798L143.254 58.9928C146.07 61.0573 149.45 61.1743 153.198 59.6061L152.426 57.7611ZM144.446 57.387C142.198 55.6973 140.163 52.8056 138.397 48.5853L136.552 49.3573C138.389 53.7469 140.601 56.9987 143.244 58.9857L144.446 57.387ZM153.452 42.2857C152.603 40.2561 151.734 38.565 150.839 37.2297L149.177 38.3428C149.977 39.5363 150.789 41.1022 151.607 43.0577L153.452 42.2857ZM150.849 37.2441C149.944 35.8425 148.825 34.7953 147.474 34.1695L146.633 35.9842C147.577 36.4216 148.428 37.1807 149.168 38.3284L150.849 37.2441ZM147.486 34.1755C145.998 33.4603 144.333 33.57 142.606 34.2928L143.378 36.1378C144.75 35.5636 145.794 35.5811 146.62 35.9782L147.486 34.1755ZM142.606 34.2928C140.879 35.0155 139.632 36.1238 139.097 37.6861L140.988 38.3349C141.286 37.4673 142.006 36.712 143.378 36.1378L142.606 34.2928ZM139.101 37.6729C138.601 39.0681 138.546 40.5995 138.881 42.2333L140.84 41.8314C140.564 40.4834 140.63 39.3337 140.984 38.3481L139.101 37.6729ZM138.885 42.2501C139.232 43.8067 139.837 45.6018 140.685 47.628L142.53 46.856C141.71 44.897 141.15 43.219 140.837 41.8145L138.885 42.2501ZM140.685 47.628C141.563 49.7262 142.437 51.4657 143.311 52.8301L144.995 51.7509C144.204 50.5168 143.381 48.8906 142.53 46.856L140.685 47.628ZM143.311 52.8301C144.224 54.2541 145.348 55.3165 146.703 55.9441L147.544 54.1294C146.604 53.6938 145.748 52.9254 144.995 51.7509L143.311 52.8301ZM146.717 55.9505C148.212 56.6155 149.871 56.4888 151.592 55.7685L150.82 53.9235C149.442 54.5002 148.379 54.5007 147.53 54.1231L146.717 55.9505ZM151.592 55.7685C153.312 55.049 154.563 53.9591 155.113 52.4253L153.23 51.7501C152.926 52.5971 152.2 53.3461 150.82 53.9235L151.592 55.7685ZM155.107 52.4397C155.641 51.0217 155.688 49.4648 155.313 47.8082L153.362 48.2498C153.669 49.6035 153.605 50.7523 153.235 51.7357L155.107 52.4397ZM155.313 47.8082C154.955 46.2276 154.33 44.3839 153.452 42.2857L151.607 43.0577C152.458 45.0923 153.039 46.8202 153.362 48.2498L155.313 47.8082Z" fill="#1E4364"/>
<path d="M163.052 37.4118C160.349 33.6731 158.867 30.3025 158.605 27.3001C158.349 24.2604 159.766 21.6236 162.856 19.3896C165.947 17.1555 168.884 16.6444 171.669 17.8562C174.459 19.0308 177.206 21.4874 179.909 25.2262C182.642 29.0081 184.145 32.4297 184.417 35.491C184.694 38.515 183.288 41.144 180.198 43.378C177.107 45.6121 174.159 46.131 171.353 44.9348C168.553 43.7014 165.786 41.1938 163.052 37.4118ZM176.278 27.8508C175.012 26.1002 173.823 24.7058 172.711 23.6674C171.62 22.6134 170.455 21.9582 169.217 21.7017C167.963 21.4236 166.655 21.7767 165.294 22.7609C163.932 23.7452 163.187 24.8762 163.058 26.1542C162.913 27.4105 163.159 28.7297 163.796 30.1117C164.455 31.4782 165.417 33.0367 166.682 34.7872C167.995 36.6025 169.204 38.048 170.311 39.1236C171.417 40.1992 172.59 40.8653 173.828 41.1218C175.088 41.3626 176.399 40.9909 177.76 40.0067C179.122 39.0225 179.875 37.9022 180.02 36.6459C180.186 35.3739 179.932 34.0439 179.258 32.6559C178.583 31.2678 177.59 29.6661 176.278 27.8508Z" fill="#1E4364"/>
<path d="M158.605 27.3001L157.608 27.384L157.609 27.387L158.605 27.3001ZM171.669 17.8562L171.27 18.7732L171.281 18.7779L171.669 17.8562ZM184.417 35.491L183.421 35.5793L183.421 35.5824L184.417 35.491ZM171.353 44.9348L170.95 45.8501L170.961 45.8547L171.353 44.9348ZM172.711 23.6674L172.016 24.3866L172.022 24.3926L172.029 24.3985L172.711 23.6674ZM169.217 21.7017L169 22.6781L169.014 22.6809L169.217 21.7017ZM163.058 26.1542L164.051 26.2686L164.053 26.2547L163.058 26.1542ZM163.796 30.1117L162.888 30.5304L162.892 30.5382L162.895 30.546L163.796 30.1117ZM170.311 39.1236L171.008 38.4066L171.008 38.4066L170.311 39.1236ZM173.828 41.1218L173.625 42.101L173.633 42.1025L173.64 42.104L173.828 41.1218ZM180.02 36.6459L179.028 36.5162L179.027 36.5238L179.026 36.5314L180.02 36.6459ZM179.258 32.6559L180.157 32.2189L179.258 32.6559ZM163.862 36.8259C161.214 33.1621 159.841 29.9642 159.601 27.2132L157.609 27.387C157.892 30.6408 159.485 34.184 162.241 37.9976L163.862 36.8259ZM159.601 27.2162C159.382 24.6164 160.554 22.2879 163.442 20.2L162.271 18.5792C158.978 20.9593 157.315 23.9045 157.608 27.384L159.601 27.2162ZM163.442 20.2C166.331 18.1117 168.895 17.7396 171.27 18.7731L172.068 16.9393C168.874 15.5492 165.563 16.1994 162.271 18.5792L163.442 20.2ZM171.281 18.7779C173.836 19.8534 176.451 22.1499 179.098 25.812L180.719 24.6403C177.961 20.8249 175.083 18.2082 172.057 16.9345L171.281 18.7779ZM179.098 25.812C181.777 29.5179 183.171 32.7676 183.421 35.5793L185.413 35.4026C185.119 32.0919 183.508 28.4984 180.719 24.6403L179.098 25.812ZM183.421 35.5824C183.658 38.1614 182.501 40.4793 179.612 42.5676L180.783 44.1885C184.075 41.8087 185.731 38.8685 185.413 35.3996L183.421 35.5824ZM179.612 42.5676C176.723 44.6556 174.145 45.038 171.745 44.0149L170.961 45.8547C174.173 47.224 177.491 46.5686 180.783 44.1885L179.612 42.5676ZM171.756 44.0197C169.182 42.886 166.542 40.5335 163.862 36.8259L162.241 37.9976C165.029 41.854 167.923 44.5168 170.95 45.85L171.756 44.0197ZM177.088 27.2649C175.799 25.4818 174.568 24.033 173.393 22.9364L172.029 24.3985C173.079 25.3786 174.226 26.7186 175.467 28.4366L177.088 27.2649ZM173.406 22.9482C172.206 21.7892 170.877 21.0244 169.42 20.7225L169.014 22.6809C170.033 22.892 171.034 23.4376 172.016 24.3866L173.406 22.9482ZM169.433 20.7254C167.821 20.3678 166.225 20.8536 164.708 21.9505L165.879 23.5713C167.085 22.6998 168.105 22.4794 169 22.678L169.433 20.7254ZM164.708 21.9505C163.19 23.0474 162.229 24.4103 162.063 26.0536L164.053 26.2547C164.145 25.3422 164.674 24.4429 165.879 23.5713L164.708 21.9505ZM162.064 26.0397C161.895 27.5121 162.19 29.0158 162.888 30.5304L164.704 29.6931C164.128 28.4435 163.931 27.3088 164.051 26.2686L162.064 26.0397ZM162.895 30.546C163.588 31.9826 164.585 33.593 165.872 35.373L167.493 34.2013C166.249 32.4803 165.322 30.9738 164.697 29.6775L162.895 30.546ZM165.872 35.373C167.205 37.2163 168.452 38.7111 169.614 39.8407L171.008 38.4066C169.957 37.3849 168.785 35.9887 167.493 34.2013L165.872 35.373ZM169.614 39.8407C170.827 41.0196 172.163 41.7982 173.625 42.101L174.031 40.1425C173.016 39.9324 172.008 39.3789 171.008 38.4066L169.614 39.8407ZM173.64 42.104C175.248 42.4112 176.834 41.9103 178.346 40.8171L177.175 39.1963C175.964 40.0716 174.929 40.314 174.016 40.1395L173.64 42.104ZM178.346 40.8171C179.857 39.7251 180.827 38.3791 181.013 36.7604L179.026 36.5314C178.923 37.4253 178.387 38.3198 177.175 39.1963L178.346 40.8171ZM181.011 36.7756C181.208 35.2735 180.9 33.7466 180.157 32.2189L178.358 33.0929C178.965 34.3412 179.165 35.4744 179.028 36.5162L181.011 36.7756ZM180.157 32.2189C179.449 30.7612 178.421 29.1082 177.088 27.2649L175.467 28.4366C176.76 30.224 177.718 31.7744 178.358 33.0929L180.157 32.2189Z" fill="#1E4364"/>
</svg>
