<svg width="231" height="92" viewBox="0 0 231 92" fill="none" xmlns="http://www.w3.org/2000/svg">
<path d="M31.7057 41.9556C30.9151 43.0292 29.9035 43.8408 28.6709 44.3902C27.4598 44.9555 26.1017 45.1808 24.5967 45.066C23.1131 44.967 21.626 44.468 20.1354 43.569L18.2142 46.178L16.1206 44.6362L18.0418 42.0273C16.1657 40.3477 15.0002 38.5125 14.5454 36.5217C14.0906 34.531 14.5115 32.6552 15.8081 30.8945L19.7376 33.7881C19.1854 34.673 18.9399 35.5685 19.0012 36.4747C19.0782 37.3594 19.5016 38.201 20.2713 38.9996L25.4894 31.9136C24.3196 30.4892 23.4181 29.2624 22.7851 28.2332C22.1678 27.1826 21.8376 26.0121 21.7943 24.7218C21.7724 23.4472 22.2833 22.1014 23.3269 20.6842C24.6394 18.9019 26.3452 17.8896 28.4445 17.6472C30.5596 17.3833 32.6975 17.8979 34.8583 19.191L36.7795 16.5821L38.8731 18.1238L36.9519 20.7328C38.715 22.296 39.7861 24.012 40.1651 25.8808C40.5815 27.7439 40.2086 29.6219 39.0465 31.5148L35.1169 28.6211C35.5427 27.908 35.7199 27.1278 35.6485 26.2804C35.5928 25.4115 35.2604 24.6037 34.6512 23.857L29.528 30.8142C30.7136 32.2172 31.6151 33.444 32.2323 34.4946C32.8654 35.5238 33.1928 36.6756 33.2146 37.9502C33.2523 39.2032 32.7493 40.5384 31.7057 41.9556ZM27.2055 23.2423C26.5572 24.1227 26.3089 24.9995 26.4605 25.8729C26.6337 26.7621 27.0927 27.7128 27.8376 28.7249L32.6287 22.2187C31.6264 21.6461 30.6404 21.4334 29.671 21.5806C28.7231 21.7436 27.9012 22.2975 27.2055 23.2423ZM22.3649 40.5414C23.4204 41.0868 24.4379 41.2566 25.4175 41.0506C26.4129 40.8232 27.2268 40.2801 27.8593 39.4212C28.4918 38.5623 28.7136 37.6989 28.5246 36.8312C28.373 35.9579 27.9247 35.0151 27.1798 34.0029L22.3649 40.5414Z" fill="#1E4364"/>
<path d="M28.6709 44.3902L28.2637 43.4769L28.2558 43.4804L28.2479 43.4841L28.6709 44.3902ZM24.5967 45.066L24.6727 44.0688L24.6633 44.0682L24.5967 45.066ZM20.1354 43.569L20.6518 42.7127L19.8709 42.2417L19.3301 42.9761L20.1354 43.569ZM18.2142 46.178L17.6212 46.9832L18.4264 47.5761L19.0194 46.7709L18.2142 46.178ZM16.1206 44.6362L15.3153 44.0433L14.7224 44.8485L15.5276 45.4415L16.1206 44.6362ZM18.0418 42.0273L18.847 42.6203L19.3859 41.8885L18.7088 41.2823L18.0418 42.0273ZM14.5454 36.5217L13.5705 36.7445L14.5454 36.5217ZM15.8081 30.8945L16.4011 30.0892L15.5959 29.4963L15.0029 30.3015L15.8081 30.8945ZM19.7376 33.7881L20.586 34.3176L21.0763 33.532L20.3306 32.9829L19.7376 33.7881ZM19.0012 36.4747L18.0034 36.5422L18.0041 36.5518L18.0049 36.5615L19.0012 36.4747ZM20.2713 38.9996L19.5513 39.6936L20.3738 40.547L21.0766 39.5926L20.2713 38.9996ZM25.4894 31.9136L26.2947 32.5066L26.756 31.8802L26.2622 31.279L25.4894 31.9136ZM22.7851 28.2332L21.9229 28.7397L21.928 28.7485L21.9333 28.7571L22.7851 28.2332ZM21.7943 24.7218L20.7944 24.7389L20.7945 24.7471L20.7948 24.7553L21.7943 24.7218ZM28.4445 17.6472L28.5592 18.6406L28.5683 18.6395L28.4445 17.6472ZM34.8583 19.191L34.3448 20.0491L35.1246 20.5158L35.6635 19.784L34.8583 19.191ZM36.7795 16.5821L37.3725 15.7769L36.5672 15.1839L35.9743 15.9891L36.7795 16.5821ZM38.8731 18.1238L39.6783 18.7168L40.2713 17.9116L39.4661 17.3186L38.8731 18.1238ZM36.9519 20.7328L36.1467 20.1398L35.6051 20.8751L36.2885 21.481L36.9519 20.7328ZM40.1651 25.8808L39.1851 26.0796L39.187 26.0893L39.1892 26.0989L40.1651 25.8808ZM39.0465 31.5148L38.4535 32.32L39.3295 32.9651L39.8987 32.038L39.0465 31.5148ZM35.1169 28.6211L34.2583 28.1085L33.7929 28.888L34.524 29.4264L35.1169 28.6211ZM35.6485 26.2804L34.6505 26.3443L34.6511 26.3543L34.652 26.3644L35.6485 26.2804ZM34.6512 23.857L35.426 23.2249L34.6107 22.2256L33.8459 23.2641L34.6512 23.857ZM29.528 30.8142L28.7227 30.2212L28.2547 30.8568L28.7642 31.4597L29.528 30.8142ZM32.2323 34.4946L31.3701 35.0012L31.3752 35.0099L31.3806 35.0186L32.2323 34.4946ZM33.2146 37.9502L32.2147 37.9673L32.2151 37.9802L33.2146 37.9502ZM26.4605 25.8729L25.4753 26.044L25.477 26.054L25.479 26.064L26.4605 25.8729ZM27.8376 28.7249L27.0322 29.3177L27.8373 30.4117L28.6428 29.3179L27.8376 28.7249ZM32.6287 22.2187L33.434 22.8117L34.0999 21.9074L33.1247 21.3504L32.6287 22.2187ZM29.671 21.5806L29.5209 20.5919L29.5112 20.5934L29.5016 20.5951L29.671 21.5806ZM22.3649 40.5414L21.5597 39.9484L20.8649 40.8919L21.9058 41.4297L22.3649 40.5414ZM25.4175 41.0506L25.6232 42.0292L25.6317 42.0274L25.6402 42.0255L25.4175 41.0506ZM28.5246 36.8312L27.5394 37.0023L27.543 37.0232L27.5475 37.044L28.5246 36.8312ZM27.1798 34.0029L27.9852 33.4102L27.1801 32.3161L26.3746 33.4099L27.1798 34.0029ZM30.9005 41.3626C30.2138 42.295 29.3401 42.997 28.2637 43.4769L29.0781 45.3036C30.4668 44.6845 31.6163 43.7634 32.5109 42.5485L30.9005 41.3626ZM28.2479 43.4841C27.2119 43.9677 26.029 44.1723 24.6727 44.0689L24.5206 46.0631C26.1745 46.1892 27.7077 45.9434 29.0939 45.2964L28.2479 43.4841ZM24.6633 44.0682C23.3638 43.9815 22.0292 43.5434 20.6518 42.7127L19.6189 44.4253C21.2228 45.3926 22.8623 45.9525 24.5301 46.0638L24.6633 44.0682ZM19.3301 42.9761L17.4089 45.585L19.0194 46.7709L20.9406 44.162L19.3301 42.9761ZM18.8071 45.3727L16.7135 43.831L15.5276 45.4415L17.6212 46.9832L18.8071 45.3727ZM16.9258 45.2292L18.847 42.6203L17.2366 41.4343L15.3153 44.0433L16.9258 45.2292ZM18.7088 41.2823C16.9505 39.7081 15.9192 38.0451 15.5203 36.299L13.5705 36.7445C14.0812 38.9799 15.3809 40.9873 17.3748 42.7724L18.7088 41.2823ZM15.5203 36.299C15.1353 34.6139 15.4754 33.0327 16.6134 31.4874L15.0029 30.3015C13.5476 32.2777 13.0459 34.448 13.5705 36.7445L15.5203 36.299ZM15.2152 31.6997L19.1447 34.5934L20.3306 32.9829L16.4011 30.0892L15.2152 31.6997ZM18.8893 33.2587C18.2429 34.2944 17.9259 35.3961 18.0034 36.5422L19.9989 36.4072C19.9538 35.7409 20.1279 35.0516 20.586 34.3176L18.8893 33.2587ZM18.0049 36.5615C18.1064 37.7263 18.6633 38.7722 19.5513 39.6936L20.9914 38.3057C20.34 37.6298 20.0501 36.9925 19.9974 36.3879L18.0049 36.5615ZM21.0766 39.5926L26.2947 32.5066L24.6842 31.3207L19.4661 38.4067L21.0766 39.5926ZM26.2622 31.279C25.1079 29.8734 24.2372 28.6853 23.6368 27.7093L21.9333 28.7571C22.599 29.8394 23.5313 31.1049 24.7166 32.5483L26.2622 31.279ZM23.6473 27.7267C23.1196 26.8284 22.8318 25.8221 22.7937 24.6882L20.7948 24.7553C20.8434 26.202 21.2161 27.5368 21.9229 28.7397L23.6473 27.7267ZM22.7941 24.7046C22.7772 23.7192 23.1699 22.5838 24.1322 21.2771L22.5217 20.0912C21.3967 21.6189 20.7676 23.1753 20.7944 24.7389L22.7941 24.7046ZM24.1322 21.2771C25.2888 19.7065 26.7501 18.8495 28.5592 18.6406L28.3298 16.6538C25.9404 16.9297 23.99 18.0974 22.5217 20.0912L24.1322 21.2771ZM28.5683 18.6395C30.4236 18.408 32.3394 18.849 34.3448 20.0491L35.3718 18.333C33.0556 16.9468 30.6957 16.3586 28.3207 16.6549L28.5683 18.6395ZM35.6635 19.784L37.5847 17.1751L35.9743 15.9891L34.0531 18.5981L35.6635 19.784ZM36.1865 17.3873L38.2801 18.929L39.4661 17.3186L37.3725 15.7769L36.1865 17.3873ZM38.0679 17.5309L36.1467 20.1398L37.7571 21.3257L39.6783 18.7168L38.0679 17.5309ZM36.2885 21.481C37.9282 22.9349 38.8585 24.4695 39.1851 26.0796L41.1452 25.682C40.7136 23.5546 39.5018 21.6572 37.6153 19.9845L36.2885 21.481ZM39.1892 26.0989C39.5396 27.6668 39.2442 29.2813 38.1942 30.9916L39.8987 32.038C41.1729 29.9625 41.6234 27.821 41.1411 25.6627L39.1892 26.0989ZM39.6394 30.7096L35.7099 27.8159L34.524 29.4264L38.4535 32.32L39.6394 30.7096ZM35.9755 29.1338C36.5112 28.2366 36.7335 27.2469 36.6449 26.1964L34.652 26.3644C34.7063 27.0087 34.5742 27.5795 34.2583 28.1085L35.9755 29.1338ZM36.6464 26.2165C36.5761 25.1174 36.1523 24.115 35.426 23.2249L33.8764 24.4892C34.3685 25.0925 34.6096 25.7056 34.6505 26.3443L36.6464 26.2165ZM33.8459 23.2641L28.7227 30.2212L30.3332 31.4072L35.4564 24.45L33.8459 23.2641ZM28.7642 31.4597C29.9296 32.8387 30.7922 34.0175 31.3701 35.0012L33.0945 33.9881C32.438 32.8705 31.4977 31.5957 30.2917 30.1687L28.7642 31.4597ZM31.3806 35.0186C31.9145 35.8866 32.1958 36.8617 32.2148 37.9673L34.2145 37.933C34.1898 36.4896 33.8162 35.161 33.0841 33.9707L31.3806 35.0186ZM32.2151 37.9802C32.2438 38.9349 31.864 40.0542 30.9005 41.3626L32.5109 42.5485C33.6347 41.0225 34.2608 39.4715 34.2142 37.9201L32.2151 37.9802ZM26.4003 22.6493C25.6306 23.6945 25.2665 24.8417 25.4753 26.044L27.4458 25.7018C27.3512 25.1573 27.4838 24.5508 28.0107 23.8352L26.4003 22.6493ZM25.479 26.064C25.6891 27.1434 26.2315 28.2297 27.0322 29.3177L28.643 28.1322C27.9539 27.1959 27.5782 26.3808 27.4421 25.6818L25.479 26.064ZM28.6428 29.3179L33.434 22.8117L31.8235 21.6257L27.0323 28.132L28.6428 29.3179ZM33.1247 21.3504C31.9628 20.6867 30.751 20.4052 29.5209 20.5919L29.8211 22.5693C30.5298 22.4617 31.2899 22.6056 32.1327 23.087L33.1247 21.3504ZM29.5016 20.5951C28.2453 20.8111 27.2136 21.5448 26.4003 22.6493L28.0107 23.8352C28.5889 23.0501 29.2009 22.6761 29.8405 22.5661L29.5016 20.5951ZM21.9058 41.4297C23.126 42.0603 24.3779 42.291 25.6232 42.0292L25.2118 40.072C24.4979 40.2221 23.7148 40.1133 22.824 39.653L21.9058 41.4297ZM25.6402 42.0255C26.8804 41.7422 27.8969 41.0566 28.6645 40.0141L27.0541 38.8282C26.5568 39.5035 25.9454 39.9043 25.1948 40.0757L25.6402 42.0255ZM28.6645 40.0141C29.43 38.9747 29.7641 37.8233 29.5018 36.6185L27.5475 37.044C27.6631 37.5746 27.5536 38.1498 27.0541 38.8282L28.6645 40.0141ZM29.5099 36.6601C29.323 35.5841 28.786 34.4984 27.9852 33.4102L26.3744 34.5956C27.0634 35.5318 27.4229 36.3317 27.5394 37.0023L29.5099 36.6601ZM26.3746 33.4099L21.5597 39.9484L23.1702 41.1343L27.985 34.5959L26.3746 33.4099Z" fill="#1E4364"/>
<path d="M65.8366 40.2589L53.689 34.6024L50.3289 41.8185C51.1517 41.378 52.1657 41.1588 53.3707 41.1611C54.5999 41.1745 55.7826 41.4458 56.9188 41.9749C58.9494 42.9204 60.3907 44.121 61.2425 45.5766C62.1185 47.0435 62.5128 48.5656 62.4256 50.1428C62.3624 51.7313 61.9876 53.2629 61.3009 54.7375C60.4679 56.5264 59.3744 57.9587 58.0205 59.0344C56.702 60.0971 55.168 60.7065 53.4186 60.8627C51.6934 61.03 49.8396 60.6522 47.8573 59.7291C45.2223 58.5022 43.411 56.8645 42.4234 54.8161C41.4357 52.7678 41.2857 50.5947 41.9733 48.2968L45.9983 50.1711C45.7351 51.4311 45.9053 52.6134 46.5087 53.7181C47.1234 54.7985 48.1197 55.6596 49.4977 56.3012C51.214 57.1004 52.7373 57.1773 54.0674 56.5318C55.4218 55.8975 56.4985 54.7222 57.2977 53.0058C58.1082 51.2653 58.2922 49.7331 57.8497 48.4092C57.4184 47.0612 56.3567 45.9931 54.6645 45.2052C53.4799 44.6536 52.336 44.4886 51.2327 44.7103C50.1647 44.919 49.2131 45.4466 48.3777 46.293L44.4615 44.4694L51.5701 29.2034L67.5251 36.6328L65.8366 40.2589Z" fill="#1E4364"/>
<path d="M65.8366 40.2589L65.4145 41.1655L66.321 41.5876L66.7431 40.6811L65.8366 40.2589ZM53.689 34.6024L54.1111 33.6959L53.2046 33.2738L52.7825 34.1803L53.689 34.6024ZM50.3289 41.8185L49.4223 41.3964L48.156 44.116L50.8008 42.7001L50.3289 41.8185ZM53.3707 41.1611L53.3817 40.1611L53.3725 40.1611L53.3707 41.1611ZM61.2425 45.5766L60.3794 46.0817L60.3839 46.0894L61.2425 45.5766ZM62.4256 50.1428L61.4271 50.0876L61.4267 50.0953L61.4263 50.1031L62.4256 50.1428ZM58.0205 59.0344L57.3984 58.2514L57.3929 58.2558L58.0205 59.0344ZM53.4186 60.8627L53.3297 59.8666L53.322 59.8673L53.4186 60.8627ZM42.4234 54.8161L43.3241 54.3818L42.4234 54.8161ZM41.9733 48.2968L42.3954 47.3903L41.3468 46.902L41.0152 48.0102L41.9733 48.2968ZM45.9983 50.1711L46.9772 50.3755L47.1393 49.5993L46.4204 49.2645L45.9983 50.1711ZM46.5087 53.7181L45.6311 54.1975L45.6353 54.205L45.6395 54.2125L46.5087 53.7181ZM54.0674 56.5318L53.6433 55.6261L53.6308 55.6321L54.0674 56.5318ZM57.8497 48.4092L56.8972 48.7139L56.9013 48.7262L57.8497 48.4092ZM51.2327 44.7103L51.4245 45.6917L51.4296 45.6907L51.2327 44.7103ZM48.3777 46.293L47.9556 47.1996L48.5944 47.497L49.0894 46.9955L48.3777 46.293ZM44.4615 44.4694L43.5549 44.0473L43.1328 44.9539L44.0393 45.376L44.4615 44.4694ZM51.5701 29.2034L51.9922 28.2968L51.0856 27.8747L50.6635 28.7812L51.5701 29.2034ZM67.5251 36.6328L68.4316 37.0549L68.8538 36.1484L67.9472 35.7262L67.5251 36.6328ZM66.2587 39.3524L54.1111 33.6959L53.2669 35.509L65.4145 41.1655L66.2587 39.3524ZM52.7825 34.1803L49.4223 41.3964L51.2354 42.2406L54.5955 35.0246L52.7825 34.1803ZM50.8008 42.7001C51.4417 42.357 52.2824 42.1591 53.3689 42.1611L53.3725 40.1611C52.049 40.1586 50.8618 40.3989 49.8569 40.9369L50.8008 42.7001ZM53.3597 42.161C54.444 42.1729 55.4867 42.4111 56.4967 42.8814L57.3409 41.0683C56.0785 40.4805 54.7558 40.1762 53.3817 40.1611L53.3597 42.161ZM56.4967 42.8814C58.4025 43.7689 59.6592 44.8509 60.3794 46.0817L62.1056 45.0716C61.1222 43.3911 59.4963 42.072 57.3409 41.0683L56.4967 42.8814ZM60.3839 46.0894C61.1665 47.3997 61.5024 48.7257 61.4271 50.0876L63.424 50.1981C63.5232 48.4054 63.0705 46.6873 62.101 45.0639L60.3839 46.0894ZM61.4263 50.1031C61.3686 51.5561 61.0264 52.958 60.3944 54.3154L62.2074 55.1596C62.9487 53.5678 63.3563 51.9065 63.4248 50.1825L61.4263 50.1031ZM60.3944 54.3154C59.6176 55.9835 58.6147 57.2851 57.3984 58.2514L58.6425 59.8173C60.1342 58.6323 61.3182 57.0693 62.2074 55.1596L60.3944 54.3154ZM57.3929 58.2558C56.2345 59.1895 54.8898 59.7274 53.3297 59.8666L53.5075 61.8587C55.4463 61.6857 57.1695 61.0047 58.648 59.8129L57.3929 58.2558ZM53.322 59.8673C51.8154 60.0135 50.1417 59.6897 48.2794 58.8226L47.4352 60.6357C49.5376 61.6147 51.5714 62.0466 53.5152 61.858L53.322 59.8673ZM48.2794 58.8226C45.7944 57.6655 44.1864 56.1701 43.3241 54.3818L41.5226 55.2505C42.6356 57.5589 44.6502 59.3389 47.4352 60.6357L48.2794 58.8226ZM43.3241 54.3818C42.4512 52.5714 42.3109 50.6566 42.9313 48.5835L41.0152 48.0102C40.2604 50.5327 40.4202 52.9642 41.5226 55.2505L43.3241 54.3818ZM41.5511 49.2034L45.5762 51.0776L46.4204 49.2645L42.3954 47.3903L41.5511 49.2034ZM45.0194 49.9666C44.7089 51.4536 44.9109 52.8791 45.6311 54.1975L47.3863 53.2386C46.8997 52.3478 46.7614 51.4086 46.9772 50.3755L45.0194 49.9666ZM45.6395 54.2125C46.3779 55.5104 47.552 56.4983 49.0755 57.2077L49.9198 55.3947C48.6874 54.8208 47.8689 54.0867 47.3779 53.2236L45.6395 54.2125ZM49.0755 57.2077C50.9817 58.0953 52.8305 58.2436 54.504 57.4314L53.6308 55.6321C52.6441 56.111 51.4464 56.1055 49.9198 55.3947L49.0755 57.2077ZM54.4916 57.4374C56.11 56.6794 57.333 55.2991 58.2043 53.4279L56.3912 52.5837C55.664 54.1453 54.7335 55.1156 53.6433 55.6262L54.4916 57.4374ZM58.2043 53.4279C59.0817 51.5437 59.3481 49.7375 58.7981 48.0922L56.9013 48.7262C57.2363 49.7286 57.1348 50.9868 56.3912 52.5837L58.2043 53.4279ZM58.8021 48.1045C58.261 46.413 56.9471 45.165 55.0866 44.2986L54.2424 46.1117C55.7663 46.8213 56.5758 47.7093 56.8972 48.7139L58.8021 48.1045ZM55.0866 44.2986C53.7411 43.6721 52.3804 43.4597 51.0357 43.7298L51.4296 45.6907C52.2916 45.5175 53.2188 45.6351 54.2424 46.1117L55.0866 44.2986ZM51.0408 43.7288C49.7571 43.9797 48.6289 44.6149 47.6659 45.5906L49.0894 46.9955C49.7973 46.2783 50.5724 45.8582 51.4245 45.6917L51.0408 43.7288ZM48.7998 45.3865L44.8836 43.5629L44.0393 45.376L47.9556 47.1996L48.7998 45.3865ZM45.368 44.8916L52.4766 29.6255L50.6635 28.7812L43.5549 44.0473L45.368 44.8916ZM51.1479 30.1099L67.103 37.5393L67.9472 35.7262L51.9922 28.2968L51.1479 30.1099ZM66.6186 36.2107L64.9301 39.8368L66.7431 40.6811L68.4316 37.0549L66.6186 36.2107Z" fill="#1E4364"/>
<path d="M70.5787 53.0174C71.6753 48.5363 73.2822 45.2233 75.3994 43.0784C77.5488 40.914 80.4756 40.285 84.1796 41.1914C87.8837 42.0978 90.1762 44.0041 91.0574 46.9102C91.9708 49.7967 91.8792 53.4805 90.7825 57.9616C89.6733 62.4945 88.0407 65.8562 85.885 68.0465C83.7614 70.2173 80.8477 70.8495 77.1436 69.943C73.4396 69.0366 71.134 67.1271 70.227 64.2147C69.3522 61.2828 69.4694 57.5503 70.5787 53.0174ZM86.431 56.8967C86.9444 54.7986 87.2361 52.9894 87.3062 51.4692C87.4021 49.9553 87.1466 48.6436 86.5396 47.5342C85.9389 46.3988 84.8226 45.6315 83.1908 45.2322C81.5589 44.8328 80.2145 44.998 79.1574 45.7276C78.1067 46.4314 77.2614 47.4736 76.6215 48.8545C76.0075 50.2416 75.4437 51.9842 74.9303 54.0823C74.3979 56.2581 74.0805 58.1159 73.9782 59.6557C73.8759 61.1956 74.1283 62.5202 74.7353 63.6296C75.3682 64.7454 76.5006 65.5029 78.1325 65.9022C79.7643 66.3016 81.1056 66.1494 82.1563 65.4456C83.233 64.7482 84.0814 63.693 84.7018 62.28C85.3221 60.8669 85.8985 59.0725 86.431 56.8967Z" fill="#1E4364"/>
<path d="M75.3994 43.0784L74.6898 42.3738L74.6877 42.3759L75.3994 43.0784ZM91.0574 46.9102L90.1003 47.2004L90.104 47.2119L91.0574 46.9102ZM85.885 68.0465L85.1723 67.345L85.1701 67.3472L85.885 68.0465ZM70.227 64.2147L69.2687 64.5007L69.2722 64.5121L70.227 64.2147ZM87.3062 51.4692L86.3082 51.4059L86.3076 51.4145L86.3072 51.4232L87.3062 51.4692ZM86.5396 47.5342L85.6556 48.0019L85.6623 48.0142L86.5396 47.5342ZM79.1574 45.7276L79.7139 46.5586L79.7255 46.5506L79.1574 45.7276ZM76.6215 48.8545L75.7141 48.434L75.7105 48.4418L75.707 48.4497L76.6215 48.8545ZM73.9782 59.6557L74.976 59.722L74.976 59.722L73.9782 59.6557ZM74.7353 63.6296L73.858 64.1096L73.8617 64.1163L73.8655 64.123L74.7353 63.6296ZM82.1563 65.4456L81.6127 64.6063L81.6062 64.6105L81.5998 64.6148L82.1563 65.4456ZM84.7018 62.28L85.6174 62.6819L84.7018 62.28ZM71.5501 53.2551C72.6247 48.8637 74.1712 45.7462 76.1111 43.7809L74.6877 42.3759C72.3933 44.7004 70.7259 48.2089 69.6074 52.7797L71.5501 53.2551ZM76.109 43.7831C77.9474 41.9318 80.4801 41.3156 83.9419 42.1627L84.4173 40.2201C80.4711 39.2544 77.1503 39.8961 74.6898 42.3738L76.109 43.7831ZM83.9419 42.1627C87.4043 43.01 89.3489 44.7219 90.1004 47.2003L92.0144 46.62C91.0036 43.2864 88.363 41.1856 84.4173 40.2201L83.9419 42.1627ZM90.104 47.2119C90.9403 49.8549 90.8853 53.3347 89.8112 57.7239L91.7539 58.1993C92.873 53.6264 93.0012 49.7385 92.0108 46.6085L90.104 47.2119ZM89.8112 57.7239C88.7243 62.1656 87.1523 65.3332 85.1723 67.345L86.5977 68.748C88.9291 66.3791 90.6223 62.8234 91.7539 58.1993L89.8112 57.7239ZM85.1701 67.3472C83.359 69.1986 80.8437 69.819 77.3813 68.9717L76.9059 70.9144C80.8516 71.8799 84.1638 71.236 86.5998 68.7458L85.1701 67.3472ZM77.3813 68.9717C73.9195 68.1245 71.9576 66.4083 71.1818 63.9174L69.2722 64.5121C70.3105 67.846 72.9597 69.9486 76.9059 70.9144L77.3813 68.9717ZM71.1853 63.9288C70.3812 61.234 70.4626 57.6989 71.5501 53.2551L69.6074 52.7797C68.4763 57.4017 68.3232 61.3315 69.2687 64.5006L71.1853 63.9288ZM87.4023 57.1344C87.9253 54.9973 88.2311 53.1207 88.3051 51.5152L86.3072 51.4232C86.2411 52.8582 85.9635 54.5999 85.4596 56.659L87.4023 57.1344ZM88.3042 51.5324C88.4097 49.8677 88.1314 48.3601 87.4168 47.0542L85.6623 48.0142C86.1618 48.927 86.3946 50.0428 86.3082 51.4059L88.3042 51.5324ZM87.4235 47.0665C86.6511 45.6066 85.2472 44.7059 83.4285 44.2608L82.9531 46.2035C84.398 46.5571 85.2267 47.1911 85.6557 48.0018L87.4235 47.0665ZM83.4285 44.2608C81.6098 43.8158 79.9486 43.9664 78.5893 44.9046L79.7255 46.5506C80.4803 46.0296 81.5081 45.8499 82.9531 46.2035L83.4285 44.2608ZM78.6009 44.8968C77.3694 45.7216 76.4154 46.9208 75.7141 48.434L77.5288 49.2749C78.1073 48.0265 78.8439 47.1412 79.7139 46.5585L78.6009 44.8968ZM75.707 48.4497C75.0615 49.908 74.4811 51.7112 73.959 53.8446L75.9017 54.32C76.4064 52.2573 76.9534 50.5752 77.5359 49.2592L75.707 48.4497ZM73.959 53.8446C73.4183 56.0539 73.0878 57.9724 72.9804 59.5895L74.976 59.722C75.0732 58.2594 75.3774 56.4623 75.9017 54.32L73.959 53.8446ZM72.9804 59.5895C72.8683 61.2771 73.1414 62.7998 73.858 64.1096L75.6126 63.1496C75.1152 62.2406 74.8835 61.114 74.976 59.722L72.9804 59.5895ZM73.8655 64.123C74.6729 65.5464 76.0823 66.4301 77.8948 66.8736L78.3702 64.9309C76.9189 64.5758 76.0635 63.9443 75.6051 63.1362L73.8655 64.123ZM77.8948 66.8736C79.7053 67.3167 81.359 67.1832 82.7128 66.2765L81.5998 64.6148C80.8522 65.1155 79.8233 65.2865 78.3702 64.9309L77.8948 66.8736ZM82.7 66.2849C83.9715 65.4613 84.9347 64.2372 85.6174 62.6819L83.7861 61.878C83.2282 63.1488 82.4945 64.0352 81.6127 64.6063L82.7 66.2849ZM85.6174 62.6819C86.2689 61.198 86.8616 59.3437 87.4023 57.1344L85.4596 56.659C84.9354 58.8013 84.3753 60.5358 83.7861 61.878L85.6174 62.6819Z" fill="#1E4364"/>
<path d="M98.415 59.0933C98.6189 54.4845 99.5506 50.9221 101.21 48.4064C102.897 45.8651 105.646 44.6788 109.455 44.8473C113.265 45.0158 115.885 46.4397 117.314 49.1188C118.772 51.7725 119.399 55.4037 119.195 60.0126C118.988 64.6747 118.041 68.2897 116.353 70.8575C114.692 73.4 111.957 74.5869 108.147 74.4184C104.338 74.2498 101.705 72.8254 100.248 70.1451C98.8198 67.4393 98.2087 63.7554 98.415 59.0933ZM114.719 59.8146C114.814 57.6567 114.749 55.8253 114.522 54.3205C114.321 52.8168 113.815 51.5799 113.004 50.6098C112.194 49.613 110.95 49.0775 109.272 49.0032C107.593 48.929 106.307 49.3525 105.412 50.2739C104.518 51.1686 103.891 52.3554 103.532 53.8343C103.2 55.3144 102.986 57.1334 102.891 59.2913C102.792 61.5291 102.842 63.4131 103.041 64.9434C103.24 66.4737 103.745 67.724 104.557 68.6941C105.395 69.6654 106.653 70.1882 108.331 70.2624C110.009 70.3367 111.295 69.9265 112.189 69.0318C113.11 68.1382 113.737 66.9381 114.07 65.4314C114.404 63.9246 114.62 62.0524 114.719 59.8146Z" fill="#1E4364"/>
<path d="M101.21 48.4064L100.377 47.8532L100.375 47.8557L101.21 48.4064ZM117.314 49.1188L116.432 49.5896L116.438 49.6002L117.314 49.1188ZM116.353 70.8575L115.517 70.3081L115.515 70.3107L116.353 70.8575ZM100.248 70.1451L99.3639 70.612L99.3696 70.6225L100.248 70.1451ZM114.522 54.3205L113.53 54.4526L113.532 54.4611L113.533 54.4697L114.522 54.3205ZM113.004 50.6098L112.228 51.2405L112.237 51.2513L113.004 50.6098ZM105.412 50.2739L106.119 50.9807L106.129 50.9706L105.412 50.2739ZM103.532 53.8343L102.561 53.5984L102.559 53.6068L102.557 53.6152L103.532 53.8343ZM103.041 64.9434L104.033 64.8144L104.033 64.8143L103.041 64.9434ZM104.557 68.6941L103.79 69.3356L103.794 69.3415L103.799 69.3473L104.557 68.6941ZM112.189 69.0318L111.493 68.3143L111.487 68.3196L111.482 68.325L112.189 69.0318ZM114.07 65.4314L115.047 65.6475L114.07 65.4314ZM99.414 59.1375C99.6138 54.6209 100.524 51.2621 102.045 48.957L100.375 47.8557C98.5769 50.5822 97.6239 54.348 97.416 59.0491L99.414 59.1375ZM102.043 48.9595C103.486 46.786 105.851 45.6888 109.411 45.8463L109.5 43.8483C105.441 43.6687 102.308 44.9442 100.377 47.8532L102.043 48.9595ZM109.411 45.8463C112.972 46.0039 115.213 47.3047 116.432 49.5896L118.197 48.648C116.557 45.5747 113.558 44.0278 109.5 43.8483L109.411 45.8463ZM116.438 49.6002C117.772 52.0301 118.395 55.454 118.196 59.9684L120.194 60.0568C120.402 55.3535 119.771 51.5149 118.191 48.6374L116.438 49.6002ZM118.196 59.9684C117.994 64.5367 117.068 67.9495 115.517 70.3081L117.188 71.407C119.014 68.6298 119.983 64.8127 120.194 60.0568L118.196 59.9684ZM115.515 70.3107C114.099 72.479 111.752 73.5769 108.191 73.4194L108.103 75.4174C112.161 75.5969 115.285 74.3209 117.19 71.4044L115.515 70.3107ZM108.191 73.4194C104.631 73.2618 102.373 71.9601 101.127 69.6677L99.3696 70.6225C101.037 73.6907 104.044 75.2378 108.103 75.4174L108.191 73.4194ZM101.133 69.6782C99.8197 67.1913 99.2118 63.7079 99.414 59.1375L97.416 59.0491C97.2057 63.8029 97.82 67.6874 99.364 70.612L101.133 69.6782ZM115.718 59.8588C115.815 57.6607 115.75 55.7605 115.51 54.1713L113.533 54.4697C113.747 55.8901 113.814 57.6526 113.72 59.7704L115.718 59.8588ZM115.513 54.1884C115.293 52.5349 114.726 51.1103 113.771 49.9683L112.237 51.2513C112.905 52.0495 113.35 53.0987 113.53 54.4526L115.513 54.1884ZM113.78 49.9791C112.739 48.6973 111.186 48.087 109.316 48.0042L109.227 50.0023C110.713 50.068 111.65 50.5287 112.228 51.2405L113.78 49.9791ZM109.316 48.0042C107.445 47.9215 105.845 48.3924 104.694 49.5771L106.129 50.9706C106.768 50.3127 107.741 49.9365 109.227 50.0023L109.316 48.0042ZM104.704 49.5672C103.657 50.6158 102.954 51.9777 102.561 53.5984L104.504 54.0702C104.829 52.7331 105.379 51.7214 106.119 50.9806L104.704 49.5672ZM102.557 53.6152C102.207 55.1712 101.989 57.0528 101.892 59.2471L103.89 59.3355C103.983 57.2139 104.193 55.4576 104.508 54.0534L102.557 53.6152ZM101.892 59.2471C101.791 61.5194 101.84 63.4655 102.049 65.0725L104.033 64.8143C103.843 63.3608 103.792 61.5388 103.89 59.3355L101.892 59.2471ZM102.049 65.0725C102.268 66.7498 102.832 68.1902 103.79 69.3356L105.324 68.0526C104.659 67.2577 104.213 66.1977 104.033 64.8144L102.049 65.0725ZM103.799 69.3473C104.868 70.5864 106.423 71.179 108.287 71.2615L108.375 69.2634C106.883 69.1974 105.921 68.7444 105.314 68.0409L103.799 69.3473ZM108.287 71.2615C110.149 71.3438 111.745 70.8913 112.897 69.7385L111.482 68.325C110.846 68.9617 109.87 69.3295 108.375 69.2634L108.287 71.2615ZM112.886 69.7493C113.973 68.694 114.679 67.3059 115.047 65.6475L113.094 65.2152C112.794 66.5703 112.246 67.5824 111.493 68.3143L112.886 69.7493ZM115.047 65.6475C115.397 64.0652 115.618 62.131 115.718 59.8588L113.72 59.7704C113.623 61.9737 113.411 63.7841 113.094 65.2152L115.047 65.6475Z" fill="#1E4364"/>
<path d="M131.474 74.1406C130.651 74.2239 129.933 74.0153 129.32 73.5147C128.706 73.014 128.357 72.3525 128.274 71.53C128.191 70.7076 128.399 69.9895 128.9 69.3759C129.401 68.7623 130.062 68.4137 130.885 68.3303C131.68 68.2496 132.385 68.4596 132.999 68.9603C133.613 69.4609 133.961 70.1225 134.044 70.9449C134.128 71.7674 133.919 72.4854 133.419 73.099C132.918 73.7127 132.27 74.0598 131.474 74.1406Z" fill="#1E4364"/>
<path d="M129.32 73.5147L129.952 72.7398L129.952 72.7398L129.32 73.5147ZM128.9 69.3759L129.675 70.0081L128.9 69.3759ZM132.999 68.9603L132.367 69.7351L132.999 68.9603ZM133.419 73.099L132.644 72.4669L133.419 73.099ZM131.373 73.1457C130.801 73.2036 130.35 73.0648 129.952 72.7398L128.687 74.2895C129.516 74.9658 130.501 75.2443 131.575 75.1354L131.373 73.1457ZM129.952 72.7398C129.553 72.4149 129.327 72.0006 129.269 71.4291L127.279 71.6309C127.388 72.7043 127.858 73.6132 128.687 74.2895L129.952 72.7398ZM129.269 71.4291C129.211 70.8577 129.35 70.4064 129.675 70.0081L128.125 68.7437C127.449 69.5727 127.17 70.5575 127.279 71.6309L129.269 71.4291ZM129.675 70.0081C130 69.6097 130.414 69.3832 130.985 69.3252L130.784 67.3354C129.71 67.4443 128.801 67.9148 128.125 68.7437L129.675 70.0081ZM130.985 69.3252C131.521 69.271 131.961 69.404 132.367 69.7351L133.631 68.1854C132.81 67.5152 131.84 67.2283 130.784 67.3354L130.985 69.3252ZM132.367 69.7351C132.765 70.0601 132.992 70.4743 133.05 71.0458L135.039 70.844C134.931 69.7706 134.46 68.8618 133.631 68.1854L132.367 69.7351ZM133.05 71.0458C133.107 71.6173 132.969 72.0686 132.644 72.4669L134.193 73.7312C134.87 72.9022 135.148 71.9175 135.039 70.844L133.05 71.0458ZM132.644 72.4669C132.313 72.8727 131.908 73.0914 131.373 73.1457L131.575 75.1354C132.631 75.0283 133.523 74.5527 134.193 73.7312L132.644 72.4669Z" fill="#1E4364"/>
<path d="M140.598 57.9006C139.473 53.4265 139.345 49.7466 140.214 46.8608C141.103 43.9428 143.397 42.0188 147.095 41.089C150.793 40.1592 153.711 40.7729 155.848 42.9303C158.005 45.0552 159.645 48.3548 160.77 52.8288C161.908 57.3547 162.036 61.0895 161.154 64.0335C160.291 66.9451 158.01 68.8658 154.312 69.7956C150.614 70.7254 147.683 70.1149 145.52 67.9641C143.377 65.7809 141.736 62.4264 140.598 57.9006ZM156.425 53.9212C155.899 51.8264 155.311 50.0906 154.662 48.7139C154.04 47.3307 153.201 46.2905 152.146 45.5934C151.084 44.8705 149.738 44.7138 148.109 45.1234C146.48 45.5331 145.368 46.3074 144.775 47.4465C144.175 48.5598 143.915 49.8763 143.994 51.3961C144.1 52.9093 144.416 54.7134 144.943 56.8082C145.489 58.9806 146.077 60.7713 146.706 62.1804C147.335 63.5895 148.177 64.6426 149.232 65.3397C150.313 66.0303 151.669 66.1708 153.298 65.7611C154.927 65.3515 156.042 64.5901 156.642 63.4768C157.268 62.3571 157.525 61.0277 157.413 59.4885C157.301 57.9494 156.972 56.0936 156.425 53.9212Z" fill="#1E4364"/>
<path d="M140.214 46.8608L139.258 46.5695L139.257 46.5724L140.214 46.8608ZM155.848 42.9303L155.137 43.6341L155.146 43.6426L155.848 42.9303ZM161.154 64.0335L160.196 63.7465L160.195 63.7494L161.154 64.0335ZM145.52 67.9641L144.807 68.6647L144.815 68.6732L145.52 67.9641ZM154.662 48.7139L153.751 49.1244L153.754 49.1323L153.758 49.1401L154.662 48.7139ZM152.146 45.5934L151.583 46.42L151.594 46.4278L152.146 45.5934ZM144.775 47.4465L145.655 47.921L145.662 47.9086L144.775 47.4465ZM143.994 51.3961L142.996 51.4484L142.996 51.457L142.997 51.4656L143.994 51.3961ZM146.706 62.1804L147.619 61.7727L147.619 61.7727L146.706 62.1804ZM149.232 65.3397L148.681 66.1741L148.688 66.1783L148.694 66.1824L149.232 65.3397ZM156.642 63.4768L155.769 62.9889L155.765 62.9956L155.762 63.0024L156.642 63.4768ZM157.413 59.4885L158.41 59.4159L157.413 59.4885ZM141.568 57.6567C140.465 53.2722 140.376 49.7934 141.172 47.1493L139.257 46.5724C138.315 49.6997 138.481 53.5807 139.628 58.1444L141.568 57.6567ZM141.171 47.1522C141.931 44.6564 143.882 42.9278 147.339 42.0588L146.851 40.1192C142.911 41.1098 140.275 43.2292 139.258 46.5695L141.171 47.1522ZM147.339 42.0588C150.796 41.1897 153.315 41.7941 155.138 43.634L156.558 42.2265C154.107 39.7517 150.79 39.1287 146.851 40.1192L147.339 42.0588ZM155.146 43.6426C157.121 45.5883 158.698 48.6903 159.8 53.0727L161.74 52.585C160.592 48.0192 158.888 44.5221 156.55 42.218L155.146 43.6426ZM159.8 53.0727C160.915 57.5074 161.006 61.0424 160.196 63.7465L162.112 64.3205C163.066 61.1367 162.901 57.2019 161.74 52.585L159.8 53.0727ZM160.195 63.7494C159.459 66.2326 157.525 67.9566 154.068 68.8258L154.556 70.7654C158.496 69.7749 161.123 67.6576 162.113 64.3176L160.195 63.7494ZM154.068 68.8258C150.612 69.6948 148.075 69.0945 146.225 67.255L144.815 68.6732C147.291 71.1353 150.616 71.756 154.556 70.7654L154.068 68.8258ZM146.234 67.2634C144.263 65.2568 142.683 62.0936 141.568 57.6567L139.628 58.1444C140.788 62.7592 142.49 66.3049 144.807 68.6647L146.234 67.2634ZM157.395 53.6774C156.859 51.5436 156.252 49.7416 155.567 48.2877L153.758 49.1401C154.37 50.4396 154.939 52.1092 155.456 54.165L157.395 53.6774ZM155.574 48.3034C154.889 46.7823 153.939 45.5796 152.697 44.759L151.594 46.4278C152.463 47.0014 153.19 47.879 153.751 49.1244L155.574 48.3034ZM152.708 44.7668C151.343 43.8372 149.681 43.6971 147.865 44.1536L148.353 46.0932C149.796 45.7305 150.825 45.9037 151.583 46.42L152.708 44.7668ZM147.865 44.1536C146.049 44.6102 144.651 45.5197 143.888 46.9845L145.662 47.9086C146.086 47.0952 146.91 46.456 148.353 46.0932L147.865 44.1536ZM143.895 46.9721C143.191 48.2768 142.909 49.7829 142.996 51.4484L144.993 51.3437C144.921 49.9696 145.158 48.8427 145.655 47.921L143.895 46.9721ZM142.997 51.4656C143.108 53.0566 143.437 54.9219 143.973 57.052L145.913 56.5644C145.395 54.5048 145.092 52.7621 144.992 51.3265L142.997 51.4656ZM143.973 57.052C144.527 59.2579 145.132 61.1084 145.793 62.5882L147.619 61.7727C147.021 60.4343 146.45 58.7033 145.913 56.5644L143.973 57.052ZM145.793 62.5882C146.482 64.1326 147.435 65.3511 148.681 66.1741L149.784 64.5054C148.919 63.9342 148.188 63.0465 147.619 61.7727L145.793 62.5882ZM148.694 66.1824C150.073 67.0634 151.732 67.1859 153.542 66.731L153.054 64.7913C151.605 65.1556 150.554 64.9972 149.771 64.497L148.694 66.1824ZM153.542 66.731C155.349 66.2765 156.749 65.3856 157.522 63.9513L155.762 63.0024C155.335 63.7945 154.505 64.4266 153.054 64.7913L153.542 66.731ZM157.515 63.9647C158.254 62.6424 158.533 61.11 158.41 59.4159L156.415 59.5611C156.516 60.9454 156.282 62.0718 155.769 62.9889L157.515 63.9647ZM158.41 59.4159C158.292 57.7996 157.95 55.8832 157.395 53.6774L155.456 54.165C155.993 56.304 156.309 58.0992 156.415 59.5611L158.41 59.4159Z" fill="#1E4364"/>
<path d="M168.047 50.2616C166.073 46.0918 165.232 42.5071 165.523 39.5074C165.827 36.4722 167.702 34.1388 171.149 32.5073C174.596 30.8758 177.577 30.9102 180.093 32.6105C182.622 34.2754 184.873 37.1927 186.847 41.3625C188.844 45.5804 189.696 49.2191 189.403 52.2784C189.123 55.3022 187.26 57.6298 183.813 59.2614C180.367 60.8929 177.373 60.8642 174.833 59.1752C172.306 57.4508 170.044 54.4796 168.047 50.2616ZM182.798 43.2792C181.874 41.3269 180.96 39.7386 180.056 38.5143C179.176 37.2787 178.15 36.4216 176.98 35.9431C175.798 35.4405 174.447 35.5486 172.929 36.2673C171.411 36.9861 170.471 37.9619 170.11 39.1947C169.738 40.4034 169.739 41.7453 170.113 43.2206C170.511 44.6844 171.172 46.3925 172.096 48.3449C173.055 50.3695 173.979 52.0117 174.871 53.2714C175.762 54.5312 176.793 55.4003 177.964 55.8789C179.158 56.3459 180.515 56.2201 182.033 55.5013C183.552 54.7825 184.497 53.8188 184.869 52.6101C185.265 51.39 185.259 50.036 184.849 48.5481C184.44 47.0601 183.756 45.3038 182.798 43.2792Z" fill="#1E4364"/>
<path d="M165.523 39.5074L164.528 39.4077L164.528 39.4107L165.523 39.5074ZM180.093 32.6105L179.533 33.4392L179.543 33.4458L180.093 32.6105ZM189.403 52.2784L188.408 52.1832L188.407 52.1862L189.403 52.2784ZM174.833 59.1752L174.269 60.0013L174.279 60.008L174.833 59.1752ZM180.056 38.5143L179.241 39.0944L179.246 39.1014L179.251 39.1084L180.056 38.5143ZM176.98 35.9431L176.588 36.8634L176.601 36.8687L176.98 35.9431ZM170.11 39.1947L171.066 39.4888L171.07 39.4754L170.11 39.1947ZM170.113 43.2206L169.144 43.4662L169.146 43.4746L169.148 43.4829L170.113 43.2206ZM174.871 53.2714L175.687 52.6939L175.687 52.6939L174.871 53.2714ZM177.964 55.8789L177.585 56.8045L177.592 56.8074L177.6 56.8102L177.964 55.8789ZM184.869 52.6101L183.918 52.3014L183.916 52.3087L183.913 52.316L184.869 52.6101ZM184.849 48.5481L185.814 48.2828L184.849 48.5481ZM168.951 49.8337C167.017 45.7475 166.252 42.3526 166.518 39.604L164.528 39.4107C164.212 42.6616 165.13 46.4362 167.143 50.6894L168.951 49.8337ZM166.518 39.607C166.778 37.0111 168.356 34.936 171.577 33.4112L170.721 31.6035C167.049 33.3417 164.876 35.9333 164.528 39.4077L166.518 39.607ZM171.577 33.4112C174.799 31.8861 177.388 31.9889 179.533 33.4391L180.653 31.782C177.767 29.8315 174.393 29.8655 170.721 31.6035L171.577 33.4112ZM179.543 33.4458C181.859 34.9702 184.01 37.706 185.943 41.7903L187.751 40.9346C185.737 36.6794 183.385 33.5806 180.643 31.7753L179.543 33.4458ZM185.943 41.7903C187.9 45.9234 188.676 49.3732 188.408 52.1832L190.399 52.3736C190.715 49.065 189.788 45.2375 187.751 40.9346L185.943 41.7903ZM188.407 52.1862C188.169 54.7651 186.607 56.8324 183.385 58.3575L184.241 60.1652C187.913 58.4273 190.078 55.8393 190.399 52.3705L188.407 52.1862ZM183.385 58.3575C180.164 59.8823 177.559 59.787 175.387 58.3425L174.279 60.008C177.187 61.9413 180.569 61.9034 184.241 60.1652L183.385 58.3575ZM175.397 58.3492C173.074 56.7642 170.908 53.9688 168.951 49.8337L167.143 50.6894C169.179 54.9903 171.538 58.1374 174.269 60.0013L175.397 58.3492ZM183.702 42.8513C182.76 40.8627 181.815 39.2132 180.86 37.9203L179.251 39.1084C180.104 40.264 180.987 41.791 181.894 43.707L183.702 42.8513ZM180.87 37.9343C179.903 36.5755 178.736 35.5807 177.358 35.0174L176.601 36.8687C177.565 37.2625 178.449 37.9818 179.241 39.0944L180.87 37.9343ZM177.371 35.0228C175.851 34.3765 174.194 34.5624 172.501 35.3635L173.357 37.1712C174.701 36.5347 175.744 36.5044 176.588 36.8633L177.371 35.0228ZM172.501 35.3635C170.809 36.1646 169.614 37.3287 169.151 38.914L171.07 39.4754C171.328 38.5951 172.012 37.8077 173.357 37.1712L172.501 35.3635ZM169.155 38.9006C168.719 40.3172 168.734 41.8495 169.144 43.4662L171.083 42.975C170.745 41.6412 170.758 40.4896 171.066 39.4888L169.155 38.9006ZM169.148 43.4829C169.566 45.0219 170.253 46.7875 171.192 48.7727L173 47.917C172.091 45.9976 171.456 44.347 171.078 42.9583L169.148 43.4829ZM171.192 48.7727C172.165 50.8285 173.118 52.5261 174.054 53.849L175.687 52.6939C174.84 51.4973 173.944 49.9105 173 47.917L171.192 48.7727ZM174.054 53.849C175.031 55.2297 176.203 56.2396 177.585 56.8045L178.342 54.9532C177.383 54.5611 176.493 53.8327 175.687 52.6939L174.054 53.849ZM177.6 56.8102C179.124 57.4061 180.775 57.2035 182.461 56.4052L181.606 54.5975C180.255 55.2367 179.193 55.2858 178.328 54.9475L177.6 56.8102ZM182.461 56.4052C184.146 55.6077 185.346 54.4616 185.825 52.9043L183.913 52.316C183.649 53.176 182.958 53.9574 181.606 54.5975L182.461 56.4052ZM185.82 52.9189C186.288 51.478 186.264 49.9205 185.814 48.2828L183.885 48.8133C184.253 50.1515 184.242 51.3021 183.918 52.3014L185.82 52.9189ZM185.814 48.2828C185.384 46.7203 184.675 44.9072 183.702 42.8513L181.894 43.707C182.838 45.7005 183.496 47.4 183.885 48.8133L185.814 48.2828Z" fill="#1E4364"/>
<path d="M193.485 37.4284C190.738 33.7223 189.215 30.3697 188.918 27.3707C188.625 24.3343 190.011 21.6807 193.074 19.4098C196.138 17.139 199.069 16.5927 201.868 17.7711C204.672 18.9122 207.448 21.3358 210.195 25.0419C212.974 28.7909 214.518 32.1943 214.826 35.252C215.139 38.2725 213.765 40.9182 210.701 43.189C207.638 45.4599 204.696 46.0141 201.876 44.8516C199.061 43.6518 196.264 41.1774 193.485 37.4284ZM206.596 27.7098C205.31 25.9745 204.104 24.5944 202.979 23.5694C201.876 22.5286 200.703 21.8873 199.462 21.6457C198.205 21.3826 196.901 21.7513 195.552 22.7518C194.202 23.7522 193.47 24.8921 193.356 26.1715C193.227 27.4295 193.489 28.7456 194.142 30.12C194.817 31.4785 195.798 33.0253 197.084 34.7606C198.418 36.5601 199.645 37.991 200.764 39.0533C201.884 40.1156 203.064 40.7675 204.305 41.0091C205.568 41.2349 206.874 40.8475 208.224 39.8471C209.573 38.8466 210.313 37.7174 210.443 36.4595C210.594 35.1856 210.324 33.8588 209.633 32.4789C208.942 31.099 207.93 29.5093 206.596 27.7098Z" fill="#1E4364"/>
<path d="M188.918 27.3707L187.922 27.4665L187.922 27.4695L188.918 27.3707ZM201.868 17.7711L201.479 18.6928L201.491 18.6974L201.868 17.7711ZM214.826 35.252L213.831 35.3523L213.831 35.3554L214.826 35.252ZM201.876 44.8516L201.484 45.7716L201.495 45.7761L201.876 44.8516ZM202.979 23.5694L202.293 24.2969L202.299 24.3028L202.306 24.3086L202.979 23.5694ZM199.462 21.6457L199.257 22.6246L199.271 22.6273L199.462 21.6457ZM193.356 26.1715L194.351 26.2741L194.352 26.2602L193.356 26.1715ZM194.142 30.12L193.239 30.5495L193.243 30.5573L193.247 30.565L194.142 30.12ZM200.764 39.0533L201.453 38.3279L201.453 38.3279L200.764 39.0533ZM204.305 41.0091L204.114 41.9907L204.122 41.9922L204.129 41.9935L204.305 41.0091ZM210.443 36.4595L209.45 36.3417L209.449 36.3493L209.448 36.3569L210.443 36.4595ZM209.633 32.4789L210.527 32.0312L209.633 32.4789ZM194.289 36.8329C191.596 33.201 190.186 30.0198 189.913 27.2718L187.922 27.4695C188.245 30.7196 189.88 34.2436 192.682 38.0239L194.289 36.8329ZM189.913 27.2748C189.663 24.6779 190.807 22.3356 193.67 20.2132L192.479 18.6065C189.215 21.0258 187.587 23.9907 187.922 27.4665L189.913 27.2748ZM193.67 20.2132C196.533 18.0905 199.093 17.6878 201.479 18.6928L202.256 16.8495C199.045 15.4977 195.742 16.1875 192.479 18.6065L193.67 20.2132ZM201.491 18.6974C204.058 19.7422 206.701 22.0073 209.392 25.6374L210.998 24.4464C208.195 20.6643 205.285 18.0822 202.244 16.8449L201.491 18.6974ZM209.392 25.6374C212.115 29.311 213.548 32.5437 213.831 35.3523L215.821 35.1518C215.487 31.8448 213.833 28.2708 210.998 24.4464L209.392 25.6374ZM213.831 35.3554C214.099 37.9314 212.969 40.263 210.106 42.3857L211.297 43.9924C214.56 41.5734 216.18 38.6136 215.82 35.1487L213.831 35.3554ZM210.106 42.3857C207.243 44.508 204.669 44.9213 202.257 43.927L201.495 45.7761C204.723 47.1068 208.033 46.4117 211.297 43.9924L210.106 42.3857ZM202.268 43.9317C199.681 42.8289 197.013 40.5082 194.289 36.8329L192.682 38.0239C195.516 41.8466 198.441 44.4747 201.484 45.7715L202.268 43.9317ZM207.399 27.1143C206.089 25.3468 204.841 23.9127 203.653 22.8303L202.306 24.3086C203.367 25.2761 204.53 26.6023 205.793 28.3053L207.399 27.1143ZM203.665 22.842C202.452 21.6974 201.114 20.9485 199.653 20.6641L199.271 22.6273C200.292 22.8261 201.299 23.3597 202.293 24.2969L203.665 22.842ZM199.667 20.6669C198.05 20.3286 196.46 20.8334 194.956 21.9484L196.147 23.5551C197.342 22.6692 198.359 22.4366 199.257 22.6245L199.667 20.6669ZM194.956 21.9484C193.452 23.0634 192.507 24.4377 192.36 26.0829L194.352 26.2602C194.434 25.3466 194.952 24.441 196.147 23.5551L194.956 21.9484ZM192.362 26.0689C192.21 27.5433 192.523 29.0434 193.239 30.5495L195.045 29.6905C194.454 28.4479 194.244 27.3157 194.351 26.2741L192.362 26.0689ZM193.247 30.565C193.956 31.9932 194.973 33.5916 196.281 35.3561L197.888 34.1651C196.623 32.4591 195.678 30.9637 195.038 29.675L193.247 30.565ZM196.281 35.3561C197.635 37.1833 198.9 38.6631 200.076 39.7786L201.453 38.3279C200.389 37.3189 199.201 35.9369 197.888 34.1651L196.281 35.3561ZM200.076 39.7786C201.303 40.9429 202.649 41.7055 204.114 41.9907L204.496 40.0276C203.479 39.8296 202.464 39.2882 201.453 38.3279L200.076 39.7786ZM204.129 41.9935C205.74 42.2815 207.32 41.7616 208.819 40.6504L207.628 39.0437C206.428 39.9335 205.396 40.1883 204.481 40.0248L204.129 41.9935ZM208.819 40.6504C210.317 39.5404 211.27 38.1829 211.438 36.5621L209.448 36.3569C209.356 37.252 208.83 38.1529 207.628 39.0437L208.819 40.6504ZM211.436 36.5773C211.614 35.0729 211.288 33.5499 210.527 32.0312L208.739 32.9266C209.36 34.1676 209.574 35.2983 209.45 36.3417L211.436 36.5773ZM210.527 32.0312C209.802 30.582 208.754 28.9415 207.399 27.1143L205.793 28.3053C207.106 30.0771 208.083 31.6159 208.739 32.9266L210.527 32.0312Z" fill="#1E4364"/>
</svg>
