<svg width="203" height="83" viewBox="0 0 203 83" fill="none" xmlns="http://www.w3.org/2000/svg">
<path d="M26.9197 21.1837L22.7683 28.2088L31.033 33.0928L29.1404 36.2954L20.8757 31.4113L16.5411 38.7463L25.8389 44.2409L23.9463 47.4435L10.7227 39.6289L24.8866 15.6612L38.1101 23.4758L36.2176 26.6783L26.9197 21.1837Z" fill="#1E4364"/>
<path d="M26.9197 21.1837L27.4285 20.3228L26.5676 19.8141L26.0588 20.675L26.9197 21.1837ZM22.7683 28.2088L21.9074 27.7L21.3986 28.5609L22.2595 29.0697L22.7683 28.2088ZM31.033 33.0928L31.8939 33.6016L32.4027 32.7407L31.5418 32.2319L31.033 33.0928ZM29.1404 36.2954L28.6317 37.1563L29.4926 37.6651L30.0013 36.8042L29.1404 36.2954ZM20.8757 31.4113L21.3844 30.5504L20.5235 30.0417L20.0148 30.9026L20.8757 31.4113ZM16.5411 38.7463L15.6802 38.2375L15.1714 39.0984L16.0323 39.6072L16.5411 38.7463ZM25.8389 44.2409L26.6998 44.7496L27.2086 43.8887L26.3476 43.38L25.8389 44.2409ZM23.9463 47.4435L23.4375 48.3044L24.2984 48.8131L24.8072 47.9522L23.9463 47.4435ZM10.7227 39.6289L9.86183 39.1202L9.35307 39.9811L10.214 40.4898L10.7227 39.6289ZM24.8866 15.6612L25.3953 14.8003L24.5344 14.2916L24.0257 15.1525L24.8866 15.6612ZM38.1101 23.4758L38.9711 23.9845L39.4798 23.1236L38.6189 22.6148L38.1101 23.4758ZM36.2176 26.6783L35.7088 27.5392L36.5697 28.048L37.0785 27.1871L36.2176 26.6783ZM26.0588 20.675L21.9074 27.7L23.6292 28.7175L27.7807 21.6925L26.0588 20.675ZM22.2595 29.0697L30.5242 33.9538L31.5418 32.2319L23.277 27.3479L22.2595 29.0697ZM30.1721 32.5841L28.2795 35.7867L30.0013 36.8042L31.8939 33.6016L30.1721 32.5841ZM29.6492 35.4345L21.3844 30.5504L20.3669 32.2723L28.6317 37.1563L29.6492 35.4345ZM20.0148 30.9026L15.6802 38.2375L17.402 39.2551L21.7366 31.9201L20.0148 30.9026ZM16.0323 39.6072L25.3301 45.1018L26.3476 43.38L17.0498 37.8854L16.0323 39.6072ZM24.978 43.7321L23.0854 46.9347L24.8072 47.9522L26.6998 44.7496L24.978 43.7321ZM24.4551 46.5826L11.2315 38.768L10.214 40.4898L23.4375 48.3044L24.4551 46.5826ZM11.5836 40.1377L25.7475 16.17L24.0257 15.1525L9.86183 39.1202L11.5836 40.1377ZM24.3778 16.5221L37.6014 24.3367L38.6189 22.6148L25.3953 14.8003L24.3778 16.5221ZM37.2492 22.967L35.3567 26.1696L37.0785 27.1871L38.9711 23.9845L37.2492 22.967ZM36.7263 25.8174L27.4285 20.3228L26.411 22.0447L35.7088 27.5392L36.7263 25.8174Z" fill="#1E4364"/>
<path d="M42.2799 55.8447C40.5342 55.1837 39.0764 54.2895 37.9065 53.1622C36.746 52.0099 35.9792 50.7216 35.606 49.2972C35.2329 47.8728 35.3297 46.4124 35.8963 44.9161L40.46 46.6441C40.1349 47.8041 40.2219 48.8921 40.7212 49.9081C41.2454 50.9335 42.2182 51.7153 43.6397 52.2535C45.1111 52.8107 46.3905 52.8959 47.4779 52.5092C48.5747 52.0976 49.3356 51.3307 49.7605 50.2085C50.091 49.3356 50.0983 48.5257 49.7823 47.7788C49.4913 47.0412 49.0159 46.3765 48.3561 45.7845C47.7212 45.2019 46.7966 44.4811 45.5821 43.6221C44.0562 42.531 42.8421 41.5581 41.9397 40.7031C41.0717 39.8327 40.4477 38.7695 40.0678 37.5136C39.688 36.2577 39.8049 34.8192 40.4187 33.1982C40.9853 31.7019 41.8551 30.5343 43.0282 29.6953C44.2013 28.8564 45.5745 28.3926 47.1478 28.304C48.7212 28.2153 50.3932 28.5063 52.1638 29.1767C54.6826 30.1305 56.4993 31.5454 57.6138 33.4217C58.7626 35.2824 59.0089 37.3431 58.3525 39.6038L53.639 37.8191C53.923 36.8431 53.781 35.8626 53.213 34.8777C52.645 33.8927 51.6877 33.1453 50.341 32.6353C49.119 32.1726 48.0034 32.1066 46.9942 32.4374C45.985 32.7681 45.2585 33.5195 44.8147 34.6917C44.5125 35.4897 44.4992 36.2403 44.7747 36.9434C45.0847 37.6311 45.557 38.2662 46.1919 38.8487C46.8267 39.4313 47.7265 40.1426 48.8911 40.9828C50.4324 42.1082 51.6496 43.1108 52.5425 43.9907C53.4604 44.8801 54.1046 45.9651 54.475 47.246C54.8799 48.5113 54.7707 49.967 54.1474 51.6129C53.647 52.9347 52.8132 54.0447 51.6462 54.943C50.504 55.8507 49.1103 56.4065 47.4648 56.6103C45.8537 56.7987 44.1254 56.5435 42.2799 55.8447Z" fill="#1E4364"/>
<path d="M37.9065 53.1622L37.2019 53.8718L37.2072 53.8771L37.2126 53.8823L37.9065 53.1622ZM35.606 49.2972L36.5734 49.0438L35.606 49.2972ZM35.8963 44.9161L36.2504 43.9809L35.3152 43.6267L34.9611 44.5619L35.8963 44.9161ZM40.46 46.6441L41.4229 46.914L41.6699 46.0329L40.8142 45.7089L40.46 46.6441ZM40.7212 49.9081L39.8237 50.3491L39.8272 50.3562L39.8308 50.3633L40.7212 49.9081ZM47.4779 52.5092L47.8129 53.4514L47.8211 53.4485L47.8292 53.4455L47.4779 52.5092ZM49.7823 47.7788L48.8521 48.1458L48.8566 48.1571L48.8613 48.1683L49.7823 47.7788ZM48.3561 45.7845L47.6799 46.5213L47.6883 46.5288L48.3561 45.7845ZM45.5821 43.6221L45.0004 44.4355L45.0046 44.4385L45.5821 43.6221ZM41.9397 40.7031L41.2316 41.4092L41.2416 41.4193L41.2519 41.4291L41.9397 40.7031ZM43.0282 29.6953L43.6099 30.5087L43.6099 30.5087L43.0282 29.6953ZM47.1478 28.304L47.2041 29.3024L47.2041 29.3024L47.1478 28.304ZM57.6138 33.4217L56.754 33.9324L56.7584 33.9397L56.7629 33.947L57.6138 33.4217ZM58.3525 39.6038L57.9983 40.539L59.0109 40.9224L59.3128 39.8827L58.3525 39.6038ZM53.639 37.8191L52.6789 37.5397L52.4206 38.4271L53.2849 38.7543L53.639 37.8191ZM46.9942 32.4374L47.3056 33.3877L47.3056 33.3877L46.9942 32.4374ZM44.7747 36.9434L43.8437 37.3083L43.8528 37.3315L43.8631 37.3543L44.7747 36.9434ZM48.8911 40.9828L49.4808 40.1752L49.4761 40.1718L48.8911 40.9828ZM52.5425 43.9907L51.8406 44.7031L51.8467 44.7089L52.5425 43.9907ZM54.475 47.246L53.5144 47.5238L53.5183 47.5373L53.5226 47.5507L54.475 47.246ZM51.6462 54.943L51.0362 54.1505L51.03 54.1553L51.024 54.1601L51.6462 54.943ZM47.4648 56.6103L47.5809 57.6036L47.5877 57.6028L47.4648 56.6103ZM42.634 54.9095C40.9963 54.2894 39.6593 53.4625 38.6003 52.4421L37.2126 53.8823C38.4935 55.1166 40.0722 56.0781 41.9258 56.7799L42.634 54.9095ZM38.611 52.4526C37.5629 51.4119 36.8964 50.2768 36.5734 49.0438L34.6387 49.5506C35.0619 51.1664 35.929 52.608 37.2019 53.8718L38.611 52.4526ZM36.5734 49.0438C36.2575 47.8379 36.3317 46.59 36.8315 45.2702L34.9611 44.5619C34.3276 46.2348 34.2083 47.9076 34.6387 49.5506L36.5734 49.0438ZM35.5421 45.8513L40.1059 47.5793L40.8142 45.7089L36.2504 43.9809L35.5421 45.8513ZM39.4972 46.3742C39.1102 47.7546 39.2085 49.0973 39.8237 50.3491L41.6187 49.467C41.2353 48.6869 41.1595 47.8537 41.4229 46.914L39.4972 46.3742ZM39.8308 50.3633C40.5001 51.6726 41.7078 52.5913 43.2856 53.1887L43.9938 51.3183C42.7286 50.8393 41.9906 50.1943 41.6116 49.4529L39.8308 50.3633ZM43.2856 53.1887C44.898 53.7993 46.4326 53.9423 47.8129 53.4514L47.1428 51.567C46.3483 51.8496 45.3242 51.8221 43.9938 51.3183L43.2856 53.1887ZM47.8292 53.4455C49.2027 52.9301 50.1718 51.9463 50.6957 50.5626L48.8253 49.8544C48.4994 50.7151 47.9467 51.2652 47.1265 51.573L47.8292 53.4455ZM50.6957 50.5626C51.1025 49.4883 51.1346 48.4088 50.7033 47.3892L48.8613 48.1683C49.0619 48.6426 49.0795 49.183 48.8253 49.8544L50.6957 50.5626ZM50.7125 47.4117C50.3581 46.5135 49.7855 45.7235 49.0239 45.0402L47.6883 46.5288C48.2463 47.0295 48.6245 47.569 48.8521 48.1458L50.7125 47.4117ZM49.0322 45.0477C48.3518 44.4233 47.3877 43.6744 46.1596 42.8057L45.0046 44.4385C46.2055 45.2879 47.0907 45.9806 47.68 46.5213L49.0322 45.0477ZM46.1637 42.8086C44.6584 41.7323 43.4843 40.789 42.6275 39.9772L41.2519 41.4291C42.1998 42.3271 43.454 43.3298 45.0004 44.4355L46.1637 42.8086ZM42.6478 39.997C41.9035 39.2507 41.3606 38.3337 41.025 37.2241L39.1107 37.8031C39.5348 39.2053 40.2398 40.4147 41.2316 41.4092L42.6478 39.997ZM41.025 37.2241C40.7268 36.2382 40.7932 35.0333 41.3539 33.5523L39.4835 32.8441C38.8167 34.6052 38.6491 36.2772 39.1107 37.8031L41.025 37.2241ZM41.3539 33.5523C41.8585 32.2197 42.6147 31.2204 43.6099 30.5087L42.4465 28.8819C41.0955 29.8481 40.112 31.1841 39.4835 32.8441L41.3539 33.5523ZM43.6099 30.5087C44.6147 29.7901 45.8017 29.3814 47.2041 29.3024L47.0916 27.3055C45.3473 27.4038 43.7879 27.9226 42.4465 28.8819L43.6099 30.5087ZM47.2041 29.3024C48.6125 29.2231 50.144 29.4812 51.8097 30.1119L52.5179 28.2415C50.6423 27.5313 48.8299 27.2076 47.0916 27.3055L47.2041 29.3024ZM51.8097 30.1119C54.1677 31.0048 55.7802 32.293 56.754 33.9324L58.4735 32.911C57.2184 30.7979 55.1976 29.2561 52.5179 28.2415L51.8097 30.1119ZM56.7629 33.947C57.7509 35.5473 57.9765 37.3124 57.3921 39.325L59.3128 39.8827C60.0413 37.3738 59.7743 35.0175 58.4646 32.8963L56.7629 33.947ZM58.7066 38.6686L53.9931 36.8839L53.2849 38.7543L57.9983 40.539L58.7066 38.6686ZM54.5992 38.0985C54.9687 36.8286 54.7657 35.5683 54.0793 34.3781L52.3468 35.3772C52.7964 36.157 52.8774 36.8576 52.6789 37.5397L54.5992 38.0985ZM54.0793 34.3781C53.368 33.1447 52.1989 32.2695 50.6951 31.7001L49.9868 33.5705C51.1764 34.021 51.922 34.6406 52.3468 35.3772L54.0793 34.3781ZM50.6951 31.7001C49.3101 31.1757 47.9554 31.07 46.6828 31.4871L47.3056 33.3877C48.0513 33.1433 48.9278 33.1695 49.9868 33.5705L50.6951 31.7001ZM46.6828 31.4871C45.3331 31.9295 44.4089 32.9395 43.8795 34.3376L45.7499 35.0458C46.1082 34.0996 46.637 33.6068 47.3056 33.3877L46.6828 31.4871ZM43.8795 34.3376C43.5018 35.3351 43.4658 36.344 43.8437 37.3083L45.7058 36.5786C45.5326 36.1366 45.5233 35.6443 45.7499 35.0458L43.8795 34.3376ZM43.8631 37.3543C44.236 38.1818 44.7953 38.9244 45.5158 39.5855L46.868 38.1119C46.3188 37.6079 45.9333 37.0803 45.6864 36.5325L43.8631 37.3543ZM45.5158 39.5855C46.1922 40.2062 47.1275 40.9436 48.306 41.7938L49.4761 40.1718C48.3254 39.3416 47.4613 38.6564 46.868 38.1119L45.5158 39.5855ZM48.3014 41.7904C49.8213 42.9002 50.9958 43.8705 51.8407 44.703L53.2444 43.2784C52.3034 42.3512 51.0436 41.3163 49.4808 40.1752L48.3014 41.7904ZM51.8467 44.7089C52.634 45.4717 53.1902 46.4028 53.5144 47.5238L55.4357 46.9681C55.019 45.5275 54.2869 44.2884 53.2384 43.2725L51.8467 44.7089ZM53.5226 47.5507C53.8391 48.5399 53.7815 49.7554 53.2122 51.2588L55.0826 51.967C55.7598 50.1785 55.9207 48.4828 55.4275 46.9413L53.5226 47.5507ZM53.2122 51.2588C52.7803 52.3996 52.0628 53.3604 51.0362 54.1505L52.2561 55.7354C53.5636 54.729 54.5137 53.4697 55.0826 51.967L53.2122 51.2588ZM51.024 54.1601C50.0447 54.9384 48.8303 55.4335 47.3418 55.6179L47.5877 57.6028C49.3902 57.3794 50.9634 56.763 52.2684 55.7258L51.024 54.1601ZM47.3487 55.6171C45.9276 55.7833 44.3617 55.5637 42.634 54.9095L41.9258 56.7799C43.8891 57.5233 45.7798 57.8142 47.5809 57.6036L47.3487 55.6171Z" fill="#1E4364"/>
<path d="M85.315 38.0089L84.6342 41.6661L77.3592 40.3118L72.9523 63.9851L68.4693 63.1506L72.8762 39.4773L65.5619 38.1156L66.2427 34.4585L85.315 38.0089Z" fill="#1E4364"/>
<path d="M85.315 38.0089L86.2982 38.1919L86.4812 37.2088L85.4981 37.0258L85.315 38.0089ZM84.6342 41.6661L84.4512 42.6492L85.4343 42.8322L85.6173 41.8491L84.6342 41.6661ZM77.3592 40.3118L77.5422 39.3287L76.5591 39.1457L76.3761 40.1288L77.3592 40.3118ZM72.9523 63.9851L72.7693 64.9682L73.7524 65.1512L73.9354 64.1681L72.9523 63.9851ZM68.4693 63.1506L67.4862 62.9675L67.3032 63.9507L68.2863 64.1337L68.4693 63.1506ZM72.8762 39.4773L73.8593 39.6603L74.0424 38.6772L73.0592 38.4941L72.8762 39.4773ZM65.5619 38.1156L64.5788 37.9326L64.3958 38.9157L65.3789 39.0988L65.5619 38.1156ZM66.2427 34.4585L66.4257 33.4754L65.4426 33.2923L65.2596 34.2755L66.2427 34.4585ZM84.3319 37.8259L83.6511 41.4831L85.6173 41.8491L86.2982 38.1919L84.3319 37.8259ZM84.8172 40.683L77.5422 39.3287L77.1762 41.2949L84.4512 42.6492L84.8172 40.683ZM76.3761 40.1288L71.9692 63.8021L73.9354 64.1681L78.3423 40.4948L76.3761 40.1288ZM73.1353 63.002L68.6523 62.1674L68.2863 64.1337L72.7693 64.9682L73.1353 63.002ZM69.4524 63.3336L73.8593 39.6603L71.8931 39.2942L67.4862 62.9675L69.4524 63.3336ZM73.0592 38.4941L65.7449 37.1325L65.3789 39.0988L72.6932 40.4604L73.0592 38.4941ZM66.545 38.2987L67.2258 34.6415L65.2596 34.2755L64.5788 37.9326L66.545 38.2987ZM66.0597 35.4416L85.132 38.992L85.4981 37.0258L66.4257 33.4754L66.0597 35.4416Z" fill="#1E4364"/>
<path d="M107.374 60.6962L95.7336 60.7319L93.751 66.418L88.9911 66.4326L98.8656 38.5622L104.146 38.546L114.191 66.3553L109.391 66.3701L107.374 60.6962ZM106.082 56.9802L101.523 44.0741L97.0022 57.008L106.082 56.9802Z" fill="#1E4364"/>
<path d="M107.374 60.6962L108.316 60.3612L108.079 59.6941L107.37 59.6962L107.374 60.6962ZM95.7336 60.7319L95.7305 59.7319L95.0225 59.7341L94.7894 60.4027L95.7336 60.7319ZM93.751 66.418L93.7541 67.418L94.4622 67.4159L94.6953 66.7473L93.751 66.418ZM88.9911 66.4326L88.0485 66.0987L87.5743 67.437L88.9941 67.4326L88.9911 66.4326ZM98.8656 38.5622L98.8625 37.5622L98.1582 37.5644L97.923 38.2282L98.8656 38.5622ZM104.146 38.546L105.086 38.2063L104.847 37.5439L104.143 37.546L104.146 38.546ZM114.191 66.3553L114.194 67.3553L115.614 67.351L115.131 66.0156L114.191 66.3553ZM109.391 66.3701L108.449 66.7051L108.686 67.3722L109.394 67.3701L109.391 66.3701ZM106.082 56.9802L106.085 57.9802L107.494 57.9758L107.025 56.647L106.082 56.9802ZM101.523 44.0741L102.465 43.741L101.517 41.0577L100.579 43.7442L101.523 44.0741ZM97.0022 57.008L96.0582 56.6781L95.5919 58.0123L97.0053 58.008L97.0022 57.008ZM107.37 59.6962L95.7305 59.7319L95.7367 61.7319L107.377 61.6962L107.37 59.6962ZM94.7894 60.4027L92.8068 66.0888L94.6953 66.7473L96.6779 61.0612L94.7894 60.4027ZM93.748 65.418L88.988 65.4326L88.9941 67.4326L93.7541 67.418L93.748 65.418ZM89.9336 66.7666L99.8082 38.8962L97.923 38.2282L88.0485 66.0987L89.9336 66.7666ZM98.8687 39.5622L104.149 39.546L104.143 37.546L98.8625 37.5622L98.8687 39.5622ZM103.205 38.8858L113.25 66.6951L115.131 66.0156L105.086 38.2063L103.205 38.8858ZM114.188 65.3553L109.388 65.3701L109.394 67.3701L114.194 67.3553L114.188 65.3553ZM110.333 66.035L108.316 60.3612L106.431 61.0312L108.449 66.7051L110.333 66.035ZM107.025 56.647L102.465 43.741L100.58 44.4072L105.139 57.3133L107.025 56.647ZM100.579 43.7442L96.0582 56.6781L97.9462 57.3379L102.467 44.404L100.579 43.7442ZM97.0053 58.008L106.085 57.9802L106.079 55.9802L96.9991 56.008L97.0053 58.008Z" fill="#1E4364"/>
<path d="M127.169 36.1217C130.065 35.5088 132.714 35.534 135.117 36.1975C137.54 36.8294 139.56 38.0646 141.176 39.9032C142.812 41.7102 143.923 43.9964 144.508 46.7618C145.093 49.5272 145.001 52.0543 144.232 54.3433C143.489 56.6267 142.137 58.5482 140.178 60.1078C138.239 61.6357 135.822 62.7062 132.926 63.3192L124.043 65.1994L118.286 38.002L127.169 36.1217ZM132.155 59.6798C135.338 59.0061 137.595 57.6288 138.927 55.5481C140.258 53.4673 140.592 50.8616 139.93 47.7309C139.261 44.5742 137.892 42.2883 135.82 40.8732C133.749 39.4581 131.122 39.0874 127.939 39.7611L123.517 40.6971L127.733 60.6158L132.155 59.6798Z" fill="#1E4364"/>
<path d="M135.117 36.1975L134.851 37.1614L134.858 37.1634L134.865 37.1652L135.117 36.1975ZM141.176 39.9032L140.424 40.5633L140.429 40.5689L140.434 40.5744L141.176 39.9032ZM144.232 54.3433L143.284 54.0247L143.281 54.0338L144.232 54.3433ZM140.178 60.1078L140.797 60.8932L140.801 60.8902L140.178 60.1078ZM124.043 65.1994L123.064 65.4065L123.271 66.3848L124.25 66.1778L124.043 65.1994ZM118.286 38.002L118.079 37.0237L117.1 37.2308L117.307 38.2091L118.286 38.002ZM138.927 55.5481L138.084 55.0091L138.927 55.5481ZM123.517 40.6971L123.31 39.7188L122.332 39.9259L122.539 40.9042L123.517 40.6971ZM127.733 60.6158L126.755 60.8229L126.962 61.8012L127.94 61.5941L127.733 60.6158ZM127.376 37.1001C130.144 36.5141 132.629 36.5479 134.851 37.1614L135.383 35.2336C132.8 34.5202 129.985 34.5035 126.962 35.1434L127.376 37.1001ZM134.865 37.1652C137.099 37.7479 138.944 38.8784 140.424 40.5633L141.927 39.2431C140.176 37.2508 137.981 35.9109 135.369 35.2299L134.865 37.1652ZM140.434 40.5744C141.934 42.2307 142.975 44.3485 143.53 46.9689L145.486 46.5547C144.87 43.6443 143.69 41.1897 141.917 39.232L140.434 40.5744ZM143.53 46.9689C144.085 49.5896 143.988 51.9321 143.284 54.0247L145.18 54.6619C146.015 52.1766 146.102 49.4648 145.486 46.5547L143.53 46.9689ZM143.281 54.0338C142.601 56.1225 141.368 57.8823 139.555 59.3253L140.801 60.8902C142.907 59.2141 144.376 57.1309 145.183 54.6528L143.281 54.0338ZM139.559 59.3223C137.762 60.7381 135.494 61.7534 132.719 62.3408L133.133 64.2975C136.149 63.659 138.716 62.5333 140.797 60.8932L139.559 59.3223ZM132.719 62.3408L123.835 64.2211L124.25 66.1778L133.133 64.2975L132.719 62.3408ZM125.021 64.9924L119.264 37.7949L117.307 38.2091L123.064 65.4065L125.021 64.9924ZM118.493 38.9803L127.376 37.1001L126.962 35.1434L118.079 37.0237L118.493 38.9803ZM132.362 60.6581C135.721 59.9472 138.252 58.4583 139.769 56.087L138.084 55.0091C136.939 56.7994 134.956 58.0649 131.948 58.7015L132.362 60.6581ZM139.769 56.087C141.28 53.7252 141.608 50.8323 140.908 47.5238L138.951 47.938C139.576 50.8908 139.236 53.2093 138.084 55.0091L139.769 56.087ZM140.908 47.5238C140.202 44.1902 138.724 41.6459 136.385 40.0475L135.256 41.6989C137.059 42.9307 138.321 44.9582 138.951 47.938L140.908 47.5238ZM136.385 40.0475C134.026 38.4362 131.099 38.0702 127.732 38.7828L128.146 40.7394C131.145 40.1046 133.472 40.48 135.256 41.6989L136.385 40.0475ZM127.732 38.7828L123.31 39.7188L123.724 41.6754L128.146 40.7394L127.732 38.7828ZM122.539 40.9042L126.755 60.8229L128.712 60.4087L124.496 40.49L122.539 40.9042ZM127.94 61.5941L132.362 60.6581L131.948 58.7015L127.526 59.6375L127.94 61.5941Z" fill="#1E4364"/>
<path d="M151.635 28.9752L161.479 54.9738L157.215 56.5886L147.37 30.5899L151.635 28.9752ZM151.245 22.7498L144.522 29.9576L143.332 26.8153L149.871 19.1212L151.245 22.7498Z" fill="#1E4364"/>
<path d="M151.635 28.9752L152.57 28.6211L152.216 27.6859L151.281 28.04L151.635 28.9752ZM161.479 54.9738L161.833 55.909L162.768 55.5549L162.414 54.6197L161.479 54.9738ZM157.215 56.5886L156.279 56.9427L156.634 57.8779L157.569 57.5238L157.215 56.5886ZM147.37 30.5899L147.016 29.6547L146.081 30.0088L146.435 30.944L147.37 30.5899ZM151.245 22.7498L151.976 23.4319L152.401 22.9772L152.18 22.3957L151.245 22.7498ZM144.522 29.9576L143.587 30.3117L144.156 31.8158L145.253 30.6397L144.522 29.9576ZM143.332 26.8153L142.57 26.1677L142.188 26.6175L142.397 27.1694L143.332 26.8153ZM149.871 19.1212L150.806 18.7671L150.206 17.1826L149.109 18.4736L149.871 19.1212ZM150.7 29.3293L160.544 55.3279L162.414 54.6197L152.57 28.6211L150.7 29.3293ZM161.125 54.0386L156.861 55.6534L157.569 57.5238L161.833 55.909L161.125 54.0386ZM158.15 56.2345L148.306 30.2358L146.435 30.944L156.279 56.9427L158.15 56.2345ZM147.724 31.5251L151.989 29.9104L151.281 28.04L147.016 29.6547L147.724 31.5251ZM150.514 22.0677L143.791 29.2755L145.253 30.6397L151.976 23.4319L150.514 22.0677ZM145.457 29.6035L144.267 26.4612L142.397 27.1694L143.587 30.3117L145.457 29.6035ZM144.094 27.4629L150.633 19.7688L149.109 18.4736L142.57 26.1677L144.094 27.4629ZM148.936 19.4753L150.31 23.1039L152.18 22.3957L150.806 18.7671L148.936 19.4753Z" fill="#1E4364"/>
<path d="M184.237 37.4401L174.091 43.1456L175.132 49.0767L170.983 51.4099L166.018 22.2616L170.621 19.6736L192.948 39.0579L188.764 41.4107L184.237 37.4401ZM181.298 34.825L171.025 25.779L173.383 39.2757L181.298 34.825Z" fill="#1E4364"/>
<path d="M184.237 37.4401L184.896 36.6883L184.364 36.2214L183.747 36.5685L184.237 37.4401ZM174.091 43.1456L173.601 42.2739L172.984 42.621L173.106 43.3184L174.091 43.1456ZM175.132 49.0767L175.622 49.9484L176.239 49.6013L176.117 48.9039L175.132 49.0767ZM170.983 51.4099L169.997 51.5778L170.235 52.9775L171.473 52.2815L170.983 51.4099ZM166.018 22.2616L165.528 21.39L164.914 21.7352L165.033 22.4295L166.018 22.2616ZM170.621 19.6736L171.276 18.9185L170.744 18.4568L170.13 18.802L170.621 19.6736ZM192.948 39.0579L193.438 39.9296L194.676 39.2336L193.604 38.3028L192.948 39.0579ZM188.764 41.4107L188.105 42.1625L188.637 42.6294L189.254 42.2823L188.764 41.4107ZM181.298 34.825L181.788 35.6967L183.016 35.0059L181.959 34.0746L181.298 34.825ZM171.025 25.779L171.686 25.0286L169.55 23.1478L170.04 25.9512L171.025 25.779ZM173.383 39.2757L172.398 39.4478L172.641 40.8401L173.873 40.1473L173.383 39.2757ZM183.747 36.5685L173.601 42.2739L174.581 44.0172L184.727 38.3118L183.747 36.5685ZM173.106 43.3184L174.147 49.2496L176.117 48.9039L175.076 42.9727L173.106 43.3184ZM174.642 48.2051L170.493 50.5383L171.473 52.2815L175.622 49.9484L174.642 48.2051ZM171.969 51.242L167.004 22.0937L165.033 22.4295L169.997 51.5778L171.969 51.242ZM166.508 23.1333L171.111 20.5452L170.13 18.802L165.528 21.39L166.508 23.1333ZM169.965 20.4287L192.292 39.8131L193.604 38.3028L171.276 18.9185L169.965 20.4287ZM192.458 38.1863L188.274 40.5391L189.254 42.2823L193.438 39.9296L192.458 38.1863ZM189.424 40.6589L184.896 36.6883L183.577 38.192L188.105 42.1625L189.424 40.6589ZM181.959 34.0746L171.686 25.0286L170.364 26.5295L180.637 35.5755L181.959 34.0746ZM170.04 25.9512L172.398 39.4478L174.368 39.1036L172.01 25.6069L170.04 25.9512ZM173.873 40.1473L181.788 35.6967L180.808 33.9534L172.893 38.404L173.873 40.1473Z" fill="#1E4364"/>
</svg>
