<svg width="213" height="85" viewBox="0 0 213 85" fill="none" xmlns="http://www.w3.org/2000/svg">
<path d="M15.974 26.9103C17.307 24.5394 19.0491 22.7196 21.2002 21.4511C23.3745 20.1956 25.6971 19.5741 28.1681 19.5867C30.6753 19.5891 33.0563 20.2242 35.311 21.4919C37.8911 22.9426 39.8213 24.8691 41.1016 27.2715C42.4181 29.6637 42.8762 32.2769 42.4758 35.1111L37.6991 32.4254C37.7903 30.794 37.4544 29.3509 36.6915 28.096C35.9287 26.8411 34.815 25.8019 33.3506 24.9786C31.7468 24.0768 30.1146 23.6334 28.4543 23.6482C26.7939 23.6631 25.2245 24.142 23.7459 25.085C22.2905 26.0412 21.0597 27.4141 20.0534 29.204C19.0471 30.9938 18.5136 32.7588 18.4529 34.4991C18.4155 36.2524 18.8152 37.8539 19.6522 39.3034C20.5023 40.7297 21.7293 41.8938 23.3331 42.7955C24.7976 43.6189 26.2641 44.0304 27.7327 44.0301C29.2013 44.0299 30.6088 43.5669 31.9552 42.6413L36.7319 45.327C34.5185 47.1418 32.0478 48.1083 29.3197 48.2265C26.615 48.3577 23.9725 47.698 21.3924 46.2474C19.1144 44.9666 17.3281 43.2739 16.0334 41.1693C14.7518 39.0414 14.0824 36.7225 14.0252 34.2123C13.9913 31.7153 14.6409 29.2813 15.974 26.9103Z" fill="#1E4364"/>
<path d="M21.2002 21.4511L20.7001 20.585L20.6922 20.5897L21.2002 21.4511ZM28.1681 19.5867L28.163 20.5867L28.1671 20.5867L28.1681 19.5867ZM41.1016 27.2715L40.219 27.7418L40.2255 27.7537L41.1016 27.2715ZM42.4758 35.1111L41.9857 35.9827L43.2613 36.6999L43.466 35.2509L42.4758 35.1111ZM37.6991 32.4254L36.7006 32.3695L36.6658 32.9917L37.209 33.297L37.6991 32.4254ZM36.6915 28.096L37.546 27.5765L36.6915 28.096ZM28.4543 23.6482L28.4632 24.6482L28.4632 24.6482L28.4543 23.6482ZM23.7459 25.085L23.2081 24.2419L23.1968 24.2493L23.7459 25.085ZM18.4529 34.4991L17.4534 34.4642L17.4531 34.4777L18.4529 34.4991ZM19.6522 39.3034L18.7862 39.8035L18.7932 39.8154L19.6522 39.3034ZM27.7327 44.0301L27.7329 45.0301L27.7327 44.0301ZM31.9552 42.6413L32.4453 41.7697L31.9021 41.4643L31.3887 41.8173L31.9552 42.6413ZM36.7319 45.327L37.366 46.1004L38.4976 45.1726L37.222 44.4554L36.7319 45.327ZM29.3197 48.2265L29.2765 47.2274L29.2713 47.2276L29.3197 48.2265ZM16.0334 41.1693L15.1767 41.6853L15.1817 41.6933L16.0334 41.1693ZM14.0252 34.2123L13.0253 34.2259L13.0255 34.2351L14.0252 34.2123ZM16.8456 27.4004C18.1002 25.169 19.7223 23.4836 21.7082 22.3124L20.6922 20.5897C18.3759 21.9557 16.5138 23.9098 15.1023 26.4202L16.8456 27.4004ZM21.7002 22.3171C23.7236 21.1487 25.8723 20.575 28.163 20.5867L28.1732 18.5867C25.522 18.5732 23.0254 19.2424 20.7001 20.5851L21.7002 22.3171ZM28.1671 20.5867C30.4974 20.589 32.7106 21.1771 34.8209 22.3636L35.8011 20.6202C33.4019 19.2713 30.8532 18.5893 28.169 18.5867L28.1671 20.5867ZM34.8209 22.3636C37.2497 23.7292 39.0364 25.5226 40.219 27.7418L41.9841 26.8012C40.6062 24.2156 38.5326 22.156 35.8011 20.6202L34.8209 22.3636ZM40.2255 27.7537C41.4324 29.9468 41.8573 32.3402 41.4856 34.9712L43.466 35.2509C43.8951 32.2136 43.4038 29.3807 41.9776 26.7894L40.2255 27.7537ZM42.9659 34.2394L38.1891 31.5537L37.209 33.297L41.9857 35.9827L42.9659 34.2394ZM38.6975 32.4812C38.7987 30.6716 38.4256 29.0235 37.546 27.5765L35.837 28.6155C36.4832 29.6784 36.7818 30.9165 36.7006 32.3695L38.6975 32.4812ZM37.546 27.5765C36.6818 26.1549 35.433 25.0022 33.8407 24.1069L32.8605 25.8503C34.1971 26.6017 35.1756 27.5273 35.837 28.6155L37.546 27.5765ZM33.8407 24.1069C32.1014 23.129 30.2988 22.6317 28.4453 22.6482L28.4632 24.6482C29.9305 24.635 31.3921 25.0246 32.8605 25.8503L33.8407 24.1069ZM28.4453 22.6482C26.5868 22.6649 24.8355 23.204 23.2081 24.2419L24.2836 25.9282C25.6134 25.08 27.0011 24.6612 28.4632 24.6482L28.4453 22.6482ZM23.1968 24.2493C21.5858 25.3076 20.2524 26.8096 19.1817 28.7139L20.9251 29.694C21.867 28.0187 22.9952 26.7747 24.295 25.9208L23.1968 24.2493ZM19.1817 28.7139C18.111 30.6181 17.5207 32.5379 17.4535 34.4642L19.4523 34.5339C19.5065 32.9798 19.9831 31.3694 20.9251 29.694L19.1817 28.7139ZM17.4531 34.4777C17.412 36.4047 17.8534 38.1879 18.7862 39.8035L20.5182 38.8034C19.7771 37.5198 19.4189 36.1001 19.4527 34.5204L17.4531 34.4777ZM18.7932 39.8154C19.7422 41.4076 21.1038 42.6893 22.8431 43.6672L23.8232 41.9239C22.3548 41.0982 21.2625 40.0519 20.5113 38.7915L18.7932 39.8154ZM22.8431 43.6672C24.4353 44.5625 26.0691 45.0305 27.7329 45.0301L27.7325 43.0301C26.459 43.0304 25.1598 42.6753 23.8232 41.9239L22.8431 43.6672ZM27.7329 45.0301C29.4262 45.0298 31.0282 44.4921 32.5217 43.4654L31.3887 41.8173C30.1894 42.6417 28.9764 43.0299 27.7325 43.0301L27.7329 45.0301ZM31.4651 43.513L36.2418 46.1987L37.222 44.4554L32.4453 41.7697L31.4651 43.513ZM36.0979 44.5537C34.0431 46.2384 31.7774 47.1191 29.2765 47.2274L29.363 49.2255C32.3181 49.0975 34.9938 48.0452 37.366 46.1004L36.0979 44.5537ZM29.2713 47.2276C26.7718 47.3489 24.3145 46.7431 21.8825 45.3757L20.9023 47.119C23.6306 48.653 26.4582 49.3665 29.3682 49.2253L29.2713 47.2276ZM21.8825 45.3757C19.7438 44.1732 18.0856 42.5968 16.8851 40.6453L15.1817 41.6933C16.5706 43.951 18.485 45.7599 20.9023 47.119L21.8825 45.3757ZM16.89 40.6533C15.6992 38.6763 15.0782 36.5276 15.025 34.1896L13.0255 34.2351C13.0865 36.9173 13.8043 39.4066 15.1768 41.6852L16.89 40.6533ZM15.0251 34.1988C14.9938 31.8935 15.591 29.6318 16.8456 27.4004L15.1023 26.4202C13.6908 28.9307 12.9888 31.5371 13.0253 34.2259L15.0251 34.1988Z" fill="#1E4364"/>
<path d="M54.8338 60.6583C52.3616 59.8975 50.2569 58.6221 48.5199 56.832C46.8163 55.0243 45.6704 52.9 45.0823 50.4591C44.5276 48.0005 44.6502 45.4714 45.4502 42.8717C46.2502 40.272 47.5668 38.1242 49.4 36.4284C51.2587 34.7404 53.3968 33.6406 55.8142 33.129C58.2649 32.5997 60.7264 32.7155 63.1986 33.4763C65.6964 34.2449 67.7971 35.5331 69.5008 37.3408C71.2378 39.1309 72.3876 41.2425 72.9501 43.6756C73.5127 46.1086 73.394 48.625 72.594 51.2247C71.794 53.8244 70.4735 55.9849 68.6324 57.7062C66.7992 59.4021 64.6573 60.5146 62.2065 61.0439C59.7891 61.5555 57.3316 61.427 54.8338 60.6583ZM55.9985 56.8735C57.7572 57.4147 59.4462 57.502 61.0656 57.1354C62.6929 56.7434 64.1163 55.9259 65.3359 54.6829C66.5887 53.4223 67.5171 51.8107 68.121 49.8482C68.725 47.8857 68.8593 46.0438 68.5241 44.3224C68.2144 42.6088 67.493 41.1452 66.3598 39.9316C65.2267 38.718 63.7808 37.8405 62.0222 37.2994C60.2635 36.7582 58.5745 36.6709 56.9551 37.0374C55.3356 37.404 53.9034 38.2048 52.6584 39.44C51.4389 40.6829 50.5271 42.2856 49.9232 44.2482C49.3193 46.2107 49.1682 48.0614 49.4701 49.8005C49.8053 51.5219 50.5356 53.0021 51.6609 54.2413C52.794 55.4549 54.2399 56.3323 55.9985 56.8735Z" fill="#1E4364"/>
<path d="M48.5199 56.832L47.7922 57.5179L47.7972 57.5232L47.8023 57.5284L48.5199 56.832ZM45.0823 50.4591L44.1068 50.6792L44.1084 50.6862L44.1101 50.6933L45.0823 50.4591ZM49.4 36.4284L48.7277 35.6881L48.721 35.6943L49.4 36.4284ZM55.8142 33.129L56.0212 34.1073L56.0253 34.1065L55.8142 33.129ZM69.5008 37.3408L68.773 38.0267L68.778 38.032L68.7831 38.0372L69.5008 37.3408ZM72.9501 43.6756L71.9759 43.9008L72.9501 43.6756ZM68.6324 57.7062L69.3115 58.4403L69.3154 58.4367L68.6324 57.7062ZM62.2065 61.0439L62.4136 62.0222L62.4176 62.0213L62.2065 61.0439ZM61.0656 57.1354L61.2864 58.1108L61.2999 58.1076L61.0656 57.1354ZM65.3359 54.6829L64.6266 53.978L64.622 53.9826L65.3359 54.6829ZM68.5241 44.3224L67.54 44.5003L67.5426 44.5135L68.5241 44.3224ZM66.3598 39.9316L65.6289 40.6141L66.3598 39.9316ZM56.9551 37.0374L57.1758 38.0128L57.1758 38.0128L56.9551 37.0374ZM52.6584 39.44L51.954 38.73L51.9446 38.7396L52.6584 39.44ZM49.4701 49.8005L48.4848 49.9715L48.4866 49.9816L48.4885 49.9916L49.4701 49.8005ZM51.6609 54.2413L50.9205 54.9136L50.93 54.9237L51.6609 54.2413ZM55.1279 59.7026C52.8102 58.9893 50.8531 57.8005 49.2376 56.1356L47.8023 57.5284C49.6608 59.4438 51.9129 60.8057 54.5397 61.6141L55.1279 59.7026ZM49.2477 56.1462C47.6648 54.4666 46.6023 52.4984 46.0545 50.2248L44.1101 50.6933C44.7385 53.3016 45.9678 55.5821 47.7922 57.5179L49.2477 56.1462ZM46.0578 50.239C45.5445 47.964 45.6531 45.6124 46.406 43.1658L44.4944 42.5775C43.6473 45.3304 43.5107 48.037 44.1068 50.6792L46.0578 50.239ZM46.406 43.1658C47.1589 40.7191 48.3867 38.7281 50.0791 37.1625L48.721 35.6943C46.747 37.5204 45.3415 39.8249 44.4944 42.5775L46.406 43.1658ZM50.0723 37.1687C51.802 35.5979 53.7802 34.5816 56.0212 34.1073L55.6071 32.1507C53.0134 32.6996 50.7154 33.883 48.7277 35.6881L50.0723 37.1687ZM56.0253 34.1065C58.3031 33.6145 60.5906 33.72 62.9045 34.4321L63.4928 32.5205C60.8622 31.711 58.2267 31.5849 55.6031 32.1515L56.0253 34.1065ZM62.9045 34.4321C65.2457 35.1525 67.1943 36.3516 68.773 38.0267L70.2285 36.655C68.3998 34.7146 66.147 33.3373 63.4928 32.5205L62.9045 34.4321ZM68.7831 38.0372C70.3931 39.6964 71.4543 41.645 71.9759 43.9008L73.9244 43.4503C73.3209 40.8399 72.0824 38.5654 70.2184 36.6444L68.7831 38.0372ZM71.9759 43.9008C72.4952 46.1471 72.3912 48.4839 71.6383 50.9306L73.5498 51.5188C74.3969 48.7662 74.5302 46.0702 73.9244 43.4503L71.9759 43.9008ZM71.6383 50.9306C70.8854 53.3772 69.6531 55.383 67.9495 56.9758L69.3154 58.4367C71.2939 56.5868 72.7027 54.2717 73.5498 51.5188L71.6383 50.9306ZM67.9534 56.9722C66.2521 58.5459 64.272 59.5748 61.9954 60.0664L62.4176 62.0213C65.0426 61.4544 67.3464 60.2582 69.3115 58.4403L67.9534 56.9722ZM61.9995 60.0655C59.758 60.5399 57.4729 60.4242 55.1279 59.7026L54.5397 61.6141C57.1902 62.4297 59.8203 62.571 62.4136 62.0222L61.9995 60.0655ZM55.7044 57.8293C57.6115 58.4161 59.4786 58.5199 61.2864 58.1107L60.8449 56.1601C59.4137 56.484 57.9028 56.4132 56.2927 55.9177L55.7044 57.8293ZM61.2999 58.1076C63.1169 57.6698 64.7045 56.7543 66.0497 55.3832L64.622 53.9826C63.5282 55.0974 62.269 55.8169 60.8314 56.1632L61.2999 58.1076ZM66.0451 55.3878C67.4288 53.9956 68.4326 52.2356 69.0768 50.1424L67.1653 49.5541C66.6016 51.3859 65.7486 52.849 64.6266 53.978L66.0451 55.3878ZM69.0768 50.1424C69.7208 48.0496 69.8773 46.0396 69.5057 44.1312L67.5426 44.5135C67.8414 46.0479 67.7291 47.7219 67.1653 49.5541L69.0768 50.1424ZM69.5082 44.1445C69.1661 42.2516 68.3616 40.6102 67.0908 39.2491L65.6289 40.6141C66.6244 41.6803 67.2628 42.966 67.5401 44.5002L69.5082 44.1445ZM67.0908 39.2491C65.8258 37.8944 64.2234 36.9305 62.3163 36.3436L61.728 38.2551C63.3382 38.7506 64.6275 39.5416 65.6289 40.6141L67.0908 39.2491ZM62.3163 36.3436C60.4092 35.7567 58.5421 35.6529 56.7343 36.0621L57.1758 38.0128C58.607 37.6888 60.1179 37.7596 61.728 38.2551L62.3163 36.3436ZM56.7343 36.0621C54.9215 36.4724 53.3244 37.3706 51.9541 38.73L53.3627 40.1499C54.4824 39.039 55.7497 38.3356 57.1758 38.0128L56.7343 36.0621ZM51.9446 38.7396C50.5947 40.1155 49.61 41.866 48.9674 43.954L50.879 44.5423C51.4443 42.7053 52.2831 41.2504 53.3722 40.1403L51.9446 38.7396ZM48.9674 43.954C48.3247 46.0425 48.152 48.0537 48.4848 49.9715L50.4554 49.6295C50.1845 48.0691 50.3138 46.3788 50.879 44.5423L48.9674 43.954ZM48.4885 49.9916C48.8569 51.8835 49.6664 53.5325 50.9206 54.9136L52.4012 53.569C51.4047 52.4718 50.7537 51.1603 50.4517 49.6093L48.4885 49.9916ZM50.93 54.9237C52.1949 56.2785 53.7973 57.2424 55.7044 57.8293L56.2927 55.9177C54.6825 55.4222 53.3932 54.6313 52.3918 53.5588L50.93 54.9237Z" fill="#1E4364"/>
<path d="M95.1612 53.55C96.6206 53.9637 97.8029 54.8723 98.7079 56.2758C99.613 57.6794 99.9834 59.2037 99.8191 60.8489C99.6787 62.2552 99.18 63.4918 98.3231 64.5586C97.4954 65.6015 96.3586 66.3858 94.9125 66.9114C93.4691 67.4105 91.832 67.5686 90.0011 67.3858L78.9361 66.281L81.698 38.6186L92.2455 39.6717C94.1295 39.8598 95.7163 40.3398 97.006 41.1117C98.2957 41.8837 99.2312 42.8481 99.8125 44.0049C100.396 45.1351 100.622 46.3636 100.49 47.6904C100.331 49.2825 99.7737 50.5668 98.8186 51.5434C97.8635 52.52 96.6444 53.1889 95.1612 53.55ZM85.075 50.6938L90.6871 51.2541C92.1731 51.4025 93.3605 51.1861 94.2493 50.6048C95.1673 49.9997 95.6898 49.0603 95.817 47.7866C95.9415 46.5395 95.6137 45.5286 94.8334 44.7539C94.0824 43.9553 92.9639 43.4819 91.4779 43.3335L85.8659 42.7732L85.075 50.6938ZM89.9727 63.6445C91.5117 63.7981 92.7561 63.5472 93.7059 62.8916C94.6557 62.2361 95.1969 61.2449 95.3293 59.9182C95.4645 58.5649 95.1074 57.4439 94.2582 56.5551C93.4089 55.6664 92.2148 55.1452 90.6758 54.9915L84.7055 54.3954L83.8431 63.0325L89.9727 63.6445Z" fill="#1E4364"/>
<path d="M95.1612 53.55L94.9246 52.5784L91.2354 53.4766L94.8885 54.5121L95.1612 53.55ZM98.7079 56.2758L99.5483 55.7339L99.5483 55.7339L98.7079 56.2758ZM98.3231 64.5586L97.5435 63.9324L97.5399 63.9369L98.3231 64.5586ZM94.9125 66.9114L95.2393 67.8565L95.2467 67.8539L95.2541 67.8512L94.9125 66.9114ZM78.9361 66.281L77.9411 66.1817L77.8417 67.1768L78.8368 67.2761L78.9361 66.281ZM81.698 38.6186L81.7973 37.6235L80.8023 37.5242L80.7029 38.5192L81.698 38.6186ZM97.006 41.1117L96.4924 41.9698L96.4924 41.9698L97.006 41.1117ZM99.8125 44.0049L98.9189 44.4539L98.924 44.4639L99.8125 44.0049ZM98.8186 51.5434L99.5336 52.2426L99.5336 52.2426L98.8186 51.5434ZM85.075 50.6938L84.08 50.5945L83.9806 51.5895L84.9757 51.6889L85.075 50.6938ZM94.2493 50.6048L94.7966 51.4418L94.7996 51.4397L94.2493 50.6048ZM94.8334 44.7539L94.105 45.439L94.1167 45.4515L94.1289 45.4635L94.8334 44.7539ZM85.8659 42.7732L85.9652 41.7782L84.9701 41.6788L84.8708 42.6739L85.8659 42.7732ZM93.7059 62.8916L93.1379 62.0686L93.7059 62.8916ZM84.7055 54.3954L84.8048 53.4004L83.8098 53.301L83.7104 54.2961L84.7055 54.3954ZM83.8431 63.0325L82.8481 62.9331L82.7487 63.9282L83.7438 64.0275L83.8431 63.0325ZM94.8885 54.5121C96.0896 54.8526 97.08 55.5965 97.8675 56.8178L99.5483 55.7339C98.5258 54.1482 97.1517 53.0748 95.4339 52.5879L94.8885 54.5121ZM97.8675 56.8178C98.6513 58.0333 98.9656 59.3319 98.8241 60.7495L100.814 60.9482C101.001 59.0755 100.575 57.3255 99.5483 55.7339L97.8675 56.8178ZM98.8241 60.7495C98.7022 61.9698 98.2749 63.0218 97.5435 63.9324L99.1028 65.1848C100.085 63.9618 100.655 62.5406 100.814 60.9482L98.8241 60.7495ZM97.5399 63.9369C96.8441 64.8137 95.8707 65.4991 94.5709 65.9716L95.2541 67.8512C96.8465 67.2725 98.1468 66.3894 99.1064 65.1802L97.5399 63.9369ZM94.5857 65.9663C93.3042 66.4094 91.8164 66.5621 90.1004 66.3907L89.9017 68.3809C91.8476 68.5751 93.6341 68.4115 95.2393 67.8565L94.5857 65.9663ZM90.1004 66.3907L79.0355 65.286L78.8368 67.2761L89.9017 68.3809L90.1004 66.3907ZM79.9312 66.3804L82.693 38.7179L80.7029 38.5192L77.9411 66.1817L79.9312 66.3804ZM81.5986 39.6136L92.1462 40.6667L92.3449 38.6766L81.7973 37.6235L81.5986 39.6136ZM92.1462 40.6667C93.9206 40.8439 95.3574 41.2904 96.4924 41.9698L97.5196 40.2537C96.0752 39.3892 94.3384 38.8757 92.3449 38.6766L92.1462 40.6667ZM96.4924 41.9698C97.646 42.6602 98.4359 43.4926 98.919 44.4539L100.706 43.5559C100.026 42.2036 98.9455 41.1071 97.5196 40.2537L96.4924 41.9698ZM98.924 44.4639C99.4148 45.4138 99.6089 46.4471 99.4946 47.591L101.485 47.7897C101.635 46.2802 101.378 44.8565 100.701 43.5459L98.924 44.4639ZM99.4946 47.591C99.3542 48.9976 98.8738 50.0568 98.1037 50.8442L99.5336 52.2426C100.674 51.0768 101.307 49.5673 101.485 47.7897L99.4946 47.591ZM98.1037 50.8442C97.2944 51.6718 96.248 52.2562 94.9246 52.5784L95.3977 54.5216C97.0408 54.1216 98.4327 53.3683 99.5336 52.2426L98.1037 50.8442ZM84.9757 51.6889L90.5878 52.2492L90.7865 50.2591L85.1744 49.6988L84.9757 51.6889ZM90.5878 52.2492C92.2103 52.4112 93.6522 52.1902 94.7966 51.4418L93.702 49.7679C93.0688 50.182 92.1359 50.3938 90.7865 50.2591L90.5878 52.2492ZM94.7996 51.4397C96.0119 50.6407 96.6605 49.4043 96.8121 47.886L94.822 47.6873C94.7192 48.7163 94.3227 49.3587 93.6989 49.7699L94.7996 51.4397ZM96.8121 47.886C96.9618 46.3864 96.5635 45.0624 95.538 44.0443L94.1289 45.4635C94.6639 45.9947 94.9213 46.6926 94.822 47.6873L96.8121 47.886ZM95.5619 44.0688C94.5938 43.0395 93.2161 42.5021 91.5773 42.3385L91.3786 44.3286C92.7117 44.4617 93.571 44.8712 94.105 45.439L95.5619 44.0688ZM91.5773 42.3385L85.9652 41.7782L85.7665 43.7683L91.3786 44.3286L91.5773 42.3385ZM84.8708 42.6739L84.08 50.5945L86.0701 50.7932L86.8609 42.8726L84.8708 42.6739ZM89.8733 64.6395C91.5674 64.8087 93.0713 64.5447 94.2739 63.7146L93.1379 62.0686C92.4409 62.5497 91.456 62.7876 90.072 62.6494L89.8733 64.6395ZM94.2739 63.7146C95.5043 62.8655 96.1678 61.586 96.3244 60.0176L94.3343 59.8189C94.226 60.9039 93.8071 61.6067 93.1379 62.0686L94.2739 63.7146ZM96.3244 60.0176C96.485 58.4086 96.055 56.9881 94.9812 55.8643L93.5352 57.246C94.1598 57.8997 94.4439 58.7213 94.3343 59.8189L96.3244 60.0176ZM94.9812 55.8643C93.9279 54.762 92.4885 54.1675 90.7751 53.9965L90.5764 55.9866C91.9411 56.1228 92.89 56.5708 93.5352 57.246L94.9812 55.8643ZM90.7751 53.9965L84.8048 53.4004L84.6061 55.3905L90.5764 55.9866L90.7751 53.9965ZM83.7104 54.2961L82.8481 62.9331L84.8382 63.1318L85.7005 54.4948L83.7104 54.2961ZM83.7438 64.0275L89.8733 64.6395L90.072 62.6494L83.9425 62.0374L83.7438 64.0275Z" fill="#1E4364"/>
<path d="M113.632 40.1463L114.689 67.9262L110.133 68.0996L109.075 40.3198L113.632 40.1463Z" fill="#1E4364"/>
<path d="M113.632 40.1463L114.631 40.1083L114.593 39.109L113.594 39.147L113.632 40.1463ZM114.689 67.9262L114.727 68.9255L115.727 68.8874L115.688 67.8881L114.689 67.9262ZM110.133 68.0996L109.133 68.1377L109.171 69.137L110.171 69.0989L110.133 68.0996ZM109.075 40.3198L109.037 39.3205L108.038 39.3585L108.076 40.3578L109.075 40.3198ZM112.632 40.1843L113.69 67.9642L115.688 67.8881L114.631 40.1083L112.632 40.1843ZM114.651 66.9269L110.094 67.1004L110.171 69.0989L114.727 68.9255L114.651 66.9269ZM111.132 68.0616L110.074 40.2817L108.076 40.3578L109.133 68.1377L111.132 68.0616ZM109.113 41.319L113.67 41.1456L113.594 39.147L109.037 39.3205L109.113 41.319Z" fill="#1E4364"/>
<path d="M136.707 37.21L140.035 56.9718C140.447 59.4173 140.023 61.4763 138.763 63.1487C137.53 64.8167 135.703 65.8544 133.284 66.2618C130.865 66.6692 128.786 66.2891 127.048 65.1215C125.336 63.9494 124.275 62.1406 123.863 59.6951L128.399 58.9312C128.629 60.1364 129.093 61.0453 129.791 61.6579C130.515 62.2661 131.456 62.4727 132.613 62.2779C133.77 62.083 134.591 61.5797 135.077 60.7678C135.557 59.9297 135.698 58.919 135.499 57.7356L132.171 37.9738L136.707 37.21Z" fill="#1E4364"/>
<path d="M136.707 37.21L137.693 37.0439L137.527 36.0578L136.541 36.2239L136.707 37.21ZM138.763 63.1487L137.964 62.547L137.959 62.5541L138.763 63.1487ZM127.048 65.1215L126.483 65.9466L126.49 65.9516L127.048 65.1215ZM123.863 59.6951L123.697 58.709L122.711 58.875L122.877 59.8611L123.863 59.6951ZM128.399 58.9312L129.381 58.7438L129.198 57.7826L128.233 57.9451L128.399 58.9312ZM129.791 61.6579L129.131 62.4095L129.14 62.4168L129.148 62.4238L129.791 61.6579ZM135.077 60.7678L135.935 61.2809L135.94 61.2732L135.944 61.2655L135.077 60.7678ZM132.171 37.9738L132.005 36.9877L131.019 37.1538L131.185 38.1399L132.171 37.9738ZM135.721 37.376L139.049 57.1378L141.021 56.8057L137.693 37.0439L135.721 37.376ZM139.049 57.1378C139.424 59.3667 139.029 61.1343 137.964 62.5471L139.562 63.7504C141.017 61.8183 141.47 59.4679 141.021 56.8057L139.049 57.1378ZM137.959 62.5541C136.907 63.9766 135.332 64.9029 133.118 65.2757L133.45 67.2479C136.075 66.8059 138.152 65.6569 139.567 63.7433L137.959 62.5541ZM133.118 65.2757C130.905 65.6484 129.095 65.2921 127.606 64.2914L126.49 65.9516C128.477 67.286 130.825 67.69 133.45 67.2479L133.118 65.2757ZM127.613 64.2964C126.169 63.3073 125.225 61.7632 124.849 59.529L122.877 59.8611C123.324 62.5181 124.504 64.5916 126.483 65.9466L127.613 64.2964ZM124.029 60.6812L128.565 59.9173L128.233 57.9451L123.697 58.709L124.029 60.6812ZM127.417 59.1187C127.675 60.4723 128.219 61.609 129.131 62.4095L130.451 60.9063C129.967 60.4817 129.583 59.8005 129.381 58.7438L127.417 59.1187ZM129.148 62.4238C130.15 63.2646 131.409 63.4948 132.779 63.264L132.447 61.2918C131.503 61.4507 130.881 61.2675 130.434 60.892L129.148 62.4238ZM132.779 63.264C134.15 63.0332 135.264 62.4033 135.935 61.2809L134.218 60.2548C133.919 60.7561 133.391 61.1329 132.447 61.2918L132.779 63.264ZM135.944 61.2655C136.566 60.1816 136.713 58.9244 136.485 57.5696L134.513 57.9017C134.683 58.9135 134.549 59.6778 134.209 60.2702L135.944 61.2655ZM136.485 57.5696L133.157 37.8078L131.185 38.1399L134.513 57.9017L136.485 57.5696ZM132.337 38.96L136.873 38.1961L136.541 36.2239L132.005 36.9877L132.337 38.96Z" fill="#1E4364"/>
<path d="M168.064 50.6294L157.111 54.57L157.152 60.5917L152.674 62.2032L152.62 32.6352L157.589 30.8477L176.386 53.6719L171.869 55.2969L168.064 50.6294ZM165.6 47.5624L156.973 36.9355L157.057 50.6364L165.6 47.5624Z" fill="#1E4364"/>
<path d="M168.064 50.6294L168.839 49.9976L168.392 49.4488L167.726 49.6885L168.064 50.6294ZM157.111 54.57L156.773 53.6291L156.107 53.8688L156.111 54.5768L157.111 54.57ZM157.152 60.5917L157.491 61.5327L158.157 61.293L158.152 60.5849L157.152 60.5917ZM152.674 62.2032L151.674 62.205L151.676 63.6248L153.012 63.1441L152.674 62.2032ZM152.62 32.6352L152.282 31.6943L151.619 31.9327L151.62 32.637L152.62 32.6352ZM157.589 30.8477L158.361 30.212L157.913 29.6683L157.25 29.9068L157.589 30.8477ZM176.386 53.6719L176.724 54.6129L178.06 54.1322L177.157 53.0362L176.386 53.6719ZM171.869 55.2969L171.094 55.9288L171.541 56.4776L172.208 56.2379L171.869 55.2969ZM165.6 47.5624L165.939 48.5034L167.265 48.0263L166.377 46.9321L165.6 47.5624ZM156.973 36.9355L157.75 36.3052L155.956 34.0958L155.973 36.9416L156.973 36.9355ZM157.057 50.6364L156.057 50.6424L156.065 52.0558L157.395 51.5773L157.057 50.6364ZM167.726 49.6885L156.773 53.6291L157.45 55.511L168.403 51.5704L167.726 49.6885ZM156.111 54.5768L156.152 60.5985L158.152 60.5849L158.111 54.5632L156.111 54.5768ZM156.814 59.6508L152.335 61.2622L153.012 63.1441L157.491 61.5327L156.814 59.6508ZM153.674 62.2014L153.62 32.6334L151.62 32.637L151.674 62.205L153.674 62.2014ZM152.959 33.5762L157.927 31.7887L157.25 29.9068L152.282 31.6943L152.959 33.5762ZM156.817 31.4834L175.614 54.3077L177.157 53.0362L158.361 30.212L156.817 31.4834ZM176.047 52.731L171.53 54.356L172.208 56.2379L176.724 54.6129L176.047 52.731ZM172.644 54.6651L168.839 49.9976L167.289 51.2613L171.094 55.9288L172.644 54.6651ZM166.377 46.9321L157.75 36.3052L156.197 37.5658L164.824 48.1927L166.377 46.9321ZM155.973 36.9416L156.057 50.6424L158.056 50.6303L157.973 36.9294L155.973 36.9416ZM157.395 51.5773L165.939 48.5034L165.262 46.6215L156.718 49.6954L157.395 51.5773Z" fill="#1E4364"/>
<path d="M193.242 44.8529C191.631 45.7962 190.02 46.369 188.408 46.5714C186.782 46.7507 185.298 46.5382 183.955 45.9339C182.613 45.3296 181.537 44.3371 180.728 42.9564L184.939 40.4904C185.638 41.472 186.539 42.0876 187.643 42.3372C188.77 42.5734 189.99 42.3074 191.302 41.5393C192.659 40.7442 193.529 39.8022 193.911 38.7132C194.28 37.6012 194.161 36.5274 193.554 35.4919C193.083 34.6865 192.457 34.1722 191.677 33.9489C190.921 33.7122 190.105 33.6646 189.23 33.8062C188.378 33.9343 187.236 34.2011 185.805 34.6066C183.998 35.1087 182.478 35.4424 181.246 35.6076C180.023 35.7364 178.804 35.5542 177.588 35.061C176.372 34.5678 175.326 33.5733 174.451 32.0776C173.642 30.6969 173.28 29.2866 173.364 27.8469C173.448 26.4071 173.949 25.0472 174.868 23.7673C175.788 22.4874 177.064 21.369 178.698 20.4123C181.022 19.0513 183.264 18.5263 185.424 18.8375C187.594 19.1122 189.352 20.2149 190.699 22.1456L186.35 24.6924C185.769 23.8584 184.916 23.3531 183.793 23.1764C182.67 22.9998 181.487 23.2753 180.244 24.003C179.117 24.6633 178.365 25.4899 177.988 26.483C177.612 27.476 177.74 28.5133 178.374 29.5948C178.805 30.3312 179.381 30.8129 180.101 31.0402C180.831 31.2309 181.621 31.2622 182.473 31.1341C183.326 31.0059 184.444 30.7526 185.829 30.3741C187.673 29.8815 189.218 29.5641 190.463 29.4219C191.732 29.2662 192.981 29.4464 194.21 29.9626C195.449 30.4423 196.513 31.4416 197.403 32.9603C198.117 34.1799 198.457 35.5259 198.423 36.9982C198.412 38.4571 197.969 39.8907 197.094 41.2992C196.229 42.6712 194.945 43.8558 193.242 44.8529Z" fill="#1E4364"/>
<path d="M188.408 46.5714L188.517 47.5653L188.525 47.5645L188.532 47.5636L188.408 46.5714ZM183.955 45.9339L184.366 45.022L183.955 45.9339ZM180.728 42.9564L180.223 42.0935L179.36 42.5988L179.865 43.4617L180.728 42.9564ZM184.939 40.4904L185.754 39.9107L185.224 39.1651L184.434 39.6275L184.939 40.4904ZM187.643 42.3372L187.423 43.3126L187.431 43.3144L187.438 43.316L187.643 42.3372ZM193.911 38.7132L194.855 39.0443L194.858 39.0361L194.86 39.0278L193.911 38.7132ZM191.677 33.9489L191.379 34.9033L191.39 34.9069L191.402 34.9103L191.677 33.9489ZM189.23 33.8062L189.379 34.7951L189.39 34.7933L189.23 33.8062ZM185.805 34.6066L186.073 35.5701L186.077 35.5687L185.805 34.6066ZM181.246 35.6076L181.351 36.6021L181.365 36.6006L181.379 36.5988L181.246 35.6076ZM173.364 27.8469L174.362 27.9051L174.362 27.9051L173.364 27.8469ZM174.868 23.7673L175.681 24.3506L175.681 24.3506L174.868 23.7673ZM185.424 18.8375L185.282 19.8273L185.29 19.8285L185.299 19.8296L185.424 18.8375ZM190.699 22.1456L191.204 23.0085L192.138 22.4614L191.519 21.5734L190.699 22.1456ZM186.35 24.6924L185.529 25.2641L186.057 26.0223L186.855 25.5553L186.35 24.6924ZM177.988 26.483L178.923 26.8375L178.923 26.8374L177.988 26.483ZM180.101 31.0402L179.8 31.9938L179.824 32.0013L179.848 32.0077L180.101 31.0402ZM185.829 30.3741L185.571 29.4079L185.566 29.4094L185.829 30.3741ZM190.463 29.4219L190.577 30.4154L190.585 30.4144L190.463 29.4219ZM194.21 29.9626L193.823 30.8846L193.836 30.8901L193.849 30.8952L194.21 29.9626ZM198.423 36.9982L197.423 36.9751L197.423 36.9829L197.423 36.9907L198.423 36.9982ZM197.094 41.2992L197.94 41.8327L197.944 41.8268L197.094 41.2992ZM192.737 43.99C191.225 44.875 189.742 45.396 188.283 45.5791L188.532 47.5636C190.297 47.342 192.037 46.7174 193.747 45.7159L192.737 43.99ZM188.298 45.5774C186.83 45.7393 185.528 45.5451 184.366 45.022L183.545 46.8458C185.068 47.5313 186.734 47.762 188.517 47.5653L188.298 45.5774ZM184.366 45.022C183.229 44.5104 182.304 43.6689 181.591 42.4511L179.865 43.4617C180.769 45.0053 181.996 46.1488 183.545 46.8458L184.366 45.022ZM181.234 43.8193L185.445 41.3533L184.434 39.6275L180.223 42.0935L181.234 43.8193ZM184.125 41.0702C184.956 42.2382 186.062 43.0051 187.423 43.3126L187.864 41.3618C187.016 41.1702 186.32 40.7058 185.754 39.9107L184.125 41.0702ZM187.438 43.316C188.878 43.6175 190.351 43.2547 191.807 42.4022L190.796 40.6764C189.629 41.36 188.663 41.5292 187.848 41.3585L187.438 43.316ZM191.807 42.4022C193.295 41.531 194.37 40.4266 194.855 39.0443L192.968 38.3822C192.688 39.1778 192.024 39.9575 190.796 40.6764L191.807 42.4022ZM194.86 39.0278C195.322 37.6353 195.165 36.2634 194.417 34.9866L192.692 35.9972C193.157 36.7915 193.238 37.5671 192.962 38.3986L194.86 39.0278ZM194.417 34.9866C193.837 33.9953 193.017 33.2923 191.953 32.9875L191.402 34.9103C191.897 35.052 192.329 35.3777 192.692 35.9972L194.417 34.9866ZM191.976 32.9945C191.055 32.7062 190.08 32.6556 189.07 32.819L189.39 34.7933C190.13 34.6736 190.787 34.7181 191.379 34.9033L191.976 32.9945ZM189.081 32.8173C188.168 32.9546 186.98 33.2344 185.532 33.6445L186.077 35.5687C187.493 35.1678 188.588 34.914 189.379 34.7951L189.081 32.8173ZM185.537 33.6431C183.754 34.1384 182.283 34.4596 181.113 34.6165L181.379 36.5988C182.673 36.4252 184.241 36.079 186.073 35.5701L185.537 33.6431ZM181.141 34.6131C180.093 34.7235 179.038 34.57 177.964 34.1343L177.212 35.9876C178.57 36.5383 179.954 36.7492 181.351 36.6021L181.141 34.6131ZM177.964 34.1343C177.01 33.7472 176.114 32.9387 175.313 31.5722L173.588 32.5829C174.539 34.2079 175.735 35.3884 177.212 35.9876L177.964 34.1343ZM175.313 31.5722C174.593 30.3425 174.291 29.1265 174.362 27.9051L172.365 27.7887C172.269 29.4468 172.691 31.0512 173.588 32.5829L175.313 31.5722ZM174.362 27.9051C174.434 26.6718 174.861 25.4915 175.681 24.3506L174.056 23.184C173.037 24.603 172.461 26.1423 172.365 27.7887L174.362 27.9051ZM175.681 24.3506C176.504 23.2048 177.666 22.1752 179.203 21.2752L178.193 19.5493C176.462 20.5628 175.072 21.7699 174.056 23.184L175.681 24.3506ZM179.203 21.2752C181.379 20.0011 183.394 19.5554 185.282 19.8273L185.567 17.8477C183.134 17.4973 180.665 18.1014 178.193 19.5493L179.203 21.2752ZM185.299 19.8296C187.164 20.0658 188.68 20.999 189.879 22.7177L191.519 21.5734C190.024 19.4308 188.023 18.1586 185.55 17.8454L185.299 19.8296ZM190.194 21.2826L185.844 23.8295L186.855 25.5553L191.204 23.0085L190.194 21.2826ZM187.17 24.1207C186.414 23.0356 185.306 22.402 183.949 22.1886L183.638 24.1643C184.527 24.3041 185.123 24.6812 185.529 25.2641L187.17 24.1207ZM183.949 22.1886C182.542 21.9674 181.127 22.3275 179.739 23.1401L180.75 24.8659C181.847 24.2231 182.798 24.0322 183.638 24.1643L183.949 22.1886ZM179.739 23.1401C178.461 23.8884 177.528 24.8762 177.053 26.1285L178.923 26.8374C179.202 26.1037 179.773 25.4382 180.75 24.8659L179.739 23.1401ZM177.053 26.1285C176.55 27.4566 176.755 28.8101 177.511 30.1001L179.237 29.0895C178.725 28.2164 178.674 27.4954 178.923 26.8375L177.053 26.1285ZM177.511 30.1001C178.05 31.0206 178.812 31.6822 179.8 31.9938L180.402 30.0865C179.949 29.9437 179.56 29.6417 179.237 29.0895L177.511 30.1001ZM179.848 32.0077C180.726 32.2372 181.655 32.2684 182.622 32.1229L182.325 30.1452C181.588 30.256 180.935 30.2246 180.354 30.0727L179.848 32.0077ZM182.622 32.1229C183.53 31.9864 184.691 31.7217 186.093 31.3387L185.566 29.4094C184.197 29.7835 183.121 30.0254 182.325 30.1452L182.622 32.1229ZM186.088 31.3402C187.906 30.8545 189.398 30.55 190.577 30.4154L190.35 28.4283C189.037 28.5782 187.441 28.9085 185.571 29.4079L186.088 31.3402ZM190.585 30.4144C191.673 30.2809 192.747 30.4328 193.823 30.8846L194.597 29.0406C193.215 28.46 191.791 28.2515 190.342 28.4293L190.585 30.4144ZM193.849 30.8952C194.818 31.2702 195.727 32.0784 196.54 33.4656L198.266 32.455C197.299 30.8047 196.081 29.6145 194.571 29.0301L193.849 30.8952ZM196.54 33.4656C197.156 34.5183 197.453 35.6801 197.423 36.9751L199.423 37.0213C199.461 35.3717 199.078 33.8416 198.266 32.455L196.54 33.4656ZM197.423 36.9907C197.414 38.2415 197.036 39.4975 196.245 40.7716L197.944 41.8268C198.902 40.2839 199.41 38.6726 199.423 37.0058L197.423 36.9907ZM196.248 40.7657C195.485 41.9759 194.331 43.0565 192.737 43.99L193.747 45.7159C195.559 44.6551 196.973 43.3665 197.94 41.8327L196.248 40.7657Z" fill="#1E4364"/>
</svg>
