<svg width="191" height="82" viewBox="0 0 191 82" fill="none" xmlns="http://www.w3.org/2000/svg">
<path d="M43.2864 26.3922L29.7981 50.7008L25.8108 48.4883L31.7107 37.8555L20.2735 31.5092L14.3736 42.142L10.3863 39.9296L23.8745 15.621L27.8618 17.8335L22.0784 28.2564L33.5156 34.6027L39.2991 24.1797L43.2864 26.3922Z" fill="#1E4364"/>
<path d="M43.2864 26.3922L44.1608 26.8774L44.646 26.003L43.7716 25.5178L43.2864 26.3922ZM29.7981 50.7008L29.313 51.5752L30.1874 52.0604L30.6726 51.186L29.7981 50.7008ZM25.8108 48.4883L24.9364 48.0031L24.4512 48.8775L25.3257 49.3627L25.8108 48.4883ZM31.7107 37.8555L32.5851 38.3407L33.0703 37.4663L32.1959 36.9811L31.7107 37.8555ZM20.2735 31.5092L20.7586 30.6348L19.8842 30.1496L19.399 31.024L20.2735 31.5092ZM14.3736 42.142L13.8884 43.0165L14.7628 43.5016L15.248 42.6272L14.3736 42.142ZM10.3863 39.9296L9.51184 39.4444L9.02666 40.3188L9.90107 40.804L10.3863 39.9296ZM23.8745 15.621L24.3597 14.7466L23.4853 14.2614L23.0001 15.1358L23.8745 15.621ZM27.8618 17.8335L28.7362 18.3186L29.2214 17.4442L28.347 16.959L27.8618 17.8335ZM22.0784 28.2564L21.2039 27.7712L20.7188 28.6456L21.5932 29.1308L22.0784 28.2564ZM33.5156 34.6027L33.0304 35.4771L33.9049 35.9623L34.39 35.0879L33.5156 34.6027ZM39.2991 24.1797L39.7843 23.3053L38.9099 22.8201L38.4247 23.6945L39.2991 24.1797ZM42.412 25.907L28.9237 50.2156L30.6726 51.186L44.1608 26.8774L42.412 25.907ZM30.2833 49.8264L26.296 47.6139L25.3257 49.3627L29.313 51.5752L30.2833 49.8264ZM26.6852 48.9735L32.5851 38.3407L30.8363 37.3703L24.9364 48.0031L26.6852 48.9735ZM32.1959 36.9811L20.7586 30.6348L19.7883 32.3836L31.2255 38.7299L32.1959 36.9811ZM19.399 31.024L13.4992 41.6569L15.248 42.6272L21.1479 31.9944L19.399 31.024ZM14.8588 41.2676L10.8714 39.0552L9.90107 40.804L13.8884 43.0165L14.8588 41.2676ZM11.2607 40.4148L24.7489 16.1062L23.0001 15.1358L9.51184 39.4444L11.2607 40.4148ZM23.3893 16.4954L27.3766 18.7079L28.347 16.959L24.3597 14.7466L23.3893 16.4954ZM26.9874 17.3483L21.2039 27.7712L22.9528 28.7416L28.7362 18.3186L26.9874 17.3483ZM21.5932 29.1308L33.0304 35.4771L34.0008 33.7283L22.5635 27.382L21.5932 29.1308ZM34.39 35.0879L40.1735 24.6649L38.4247 23.6945L32.6412 34.1175L34.39 35.0879ZM38.8139 25.0541L42.8012 27.2666L43.7716 25.5178L39.7843 23.3053L38.8139 25.0541Z" fill="#1E4364"/>
<path d="M54.7654 30.4282L45.4393 56.6172L41.1435 55.0875L50.4696 28.8985L54.7654 30.4282Z" fill="#1E4364"/>
<path d="M54.7654 30.4282L55.7074 30.7637L56.0429 29.8217L55.1009 29.4862L54.7654 30.4282ZM45.4393 56.6172L45.1038 57.5593L46.0459 57.8948L46.3813 56.9527L45.4393 56.6172ZM41.1435 55.0875L40.2015 54.752L39.866 55.6941L40.8081 56.0295L41.1435 55.0875ZM50.4696 28.8985L50.8051 27.9564L49.8631 27.621L49.5276 28.563L50.4696 28.8985ZM53.8233 30.0928L44.4972 56.2818L46.3813 56.9527L55.7074 30.7637L53.8233 30.0928ZM45.7748 55.6752L41.479 54.1454L40.8081 56.0295L45.1038 57.5593L45.7748 55.6752ZM42.0856 55.423L51.4117 29.234L49.5276 28.563L40.2015 54.752L42.0856 55.423ZM50.1342 29.8405L54.4299 31.3703L55.1009 29.4862L50.8051 27.9564L50.1342 29.8405Z" fill="#1E4364"/>
<path d="M79.8254 44.3888C79.3519 42.8998 78.5436 41.7047 77.4003 40.8036C76.2615 39.8763 74.8644 39.2696 73.2089 38.9836C71.3957 38.6704 69.7093 38.7985 68.1496 39.368C66.5899 39.9375 65.2734 40.9008 64.2001 42.2579C63.153 43.6196 62.4593 45.2858 62.1188 47.2566C61.7784 49.2274 61.8707 51.043 62.3957 52.7032C62.9516 54.3418 63.8687 55.6909 65.1469 56.7506C66.4252 57.8103 67.9709 58.4968 69.7841 58.81C72.2279 59.2321 74.3298 58.8916 76.09 57.7885C77.8501 56.6853 79.103 54.9939 79.8486 52.7142L69.5609 50.9371L70.1805 47.3502L85.277 49.958L84.671 53.466C84.0142 55.5446 82.914 57.3706 81.3703 58.9442C79.8529 60.5222 78.0157 61.6797 75.8588 62.4167C73.7327 63.1319 71.474 63.2829 69.0828 62.8699C66.5076 62.425 64.2579 61.4275 62.3336 59.8774C60.414 58.3009 59.0073 56.3395 58.1137 53.9932C57.2463 51.6513 57.0441 49.1403 57.5071 46.46C57.9701 43.7797 59.003 41.4819 60.6057 39.5668C62.2347 37.6562 64.2155 36.2935 66.5483 35.4787C68.9118 34.6421 71.3681 34.444 73.917 34.8843C76.8338 35.3882 79.2973 36.5579 81.3075 38.3935C83.3485 40.2074 84.6545 42.5168 85.2254 45.3216L79.8254 44.3888Z" fill="#1E4364"/>
<path d="M79.8254 44.3888L78.8724 44.6918L79.0565 45.2707L79.6552 45.3742L79.8254 44.3888ZM77.4003 40.8036L76.7688 41.579L76.775 41.5841L76.7812 41.589L77.4003 40.8036ZM68.1496 39.368L68.4926 40.3074L68.4926 40.3074L68.1496 39.368ZM64.2001 42.2579L63.4156 41.6375L63.4073 41.6483L64.2001 42.2579ZM62.3957 52.7032L61.4423 53.0048L61.4454 53.0147L61.4487 53.0245L62.3957 52.7032ZM65.1469 56.7506L65.7852 55.9807L65.1469 56.7506ZM76.09 57.7885L76.621 58.6358L76.09 57.7885ZM79.8486 52.7142L80.799 53.0251L81.1586 51.9257L80.0188 51.7288L79.8486 52.7142ZM69.5609 50.9371L68.5755 50.7669L68.4053 51.7523L69.3907 51.9225L69.5609 50.9371ZM70.1805 47.3502L70.3507 46.3648L69.3653 46.1946L69.1951 47.18L70.1805 47.3502ZM85.2769 49.958L86.2624 50.1282L86.4326 49.1428L85.4472 48.9726L85.2769 49.958ZM84.671 53.466L85.6245 53.7673L85.6449 53.7029L85.6564 53.6363L84.671 53.466ZM81.3703 58.9442L80.6564 58.2438L80.6495 58.251L81.3703 58.9442ZM75.8588 62.4167L76.1776 63.3645L76.1821 63.363L75.8588 62.4167ZM62.3336 59.8774L61.699 60.6502L61.7063 60.6561L62.3336 59.8774ZM58.1137 53.9932L57.1759 54.3405L57.1792 54.3491L58.1137 53.9932ZM60.6057 39.5668L59.8447 38.918L59.8388 38.925L60.6057 39.5668ZM66.5483 35.4787L66.878 36.4228L66.8819 36.4214L66.5483 35.4787ZM81.3075 38.3935L80.6331 39.1321L80.6432 39.141L81.3075 38.3935ZM85.2254 45.3216L85.0552 46.307L86.4972 46.5561L86.2053 45.1221L85.2254 45.3216ZM80.7784 44.0857C80.249 42.4209 79.3313 41.0523 78.0193 40.0182L76.7812 41.589C77.7558 42.3571 78.4549 43.3787 78.8724 44.6918L80.7784 44.0857ZM78.0317 40.0282C76.7416 38.9776 75.1791 38.3091 73.3791 37.9982L73.0387 39.969C74.5496 40.23 75.7814 40.7749 76.7688 41.579L78.0317 40.0282ZM73.3791 37.9982C71.4129 37.6586 69.5477 37.793 67.8066 38.4287L68.4926 40.3074C69.8709 39.8041 71.3786 39.6823 73.0387 39.969L73.3791 37.9982ZM67.8066 38.4287C66.0656 39.0644 64.5988 40.1418 63.4157 41.6376L64.9844 42.8783C65.948 41.6599 67.1142 40.8107 68.4926 40.3074L67.8066 38.4287ZM63.4073 41.6483C62.2462 43.1583 61.4969 44.982 61.1334 47.0864L63.1042 47.4268C63.4216 45.5896 64.0598 44.0808 64.9928 42.8675L63.4073 41.6483ZM61.1334 47.0864C60.7698 49.1912 60.8623 51.1708 61.4423 53.0048L63.3492 52.4017C62.8791 50.9151 62.7869 49.2636 63.1042 47.4268L61.1334 47.0864ZM61.4487 53.0245C62.0614 54.8305 63.0819 56.3375 64.5087 57.5205L65.7852 55.9807C64.6555 55.0442 63.8418 53.853 63.3427 52.382L61.4487 53.0245ZM64.5087 57.5205C65.9356 58.7034 67.6476 59.4557 69.6138 59.7954L69.9543 57.8246C68.2942 57.5378 66.9148 56.9172 65.7852 55.9807L64.5087 57.5205ZM69.6138 59.7954C72.2508 60.2509 74.6131 59.8943 76.621 58.6358L75.5589 56.9411C74.0466 57.889 72.2049 58.2134 69.9543 57.8246L69.6138 59.7954ZM76.621 58.6358C78.6095 57.3895 79.9926 55.4909 80.799 53.0251L78.8981 52.4033C78.2134 54.4969 77.0907 55.9811 75.5589 56.9411L76.621 58.6358ZM80.0188 51.7288L69.7311 49.9517L69.3907 51.9225L79.6783 53.6996L80.0188 51.7288ZM70.5463 51.1073L71.1659 47.5204L69.1951 47.18L68.5755 50.7669L70.5463 51.1073ZM70.0103 48.3356L85.1067 50.9434L85.4472 48.9726L70.3507 46.3648L70.0103 48.3356ZM84.2915 49.7878L83.6856 53.2958L85.6564 53.6363L86.2624 50.1282L84.2915 49.7878ZM83.7174 53.1648C83.1087 55.0916 82.0913 56.7813 80.6565 58.2438L82.0842 59.6445C83.7367 57.9599 84.9198 55.9976 85.6245 53.7673L83.7174 53.1648ZM80.6495 58.251C79.2471 59.7095 77.548 60.7828 75.5355 61.4704L76.1821 63.363C78.4834 62.5767 80.4587 61.335 82.0911 59.6373L80.6495 58.251ZM75.54 61.4688C73.5839 62.1268 71.4944 62.2716 69.253 61.8845L68.9125 63.8553C71.4537 64.2942 73.8814 64.1369 76.1776 63.3645L75.54 61.4688ZM69.253 61.8845C66.8353 61.4668 64.7452 60.536 62.961 59.0986L61.7063 60.6561C63.7705 62.319 66.1799 63.3832 68.9125 63.8553L69.253 61.8845ZM62.9683 59.1045C61.1847 57.6398 59.8806 55.8227 59.0482 53.6372L57.1792 54.3491C58.1341 56.8563 59.6433 58.962 61.699 60.6502L62.9683 59.1045ZM59.0514 53.6458C58.2507 51.4839 58.0568 49.1528 58.4925 46.6302L56.5217 46.2898C56.0315 49.1278 56.2419 51.8188 57.1759 54.3405L59.0514 53.6458ZM58.4925 46.6302C58.9283 44.1076 59.8929 41.9766 61.3726 40.2086L59.8388 38.925C58.113 40.9872 57.0119 43.4517 56.5217 46.2898L58.4925 46.6302ZM61.3666 40.2156C62.8826 38.4376 64.7155 37.1781 66.878 36.4228L66.2185 34.5346C63.7156 35.4089 61.5868 36.8748 59.8447 38.918L61.3666 40.2156ZM66.8819 36.4214C69.0787 35.6439 71.3611 35.4576 73.7468 35.8697L74.0872 33.8989C71.375 33.4304 68.745 33.6404 66.2146 34.536L66.8819 36.4214ZM73.7468 35.8697C76.4925 36.344 78.7763 37.4363 80.6332 39.132L81.9818 37.6551C79.8183 35.6795 77.1751 34.4323 74.0872 33.8989L73.7468 35.8697ZM80.6432 39.141C82.5144 40.804 83.7155 42.9173 84.2455 45.521L86.2053 45.1221C85.5935 42.1163 84.1827 39.6109 81.9718 37.6461L80.6432 39.141ZM85.3956 44.3362L79.9956 43.4033L79.6552 45.3742L85.0552 46.307L85.3956 44.3362Z" fill="#1E4364"/>
<path d="M97.2202 37.0501V64.8501H92.6602V37.0501H97.2202Z" fill="#1E4364"/>
<path d="M97.2202 37.0501H98.2202V36.0501H97.2202V37.0501ZM97.2202 64.8501V65.8501H98.2202V64.8501H97.2202ZM92.6602 64.8501H91.6602V65.8501H92.6602V64.8501ZM92.6602 37.0501V36.0501H91.6602V37.0501H92.6602ZM96.2202 37.0501V64.8501H98.2202V37.0501H96.2202ZM97.2202 63.8501H92.6602V65.8501H97.2202V63.8501ZM93.6602 64.8501V37.0501H91.6602V64.8501H93.6602ZM92.6602 38.0501H97.2202V36.0501H92.6602V38.0501Z" fill="#1E4364"/>
<path d="M110.136 39.8975L111.26 47.9797L120.768 46.6576L121.281 50.3422L111.772 51.6643L112.945 60.1031L123.643 58.6157L124.155 62.3003L108.941 64.4156L105.107 36.8409L120.321 34.7255L120.833 38.4101L110.136 39.8975Z" fill="#1E4364"/>
<path d="M110.136 39.8975L109.998 38.907L109.008 39.0447L109.145 40.0352L110.136 39.8975ZM111.26 47.9797L110.269 48.1174L110.407 49.1079L111.397 48.9702L111.26 47.9797ZM120.768 46.6576L121.759 46.5199L121.621 45.5294L120.631 45.6671L120.768 46.6576ZM121.281 50.3422L121.418 51.3326L122.409 51.1949L122.271 50.2044L121.281 50.3422ZM111.772 51.6643L111.634 50.6738L110.644 50.8115L110.782 51.802L111.772 51.6643ZM112.945 60.1031L111.955 60.2408L112.093 61.2313L113.083 61.0935L112.945 60.1031ZM123.643 58.6157L124.633 58.478L124.495 57.4875L123.505 57.6252L123.643 58.6157ZM124.155 62.3003L124.293 63.2907L125.283 63.153L125.145 62.1626L124.155 62.3003ZM108.941 64.4156L107.951 64.5533L108.088 65.5438L109.079 65.4061L108.941 64.4156ZM105.107 36.8409L104.969 35.8504L103.979 35.9882L104.117 36.9786L105.107 36.8409ZM120.321 34.7255L121.311 34.5878L121.173 33.5974L120.183 33.7351L120.321 34.7255ZM120.833 38.4101L120.971 39.4006L121.961 39.2629L121.824 38.2724L120.833 38.4101ZM109.145 40.0352L110.269 48.1174L112.25 47.842L111.126 39.7597L109.145 40.0352ZM111.397 48.9702L120.906 47.6481L120.631 45.6671L111.122 46.9892L111.397 48.9702ZM119.778 46.7953L120.29 50.4799L122.271 50.2044L121.759 46.5199L119.778 46.7953ZM121.143 49.3517L111.634 50.6738L111.91 52.6547L121.418 51.3326L121.143 49.3517ZM110.782 51.802L111.955 60.2408L113.936 59.9654L112.763 51.5265L110.782 51.802ZM113.083 61.0935L123.78 59.6062L123.505 57.6252L112.808 59.1126L113.083 61.0935ZM122.652 58.7534L123.164 62.438L125.145 62.1626L124.633 58.478L122.652 58.7534ZM124.017 61.3098L108.803 63.4252L109.079 65.4061L124.293 63.2907L124.017 61.3098ZM109.932 64.2779L106.098 36.7032L104.117 36.9786L107.951 64.5533L109.932 64.2779ZM105.245 37.8314L120.458 35.716L120.183 33.7351L104.969 35.8504L105.245 37.8314ZM119.33 34.8633L119.843 38.5478L121.824 38.2724L121.311 34.5878L119.33 34.8633ZM120.695 37.4196L109.998 38.907L110.274 40.8879L120.971 39.4006L120.695 37.4196Z" fill="#1E4364"/>
<path d="M156.576 52.5284L152.271 54.0299L132.48 38.9451L139.316 58.5474L135.01 60.0489L125.843 33.7613L130.149 32.2599L149.926 47.3069L143.104 27.7423L147.409 26.2409L156.576 52.5284Z" fill="#1E4364"/>
<path d="M156.576 52.5284L156.906 53.4727L157.85 53.1434L157.52 52.1992L156.576 52.5284ZM152.271 54.0299L151.664 54.8252L152.092 55.1512L152.6 54.9741L152.271 54.0299ZM132.48 38.9451L133.086 38.1497L130.44 36.133L131.536 39.2743L132.48 38.9451ZM139.316 58.5474L139.645 59.4917L140.589 59.1624L140.26 58.2182L139.316 58.5474ZM135.01 60.0489L134.066 60.3781L134.395 61.3224L135.339 60.9931L135.01 60.0489ZM125.843 33.7613L125.514 32.8171L124.57 33.1463L124.899 34.0906L125.843 33.7613ZM130.149 32.2599L130.754 31.464L130.327 31.1387L129.82 31.3156L130.149 32.2599ZM149.926 47.3069L149.321 48.1028L151.964 50.1139L150.87 46.9777L149.926 47.3069ZM143.104 27.7423L142.774 26.7981L141.83 27.1273L142.16 28.0716L143.104 27.7423ZM147.409 26.2409L148.354 25.9116L148.024 24.9674L147.08 25.2966L147.409 26.2409ZM156.247 51.5842L151.941 53.0856L152.6 54.9741L156.906 53.4727L156.247 51.5842ZM152.877 53.2346L133.086 38.1497L131.874 39.7404L151.664 54.8252L152.877 53.2346ZM131.536 39.2743L138.371 58.8767L140.26 58.2182L133.424 38.6158L131.536 39.2743ZM138.986 57.6032L134.681 59.1046L135.339 60.9931L139.645 59.4917L138.986 57.6032ZM135.954 59.7196L126.787 33.432L124.899 34.0906L134.066 60.3781L135.954 59.7196ZM126.172 34.7055L130.478 33.2041L129.82 31.3156L125.514 32.8171L126.172 34.7055ZM129.543 33.0557L149.321 48.1028L150.532 46.5111L130.754 31.464L129.543 33.0557ZM150.87 46.9777L144.048 27.4131L142.16 28.0716L148.982 47.6362L150.87 46.9777ZM143.433 28.6866L147.739 27.1851L147.08 25.2966L142.774 26.7981L143.433 28.6866ZM146.465 26.5701L155.632 52.8577L157.52 52.1992L148.354 25.9116L146.465 26.5701Z" fill="#1E4364"/>
<path d="M158.611 24.2144L162.757 31.2429L171.026 26.3658L172.916 29.57L164.647 34.4471L168.975 41.7857L178.278 36.299L180.167 39.5032L166.937 47.3065L152.794 23.3268L166.024 15.5235L167.914 18.7277L158.611 24.2144Z" fill="#1E4364"/>
<path d="M158.611 24.2144L158.103 23.353L157.242 23.8611L157.75 24.7224L158.611 24.2144ZM162.757 31.2429L161.896 31.7509L162.404 32.6123L163.265 32.1043L162.757 31.2429ZM171.026 26.3658L171.887 25.8578L171.379 24.9965L170.518 25.5045L171.026 26.3658ZM172.916 29.57L173.424 30.4314L174.285 29.9233L173.777 29.062L172.916 29.57ZM164.647 34.4471L164.139 33.5858L163.277 34.0938L163.785 34.9551L164.647 34.4471ZM168.975 41.7857L168.114 42.2937L168.622 43.1551L169.483 42.6471L168.975 41.7857ZM178.278 36.299L179.139 35.791L178.631 34.9296L177.77 35.4377L178.278 36.299ZM180.167 39.5032L180.676 40.3645L181.537 39.8565L181.029 38.9952L180.167 39.5032ZM166.937 47.3065L166.076 47.8145L166.584 48.6759L167.445 48.1679L166.937 47.3065ZM152.794 23.3268L152.286 22.4655L151.424 22.9735L151.932 23.8348L152.794 23.3268ZM166.024 15.5235L166.885 15.0155L166.377 14.1541L165.516 14.6621L166.024 15.5235ZM167.914 18.7277L168.422 19.589L169.283 19.081L168.775 18.2196L167.914 18.7277ZM157.75 24.7224L161.896 31.7509L163.618 30.7349L159.473 23.7064L157.75 24.7224ZM163.265 32.1043L171.534 27.2272L170.518 25.5045L162.249 30.3816L163.265 32.1043ZM170.164 26.8739L172.054 30.0781L173.777 29.062L171.887 25.8578L170.164 26.8739ZM172.408 28.7087L164.139 33.5858L165.155 35.3084L173.424 30.4314L172.408 28.7087ZM163.785 34.9551L168.114 42.2937L169.836 41.2777L165.508 33.9391L163.785 34.9551ZM169.483 42.6471L178.786 37.1603L177.77 35.4377L168.467 40.9244L169.483 42.6471ZM177.416 36.807L179.306 40.0112L181.029 38.9952L179.139 35.791L177.416 36.807ZM179.659 38.6419L166.429 46.4452L167.445 48.1679L180.676 40.3645L179.659 38.6419ZM167.799 46.7985L153.655 22.8188L151.932 23.8348L166.076 47.8145L167.799 46.7985ZM153.302 24.1881L166.532 16.3848L165.516 14.6621L152.286 22.4655L153.302 24.1881ZM165.163 16.0315L167.052 19.2357L168.775 18.2196L166.885 15.0155L165.163 16.0315ZM167.406 17.8663L158.103 23.353L159.119 25.0757L168.422 19.589L167.406 17.8663Z" fill="#1E4364"/>
</svg>
