<svg width="257" height="103" viewBox="0 0 257 103" fill="none" xmlns="http://www.w3.org/2000/svg">
<path d="M29.3193 40.8571L21.2191 32.4979L15.7483 35.0143L12.4358 31.5959L39.3601 19.375L43.0344 23.1668L29.9723 49.6932L26.632 46.2461L29.3193 40.8571ZM31.1001 37.3492L37.2331 25.1123L24.7814 30.8284L31.1001 37.3492Z" fill="#1E4364"/>
<path d="M29.3193 40.8571L30.2142 41.3034L30.5302 40.6697L30.0374 40.1612L29.3193 40.8571ZM21.2191 32.4979L21.9373 31.802L21.4445 31.2935L20.8012 31.5894L21.2191 32.4979ZM15.7483 35.0143L15.0301 35.7102L15.5229 36.2187L16.1661 35.9228L15.7483 35.0143ZM12.4358 31.5959L12.0225 30.6853L10.7296 31.2721L11.7177 32.2918L12.4358 31.5959ZM39.3601 19.375L40.0783 18.6791L39.5881 18.1733L38.9468 18.4644L39.3601 19.375ZM43.0344 23.1668L43.9316 23.6086L44.2427 22.9768L43.7526 22.471L43.0344 23.1668ZM29.9723 49.6932L29.2541 50.3891L30.2422 51.4087L30.8694 50.135L29.9723 49.6932ZM26.632 46.2461L25.7371 45.7998L25.4211 46.4335L25.9139 46.942L26.632 46.2461ZM31.1001 37.3492L30.3819 38.0451L31.3626 39.0572L31.9941 37.7973L31.1001 37.3492ZM37.2331 25.1123L38.1271 25.5603L39.4022 23.0162L36.8159 24.2034L37.2331 25.1123ZM24.7814 30.8284L24.3642 29.9196L23.0797 30.5093L24.0632 31.5243L24.7814 30.8284ZM30.0374 40.1612L21.9373 31.802L20.501 33.1938L28.6011 41.553L30.0374 40.1612ZM20.8012 31.5894L15.3304 34.1058L16.1661 35.9228L21.637 33.4064L20.8012 31.5894ZM16.4664 34.3184L13.154 30.9L11.7177 32.2918L15.0301 35.7102L16.4664 34.3184ZM12.8491 32.5065L39.7734 20.2856L38.9468 18.4644L12.0225 30.6853L12.8491 32.5065ZM38.642 20.0709L42.3163 23.8627L43.7526 22.471L40.0783 18.6791L38.642 20.0709ZM42.1373 22.7251L29.0751 49.2514L30.8694 50.135L43.9316 23.6086L42.1373 22.7251ZM30.6904 48.9973L27.3501 45.5502L25.9139 46.942L29.2541 50.3891L30.6904 48.9973ZM27.5269 46.6924L30.2142 41.3034L28.4244 40.4109L25.7371 45.7998L27.5269 46.6924ZM31.9941 37.7973L38.1271 25.5603L36.3391 24.6642L30.2061 36.9011L31.9941 37.7973ZM36.8159 24.2034L24.3642 29.9196L25.1986 31.7372L37.6503 26.0211L36.8159 24.2034ZM24.0632 31.5243L30.3819 38.0451L31.8182 36.6533L25.4995 30.1325L24.0632 31.5243Z" fill="#1E4364"/>
<path d="M43.7326 55.2112L51.4361 60.5979L49.3272 63.6137L37.8868 55.6139L53.8177 32.8313L57.5547 35.4444L43.7326 55.2112Z" fill="#1E4364"/>
<path d="M43.7326 55.2112L42.9131 54.6381L42.34 55.4576L43.1596 56.0307L43.7326 55.2112ZM51.4361 60.5979L52.2556 61.1709L52.8286 60.3514L52.0091 59.7784L51.4361 60.5979ZM49.3272 63.6137L48.7542 64.4332L49.5737 65.0063L50.1468 64.1868L49.3272 63.6137ZM37.8868 55.6139L37.0673 55.0408L36.4942 55.8603L37.3137 56.4334L37.8868 55.6139ZM53.8177 32.8313L54.3907 32.0118L53.5712 31.4387L52.9981 32.2582L53.8177 32.8313ZM57.5547 35.4444L58.3742 36.0175L58.9472 35.1979L58.1277 34.6249L57.5547 35.4444ZM43.1596 56.0307L50.863 61.4174L52.0091 59.7784L44.3057 54.3917L43.1596 56.0307ZM50.6166 60.0248L48.5077 63.0407L50.1468 64.1868L52.2556 61.1709L50.6166 60.0248ZM49.9003 62.7942L38.4598 54.7944L37.3137 56.4334L48.7542 64.4332L49.9003 62.7942ZM38.7063 56.1869L54.6372 33.4043L52.9981 32.2582L37.0673 55.0408L38.7063 56.1869ZM53.2446 33.6508L56.9816 36.2639L58.1277 34.6249L54.3907 32.0118L53.2446 33.6508ZM56.7351 34.8714L42.9131 54.6381L44.5521 55.7842L58.3742 36.0175L56.7351 34.8714Z" fill="#1E4364"/>
<path d="M74.3068 45.5235L61.5366 70.2169L57.4862 68.1223L70.2564 43.4289L74.3068 45.5235Z" fill="#1E4364"/>
<path d="M74.3068 45.5235L75.195 45.9829L75.6544 45.0947L74.7661 44.6353L74.3068 45.5235ZM61.5366 70.2169L61.0773 71.1052L61.9655 71.5645L62.4249 70.6763L61.5366 70.2169ZM57.4862 68.1223L56.5979 67.6629L56.1386 68.5511L57.0268 69.0105L57.4862 68.1223ZM70.2564 43.4289L70.7157 42.5406L69.8275 42.0813L69.3681 42.9695L70.2564 43.4289ZM73.4185 45.0642L60.6484 69.7576L62.4249 70.6763L75.195 45.9829L73.4185 45.0642ZM61.996 69.3287L57.9455 67.234L57.0268 69.0105L61.0773 71.1052L61.996 69.3287ZM58.3744 68.5816L71.1446 43.8882L69.3681 42.9695L56.5979 67.6629L58.3744 68.5816ZM69.797 44.3171L73.8474 46.4118L74.7661 44.6353L70.7157 42.5406L69.797 44.3171Z" fill="#1E4364"/>
<path d="M107.964 57.2645L100.202 83.959L95.8234 82.6859L101.139 64.403L87.6806 80.3183L84.6463 79.4361L81.7809 58.7745L76.4651 77.0573L72.0864 75.7842L79.848 49.0897L84.5724 50.4633L87.8578 74.1214L103.278 55.902L107.964 57.2645Z" fill="#1E4364"/>
<path d="M107.964 57.2645L108.924 57.5437L109.203 56.5834L108.243 56.3042L107.964 57.2645ZM100.202 83.959L99.9229 84.9192L100.883 85.1984L101.162 84.2382L100.202 83.959ZM95.8234 82.6859L94.8632 82.4067L94.584 83.3669L95.5442 83.6461L95.8234 82.6859ZM101.139 64.403L102.099 64.6822L100.376 63.7573L101.139 64.403ZM87.6806 80.3183L87.4014 81.2785L88.0249 81.4598L88.4442 80.964L87.6806 80.3183ZM84.6463 79.4361L83.6558 79.5734L83.7448 80.2154L84.3671 80.3963L84.6463 79.4361ZM81.7809 58.7745L82.7715 58.6371L80.8207 58.4953L81.7809 58.7745ZM76.4651 77.0573L76.1859 78.0176L77.1461 78.2968L77.4253 77.3365L76.4651 77.0573ZM72.0864 75.7842L71.1262 75.505L70.847 76.4652L71.8072 76.7444L72.0864 75.7842ZM79.848 49.0897L80.1272 48.1294L79.167 47.8502L78.8878 48.8105L79.848 49.0897ZM84.5724 50.4633L85.5628 50.3258L85.4737 49.684L84.8515 49.5031L84.5724 50.4633ZM87.8578 74.1214L86.8673 74.2589L87.1752 76.4758L88.6211 74.7674L87.8578 74.1214ZM103.278 55.902L103.557 54.9418L102.934 54.7606L102.514 55.256L103.278 55.902ZM107.003 56.9853L99.2418 83.6798L101.162 84.2382L108.924 57.5437L107.003 56.9853ZM100.481 82.9988L96.1026 81.7256L95.5442 83.6461L99.9229 84.9192L100.481 82.9988ZM96.7836 82.9651L102.099 64.6822L100.179 64.1238L94.8632 82.4067L96.7836 82.9651ZM100.376 63.7573L86.917 79.6726L88.4442 80.964L101.903 65.0487L100.376 63.7573ZM87.9598 79.3581L84.9255 78.4758L84.3671 80.3963L87.4014 81.2785L87.9598 79.3581ZM85.6368 79.2987L82.7715 58.6371L80.7904 58.9118L83.6558 79.5734L85.6368 79.2987ZM80.8207 58.4953L75.5048 76.7781L77.4253 77.3365L82.7412 59.0536L80.8207 58.4953ZM76.7443 76.0971L72.3656 74.824L71.8072 76.7444L76.1859 78.0176L76.7443 76.0971ZM73.0466 76.0634L80.8082 49.3689L78.8878 48.8105L71.1262 75.505L73.0466 76.0634ZM79.5688 50.0499L84.2932 51.4235L84.8515 49.5031L80.1272 48.1294L79.5688 50.0499ZM83.5819 50.6009L86.8673 74.2589L88.8483 73.9838L85.5628 50.3258L83.5819 50.6009ZM88.6211 74.7674L104.041 56.548L102.514 55.256L87.0945 73.4753L88.6211 74.7674ZM102.999 56.8622L107.684 58.2247L108.243 56.3042L103.557 54.9418L102.999 56.8622Z" fill="#1E4364"/>
<path d="M118.272 61.4188L117.827 69.5667L127.412 70.0901L127.21 73.8046L117.624 73.2812L117.159 81.7885L127.943 82.3773L127.741 86.0918L112.403 85.2544L113.921 57.4558L129.258 58.2932L129.056 62.0076L118.272 61.4188Z" fill="#1E4364"/>
<path d="M118.272 61.4188L118.326 60.4203L117.328 60.3658L117.273 61.3643L118.272 61.4188ZM117.827 69.5667L116.828 69.5122L116.774 70.5107L117.772 70.5652L117.827 69.5667ZM127.412 70.0901L128.411 70.1446L128.465 69.1461L127.467 69.0916L127.412 70.0901ZM127.21 73.8046L127.155 74.8031L128.154 74.8576L128.208 73.8591L127.21 73.8046ZM117.624 73.2812L117.678 72.2827L116.68 72.2281L116.625 73.2267L117.624 73.2812ZM117.159 81.7885L116.161 81.734L116.106 82.7325L117.105 82.787L117.159 81.7885ZM127.943 82.3773L128.942 82.4318L128.996 81.4333L127.998 81.3788L127.943 82.3773ZM127.741 86.0918L127.686 87.0903L128.685 87.1448L128.739 86.1463L127.741 86.0918ZM112.403 85.2544L111.405 85.1999L111.35 86.1984L112.349 86.2529L112.403 85.2544ZM113.921 57.4558L113.976 56.4573L112.977 56.4027L112.923 57.4013L113.921 57.4558ZM129.258 58.2932L130.257 58.3477L130.311 57.3492L129.313 57.2947L129.258 58.2932ZM129.056 62.0076L129.001 63.0062L130 63.0607L130.054 62.0622L129.056 62.0076ZM117.273 61.3643L116.828 69.5122L118.825 69.6212L119.27 61.4734L117.273 61.3643ZM117.772 70.5652L127.358 71.0886L127.467 69.0916L117.881 68.5682L117.772 70.5652ZM126.414 70.0356L126.211 73.75L128.208 73.8591L128.411 70.1446L126.414 70.0356ZM127.264 72.806L117.678 72.2827L117.569 74.2797L127.155 74.8031L127.264 72.806ZM116.625 73.2267L116.161 81.734L118.158 81.843L118.622 73.3357L116.625 73.2267ZM117.105 82.787L127.889 83.3758L127.998 81.3788L117.214 80.79L117.105 82.787ZM126.945 82.3228L126.742 86.0373L128.739 86.1463L128.942 82.4318L126.945 82.3228ZM127.795 85.0933L112.458 84.2559L112.349 86.2529L127.686 87.0903L127.795 85.0933ZM113.402 85.3089L114.92 57.5103L112.923 57.4013L111.405 85.1999L113.402 85.3089ZM113.867 58.4543L129.204 59.2917L129.313 57.2947L113.976 56.4573L113.867 58.4543ZM128.26 58.2387L128.057 61.9531L130.054 62.0622L130.257 58.3477L128.26 58.2387ZM129.11 61.0091L118.326 60.4203L118.217 62.4174L129.001 63.0062L129.11 61.0091Z" fill="#1E4364"/>
<path d="M161.426 82.5204L156.917 83.2019L140.249 64.7253L143.351 85.2522L138.842 85.9336L134.682 58.4062L139.191 57.7248L155.853 76.1618L152.757 55.6745L157.266 54.993L161.426 82.5204Z" fill="#1E4364"/>
<path d="M161.426 82.5204L161.575 83.5092L162.564 83.3598L162.415 82.371L161.426 82.5204ZM156.917 83.2019L156.175 83.8717L156.535 84.271L157.067 84.1906L156.917 83.2019ZM140.249 64.7253L140.991 64.0554L138.763 61.5852L139.26 64.8747L140.249 64.7253ZM143.351 85.2522L143.501 86.2409L144.489 86.0915L144.34 85.1027L143.351 85.2522ZM138.842 85.9336L137.854 86.083L138.003 87.0718L138.992 86.9224L138.842 85.9336ZM134.682 58.4062L134.533 57.4174L133.544 57.5669L133.693 58.5556L134.682 58.4062ZM139.191 57.7248L139.933 57.0543L139.573 56.6557L139.041 56.736L139.191 57.7248ZM155.853 76.1618L155.111 76.8323L157.338 79.2966L156.842 76.0124L155.853 76.1618ZM152.757 55.6745L152.607 54.6857L151.619 54.8351L151.768 55.8239L152.757 55.6745ZM157.266 54.993L158.254 54.8436L158.105 53.8548L157.116 54.0043L157.266 54.993ZM161.276 81.5317L156.768 82.2131L157.067 84.1906L161.575 83.5092L161.276 81.5317ZM157.66 82.532L140.991 64.0554L139.506 65.3951L156.175 83.8717L157.66 82.532ZM139.26 64.8747L142.362 85.4016L144.34 85.1027L141.238 64.5758L139.26 64.8747ZM143.202 84.2634L138.693 84.9448L138.992 86.9224L143.501 86.2409L143.202 84.2634ZM139.831 85.7842L135.671 58.2568L133.693 58.5556L137.854 86.083L139.831 85.7842ZM134.831 59.395L139.34 58.7135L139.041 56.736L134.533 57.4174L134.831 59.395ZM138.449 58.3953L155.111 76.8323L156.595 75.4913L139.933 57.0543L138.449 58.3953ZM156.842 76.0124L153.746 55.525L151.768 55.8239L154.864 76.3112L156.842 76.0124ZM152.906 56.6632L157.415 55.9818L157.116 54.0043L152.607 54.6857L152.906 56.6632ZM156.277 55.1425L160.437 82.6699L162.415 82.371L158.254 54.8436L156.277 55.1425Z" fill="#1E4364"/>
<path d="M179.578 46.9337L180.893 50.4135L173.971 53.0298L182.485 75.5546L178.219 77.1668L169.706 54.642L162.746 57.2724L161.431 53.7926L179.578 46.9337Z" fill="#1E4364"/>
<path d="M179.578 46.9337L180.513 46.5802L180.16 45.6448L179.224 45.9983L179.578 46.9337ZM180.893 50.4135L181.247 51.3489L182.182 50.9954L181.829 50.0599L180.893 50.4135ZM173.971 53.0298L173.618 52.0944L172.682 52.4479L173.036 53.3833L173.971 53.0298ZM182.485 75.5546L182.838 76.49L183.774 76.1364L183.42 75.201L182.485 75.5546ZM178.219 77.1668L177.284 77.5203L177.637 78.4557L178.573 78.1022L178.219 77.1668ZM169.706 54.642L170.641 54.2884L170.287 53.353L169.352 53.7065L169.706 54.642ZM162.746 57.2724L161.811 57.6259L162.164 58.5613L163.1 58.2078L162.746 57.2724ZM161.431 53.7926L161.077 52.8572L160.142 53.2108L160.495 54.1462L161.431 53.7926ZM178.643 47.2873L179.958 50.767L181.829 50.0599L180.513 46.5802L178.643 47.2873ZM180.54 49.4781L173.618 52.0944L174.325 53.9652L181.247 51.3489L180.54 49.4781ZM173.036 53.3833L181.549 75.9081L183.42 75.201L174.907 52.6762L173.036 53.3833ZM182.131 74.6192L177.866 76.2314L178.573 78.1022L182.838 76.49L182.131 74.6192ZM179.155 76.8132L170.641 54.2884L168.77 54.9955L177.284 77.5203L179.155 76.8132ZM169.352 53.7065L162.393 56.337L163.1 58.2078L170.059 55.5774L169.352 53.7065ZM163.682 56.9188L162.366 53.4391L160.495 54.1462L161.811 57.6259L163.682 56.9188ZM161.784 54.728L179.932 47.8692L179.224 45.9983L161.077 52.8572L161.784 54.728Z" fill="#1E4364"/>
<path d="M209.724 61.7403C207.564 63.1642 205.242 63.9771 202.756 64.1791C200.277 64.3441 197.909 63.8773 195.651 62.7786C193.401 61.6431 191.528 59.9399 190.03 57.6691C188.533 55.3984 187.713 53.0164 187.57 50.5232C187.45 48.0153 187.961 45.6659 189.103 43.475C190.254 41.2472 191.908 39.4213 194.068 37.9974C196.25 36.5588 198.58 35.757 201.058 35.592C203.544 35.39 205.905 35.8457 208.141 36.959C210.376 38.0723 212.242 39.7644 213.74 42.0351C215.237 44.3059 216.064 46.699 216.222 49.2145C216.364 51.7077 215.861 54.0682 214.71 56.296C213.568 58.4869 211.906 60.3016 209.724 61.7403ZM207.544 58.4343C209.08 57.4214 210.222 56.1735 210.969 54.6907C211.701 53.1856 211.976 51.5672 211.792 49.8356C211.616 48.067 210.963 46.3256 209.833 44.6114C208.702 42.8972 207.366 41.6221 205.825 40.7859C204.305 39.9351 202.717 39.561 201.06 39.6635C199.403 39.7661 197.806 40.3239 196.27 41.3368C194.734 42.3497 193.592 43.5975 192.845 45.0804C192.098 46.5632 191.805 48.1778 191.966 49.9241C192.15 51.6557 192.807 53.3786 193.937 55.0928C195.068 56.807 196.4 58.1007 197.934 58.9738C199.475 59.8099 201.082 60.1878 202.754 60.1075C204.411 60.0049 206.008 59.4472 207.544 58.4343Z" fill="#1E4364"/>
<path d="M202.756 64.1791L202.822 65.1769L202.829 65.1764L202.837 65.1758L202.756 64.1791ZM195.651 62.7786L195.201 63.6714L195.207 63.6746L195.214 63.6778L195.651 62.7786ZM187.57 50.5232L186.571 50.5712L186.572 50.5803L187.57 50.5232ZM189.103 43.475L189.99 43.9375L189.992 43.9338L189.103 43.475ZM201.058 35.592L201.125 36.5898L201.132 36.5893L201.139 36.5887L201.058 35.592ZM208.141 36.959L207.695 37.8542L208.141 36.959ZM216.222 49.2145L217.22 49.1573L217.22 49.152L216.222 49.2145ZM214.71 56.296L215.597 56.7585L215.599 56.7548L214.71 56.296ZM210.969 54.6907L211.862 55.1406L211.868 55.1282L210.969 54.6907ZM211.792 49.8356L210.797 49.9346L210.798 49.941L211.792 49.8356ZM205.825 40.7859L205.336 41.6585L205.348 41.6649L205.825 40.7859ZM201.06 39.6635L201.122 40.6616L201.06 39.6635ZM192.845 45.0804L193.738 45.5303L193.738 45.5303L192.845 45.0804ZM191.966 49.9241L190.971 50.0161L190.972 50.0295L191.966 49.9241ZM197.934 58.9738L197.439 59.8429L197.448 59.8479L197.457 59.8528L197.934 58.9738ZM202.754 60.1075L202.802 61.1065L202.816 61.1056L202.754 60.1075ZM209.173 60.9054C207.149 62.2403 204.987 62.9945 202.675 63.1824L202.837 65.1758C205.497 64.9597 207.98 64.0881 210.274 62.5751L209.173 60.9054ZM202.689 63.1813C200.386 63.3346 198.192 62.9027 196.089 61.8794L195.214 63.6778C197.626 64.8518 200.168 65.3536 202.822 65.1769L202.689 63.1813ZM196.102 61.8859C194.02 60.8351 192.274 59.2557 190.865 57.1186L189.195 58.2196C190.781 60.6241 192.783 62.451 195.201 63.6714L196.102 61.8859ZM190.865 57.1186C189.456 54.9815 188.7 52.7677 188.568 50.466L186.572 50.5803C186.725 53.265 187.61 55.8152 189.195 58.2196L190.865 57.1186ZM188.569 50.4752C188.457 48.1414 188.931 45.9685 189.99 43.9375L188.217 43.0126C186.991 45.3633 186.442 47.8892 186.571 50.5712L188.569 50.4752ZM189.992 43.9338C191.061 41.8632 192.597 40.165 194.618 38.8322L193.517 37.1626C191.22 38.6777 189.446 40.6313 188.215 43.0163L189.992 43.9338ZM194.618 38.8322C196.663 37.4838 198.828 36.7427 201.125 36.5898L200.992 34.5942C198.331 34.7713 195.836 35.6338 193.517 37.1626L194.618 38.8322ZM201.139 36.5887C203.444 36.4015 205.622 36.822 207.695 37.8542L208.586 36.0639C206.188 34.8695 203.645 34.3786 200.977 34.5953L201.139 36.5887ZM207.695 37.8542C209.758 38.882 211.496 40.4485 212.905 42.5856L214.574 41.4846C212.989 39.0802 210.993 37.2627 208.586 36.0639L207.695 37.8542ZM212.905 42.5856C214.314 44.7226 215.078 46.9493 215.224 49.2769L217.22 49.152C217.051 46.4487 216.16 43.8892 214.574 41.4846L212.905 42.5856ZM215.223 49.2716C215.356 51.5854 214.89 53.7678 213.822 55.8372L215.599 56.7548C216.831 54.3686 217.373 51.83 217.22 49.1573L215.223 49.2716ZM213.824 55.8336C212.764 57.865 211.222 59.5548 209.173 60.9054L210.274 62.5751C212.59 61.0485 214.371 59.1087 215.597 56.7585L213.824 55.8336ZM208.094 59.2691C209.76 58.1707 211.028 56.7959 211.862 55.1406L210.076 54.2407C209.416 55.5511 208.4 56.6721 206.993 57.5994L208.094 59.2691ZM211.868 55.1282C212.686 53.4476 212.989 51.6402 212.786 49.7302L210.798 49.941C210.962 51.4942 210.717 52.9235 210.07 54.2531L211.868 55.1282ZM212.787 49.7366C212.593 47.7833 211.873 45.8893 210.667 44.0609L208.998 45.1619C210.053 46.762 210.639 48.3507 210.797 49.9346L212.787 49.7366ZM210.667 44.0609C209.462 42.233 208.01 40.8338 206.302 39.9069L205.348 41.6649C206.722 42.4103 207.942 43.5615 208.998 45.1619L210.667 44.0609ZM206.313 39.9134C204.635 38.9735 202.857 38.5504 200.998 38.6655L201.122 40.6616C202.578 40.5715 203.976 40.8966 205.336 41.6584L206.313 39.9134ZM200.998 38.6655C199.148 38.78 197.385 39.4035 195.719 40.5019L196.82 42.1716C198.227 41.2442 199.657 40.7523 201.122 40.6616L200.998 38.6655ZM195.719 40.5019C194.054 41.6003 192.786 42.9752 191.952 44.6304L193.738 45.5303C194.398 44.2199 195.414 43.099 196.82 42.1716L195.719 40.5019ZM191.952 44.6304C191.116 46.2903 190.793 48.0941 190.971 50.0161L192.962 49.8321C192.817 48.2615 193.08 46.8362 193.738 45.5303L191.952 44.6304ZM190.972 50.0295C191.175 51.9463 191.9 53.8195 193.102 55.6433L194.772 54.5423C193.714 52.9377 193.125 51.3651 192.961 49.8187L190.972 50.0295ZM193.102 55.6433C194.305 57.4675 195.747 58.88 197.439 59.8429L198.428 58.1047C197.052 57.3213 195.83 56.1465 194.772 54.5423L193.102 55.6433ZM197.457 59.8528C199.151 60.7717 200.939 61.1959 202.802 61.1064L202.706 59.1087C201.226 59.1798 199.799 58.8481 198.411 58.0947L197.457 59.8528ZM202.816 61.1056C204.666 60.9911 206.429 60.3675 208.094 59.2691L206.993 57.5994C205.587 58.5268 204.157 59.0188 202.692 59.1094L202.816 61.1056Z" fill="#1E4364"/>
<path d="M235.784 40.0152C234.499 41.3689 233.11 42.367 231.618 43.0093C230.106 43.6333 228.621 43.8416 227.164 43.6343C225.706 43.4269 224.397 42.7725 223.236 41.6708L226.596 38.1317C227.54 38.8806 228.577 39.2215 229.707 39.1544C230.855 39.068 231.953 38.4736 232.999 37.3713C234.083 36.2303 234.656 35.0836 234.721 33.9313C234.766 32.7607 234.353 31.7622 233.483 30.936C232.806 30.2934 232.062 29.9732 231.251 29.9754C230.458 29.9583 229.661 30.1393 228.86 30.5185C228.077 30.8784 227.055 31.4519 225.793 32.2392C224.196 33.2238 222.829 33.9666 221.691 34.4678C220.553 34.9312 219.331 35.0949 218.026 34.9591C216.721 34.8232 215.44 34.1586 214.183 32.9651C213.022 31.8635 212.282 30.6095 211.963 29.2031C211.643 27.7967 211.747 26.351 212.275 24.8661C212.802 23.3811 213.717 21.9521 215.021 20.579C216.875 18.6257 218.883 17.4984 221.045 17.197C223.205 16.858 225.2 17.4286 227.031 18.909L223.561 22.5641C222.771 21.9244 221.812 21.6758 220.684 21.8183C219.556 21.9608 218.496 22.5542 217.504 23.5985C216.605 24.5461 216.112 25.5492 216.026 26.6077C215.941 27.6663 216.352 28.627 217.261 29.4899C217.88 30.0775 218.567 30.3803 219.322 30.3984C220.076 30.3788 220.844 30.1891 221.627 29.8292C222.41 29.4694 223.414 28.9151 224.64 28.1665C226.274 27.181 227.67 26.4468 228.827 25.9641C230.002 25.462 231.252 25.288 232.576 25.4423C233.9 25.5588 235.2 26.223 236.476 27.4347C237.501 28.4078 238.202 29.6063 238.578 31.03C238.973 32.4345 238.946 33.9347 238.497 35.5309C238.047 37.0893 237.143 38.584 235.784 40.0152Z" fill="#1E4364"/>
<path d="M231.618 43.0093L231.999 43.9337L232.006 43.9308L232.013 43.9278L231.618 43.0093ZM227.164 43.6343L227.304 42.6443L227.164 43.6343ZM223.236 41.6708L222.511 40.9823L221.823 41.7076L222.548 42.3961L223.236 41.6708ZM226.596 38.1317L227.218 37.3484L226.501 36.7796L225.871 37.4432L226.596 38.1317ZM229.707 39.1544L229.766 40.1527L229.774 40.1522L229.782 40.1516L229.707 39.1544ZM234.721 33.9313L235.719 33.9871L235.72 33.9784L235.72 33.9698L234.721 33.9313ZM231.251 29.9754L231.229 30.9752L231.242 30.9754L231.254 30.9754L231.251 29.9754ZM228.86 30.5185L229.278 31.4272L229.288 31.4224L228.86 30.5185ZM225.793 32.2392L226.317 33.0904L226.322 33.0877L225.793 32.2392ZM221.691 34.4678L222.068 35.394L222.081 35.3886L222.094 35.3829L221.691 34.4678ZM211.963 29.2031L212.938 28.9816L212.938 28.9816L211.963 29.2031ZM212.275 24.8661L213.217 25.2007L213.217 25.2007L212.275 24.8661ZM221.045 17.197L221.183 18.1875L221.191 18.1863L221.2 18.1849L221.045 17.197ZM227.031 18.909L227.756 19.5975L228.501 18.8123L227.66 18.1314L227.031 18.909ZM223.561 22.5641L222.931 23.3413L223.65 23.9228L224.286 23.2526L223.561 22.5641ZM216.026 26.6077L217.023 26.6884L217.023 26.6884L216.026 26.6077ZM219.322 30.3984L219.298 31.3981L219.323 31.3987L219.348 31.3981L219.322 30.3984ZM224.64 28.1665L224.123 27.3102L224.119 27.3132L224.64 28.1665ZM228.827 25.9641L229.212 26.887L229.22 26.8837L228.827 25.9641ZM232.576 25.4423L232.461 26.4356L232.475 26.4372L232.489 26.4384L232.576 25.4423ZM238.578 31.03L237.611 31.2857L237.613 31.2932L237.616 31.3007L238.578 31.03ZM238.497 35.5309L239.458 35.8083L239.46 35.8016L238.497 35.5309ZM235.059 39.3266C233.853 40.5967 232.573 41.5094 231.222 42.0908L232.013 43.9278C233.647 43.2246 235.145 42.1411 236.509 40.7037L235.059 39.3266ZM231.236 42.085C229.871 42.6486 228.566 42.8237 227.304 42.6443L227.023 44.6243C228.677 44.8595 230.341 44.6181 231.999 43.9337L231.236 42.085ZM227.304 42.6443C226.07 42.4687 224.948 41.9173 223.925 40.9456L222.548 42.3961C223.845 43.6277 225.341 44.3852 227.023 44.6243L227.304 42.6443ZM223.962 42.3594L227.322 38.8202L225.871 37.4432L222.511 40.9823L223.962 42.3594ZM225.975 38.9151C227.098 39.8062 228.374 40.2353 229.766 40.1527L229.648 38.1562C228.78 38.2077 227.982 37.955 227.218 37.3484L225.975 38.9151ZM229.782 40.1516C231.248 40.0412 232.563 39.2833 233.725 38.0598L232.274 36.6828C231.343 37.6639 230.462 38.0947 229.632 38.1572L229.782 40.1516ZM233.725 38.0598C234.912 36.8094 235.637 35.4498 235.719 33.9871L233.722 33.8755C233.675 34.7174 233.253 35.6511 232.274 36.6828L233.725 38.0598ZM235.72 33.9698C235.776 32.5038 235.244 31.2295 234.171 30.2108L232.794 31.6612C233.462 32.2949 233.755 33.0175 233.721 33.8929L235.72 33.9698ZM234.171 30.2108C233.338 29.4199 232.355 28.9724 231.248 28.9754L231.254 30.9754C231.769 30.974 232.274 31.167 232.794 31.6612L234.171 30.2108ZM231.273 28.9756C230.307 28.9548 229.357 29.1769 228.432 29.6146L229.288 31.4224C229.966 31.1017 230.609 30.9618 231.229 30.9752L231.273 28.9756ZM228.443 29.6099C227.603 29.9956 226.54 30.5946 225.263 31.3907L226.322 33.0877C227.57 32.3092 228.551 31.7611 229.278 31.4271L228.443 29.6099ZM225.268 31.388C223.693 32.3593 222.368 33.0768 221.288 33.5526L222.094 35.3829C223.289 34.8565 224.699 34.0883 226.317 33.0904L225.268 31.388ZM221.314 33.5415C220.338 33.9389 219.282 34.0845 218.129 33.9644L217.922 35.9537C219.379 36.1054 220.767 35.9235 222.068 35.394L221.314 33.5415ZM218.129 33.9644C217.105 33.8578 216.02 33.3302 214.871 32.2399L213.494 33.6904C214.86 34.9869 216.337 35.7886 217.922 35.9537L218.129 33.9644ZM214.871 32.2399C213.838 31.2588 213.209 30.1747 212.938 28.9816L210.988 29.4246C211.356 31.0443 212.207 32.4683 213.494 33.6904L214.871 32.2399ZM212.938 28.9816C212.664 27.777 212.747 26.5243 213.217 25.2007L211.332 24.5314C210.748 26.1778 210.622 27.8165 210.988 29.4246L212.938 28.9816ZM213.217 25.2007C213.689 23.8714 214.52 22.5592 215.746 21.2675L214.296 19.8905C212.915 21.345 211.915 22.8908 211.332 24.5314L213.217 25.2007ZM215.746 21.2675C217.482 19.4389 219.294 18.4508 221.183 18.1875L220.907 16.2066C218.472 16.546 216.269 17.8125 214.296 19.8905L215.746 21.2675ZM221.2 18.1849C223.058 17.8934 224.772 18.3687 226.402 19.6865L227.66 18.1314C225.628 16.4886 223.352 15.8226 220.89 16.2091L221.2 18.1849ZM226.306 18.2204L222.835 21.8756L224.286 23.2526L227.756 19.5975L226.306 18.2204ZM224.19 21.7869C223.162 20.9546 221.921 20.654 220.558 20.8262L220.809 22.8104C221.702 22.6976 222.379 22.8942 222.931 23.3413L224.19 21.7869ZM220.558 20.8262C219.146 21.0046 217.886 21.7438 216.779 22.91L218.23 24.287C219.105 23.3645 219.965 22.917 220.809 22.8104L220.558 20.8262ZM216.779 22.91C215.76 23.984 215.138 25.1921 215.03 26.5271L217.023 26.6884C217.086 25.9063 217.45 25.1083 218.23 24.287L216.779 22.91ZM215.03 26.527C214.915 27.9428 215.489 29.1858 216.573 30.2151L217.95 28.7647C217.216 28.0681 216.966 27.3897 217.023 26.6884L215.03 26.527ZM216.573 30.2151C217.346 30.9496 218.263 31.3733 219.298 31.3981L219.346 29.3987C218.871 29.3873 218.414 29.2053 217.95 28.7647L216.573 30.2151ZM219.348 31.3981C220.255 31.3745 221.156 31.1462 222.045 30.7378L221.21 28.9206C220.532 29.2319 219.897 29.3831 219.296 29.3987L219.348 31.3981ZM222.045 30.7378C222.879 30.3544 223.921 29.7774 225.161 29.0199L224.119 27.3132C222.908 28.0529 221.941 28.5843 221.21 28.9206L222.045 30.7378ZM225.156 29.0229C226.768 28.051 228.117 27.3437 229.212 26.8869L228.442 25.0412C227.222 25.5499 225.781 26.3109 224.123 27.3102L225.156 29.0229ZM229.22 26.8837C230.228 26.453 231.301 26.3006 232.461 26.4356L232.692 24.449C231.202 24.2755 229.776 24.4709 228.434 25.0445L229.22 26.8837ZM232.489 26.4384C233.523 26.5295 234.622 27.0531 235.787 28.16L237.165 26.7095C235.778 25.3928 234.276 24.5881 232.664 24.4461L232.489 26.4384ZM235.787 28.16C236.672 28.9998 237.28 30.0333 237.611 31.2857L239.545 30.7744C239.123 29.1792 238.33 27.8158 237.165 26.7095L235.787 28.16ZM237.616 31.3007C237.954 32.5049 237.941 33.8163 237.534 35.2601L239.46 35.8016C239.952 34.0532 239.992 32.3641 239.541 30.7594L237.616 31.3007ZM237.536 35.2535C237.139 36.6281 236.331 37.9869 235.059 39.3266L236.509 40.7037C237.955 39.1812 238.955 37.5505 239.458 35.8083L237.536 35.2535Z" fill="#1E4364"/>
</svg>
