<svg width="143" height="74" viewBox="0 0 143 74" fill="none" xmlns="http://www.w3.org/2000/svg">
<path d="M30.4265 31.6371C30.9984 32.9296 31.2331 34.2838 31.1306 35.6997C31.0281 37.1156 30.4681 38.4861 29.4506 39.8111C28.4223 41.1118 26.8596 42.2261 24.7624 43.1541L20.1534 45.1935L24.7178 55.5088L20.5478 57.354L9.29867 31.9316L18.0776 28.047C20.0285 27.1838 21.8256 26.7968 23.469 26.8861C25.1259 26.9403 26.5372 27.3947 27.7028 28.2495C28.8928 29.0935 29.8007 30.2227 30.4265 31.6371ZM23.2571 39.7523C24.8422 39.0509 25.8684 38.1739 26.3359 37.1214C26.7925 36.0446 26.7295 34.8477 26.1468 33.5309C24.9166 30.7509 22.7287 30.0569 19.5829 31.4488L14.974 33.4883L18.6481 41.7917L23.2571 39.7523Z" fill="#1E4364"/>
<path d="M31.1306 35.6997L30.1332 35.6275L30.1332 35.6275L31.1306 35.6997ZM29.4506 39.8111L30.2351 40.4314L30.2437 40.4202L29.4506 39.8111ZM20.1534 45.1935L19.7488 44.279L18.8343 44.6837L19.2389 45.5982L20.1534 45.1935ZM24.7178 55.5088L25.1225 56.4233L26.0369 56.0186L25.6323 55.1041L24.7178 55.5088ZM20.5478 57.354L19.6333 57.7586L20.038 58.6731L20.9525 58.2684L20.5478 57.354ZM9.29867 31.9316L8.89403 31.0171L7.97956 31.4218L8.3842 32.3362L9.29867 31.9316ZM23.469 26.8861L23.4147 27.8846L23.4255 27.8852L23.4363 27.8856L23.469 26.8861ZM27.7028 28.2495L27.1114 29.0559L27.1178 29.0606L27.1243 29.0652L27.7028 28.2495ZM26.3359 37.1214L27.2498 37.5273L27.2532 37.5196L27.2565 37.5118L26.3359 37.1214ZM14.974 33.4883L14.5693 32.5738L13.6548 32.9784L14.0595 33.8929L14.974 33.4883ZM18.6481 41.7917L17.7337 42.1963L18.1383 43.1108L19.0528 42.7061L18.6481 41.7917ZM29.512 32.0418C30.0174 33.1838 30.2239 34.3741 30.1332 35.6275L32.128 35.7719C32.2423 34.1934 31.9795 32.6754 31.341 31.2325L29.512 32.0418ZM30.1332 35.6275C30.0472 36.8159 29.5773 38.0042 28.6575 39.2021L30.2437 40.4202C31.3589 38.968 32.009 37.4153 32.128 35.7719L30.1332 35.6275ZM28.6662 39.1909C27.7698 40.3247 26.3602 41.3535 24.3577 42.2396L25.167 44.0686C27.3589 43.0987 29.0748 41.8989 30.2351 40.4313L28.6662 39.1909ZM24.3577 42.2396L19.7488 44.279L20.5581 46.108L25.167 44.0686L24.3577 42.2396ZM19.2389 45.5982L23.8033 55.9134L25.6323 55.1041L21.0679 44.7889L19.2389 45.5982ZM24.3132 54.5943L20.1432 56.4395L20.9525 58.2684L25.1225 56.4233L24.3132 54.5943ZM21.4623 56.9493L10.2131 31.5269L8.3842 32.3362L19.6333 57.7586L21.4623 56.9493ZM9.70332 32.8461L18.4823 28.9615L17.673 27.1325L8.89403 31.0171L9.70332 32.8461ZM18.4823 28.9615C20.3302 28.1438 21.9684 27.806 23.4147 27.8846L23.5233 25.8876C21.6828 25.7876 19.7268 26.2237 17.673 27.1325L18.4823 28.9615ZM23.4363 27.8856C24.9224 27.9342 26.1314 28.3372 27.1114 29.0559L28.2942 27.4431C26.9431 26.4523 25.3295 25.9464 23.5016 25.8867L23.4363 27.8856ZM27.1243 29.0652C28.1583 29.7986 28.9545 30.7818 29.512 32.0418L31.341 31.2325C30.6468 29.6636 29.6272 28.3885 28.2813 27.4339L27.1243 29.0652ZM23.6617 40.6667C25.3623 39.9143 26.6411 38.8978 27.2498 37.5273L25.4219 36.7156C25.0957 37.4501 24.3221 38.1875 22.8524 38.8378L23.6617 40.6667ZM27.2565 37.5118C27.8452 36.1236 27.7281 34.6332 27.0612 33.1262L25.2323 33.9355C25.7309 35.0622 25.7398 35.9655 25.4152 36.7311L27.2565 37.5118ZM27.0612 33.1262C26.3699 31.5639 25.3342 30.4317 23.8856 29.9722C22.4669 29.5222 20.8662 29.7875 19.1783 30.5344L19.9875 32.3633C21.4454 31.7182 22.5116 31.6345 23.2809 31.8786C24.0202 32.1131 24.6935 32.7178 25.2323 33.9355L27.0612 33.1262ZM19.1783 30.5344L14.5693 32.5738L15.3786 34.4027L19.9875 32.3633L19.1783 30.5344ZM14.0595 33.8929L17.7337 42.1963L19.5626 41.387L15.8884 33.0836L14.0595 33.8929ZM19.0528 42.7061L23.6617 40.6667L22.8524 38.8378L18.2435 40.8772L19.0528 42.7061Z" fill="#1E4364"/>
<path d="M51.0653 42.9092L60.3203 41.2643L60.9642 44.8875L47.2196 47.3303L42.3549 19.9593L46.8446 19.1613L51.0653 42.9092Z" fill="#1E4364"/>
<path d="M51.0653 42.9092L50.0807 43.0841L50.2557 44.0687L51.2403 43.8937L51.0653 42.9092ZM60.3203 41.2643L61.3048 41.0893L61.1298 40.1047L60.1453 40.2797L60.3203 41.2643ZM60.9642 44.8875L61.1392 45.872L62.1238 45.6971L61.9488 44.7125L60.9642 44.8875ZM47.2196 47.3303L46.235 47.5053L46.41 48.4899L47.3946 48.3149L47.2196 47.3303ZM42.3549 19.9593L42.1799 18.9747L41.1954 19.1497L41.3704 20.1342L42.3549 19.9593ZM46.8446 19.1613L47.8291 18.9863L47.6542 18.0017L46.6696 18.1767L46.8446 19.1613ZM51.2403 43.8937L60.4952 42.2488L60.1453 40.2797L50.8903 41.9246L51.2403 43.8937ZM59.3357 41.4392L59.9796 45.0625L61.9488 44.7125L61.3048 41.0893L59.3357 41.4392ZM60.7892 43.9029L47.0446 46.3457L47.3946 48.3149L61.1392 45.872L60.7892 43.9029ZM48.2042 47.1553L43.3395 19.7843L41.3704 20.1342L46.235 47.5053L48.2042 47.1553ZM42.5299 20.9438L47.0196 20.1459L46.6696 18.1767L42.1799 18.9747L42.5299 20.9438ZM45.86 19.3363L50.0807 43.0841L52.0499 42.7342L47.8291 18.9863L45.86 19.3363Z" fill="#1E4364"/>
<path d="M86.7133 39.8315L75.1137 38.8628L72.6479 44.3567L67.9045 43.9605L80.1468 17.046L85.4085 17.4854L93.017 46.0577L88.2337 45.6583L86.7133 39.8315ZM85.7474 36.0179L82.3183 22.7666L76.6989 35.2623L85.7474 36.0179Z" fill="#1E4364"/>
<path d="M86.7133 39.8315L87.6809 39.5791L87.5022 38.8939L86.7966 38.835L86.7133 39.8315ZM75.1137 38.8628L75.1969 37.8663L74.4913 37.8074L74.2014 38.4534L75.1137 38.8628ZM72.6479 44.3567L72.5647 45.3532L73.2703 45.4121L73.5603 44.7662L72.6479 44.3567ZM67.9045 43.9605L66.9942 43.5465L66.4063 44.8389L67.8212 44.9571L67.9045 43.9605ZM80.1468 17.046L80.23 16.0495L79.5282 15.9909L79.2365 16.632L80.1468 17.046ZM85.4085 17.4854L86.3748 17.2281L86.1936 16.5475L85.4917 16.4889L85.4085 17.4854ZM93.017 46.0577L92.9338 47.0543L94.3487 47.1724L93.9834 45.8004L93.017 46.0577ZM88.2337 45.6583L87.2661 45.9108L87.4449 46.5959L88.1505 46.6548L88.2337 45.6583ZM85.7474 36.0179L85.6641 37.0144L87.0685 37.1317L86.7155 35.7674L85.7474 36.0179ZM82.3183 22.7666L83.2864 22.516L82.5734 19.761L81.4062 22.3564L82.3183 22.7666ZM76.6989 35.2623L75.7868 34.8521L75.2071 36.1412L76.6156 36.2588L76.6989 35.2623ZM86.7966 38.835L75.1969 37.8663L75.0305 39.8594L86.6301 40.8281L86.7966 38.835ZM74.2014 38.4534L71.7356 43.9472L73.5603 44.7662L76.026 39.2723L74.2014 38.4534ZM72.7312 43.3602L67.9877 42.964L67.8212 44.9571L72.5647 45.3532L72.7312 43.3602ZM68.8147 44.3746L81.0571 17.4601L79.2365 16.632L66.9942 43.5465L68.8147 44.3746ZM80.0636 18.0425L85.3253 18.482L85.4917 16.4889L80.23 16.0495L80.0636 18.0425ZM84.4422 17.7427L92.0507 46.3151L93.9834 45.8004L86.3748 17.2281L84.4422 17.7427ZM93.1003 45.0612L88.3169 44.6617L88.1505 46.6548L92.9338 47.0543L93.1003 45.0612ZM89.2013 45.4058L87.6809 39.5791L85.7457 40.084L87.2661 45.9108L89.2013 45.4058ZM86.7155 35.7674L83.2864 22.516L81.3502 23.0171L84.7792 36.2684L86.7155 35.7674ZM81.4062 22.3564L75.7868 34.8521L77.6109 35.6724L83.2303 23.1767L81.4062 22.3564ZM76.6156 36.2588L85.6641 37.0144L85.8306 35.0214L76.7821 34.2657L76.6156 36.2588Z" fill="#1E4364"/>
<path d="M122.798 57.0933L118.586 55.3451L113.874 30.9114L105.915 50.0852L101.703 48.337L112.376 22.6242L116.588 24.3724L121.316 48.7691L129.26 29.6323L133.471 31.3805L122.798 57.0933Z" fill="#1E4364"/>
<path d="M122.798 57.0933L122.415 58.0169L123.338 58.4003L123.722 57.4767L122.798 57.0933ZM118.586 55.3451L117.604 55.5345L117.706 56.0626L118.203 56.2687L118.586 55.3451ZM113.874 30.9114L114.855 30.722L114.225 27.4554L112.95 30.5281L113.874 30.9114ZM105.915 50.0852L105.531 51.0088L106.455 51.3922L106.838 50.4686L105.915 50.0852ZM101.703 48.337L100.779 47.9537L100.396 48.8773L101.32 49.2606L101.703 48.337ZM112.376 22.6242L112.76 21.7006L111.836 21.3172L111.453 22.2408L112.376 22.6242ZM116.588 24.3724L117.57 24.1821L117.467 23.6548L116.971 23.4488L116.588 24.3724ZM121.316 48.7691L120.334 48.9594L120.966 52.2202L122.24 49.1525L121.316 48.7691ZM129.26 29.6323L129.643 28.7087L128.719 28.3253L128.336 29.2489L129.26 29.6323ZM133.471 31.3805L134.395 31.7639L134.778 30.8403L133.854 30.4569L133.471 31.3805ZM123.181 56.1697L118.97 54.4215L118.203 56.2687L122.415 58.0169L123.181 56.1697ZM119.568 55.1557L114.855 30.722L112.892 31.1008L117.604 55.5345L119.568 55.1557ZM112.95 30.5281L104.991 49.7019L106.838 50.4686L114.797 31.2948L112.95 30.5281ZM106.298 49.1616L102.086 47.4135L101.32 49.2606L105.531 51.0088L106.298 49.1616ZM102.627 48.7204L113.3 23.0076L111.453 22.2408L100.779 47.9537L102.627 48.7204ZM111.993 23.5478L116.204 25.296L116.971 23.4488L112.76 21.7006L111.993 23.5478ZM115.606 24.5627L120.334 48.9594L122.298 48.5789L117.57 24.1821L115.606 24.5627ZM122.24 49.1525L130.183 30.0157L128.336 29.2489L120.392 48.3858L122.24 49.1525ZM128.876 30.5559L133.088 32.3041L133.854 30.4569L129.643 28.7087L128.876 30.5559ZM132.548 30.9971L121.874 56.7099L123.722 57.4767L134.395 31.7639L132.548 30.9971Z" fill="#1E4364"/>
</svg>
