<svg width="269" height="99" viewBox="0 0 269 99" fill="none" xmlns="http://www.w3.org/2000/svg">
<path d="M39.0761 69.4067L29.8693 76.5288L31.7627 82.2452L27.9978 85.1577L18.8414 57.0431L23.0177 53.8125L47.93 69.7387L44.1334 72.6757L39.0761 69.4067ZM35.7875 67.2475L24.3071 59.7939L28.6056 72.8033L35.7875 67.2475Z" fill="#1E4364"/>
<path d="M39.0761 69.4067L39.6189 68.5669L39.0243 68.1825L38.4642 68.6158L39.0761 69.4067ZM29.8693 76.5288L29.2574 75.7379L28.6973 76.1711L28.92 76.8433L29.8693 76.5288ZM31.7627 82.2452L32.3746 83.0362L32.9347 82.603L32.712 81.9308L31.7627 82.2452ZM27.9978 85.1577L27.0469 85.4674L27.4866 86.8174L28.6096 85.9487L27.9978 85.1577ZM18.8414 57.0431L18.2296 56.2522L17.6725 56.6831L17.8906 57.3528L18.8414 57.0431ZM23.0177 53.8125L23.5563 52.97L22.9629 52.5906L22.4058 53.0215L23.0177 53.8125ZM47.93 69.7387L48.5419 70.5297L49.6649 69.6609L48.4686 68.8962L47.93 69.7387ZM44.1334 72.6757L43.5905 73.5155L44.1852 73.8999L44.7453 73.4666L44.1334 72.6757ZM35.7875 67.2475L36.3994 68.0385L37.5141 67.1762L36.332 66.4088L35.7875 67.2475ZM24.3071 59.7939L24.8516 58.9552L22.4647 57.4055L23.3576 60.1077L24.3071 59.7939ZM28.6056 72.8033L27.6561 73.117L28.0995 74.459L29.2174 73.5942L28.6056 72.8033ZM38.4642 68.6158L29.2574 75.7379L30.4811 77.3198L39.6879 70.1977L38.4642 68.6158ZM28.92 76.8433L30.8135 82.5597L32.712 81.9308L30.8185 76.2144L28.92 76.8433ZM31.1509 81.4543L27.3859 84.3668L28.6096 85.9487L32.3746 83.0362L31.1509 81.4543ZM28.9486 84.848L19.7923 56.7335L17.8906 57.3528L27.0469 85.4674L28.9486 84.848ZM19.4533 57.8341L23.6296 54.6035L22.4058 53.0215L18.2296 56.2522L19.4533 57.8341ZM22.4791 54.655L47.3914 70.5813L48.4686 68.8962L23.5563 52.97L22.4791 54.655ZM47.3181 68.9478L43.5215 71.8847L44.7453 73.4666L48.5419 70.5297L47.3181 68.9478ZM44.6762 71.8358L39.6189 68.5669L38.5332 70.2466L43.5905 73.5155L44.6762 71.8358ZM36.332 66.4088L24.8516 58.9552L23.7625 60.6327L35.243 68.0863L36.332 66.4088ZM23.3576 60.1077L27.6561 73.117L29.5551 72.4895L25.2566 59.4802L23.3576 60.1077ZM29.2174 73.5942L36.3994 68.0385L35.1756 66.4566L27.9937 72.0123L29.2174 73.5942Z" fill="#1E4364"/>
<path d="M64.4705 39.029C65.103 40.2929 65.4017 41.6344 65.3664 43.0536C65.3312 44.4728 64.8368 45.8683 63.8833 47.2401C62.9178 48.5881 61.4097 49.7752 59.3588 50.8016L54.8518 53.0573L59.9002 63.1445L55.8223 65.1853L43.3804 40.325L51.9653 36.0285C53.873 35.0737 55.6498 34.602 57.2955 34.6133C58.9532 34.5888 60.3844 34.9758 61.5892 35.7744C62.8178 36.561 63.7783 37.6459 64.4705 39.029ZM57.6939 47.475C59.244 46.6992 60.2275 45.7746 60.6445 44.7011C61.0495 43.6038 60.9298 42.4113 60.2854 41.1236C58.9248 38.405 56.7064 37.8155 53.6302 39.3551L49.1231 41.6108L53.1869 49.7306L57.6939 47.475Z" fill="#1E4364"/>
<path d="M65.3664 43.0536L64.3668 43.0288L64.3668 43.0288L65.3664 43.0536ZM63.8833 47.2401L64.6963 47.8224L64.7044 47.8108L63.8833 47.2401ZM54.8518 53.0573L54.4042 52.163L53.51 52.6106L53.9575 53.5048L54.8518 53.0573ZM59.9002 63.1445L60.3477 64.0388L61.242 63.5912L60.7944 62.697L59.9002 63.1445ZM55.8223 65.1853L54.9281 65.6329L55.3756 66.5272L56.2699 66.0796L55.8223 65.1853ZM43.3804 40.325L42.9328 39.4307L42.0386 39.8783L42.4861 40.7725L43.3804 40.325ZM57.2955 34.6133L57.2886 35.6132L57.2995 35.6133L57.3103 35.6132L57.2955 34.6133ZM61.5892 35.7744L61.0367 36.6079L61.0433 36.6123L61.05 36.6166L61.5892 35.7744ZM60.6445 44.7011L61.5766 45.0632L61.5797 45.0554L61.5826 45.0474L60.6445 44.7011ZM49.1231 41.6108L48.6755 40.7165L47.7813 41.1641L48.2288 42.0583L49.1231 41.6108ZM53.1869 49.7306L52.2926 50.1782L52.7402 51.0725L53.6344 50.6249L53.1869 49.7306ZM63.5762 39.4766C64.1351 40.5933 64.3979 41.7726 64.3668 43.0288L66.3661 43.0784C66.4054 41.4963 66.0709 39.9925 65.3648 38.5815L63.5762 39.4766ZM64.3668 43.0288C64.3372 44.2199 63.9242 45.4291 63.0622 46.6693L64.7044 47.8108C65.7494 46.3074 66.3252 44.7256 66.3661 43.0784L64.3668 43.0288ZM63.0703 46.6578C62.2287 47.8328 60.8695 48.9273 58.9113 49.9074L59.8064 51.6959C61.9498 50.6231 63.6069 49.3433 64.6963 47.8224L63.0703 46.6578ZM58.9113 49.9074L54.4042 52.163L55.2993 53.9515L59.8064 51.6959L58.9113 49.9074ZM53.9575 53.5048L59.0059 63.5921L60.7944 62.697L55.746 52.6097L53.9575 53.5048ZM59.4526 62.2503L55.3748 64.2911L56.2699 66.0796L60.3477 64.0388L59.4526 62.2503ZM56.7166 64.7378L44.2746 39.8774L42.4861 40.7725L54.9281 65.6329L56.7166 64.7378ZM43.8279 41.2192L52.4128 36.9227L51.5177 35.1342L42.9328 39.4307L43.8279 41.2192ZM52.4128 36.9227C54.2199 36.0183 55.8403 35.6033 57.2886 35.6132L57.3024 33.6133C55.4593 33.6006 53.5261 34.1291 51.5177 35.1342L52.4128 36.9227ZM57.3103 35.6132C58.797 35.5912 60.0237 35.9365 61.0367 36.6079L62.1417 34.9409C60.7451 34.0152 59.1094 33.5864 57.2807 33.6134L57.3103 35.6132ZM61.05 36.6166C62.1177 37.3001 62.9596 38.2445 63.5762 39.4766L65.3648 38.5815C64.5969 37.0473 63.518 35.8219 62.1284 34.9322L61.05 36.6166ZM58.1415 48.3692C59.8044 47.537 61.0337 46.461 61.5766 45.0632L59.7123 44.339C59.4213 45.0882 58.6835 45.8615 57.2464 46.5807L58.1415 48.3692ZM61.5826 45.0474C62.1048 43.6329 61.9171 42.1497 61.1796 40.676L59.3911 41.5711C59.9425 42.6729 59.9943 43.5748 59.7064 44.3548L61.5826 45.0474ZM61.1796 40.676C60.415 39.1483 59.3268 38.0664 57.858 37.6761C56.4196 37.2939 54.8332 37.6348 53.1826 38.4609L54.0777 40.2494C55.5033 39.5359 56.5643 39.4017 57.3443 39.609C58.0939 39.8082 58.7952 40.3803 59.3911 41.5711L61.1796 40.676ZM53.1826 38.4609L48.6755 40.7165L49.5706 42.505L54.0777 40.2494L53.1826 38.4609ZM48.2288 42.0583L52.2926 50.1782L54.0811 49.2831L50.0174 41.1632L48.2288 42.0583ZM53.6344 50.6249L58.1415 48.3692L57.2464 46.5807L52.7393 48.8364L53.6344 50.6249Z" fill="#1E4364"/>
<path d="M96.4393 43.1868L85.2199 46.2875L84.8052 52.2951L80.2172 53.563L82.4013 24.0758L87.4905 22.6693L104.507 46.8502L99.8801 48.1289L96.4393 43.1868ZM94.2146 39.9422L86.4163 28.6931L85.4627 42.361L94.2146 39.9422Z" fill="#1E4364"/>
<path d="M96.4393 43.1868L97.26 42.6155L96.8554 42.0344L96.1729 42.223L96.4393 43.1868ZM85.2199 46.2875L84.9535 45.3237L84.271 45.5123L84.2223 46.2187L85.2199 46.2875ZM84.8052 52.2951L85.0716 53.2589L85.7541 53.0703L85.8028 52.3639L84.8052 52.2951ZM80.2172 53.563L79.2199 53.4892L79.115 54.9051L80.4836 54.5269L80.2172 53.563ZM82.4013 24.0758L82.1349 23.1119L81.456 23.2995L81.404 24.0019L82.4013 24.0758ZM87.4905 22.6693L88.3083 22.0938L87.903 21.5178L87.2241 21.7054L87.4905 22.6693ZM104.507 46.8502L104.773 47.8141L106.142 47.4359L105.324 46.2747L104.507 46.8502ZM99.8801 48.1289L99.0594 48.7002L99.464 49.2813L100.146 49.0927L99.8801 48.1289ZM94.2146 39.9422L94.481 40.9061L95.8394 40.5307L95.0365 39.3725L94.2146 39.9422ZM86.4163 28.6931L87.2381 28.1234L85.6168 25.7846L85.4187 28.6235L86.4163 28.6931ZM85.4627 42.361L84.4651 42.2914L84.3668 43.7013L85.7291 43.3248L85.4627 42.361ZM96.1729 42.223L84.9535 45.3237L85.4863 47.2514L96.7057 44.1507L96.1729 42.223ZM84.2223 46.2187L83.8076 52.2262L85.8028 52.3639L86.2175 46.3564L84.2223 46.2187ZM84.5388 51.3312L79.9508 52.5992L80.4836 54.5269L85.0716 53.2589L84.5388 51.3312ZM81.2145 53.6369L83.3985 24.1497L81.404 24.0019L79.2199 53.4892L81.2145 53.6369ZM82.6676 25.0397L87.7569 23.6332L87.2241 21.7054L82.1349 23.1119L82.6676 25.0397ZM86.6727 23.2448L103.689 47.4257L105.324 46.2747L88.3083 22.0938L86.6727 23.2448ZM104.24 45.8864L99.6137 47.165L100.146 49.0927L104.773 47.8141L104.24 45.8864ZM100.701 47.5575L97.26 42.6155L95.6186 43.7582L99.0594 48.7002L100.701 47.5575ZM95.0365 39.3725L87.2381 28.1234L85.5945 29.2628L93.3928 40.512L95.0365 39.3725ZM85.4187 28.6235L84.4651 42.2914L86.4603 42.4306L87.4139 28.7627L85.4187 28.6235ZM85.7291 43.3248L94.481 40.9061L93.9482 38.9784L85.1963 41.3971L85.7291 43.3248Z" fill="#1E4364"/>
<path d="M120.902 17.1786C123.857 17.0024 126.473 17.4207 128.751 18.4336C131.053 19.4182 132.867 20.9396 134.192 22.9977C135.542 25.0276 136.301 27.4534 136.469 30.2751C136.638 33.0967 136.171 35.5822 135.071 37.7315C133.997 39.8793 132.375 41.5789 130.206 42.8302C128.061 44.0534 125.512 44.7531 122.557 44.9293L113.493 45.4699L111.838 17.7192L120.902 17.1786ZM122.336 41.2159C125.583 41.0222 128.02 39.9953 129.645 38.1353C131.271 36.2752 131.988 33.748 131.798 30.5537C131.605 27.3327 130.59 24.8688 128.752 23.1619C126.914 21.455 124.371 20.6983 121.123 20.892L116.611 21.1611L117.824 41.485L122.336 41.2159Z" fill="#1E4364"/>
<path d="M128.751 18.4336L128.344 19.3473L128.351 19.3502L128.357 19.3531L128.751 18.4336ZM134.192 22.9977L133.351 23.539L133.355 23.5453L133.359 23.5515L134.192 22.9977ZM135.071 37.7315L134.181 37.2757L134.176 37.2843L135.071 37.7315ZM130.206 42.8302L130.701 43.6989L130.705 43.6965L130.206 42.8302ZM113.493 45.4699L112.495 45.5294L112.554 46.5277L113.553 46.4681L113.493 45.4699ZM111.838 17.7192L111.779 16.721L110.78 16.7805L110.84 17.7788L111.838 17.7192ZM129.645 38.1353L128.892 37.4773L129.645 38.1353ZM116.611 21.1611L116.552 20.1629L115.554 20.2224L115.613 21.2207L116.611 21.1611ZM117.824 41.485L116.825 41.5446L116.885 42.5428L117.883 42.4832L117.824 41.485ZM120.961 18.1769C123.786 18.0084 126.238 18.4106 128.344 19.3473L129.157 17.5199C126.708 16.4308 123.927 15.9964 120.842 16.1804L120.961 18.1769ZM128.357 19.3531C130.481 20.2611 132.137 21.6529 133.351 23.539L135.033 22.4564C133.597 20.2263 131.626 18.5754 129.144 17.5141L128.357 19.3531ZM133.359 23.5515C134.597 25.4121 135.312 27.6609 135.471 30.3346L137.468 30.2155C137.29 27.2459 136.487 24.6432 135.025 22.444L133.359 23.5515ZM135.471 30.3346C135.631 33.0086 135.187 35.3108 134.181 37.2757L135.961 38.1873C137.156 35.8536 137.645 33.1848 137.468 30.2155L135.471 30.3346ZM134.176 37.2843C133.194 39.2489 131.713 40.8062 129.706 41.964L130.705 43.6965C133.037 42.3516 134.8 40.5097 135.965 38.1788L134.176 37.2843ZM129.71 41.9616C127.723 43.095 125.329 43.7622 122.498 43.9311L122.617 45.9275C125.694 45.744 128.399 45.0118 130.701 43.6989L129.71 41.9616ZM122.498 43.9311L113.434 44.4717L113.553 46.4681L122.617 45.9275L122.498 43.9311ZM114.491 45.4104L112.836 17.6597L110.84 17.7788L112.495 45.5294L114.491 45.4104ZM111.898 18.7174L120.961 18.1769L120.842 16.1804L111.779 16.721L111.898 18.7174ZM122.395 42.2141C125.822 42.0098 128.546 40.9131 130.398 38.7933L128.892 37.4773C127.494 39.0776 125.344 40.0347 122.276 40.2177L122.395 42.2141ZM130.398 38.7933C132.243 36.682 132.997 33.87 132.796 30.4941L130.799 30.6132C130.979 33.6261 130.298 35.8684 128.892 37.4773L130.398 38.7933ZM132.796 30.4941C132.593 27.0927 131.509 24.3571 129.433 22.4291L128.072 23.8947C129.672 25.3805 130.618 27.5728 130.799 30.6132L132.796 30.4941ZM129.433 22.4291C127.339 20.4855 124.499 19.6889 121.064 19.8938L121.183 21.8903C124.243 21.7078 126.488 22.4245 128.072 23.8947L129.433 22.4291ZM121.064 19.8938L116.552 20.1629L116.671 22.1594L121.183 21.8903L121.064 19.8938ZM115.613 21.2207L116.825 41.5446L118.822 41.4255L117.61 21.1016L115.613 21.2207ZM117.883 42.4832L122.395 42.2141L122.276 40.2177L117.764 40.4868L117.883 42.4832Z" fill="#1E4364"/>
<path d="M161.374 46.7787L156.639 34.8544L153.195 34.3542L151.597 45.3587L147.084 44.7034L151.08 17.192L160.58 18.5717C162.691 18.8784 164.419 19.5065 165.763 20.4562C167.134 21.4098 168.085 22.5584 168.618 23.9023C169.176 25.2499 169.345 26.689 169.122 28.2196C168.862 30.0141 168.096 31.5736 166.826 32.8982C165.586 34.2001 163.846 34.9579 161.605 35.1714L166.758 47.5606L161.374 46.7787ZM153.718 30.752L158.706 31.4764C160.395 31.7217 161.723 31.4834 162.69 30.7616C163.684 30.0436 164.284 28.972 164.491 27.547C164.698 26.1219 164.437 24.9522 163.707 24.0379C162.981 23.0972 161.761 22.5022 160.046 22.2531L155.058 21.5287L153.718 30.752Z" fill="#1E4364"/>
<path d="M161.374 46.7787L160.445 47.1478L160.659 47.6853L161.231 47.7684L161.374 46.7787ZM156.639 34.8544L157.569 34.4853L157.355 33.9478L156.783 33.8647L156.639 34.8544ZM153.195 34.3542L153.339 33.3646L152.349 33.2209L152.206 34.2105L153.195 34.3542ZM151.597 45.3587L151.453 46.3484L152.443 46.4921L152.587 45.5025L151.597 45.3587ZM147.084 44.7034L146.095 44.5596L145.951 45.5493L146.941 45.693L147.084 44.7034ZM151.08 17.192L151.224 16.2024L150.234 16.0586L150.09 17.0483L151.08 17.192ZM165.763 20.4562L165.186 21.273L165.192 21.2771L165.763 20.4562ZM168.618 23.9023L167.688 24.2706L167.691 24.2779L167.694 24.2853L168.618 23.9023ZM166.826 32.8982L166.104 32.206L166.102 32.2085L166.826 32.8982ZM161.605 35.1714L161.51 34.1759L160.162 34.3044L160.682 35.5554L161.605 35.1714ZM166.758 47.5606L166.614 48.5502L168.358 48.8035L167.681 47.1766L166.758 47.5606ZM153.718 30.752L152.729 30.6083L152.585 31.5979L153.575 31.7416L153.718 30.752ZM162.69 30.7616L162.104 29.9511L162.098 29.9556L162.092 29.9602L162.69 30.7616ZM163.707 24.0379L162.915 24.6487L162.92 24.6552L162.925 24.6616L163.707 24.0379ZM155.058 21.5287L155.202 20.5391L154.212 20.3954L154.068 21.385L155.058 21.5287ZM162.304 46.4097L157.569 34.4853L155.71 35.2234L160.445 47.1478L162.304 46.4097ZM156.783 33.8647L153.339 33.3646L153.052 35.3438L156.495 35.844L156.783 33.8647ZM152.206 34.2105L150.607 45.215L152.587 45.5025L154.185 34.4979L152.206 34.2105ZM151.741 44.3691L147.228 43.7137L146.941 45.693L151.453 46.3484L151.741 44.3691ZM148.074 44.8471L152.07 17.3357L150.09 17.0483L146.095 44.5596L148.074 44.8471ZM150.936 18.1816L160.437 19.5614L160.724 17.5821L151.224 16.2024L150.936 18.1816ZM160.437 19.5614C162.436 19.8518 164.003 20.4371 165.186 21.2729L166.34 19.6395C164.835 18.5759 162.947 17.9049 160.724 17.5821L160.437 19.5614ZM165.192 21.2771C166.427 22.1362 167.239 23.1367 167.688 24.2706L169.547 23.5339C168.932 21.9802 167.841 20.6833 166.334 19.6354L165.192 21.2771ZM167.694 24.2853C168.179 25.4563 168.331 26.7124 168.133 28.0759L170.112 28.3633C170.359 26.6656 170.173 25.0434 169.541 23.5192L167.694 24.2853ZM168.133 28.0759C167.902 29.6615 167.232 31.03 166.104 32.206L167.548 33.5903C168.96 32.1173 169.821 30.3668 170.112 28.3633L168.133 28.0759ZM166.102 32.2085C165.067 33.2955 163.574 33.9793 161.51 34.1759L161.7 36.1669C164.118 35.9365 166.105 35.1048 167.55 33.5878L166.102 32.2085ZM160.682 35.5554L165.835 47.9446L167.681 47.1766L162.528 34.7874L160.682 35.5554ZM166.902 46.571L161.518 45.7891L161.231 47.7684L166.614 48.5502L166.902 46.571ZM153.575 31.7416L158.562 32.466L158.85 30.4867L153.862 29.7624L153.575 31.7416ZM158.562 32.466C160.404 32.7334 162.034 32.4994 163.288 31.5629L162.092 29.9602C161.412 30.4674 160.386 30.7099 158.85 30.4867L158.562 32.466ZM163.276 31.5721C164.527 30.6679 165.242 29.3328 165.481 27.6907L163.501 27.4033C163.326 28.6112 162.84 29.4192 162.104 29.9511L163.276 31.5721ZM165.481 27.6907C165.717 26.0599 165.429 24.5929 164.489 23.4142L162.925 24.6616C163.444 25.3116 163.678 26.1839 163.501 27.4033L165.481 27.6907ZM164.499 23.4271C163.555 22.2029 162.044 21.5329 160.189 21.2635L159.902 23.2427C161.478 23.4716 162.408 23.9914 162.915 24.6487L164.499 23.4271ZM160.189 21.2635L155.202 20.5391L154.914 22.5184L159.902 23.2427L160.189 21.2635ZM154.068 21.385L152.729 30.6083L154.708 30.8957L156.048 21.6725L154.068 21.385Z" fill="#1E4364"/>
<path d="M189.582 25.1187L181.59 51.7452L177.223 50.4344L185.214 23.8078L189.582 25.1187Z" fill="#1E4364"/>
<path d="M189.582 25.1187L190.54 25.4061L190.827 24.4483L189.869 24.1609L189.582 25.1187ZM181.59 51.7452L181.303 52.703L182.261 52.9905L182.548 52.0327L181.59 51.7452ZM177.223 50.4344L176.265 50.1469L175.977 51.1047L176.935 51.3921L177.223 50.4344ZM185.214 23.8078L185.502 22.85L184.544 22.5625L184.257 23.5203L185.214 23.8078ZM188.624 24.8312L180.632 51.4577L182.548 52.0327L190.54 25.4061L188.624 24.8312ZM181.878 50.7874L177.51 49.4766L176.935 51.3921L181.303 52.703L181.878 50.7874ZM178.181 50.7218L186.172 24.0953L184.257 23.5203L176.265 50.1469L178.181 50.7218ZM184.927 24.7656L189.294 26.0765L189.869 24.1609L185.502 22.85L184.927 24.7656Z" fill="#1E4364"/>
<path d="M212.828 64.9856L208.719 63.0089L205.354 38.3534L196.355 57.0616L192.246 55.0849L204.314 29.9965L208.423 31.9732L211.805 56.5927L220.787 37.9205L224.896 39.8972L212.828 64.9856Z" fill="#1E4364"/>
<path d="M212.828 64.9856L212.395 65.8868L213.296 66.3202L213.729 65.4191L212.828 64.9856ZM208.719 63.0089L207.728 63.1442L207.801 63.677L208.285 63.9101L208.719 63.0089ZM205.354 38.3534L206.345 38.2182L205.895 34.9219L204.453 37.92L205.354 38.3534ZM196.355 57.0616L195.921 57.9628L196.823 58.3962L197.256 57.4951L196.355 57.0616ZM192.246 55.0849L191.344 54.6515L190.911 55.5526L191.812 55.9861L192.246 55.0849ZM204.314 29.9965L204.747 29.0954L203.846 28.6619L203.413 29.5631L204.314 29.9965ZM208.423 31.9732L209.414 31.8371L209.341 31.3049L208.856 31.072L208.423 31.9732ZM211.805 56.5927L210.815 56.7288L211.267 60.0193L212.706 57.0261L211.805 56.5927ZM220.787 37.9205L221.22 37.0194L220.319 36.5859L219.886 37.4871L220.787 37.9205ZM224.896 39.8972L225.797 40.3307L226.231 39.4295L225.33 38.996L224.896 39.8972ZM213.262 64.0844L209.152 62.1078L208.285 63.9101L212.395 65.8868L213.262 64.0844ZM209.71 62.8737L206.345 38.2182L204.363 38.4887L207.728 63.1442L209.71 62.8737ZM204.453 37.92L195.454 56.6281L197.256 57.4951L206.255 38.7869L204.453 37.92ZM196.788 56.1604L192.679 54.1838L191.812 55.9861L195.921 57.9628L196.788 56.1604ZM193.147 55.5184L205.215 30.43L203.413 29.5631L191.344 54.6515L193.147 55.5184ZM203.88 30.8977L207.99 32.8744L208.856 31.072L204.747 29.0954L203.88 30.8977ZM207.432 32.1093L210.815 56.7288L212.796 56.4565L209.414 31.8371L207.432 32.1093ZM212.706 57.0261L221.688 38.354L219.886 37.4871L210.904 56.1592L212.706 57.0261ZM220.353 38.8217L224.463 40.7984L225.33 38.996L221.22 37.0194L220.353 38.8217ZM223.995 39.4637L211.927 64.5521L213.729 65.4191L225.797 40.3307L223.995 39.4637Z" fill="#1E4364"/>
<path d="M238.732 76.4553L229.525 69.3332L224.467 72.6021L220.702 69.6897L245.615 53.7634L249.791 56.9941L240.635 85.1087L236.838 82.1717L238.732 76.4553ZM239.995 72.7297L244.325 59.7449L232.813 67.174L239.995 72.7297Z" fill="#1E4364"/>
<path d="M238.732 76.4553L239.681 76.7697L239.904 76.0976L239.343 75.6643L238.732 76.4553ZM229.525 69.3332L230.137 68.5422L229.577 68.109L228.982 68.4934L229.525 69.3332ZM224.467 72.6021L223.856 73.3931L224.416 73.8263L225.01 73.442L224.467 72.6021ZM220.702 69.6897L220.164 68.8471L218.968 69.6119L220.091 70.4806L220.702 69.6897ZM245.615 53.7634L246.227 52.9725L245.67 52.5415L245.076 52.9209L245.615 53.7634ZM249.791 56.9941L250.742 57.3038L250.96 56.6341L250.403 56.2031L249.791 56.9941ZM240.635 85.1087L240.023 85.8996L241.146 86.7684L241.586 85.4183L240.635 85.1087ZM236.838 82.1717L235.889 81.8573L235.666 82.5294L236.226 82.9627L236.838 82.1717ZM239.995 72.7297L239.383 73.5207L240.498 74.383L240.944 73.0461L239.995 72.7297ZM244.325 59.7449L245.274 60.0612L246.174 57.3616L243.783 58.9046L244.325 59.7449ZM232.813 67.174L232.271 66.3338L231.084 67.1002L232.201 67.965L232.813 67.174ZM239.343 75.6643L230.137 68.5422L228.913 70.1242L238.12 77.2463L239.343 75.6643ZM228.982 68.4934L223.925 71.7623L225.01 73.442L230.068 70.173L228.982 68.4934ZM225.079 71.8112L221.314 68.8987L220.091 70.4806L223.856 73.3931L225.079 71.8112ZM221.241 70.5322L246.153 54.606L245.076 52.9209L220.164 68.8471L221.241 70.5322ZM245.003 54.5544L249.179 57.785L250.403 56.2031L246.227 52.9725L245.003 54.5544ZM248.84 56.6844L239.684 84.799L241.586 85.4183L250.742 57.3038L248.84 56.6844ZM241.247 84.3177L237.45 81.3807L236.226 82.9627L240.023 85.8996L241.247 84.3177ZM237.787 82.4861L239.681 76.7697L237.782 76.1409L235.889 81.8573L237.787 82.4861ZM240.944 73.0461L245.274 60.0612L243.377 59.4285L239.047 72.4134L240.944 73.0461ZM243.783 58.9046L232.271 66.3338L233.356 68.0142L244.868 60.5851L243.783 58.9046ZM232.201 67.965L239.383 73.5207L240.607 71.9388L233.425 66.383L232.201 67.965Z" fill="#1E4364"/>
</svg>
