<svg width="232" height="97" viewBox="0 0 232 97" fill="none" xmlns="http://www.w3.org/2000/svg">
<path d="M44.1253 24.4819L29.7073 38.4003C27.923 40.1227 25.985 40.9372 23.8933 40.8437C21.8201 40.7694 19.9315 39.8498 18.2276 38.0847C16.5237 36.3196 15.6619 34.3902 15.6423 32.2965C15.6411 30.222 16.5327 28.3235 18.317 26.6011L21.5118 29.9106C20.6478 30.7817 20.1605 31.6784 20.0499 32.6005C19.9579 33.5419 20.3193 34.4346 21.1343 35.2788C21.9492 36.123 22.8286 36.5156 23.7726 36.4569C24.7358 36.3795 25.6491 35.9242 26.5124 35.0907L40.9305 21.1724L44.1253 24.4819Z" fill="#1E4364"/>
<path d="M44.1253 24.4819L44.8198 25.2014L45.5393 24.5068L44.8448 23.7874L44.1253 24.4819ZM23.8933 40.8437L23.9379 39.8447L23.9291 39.8444L23.8933 40.8437ZM15.6423 32.2965L14.6422 32.297L14.6423 32.3059L15.6423 32.2965ZM18.317 26.6011L19.0364 25.9065L18.3419 25.1871L17.6224 25.8816L18.317 26.6011ZM21.5118 29.9106L22.2218 30.6148L22.9109 29.9201L22.2313 29.2161L21.5118 29.9106ZM20.0499 32.6005L19.057 32.4815L19.0557 32.4923L19.0547 32.5032L20.0499 32.6005ZM23.7726 36.4569L23.8348 37.4549L23.8437 37.4544L23.8526 37.4536L23.7726 36.4569ZM40.9305 21.1724L41.6499 20.4778L40.9554 19.7584L40.2359 20.4529L40.9305 21.1724ZM43.4308 23.7624L29.0127 37.6808L30.4018 39.1197L44.8198 25.2014L43.4308 23.7624ZM29.0127 37.6808C27.3865 39.2507 25.7049 39.9237 23.9379 39.8447L23.8486 41.8427C26.2651 41.9507 28.4595 40.9947 30.4018 39.1197L29.0127 37.6808ZM23.9291 39.8444C22.1611 39.781 20.5063 39.0053 18.9471 37.3901L17.5082 38.7792C19.3568 40.6942 21.4791 41.7579 23.8575 41.8431L23.9291 39.8444ZM18.9471 37.3901C17.3882 35.7753 16.6591 34.0815 16.6422 32.2871L14.6423 32.3059C14.6648 34.6989 15.6592 36.8638 17.5082 38.7792L18.9471 37.3901ZM16.6423 32.2959C16.6413 30.5453 17.3814 28.8941 19.0115 27.3205L17.6224 25.8816C15.684 27.7529 14.6409 29.8987 14.6423 32.297L16.6423 32.2959ZM17.5975 27.2956L20.7923 30.6051L22.2313 29.2161L19.0364 25.9065L17.5975 27.2956ZM20.8018 29.2064C19.8314 30.1848 19.2015 31.2764 19.057 32.4815L21.0428 32.7196C21.1195 32.0804 21.4642 31.3786 22.2218 30.6148L20.8018 29.2064ZM19.0547 32.5032C18.9274 33.8046 19.4496 34.9735 20.4148 35.9733L21.8537 34.5843C21.1891 33.8958 20.9884 33.2791 21.0452 32.6978L19.0547 32.5032ZM20.4148 35.9733C21.38 36.9732 22.5297 37.5362 23.8348 37.4549L23.7105 35.4588C23.1276 35.4951 22.5184 35.2728 21.8537 34.5843L20.4148 35.9733ZM23.8526 37.4536C25.0981 37.3537 26.2185 36.7644 27.2069 35.8102L25.8179 34.3713C25.0796 35.0839 24.3735 35.4054 23.6926 35.4601L23.8526 37.4536ZM27.2069 35.8102L41.625 21.8918L40.2359 20.4529L25.8179 34.3713L27.2069 35.8102ZM40.211 21.8669L43.4059 25.1764L44.8448 23.7874L41.6499 20.4778L40.211 21.8669Z" fill="#1E4364"/>
<path d="M52.9722 31.7204L43.3805 46.62C42.2402 48.3914 41.841 50.0214 42.183 51.5101C42.5473 53.0132 43.5591 54.2989 45.2184 55.367C46.9001 56.4496 48.4892 56.8383 49.9859 56.5333C51.505 56.2426 52.8347 55.2116 53.9751 53.4402L63.5667 38.5406L67.4009 41.0089L57.8526 55.8412C56.6257 57.7471 55.1716 59.0945 53.4903 59.8834C51.8091 60.6722 50.064 60.9443 48.2553 60.6996C46.4465 60.4549 44.7013 59.7913 43.0196 58.7087C41.3379 57.6261 40.0113 56.3122 39.0397 54.7671C38.0905 53.2363 37.6382 51.5497 37.6826 49.7071C37.727 47.8646 38.3627 45.9903 39.5896 44.0844L49.138 29.2521L52.9722 31.7204Z" fill="#1E4364"/>
<path d="M52.9722 31.7204L53.813 32.2617L54.3543 31.4208L53.5135 30.8795L52.9722 31.7204ZM42.183 51.5101L41.2083 51.734L41.2111 51.7457L42.183 51.5101ZM49.9859 56.5333L49.798 55.551L49.7862 55.5534L49.9859 56.5333ZM63.5667 38.5406L64.108 37.6998L63.2672 37.1585L62.7259 37.9993L63.5667 38.5406ZM67.4009 41.0089L68.2418 41.5502L68.7831 40.7093L67.9422 40.1681L67.4009 41.0089ZM53.4903 59.8834L53.9151 60.7887L53.4903 59.8834ZM48.2553 60.6996L48.3893 59.7086L48.2553 60.6996ZM39.0397 54.7671L38.1898 55.2941L38.1931 55.2994L39.0397 54.7671ZM37.6826 49.7071L36.6829 49.683L37.6826 49.7071ZM49.138 29.2521L49.6792 28.4112L48.8384 27.87L48.2971 28.7108L49.138 29.2521ZM52.1313 31.1791L42.5397 46.0787L44.2214 47.1613L53.813 32.2617L52.1313 31.1791ZM42.5397 46.0787C41.3102 47.9886 40.7861 49.8956 41.2083 51.7339L43.1576 51.2862C42.896 50.1472 43.1703 48.7941 44.2214 47.1613L42.5397 46.0787ZM41.2111 51.7457C41.6513 53.5618 42.8639 55.0406 44.6771 56.2078L45.7597 54.5262C44.2543 53.5571 43.4433 52.4646 43.1548 51.2745L41.2111 51.7457ZM44.6771 56.2078C46.5079 57.3864 48.3616 57.8849 50.1857 57.5131L49.7862 55.5534C48.6168 55.7918 47.2922 55.5128 45.7597 54.5262L44.6771 56.2078ZM50.1738 57.5154C52.048 57.1569 53.5829 55.8969 54.8159 53.9815L53.1342 52.8989C52.0866 54.5263 50.9621 55.3283 49.798 55.5511L50.1738 57.5154ZM54.8159 53.9815L64.4076 39.0819L62.7259 37.9993L53.1342 52.8989L54.8159 53.9815ZM63.0254 39.3814L66.8596 41.8497L67.9422 40.1681L64.108 37.6998L63.0254 39.3814ZM66.5601 40.4676L57.0117 55.3L58.6934 56.3825L68.2418 41.5502L66.5601 40.4676ZM57.0117 55.3C55.864 57.0828 54.5426 58.285 53.0656 58.9781L53.9151 60.7887C55.8006 59.904 57.3873 58.4115 58.6934 56.3825L57.0117 55.3ZM53.0656 58.9781C51.5552 59.6867 50.004 59.927 48.3893 59.7086L48.1212 61.6906C50.1241 61.9615 52.0629 61.6577 53.9151 60.7887L53.0656 58.9781ZM48.3893 59.7086C46.7391 59.4854 45.1314 58.8789 43.5609 57.8679L42.4783 59.5495C44.2712 60.7037 46.1539 61.4244 48.1212 61.6906L48.3893 59.7086ZM43.5609 57.8679C41.9904 56.8569 40.7727 55.6445 39.8863 54.2348L38.1931 55.2994C39.2499 56.98 40.6854 58.3954 42.4783 59.5495L43.5609 57.8679ZM39.8896 54.2401C39.0454 52.8786 38.6424 51.3842 38.6823 49.7312L36.6829 49.683C36.6339 51.7151 37.1357 53.594 38.1898 55.294L39.8896 54.2401ZM38.6823 49.7312C38.7214 48.1104 39.2802 46.4126 40.4305 44.6257L38.7488 43.5432C37.4452 45.5681 36.7327 47.6187 36.6829 49.683L38.6823 49.7312ZM40.4305 44.6257L49.9788 29.7934L48.2971 28.7108L38.7488 43.5432L40.4305 44.6257ZM48.5967 30.0929L52.4309 32.5612L53.5135 30.8795L49.6792 28.4112L48.5967 30.0929Z" fill="#1E4364"/>
<path d="M88.2579 56.9955C87.9962 55.4551 87.3619 54.1593 86.3551 53.1079C85.3564 52.0311 84.0572 51.236 82.4576 50.7225C80.7056 50.1602 79.0178 50.0525 77.394 50.3995C75.7703 50.7465 74.3326 51.5173 73.0809 52.7119C71.8546 53.9146 70.9358 55.4682 70.3246 57.3725C69.7133 59.2768 69.5522 61.0875 69.8412 62.8047C70.1637 64.5046 70.8842 65.9682 72.0026 67.1954C73.1211 68.4226 74.5563 69.3174 76.3082 69.8798C78.6695 70.6378 80.7984 70.5929 82.6949 69.7453C84.5914 68.8977 86.0673 67.397 87.1228 65.2432L77.1824 62.0524L78.2949 58.5866L92.8818 63.2689L91.7937 66.6586C90.8543 68.6256 89.5107 70.2808 87.7632 71.6243C86.041 72.9759 84.0606 73.8666 81.8222 74.2964C79.6173 74.7089 77.3595 74.5443 75.049 73.8026C72.5607 73.0039 70.4716 71.7032 68.7817 69.9004C67.1 68.0723 65.9799 65.9343 65.4213 63.4864C64.8881 61.0467 65.0372 58.5319 65.8685 55.9421C66.6998 53.3522 68.0423 51.2205 69.8958 49.547C71.7747 47.8815 73.9259 46.8076 76.3493 46.3252C78.8062 45.8256 81.2662 45.971 83.729 46.7616C86.5474 47.6663 88.8242 49.1673 90.5596 51.2647C92.3284 53.3449 93.3005 55.8135 93.4757 58.6704L88.2579 56.9955Z" fill="#1E4364"/>
<path d="M88.2579 56.9955L87.272 57.163L87.3738 57.762L87.9523 57.9476L88.2579 56.9955ZM86.3551 53.1079L85.6219 53.7879L85.6273 53.7938L85.6328 53.7995L86.3551 53.1079ZM77.394 50.3995L77.603 51.3774L77.603 51.3774L77.394 50.3995ZM73.0809 52.7119L72.3904 51.9884L72.3807 51.998L73.0809 52.7119ZM69.8412 62.8047L68.855 62.9706L68.8568 62.9809L68.8587 62.9911L69.8412 62.8047ZM72.0026 67.1954L72.7417 66.5218L72.0026 67.1954ZM82.6949 69.7453L83.1029 70.6583L82.6949 69.7453ZM87.1228 65.2432L88.0208 65.6833L88.5298 64.6446L87.4284 64.2911L87.1228 65.2432ZM77.1824 62.0524L76.2302 61.7468L75.9246 62.6989L76.8767 63.0045L77.1824 62.0524ZM78.2949 58.5866L78.6005 57.6344L77.6484 57.3288L77.3427 58.2809L78.2949 58.5866ZM92.8818 63.2689L93.8339 63.5746L94.1396 62.6224L93.1874 62.3168L92.8818 63.2689ZM91.7937 66.6586L92.6961 67.0895L92.7252 67.0286L92.7459 66.9642L91.7937 66.6586ZM87.7632 71.6243L87.1536 70.8315L87.1458 70.8376L87.7632 71.6243ZM81.8222 74.2964L82.0061 75.2793L82.0107 75.2785L81.8222 74.2964ZM68.7817 69.9004L68.0458 70.5775L68.0522 70.5843L68.7817 69.9004ZM65.4213 63.4864L64.4443 63.6999L64.4464 63.7089L65.4213 63.4864ZM69.8958 49.547L69.2325 48.7986L69.2256 48.8047L69.8958 49.547ZM76.3493 46.3252L76.5445 47.306L76.5486 47.3051L76.3493 46.3252ZM90.5596 51.2647L89.789 51.9023L89.7978 51.9125L90.5596 51.2647ZM93.4757 58.6704L93.1701 59.6225L94.5634 60.0698L94.4738 58.6092L93.4757 58.6704ZM89.2438 56.828C88.9511 55.1057 88.2327 53.6228 87.0773 52.4162L85.6328 53.7995C86.4911 54.6957 87.0412 55.8046 87.272 57.163L89.2438 56.828ZM87.0882 52.4279C85.9568 51.208 84.5025 50.3287 82.7632 49.7704L82.152 51.6747C83.6119 52.1433 84.7559 52.8542 85.6219 53.7879L87.0882 52.4279ZM82.7632 49.7704C80.8634 49.1605 78.9976 49.0342 77.1851 49.4216L77.603 51.3774C79.0379 51.0708 80.5479 51.1598 82.152 51.6747L82.7632 49.7704ZM77.1851 49.4216C75.3726 49.8089 73.7701 50.6718 72.3905 51.9885L73.7713 53.4353C74.8951 52.3628 76.168 51.6841 77.603 51.3774L77.1851 49.4216ZM72.3807 51.998C71.0208 53.3317 70.0251 55.0335 69.3724 57.0668L71.2767 57.6781C71.8466 55.9029 72.6884 54.4976 73.7811 53.4258L72.3807 51.998ZM69.3724 57.0668C68.7196 59.1006 68.5358 61.0738 68.855 62.9706L70.8273 62.6387C70.5685 61.1012 70.707 59.4529 71.2767 57.6781L69.3724 57.0668ZM68.8587 62.9911C69.2142 64.8648 70.0151 66.4991 71.2635 67.869L72.7417 66.5218C71.7533 65.4372 71.1132 64.1444 70.8236 62.6182L68.8587 62.9911ZM71.2635 67.869C72.512 69.2389 74.1027 70.2221 76.0026 70.8319L76.6138 68.9276C75.0098 68.4127 73.7301 67.6063 72.7417 66.5218L71.2635 67.869ZM76.0026 70.8319C78.5505 71.6498 80.9394 71.6253 83.1029 70.6583L82.2869 68.8324C80.6574 69.5606 78.7885 69.6257 76.6138 68.9276L76.0026 70.8319ZM83.1029 70.6583C85.2455 69.7008 86.8792 68.0129 88.0208 65.6833L86.2248 64.8032C85.2555 66.7812 83.9373 68.0947 82.2869 68.8324L83.1029 70.6583ZM87.4284 64.2911L77.488 61.1002L76.8767 63.0045L86.8172 66.1954L87.4284 64.2911ZM78.1345 62.358L79.247 58.8922L77.3427 58.2809L76.2302 61.7468L78.1345 62.358ZM77.9892 59.5387L92.5762 64.2211L93.1874 62.3168L78.6005 57.6344L77.9892 59.5387ZM91.9296 62.9633L90.8416 66.3529L92.7459 66.9642L93.8339 63.5746L91.9296 62.9633ZM90.8914 66.2276C90.0205 68.051 88.778 69.5828 87.1537 70.8315L88.3726 72.4171C90.2435 70.9788 91.688 69.2001 92.6961 67.0895L90.8914 66.2276ZM87.1458 70.8376C85.5541 72.0868 83.7223 72.9133 81.6336 73.3143L82.0107 75.2785C84.399 74.8199 86.5278 73.8651 88.3806 72.4109L87.1458 70.8376ZM81.6383 73.3134C79.6098 73.6929 77.5204 73.5457 75.3546 72.8505L74.7434 74.7548C77.1987 75.5429 79.6248 75.7248 82.0061 75.2793L81.6383 73.3134ZM75.3546 72.8505C73.0185 72.1006 71.0782 70.8881 69.5113 69.2165L68.0522 70.5843C69.865 72.5182 72.1029 73.9072 74.7434 74.7548L75.3546 72.8505ZM69.5177 69.2234C67.9552 67.5248 66.9165 65.544 66.3962 63.2639L64.4464 63.7089C65.0432 66.3246 66.2449 68.6197 68.0458 70.5774L69.5177 69.2234ZM66.3982 63.2729C65.906 61.0206 66.0383 58.6852 66.8207 56.2477L64.9164 55.6365C64.0361 58.3787 63.8702 61.0728 64.4444 63.6999L66.3982 63.2729ZM66.8207 56.2477C67.6031 53.8103 68.8548 51.8342 70.566 50.2892L69.2256 48.8047C67.2298 50.6068 65.7966 52.8942 64.9164 55.6365L66.8207 56.2477ZM70.5591 50.2953C72.3076 48.7455 74.2979 47.7532 76.5445 47.306L76.1541 45.3445C73.5539 45.862 71.2418 47.0176 69.2325 48.7986L70.5591 50.2953ZM76.5486 47.3051C78.8321 46.8408 81.1183 46.9738 83.4234 47.7138L84.0347 45.8095C81.414 44.9682 78.7803 44.8104 76.15 45.3453L76.5486 47.3051ZM83.4234 47.7138C86.0765 48.5654 88.1861 49.9647 89.7891 51.9022L91.3301 50.6273C89.4624 48.3699 87.0183 46.7672 84.0347 45.8095L83.4234 47.7138ZM89.7978 51.9125C91.4194 53.8196 92.3149 56.0795 92.4776 58.7316L94.4738 58.6092C94.286 55.5474 93.2375 52.8702 91.3214 50.6169L89.7978 51.9125ZM93.7813 57.7182L88.5635 56.0433L87.9523 57.9476L93.1701 59.6225L93.7813 57.7182Z" fill="#1E4364"/>
<path d="M104.208 51.6833L103.335 69.3818C103.232 71.486 103.7 73.0976 104.739 74.2168C105.805 75.3373 107.324 75.9461 109.295 76.0433C111.292 76.1417 112.863 75.6851 114.008 74.6736C115.179 73.6633 115.816 72.1062 115.92 70.0021L116.792 52.3035L121.347 52.528L120.479 70.1466C120.367 72.4105 119.78 74.3039 118.717 75.8268C117.654 77.3496 116.278 78.4566 114.588 79.1476C112.899 79.8386 111.055 80.1349 109.058 80.0364C107.06 79.938 105.255 79.4619 103.642 78.6081C102.055 77.7556 100.821 76.5201 99.9396 74.9014C99.0582 73.2827 98.6733 71.3414 98.7849 69.0775L99.6531 51.4589L104.208 51.6833Z" fill="#1E4364"/>
<path d="M104.208 51.6833L105.206 51.7325L105.256 50.7338L104.257 50.6845L104.208 51.6833ZM104.739 74.2168L104.006 74.8974L104.015 74.9061L104.739 74.2168ZM114.008 74.6736L113.355 73.9163L113.346 73.9243L114.008 74.6736ZM116.792 52.3035L116.842 51.3047L115.843 51.2555L115.794 52.2543L116.792 52.3035ZM121.347 52.528L122.346 52.5772L122.395 51.5784L121.396 51.5292L121.347 52.528ZM118.717 75.8268L119.537 76.3991L118.717 75.8268ZM114.588 79.1476L114.21 78.222L114.588 79.1476ZM103.642 78.6081L103.168 79.489L103.174 79.492L103.642 78.6081ZM99.9396 74.9014L99.0614 75.3796L99.9396 74.9014ZM99.6531 51.4589L99.7024 50.4601L98.7036 50.4109L98.6544 51.4096L99.6531 51.4589ZM103.209 51.6341L102.337 69.3326L104.334 69.4311L105.206 51.7325L103.209 51.6341ZM102.337 69.3326C102.225 71.6013 102.723 73.5153 104.006 74.8973L105.472 73.5363C104.676 72.6799 104.239 71.3706 104.334 69.4311L102.337 69.3326ZM104.015 74.9061C105.303 76.26 107.092 76.9359 109.246 77.042L109.344 75.0445C107.556 74.9563 106.308 74.4146 105.464 73.5275L104.015 74.9061ZM109.246 77.042C111.42 77.1492 113.275 76.6557 114.67 75.4229L113.346 73.9243C112.451 74.7146 111.164 75.1342 109.344 75.0445L109.246 77.042ZM114.661 75.4308C116.106 74.1844 116.807 72.3265 116.919 70.0513L114.921 69.9528C114.826 71.8858 114.252 73.1423 113.355 73.9164L114.661 75.4308ZM116.919 70.0513L117.791 52.3528L115.794 52.2543L114.921 69.9528L116.919 70.0513ZM116.743 53.3023L121.298 53.5268L121.396 51.5292L116.842 51.3047L116.743 53.3023ZM120.348 52.4788L119.48 70.0974L121.477 70.1958L122.346 52.5772L120.348 52.4788ZM119.48 70.0974C119.375 72.2151 118.831 73.9165 117.897 75.2544L119.537 76.3991C120.729 74.6913 121.359 72.6059 121.477 70.1958L119.48 70.0974ZM117.897 75.2544C116.942 76.6225 115.718 77.6052 114.21 78.222L114.967 80.0732C116.838 79.308 118.366 78.0768 119.537 76.3991L117.897 75.2544ZM114.21 78.222C112.668 78.8525 110.973 79.1296 109.107 79.0377L109.009 81.0352C111.138 81.1402 113.129 80.8247 114.967 80.0732L114.21 78.222ZM109.107 79.0377C107.242 78.9457 105.581 78.5032 104.109 77.7243L103.174 79.492C104.929 80.4206 106.879 80.9303 109.009 81.0352L109.107 79.0377ZM104.115 77.7272C102.704 76.969 101.609 75.8753 100.818 74.4232L99.0614 75.3796C100.033 77.1648 101.406 78.5423 103.168 79.489L104.115 77.7272ZM100.818 74.4232C100.043 72.9993 99.679 71.2492 99.7837 69.1267L97.7861 69.0283C97.6675 71.4336 98.0739 73.5661 99.0614 75.3796L100.818 74.4232ZM99.7837 69.1267L100.652 51.5081L98.6544 51.4096L97.7861 69.0283L99.7837 69.1267ZM99.6039 52.4577L104.158 52.6821L104.257 50.6845L99.7024 50.4601L99.6039 52.4577Z" fill="#1E4364"/>
<path d="M132.06 54.657L133.475 62.6935L142.929 61.0292L143.574 64.6929L134.119 66.3571L135.597 74.7481L146.233 72.8758L146.878 76.5395L131.75 79.2023L126.924 51.7839L142.051 49.1211L142.696 52.7847L132.06 54.657Z" fill="#1E4364"/>
<path d="M132.06 54.657L131.887 53.6722L130.902 53.8455L131.075 54.8304L132.06 54.657ZM133.475 62.6935L132.49 62.8668L132.663 63.8517L133.648 63.6783L133.475 62.6935ZM142.929 61.0292L143.914 60.8558L143.741 59.871L142.756 60.0443L142.929 61.0292ZM143.574 64.6929L143.747 65.6777L144.732 65.5044L144.559 64.5195L143.574 64.6929ZM134.119 66.3571L133.946 65.3723L132.961 65.5457L133.135 66.5305L134.119 66.3571ZM135.597 74.7481L134.612 74.9215L134.785 75.9064L135.77 75.733L135.597 74.7481ZM146.233 72.8758L147.218 72.7025L147.044 71.7176L146.06 71.891L146.233 72.8758ZM146.878 76.5395L147.051 77.5244L148.036 77.351L147.863 76.3661L146.878 76.5395ZM131.75 79.2023L130.766 79.3757L130.939 80.3606L131.924 80.1872L131.75 79.2023ZM126.924 51.7839L126.751 50.799L125.766 50.9724L125.939 51.9573L126.924 51.7839ZM142.051 49.121L143.036 48.9477L142.863 47.9628L141.878 48.1362L142.051 49.121ZM142.696 52.7847L142.87 53.7696L143.855 53.5962L143.681 52.6114L142.696 52.7847ZM131.075 54.8304L132.49 62.8668L134.459 62.5201L133.045 54.4837L131.075 54.8304ZM133.648 63.6783L143.103 62.0141L142.756 60.0443L133.301 61.7086L133.648 63.6783ZM141.944 61.2026L142.589 64.8662L144.559 64.5195L143.914 60.8558L141.944 61.2026ZM143.401 63.708L133.946 65.3723L134.293 67.342L143.747 65.6777L143.401 63.708ZM133.135 66.5305L134.612 74.9215L136.581 74.5748L135.104 66.1838L133.135 66.5305ZM135.77 75.733L146.406 73.8607L146.06 71.891L135.423 73.7633L135.77 75.733ZM145.248 73.0492L145.893 76.7129L147.863 76.3661L147.218 72.7025L145.248 73.0492ZM146.705 75.5546L131.577 78.2175L131.924 80.1872L147.051 77.5244L146.705 75.5546ZM132.735 79.029L127.909 51.6105L125.939 51.9573L130.766 79.3757L132.735 79.029ZM127.097 52.7687L142.225 50.1059L141.878 48.1362L126.751 50.799L127.097 52.7687ZM141.067 49.2944L141.712 52.9581L143.681 52.6114L143.036 48.9477L141.067 49.2944ZM142.523 51.7999L131.887 53.6722L132.233 55.6419L142.87 53.7696L142.523 51.7999Z" fill="#1E4364"/>
<path d="M163.969 41.1045L165.344 44.5608L158.469 47.2972L167.374 69.6703L163.137 71.3566L154.232 48.9835L147.32 51.7348L145.944 48.2785L163.969 41.1045Z" fill="#1E4364"/>
<path d="M163.969 41.1045L164.898 40.7347L164.528 39.8055L163.599 40.1753L163.969 41.1045ZM165.344 44.5608L165.714 45.4899L166.643 45.1201L166.274 44.191L165.344 44.5608ZM158.469 47.2972L158.099 46.3681L157.17 46.7379L157.54 47.667L158.469 47.2972ZM167.374 69.6703L167.743 70.5994L168.673 70.2296L168.303 69.3005L167.374 69.6703ZM163.137 71.3566L162.208 71.7264L162.578 72.6555L163.507 72.2857L163.137 71.3566ZM154.232 48.9835L155.161 48.6137L154.792 47.6846L153.862 48.0544L154.232 48.9835ZM147.32 51.7348L146.391 52.1046L146.76 53.0337L147.689 52.6639L147.32 51.7348ZM145.944 48.2785L145.574 47.3494L144.645 47.7192L145.015 48.6483L145.944 48.2785ZM163.04 41.4742L164.415 44.9306L166.274 44.191L164.898 40.7347L163.04 41.4742ZM164.975 43.6316L158.099 46.3681L158.839 48.2264L165.714 45.4899L164.975 43.6316ZM157.54 47.667L166.445 70.0401L168.303 69.3005L159.398 46.9274L157.54 47.667ZM167.004 68.7412L162.767 70.4274L163.507 72.2857L167.743 70.5994L167.004 68.7412ZM164.066 70.9868L155.161 48.6137L153.303 49.3533L162.208 71.7264L164.066 70.9868ZM153.862 48.0544L146.95 50.8057L147.689 52.6639L154.602 49.9126L153.862 48.0544ZM148.249 51.365L146.873 47.9087L145.015 48.6483L146.391 52.1046L148.249 51.365ZM146.314 49.2076L164.339 42.0336L163.599 40.1753L145.574 47.3494L146.314 49.2076Z" fill="#1E4364"/>
<path d="M173.977 39.2599L178.471 46.0705L186.484 40.7827L188.533 43.8875L180.52 49.1753L185.213 56.2864L194.227 50.3376L196.276 53.4425L183.456 61.9029L168.122 38.6668L180.942 30.2063L182.991 33.3112L173.977 39.2599Z" fill="#1E4364"/>
<path d="M173.977 39.2599L173.426 38.4253L172.591 38.9761L173.142 39.8107L173.977 39.2599ZM178.471 46.0705L177.637 46.6213L178.187 47.4559L179.022 46.9051L178.471 46.0705ZM186.484 40.7827L187.318 40.2319L186.768 39.3973L185.933 39.9481L186.484 40.7827ZM188.533 43.8875L189.084 44.7222L189.918 44.1714L189.367 43.3367L188.533 43.8875ZM180.52 49.1753L179.969 48.3407L179.135 48.8915L179.686 49.7261L180.52 49.1753ZM185.213 56.2864L184.379 56.8372L184.929 57.6718L185.764 57.121L185.213 56.2864ZM194.227 50.3376L195.062 49.7868L194.511 48.9522L193.676 49.503L194.227 50.3376ZM196.276 53.4425L196.827 54.2771L197.662 53.7263L197.111 52.8917L196.276 53.4425ZM183.456 61.9029L182.622 62.4537L183.172 63.2883L184.007 62.7375L183.456 61.9029ZM168.122 38.6668L167.571 37.8321L166.736 38.3829L167.287 39.2176L168.122 38.6668ZM180.942 30.2063L181.776 29.6555L181.226 28.8209L180.391 29.3717L180.942 30.2063ZM182.991 33.3112L183.542 34.1458L184.376 33.595L183.825 32.7603L182.991 33.3112ZM173.142 39.8107L177.637 46.6213L179.306 45.5197L174.811 38.7091L173.142 39.8107ZM179.022 46.9051L187.035 41.6174L185.933 39.9481L177.92 45.2359L179.022 46.9051ZM185.649 41.3335L187.698 44.4384L189.367 43.3367L187.318 40.2319L185.649 41.3335ZM187.982 43.0529L179.969 48.3407L181.071 50.0099L189.084 44.7222L187.982 43.0529ZM179.686 49.7261L184.379 56.8372L186.048 55.7356L181.355 48.6245L179.686 49.7261ZM185.764 57.121L194.778 51.1723L193.676 49.503L184.662 55.4517L185.764 57.121ZM193.393 50.8884L195.442 53.9933L197.111 52.8917L195.062 49.7868L193.393 50.8884ZM195.725 52.6078L182.905 61.0683L184.007 62.7375L196.827 54.2771L195.725 52.6078ZM184.291 61.3521L168.956 38.1159L167.287 39.2176L182.622 62.4537L184.291 61.3521ZM168.673 39.5014L181.493 31.041L180.391 29.3717L167.571 37.8321L168.673 39.5014ZM180.107 30.7571L182.156 33.862L183.825 32.7603L181.776 29.6555L180.107 30.7571ZM182.44 32.4765L173.426 38.4253L174.528 40.0945L183.542 34.1458L182.44 32.4765Z" fill="#1E4364"/>
<path d="M211.569 40.1643C210.262 41.4974 208.858 42.4733 207.356 43.0918C205.834 43.6917 204.346 43.8763 202.892 43.6458C201.438 43.4153 200.139 42.7401 198.997 41.6201L202.412 38.1349C203.344 38.8987 204.375 39.2561 205.506 39.207C206.656 39.1388 207.763 38.562 208.827 37.4764C209.928 36.3528 210.52 35.2154 210.603 34.0643C210.666 32.8945 210.27 31.8896 209.413 31.0497C208.746 30.3964 208.007 30.0644 207.196 30.0537C206.404 30.0239 205.604 30.1923 204.797 30.5587C204.009 30.906 202.977 31.4633 201.702 32.2304C200.09 33.1894 198.712 33.9104 197.566 34.3934C196.42 34.8386 195.196 34.9829 193.893 34.8263C192.591 34.6697 191.32 33.9848 190.082 32.7715C188.94 31.6516 188.22 30.386 187.923 28.9747C187.626 27.5634 187.753 26.1195 188.304 24.6431C188.854 23.1667 189.792 21.7524 191.118 20.4002C193.003 18.4767 195.029 17.3815 197.194 17.1146C199.36 16.8099 201.346 17.4122 203.153 18.9215L199.625 22.521C198.845 21.8688 197.89 21.605 196.76 21.7295C195.63 21.854 194.561 22.4305 193.553 23.4589C192.638 24.3921 192.13 25.3872 192.027 26.4442C191.925 27.5013 192.321 28.4684 193.216 29.3457C193.825 29.943 194.507 30.2567 195.262 30.2869C196.016 30.2793 196.788 30.1018 197.576 29.7544C198.365 29.4071 199.377 28.8689 200.615 28.1399C202.265 27.1804 203.672 26.4686 204.836 26.0043C206.019 25.521 207.272 25.3669 208.593 25.5422C209.915 25.6798 211.204 26.3645 212.461 27.5965C213.47 28.5857 214.152 29.7952 214.506 31.2247C214.878 32.6353 214.827 34.1349 214.353 35.7237C213.878 37.2748 212.95 38.755 211.569 40.1643Z" fill="#1E4364"/>
<path d="M207.356 43.0918L207.722 44.0221L207.729 44.0193L207.736 44.0165L207.356 43.0918ZM202.892 43.6458L203.049 42.6582L202.892 43.6458ZM198.997 41.6201L198.282 40.9202L197.582 41.6344L198.297 42.3343L198.997 41.6201ZM202.412 38.1349L203.046 37.3616L202.339 36.7815L201.698 37.435L202.412 38.1349ZM205.506 39.207L205.55 40.206L205.558 40.2057L205.565 40.2052L205.506 39.207ZM210.603 34.0643L211.6 34.136L211.601 34.1273L211.601 34.1186L210.603 34.0643ZM207.196 30.0537L207.159 31.053L207.171 31.0534L207.183 31.0536L207.196 30.0537ZM204.797 30.5587L205.2 31.4739L205.21 31.4692L204.797 30.5587ZM201.702 32.2304L202.214 33.0898L202.218 33.0872L201.702 32.2304ZM197.566 34.3934L197.928 35.3255L197.942 35.3204L197.955 35.3148L197.566 34.3934ZM187.923 28.9747L188.901 28.7687L188.901 28.7687L187.923 28.9747ZM188.304 24.6431L189.24 24.9927L189.24 24.9927L188.304 24.6431ZM197.194 17.1146L197.317 18.1071L197.325 18.106L197.334 18.1048L197.194 17.1146ZM203.153 18.9215L203.867 19.6215L204.625 18.8482L203.794 18.1541L203.153 18.9215ZM199.625 22.521L198.983 23.288L199.692 23.881L200.339 23.2209L199.625 22.521ZM192.027 26.4442L193.022 26.5408L193.022 26.5408L192.027 26.4442ZM195.262 30.2869L195.222 31.2861L195.247 31.2871L195.272 31.2868L195.262 30.2869ZM200.615 28.1399L200.112 27.2754L200.107 27.2783L200.615 28.1399ZM204.836 26.0043L205.206 26.9332L205.214 26.93L204.836 26.0043ZM208.593 25.5422L208.462 26.5335L208.476 26.5354L208.49 26.5368L208.593 25.5422ZM214.506 31.2247L213.535 31.465L213.537 31.4725L213.539 31.4801L214.506 31.2247ZM214.353 35.7237L215.309 36.0164L215.311 36.0098L214.353 35.7237ZM210.855 39.4643C209.629 40.715 208.335 41.6072 206.975 42.1671L207.736 44.0165C209.381 43.3393 210.896 42.2798 212.283 40.8642L210.855 39.4643ZM206.989 42.1615C205.615 42.7033 204.308 42.8577 203.049 42.6582L202.736 44.6335C204.385 44.895 206.054 44.6801 207.722 44.0221L206.989 42.1615ZM203.049 42.6582C201.817 42.463 200.704 41.8938 199.697 40.906L198.297 42.3343C199.574 43.5864 201.058 44.3676 202.736 44.6335L203.049 42.6582ZM199.711 42.3201L203.127 38.8349L201.698 37.435L198.282 40.9202L199.711 42.3201ZM201.778 38.9083C202.887 39.8172 204.156 40.2665 205.55 40.206L205.463 38.2079C204.595 38.2456 203.801 37.9803 203.046 37.3616L201.778 38.9083ZM205.565 40.2052C207.033 40.1182 208.36 39.3813 209.541 38.1764L208.112 36.7765C207.165 37.7427 206.278 38.1595 205.447 38.2087L205.565 40.2052ZM209.541 38.1764C210.748 36.945 211.495 35.5971 211.6 34.136L209.605 33.9926C209.545 34.8337 209.108 35.7605 208.112 36.7765L209.541 38.1764ZM211.601 34.1186C211.681 32.6538 211.169 31.3712 210.113 30.3355L208.713 31.7639C209.37 32.4081 209.652 33.1352 209.604 34.0099L211.601 34.1186ZM210.113 30.3355C209.292 29.5314 208.316 29.0684 207.209 29.0538L207.183 31.0536C207.698 31.0604 208.2 31.2614 208.713 31.7639L210.113 30.3355ZM207.234 29.0544C206.269 29.0182 205.315 29.2252 204.384 29.6481L205.21 31.4692C205.893 31.1594 206.539 31.0297 207.159 31.053L207.234 29.0544ZM204.394 29.6435C203.549 30.0158 202.476 30.5979 201.187 31.3736L202.218 33.0872C203.478 32.3287 204.468 31.7962 205.2 31.4738L204.394 29.6435ZM201.191 31.371C199.601 32.3171 198.265 33.0134 197.178 33.4719L197.955 35.3148C199.158 34.8075 200.58 34.0618 202.214 33.0898L201.191 31.371ZM197.204 33.4613C196.222 33.843 195.164 33.9718 194.013 33.8335L193.774 35.8192C195.229 35.994 196.619 35.8342 197.928 35.3255L197.204 33.4613ZM194.013 33.8335C192.99 33.7105 191.913 33.1657 190.782 32.0573L189.382 33.4857C190.727 34.8038 192.191 35.6289 193.774 35.8192L194.013 33.8335ZM190.782 32.0573C189.765 31.0599 189.153 29.9659 188.901 28.7687L186.944 29.1806C187.286 30.806 188.115 32.2433 189.382 33.4857L190.782 32.0573ZM188.901 28.7687C188.647 27.5598 188.749 26.3087 189.24 24.9927L187.367 24.2935C186.756 25.9304 186.605 27.5669 186.944 29.1806L188.901 28.7687ZM189.24 24.9927C189.734 23.6711 190.585 22.3722 191.832 21.1002L190.404 19.7003C189 21.1326 187.975 22.6624 187.367 24.2935L189.24 24.9927ZM191.832 21.1002C193.597 19.2995 195.424 18.3403 197.317 18.1071L197.072 16.1221C194.633 16.4227 192.409 17.6539 190.404 19.7003L191.832 21.1002ZM197.334 18.1048C199.196 17.8428 200.903 18.3453 202.511 19.6889L203.794 18.1541C201.789 16.4791 199.524 15.777 197.055 16.1243L197.334 18.1048ZM202.438 18.2215L198.911 21.821L200.339 23.2209L203.867 19.6215L202.438 18.2215ZM200.266 21.7539C199.252 20.9054 198.016 20.5851 196.65 20.7355L196.869 22.7235C197.764 22.6249 198.438 22.8323 198.983 23.288L200.266 21.7539ZM196.65 20.7355C195.235 20.8914 193.964 21.6105 192.839 22.7589L194.267 24.1589C195.157 23.2504 196.024 22.8166 196.869 22.7235L196.65 20.7355ZM192.839 22.7589C191.802 23.8166 191.161 25.0147 191.032 26.3477L193.022 26.5408C193.098 25.7597 193.474 24.9676 194.267 24.1589L192.839 22.7589ZM191.032 26.3477C190.895 27.7614 191.448 29.0135 192.516 30.0599L193.916 28.6315C193.193 27.9234 192.955 27.2411 193.022 26.5408L191.032 26.3477ZM192.516 30.0599C193.278 30.8065 194.187 31.2447 195.222 31.2861L195.302 29.2876C194.828 29.2687 194.373 29.0795 193.916 28.6315L192.516 30.0599ZM195.272 31.2868C196.18 31.2777 197.084 31.0638 197.979 30.6696L197.173 28.8393C196.491 29.1398 195.853 29.2809 195.252 29.2869L195.272 31.2868ZM197.979 30.6696C198.819 30.2995 199.87 29.7391 201.122 29.0014L200.107 27.2783C198.885 27.9987 197.91 28.5147 197.173 28.8393L197.979 30.6696ZM201.117 29.0043C202.744 28.0582 204.105 27.3725 205.206 26.9332L204.466 25.0754C203.239 25.5647 201.785 26.3026 200.112 27.2754L201.117 29.0043ZM205.214 26.93C206.229 26.5155 207.305 26.3801 208.462 26.5335L208.725 24.5509C207.238 24.3537 205.809 24.5264 204.458 25.0785L205.214 26.93ZM208.49 26.5368C209.523 26.6444 210.613 27.1854 211.761 28.3106L213.161 26.8823C211.795 25.5437 210.307 24.7152 208.697 24.5476L208.49 26.5368ZM211.761 28.3106C212.632 29.1645 213.224 30.2075 213.535 31.465L215.476 30.9845C215.08 29.3828 214.308 28.007 213.161 26.8823L211.761 28.3106ZM213.539 31.4801C213.858 32.6895 213.824 34.0005 213.395 35.4377L215.311 36.0098C215.831 34.2694 215.898 32.5811 215.473 30.9694L213.539 31.4801ZM213.397 35.4311C212.978 36.7992 212.148 38.1449 210.855 39.4643L212.283 40.8642C213.753 39.365 214.779 37.7503 215.309 36.0164L213.397 35.4311Z" fill="#1E4364"/>
</svg>
