<svg width="247" height="95" viewBox="0 0 247 95" fill="none" xmlns="http://www.w3.org/2000/svg">
<path d="M48.1643 29.3344L22.8627 44.8799L18.6935 41.6401L27.4763 13.2582L31.3296 16.2525L23.6498 39.5646L44.3742 26.3891L48.1643 29.3344Z" fill="#1E4364"/>
<path d="M48.1643 29.3344L48.6878 30.1864L49.9179 29.4306L48.7779 28.5448L48.1643 29.3344ZM22.8627 44.8799L22.2491 45.6695L22.7961 46.0945L23.3862 45.7319L22.8627 44.8799ZM18.6935 41.6401L17.7382 41.3445L17.5337 42.0053L18.0799 42.4297L18.6935 41.6401ZM27.4763 13.2582L28.0899 12.4686L26.9483 11.5815L26.521 12.9626L27.4763 13.2582ZM31.3296 16.2525L32.2794 16.5654L32.5001 15.8956L31.9432 15.4629L31.3296 16.2525ZM23.6498 39.5646L22.7 39.2517L21.8242 41.9102L24.1863 40.4085L23.6498 39.5646ZM44.3742 26.3891L44.9877 25.5995L44.4318 25.1675L43.8376 25.5452L44.3742 26.3891ZM47.6408 28.4824L22.3392 44.0279L23.3862 45.7319L48.6878 30.1864L47.6408 28.4824ZM23.4763 44.0903L19.3071 40.8505L18.0799 42.4297L22.2491 45.6695L23.4763 44.0903ZM19.6488 41.9357L28.4316 13.5538L26.521 12.9626L17.7382 41.3445L19.6488 41.9357ZM26.8627 14.0478L30.716 17.0421L31.9432 15.4629L28.0899 12.4686L26.8627 14.0478ZM30.3798 15.9396L22.7 39.2517L24.5995 39.8775L32.2794 16.5654L30.3798 15.9396ZM24.1863 40.4085L44.9107 27.233L43.8376 25.5452L23.1133 38.7207L24.1863 40.4085ZM43.7606 27.1787L47.5507 30.124L48.7779 28.5448L44.9877 25.5995L43.7606 27.1787Z" fill="#1E4364"/>
<path d="M56.9271 33.8184L43.3043 58.0519L39.3293 55.8174L52.9521 31.5839L56.9271 33.8184Z" fill="#1E4364"/>
<path d="M56.9271 33.8184L57.7988 34.3085L58.2888 33.4368L57.4171 32.9467L56.9271 33.8184ZM43.3043 58.0519L42.8143 58.9236L43.686 59.4136L44.176 58.5419L43.3043 58.0519ZM39.3293 55.8174L38.4576 55.3274L37.9676 56.1991L38.8393 56.6891L39.3293 55.8174ZM52.9521 31.5839L53.4421 30.7122L52.5704 30.2222L52.0804 31.0939L52.9521 31.5839ZM56.0553 33.3284L42.4326 57.5619L44.176 58.5419L57.7988 34.3085L56.0553 33.3284ZM43.7943 57.1802L39.8193 54.9457L38.8393 56.6891L42.8143 58.9236L43.7943 57.1802ZM40.201 56.3074L53.8238 32.0739L52.0804 31.0939L38.4576 55.3274L40.201 56.3074ZM52.462 32.4556L56.437 34.6902L57.4171 32.9467L53.4421 30.7122L52.462 32.4556Z" fill="#1E4364"/>
<path d="M71.962 40.8603C74.7316 41.9047 76.9496 43.3539 78.616 45.2078C80.3168 47.0461 81.3522 49.175 81.7223 51.5946C82.1267 53.9985 81.8303 56.523 80.8329 59.1678C79.8356 61.8127 78.396 63.8918 76.5144 65.4052C74.6576 66.928 72.4837 67.8183 69.9926 68.0759C67.5358 68.3179 64.9227 67.9167 62.153 66.8723L53.657 63.6685L63.466 37.6565L71.962 40.8603ZM63.4656 63.3916C66.5097 64.5395 69.1532 64.5958 71.396 63.5606C73.6389 62.5254 75.3248 60.5107 76.4539 57.5165C77.5924 54.4974 77.6707 51.8337 76.6886 49.5254C75.7066 47.2171 73.6935 45.489 70.6495 44.3411L66.4202 42.7462L59.2363 61.7967L63.4656 63.3916Z" fill="#1E4364"/>
<path d="M78.616 45.2078L77.8723 45.8763L77.8771 45.8816L77.882 45.8869L78.616 45.2078ZM81.7223 51.5946L80.7338 51.7458L80.7349 51.7531L80.7362 51.7605L81.7223 51.5946ZM76.5144 65.4052L75.8876 64.626L75.8802 64.632L76.5144 65.4052ZM69.9926 68.0759L70.0906 69.071L70.0955 69.0705L69.9926 68.0759ZM53.657 63.6685L52.7213 63.3157L52.3685 64.2514L53.3042 64.6042L53.657 63.6685ZM63.466 37.6565L63.8189 36.7208L62.8832 36.368L62.5303 37.3037L63.466 37.6565ZM71.396 63.5606L70.9769 62.6527L71.396 63.5606ZM66.4202 42.7462L66.773 41.8105L65.8373 41.4577L65.4845 42.3934L66.4202 42.7462ZM59.2363 61.7967L58.3006 61.4439L57.9478 62.3796L58.8835 62.7324L59.2363 61.7967ZM71.6092 41.796C74.257 42.7945 76.3313 44.1618 77.8723 45.8763L79.3598 44.5393C77.568 42.5459 75.2063 41.015 72.3149 39.9246L71.6092 41.796ZM77.882 45.8869C79.4505 47.5822 80.3946 49.5285 80.7338 51.7458L82.7108 51.4433C82.3098 48.8216 81.1831 46.51 79.3501 44.5287L77.882 45.8869ZM80.7362 51.7605C81.1069 53.964 80.8423 56.3088 79.8972 58.815L81.7686 59.5207C82.8183 56.7371 83.1466 54.0331 82.7084 51.4286L80.7362 51.7605ZM79.8972 58.815C78.9521 61.3215 77.6079 63.2424 75.8876 64.626L77.1411 66.1845C79.1842 64.5412 80.7191 62.3039 81.7686 59.5207L79.8972 58.815ZM75.8802 64.632C74.1818 66.025 72.1947 66.8428 69.8897 67.0812L70.0955 69.0705C72.7727 68.7937 75.1335 67.8311 77.1485 66.1784L75.8802 64.632ZM69.8945 67.0807C67.6182 67.305 65.1601 66.9375 62.5059 65.9366L61.8002 67.808C64.6852 68.8959 67.4535 69.3309 70.0906 69.071L69.8945 67.0807ZM62.5059 65.9366L54.0099 62.7328L53.3042 64.6042L61.8002 67.808L62.5059 65.9366ZM54.5927 64.0214L64.4017 38.0094L62.5303 37.3037L52.7213 63.3157L54.5927 64.0214ZM63.1132 38.5922L71.6092 41.796L72.3149 39.9246L63.8189 36.7208L63.1132 38.5922ZM63.1128 64.3273C66.3248 65.5385 69.2591 65.6483 71.8151 64.4686L70.9769 62.6527C69.0472 63.5434 66.6945 63.5405 63.8184 62.4559L63.1128 64.3273ZM71.8151 64.4686C74.3608 63.2936 76.1964 61.0337 77.3896 57.8694L75.5182 57.1637C74.4533 59.9878 72.9169 61.7573 70.9769 62.6527L71.8151 64.4686ZM77.3896 57.8694C78.5919 54.681 78.7181 51.7412 77.6088 49.1339L75.7684 49.9169C76.6233 51.9261 76.5929 54.3138 75.5182 57.1637L77.3896 57.8694ZM77.6088 49.1339C76.4906 46.5055 74.2222 44.6196 71.0023 43.4054L70.2966 45.2768C73.1649 46.3584 74.9226 47.9287 75.7684 49.9169L77.6088 49.1339ZM71.0023 43.4054L66.773 41.8105L66.0673 43.6819L70.2966 45.2768L71.0023 43.4054ZM65.4845 42.3934L58.3006 61.4439L60.172 62.1496L67.3558 43.0991L65.4845 42.3934ZM58.8835 62.7324L63.1128 64.3273L63.8184 62.4559L59.5892 60.8611L58.8835 62.7324Z" fill="#1E4364"/>
<path d="M103.717 71.6922L92.2209 69.8656L89.3543 75.1613L84.6533 74.4144L98.8587 48.4823L104.073 49.3108L109.541 78.3689L104.801 77.6156L103.717 71.6922ZM103.036 67.8174L100.6 54.3482L94.0688 66.3925L103.036 67.8174Z" fill="#1E4364"/>
<path d="M103.717 71.6922L104.7 71.5122L104.573 70.8157L103.874 70.7046L103.717 71.6922ZM92.2209 69.8656L92.3778 68.8779L91.6785 68.7668L91.3415 69.3895L92.2209 69.8656ZM89.3543 75.1613L89.1974 76.149L89.8967 76.2601L90.2338 75.6374L89.3543 75.1613ZM84.6533 74.4144L83.7763 73.9339L83.0942 75.1792L84.4964 75.402L84.6533 74.4144ZM98.8587 48.4823L99.0156 47.4947L98.32 47.3841L97.9817 48.0018L98.8587 48.4823ZM104.073 49.3108L105.056 49.1259L104.926 48.4337L104.23 48.3232L104.073 49.3108ZM109.541 78.3689L109.384 79.3565L110.786 79.5793L110.524 78.184L109.541 78.3689ZM104.801 77.6156L103.817 77.7956L103.944 78.4921L104.644 78.6032L104.801 77.6156ZM103.036 67.8174L102.879 68.805L104.271 69.0261L104.02 67.6394L103.036 67.8174ZM100.6 54.3482L101.584 54.1701L101.077 51.3698L99.7207 53.8715L100.6 54.3482ZM94.0688 66.3925L93.1897 65.9158L92.516 67.1583L93.9119 67.3801L94.0688 66.3925ZM103.874 70.7046L92.3778 68.8779L92.064 70.8532L103.56 72.6798L103.874 70.7046ZM91.3415 69.3895L88.4749 74.6853L90.2338 75.6374L93.1003 70.3416L91.3415 69.3895ZM89.5113 74.1737L84.8102 73.4268L84.4964 75.402L89.1974 76.149L89.5113 74.1737ZM85.5304 74.8948L99.7357 48.9627L97.9817 48.0018L83.7763 73.9339L85.5304 74.8948ZM98.7018 49.4699L103.916 50.2984L104.23 48.3232L99.0156 47.4947L98.7018 49.4699ZM103.091 49.4958L108.558 78.5538L110.524 78.184L105.056 49.1259L103.091 49.4958ZM109.698 77.3813L104.958 76.628L104.644 78.6032L109.384 79.3565L109.698 77.3813ZM105.784 77.4356L104.7 71.5122L102.733 71.8722L103.817 77.7956L105.784 77.4356ZM104.02 67.6394L101.584 54.1701L99.6157 54.5262L102.052 67.9954L104.02 67.6394ZM99.7207 53.8715L93.1897 65.9158L94.9479 66.8692L101.479 54.8248L99.7207 53.8715ZM93.9119 67.3801L102.879 68.805L103.193 66.8298L94.2257 65.4049L93.9119 67.3801Z" fill="#1E4364"/>
<path d="M148.553 48.6515L148.992 52.3455L137.274 53.7368L138.241 61.8796L147.377 60.7949L147.815 64.489L138.679 65.5737L140.113 77.6489L135.585 78.1865L132.307 50.5804L148.553 48.6515Z" fill="#1E4364"/>
<path d="M148.553 48.6515L149.546 48.5336L149.428 47.5406L148.435 47.6585L148.553 48.6515ZM148.992 52.3455L149.11 53.3386L150.103 53.2207L149.985 52.2276L148.992 52.3455ZM137.274 53.7368L137.156 52.7438L136.163 52.8617L136.281 53.8547L137.274 53.7368ZM138.241 61.8796L137.248 61.9976L137.366 62.9906L138.359 62.8727L138.241 61.8796ZM147.377 60.7949L148.37 60.677L148.252 59.684L147.259 59.8019L147.377 60.7949ZM147.815 64.489L147.933 65.482L148.926 65.3641L148.808 64.371L147.815 64.489ZM138.679 65.5737L138.561 64.5807L137.568 64.6986L137.686 65.6916L138.679 65.5737ZM140.113 77.6489L140.231 78.6419L141.224 78.524L141.106 77.531L140.113 77.6489ZM135.585 78.1865L134.592 78.3044L134.71 79.2975L135.703 79.1796L135.585 78.1865ZM132.307 50.5804L132.189 49.5874L131.196 49.7053L131.314 50.6984L132.307 50.5804ZM147.56 48.7694L147.999 52.4634L149.985 52.2276L149.546 48.5336L147.56 48.7694ZM148.874 51.3525L137.156 52.7438L137.392 54.7299L149.11 53.3386L148.874 51.3525ZM136.281 53.8547L137.248 61.9976L139.234 61.7617L138.267 53.6189L136.281 53.8547ZM138.359 62.8727L147.495 61.7879L147.259 59.8019L138.123 60.8866L138.359 62.8727ZM146.384 60.9128L146.822 64.6069L148.808 64.371L148.37 60.677L146.384 60.9128ZM147.697 63.4959L138.561 64.5807L138.797 66.5667L147.933 65.482L147.697 63.4959ZM137.686 65.6916L139.12 77.7668L141.106 77.531L139.672 65.4558L137.686 65.6916ZM139.995 76.6559L135.467 77.1935L135.703 79.1796L140.231 78.6419L139.995 76.6559ZM136.578 78.0686L133.3 50.4625L131.314 50.6984L134.592 78.3044L136.578 78.0686ZM132.425 51.5735L148.671 49.6445L148.435 47.6585L132.189 49.5874L132.425 51.5735Z" fill="#1E4364"/>
<path d="M159.416 49.7492L161.638 57.6009L170.875 54.9871L171.888 58.5665L162.65 61.1804L164.97 69.3785L175.362 66.4379L176.375 70.0174L161.595 74.1995L154.015 47.4113L168.795 43.2292L169.808 46.8086L159.416 49.7492Z" fill="#1E4364"/>
<path d="M159.416 49.7492L159.143 48.787L158.181 49.0593L158.454 50.0215L159.416 49.7492ZM161.638 57.6009L160.675 57.8732L160.948 58.8354L161.91 58.5632L161.638 57.6009ZM170.875 54.9871L171.837 54.7148L171.565 53.7526L170.603 54.0249L170.875 54.9871ZM171.888 58.5665L172.16 59.5288L173.122 59.2565L172.85 58.2943L171.888 58.5665ZM162.65 61.1804L162.378 60.2182L161.416 60.4904L161.688 61.4527L162.65 61.1804ZM164.97 69.3785L164.008 69.6508L164.28 70.613L165.242 70.3407L164.97 69.3785ZM175.362 66.4379L176.324 66.1656L176.052 65.2034L175.09 65.4757L175.362 66.4379ZM176.375 70.0174L176.647 70.9796L177.609 70.7073L177.337 69.7451L176.375 70.0174ZM161.595 74.1995L160.633 74.4718L160.905 75.434L161.868 75.1617L161.595 74.1995ZM154.015 47.4113L153.743 46.4491L152.781 46.7214L153.053 47.6836L154.015 47.4113ZM168.795 43.2292L169.757 42.9569L169.485 41.9947L168.523 42.267L168.795 43.2292ZM169.808 46.8086L170.08 47.7709L171.042 47.4986L170.77 46.5364L169.808 46.8086ZM158.454 50.0215L160.675 57.8732L162.6 57.3287L160.378 49.4769L158.454 50.0215ZM161.91 58.5632L171.147 55.9493L170.603 54.0249L161.365 56.6387L161.91 58.5632ZM169.913 55.2594L170.925 58.8388L172.85 58.2943L171.837 54.7148L169.913 55.2594ZM171.615 57.6043L162.378 60.2182L162.923 62.1426L172.16 59.5288L171.615 57.6043ZM161.688 61.4527L164.008 69.6508L165.932 69.1062L163.613 60.9081L161.688 61.4527ZM165.242 70.3407L175.634 67.4001L175.09 65.4757L164.698 68.4163L165.242 70.3407ZM174.4 66.7102L175.413 70.2896L177.337 69.7451L176.324 66.1656L174.4 66.7102ZM176.103 69.0552L161.323 73.2373L161.868 75.1617L176.647 70.9796L176.103 69.0552ZM162.558 73.9273L154.977 47.1391L153.053 47.6836L160.633 74.4718L162.558 73.9273ZM154.287 48.3736L169.067 44.1914L168.523 42.267L153.743 46.4491L154.287 48.3736ZM167.833 43.5015L168.845 47.0809L170.77 46.5364L169.757 42.9569L167.833 43.5015ZM169.535 45.8464L159.143 48.787L159.688 50.7114L170.08 47.7709L169.535 45.8464Z" fill="#1E4364"/>
<path d="M189.258 60.9013L197.825 57.032L199.34 60.3858L186.617 66.1321L175.174 40.7966L179.33 38.9195L189.258 60.9013Z" fill="#1E4364"/>
<path d="M189.258 60.9013L188.347 61.3129L188.759 62.2243L189.67 61.8127L189.258 60.9013ZM197.825 57.032L198.736 56.6204L198.325 55.709L197.413 56.1206L197.825 57.032ZM199.34 60.3858L199.751 61.2971L200.663 60.8855L200.251 59.9741L199.34 60.3858ZM186.617 66.1321L185.706 66.5438L186.118 67.4551L187.029 67.0435L186.617 66.1321ZM175.174 40.7966L174.762 39.8852L173.851 40.2968L174.263 41.2082L175.174 40.7966ZM179.33 38.9195L180.241 38.5079L179.829 37.5966L178.918 38.0082L179.33 38.9195ZM189.67 61.8127L198.237 57.9433L197.413 56.1206L188.847 59.99L189.67 61.8127ZM196.914 57.4436L198.428 60.7974L200.251 59.9741L198.736 56.6204L196.914 57.4436ZM198.928 59.4744L186.206 65.2208L187.029 67.0435L199.751 61.2971L198.928 59.4744ZM187.529 65.7205L176.085 40.3849L174.263 41.2082L185.706 66.5438L187.529 65.7205ZM175.586 41.7079L179.741 39.8309L178.918 38.0082L174.762 39.8852L175.586 41.7079ZM178.418 39.3312L188.347 61.3129L190.17 60.4897L180.241 38.5079L178.418 39.3312Z" fill="#1E4364"/>
<path d="M196.964 29.6229L211.315 53.4325L207.41 55.7865L193.059 31.9769L196.964 29.6229Z" fill="#1E4364"/>
<path d="M196.964 29.6229L197.821 29.1067L197.305 28.2503L196.448 28.7665L196.964 29.6229ZM211.315 53.4325L211.831 54.289L212.688 53.7728L212.172 52.9163L211.315 53.4325ZM207.41 55.7865L206.553 56.3027L207.069 57.1591L207.926 56.6429L207.41 55.7865ZM193.059 31.9769L192.543 31.1204L191.686 31.6366L192.203 32.4931L193.059 31.9769ZM196.108 30.1392L210.459 53.9487L212.172 52.9163L197.821 29.1067L196.108 30.1392ZM210.799 52.5761L206.894 54.93L207.926 56.6429L211.831 54.289L210.799 52.5761ZM208.266 55.2703L193.915 31.4607L192.203 32.4931L206.553 56.3027L208.266 55.2703ZM193.575 32.8333L197.481 30.4794L196.448 28.7665L192.543 31.1204L193.575 32.8333Z" fill="#1E4364"/>
<path d="M222.123 41.2408L232.204 33.1595L234.681 36.2492L220.387 47.7082L218.16 44.9306L215.524 21.0511L205.475 29.1074L202.998 26.0177L217.292 14.5588L219.519 17.3364L222.123 41.2408Z" fill="#1E4364"/>
<path d="M222.123 41.2408L221.129 41.3491L221.326 43.1612L222.748 42.0211L222.123 41.2408ZM232.204 33.1595L232.984 32.534L232.358 31.7538L231.578 32.3793L232.204 33.1595ZM234.681 36.2492L235.306 37.0295L236.086 36.404L235.461 35.6238L234.681 36.2492ZM220.387 47.7082L219.606 48.3337L220.232 49.1139L221.012 48.4884L220.387 47.7082ZM218.16 44.9306L217.166 45.0403L217.198 45.3292L217.38 45.5561L218.16 44.9306ZM215.524 21.0511L216.518 20.9414L216.319 19.1327L214.899 20.2709L215.524 21.0511ZM205.475 29.1074L204.695 29.7329L205.32 30.5132L206.1 29.8877L205.475 29.1074ZM202.998 26.0177L202.373 25.2375L201.592 25.863L202.218 26.6432L202.998 26.0177ZM217.292 14.5588L218.072 13.9333L217.447 13.153L216.666 13.7785L217.292 14.5588ZM219.519 17.3364L220.513 17.2281L220.481 16.9383L220.299 16.7109L219.519 17.3364ZM222.748 42.0211L232.829 33.9398L231.578 32.3793L221.497 40.4606L222.748 42.0211ZM231.423 33.785L233.9 36.8747L235.461 35.6238L232.984 32.534L231.423 33.785ZM234.055 35.469L219.761 46.928L221.012 48.4884L235.306 37.0295L234.055 35.469ZM221.167 47.0827L218.94 44.3051L217.38 45.5561L219.606 48.3337L221.167 47.0827ZM219.154 44.8209L216.518 20.9414L214.53 21.1608L217.166 45.0403L219.154 44.8209ZM214.899 20.2709L204.85 28.3272L206.1 29.8877L216.15 21.8314L214.899 20.2709ZM206.255 28.4819L203.778 25.3922L202.218 26.6432L204.695 29.7329L206.255 28.4819ZM203.624 26.7979L217.917 15.339L216.666 13.7785L202.373 25.2375L203.624 26.7979ZM216.512 15.1842L218.738 17.9619L220.299 16.7109L218.072 13.9333L216.512 15.1842ZM218.525 17.4447L221.129 41.3491L223.117 41.1325L220.513 17.2281L218.525 17.4447Z" fill="#1E4364"/>
</svg>
