<svg width="303" height="124" viewBox="0 0 303 124" fill="none" xmlns="http://www.w3.org/2000/svg">
<path d="M43.3591 18.9308C44.9629 21.4186 45.8826 23.9033 46.1181 26.3849C46.3904 28.8744 45.9552 31.2014 44.8124 33.3659C43.7064 35.5384 41.9655 37.3904 39.5897 38.922C37.214 40.4536 34.8196 41.2674 32.4068 41.3634C30.0084 41.4818 27.7316 40.9031 25.5766 39.6272C23.4584 38.3594 21.5974 36.4815 19.9936 33.9937L15.0737 26.362L38.4393 11.2991L43.3591 18.9308ZM23.1202 31.9781C24.8829 34.7124 26.9735 36.3312 29.392 36.8345C31.8104 37.3377 34.3644 36.7224 37.054 34.9885C39.7659 33.2402 41.4144 31.1464 41.9993 28.707C42.5842 26.2676 41.9953 23.6808 40.2325 20.9464L37.7834 17.1474L20.6711 28.1791L23.1202 31.9781Z" fill="#1E4364"/>
<path d="M46.1181 26.3849L45.1226 26.4794L45.1232 26.4865L45.124 26.4936L46.1181 26.3849ZM44.8124 33.3659L43.9281 32.899L43.9246 32.9056L43.9212 32.9123L44.8124 33.3659ZM32.4068 41.3634L32.367 40.3641L32.3575 40.3646L32.4068 41.3634ZM25.5766 39.6272L25.063 40.4853L25.0671 40.4878L25.5766 39.6272ZM15.0737 26.362L14.5319 25.5216L13.6914 26.0634L14.2333 26.9039L15.0737 26.362ZM38.4393 11.2991L39.2798 10.7573L38.7379 9.91681L37.8975 10.4586L38.4393 11.2991ZM29.392 36.8345L29.5957 35.8554L29.392 36.8345ZM37.7834 17.1474L38.6239 16.6055L38.0821 15.765L37.2416 16.3069L37.7834 17.1474ZM20.6711 28.1791L20.1293 27.3386L19.2888 27.8804L19.8306 28.7209L20.6711 28.1791ZM42.5186 19.4726C44.0519 21.851 44.9048 24.1845 45.1226 26.4794L47.1136 26.2904C46.8604 23.6222 45.874 20.9862 44.1996 18.3889L42.5186 19.4726ZM45.124 26.4936C45.3752 28.7895 44.9754 30.9155 43.9281 32.899L45.6967 33.8328C46.935 31.4874 47.4057 28.9593 47.1122 26.2761L45.124 26.4936ZM43.9212 32.9123C42.9075 34.9035 41.2991 36.6302 39.0479 38.0815L40.1316 39.7625C42.6319 38.1506 44.5053 36.1733 45.7035 33.8196L43.9212 32.9123ZM39.0479 38.0815C36.7964 39.533 34.5729 40.2764 32.367 40.3642L32.4465 42.3626C35.0664 42.2583 37.6315 41.3742 40.1316 39.7625L39.0479 38.0815ZM32.3575 40.3646C30.1635 40.4729 28.08 39.9472 26.086 38.7667L25.0671 40.4878C27.3832 41.8589 29.8532 42.4907 32.4561 42.3622L32.3575 40.3646ZM26.0902 38.7692C24.1275 37.5944 22.371 35.836 20.8341 33.4518L19.1531 34.5355C20.8238 37.127 22.7893 39.1243 25.063 40.4853L26.0902 38.7692ZM20.8341 33.4518L15.9142 25.8202L14.2333 26.9039L19.1531 34.5355L20.8341 33.4518ZM15.6156 27.2025L38.9811 12.1396L37.8975 10.4586L14.5319 25.5216L15.6156 27.2025ZM37.5988 11.841L42.5186 19.4726L44.1996 18.3889L39.2798 10.7573L37.5988 11.841ZM22.2797 32.5199C24.1397 35.4052 26.4322 37.24 29.1883 37.8135L29.5957 35.8554C27.5149 35.4225 25.6261 34.0197 23.9607 31.4362L22.2797 32.5199ZM29.1883 37.8135C31.9333 38.3847 34.7534 37.6614 37.5958 35.829L36.5121 34.148C33.9754 35.7834 31.6875 36.2907 29.5957 35.8554L29.1883 37.8135ZM37.5958 35.829C40.4598 33.9827 42.311 31.6955 42.9717 28.9402L41.0268 28.4738C40.5177 30.5972 39.0721 32.4977 36.5121 34.148L37.5958 35.829ZM42.9717 28.9402C43.6377 26.1625 42.9375 23.2968 41.073 20.4045L39.392 21.4882C41.053 24.0647 41.5306 26.3727 41.0268 28.4738L42.9717 28.9402ZM41.073 20.4045L38.6239 16.6055L36.9429 17.6892L39.392 21.4882L41.073 20.4045ZM37.2416 16.3069L20.1293 27.3386L21.2129 29.0195L38.3253 17.9879L37.2416 16.3069ZM19.8306 28.7209L22.2797 32.5199L23.9607 31.4362L21.5116 27.6372L19.8306 28.7209Z" fill="#1E4364"/>
<path d="M43.6869 63.7107C41.8224 61.9179 40.5179 59.8311 39.7735 57.4505C39.0668 55.0691 39.0007 52.6564 39.5752 50.2122C40.1874 47.7673 41.4361 45.5645 43.3214 43.6039C45.2067 41.6433 47.3497 40.3189 49.7503 39.6306C52.1701 38.9609 54.5743 38.9421 56.963 39.5743C59.3895 40.2057 61.5349 41.4179 63.3994 43.2108C65.2832 45.0221 66.5784 47.1185 67.2851 49.4998C68.0295 51.8805 68.1049 54.2836 67.5112 56.7093C66.9174 59.135 65.6779 61.3281 63.7926 63.2887C61.9073 65.2494 59.7551 66.5834 57.3361 67.2909C54.9355 67.9791 52.522 68.0075 50.0956 67.3761C47.7068 66.7439 45.5706 65.5221 43.6869 63.7107ZM46.4317 60.8563C47.758 62.1317 49.2266 62.9705 50.8376 63.3727C52.467 63.7557 54.1061 63.667 55.7548 63.1067C57.4412 62.5456 58.996 61.525 60.4192 60.0449C61.8424 58.5648 62.7921 56.9809 63.2683 55.293C63.7636 53.6237 63.7788 51.992 63.3139 50.398C62.8489 48.804 61.9532 47.3694 60.6269 46.094C59.3006 44.8187 57.832 43.9799 56.221 43.5776C54.6101 43.1754 52.9706 43.2452 51.3027 43.7871C49.654 44.3475 48.1181 45.3677 46.6949 46.8478C45.2716 48.3278 44.3031 49.9122 43.7892 51.6008C43.3131 53.2886 43.2982 54.9391 43.7447 56.5523C44.2097 58.1463 45.1054 59.581 46.4317 60.8563Z" fill="#1E4364"/>
<path d="M39.7735 57.4505L38.8148 57.735L38.8169 57.742L38.8191 57.7489L39.7735 57.4505ZM39.5752 50.2122L38.6051 49.9693L38.6034 49.9763L38.6017 49.9834L39.5752 50.2122ZM49.7503 39.6306L49.4835 38.6668L49.4747 38.6694L49.7503 39.6306ZM56.963 39.5743L56.7072 40.541L56.7112 40.542L56.963 39.5743ZM67.2851 49.4998L66.3264 49.7844L66.3285 49.7913L66.3307 49.7983L67.2851 49.4998ZM67.5112 56.7093L66.5398 56.4715L67.5112 56.7093ZM57.3361 67.2909L57.6117 68.2522L57.6168 68.2507L57.3361 67.2909ZM50.0956 67.3761L49.8397 68.3428L49.8437 68.3438L50.0956 67.3761ZM50.8376 63.3727L50.5953 64.343L50.6088 64.3462L50.8376 63.3727ZM55.7548 63.1067L55.4391 62.1578L55.433 62.1599L55.7548 63.1067ZM63.2683 55.293L62.3095 55.0085L62.3058 55.0215L63.2683 55.293ZM63.3139 50.398L62.3539 50.6781L63.3139 50.398ZM56.221 43.5776L55.9788 44.5479L55.9788 44.5479L56.221 43.5776ZM51.3027 43.7871L50.9937 42.836L50.9809 42.8403L51.3027 43.7871ZM43.7892 51.6008L42.8325 51.3096L42.8296 51.3194L42.8268 51.3292L43.7892 51.6008ZM43.7447 56.5523L42.7809 56.8191L42.7848 56.8324L43.7447 56.5523ZM44.38 62.9899C42.6321 61.3091 41.4202 59.3661 40.7279 57.152L38.8191 57.7489C39.6156 60.2961 41.0127 62.5266 42.9938 64.4316L44.38 62.9899ZM40.7322 57.166C40.0755 54.9534 40.0135 52.7176 40.5486 50.441L38.6017 49.9834C37.9878 52.5951 38.058 55.1849 38.8148 57.735L40.7322 57.166ZM40.5452 50.4551C41.1117 48.1928 42.268 46.1422 44.0423 44.2971L42.6006 42.9108C40.6043 44.9869 39.263 47.3418 38.6051 49.9693L40.5452 50.4551ZM44.0423 44.2971C45.8166 42.4518 47.8097 41.2273 50.0259 40.5919L49.4747 38.6694C46.8897 39.4105 44.5969 40.8348 42.6006 42.9108L44.0423 44.2971ZM50.017 40.5944C52.2689 39.9711 54.4927 39.9549 56.7072 40.541L57.2189 38.6075C54.6559 37.9293 52.0713 37.9506 49.4835 38.6669L50.017 40.5944ZM56.7112 40.542C58.9664 41.1289 60.9612 42.2535 62.7063 43.9316L64.0926 42.4899C62.1086 40.5822 59.8125 39.2825 57.2149 38.6065L56.7112 40.542ZM62.7063 43.9316C64.472 45.6294 65.6716 47.5777 66.3264 49.7844L68.2438 49.2153C67.4852 46.6593 66.0943 44.4148 64.0926 42.4899L62.7063 43.9316ZM66.3307 49.7983C67.0207 52.0048 67.0903 54.2226 66.5398 56.4715L68.4825 56.947C69.1195 54.3446 69.0384 51.7561 68.2395 49.2014L66.3307 49.7983ZM66.5398 56.4715C65.9917 58.7109 64.8461 60.7504 63.0718 62.5956L64.5134 63.9819C66.5097 61.9059 67.8432 59.559 68.4825 56.947L66.5398 56.4715ZM63.0718 62.5956C61.2975 64.4407 59.2938 65.6764 57.0554 66.3311L57.6168 68.2507C60.2164 67.4904 62.5171 66.058 64.5134 63.9819L63.0718 62.5956ZM57.0605 66.3296C54.8327 66.9683 52.6013 66.9949 50.3474 66.4083L49.8437 68.3438C52.4426 69.0202 55.0383 68.9899 57.6117 68.2521L57.0605 66.3296ZM50.3514 66.4094C48.1365 65.8232 46.1486 64.6905 44.38 62.9899L42.9938 64.4316C44.9927 66.3537 47.2772 67.6646 49.8397 68.3428L50.3514 66.4094ZM45.7386 61.5771C47.1768 62.9602 48.797 63.8939 50.5953 64.3429L51.0798 62.4025C49.6562 62.047 48.3391 61.3032 47.1248 60.1355L45.7386 61.5771ZM50.6088 64.3462C52.4282 64.7738 54.258 64.6716 56.0766 64.0535L55.433 62.1599C53.9542 62.6625 52.5058 62.7376 51.0664 62.3992L50.6088 64.3462ZM56.0705 64.0555C57.933 63.4358 59.622 62.3167 61.14 60.738L59.6984 59.3518C58.3699 60.7333 56.9494 61.6553 55.4391 62.1578L56.0705 64.0555ZM61.14 60.738C62.6577 59.1597 63.7028 57.4357 64.2307 55.5645L62.3058 55.0215C61.8814 56.526 61.0271 57.9699 59.6984 59.3518L61.14 60.738ZM64.2269 55.5775C64.7742 53.7334 64.7953 51.9056 64.2738 50.118L62.3539 50.6781C62.7624 52.0784 62.7531 53.5139 62.3096 55.0085L64.2269 55.5775ZM64.2738 50.118C63.7548 48.3386 62.7583 46.7562 61.32 45.3732L59.9338 46.8148C61.1481 47.9825 61.943 49.2694 62.3539 50.6781L64.2738 50.118ZM61.32 45.3732C59.8818 43.9902 58.2616 43.0564 56.4633 42.6074L55.9788 44.5479C57.4024 44.9033 58.7195 45.6472 59.9338 46.8148L61.32 45.3732ZM56.4633 42.6074C54.66 42.1572 52.8295 42.2396 50.9937 42.836L51.6117 44.7382C53.1118 44.2508 54.5601 44.1936 55.9788 44.5479L56.4633 42.6074ZM50.9809 42.8403C49.1559 43.4606 47.4883 44.5799 45.974 46.1546L47.4157 47.5409C48.7479 46.1555 50.1521 45.2344 51.6245 44.7339L50.9809 42.8403ZM45.974 46.1546C44.4595 47.7297 43.3992 49.4475 42.8325 51.3096L44.7459 51.8919C45.207 50.3768 46.0838 48.926 47.4157 47.5409L45.974 46.1546ZM42.8268 51.3292C42.3035 53.1842 42.2833 55.0211 42.781 56.8191L44.7085 56.2856C44.3131 54.8571 44.3227 53.393 44.7517 51.8723L42.8268 51.3292ZM42.7848 56.8324C43.3038 58.6117 44.3003 60.1941 45.7386 61.5771L47.1248 60.1355C45.9105 58.9678 45.1156 57.6809 44.7047 56.2723L42.7848 56.8324Z" fill="#1E4364"/>
<path d="M82.9422 74.9563C84.0827 75.9565 84.7603 77.2847 84.9751 78.9409C85.1899 80.597 84.87 82.1328 84.0153 83.5481C83.2847 84.7579 82.3034 85.6606 81.0715 86.2562C79.8762 86.8428 78.5127 87.063 76.9811 86.9168C75.4632 86.7478 73.9167 86.1878 72.3417 85.2366L62.8227 79.4882L77.1936 55.6908L86.2675 61.1704C87.8882 62.1491 89.1152 63.264 89.9486 64.5148C90.7819 65.7657 91.2128 67.0383 91.2411 68.3327C91.2832 69.6042 90.9596 70.8106 90.2704 71.952C89.4433 73.3216 88.3888 74.2424 87.1069 74.7144C85.825 75.1863 84.4368 75.267 82.9422 74.9563ZM75.0592 68.0464L79.8872 70.962C81.1655 71.7339 82.3308 72.0482 83.3831 71.9049C84.472 71.7525 85.3473 71.1284 86.0089 70.0327C86.6568 68.9599 86.7948 67.9061 86.4227 66.8715C86.0872 65.8278 85.2804 64.92 84.002 64.148L79.1741 61.2325L75.0592 68.0464ZM73.9223 81.8454C75.2462 82.645 76.4779 82.9526 77.6172 82.7683C78.7564 82.5841 79.6707 81.9213 80.36 80.7799C81.063 79.6157 81.2218 78.45 80.8364 77.2827C80.451 76.1154 79.5963 75.132 78.2723 74.3324L73.1362 71.2308L68.6492 78.6611L73.9223 81.8454Z" fill="#1E4364"/>
<path d="M82.9422 74.9563L83.1457 73.9772L79.4282 73.2045L82.2828 75.7081L82.9422 74.9563ZM84.9751 78.9409L85.9668 78.8123L85.9668 78.8123L84.9751 78.9409ZM81.0715 86.2562L80.6362 85.3559L80.631 85.3585L81.0715 86.2562ZM76.9811 86.9168L76.8704 87.9107L76.8782 87.9115L76.8861 87.9123L76.9811 86.9168ZM62.8227 79.4882L61.9667 78.9713L61.4497 79.8273L62.3058 80.3442L62.8227 79.4882ZM77.1936 55.6908L77.7106 54.8348L76.8546 54.3179L76.3376 55.1739L77.1936 55.6908ZM89.9486 64.5148L89.1164 65.0693L89.1164 65.0693L89.9486 64.5148ZM91.2411 68.3327L90.2413 68.3546L90.2416 68.3658L91.2411 68.3327ZM87.1069 74.7144L87.4524 75.6528L87.4524 75.6528L87.1069 74.7144ZM75.0592 68.0464L74.2032 67.5295L73.6863 68.3855L74.5423 68.9024L75.0592 68.0464ZM83.3831 71.9049L83.5181 72.8957L83.5217 72.8952L83.3831 71.9049ZM86.4227 66.8715L85.4707 67.1775L85.4759 67.1938L85.4817 67.2099L86.4227 66.8715ZM79.1741 61.2325L79.691 60.3765L78.835 59.8595L78.3181 60.7155L79.1741 61.2325ZM77.6172 82.7683L77.4575 81.7812L77.6172 82.7683ZM73.1362 71.2308L73.6531 70.3748L72.7971 69.8578L72.2802 70.7139L73.1362 71.2308ZM68.6492 78.6611L67.7931 78.1441L67.2762 79.0002L68.1322 79.5171L68.6492 78.6611ZM82.2828 75.7081C83.2215 76.5313 83.7965 77.6284 83.9834 79.0695L85.9668 78.8123C85.7241 76.9411 84.9439 75.3818 83.6016 74.2045L82.2828 75.7081ZM83.9834 79.0695C84.1694 80.5038 83.8957 81.8116 83.1593 83.0311L84.8713 84.065C85.8442 82.4539 86.2104 80.6903 85.9668 78.8123L83.9834 79.0695ZM83.1593 83.0311C82.5253 84.0809 81.6878 84.8475 80.6362 85.3559L81.5067 87.1565C82.9191 86.4737 84.044 85.4349 84.8713 84.065L83.1593 83.0311ZM80.631 85.3585C79.6262 85.8515 78.4527 86.0527 77.076 85.9213L76.8861 87.9123C78.5727 88.0732 80.1262 87.834 81.512 87.1539L80.631 85.3585ZM77.0917 85.923C75.744 85.7729 74.3347 85.272 72.8586 84.3806L71.8247 86.0926C73.4987 87.1035 75.1824 87.7228 76.8704 87.9107L77.0917 85.923ZM72.8586 84.3806L63.3396 78.6322L62.3058 80.3442L71.8247 86.0926L72.8586 84.3806ZM63.6787 80.0052L78.0497 56.2078L76.3376 55.1739L61.9667 78.9713L63.6787 80.0052ZM76.6767 56.5468L85.7505 62.0264L86.7844 60.3144L77.7106 54.8348L76.6767 56.5468ZM85.7505 62.0264C87.277 62.9482 88.383 63.9684 89.1164 65.0693L90.7808 63.9604C89.8475 62.5595 88.4994 61.35 86.7844 60.3144L85.7505 62.0264ZM89.1164 65.0693C89.8617 66.1881 90.2178 67.279 90.2413 68.3546L92.2408 68.3108C92.2077 66.7977 91.7021 65.3434 90.7808 63.9604L89.1164 65.0693ZM90.2416 68.3658C90.277 69.4344 90.0086 70.4509 89.4143 71.435L91.1264 72.4689C91.9106 71.1703 92.2894 69.774 92.2405 68.2996L90.2416 68.3658ZM89.4143 71.435C88.6836 72.6451 87.7949 73.3954 86.7614 73.776L87.4524 75.6528C88.9826 75.0894 90.2029 73.9981 91.1264 72.4689L89.4143 71.435ZM86.7614 73.776C85.6752 74.1759 84.4793 74.2544 83.1457 73.9772L82.7387 75.9354C84.3943 76.2795 85.9748 76.1968 87.4524 75.6528L86.7614 73.776ZM74.5423 68.9024L79.3702 71.818L80.4041 70.1059L75.5762 67.1904L74.5423 68.9024ZM79.3702 71.818C80.766 72.6609 82.1632 73.0803 83.5181 72.8957L83.2481 70.914C82.4985 71.0162 81.565 70.807 80.4041 70.1059L79.3702 71.818ZM83.5217 72.8952C84.9596 72.694 86.0762 71.8558 86.865 70.5497L85.1529 69.5158C84.6183 70.4011 83.9844 70.811 83.2445 70.9145L83.5217 72.8952ZM86.865 70.5497C87.644 69.2596 87.8527 67.8929 87.3637 66.5331L85.4817 67.2099C85.7368 67.9193 85.6697 68.6601 85.1529 69.5158L86.865 70.5497ZM87.3747 66.5655C86.9423 65.2202 85.9288 64.1434 84.519 63.292L83.4851 65.004C84.632 65.6966 85.2321 66.4354 85.4707 67.1775L87.3747 66.5655ZM84.519 63.292L79.691 60.3765L78.6571 62.0885L83.4851 65.004L84.519 63.292ZM78.3181 60.7155L74.2032 67.5295L75.9152 68.5633L80.0301 61.7494L78.3181 60.7155ZM73.4053 82.7014C74.8627 83.5815 76.3343 83.9888 77.7768 83.7555L77.4575 81.7812C76.6214 81.9164 75.6298 81.7084 74.4392 80.9894L73.4053 82.7014ZM77.7768 83.7555C79.2526 83.5168 80.4011 82.6462 81.216 81.2969L79.5039 80.263C78.9403 81.1964 78.2602 81.6513 77.4575 81.7812L77.7768 83.7555ZM81.216 81.2969C82.0519 79.9127 82.2733 78.4452 81.786 76.9692L79.8868 77.5962C80.1703 78.4548 80.0741 79.3188 79.5039 80.263L81.216 81.2969ZM81.786 76.9692C81.308 75.5214 80.2632 74.3665 78.7893 73.4764L77.7554 75.1885C78.9294 75.8974 79.594 76.7094 79.8868 77.5962L81.786 76.9692ZM78.7893 73.4764L73.6531 70.3748L72.6193 72.0868L77.7554 75.1885L78.7893 73.4764ZM72.2802 70.7139L67.7931 78.1441L69.5052 79.178L73.9922 71.7477L72.2802 70.7139ZM68.1322 79.5171L73.4053 82.7014L74.4392 80.9894L69.1661 77.8051L68.1322 79.5171Z" fill="#1E4364"/>
<path d="M95.8965 92.7085L104.672 96.0773L103.353 99.5129L90.3205 94.5097L100.284 68.5564L104.541 70.1907L95.8965 92.7085Z" fill="#1E4364"/>
<path d="M95.8965 92.7085L94.9629 92.3501L94.6045 93.2836L95.5381 93.642L95.8965 92.7085ZM104.672 96.0773L105.606 96.4357L105.964 95.5022L105.03 95.1438L104.672 96.0773ZM103.353 99.5129L102.995 100.446L103.928 100.805L104.287 99.8713L103.353 99.5129ZM90.3205 94.5097L89.3869 94.1513L89.0285 95.0849L89.9621 95.4433L90.3205 94.5097ZM100.284 68.5564L100.642 67.6229L99.7086 67.2645L99.3502 68.1981L100.284 68.5564ZM104.541 70.1907L105.474 70.5491L105.833 69.6155L104.899 69.2571L104.541 70.1907ZM95.5381 93.642L104.314 97.0109L105.03 95.1438L96.2549 91.7749L95.5381 93.642ZM103.738 95.7189L102.42 99.1545L104.287 99.8713L105.606 96.4357L103.738 95.7189ZM103.712 98.5793L90.6789 93.5762L89.9621 95.4433L102.995 100.446L103.712 98.5793ZM91.2541 94.8681L101.217 68.9148L99.3502 68.1981L89.3869 94.1513L91.2541 94.8681ZM99.9254 69.49L104.183 71.1243L104.899 69.2571L100.642 67.6229L99.9254 69.49ZM103.607 69.8323L94.9629 92.3501L96.83 93.0668L105.474 70.5491L103.607 69.8323Z" fill="#1E4364"/>
<path d="M121.767 79.4529L120.097 87.4401L129.494 89.4055L128.732 93.0467L119.335 91.0813L117.591 99.4209L128.162 101.632L127.401 105.273L112.366 102.129L118.066 74.8782L133.1 78.0227L132.339 81.664L121.767 79.4529Z" fill="#1E4364"/>
<path d="M121.767 79.4529L121.972 78.4741L120.993 78.2694L120.789 79.2482L121.767 79.4529ZM120.097 87.4401L119.118 87.2354L118.913 88.2142L119.892 88.4189L120.097 87.4401ZM129.494 89.4055L130.472 89.6102L130.677 88.6314L129.698 88.4266L129.494 89.4055ZM128.732 93.0467L128.527 94.0255L129.506 94.2302L129.711 93.2514L128.732 93.0467ZM119.335 91.0813L119.54 90.1025L118.561 89.8978L118.357 90.8766L119.335 91.0813ZM117.591 99.4209L116.612 99.2161L116.408 100.195L117.386 100.4L117.591 99.4209ZM128.162 101.632L129.141 101.837L129.346 100.858L128.367 100.653L128.162 101.632ZM127.401 105.273L127.196 106.252L128.175 106.457L128.38 105.478L127.401 105.273ZM112.366 102.129L111.387 101.924L111.183 102.903L112.161 103.107L112.366 102.129ZM118.066 74.8782L118.27 73.8994L117.292 73.6946L117.087 74.6735L118.066 74.8782ZM133.1 78.0227L134.079 78.2275L134.284 77.2487L133.305 77.0439L133.1 78.0227ZM132.339 81.664L132.134 82.6428L133.113 82.8475L133.318 81.8687L132.339 81.664ZM120.789 79.2482L119.118 87.2354L121.076 87.6448L122.746 79.6577L120.789 79.2482ZM119.892 88.4189L129.289 90.3843L129.698 88.4266L120.302 86.4613L119.892 88.4189ZM128.515 89.2007L127.753 92.8419L129.711 93.2514L130.472 89.6102L128.515 89.2007ZM128.937 92.0678L119.54 90.1025L119.131 92.0601L128.527 94.0255L128.937 92.0678ZM118.357 90.8766L116.612 99.2161L118.57 99.6256L120.314 91.286L118.357 90.8766ZM117.386 100.4L127.958 102.611L128.367 100.653L117.796 98.442L117.386 100.4ZM127.184 101.427L126.422 105.068L128.38 105.478L129.141 101.837L127.184 101.427ZM127.605 104.294L112.571 101.15L112.161 103.107L127.196 106.252L127.605 104.294ZM113.345 102.333L119.044 75.0829L117.087 74.6735L111.387 101.924L113.345 102.333ZM117.861 75.857L132.896 79.0016L133.305 77.0439L118.27 73.8994L117.861 75.857ZM132.121 77.818L131.36 81.4592L133.318 81.8687L134.079 78.2275L132.121 77.818ZM132.543 80.6851L121.972 78.4741L121.563 80.4318L132.134 82.6428L132.543 80.6851Z" fill="#1E4364"/>
<path d="M174.079 77.5564L176.713 105.231L172.174 105.663L171.022 93.5581L158 94.7976L159.153 106.903L154.613 107.335L151.979 79.6602L156.518 79.228L157.648 91.0944L170.669 89.8548L169.539 77.9885L174.079 77.5564Z" fill="#1E4364"/>
<path d="M174.079 77.5564L175.074 77.4616L174.98 76.4661L173.984 76.5609L174.079 77.5564ZM176.713 105.231L176.808 106.227L177.804 106.132L177.709 105.136L176.713 105.231ZM172.174 105.663L171.178 105.758L171.273 106.754L172.269 106.659L172.174 105.663ZM171.022 93.5581L172.017 93.4633L171.922 92.4678L170.927 92.5626L171.022 93.5581ZM158 94.7977L157.906 93.8022L156.91 93.8969L157.005 94.8924L158 94.7977ZM159.153 106.903L159.248 107.898L160.243 107.804L160.148 106.808L159.153 106.903ZM154.613 107.335L153.618 107.43L153.713 108.425L154.708 108.331L154.613 107.335ZM151.979 79.6602L151.884 78.6647L150.888 78.7594L150.983 79.7549L151.979 79.6602ZM156.518 79.228L157.514 79.1333L157.419 78.1378L156.423 78.2325L156.518 79.228ZM157.648 91.0944L156.652 91.1892L156.747 92.1847L157.743 92.0899L157.648 91.0944ZM170.669 89.8548L170.764 90.8503L171.759 90.7556L171.664 89.7601L170.669 89.8548ZM169.539 77.9885L169.445 76.993L168.449 77.0878L168.544 78.0833L169.539 77.9885ZM173.083 77.6511L175.718 105.326L177.709 105.136L175.074 77.4616L173.083 77.6511ZM176.619 104.236L172.079 104.668L172.269 106.659L176.808 106.227L176.619 104.236ZM173.169 105.569L172.017 93.4633L170.026 93.6529L171.178 105.758L173.169 105.569ZM170.927 92.5626L157.906 93.8022L158.095 95.7932L171.116 94.5536L170.927 92.5626ZM157.005 94.8924L158.157 106.998L160.148 106.808L158.996 94.7029L157.005 94.8924ZM159.058 105.907L154.518 106.34L154.708 108.331L159.248 107.898L159.058 105.907ZM155.609 107.24L152.974 79.5654L150.983 79.7549L153.618 107.43L155.609 107.24ZM152.074 80.6557L156.613 80.2235L156.423 78.2325L151.884 78.6647L152.074 80.6557ZM155.523 79.3228L156.652 91.1892L158.643 90.9996L157.514 79.1333L155.523 79.3228ZM157.743 92.0899L170.764 90.8503L170.574 88.8593L157.553 90.0989L157.743 92.0899ZM171.664 89.7601L170.535 77.8937L168.544 78.0833L169.673 89.9496L171.664 89.7601ZM169.634 78.984L174.174 78.5519L173.984 76.5609L169.445 76.993L169.634 78.984Z" fill="#1E4364"/>
<path d="M184.471 74.9287L189.947 91.7813C190.598 93.7849 191.608 95.1249 192.978 95.8015C194.373 96.4698 196.008 96.4991 197.885 95.8892C199.787 95.2712 201.093 94.286 201.803 92.9336C202.539 91.5731 202.581 89.891 201.93 87.8875L196.454 71.0349L200.791 69.6256L206.242 86.4022C206.943 88.5579 207.067 90.5363 206.615 92.3376C206.163 94.1388 205.27 95.6626 203.936 96.9091C202.603 98.1555 200.985 99.0877 199.083 99.7058C197.181 100.324 195.324 100.521 193.513 100.296C191.727 100.063 190.134 99.3471 188.735 98.1475C187.336 96.9479 186.286 95.2702 185.585 93.1145L180.134 76.338L184.471 74.9287Z" fill="#1E4364"/>
<path d="M184.471 74.9287L185.422 74.6197L185.113 73.6686L184.162 73.9777L184.471 74.9287ZM192.978 95.8015L192.535 96.6981L192.546 96.7033L192.978 95.8015ZM201.803 92.9336L200.924 92.458L200.918 92.4687L201.803 92.9336ZM196.454 71.0348L196.145 70.0838L195.194 70.3928L195.503 71.3439L196.454 71.0348ZM200.791 69.6256L201.742 69.3166L201.433 68.3655L200.482 68.6746L200.791 69.6256ZM206.615 92.3376L207.585 92.581L206.615 92.3376ZM203.936 96.9091L203.254 96.1785L203.936 96.9091ZM193.513 100.296L193.384 101.288L193.39 101.289L193.513 100.296ZM188.735 98.1475L188.084 98.9067L188.735 98.1475ZM180.134 76.3379L179.825 75.3869L178.874 75.6959L179.183 76.647L180.134 76.3379ZM183.52 75.2378L188.996 92.0904L190.898 91.4723L185.422 74.6197L183.52 75.2378ZM188.996 92.0904C189.698 94.2507 190.844 95.8626 192.535 96.6981L193.421 94.905C192.373 94.3873 191.498 93.3191 190.898 91.4723L188.996 92.0904ZM192.546 96.7033C194.231 97.5108 196.143 97.5067 198.194 96.8403L197.576 94.9382C195.873 95.4915 194.514 95.4288 193.41 94.8997L192.546 96.7033ZM198.194 96.8403C200.265 96.1674 201.823 95.0467 202.689 93.3986L200.918 92.4687C200.363 93.5253 199.309 94.3749 197.576 94.9382L198.194 96.8403ZM202.683 93.4092C203.591 91.7306 203.585 89.7449 202.881 87.5784L200.979 88.1965C201.577 90.0371 201.487 91.4155 200.924 92.4581L202.683 93.4092ZM202.881 87.5784L197.405 70.7258L195.503 71.3439L200.979 88.1965L202.881 87.5784ZM196.763 71.9859L201.1 70.5767L200.482 68.6746L196.145 70.0838L196.763 71.9859ZM199.84 69.9347L205.291 86.7112L207.193 86.0931L201.742 69.3166L199.84 69.9347ZM205.291 86.7112C205.946 88.7277 206.042 90.5117 205.645 92.0941L207.585 92.581C208.092 90.561 207.939 88.388 207.193 86.0931L205.291 86.7112ZM205.645 92.0941C205.239 93.7122 204.444 95.0659 203.254 96.1785L204.619 97.6396C206.096 96.2594 207.087 94.5654 207.585 92.581L205.645 92.0941ZM203.254 96.1785C202.037 97.3157 200.55 98.1775 198.774 98.7548L199.392 100.657C201.42 99.9979 203.169 98.9953 204.619 97.6396L203.254 96.1785ZM198.774 98.7548C196.998 99.332 195.289 99.5086 193.636 99.3037L193.39 101.289C195.36 101.533 197.364 101.316 199.392 100.657L198.774 98.7548ZM193.642 99.3045C192.054 99.0975 190.641 98.4645 189.386 97.3883L188.084 98.9067C189.627 100.23 191.4 101.029 193.384 101.288L193.642 99.3045ZM189.386 97.3883C188.155 96.333 187.193 94.8265 186.537 92.8054L184.634 93.4235C185.379 95.7139 186.517 97.5627 188.084 98.9067L189.386 97.3883ZM186.537 92.8054L181.085 76.0289L179.183 76.647L184.634 93.4235L186.537 92.8054ZM180.443 77.289L184.78 75.8798L184.162 73.9777L179.825 75.3869L180.443 77.289Z" fill="#1E4364"/>
<path d="M212.297 67.7967L216.261 74.9292L224.652 70.2655L226.459 73.5171L218.068 78.1807L222.207 85.6278L231.647 80.3812L233.454 83.6328L220.028 91.0946L206.504 66.7604L219.93 59.2986L221.737 62.5501L212.297 67.7967Z" fill="#1E4364"/>
<path d="M212.297 67.7967L211.811 66.9227L210.937 67.4084L211.423 68.2825L212.297 67.7967ZM216.261 74.9292L215.387 75.415L215.873 76.289L216.747 75.8032L216.261 74.9292ZM224.652 70.2655L225.526 69.7797L225.04 68.9057L224.166 69.3915L224.652 70.2655ZM226.459 73.5171L226.945 74.3911L227.819 73.9054L227.333 73.0313L226.459 73.5171ZM218.068 78.1807L217.582 77.3066L216.708 77.7924L217.194 78.6665L218.068 78.1807ZM222.207 85.6278L221.333 86.1136L221.819 86.9877L222.693 86.5019L222.207 85.6278ZM231.647 80.3812L232.521 79.8954L232.035 79.0214L231.161 79.5071L231.647 80.3812ZM233.454 83.6328L233.94 84.5068L234.814 84.021L234.328 83.147L233.454 83.6328ZM220.028 91.0946L219.154 91.5804L219.64 92.4545L220.514 91.9687L220.028 91.0946ZM206.504 66.7604L206.018 65.8863L205.144 66.3721L205.63 67.2462L206.504 66.7604ZM219.93 59.2986L220.804 58.8128L220.318 57.9387L219.444 58.4245L219.93 59.2986ZM221.737 62.5501L222.223 63.4242L223.097 62.9384L222.611 62.0643L221.737 62.5501ZM211.423 68.2825L215.387 75.415L217.135 74.4434L213.171 67.3109L211.423 68.2825ZM216.747 75.8032L225.138 71.1396L224.166 69.3915L215.775 74.0551L216.747 75.8032ZM223.778 70.7513L225.585 74.0029L227.333 73.0313L225.526 69.7797L223.778 70.7513ZM225.973 72.643L217.582 77.3066L218.554 79.0548L226.945 74.3911L225.973 72.643ZM217.194 78.6665L221.333 86.1136L223.081 85.142L218.942 77.6949L217.194 78.6665ZM222.693 86.5019L232.133 81.2553L231.161 79.5071L221.721 84.7537L222.693 86.5019ZM230.773 80.867L232.58 84.1186L234.328 83.147L232.521 79.8954L230.773 80.867ZM232.968 82.7587L219.543 90.2205L220.514 91.9687L233.94 84.5068L232.968 82.7587ZM220.903 90.6088L207.378 66.2746L205.63 67.2462L219.154 91.5804L220.903 90.6088ZM206.99 67.6345L220.415 60.1727L219.444 58.4245L206.018 65.8863L206.99 67.6345ZM219.056 59.7844L220.863 63.0359L222.611 62.0643L220.804 58.8128L219.056 59.7844ZM221.251 61.6761L211.811 66.9227L212.783 68.6708L222.223 63.4242L221.251 61.6761Z" fill="#1E4364"/>
<path d="M243.812 71.7107L251.194 65.8908L253.472 68.7807L242.51 77.4238L225.298 55.5928L228.879 52.7695L243.812 71.7107Z" fill="#1E4364"/>
<path d="M243.812 71.7107L243.027 72.3298L243.646 73.1151L244.431 72.496L243.812 71.7107ZM251.194 65.8908L251.979 65.2717L251.36 64.4864L250.575 65.1055L251.194 65.8908ZM253.472 68.7807L254.092 69.566L254.877 68.9468L254.258 68.1616L253.472 68.7807ZM242.51 77.4238L241.724 78.0429L242.344 78.8282L243.129 78.209L242.51 77.4238ZM225.298 55.5928L224.679 54.8075L223.893 55.4266L224.513 56.2119L225.298 55.5928ZM228.879 52.7695L229.664 52.1504L229.045 51.3651L228.26 51.9842L228.879 52.7695ZM244.431 72.496L251.813 66.6761L250.575 65.1055L243.193 70.9254L244.431 72.496ZM250.409 66.51L252.687 69.3998L254.258 68.1616L251.979 65.2717L250.409 66.51ZM252.853 67.9954L241.891 76.6385L243.129 78.209L254.092 69.566L252.853 67.9954ZM243.295 76.8046L226.083 54.9736L224.513 56.2119L241.724 78.0429L243.295 76.8046ZM225.917 56.3781L229.498 53.5548L228.26 51.9842L224.679 54.8075L225.917 56.3781ZM228.094 53.3887L243.027 72.3298L244.598 71.0915L229.664 52.1504L228.094 53.3887Z" fill="#1E4364"/>
<path d="M260.695 56.4982L267.12 49.6371L269.806 52.1526L260.264 62.342L239.973 43.3394L243.09 40.011L260.695 56.4982Z" fill="#1E4364"/>
<path d="M260.695 56.4982L260.011 57.2281L260.741 57.9117L261.425 57.1818L260.695 56.4982ZM267.12 49.6371L267.804 48.9072L267.074 48.2237L266.39 48.9536L267.12 49.6371ZM269.806 52.1526L270.536 52.8361L271.22 52.1062L270.49 51.4227L269.806 52.1526ZM260.264 62.342L259.581 63.0719L260.31 63.7555L260.994 63.0256L260.264 62.342ZM239.973 43.3394L239.243 42.6558L238.559 43.3857L239.289 44.0693L239.973 43.3394ZM243.09 40.011L243.773 39.2811L243.043 38.5975L242.36 39.3274L243.09 40.011ZM261.425 57.1818L267.85 50.3207L266.39 48.9536L259.965 55.8147L261.425 57.1818ZM266.437 50.367L269.123 52.8825L270.49 51.4227L267.804 48.9072L266.437 50.367ZM269.077 51.469L259.534 61.6585L260.994 63.0256L270.536 52.8361L269.077 51.469ZM260.948 61.6121L240.656 42.6094L239.289 44.0693L259.581 63.0719L260.948 61.6121ZM240.703 44.0229L243.82 40.6945L242.36 39.3274L239.243 42.6558L240.703 44.0229ZM242.406 40.7409L260.011 57.2281L261.379 55.7683L243.773 39.2811L242.406 40.7409Z" fill="#1E4364"/>
<path d="M280.076 27.6883L273.801 37.4922L277.507 42.2386L274.941 46.2478L256.862 22.851L259.708 18.4039L288.526 25.0229L285.938 29.0658L280.076 27.6883ZM276.253 26.761L262.934 23.6031L271.358 34.4087L276.253 26.761Z" fill="#1E4364"/>
<path d="M280.076 27.6883L280.305 26.7148L279.615 26.5529L279.234 27.1492L280.076 27.6883ZM273.801 37.4922L272.959 36.9531L272.577 37.5495L273.013 38.1076L273.801 37.4922ZM277.507 42.2386L278.349 42.7777L278.731 42.1813L278.295 41.6232L277.507 42.2386ZM274.941 46.2478L274.15 46.8592L275.018 47.9827L275.783 46.7869L274.941 46.2478ZM256.862 22.851L256.019 22.3119L255.64 22.9051L256.07 23.4624L256.862 22.851ZM259.708 18.4039L259.932 17.4293L259.245 17.2716L258.866 17.8648L259.708 18.4039ZM288.526 25.0229L289.368 25.562L290.133 24.3661L288.749 24.0483L288.526 25.0229ZM285.938 29.0658L285.709 30.0392L286.399 30.2012L286.78 29.6048L285.938 29.0658ZM276.253 26.761L277.095 27.3001L277.855 26.1131L276.483 25.788L276.253 26.761ZM262.934 23.6031L263.165 22.6301L260.396 21.9736L262.145 24.218L262.934 23.6031ZM271.358 34.4087L270.569 35.0235L271.438 36.1382L272.2 34.9478L271.358 34.4087ZM279.234 27.1492L272.959 36.9531L274.643 38.0312L280.918 28.2274L279.234 27.1492ZM273.013 38.1076L276.719 42.854L278.295 41.6232L274.589 36.8768L273.013 38.1076ZM276.665 41.6996L274.099 45.7087L275.783 46.7869L278.349 42.7777L276.665 41.6996ZM275.732 45.6363L257.653 22.2395L256.07 23.4624L274.15 46.8592L275.732 45.6363ZM257.704 23.3901L260.55 18.943L258.866 17.8648L256.019 22.3119L257.704 23.3901ZM259.484 19.3785L288.302 25.9976L288.749 24.0483L259.932 17.4293L259.484 19.3785ZM287.683 24.4839L285.096 28.5267L286.78 29.6048L289.368 25.562L287.683 24.4839ZM286.167 28.0923L280.305 26.7148L279.847 28.6618L285.709 30.0392L286.167 28.0923ZM276.483 25.788L263.165 22.6301L262.703 24.5762L276.022 27.7341L276.483 25.788ZM262.145 24.218L270.569 35.0235L272.146 33.7939L263.723 22.9883L262.145 24.218ZM272.2 34.9478L277.095 27.3001L275.41 26.2219L270.516 33.8696L272.2 34.9478Z" fill="#1E4364"/>
</svg>
