<svg width="193" height="82" viewBox="0 0 193 82" fill="none" xmlns="http://www.w3.org/2000/svg">
<path d="M30.7316 42.1192C30.0733 43.2788 29.1647 44.2041 28.0056 44.8954C26.8698 45.5998 25.5478 45.9838 24.0397 46.0476C22.5548 46.1246 21.0192 45.8047 19.4329 45.0881L17.8333 47.9057L15.5722 46.6221L17.1718 43.8045C15.1104 42.3582 13.7363 40.6736 13.0496 38.7505C12.3628 36.8274 12.5592 34.915 13.6388 33.0134L17.8826 35.4227C17.4387 36.3666 17.3007 37.2848 17.4686 38.1774C17.6496 39.0468 18.1695 39.8326 19.0281 40.5347L23.3727 32.8819C22.0428 31.6056 21.0027 30.4939 20.2525 29.5467C19.5155 28.5763 19.0493 27.453 18.8539 26.1768C18.6816 24.9138 19.03 23.517 19.8989 21.9865C20.9916 20.0617 22.566 18.855 24.6219 18.3663C26.691 17.8544 28.8748 18.1129 31.1732 19.1417L32.7727 16.3241L35.0338 17.6077L33.4342 20.4253C35.3696 21.7694 36.6359 23.3469 37.233 25.1578C37.8665 26.9587 37.7181 28.8676 36.7877 30.8845L32.5439 28.4752C32.8824 27.7169 32.9662 26.9211 32.7952 26.0881C32.6373 25.2319 32.2118 24.469 31.5186 23.7995L27.2531 31.3131C28.5962 32.5663 29.6362 33.678 30.3732 34.6484C31.1234 35.5955 31.5846 36.7006 31.7568 37.9637C31.9422 39.2035 31.6005 40.5887 30.7316 42.1192ZM24.0525 24.0685C23.5127 25.0193 23.3697 25.9194 23.6234 26.7687C23.9004 27.6313 24.4685 28.5211 25.3277 29.4382L29.3168 22.4115C28.2538 21.9614 27.2497 21.8666 26.3045 22.1273C25.3824 22.4011 24.6318 23.0482 24.0525 24.0685ZM21.2892 41.8183C22.4017 42.2352 23.4321 42.2836 24.3805 41.9634C25.3421 41.62 26.0862 40.9845 26.6128 40.0569C27.1394 39.1293 27.2576 38.2459 26.9675 37.4065C26.7138 36.5572 26.1573 35.674 25.298 34.7569L21.2892 41.8183Z" fill="#1E4364"/>
<path d="M28.0056 44.8954L27.4934 44.0365L27.486 44.0409L27.4786 44.0455L28.0056 44.8954ZM24.0397 46.0476L23.9975 45.0485L23.988 45.049L24.0397 46.0476ZM19.4329 45.0881L19.8445 44.1768L19.0134 43.8014L18.5632 44.5944L19.4329 45.0881ZM17.8333 47.9057L17.3396 48.7753L18.2092 49.269L18.7029 48.3994L17.8333 47.9057ZM15.5722 46.6221L14.7026 46.1284L14.2089 46.998L15.0785 47.4917L15.5722 46.6221ZM17.1718 43.8045L18.0414 44.2982L18.4901 43.5078L17.7461 42.9859L17.1718 43.8045ZM13.0496 38.7505L12.1078 39.0868L13.0496 38.7505ZM13.6388 33.0134L14.1325 32.1438L13.2628 31.6501L12.7691 32.5197L13.6388 33.0134ZM17.8826 35.4227L18.7875 35.8482L19.1816 35.0102L18.3763 34.553L17.8826 35.4227ZM17.4686 38.1774L16.4858 38.3623L16.4876 38.3718L16.4896 38.3813L17.4686 38.1774ZM19.0281 40.5347L18.3951 41.3088L19.3126 42.0591L19.8978 41.0284L19.0281 40.5347ZM23.3727 32.8819L24.2423 33.3756L24.6264 32.6991L24.0651 32.1604L23.3727 32.8819ZM20.2525 29.5467L19.4562 30.1515L19.4623 30.1596L19.4686 30.1675L20.2525 29.5467ZM18.8539 26.1768L17.863 26.312L17.8642 26.3201L17.8654 26.3282L18.8539 26.1768ZM24.6219 18.3663L24.8532 19.3392L24.8621 19.337L24.6219 18.3663ZM31.1732 19.1417L30.7646 20.0545L31.5941 20.4258L32.0428 19.6354L31.1732 19.1417ZM32.7727 16.3241L33.2664 15.4545L32.3968 14.9608L31.9031 15.8304L32.7727 16.3241ZM35.0338 17.6077L35.9034 18.1014L36.3971 17.2318L35.5275 16.7381L35.0338 17.6077ZM33.4342 20.4253L32.5646 19.9316L32.1137 20.7258L32.8638 21.2467L33.4342 20.4253ZM37.233 25.1578L36.2833 25.471L36.2864 25.4803L36.2897 25.4896L37.233 25.1578ZM36.7877 30.8845L36.294 31.7541L37.2401 32.2912L37.6957 31.3034L36.7877 30.8845ZM32.5439 28.4752L31.6307 28.0676L31.2607 28.8967L32.0502 29.3449L32.5439 28.4752ZM32.7952 26.0881L31.8118 26.2694L31.8136 26.2793L31.8156 26.2892L32.7952 26.0881ZM31.5186 23.7995L32.2134 23.0802L31.2857 22.1843L30.649 23.3058L31.5186 23.7995ZM27.2531 31.3131L26.3834 30.8194L25.9938 31.5058L26.5709 32.0443L27.2531 31.3131ZM30.3732 34.6484L29.5769 35.2532L29.583 35.2613L29.5893 35.2692L30.3732 34.6484ZM31.7568 37.9637L30.7659 38.0988L30.7678 38.1116L31.7568 37.9637ZM23.6235 26.7687L22.6653 27.055L22.6682 27.0648L22.6713 27.0745L23.6235 26.7687ZM25.3277 29.4382L24.598 30.1219L25.5267 31.1132L26.1974 29.9319L25.3277 29.4382ZM29.3168 22.4115L30.1865 22.9052L30.7409 21.9286L29.7068 21.4907L29.3168 22.4115ZM26.3045 22.1273L26.0386 21.1632L26.0292 21.1659L26.0198 21.1686L26.3045 22.1273ZM21.2892 41.8183L20.4195 41.3246L19.8411 42.3435L20.9382 42.7547L21.2892 41.8183ZM24.3805 41.9634L24.7004 42.9109L24.7087 42.9081L24.7168 42.9052L24.3805 41.9634ZM26.9675 37.4065L26.0094 37.6928L26.0155 37.7132L26.0224 37.7332L26.9675 37.4065ZM25.298 34.7569L26.0278 34.0732L25.099 33.0819L24.4284 34.2632L25.298 34.7569ZM29.8619 41.6255C29.2903 42.6325 28.5056 43.4329 27.4934 44.0365L28.5178 45.7542C29.8237 44.9754 30.8564 43.925 31.6012 42.6129L29.8619 41.6255ZM27.4786 44.0455C26.5069 44.6481 25.3564 44.991 23.9975 45.0485L24.082 47.0467C25.7392 46.9767 27.2327 46.5514 28.5327 45.7452L27.4786 44.0455ZM23.988 45.049C22.6874 45.1163 21.3104 44.8389 19.8445 44.1768L19.0212 45.9994C20.728 46.7705 22.4222 47.1328 24.0915 47.0463L23.988 45.049ZM18.5632 44.5944L16.9636 47.412L18.7029 48.3994L20.3025 45.5818L18.5632 44.5944ZM18.327 47.0361L16.0659 45.7525L15.0785 47.4917L17.3396 48.7753L18.327 47.0361ZM16.4419 47.1158L18.0414 44.2982L16.3022 43.3108L14.7026 46.1284L16.4419 47.1158ZM17.7461 42.9859C15.8142 41.6304 14.5937 40.1009 13.9913 38.4141L12.1078 39.0868C12.879 41.2462 14.4067 43.086 16.5975 44.6231L17.7461 42.9859ZM13.9913 38.4141C13.41 36.7863 13.5609 35.176 14.5084 33.5071L12.7691 32.5197C11.5575 34.654 11.3156 36.8684 12.1078 39.0868L13.9913 38.4141ZM13.1451 33.883L17.3889 36.2923L18.3763 34.553L14.1325 32.1438L13.1451 33.883ZM16.9776 34.9971C16.4581 36.102 16.2735 37.2334 16.4858 38.3623L18.4514 37.9926C18.3279 37.3363 18.4193 36.6312 18.7875 35.8482L16.9776 34.9971ZM16.4896 38.3813C16.728 39.526 17.4045 40.4988 18.3951 41.3088L19.6611 39.7605C18.9345 39.1663 18.5713 38.5677 18.4476 37.9735L16.4896 38.3813ZM19.8978 41.0284L24.2423 33.3756L22.5031 32.3882L18.1585 40.041L19.8978 41.0284ZM24.0651 32.1604C22.7528 30.901 21.7479 29.8241 21.0364 28.9258L19.4686 30.1675C20.2575 31.1636 21.3327 32.3102 22.6803 33.6034L24.0651 32.1604ZM21.0489 28.9418C20.4187 28.1122 20.0141 27.147 19.8424 26.0255L17.8654 26.3282C18.0845 27.7591 18.6123 29.0404 19.4562 30.1515L21.0489 28.9418ZM19.8447 26.0417C19.7115 25.0652 19.9674 23.8914 20.7685 22.4802L19.0293 21.4928C18.0926 23.1427 17.6517 24.7625 17.863 26.312L19.8447 26.0417ZM20.7685 22.4802C21.7315 20.7839 23.0814 19.7603 24.8532 19.3392L24.3907 17.3934C22.0505 17.9496 20.2517 19.3395 19.0293 21.4928L20.7685 22.4802ZM24.8621 19.337C26.677 18.888 28.6315 19.0996 30.7646 20.0545L31.5817 18.229C29.118 17.1262 26.7051 16.8208 24.3818 17.3955L24.8621 19.337ZM32.0428 19.6354L33.6424 16.8178L31.9031 15.8304L30.3035 18.648L32.0428 19.6354ZM32.279 17.1937L34.5401 18.4774L35.5275 16.7381L33.2664 15.4545L32.279 17.1937ZM34.1642 17.114L32.5646 19.9316L34.3038 20.919L35.9034 18.1014L34.1642 17.114ZM32.8638 21.2467C34.6638 22.4968 35.7688 23.9107 36.2833 25.471L38.1827 24.8446C37.5029 22.7831 36.0754 21.0421 34.0046 19.604L32.8638 21.2467ZM36.2897 25.4896C36.8228 27.0052 36.7203 28.6433 35.8796 30.4656L37.6957 31.3034C38.7159 29.0918 38.9102 26.9121 38.1764 24.8259L36.2897 25.4896ZM37.2814 30.0149L33.0376 27.6056L32.0502 29.3449L36.294 31.7541L37.2814 30.0149ZM33.457 28.8829C33.883 27.9287 33.9868 26.9197 33.7748 25.887L31.8156 26.2892C31.9457 26.9226 31.8819 27.505 31.6307 28.0676L33.457 28.8829ZM33.7786 25.9068C33.5789 24.8237 33.0397 23.8784 32.2134 23.0802L30.8239 24.5188C31.3839 25.0597 31.6957 25.64 31.8118 26.2694L33.7786 25.9068ZM30.649 23.3058L26.3834 30.8194L28.1227 31.8068L32.3883 24.2932L30.649 23.3058ZM26.5709 32.0443C27.891 33.276 28.8868 34.3447 29.5769 35.2532L31.1696 34.0435C30.3856 33.0113 29.3013 31.8565 27.9353 30.582L26.5709 32.0443ZM29.5893 35.2692C30.2221 36.0681 30.6166 37.0031 30.766 38.0988L32.7477 37.8286C32.5526 36.3982 32.0248 35.123 31.1571 34.0275L29.5893 35.2692ZM30.7678 38.1116C30.9091 39.0562 30.6641 40.2125 29.8619 41.6255L31.6012 42.6129C32.5368 40.9649 32.9754 39.3508 32.7459 37.8158L30.7678 38.1116ZM23.1828 23.5748C22.542 24.7036 22.316 25.8858 22.6653 27.055L24.5816 26.4825C24.4234 25.953 24.4834 25.3351 24.9221 24.5622L23.1828 23.5748ZM22.6713 27.0745C23.0075 28.1214 23.6744 29.1361 24.598 30.1219L26.0575 28.7545C25.2626 27.9061 24.7933 27.1411 24.5756 26.463L22.6713 27.0745ZM26.1974 29.9319L30.1865 22.9052L28.4472 21.9178L24.4581 28.9445L26.1974 29.9319ZM29.7068 21.4907C28.4746 20.9689 27.2381 20.8325 26.0386 21.1632L26.5703 23.0913C27.2613 22.9007 28.0331 22.9539 28.9269 23.3324L29.7068 21.4907ZM26.0198 21.1686C24.7978 21.5315 23.86 22.382 23.1828 23.5748L24.9221 24.5622C25.4035 23.7143 25.967 23.2706 26.5891 23.0859L26.0198 21.1686ZM20.9382 42.7547C22.2244 43.2367 23.4948 43.3179 24.7004 42.9109L24.0607 41.016C23.3695 41.2493 22.579 41.2338 21.6401 40.8819L20.9382 42.7547ZM24.7168 42.9052C25.9149 42.4773 26.8432 41.6765 27.4824 40.5506L25.7431 39.5632C25.3291 40.2926 24.7693 40.7627 24.0442 41.0217L24.7168 42.9052ZM27.4824 40.5506C28.1197 39.428 28.3155 38.2453 27.9127 37.0799L26.0224 37.7332C26.1998 38.2465 26.1591 38.8306 25.7431 39.5632L27.4824 40.5506ZM27.9257 37.1203C27.613 36.0738 26.9515 35.0591 26.0278 34.0732L24.5683 35.4406C25.363 36.2888 25.8145 37.0406 26.0094 37.6928L27.9257 37.1203ZM24.4284 34.2632L20.4195 41.3246L22.1588 42.312L26.1676 35.2506L24.4284 34.2632Z" fill="#1E4364"/>
<path d="M46.7404 30.4874L48.1656 26.5791L55.9821 29.4295L45.9922 56.8249L41.6706 55.2489L50.2353 31.7618L46.7404 30.4874Z" fill="#1E4364"/>
<path d="M46.7404 30.4874L45.801 30.1448L45.4584 31.0843L46.3979 31.4269L46.7404 30.4874ZM48.1656 26.5791L48.5082 25.6396L47.5687 25.297L47.2261 26.2365L48.1656 26.5791ZM55.9821 29.4295L56.9216 29.7721L57.2642 28.8326L56.3247 28.49L55.9821 29.4295ZM45.9922 56.8249L45.6496 57.7643L46.5891 58.1069L46.9317 57.1674L45.9922 56.8249ZM41.6706 55.2489L40.7311 54.9063L40.3885 55.8458L41.328 56.1884L41.6706 55.2489ZM50.2353 31.7618L51.1748 32.1044L51.5174 31.1649L50.5779 30.8223L50.2353 31.7618ZM47.6799 30.83L49.1051 26.9217L47.2261 26.2365L45.801 30.1448L47.6799 30.83ZM47.823 27.5186L55.6395 30.369L56.3247 28.49L48.5082 25.6396L47.823 27.5186ZM55.0426 29.0869L45.0527 56.4823L46.9317 57.1674L56.9216 29.7721L55.0426 29.0869ZM46.3348 55.8854L42.0131 54.3095L41.328 56.1884L45.6496 57.7643L46.3348 55.8854ZM42.61 55.5915L51.1748 32.1044L49.2958 31.4192L40.7311 54.9063L42.61 55.5915ZM50.5779 30.8223L47.083 29.5479L46.3979 31.4269L49.8927 32.7013L50.5779 30.8223Z" fill="#1E4364"/>
<path d="M59.8104 45.7897C60.6648 41.2562 62.0914 37.8617 64.0904 35.6062C66.1205 33.3295 69.0092 32.5442 72.7566 33.2504C76.504 33.9567 78.8956 35.7371 79.9315 38.5916C80.9986 41.4249 81.1049 45.1083 80.2506 49.6419C79.3863 54.2278 77.9366 57.6723 75.9016 59.9752C73.8977 62.2569 71.0221 63.0446 67.2747 62.3384C63.5273 61.6322 61.1226 59.8493 60.0605 56.9898C59.0295 54.109 58.9461 50.3757 59.8104 45.7897ZM75.8481 48.8122C76.2481 46.6895 76.4423 44.8673 76.4306 43.3455C76.4451 41.8286 76.1195 40.5325 75.4537 39.4573C74.793 38.3559 73.6371 37.6496 71.9862 37.3385C70.3352 37.0273 69.0016 37.2645 67.9852 38.0498C66.9738 38.809 66.1857 39.8951 65.6209 41.3083C65.0822 42.7264 64.6129 44.4968 64.2129 46.6194C63.798 48.8207 63.5809 50.6928 63.5614 52.2359C63.542 53.779 63.8651 55.0882 64.5308 56.1634C65.2228 57.2436 66.3942 57.9392 68.0451 58.2504C69.6961 58.5615 71.0273 58.3375 72.0387 57.5783C73.0763 56.8241 73.8669 55.7249 74.4105 54.2805C74.954 52.8362 75.4332 51.0134 75.8481 48.8122Z" fill="#1E4364"/>
<path d="M64.0904 35.6062L63.344 34.9407L63.342 34.943L64.0904 35.6062ZM79.9315 38.5916L78.9915 38.9328L78.9957 38.9441L79.9315 38.5916ZM75.9016 59.9752L75.1522 59.313L75.1502 59.3153L75.9016 59.9752ZM60.0605 56.9898L59.1189 57.3268L59.123 57.338L60.0605 56.9898ZM76.4306 43.3455L75.4306 43.3359L75.4305 43.3446L75.4306 43.3532L76.4306 43.3455ZM75.4537 39.4573L74.5961 39.9718L74.6035 39.9837L75.4537 39.4573ZM67.9852 38.0498L68.5856 38.8497L68.5967 38.8411L67.9852 38.0498ZM65.6209 41.3083L64.6923 40.9372L64.6891 40.9452L64.686 40.9532L65.6209 41.3083ZM63.5614 52.2359L64.5614 52.2485L64.5614 52.2485L63.5614 52.2359ZM64.5308 56.1634L63.6806 56.6898L63.6847 56.6963L63.6888 56.7028L64.5308 56.1634ZM72.0387 57.5783L71.4507 56.7694L71.4445 56.7739L71.4384 56.7786L72.0387 57.5783ZM74.4105 54.2805L75.3464 54.6328L74.4105 54.2805ZM60.7931 45.9749C61.6304 41.5322 63.0072 38.3361 64.8388 36.2695L63.342 34.943C61.1757 37.3873 59.6992 40.9802 58.8277 45.6045L60.7931 45.9749ZM64.8368 36.2717C66.5731 34.3245 69.0691 33.5731 72.5714 34.2331L72.9418 32.2677C68.9494 31.5153 65.6679 32.3345 63.344 34.9407L64.8368 36.2717ZM72.5714 34.2331C76.0743 34.8933 78.108 36.4982 78.9915 38.9328L80.8716 38.2505C79.6832 34.9759 76.9337 33.02 72.9418 32.2677L72.5714 34.2331ZM78.9957 38.9441C79.9728 41.5384 80.1047 45.0161 79.2679 49.4567L81.2333 49.8271C82.1052 45.2006 82.0244 41.3115 80.8674 38.2392L78.9957 38.9441ZM79.2679 49.4567C78.421 53.9503 77.0214 57.1978 75.1523 59.313L76.651 60.6374C78.8518 58.1468 80.3516 54.5053 81.2333 49.8271L79.2679 49.4567ZM75.1502 59.3153C73.4412 61.2613 70.9628 62.0158 67.4599 61.3557L67.0895 63.3211C71.0814 64.0734 74.3542 63.2525 76.653 60.6351L75.1502 59.3153ZM67.4599 61.3557C63.9576 60.6956 61.9063 59.0873 60.9979 56.6416L59.123 57.338C60.3389 60.6113 63.0971 62.5687 67.0895 63.3211L67.4599 61.3557ZM61.002 56.6528C60.0544 54.005 59.9458 50.4707 60.7931 45.9749L58.8277 45.6045C57.9464 50.2806 58.0046 54.213 59.1189 57.3268L61.002 56.6528ZM76.8308 48.9974C77.2382 46.8353 77.4429 44.945 77.4305 43.3378L75.4306 43.3532C75.4416 44.7897 75.258 46.5438 74.8654 48.627L76.8308 48.9974ZM77.4305 43.3551C77.4465 41.6871 77.0876 40.1966 76.304 38.9309L74.6035 39.9837C75.1513 40.8685 75.4437 41.9702 75.4306 43.3359L77.4305 43.3551ZM76.3113 38.9429C75.4616 37.5265 74.0114 36.7025 72.1714 36.3558L71.801 38.3212C73.2629 38.5967 74.1244 39.1853 74.5962 39.9718L76.3113 38.9429ZM72.1714 36.3558C70.3314 36.009 68.6807 36.2486 67.3738 37.2585L68.5967 38.8411C69.3224 38.2803 70.3391 38.0457 71.801 38.3212L72.1714 36.3558ZM67.3849 37.25C66.1995 38.1398 65.3112 39.3885 64.6923 40.9372L66.5494 41.6794C67.0601 40.4017 67.7481 39.4781 68.5855 38.8496L67.3849 37.25ZM64.686 40.9532C64.1197 42.4441 63.6369 44.2758 63.2302 46.4342L65.1956 46.8046C65.5889 44.7178 66.0447 43.0087 66.5557 41.6634L64.686 40.9532ZM63.2302 46.4342C62.8089 48.6694 62.5819 50.6028 62.5615 52.2233L64.5614 52.2485C64.5798 50.7828 64.7871 48.972 65.1956 46.8046L63.2302 46.4342ZM62.5615 52.2233C62.5402 53.9146 62.8947 55.4204 63.6806 56.6898L65.3811 55.637C64.8356 54.756 64.5438 53.6435 64.5614 52.2485L62.5615 52.2233ZM63.6888 56.7028C64.5715 58.0808 66.0263 58.8875 67.8599 59.2331L68.2303 57.2677C66.7621 56.991 65.874 56.4064 65.3729 55.624L63.6888 56.7028ZM67.8599 59.2331C69.6917 59.5783 71.3358 59.3562 72.639 58.3781L71.4384 56.7786C70.7187 57.3187 69.7005 57.5447 68.2303 57.2677L67.8599 59.2331ZM72.6266 58.3872C73.852 57.4965 74.7481 56.2224 75.3464 54.6328L73.4745 53.9283C72.9857 55.2273 72.3006 56.1517 71.4507 56.7694L72.6266 58.3872ZM75.3464 54.6328C75.9172 53.116 76.4095 51.2325 76.8308 48.9974L74.8654 48.627C74.4569 50.7943 73.9908 52.5564 73.4745 53.9283L75.3464 54.6328Z" fill="#1E4364"/>
<path d="M90.4212 65.3096C89.5951 65.2799 88.9123 64.9752 88.3728 64.3954C87.8333 63.8156 87.5784 63.1127 87.6081 62.2866C87.6378 61.4604 87.9425 60.7776 88.5223 60.2381C89.102 59.6986 89.805 59.4437 90.6311 59.4734C91.4306 59.5021 92.1001 59.8064 92.6396 60.3862C93.1791 60.9659 93.434 61.6689 93.4043 62.495C93.3746 63.3211 93.0699 64.004 92.4901 64.5435C91.9103 65.083 91.2207 65.3384 90.4212 65.3096Z" fill="#1E4364"/>
<path d="M88.3728 64.3954L89.1048 63.7142L89.1048 63.7142L88.3728 64.3954ZM88.5223 60.2381L89.2035 60.9702L88.5223 60.2381ZM92.6396 60.3862L91.9076 61.0674L92.6396 60.3862ZM92.4901 64.5435L91.8089 63.8114L92.4901 64.5435ZM90.4572 64.3103C89.8831 64.2896 89.455 64.0905 89.1048 63.7142L87.6407 65.0766C88.3695 65.8598 89.3071 66.2702 90.3853 66.309L90.4572 64.3103ZM89.1048 63.7142C88.7546 63.3378 88.5868 62.8965 88.6074 62.3225L86.6087 62.2506C86.5699 63.3289 86.9119 64.2934 87.6407 65.0766L89.1048 63.7142ZM88.6074 62.3225C88.6281 61.7485 88.8272 61.3204 89.2035 60.9702L87.841 59.506C87.0578 60.2349 86.6475 61.1724 86.6087 62.2506L88.6074 62.3225ZM89.2035 60.9702C89.5798 60.62 90.0211 60.4521 90.5952 60.4727L90.6671 58.474C89.5888 58.4353 88.6242 58.7772 87.841 59.506L89.2035 60.9702ZM90.5952 60.4727C91.1326 60.4921 91.5508 60.684 91.9076 61.0674L93.3717 59.7049C92.6494 58.9288 91.7286 58.5122 90.6671 58.474L90.5952 60.4727ZM91.9076 61.0674C92.2577 61.4437 92.4256 61.885 92.405 62.4591L94.4037 62.531C94.4424 61.4527 94.1005 60.4881 93.3717 59.7049L91.9076 61.0674ZM92.405 62.4591C92.3843 63.0331 92.1852 63.4612 91.8089 63.8114L93.1713 65.2755C93.9545 64.5467 94.3649 63.6092 94.4037 62.531L92.405 62.4591ZM91.8089 63.8114C91.4255 64.1682 90.9946 64.3296 90.4572 64.3103L90.3853 66.309C91.4468 66.3471 92.3952 65.9978 93.1713 65.2755L91.8089 63.8114Z" fill="#1E4364"/>
<path d="M101.615 50.4704C101.088 45.8872 101.446 42.2225 102.687 39.4762C103.952 36.7003 106.478 35.0948 110.267 34.6596C114.055 34.2244 116.867 35.2167 118.702 37.6364C120.56 40.0266 121.752 43.5133 122.279 48.0965C122.811 52.7327 122.447 56.4519 121.185 59.2542C119.947 62.027 117.433 63.631 113.645 64.0662C109.857 64.5014 107.032 63.5107 105.17 61.094C103.333 58.6478 102.147 55.1066 101.615 50.4704ZM117.828 48.6078C117.582 46.4619 117.227 44.6639 116.765 43.2138C116.33 41.7607 115.635 40.6192 114.681 39.7893C113.724 38.933 112.411 38.6007 110.741 38.7924C109.072 38.9842 107.869 39.6056 107.131 40.6567C106.389 41.6813 105.958 42.9522 105.837 44.4692C105.743 45.9832 105.819 47.8132 106.065 49.9591C106.321 52.1844 106.668 54.0369 107.106 55.5166C107.545 56.9962 108.241 58.1509 109.195 58.9808C110.176 59.8076 111.501 60.1251 113.17 59.9334C114.839 59.7416 116.044 59.1335 116.786 58.1088C117.553 57.0812 117.983 55.7971 118.074 54.2566C118.166 52.7161 118.084 50.8331 117.828 48.6078Z" fill="#1E4364"/>
<path d="M102.687 39.4762L101.777 39.0615L101.776 39.0643L102.687 39.4762ZM118.702 37.6364L117.905 38.2406L117.912 38.2502L118.702 37.6364ZM121.185 59.2542L120.273 58.8437L120.272 58.8464L121.185 59.2542ZM105.17 61.094L104.371 61.6947L104.378 61.7042L105.17 61.094ZM116.765 43.2138L115.808 43.5008L115.81 43.5091L115.813 43.5173L116.765 43.2138ZM114.681 39.7893L114.014 40.5347L114.025 40.5439L114.681 39.7893ZM107.131 40.6567L107.941 41.2429L107.949 41.2314L107.131 40.6567ZM105.837 44.4692L104.841 44.3897L104.84 44.3983L104.839 44.4069L105.837 44.4692ZM107.106 55.5166L108.065 55.2325L108.065 55.2325L107.106 55.5166ZM109.195 58.9808L108.539 59.7354L108.545 59.7404L108.551 59.7454L109.195 58.9808ZM116.786 58.1088L115.984 57.5103L115.98 57.5165L115.975 57.5227L116.786 58.1088ZM118.074 54.2566L119.073 54.3158L118.074 54.2566ZM102.608 50.3562C102.092 45.8648 102.461 42.4044 103.598 39.8881L101.776 39.0643C100.43 42.0405 100.084 45.9096 100.621 50.5845L102.608 50.3562ZM103.597 39.8908C104.679 37.5167 106.84 36.0598 110.381 35.6531L110.153 33.6661C106.116 34.1298 103.225 35.884 101.777 39.0615L103.597 39.8908ZM110.381 35.6531C113.922 35.2463 116.34 36.1769 117.905 38.2406L119.498 37.0322C117.394 34.2564 114.188 33.2025 110.153 33.6661L110.381 35.6531ZM117.912 38.2502C119.614 40.4388 120.77 43.7214 121.285 48.2106L123.272 47.9823C122.735 43.3052 121.506 39.6144 119.491 37.0226L117.912 38.2502ZM121.285 48.2106C121.807 52.7535 121.432 56.2697 120.273 58.8437L122.097 59.6648C123.461 56.6341 123.816 52.7118 123.272 47.9823L121.285 48.2106ZM120.272 58.8464C119.216 61.2112 117.072 62.6659 113.531 63.0727L113.759 65.0597C117.795 64.5961 120.678 62.8427 122.098 59.662L120.272 58.8464ZM113.531 63.0727C109.99 63.4795 107.555 62.5508 105.963 60.4838L104.378 61.7042C106.509 64.4706 109.723 65.5233 113.759 65.0597L113.531 63.0727ZM105.97 60.4933C104.281 58.2449 103.13 54.9013 102.608 50.3562L100.621 50.5845C101.164 55.3118 102.384 59.0506 104.371 61.6947L105.97 60.4933ZM118.821 48.4936C118.57 46.3079 118.206 44.4417 117.718 42.9103L115.813 43.5173C116.249 44.8861 116.593 46.6159 116.835 48.7219L118.821 48.4936ZM117.723 42.9268C117.245 41.3289 116.461 40.0116 115.337 39.0347L114.025 40.5439C114.81 41.2267 115.416 42.1924 115.808 43.5008L117.723 42.9268ZM115.348 39.044C114.117 37.9428 112.488 37.5853 110.627 37.799L110.856 39.7859C112.334 39.6161 113.331 39.9232 114.014 40.5346L115.348 39.044ZM110.627 37.799C108.767 38.0127 107.262 38.7303 106.312 40.082L107.949 41.2314C108.476 40.4808 109.378 39.9557 110.856 39.7859L110.627 37.799ZM106.32 40.0706C105.452 41.2715 104.973 42.7273 104.841 44.3897L106.834 44.5487C106.944 43.1771 107.327 42.0912 107.941 41.2428L106.32 40.0706ZM104.839 44.4069C104.74 45.9987 104.821 47.8912 105.072 50.0732L107.059 49.8449C106.816 47.7352 106.746 45.9678 106.835 44.5315L104.839 44.4069ZM105.072 50.0732C105.332 52.3328 105.687 54.2468 106.148 55.8007L108.065 55.2325C107.649 53.8271 107.311 52.036 107.059 49.8449L105.072 50.0732ZM106.148 55.8007C106.628 57.4223 107.413 58.7557 108.539 59.7354L109.852 58.2262C109.07 57.5462 108.462 56.5701 108.065 55.2325L106.148 55.8007ZM108.551 59.7454C109.802 60.8001 111.431 61.1398 113.284 60.9268L113.056 58.9399C111.572 59.1104 110.55 58.8151 109.84 58.2162L108.551 59.7454ZM113.284 60.9268C115.136 60.7141 116.641 60.0151 117.596 58.695L115.975 57.5227C115.448 58.2518 114.542 58.7692 113.056 58.9399L113.284 60.9268ZM117.587 58.7073C118.493 57.4937 118.972 56.0114 119.073 54.3158L117.076 54.1973C116.994 55.5828 116.613 56.6687 115.984 57.5103L117.587 58.7073ZM119.073 54.3158C119.169 52.6981 119.081 50.7533 118.821 48.4936L116.835 48.7219C117.086 50.913 117.163 52.7341 117.076 54.1973L119.073 54.3158Z" fill="#1E4364"/>
<path d="M129.743 46.5027C128.305 42.1193 127.917 38.4576 128.581 35.5177C129.261 32.5441 131.413 30.463 135.036 29.2743C138.659 28.0857 141.613 28.4919 143.897 30.4929C146.199 32.4602 148.068 35.6357 149.506 40.0192C150.961 44.4533 151.352 48.1698 150.68 51.1687C150.025 54.134 147.886 56.2109 144.263 57.3996C140.639 58.5882 137.673 58.1862 135.363 56.1935C133.071 54.1672 131.197 50.9369 129.743 46.5027ZM145.25 41.4156C144.576 39.3632 143.868 37.6733 143.123 36.3458C142.404 35.01 141.494 34.0317 140.392 33.4108C139.282 32.7647 137.929 32.7034 136.333 33.2271C134.737 33.7508 133.683 34.6017 133.171 35.7798C132.651 36.9327 132.485 38.2643 132.671 39.7746C132.883 41.2767 133.326 43.0539 133.999 45.1063C134.698 47.2347 135.41 48.9794 136.138 50.3406C136.865 51.7017 137.779 52.6927 138.881 53.3136C140.008 53.9261 141.37 53.9705 142.966 53.4468C144.562 52.9232 145.62 52.0849 146.14 50.9321C146.686 49.771 146.848 48.4267 146.628 46.8993C146.407 45.3719 145.948 43.544 145.25 41.4156Z" fill="#1E4364"/>
<path d="M128.581 35.5177L127.606 35.2946L127.605 35.2976L128.581 35.5177ZM143.897 30.4929L143.238 31.2451L143.248 31.253L143.897 30.4929ZM150.68 51.1687L149.704 50.9501L149.704 50.953L150.68 51.1687ZM135.363 56.1935L134.701 56.9428L134.71 56.9506L135.363 56.1935ZM143.123 36.3458L142.243 36.8197L142.247 36.8273L142.251 36.8348L143.123 36.3458ZM140.392 33.4108L139.889 34.2752L139.901 34.282L140.392 33.4108ZM133.171 35.7798L134.083 36.191L134.088 36.1781L133.171 35.7798ZM132.671 39.7746L131.679 39.8973L131.68 39.9059L131.681 39.9144L132.671 39.7746ZM136.138 50.3406L137.02 49.8694L137.02 49.8694L136.138 50.3406ZM138.881 53.3136L138.39 54.1848L138.397 54.1885L138.403 54.1922L138.881 53.3136ZM146.14 50.9321L145.235 50.5071L145.232 50.514L145.229 50.521L146.14 50.9321ZM146.628 46.8993L147.617 46.7565L146.628 46.8993ZM130.693 46.191C129.284 41.8953 128.948 38.4315 129.556 35.7378L127.605 35.2976C126.886 38.4836 127.326 42.3432 128.792 46.8145L130.693 46.191ZM129.555 35.7407C130.137 33.1975 131.961 31.3354 135.348 30.2245L134.724 28.3242C130.864 29.5906 128.385 31.8908 127.606 35.2946L129.555 35.7407ZM135.348 30.2245C138.735 29.1134 141.29 29.5385 143.239 31.2451L144.556 29.7407C141.936 27.4452 138.584 27.058 134.724 28.3242L135.348 30.2245ZM143.248 31.253C145.355 33.0544 147.148 36.0372 148.556 40.3309L150.457 39.7074C148.989 35.2341 147.043 31.8661 144.547 29.7328L143.248 31.253ZM148.556 40.3309C149.982 44.6758 150.322 48.1956 149.704 50.9501L151.656 51.3874C152.383 48.1441 151.94 44.2308 150.457 39.7074L148.556 40.3309ZM149.704 50.953C149.145 53.482 147.338 55.3383 143.951 56.4494L144.574 58.3498C148.434 57.0835 150.905 54.786 151.657 51.3844L149.704 50.953ZM143.951 56.4494C140.565 57.5603 137.992 57.1407 136.017 55.4364L134.71 56.9506C137.354 59.2317 140.714 59.6161 144.574 58.3498L143.951 56.4494ZM136.026 55.4442C133.919 53.5818 132.119 50.538 130.693 46.191L128.792 46.8145C130.276 51.3358 132.223 54.7525 134.701 56.9428L136.026 55.4442ZM146.2 41.1039C145.514 39.0134 144.782 37.2587 143.996 35.8568L142.251 36.8348C142.954 38.0879 143.639 39.7131 144.299 41.7273L146.2 41.1039ZM144.004 35.8719C143.213 34.403 142.18 33.2705 140.883 32.5396L139.901 34.282C140.808 34.7929 141.595 35.617 142.243 36.8197L144.004 35.8719ZM140.895 32.5466C139.468 31.7157 137.8 31.6933 136.021 32.2769L136.645 34.1773C138.058 33.7136 139.097 33.8136 139.889 34.2751L140.895 32.5466ZM136.021 32.2769C134.242 32.8605 132.912 33.8665 132.254 35.3815L134.088 36.1781C134.454 35.3368 135.231 34.641 136.645 34.1773L136.021 32.2769ZM132.259 35.3687C131.65 36.7199 131.474 38.2422 131.679 39.8973L133.664 39.6519C133.495 38.2863 133.652 37.1454 134.083 36.1909L132.259 35.3687ZM131.681 39.9144C131.904 41.4936 132.365 43.331 133.049 45.418L134.95 44.7946C134.288 42.7768 133.863 41.0598 133.662 39.6348L131.681 39.9144ZM133.049 45.418C133.758 47.5792 134.492 49.3824 135.256 50.8118L137.02 49.8694C136.329 48.5765 135.637 46.8902 134.95 44.7946L133.049 45.418ZM135.256 50.8118C136.053 52.3036 137.089 53.4518 138.39 54.1848L139.372 52.4424C138.469 51.9337 137.677 51.0999 137.02 49.8694L135.256 50.8118ZM138.403 54.1922C139.841 54.9736 141.505 54.9786 143.278 54.397L142.654 52.4967C141.235 52.9624 140.175 52.8786 139.358 52.4349L138.403 54.1922ZM143.278 54.397C145.049 53.816 146.382 52.8286 147.052 51.3432L145.229 50.521C144.859 51.3413 144.076 52.0303 142.654 52.4967L143.278 54.397ZM147.046 51.3571C147.689 49.9859 147.86 48.4376 147.617 46.7565L145.638 47.0421C145.836 48.4158 145.682 49.5561 145.235 50.5071L147.046 51.3571ZM147.617 46.7565C147.386 45.1525 146.909 43.2651 146.2 41.1039L144.299 41.7273C144.987 43.8229 145.428 45.5914 145.638 47.0421L147.617 46.7565Z" fill="#1E4364"/>
<path d="M156.497 36.9559C154.206 32.9514 153.09 29.4426 153.148 26.4293C153.216 23.3797 154.905 20.9082 158.215 19.0147C161.525 17.1212 164.5 16.9247 167.14 18.4251C169.79 19.8892 172.261 22.6234 174.552 26.6278C176.869 30.6786 178 34.2403 177.945 37.3131C177.9 40.3495 176.223 42.8144 172.913 44.7079C169.603 46.6014 166.616 46.8045 163.953 45.3173C161.299 43.7937 158.814 41.0066 156.497 36.9559ZM170.663 28.8523C169.59 26.9774 168.556 25.4647 167.56 24.3141C166.587 23.1503 165.498 22.3751 164.294 21.9887C163.077 21.5791 161.739 21.7914 160.281 22.6256C158.823 23.4598 157.961 24.5054 157.697 25.7624C157.42 26.9963 157.525 28.3341 158.012 29.776C158.522 31.2047 159.313 32.8565 160.386 34.7314C161.498 36.6757 162.547 38.2414 163.533 39.4283C164.519 40.6153 165.615 41.402 166.819 41.7884C168.046 42.1616 169.389 41.9311 170.847 41.097C172.305 40.2628 173.173 39.2287 173.45 37.9949C173.751 36.7478 173.639 35.3983 173.116 33.9465C172.593 32.4948 171.775 30.7967 170.663 28.8523Z" fill="#1E4364"/>
<path d="M153.148 26.4293L152.148 26.407L152.148 26.41L153.148 26.4293ZM167.14 18.4251L166.646 19.2946L166.657 19.3004L167.14 18.4251ZM177.945 37.3131L176.945 37.2953L176.945 37.2983L177.945 37.3131ZM163.953 45.3173L163.455 46.1846L163.465 46.1904L163.953 45.3173ZM167.56 24.3141L166.793 24.9555L166.798 24.9621L166.804 24.9686L167.56 24.3141ZM164.294 21.9887L163.975 22.9366L163.989 22.9409L164.294 21.9887ZM157.697 25.7624L158.673 25.9817L158.676 25.968L157.697 25.7624ZM158.012 29.776L157.064 30.096L157.067 30.1041L157.07 30.1122L158.012 29.776ZM163.533 39.4283L164.302 38.7893L164.302 38.7893L163.533 39.4283ZM166.819 41.7885L166.513 42.7406L166.521 42.743L166.528 42.7452L166.819 41.7885ZM173.45 37.9949L172.478 37.7607L172.476 37.7682L172.475 37.7756L173.45 37.9949ZM173.116 33.9465L174.057 33.6075L173.116 33.9465ZM157.365 36.4593C155.12 32.5351 154.095 29.2096 154.148 26.4486L152.148 26.41C152.085 29.6756 153.292 33.3678 155.629 37.4524L157.365 36.4593ZM154.148 26.4516C154.206 23.8433 155.618 21.6523 158.712 19.8827L157.719 18.1467C154.192 20.164 152.226 22.9161 152.148 26.407L154.148 26.4516ZM158.712 19.8827C161.806 18.1128 164.395 18.0149 166.646 19.2945L167.635 17.5557C164.606 15.8345 161.245 16.1297 157.719 18.1467L158.712 19.8827ZM166.657 19.3004C169.083 20.641 171.44 23.202 173.684 27.1244L175.42 26.1313C173.082 22.0448 170.498 19.1373 167.624 17.5498L166.657 19.3004ZM173.684 27.1244C175.954 31.0936 176.996 34.4729 176.945 37.2953L178.945 37.3309C179.004 34.0077 177.783 30.2635 175.42 26.1313L173.684 27.1244ZM176.945 37.2983C176.907 39.8879 175.51 42.0699 172.416 43.8399L173.409 45.5759C176.935 43.5589 178.894 40.811 178.945 37.3279L176.945 37.2983ZM172.416 43.8399C169.323 45.6095 166.718 45.7162 164.44 44.4442L163.465 46.1904C166.514 47.8928 169.883 47.5932 173.409 45.5759L172.416 43.8399ZM164.451 44.4501C162.012 43.0498 159.637 40.4304 157.365 36.4593L155.629 37.4524C157.992 41.5828 160.587 44.5377 163.455 46.1845L164.451 44.4501ZM171.531 28.3558C170.438 26.446 169.368 24.8747 168.316 23.6596L166.804 24.9686C167.744 26.0547 168.742 27.5088 169.795 29.3489L171.531 28.3558ZM168.327 23.6727C167.257 22.3929 166.017 21.4914 164.6 21.0365L163.989 22.9409C164.979 23.2588 165.917 23.9076 166.793 24.9555L168.327 23.6727ZM164.613 21.0409C163.048 20.5142 161.409 20.8279 159.784 21.7576L160.777 23.4936C162.069 22.755 163.106 22.644 163.975 22.9365L164.613 21.0409ZM159.784 21.7576C158.159 22.6873 157.058 23.9405 156.719 25.5568L158.676 25.968C158.865 25.0704 159.486 24.2323 160.777 23.4936L159.784 21.7576ZM156.722 25.5432C156.397 26.9893 156.531 28.5158 157.064 30.096L158.959 29.4561C158.519 28.1524 158.443 27.0033 158.673 25.9817L156.722 25.5432ZM157.07 30.1122C157.606 31.6142 158.427 33.3214 159.518 35.2279L161.254 34.2348C160.199 32.3915 159.437 30.7951 158.954 29.4398L157.07 30.1122ZM159.518 35.2279C160.647 37.2022 161.728 38.8209 162.764 40.0674L164.302 38.7893C163.366 37.6618 162.349 36.1492 161.254 34.2348L159.518 35.2279ZM162.764 40.0674C163.845 41.3683 165.092 42.2844 166.513 42.7406L167.124 40.8363C166.138 40.5196 165.194 39.8623 164.302 38.7893L162.764 40.0674ZM166.528 42.7452C168.094 43.2213 169.724 42.8915 171.344 41.965L170.351 40.2289C169.054 40.9708 167.999 41.102 167.11 40.8317L166.528 42.7452ZM171.344 41.965C172.962 41.0394 174.069 39.8039 174.426 38.2141L172.475 37.7756C172.277 38.6536 171.649 39.4861 170.351 40.2289L171.344 41.965ZM174.423 38.2291C174.777 36.7563 174.633 35.2054 174.057 33.6075L172.175 34.2856C172.646 35.5913 172.724 36.7393 172.478 37.7607L174.423 38.2291ZM174.057 33.6075C173.507 32.0829 172.66 30.3301 171.531 28.3558L169.795 29.3489C170.89 31.2633 171.678 32.9067 172.175 34.2856L174.057 33.6075Z" fill="#1E4364"/>
</svg>
