<svg width="202" height="86" viewBox="0 0 202 86" fill="none" xmlns="http://www.w3.org/2000/svg">
<path d="M18.2246 25.571C19.7686 23.3317 21.6696 21.6787 23.9276 20.6119C26.2075 19.5602 28.5772 19.1535 31.0366 19.3918C33.5331 19.6232 35.8462 20.473 37.9757 21.9414C40.4125 23.6217 42.1587 25.7164 43.2142 28.2257C44.3067 30.7282 44.5242 33.3723 43.8666 36.158L39.3551 33.0473C39.595 31.4311 39.3923 29.9633 38.7473 28.644C38.1022 27.3246 37.0881 26.1881 35.705 25.2344C34.1902 24.19 32.6054 23.5993 30.9507 23.4624C29.2959 23.3256 27.6893 23.6591 26.1307 24.4632C24.5941 25.2824 23.243 26.5372 22.0775 28.2276C20.9119 29.9181 20.2194 31.627 20 33.3545C19.8026 35.097 20.0544 36.7283 20.7555 38.2482C21.4718 39.7462 22.5873 41.0175 24.1021 42.062C25.4852 43.0156 26.908 43.5594 28.3705 43.6932C29.833 43.8271 31.2769 43.4947 32.7022 42.6959L37.2137 45.8067C34.8437 47.4117 32.295 48.1485 29.5676 48.017C26.8622 47.9007 24.291 47.0024 21.8542 45.3221C19.7027 43.8386 18.0785 41.9898 16.9814 39.7758C15.8995 37.5398 15.4447 35.1693 15.6171 32.6645C15.8114 30.1748 16.6805 27.8103 18.2246 25.571Z" fill="#1E4364"/>
<path d="M23.9276 20.6119L23.5087 19.7038L23.5004 19.7077L23.9276 20.6119ZM31.0366 19.3918L30.9402 20.3871L30.9443 20.3875L31.0366 19.3918ZM43.2142 28.2257L42.2923 28.6135L42.2977 28.6258L43.2142 28.2257ZM43.8666 36.158L43.299 36.9813L44.5037 37.812L44.8399 36.3878L43.8666 36.158ZM39.3551 33.0473L38.366 32.9005L38.2745 33.5168L38.7875 33.8705L39.3551 33.0473ZM38.7473 28.644L39.6456 28.2047L38.7473 28.644ZM30.9507 23.4624L30.8683 24.459L30.8683 24.459L30.9507 23.4624ZM26.1307 24.4632L25.6722 23.5744L25.6603 23.5808L26.1307 24.4632ZM20 33.3545L19.0079 33.2285L19.0064 33.2419L20 33.3545ZM20.7555 38.2482L19.8474 38.6671L19.8534 38.6796L20.7555 38.2482ZM28.3705 43.6932L28.2793 44.6891L28.3705 43.6932ZM32.7022 42.6959L33.2698 41.8726L32.7569 41.5189L32.2133 41.8236L32.7022 42.6959ZM37.2137 45.8067L37.7744 46.6347L38.9861 45.8141L37.7813 44.9834L37.2137 45.8067ZM29.5676 48.017L29.6158 47.0181L29.6106 47.0179L29.5676 48.017ZM16.9814 39.7758L16.0812 40.2114L16.0854 40.2198L16.9814 39.7758ZM15.6171 32.6645L14.62 32.5867L14.6194 32.5958L15.6171 32.6645ZM19.0478 26.1387C20.501 24.0312 22.2702 22.5009 24.3547 21.5161L23.5004 19.7077C21.069 20.8564 19.0362 22.6323 17.4013 25.0033L19.0478 26.1387ZM24.3464 21.52C26.4681 20.5413 28.6602 20.1663 30.9402 20.3871L31.133 18.3964C28.4942 18.1408 25.9469 18.5792 23.5087 19.7038L24.3464 21.52ZM30.9443 20.3875C33.2647 20.6026 35.4149 21.3904 37.408 22.7647L38.5433 21.1181C36.2774 19.5557 33.8016 18.6438 31.1289 18.396L30.9443 20.3875ZM37.408 22.7647C39.702 24.3464 41.3174 26.2955 42.2924 28.6134L44.1359 27.838C43 25.1374 41.1231 22.8969 38.5433 21.1181L37.408 22.7647ZM42.2977 28.6258C43.2993 30.92 43.5038 33.3423 42.8934 35.9283L44.8399 36.3878C45.5446 33.4023 45.3141 30.5363 44.1306 27.8256L42.2977 28.6258ZM44.4343 35.3348L39.9228 32.224L38.7875 33.8705L43.299 36.9813L44.4343 35.3348ZM40.3443 33.194C40.6103 31.4013 40.3894 29.7259 39.6456 28.2047L37.8489 29.0832C38.3953 30.2007 38.5796 31.4609 38.366 32.9005L40.3443 33.194ZM39.6456 28.2047C38.9149 26.7101 37.7765 25.4481 36.2727 24.4112L35.1374 26.0577C36.3997 26.9281 37.2896 27.9392 37.8489 29.0832L39.6456 28.2047ZM36.2727 24.4112C34.63 23.2785 32.8803 22.6186 31.0331 22.4658L30.8683 24.459C32.3306 24.58 33.7505 25.1014 35.1374 26.0577L36.2727 24.4112ZM31.0331 22.4658C29.1808 22.3126 27.3876 22.6895 25.6722 23.5745L26.5892 25.3519C27.9909 24.6288 29.411 24.3385 30.8683 24.459L31.0331 22.4658ZM25.6603 23.5808C23.9594 24.4875 22.4943 25.8614 21.2542 27.66L22.9007 28.7953C23.9918 27.213 25.2289 26.0772 26.6012 25.3456L25.6603 23.5808ZM21.2542 27.66C20.0141 29.4585 19.2508 31.3163 19.008 33.2285L20.992 33.4804C21.188 31.9377 21.8097 30.3776 22.9007 28.7953L21.2542 27.66ZM19.0064 33.2419C18.7894 35.157 19.0661 36.9731 19.8475 38.6671L21.6636 37.8294C21.0428 36.4835 20.8158 35.037 20.9937 33.467L19.0064 33.2419ZM19.8534 38.6796C20.6529 40.3518 21.8918 41.7526 23.5344 42.8852L24.6698 41.2387C23.2828 40.2824 22.2907 39.1407 21.6577 37.8169L19.8534 38.6796ZM23.5344 42.8852C25.0383 43.9222 26.6225 44.5374 28.2793 44.6891L28.4616 42.6974C27.1935 42.5813 25.9321 42.1091 24.6698 41.2387L23.5344 42.8852ZM28.2793 44.6891C29.9656 44.8434 31.61 44.4543 33.1911 43.5683L32.2133 41.8236C30.9437 42.535 29.7004 42.8108 28.4616 42.6974L28.2793 44.6891ZM32.1345 43.5192L36.646 46.6299L37.7813 44.9834L33.2698 41.8726L32.1345 43.5192ZM36.6529 44.9787C34.4529 46.4686 32.1162 47.1387 29.6158 47.0182L29.5195 49.0158C32.4739 49.1582 35.2346 48.3547 37.7744 46.6347L36.6529 44.9787ZM29.6106 47.0179C27.1105 46.9104 24.7188 46.0826 22.4218 44.4988L21.2865 46.1454C23.8633 47.9221 26.6139 48.8909 29.5247 49.0161L29.6106 47.0179ZM22.4218 44.4988C20.4019 43.1061 18.8947 41.3848 17.8774 39.3318L16.0854 40.2198C17.2622 42.5949 19.0035 44.5712 21.2865 46.1454L22.4218 44.4988ZM17.8816 39.3402C16.8763 37.2627 16.4541 35.0663 16.6147 32.7331L14.6194 32.5958C14.4352 35.2724 14.9226 37.8168 16.0812 40.2113L17.8816 39.3402ZM16.614 32.7423C16.7934 30.4438 17.5947 28.2461 19.0478 26.1387L17.4013 25.0033C15.7664 27.3744 14.8293 29.9057 14.6201 32.5867L16.614 32.7423Z" fill="#1E4364"/>
<path d="M57.9052 33.2171L46.7368 58.6751L42.561 56.8431L53.7293 31.3852L57.9052 33.2171Z" fill="#1E4364"/>
<path d="M57.9052 33.2171L58.8209 33.6188L59.2227 32.7031L58.3069 32.3013L57.9052 33.2171ZM46.7368 58.6751L46.3351 59.5908L47.2509 59.9926L47.6526 59.0768L46.7368 58.6751ZM42.561 56.8431L41.6452 56.4414L41.2435 57.3572L42.1593 57.7589L42.561 56.8431ZM53.7293 31.3852L54.1311 30.4694L53.2153 30.0677L52.8136 30.9834L53.7293 31.3852ZM56.9894 32.8154L45.8211 58.2733L47.6526 59.0768L58.8209 33.6188L56.9894 32.8154ZM47.1386 57.7593L42.9627 55.9274L42.1593 57.7589L46.3351 59.5908L47.1386 57.7593ZM43.4768 57.2449L54.6451 31.7869L52.8136 30.9834L41.6452 56.4414L43.4768 57.2449ZM53.3276 32.3009L57.5034 34.1328L58.3069 32.3013L54.1311 30.4694L53.3276 32.3009Z" fill="#1E4364"/>
<path d="M71.7114 66.5686L68.1562 54.2409L64.7771 53.4087L62.1181 64.2061L57.6903 63.1157L64.338 36.1222L73.6595 38.4178C75.7309 38.9279 77.3894 39.7208 78.635 40.7966C79.9065 41.8787 80.7419 43.1143 81.1413 44.5034C81.5666 45.8989 81.5944 47.3476 81.2245 48.8494C80.7909 50.6101 79.8777 52.088 78.4849 53.2829C77.1243 54.4583 75.3187 55.0435 73.0679 55.0385L76.9936 67.8695L71.7114 66.5686ZM65.6475 49.8743L70.5413 51.0795C72.1985 51.4876 73.5434 51.3794 74.576 50.7549C75.6345 50.1367 76.3359 49.1285 76.6803 47.7303C77.0246 46.3321 76.8781 45.1425 76.2409 44.1617C75.61 43.155 74.453 42.4443 72.7699 42.0299L67.8762 40.8247L65.6475 49.8743Z" fill="#1E4364"/>
<path d="M71.7114 66.5686L70.7506 66.8457L70.9108 67.4014L71.4723 67.5396L71.7114 66.5686ZM68.1562 54.2409L69.117 53.9638L68.9568 53.4081L68.3953 53.2699L68.1562 54.2409ZM64.7771 53.4087L65.0162 52.4377L64.0452 52.1986L63.8061 53.1696L64.7771 53.4087ZM62.1181 64.2061L61.8789 65.1771L62.8499 65.4162L63.089 64.4452L62.1181 64.2061ZM57.6903 63.1157L56.7194 62.8766L56.4802 63.8476L57.4512 64.0867L57.6903 63.1157ZM64.338 36.1222L64.5771 35.1512L63.6061 34.9121L63.367 35.8831L64.338 36.1222ZM78.635 40.7966L77.9814 41.5534L77.9869 41.5581L78.635 40.7966ZM81.1413 44.5034L80.1803 44.7798L80.1824 44.7874L80.1848 44.7949L81.1413 44.5034ZM78.4849 53.2829L77.8337 52.5239L77.8311 52.5262L78.4849 53.2829ZM73.0679 55.0385L73.0701 54.0385L71.7153 54.0355L72.1117 55.3311L73.0679 55.0385ZM76.9936 67.8695L76.7545 68.8405L78.4654 69.2618L77.9499 67.5769L76.9936 67.8695ZM65.6475 49.8743L64.6765 49.6352L64.4374 50.6062L65.4084 50.8453L65.6475 49.8743ZM74.576 50.7549L74.0717 49.8913L74.0651 49.8952L74.0585 49.8992L74.576 50.7549ZM76.2409 44.1617L75.3935 44.6927L75.3979 44.6997L75.4023 44.7065L76.2409 44.1617ZM67.8762 40.8247L68.1153 39.8537L67.1443 39.6146L66.9052 40.5856L67.8762 40.8247ZM72.6723 66.2915L69.117 53.9638L67.1953 54.518L70.7506 66.8457L72.6723 66.2915ZM68.3953 53.2699L65.0162 52.4377L64.538 54.3797L67.917 55.2118L68.3953 53.2699ZM63.8061 53.1696L61.1471 63.967L63.089 64.4452L65.7481 53.6478L63.8061 53.1696ZM62.3572 63.2351L57.9295 62.1447L57.4512 64.0867L61.8789 65.1771L62.3572 63.2351ZM58.6613 63.3548L65.309 36.3613L63.367 35.8831L56.7194 62.8766L58.6613 63.3548ZM64.0989 37.0932L73.4204 39.3888L73.8986 37.4468L64.5771 35.1512L64.0989 37.0932ZM73.4204 39.3888C75.3825 39.872 76.8852 40.6067 77.9814 41.5534L79.2886 40.0397C77.8937 38.835 76.0793 37.9838 73.8986 37.4468L73.4204 39.3888ZM77.9869 41.5581C79.1324 42.533 79.8432 43.6076 80.1803 44.7798L82.1024 44.2271C81.6406 42.621 80.6805 41.2243 79.2831 40.035L77.9869 41.5581ZM80.1848 44.7949C80.5543 46.0076 80.583 47.2725 80.2535 48.6103L82.1955 49.0885C82.6057 47.4227 82.5789 45.7903 82.0979 44.2119L80.1848 44.7949ZM80.2535 48.6103C79.8704 50.166 79.0704 51.463 77.8337 52.5239L79.136 54.0419C80.685 52.713 81.7114 51.0542 82.1955 49.0885L80.2535 48.6103ZM77.8311 52.5262C76.6952 53.5075 75.1428 54.0431 73.0701 54.0385L73.0657 56.0385C75.4946 56.0439 77.5534 55.4091 79.1386 54.0396L77.8311 52.5262ZM72.1117 55.3311L76.0374 68.162L77.9499 67.5769L74.0242 54.7459L72.1117 55.3311ZM77.2327 66.8985L71.9506 65.5977L71.4723 67.5396L76.7545 68.8405L77.2327 66.8985ZM65.4084 50.8453L70.3022 52.0505L70.7804 50.1085L65.8866 48.9033L65.4084 50.8453ZM70.3022 52.0505C72.109 52.4954 73.7539 52.4207 75.0935 51.6105L74.0585 49.8992C73.3328 50.338 72.2879 50.4797 70.7804 50.1085L70.3022 52.0505ZM75.0803 51.6184C76.4132 50.84 77.2545 49.5806 77.6513 47.9694L75.7093 47.4912C75.4174 48.6764 74.8558 49.4334 74.0717 49.8913L75.0803 51.6184ZM77.6513 47.9694C78.0453 46.3693 77.9009 44.8813 77.0794 43.6169L75.4023 44.7065C75.8554 45.4038 76.0039 46.2948 75.7093 47.4912L77.6513 47.9694ZM77.0882 43.6307C76.2672 42.3206 74.8292 41.5071 73.0091 41.0589L72.5308 43.0009C74.0768 43.3816 74.9527 43.9894 75.3935 44.6927L77.0882 43.6307ZM73.0091 41.0589L68.1153 39.8537L67.637 41.7957L72.5308 43.0009L73.0091 41.0589ZM66.9052 40.5856L64.6765 49.6352L66.6185 50.1134L68.8471 41.0638L66.9052 40.5856Z" fill="#1E4364"/>
<path d="M93.2665 41.6794L93.1368 59.3989C93.1214 61.5055 93.6565 63.0962 94.742 64.1708C95.8541 65.2456 97.3969 65.7903 99.3701 65.8047C101.37 65.8193 102.921 65.2973 104.022 64.2387C105.149 63.1803 105.721 61.5977 105.737 59.4911L105.866 41.7716L110.426 41.805L110.297 59.4445C110.28 61.7111 109.773 63.6274 108.775 65.1935C107.777 66.7596 106.448 67.9232 104.789 68.6844C103.13 69.4456 101.301 69.8189 99.3009 69.8043C97.3009 69.7897 95.4771 69.3896 93.8295 68.6042C92.2085 67.819 90.9238 66.6363 89.9754 65.0559C89.0269 63.4756 88.561 61.5522 88.5775 59.2856L88.7066 41.646L93.2665 41.6794Z" fill="#1E4364"/>
<path d="M93.2665 41.6794L94.2665 41.6867L94.2738 40.6867L93.2738 40.6794L93.2665 41.6794ZM94.742 64.1708L94.0384 64.8815L94.047 64.8899L94.742 64.1708ZM104.022 64.2387L103.337 63.5095L103.329 63.5178L104.022 64.2387ZM105.866 41.7716L105.873 40.7716L104.874 40.7643L104.866 41.7643L105.866 41.7716ZM110.426 41.805L111.426 41.8123L111.433 40.8123L110.433 40.805L110.426 41.805ZM108.775 65.1935L109.618 65.731L108.775 65.1935ZM104.789 68.6844L104.372 67.7755L104.789 68.6844ZM93.8295 68.6042L93.3935 69.5042L93.3992 69.5069L93.8295 68.6042ZM89.9754 65.0559L89.1179 65.5705L89.9754 65.0559ZM88.7066 41.646L88.7139 40.6461L87.714 40.6387L87.7066 41.6387L88.7066 41.646ZM92.2665 41.6721L92.1369 59.3916L94.1368 59.4062L94.2665 41.6867L92.2665 41.6721ZM92.1369 59.3916C92.1202 61.663 92.698 63.5544 94.0384 64.8814L95.4455 63.4601C94.615 62.6379 94.1226 61.348 94.1368 59.4062L92.1369 59.3916ZM94.047 64.8899C95.3908 66.1885 97.2065 66.7889 99.3628 66.8047L99.3775 64.8047C97.5872 64.7916 96.3174 64.3027 95.4369 63.4517L94.047 64.8899ZM99.3628 66.8047C101.54 66.8206 103.373 66.2497 104.715 64.9596L103.329 63.5178C102.468 64.3449 101.2 64.8181 99.3775 64.8047L99.3628 66.8047ZM104.706 64.9679C106.097 63.662 106.72 61.7763 106.736 59.4984L104.737 59.4838C104.722 61.4191 104.202 62.6985 103.337 63.5095L104.706 64.9679ZM106.736 59.4984L106.866 41.7789L104.866 41.7643L104.737 59.4838L106.736 59.4984ZM105.859 42.7716L110.419 42.8049L110.433 40.805L105.873 40.7716L105.859 42.7716ZM109.426 41.7976L109.297 59.4372L111.297 59.4518L111.426 41.8123L109.426 41.7976ZM109.297 59.4372C109.281 61.5574 108.808 63.2802 107.932 64.656L109.618 65.731C110.738 63.9747 111.279 61.8648 111.297 59.4518L109.297 59.4372ZM107.932 64.656C107.035 66.0629 105.853 67.096 104.372 67.7755L105.206 69.5933C107.043 68.7504 108.519 67.4563 109.618 65.731L107.932 64.656ZM104.372 67.7755C102.859 68.47 101.176 68.818 99.3082 68.8043L99.2936 70.8043C101.426 70.8199 103.402 70.4212 105.206 69.5933L104.372 67.7755ZM99.3082 68.8043C97.4405 68.7907 95.763 68.4181 94.2598 67.7016L93.3992 69.5069C95.1912 70.3612 97.1614 70.7887 99.2936 70.8043L99.3082 68.8043ZM94.2655 67.7043C92.8237 67.0059 91.6837 65.9591 90.8328 64.5413L89.1179 65.5705C90.164 67.3134 91.5934 68.6322 93.3935 69.5042L94.2655 67.7043ZM90.8328 64.5413C89.9985 63.1512 89.562 61.4179 89.5775 59.2929L87.5776 59.2782C87.56 61.6865 88.0553 63.8 89.1179 65.5705L90.8328 64.5413ZM89.5775 59.2929L89.7066 41.6533L87.7066 41.6387L87.5776 59.2782L89.5775 59.2929ZM88.6993 42.646L93.2592 42.6794L93.2738 40.6794L88.7139 40.6461L88.6993 42.646Z" fill="#1E4364"/>
<path d="M136.796 44.3274C135.761 43.1569 134.538 42.3907 133.128 42.0287C131.712 41.6408 130.189 41.6507 128.559 42.0584C126.774 42.505 125.283 43.3039 124.087 44.4553C122.891 45.6067 122.076 47.02 121.643 48.6952C121.236 50.3639 121.275 52.1684 121.76 54.1086C122.245 56.0488 123.064 57.6721 124.215 58.9783C125.386 60.2523 126.77 61.1155 128.368 61.568C129.965 62.0205 131.657 62.0235 133.442 61.577C135.847 60.9752 137.632 59.814 138.796 58.0934C139.96 56.3729 140.422 54.3193 140.183 51.9328L130.055 54.4663L129.171 50.9352L144.033 47.2174L144.897 50.671C145.137 52.8376 144.869 54.9525 144.093 57.0158C143.343 59.0726 142.131 60.874 140.456 62.42C138.8 63.9337 136.795 64.985 134.441 65.5739C131.906 66.208 129.445 66.2052 127.059 65.5652C124.665 64.8994 122.586 63.6741 120.82 61.8893C119.08 60.098 117.88 57.883 117.22 55.2443C116.56 52.6056 116.576 50.0865 117.267 47.6869C117.985 45.2808 119.246 43.2336 121.05 41.5453C122.874 39.8247 125.04 38.6505 127.549 38.0228C130.421 37.3045 133.147 37.3785 135.728 38.2448C138.328 39.0787 140.456 40.663 142.112 42.9975L136.796 44.3274Z" fill="#1E4364"/>
<path d="M136.796 44.3274L136.047 44.9898L136.449 45.4449L137.038 45.2975L136.796 44.3274ZM133.128 42.0287L132.864 42.9932L132.872 42.9953L132.88 42.9973L133.128 42.0287ZM124.087 44.4553L124.78 45.1758L124.78 45.1758L124.087 44.4553ZM121.643 48.6952L120.675 48.4449L120.671 48.4581L121.643 48.6952ZM124.215 58.9784L123.465 59.6396L123.472 59.6474L123.479 59.655L124.215 58.9784ZM128.368 61.568L128.64 60.6059L128.368 61.568ZM138.796 58.0934L139.625 58.6537L138.796 58.0934ZM140.183 51.9328L141.178 51.8329L141.062 50.682L139.94 50.9627L140.183 51.9328ZM130.055 54.4663L129.085 54.709L129.327 55.6791L130.297 55.4365L130.055 54.4663ZM129.171 50.9352L128.929 49.9651L127.959 50.2077L128.201 51.1778L129.171 50.9352ZM144.033 47.2174L145.004 46.9747L144.761 46.0046L143.791 46.2473L144.033 47.2174ZM144.897 50.671L145.891 50.561L145.884 50.4939L145.867 50.4283L144.897 50.671ZM144.093 57.0158L143.157 56.6638L143.154 56.6733L144.093 57.0158ZM140.456 62.42L141.131 63.1581L141.134 63.1548L140.456 62.42ZM127.059 65.5652L126.791 66.5287L126.8 66.5311L127.059 65.5652ZM120.82 61.8893L120.103 62.5861L120.109 62.5926L120.82 61.8893ZM117.267 47.6869L116.309 47.4011L116.306 47.4099L117.267 47.6869ZM121.05 41.5453L121.733 42.2755L121.736 42.2727L121.05 41.5453ZM135.728 38.2448L135.409 39.1929L135.422 39.197L135.728 38.2448ZM142.112 42.9975L142.355 43.9676L143.774 43.6125L142.928 42.419L142.112 42.9975ZM137.545 43.665C136.388 42.3562 134.995 41.4755 133.377 41.0601L132.88 42.9973C134.082 43.3058 135.134 43.9576 136.047 44.9898L137.545 43.665ZM133.392 41.0642C131.788 40.6248 130.088 40.645 128.316 41.0883L128.802 43.0285C130.289 42.6565 131.636 42.6569 132.864 42.9932L133.392 41.0642ZM128.316 41.0883C126.381 41.5726 124.729 42.4495 123.393 43.7348L124.78 45.1758C125.838 44.1583 127.167 43.4374 128.802 43.0285L128.316 41.0883ZM123.393 43.7348C122.058 45.0201 121.152 46.5985 120.675 48.4449L122.611 48.9455C123 47.4416 123.723 46.1934 124.78 45.1758L123.393 43.7348ZM120.671 48.4581C120.22 50.3086 120.272 52.2796 120.79 54.3513L122.73 53.8659C122.278 52.0572 122.251 50.4192 122.614 48.9323L120.671 48.4581ZM120.79 54.3513C121.308 56.4234 122.193 58.1966 123.465 59.6396L124.965 58.3171C123.934 57.1475 123.182 55.6742 122.73 53.8659L120.79 54.3513ZM123.479 59.655C124.769 61.0592 126.312 62.0251 128.095 62.5302L128.64 60.6059C127.228 60.206 126.003 59.4454 124.951 58.3017L123.479 59.655ZM128.095 62.5302C129.879 63.0353 131.749 63.0313 133.684 62.5471L133.199 60.6069C131.565 61.0157 130.052 61.0058 128.64 60.6059L128.095 62.5302ZM133.684 62.5471C136.28 61.8977 138.297 60.6166 139.625 58.6537L137.968 57.5331C136.968 59.0114 135.415 60.0526 133.199 60.6069L133.684 62.5471ZM139.625 58.6537C140.939 56.71 141.437 54.4143 141.178 51.8329L139.188 52.0327C139.408 54.2244 138.981 56.0358 137.968 57.5331L139.625 58.6537ZM139.94 50.9627L129.812 53.4962L130.297 55.4365L140.425 52.9029L139.94 50.9627ZM131.025 54.2237L130.141 50.6925L128.201 51.1778L129.085 54.709L131.025 54.2237ZM129.414 51.9053L144.276 48.1875L143.791 46.2473L128.929 49.9651L129.414 51.9053ZM143.063 47.4601L143.927 50.9136L145.867 50.4283L145.004 46.9747L143.063 47.4601ZM143.903 50.7809C144.126 52.7893 143.878 54.7461 143.157 56.6639L145.029 57.3678C145.86 55.1589 146.148 52.8859 145.891 50.561L143.903 50.7809ZM143.154 56.6733C142.46 58.5741 141.34 60.2427 139.778 61.6852L141.134 63.1548C142.921 61.5054 144.226 59.5711 145.033 57.3584L143.154 56.6733ZM139.781 61.682C138.258 63.0746 136.405 64.0518 134.199 64.6037L134.684 66.544C137.186 65.9182 139.343 64.7928 141.131 63.158L139.781 61.682ZM134.199 64.6037C131.818 65.1992 129.531 65.1927 127.318 64.5993L126.8 66.5311C129.36 67.2176 131.994 67.2169 134.684 66.544L134.199 64.6037ZM127.327 64.6018C125.103 63.9832 123.176 62.8484 121.531 61.1859L120.109 62.5926C121.996 64.4998 124.228 65.8156 126.791 66.5286L127.327 64.6018ZM121.537 61.1925C119.931 59.5388 118.811 57.485 118.19 55.0016L116.25 55.487C116.949 58.281 118.229 60.6572 120.103 62.586L121.537 61.1925ZM118.19 55.0016C117.569 52.5182 117.59 50.1792 118.228 47.9639L116.306 47.4099C115.562 49.9938 115.551 52.693 116.25 55.487L118.19 55.0016ZM118.226 47.9727C118.893 45.7336 120.061 43.8407 121.733 42.2755L120.367 40.8152C118.431 42.6266 117.076 44.828 116.309 47.4011L118.226 47.9727ZM121.736 42.2727C123.431 40.6735 125.443 39.5804 127.792 38.9929L127.307 37.0527C124.637 37.7206 122.316 38.9759 120.364 40.818L121.736 42.2727ZM127.792 38.9929C130.495 38.3167 133.026 38.3925 135.41 39.1928L136.046 37.2967C133.268 36.3644 130.347 36.2922 127.307 37.0527L127.792 38.9929ZM135.422 39.197C137.806 39.9615 139.759 41.4089 141.296 43.5761L142.928 42.419C141.153 39.917 138.85 38.1959 136.033 37.2925L135.422 39.197ZM141.869 42.0274L136.553 43.3573L137.038 45.2975L142.355 43.9676L141.869 42.0274Z" fill="#1E4364"/>
<path d="M149.183 30.519L160.908 55.7257L156.773 57.6488L145.048 32.4421L149.183 30.519ZM148.338 24.3389L142.161 32.0204L140.744 28.9739L146.702 20.8209L148.338 24.3389Z" fill="#1E4364"/>
<path d="M149.183 30.519L150.09 30.0972L149.668 29.1905L148.761 29.6123L149.183 30.519ZM160.908 55.7257L161.329 56.6324L162.236 56.2107L161.814 55.3039L160.908 55.7257ZM156.773 57.6488L155.866 58.0706L156.288 58.9773L157.195 58.5555L156.773 57.6488ZM145.048 32.4421L144.627 31.5354L143.72 31.9571L144.142 32.8639L145.048 32.4421ZM148.338 24.3389L149.117 24.9656L149.507 24.481L149.245 23.9172L148.338 24.3389ZM142.161 32.0204L141.255 32.4422L141.933 33.9004L142.941 32.6471L142.161 32.0204ZM140.744 28.9739L139.937 28.3839L139.589 28.8604L139.838 29.3956L140.744 28.9739ZM146.702 20.8209L147.608 20.3991L146.894 18.8629L145.894 20.2309L146.702 20.8209ZM148.276 30.9407L160.001 56.1474L161.814 55.3039L150.09 30.0972L148.276 30.9407ZM160.486 54.819L156.351 56.7421L157.195 58.5555L161.329 56.6324L160.486 54.819ZM157.68 57.2271L145.955 32.0204L144.142 32.8639L155.866 58.0706L157.68 57.2271ZM145.47 33.3488L149.605 31.4257L148.761 29.6123L144.627 31.5354L145.47 33.3488ZM147.559 23.7123L141.382 31.3938L142.941 32.6471L149.117 24.9656L147.559 23.7123ZM143.068 31.5987L141.651 28.5521L139.838 29.3956L141.255 32.4422L143.068 31.5987ZM141.552 29.5638L147.509 21.4109L145.894 20.2309L139.937 28.3839L141.552 29.5638ZM145.795 21.2426L147.431 24.7607L149.245 23.9172L147.608 20.3991L145.795 21.2426Z" fill="#1E4364"/>
<path d="M181.952 36.1894L172.442 42.9017L174.084 48.6955L170.195 51.4404L162.278 22.952L166.592 19.9073L190.783 36.9086L186.862 39.6765L181.952 36.1894ZM178.761 33.8883L167.618 25.9394L171.343 39.1244L178.761 33.8883Z" fill="#1E4364"/>
<path d="M181.952 36.1894L182.531 35.3741L181.954 34.9641L181.375 35.3724L181.952 36.1894ZM172.442 42.9017L171.866 42.0847L171.287 42.493L171.48 43.1743L172.442 42.9017ZM174.084 48.6955L174.661 49.5125L175.239 49.1042L175.046 48.4229L174.084 48.6955ZM170.195 51.4404L169.232 51.7082L169.612 53.0761L170.772 52.2574L170.195 51.4404ZM162.278 22.952L161.701 22.135L161.126 22.5412L161.315 23.2198L162.278 22.952ZM166.592 19.9073L167.167 19.0891L166.59 18.6841L166.015 19.0903L166.592 19.9073ZM190.783 36.9086L191.36 37.7256L192.52 36.9068L191.358 36.0904L190.783 36.9086ZM186.862 39.6765L186.282 40.4918L186.86 40.9018L187.438 40.4935L186.862 39.6765ZM178.761 33.8883L179.338 34.7053L180.489 33.8926L179.342 33.0742L178.761 33.8883ZM167.618 25.9394L168.199 25.1253L165.882 23.4726L166.656 26.2113L167.618 25.9394ZM171.343 39.1244L170.381 39.3963L170.765 40.7564L171.92 39.9414L171.343 39.1244ZM181.375 35.3724L171.866 42.0847L173.019 43.7187L182.529 37.0064L181.375 35.3724ZM171.48 43.1743L173.122 48.9681L175.046 48.4229L173.405 42.6291L171.48 43.1743ZM173.507 47.8785L169.618 50.6234L170.772 52.2574L174.661 49.5125L173.507 47.8785ZM171.159 51.1726L163.242 22.6843L161.315 23.2198L169.232 51.7082L171.159 51.1726ZM162.855 23.769L167.168 20.7242L166.015 19.0903L161.701 22.135L162.855 23.769ZM166.017 20.7254L190.208 37.7267L191.358 36.0904L167.167 19.0891L166.017 20.7254ZM190.206 36.0916L186.285 38.8596L187.438 40.4935L191.36 37.7256L190.206 36.0916ZM187.441 38.8613L182.531 35.3741L181.373 37.0047L186.282 40.4918L187.441 38.8613ZM179.342 33.0742L168.199 25.1253L167.037 26.7535L178.181 34.7024L179.342 33.0742ZM166.656 26.2113L170.381 39.3963L172.305 38.8525L168.58 25.6675L166.656 26.2113ZM171.92 39.9414L179.338 34.7053L178.185 33.0714L170.766 38.3074L171.92 39.9414Z" fill="#1E4364"/>
</svg>
