<svg width="220" height="90" viewBox="0 0 220 90" fill="none" xmlns="http://www.w3.org/2000/svg">
<path d="M31.7207 41.9464C30.9276 43.0181 29.9141 43.8273 28.6803 44.3739C27.4678 44.9364 26.1092 45.1585 24.6044 45.0401C23.1211 44.9377 21.6352 44.4352 20.1467 43.5327L18.2194 46.1372L16.1294 44.5906L18.0567 41.9861C16.1845 40.3021 15.0233 38.4642 14.5732 36.4724C14.1231 34.4806 14.5484 32.6058 15.8491 30.8481L19.7718 33.7509C19.2175 34.6345 18.9699 35.5295 19.0291 36.4358C19.1041 37.3206 19.5255 38.1633 20.2933 38.9637L25.528 31.8899C24.3615 30.4627 23.4629 29.2338 22.8323 28.2032C22.2175 27.1511 21.89 25.9798 21.8497 24.6894C21.8308 23.4148 22.3449 22.0702 23.3918 20.6554C24.7084 18.8763 26.4166 17.8679 28.5165 17.6304C30.6322 17.3715 32.7689 17.8911 34.9266 19.1893L36.8539 16.5849L38.9439 18.1315L37.0166 20.7359C38.776 22.3033 39.8431 24.0218 40.2178 25.8915C40.6298 27.7555 40.2525 29.6327 39.0859 31.5228L35.1632 28.62C35.5906 27.9079 35.7696 27.1281 35.7002 26.2805C35.6466 25.4115 35.3161 24.6029 34.7086 23.8548L29.5691 30.8C30.7515 32.2057 31.6501 33.4346 32.2648 34.4867C32.8955 35.5174 33.2202 36.67 33.2391 37.9445C33.2738 39.1977 32.7677 40.5316 31.7207 41.9464ZM27.2644 23.2226C26.614 24.1015 26.3636 24.9778 26.5132 25.8515C26.6843 26.7411 27.1411 27.6928 27.8836 28.7067L32.69 22.2117C31.689 21.6368 30.7036 21.4218 29.7338 21.5667C28.7855 21.7275 27.9623 22.2794 27.2644 23.2226ZM22.3833 40.5103C23.4375 41.0582 24.4546 41.2304 25.4347 41.0267C26.4306 40.8017 27.2458 40.2604 27.8803 39.403C28.5148 38.5456 28.7386 37.6828 28.5517 36.8146C28.4021 35.9409 27.956 34.9971 27.2135 33.9831L22.3833 40.5103Z" fill="#1E4364"/>
<path d="M28.6803 44.3739L28.2752 43.4596L28.2673 43.4632L28.2594 43.4668L28.6803 44.3739ZM24.6044 45.0401L24.6828 44.0432L24.6734 44.0425L24.6044 45.0401ZM20.1467 43.5327L20.6651 42.6776L19.8853 42.2048L19.3428 42.9379L20.1467 43.5327ZM18.2194 46.1372L17.6245 46.941L18.4283 47.5359L19.0232 46.732L18.2194 46.1372ZM16.1294 44.5906L15.3255 43.9957L14.7307 44.7995L15.5345 45.3944L16.1294 44.5906ZM18.0567 41.9861L18.8605 42.581L19.4011 41.8504L18.7254 41.2426L18.0567 41.9861ZM14.5732 36.4724L13.5978 36.6928L14.5732 36.4724ZM15.8491 30.8481L16.444 30.0442L15.6401 29.4494L15.0453 30.2532L15.8491 30.8481ZM19.7718 33.7509L20.6189 34.2824L21.1111 33.4979L20.3667 32.9471L19.7718 33.7509ZM19.0291 36.4358L18.0312 36.5009L18.0318 36.5106L18.0326 36.5202L19.0291 36.4358ZM20.2933 38.9637L19.5717 39.656L20.3921 40.5113L21.0972 39.5585L20.2933 38.9637ZM25.528 31.8899L26.3318 32.4848L26.7946 31.8594L26.3023 31.2571L25.528 31.8899ZM22.8323 28.2032L21.9689 28.7077L21.974 28.7164L21.9793 28.7251L22.8323 28.2032ZM21.8497 24.6894L20.8498 24.7042L20.8499 24.7124L20.8502 24.7206L21.8497 24.6894ZM28.5165 17.6304L28.6289 18.6241L28.638 18.623L28.5165 17.6304ZM34.9266 19.1893L34.4111 20.0462L35.1899 20.5147L35.7305 19.7842L34.9266 19.1893ZM36.8539 16.5849L37.4488 15.781L36.645 15.1862L36.0501 15.99L36.8539 16.5849ZM38.9439 18.1315L39.7478 18.7263L40.3426 17.9225L39.5388 17.3276L38.9439 18.1315ZM37.0166 20.7359L36.2128 20.1411L35.6695 20.8751L36.3514 21.4826L37.0166 20.7359ZM40.2178 25.8915L39.2373 26.088L39.2392 26.0976L39.2413 26.1073L40.2178 25.8915ZM39.0859 31.5228L38.4911 32.3267L39.3656 32.9738L39.9369 32.048L39.0859 31.5228ZM35.1632 28.62L34.3058 28.1053L33.8386 28.8838L34.5684 29.4238L35.1632 28.62ZM35.7002 26.2805L34.7021 26.342L34.7027 26.3521L34.7035 26.3621L35.7002 26.2805ZM34.7086 23.8548L35.4849 23.2244L34.6719 22.2233L33.9048 23.26L34.7086 23.8548ZM29.5691 30.8L28.7653 30.2051L28.2957 30.8396L28.8038 31.4436L29.5691 30.8ZM32.2648 34.4867L31.4014 34.9912L31.4065 35L31.4118 35.0087L32.2648 34.4867ZM33.2391 37.9445L32.2391 37.9593L32.2394 37.9722L33.2391 37.9445ZM26.5132 25.8515L25.5276 26.0203L25.5293 26.0303L25.5312 26.0403L26.5132 25.8515ZM27.8836 28.7067L27.0768 29.2976L27.8794 30.3935L28.6874 29.3016L27.8836 28.7067ZM32.69 22.2117L33.4938 22.8066L34.1619 21.9039L33.188 21.3446L32.69 22.2117ZM29.7338 21.5667L29.586 20.5777L29.5763 20.5791L29.5667 20.5808L29.7338 21.5667ZM22.3833 40.5103L21.5795 39.9155L20.8825 40.8573L21.9221 41.3976L22.3833 40.5103ZM25.4347 41.0267L25.6381 42.0058L25.6466 42.004L25.6551 42.0021L25.4347 41.0267ZM28.5517 36.8146L27.566 36.9834L27.5696 37.0043L27.5741 37.0251L28.5517 36.8146ZM27.2135 33.9832L28.0203 33.3923L27.2177 32.2964L26.4096 33.3883L27.2135 33.9832ZM30.9169 41.3515C30.2281 42.2823 29.3527 42.9823 28.2752 43.4596L29.0853 45.2882C30.4755 44.6724 31.6271 43.754 32.5246 42.5412L30.9169 41.3515ZM28.2594 43.4668C27.2222 43.948 26.0388 44.1498 24.6828 44.0432L24.526 46.0371C26.1796 46.1671 27.7134 45.9248 29.1011 45.2811L28.2594 43.4668ZM24.6734 44.0425C23.3742 43.9528 22.0405 43.5115 20.6651 42.6776L19.6282 44.3878C21.2298 45.3589 22.868 45.9226 24.5355 46.0378L24.6734 44.0425ZM19.3428 42.9379L17.4155 45.5423L19.0232 46.732L20.9505 44.1276L19.3428 42.9379ZM18.8142 45.3333L16.7242 43.7867L15.5345 45.3944L17.6245 46.941L18.8142 45.3333ZM16.9332 45.1854L18.8605 42.581L17.2529 41.3913L15.3255 43.9957L16.9332 45.1854ZM18.7254 41.2426C16.9708 39.6644 15.9434 37.9989 15.5486 36.2519L13.5978 36.6928C14.1033 38.9295 15.3982 40.9399 17.3879 42.7296L18.7254 41.2426ZM15.5486 36.2519C15.1676 34.5659 15.5114 32.9856 16.653 31.4429L15.0453 30.2532C13.5854 32.226 13.0786 34.3952 13.5978 36.6928L15.5486 36.2519ZM15.2543 31.6519L19.177 34.5548L20.3667 32.9471L16.444 30.0442L15.2543 31.6519ZM18.9247 33.2195C18.2759 34.2537 17.9564 35.3547 18.0312 36.5009L20.0269 36.3706C19.9835 35.7042 20.1591 35.0153 20.6189 34.2824L18.9247 33.2195ZM18.0326 36.5202C18.1314 37.6853 18.6858 38.7325 19.5717 39.656L21.015 38.2714C20.3652 37.594 20.0768 36.956 20.0255 36.3513L18.0326 36.5202ZM21.0972 39.5585L26.3318 32.4848L24.7242 31.2951L19.4895 38.3688L21.0972 39.5585ZM26.3023 31.2571C25.1512 29.8488 24.2833 28.6587 23.6853 27.6812L21.9793 28.7251C22.6425 29.8089 23.5717 31.0766 24.7537 32.5228L26.3023 31.2571ZM23.6957 27.6986C23.17 26.7991 22.8846 25.7922 22.8492 24.6582L20.8502 24.7206C20.8953 26.1675 21.265 27.5031 21.9689 28.7077L23.6957 27.6986ZM22.8496 24.6746C22.835 23.6891 23.2303 22.5547 24.1956 21.2503L22.588 20.0606C21.4594 21.5856 20.8267 23.1405 20.8498 24.7042L22.8496 24.6746ZM24.1956 21.2503C25.3559 19.6824 26.8193 18.8288 28.6289 18.6241L28.4041 16.6368C26.014 16.9071 24.0609 18.0702 22.588 20.0606L24.1956 21.2503ZM28.638 18.623C30.4937 18.3959 32.4086 18.8414 34.4111 20.0462L35.4422 18.3324C33.1292 16.9409 30.7707 16.3471 28.395 16.6378L28.638 18.623ZM35.7305 19.7842L37.6578 17.1797L36.0501 15.99L34.1228 18.5945L35.7305 19.7842ZM36.2591 17.3887L38.3491 18.9353L39.5388 17.3276L37.4488 15.781L36.2591 17.3887ZM38.1401 17.5366L36.2128 20.1411L37.8204 21.3308L39.7478 18.7263L38.1401 17.5366ZM36.3514 21.4826C37.9878 22.9403 38.9145 24.4771 39.2373 26.088L41.1983 25.695C40.7718 23.5666 39.5643 21.6663 37.6818 19.9892L36.3514 21.4826ZM39.2413 26.1073C39.5881 27.676 39.2889 29.2898 38.2349 30.9977L39.9369 32.048C41.216 29.9755 41.6715 27.835 41.1942 25.6757L39.2413 26.1073ZM39.6808 30.719L35.7581 27.8161L34.5684 29.4238L38.4911 32.3267L39.6808 30.719ZM36.0206 29.1346C36.5584 28.2387 36.7829 27.2495 36.6969 26.1988L34.7035 26.3621C34.7563 27.0066 34.6229 27.5771 34.3058 28.1053L36.0206 29.1346ZM36.6983 26.2189C36.6305 25.1197 36.2091 24.1163 35.4849 23.2244L33.9323 24.4852C34.4231 25.0896 34.6627 25.7033 34.7021 26.342L36.6983 26.2189ZM33.9048 23.26L28.7653 30.2051L30.3729 31.3948L35.5124 24.4497L33.9048 23.26ZM28.8038 31.4436C29.966 32.8254 30.8258 34.0062 31.4014 34.9912L33.1282 33.9822C32.4743 32.8631 31.537 31.5861 30.3344 30.1563L28.8038 31.4436ZM31.4118 35.0087C31.9437 35.8779 32.2228 36.8536 32.2392 37.9593L34.2389 37.9297C34.2176 36.4863 33.8472 35.1568 33.1178 33.9648L31.4118 35.0087ZM32.2394 37.9722C32.2659 38.927 31.8834 40.0454 30.9169 41.3515L32.5246 42.5412C33.6519 41.0178 34.2816 39.4683 34.2387 37.9168L32.2394 37.9722ZM26.4605 22.6278C25.6884 23.6711 25.3216 24.8175 25.5276 26.0203L27.4989 25.6827C27.4056 25.138 27.5396 24.5318 28.0682 23.8175L26.4605 22.6278ZM25.5312 26.0403C25.7389 27.1201 26.2787 28.2077 27.0768 29.2976L28.6904 28.1159C28.0035 27.1779 27.6297 26.362 27.4953 25.6627L25.5312 26.0403ZM28.6874 29.3016L33.4938 22.8066L31.8862 21.6169L27.0798 28.1119L28.6874 29.3016ZM33.188 21.3446C32.0277 20.6782 30.8166 20.3938 29.586 20.5777L29.8816 22.5557C30.5905 22.4498 31.3502 22.5955 32.192 23.0789L33.188 21.3446ZM29.5667 20.5808C28.3098 20.7938 27.2765 21.5252 26.4605 22.6278L28.0682 23.8175C28.6482 23.0337 29.2611 22.6611 29.9009 22.5526L29.5667 20.5808ZM21.9221 41.3976C23.1409 42.031 24.3922 42.2647 25.6381 42.0058L25.2313 40.0476C24.5171 40.196 23.7342 40.0854 22.8445 39.623L21.9221 41.3976ZM25.6551 42.0021C26.896 41.7217 27.914 41.0385 28.6841 39.9978L27.0765 38.8081C26.5776 39.4823 25.9652 39.8816 25.2143 40.0513L25.6551 42.0021ZM28.6841 39.9978C29.452 38.9602 29.7888 37.8096 29.5293 36.6041L27.5741 37.0251C27.6884 37.556 27.5776 38.1309 27.0765 38.8081L28.6841 39.9978ZM29.5374 36.6458C29.353 35.5693 28.8186 34.4824 28.0203 33.3923L26.4067 34.574C27.0935 35.5118 27.4512 36.3125 27.566 36.9834L29.5374 36.6458ZM26.4096 33.3883L21.5795 39.9155L23.1871 41.1052L28.0173 34.578L26.4096 33.3883Z" fill="#1E4364"/>
<path d="M48.9257 32.2398L50.7918 28.5218L58.2277 32.2539L45.1473 58.3156L41.0361 56.2521L52.2504 33.9085L48.9257 32.2398Z" fill="#1E4364"/>
<path d="M48.9257 32.2398L48.0319 31.7912L47.5834 32.685L48.4771 33.1335L48.9257 32.2398ZM50.7918 28.5218L51.2403 27.628L50.3466 27.1795L49.898 28.0732L50.7918 28.5218ZM58.2277 32.2539L59.1215 32.7025L59.57 31.8088L58.6763 31.3602L58.2277 32.2539ZM45.1473 58.3156L44.6987 59.2093L45.5925 59.6579L46.0411 58.7641L45.1473 58.3156ZM41.0361 56.2521L40.1423 55.8035L39.6938 56.6973L40.5875 57.1459L41.0361 56.2521ZM52.2504 33.9085L53.1442 34.357L53.5927 33.4633L52.699 33.0147L52.2504 33.9085ZM49.8194 32.6884L51.6855 28.9704L49.898 28.0732L48.0319 31.7912L49.8194 32.6884ZM50.3432 29.4155L57.7792 33.1477L58.6763 31.3602L51.2403 27.628L50.3432 29.4155ZM57.334 31.8054L44.2536 57.867L46.0411 58.7641L59.1215 32.7025L57.334 31.8054ZM45.5959 57.4218L41.4847 55.3584L40.5875 57.1459L44.6987 59.2093L45.5959 57.4218ZM41.9298 56.7007L53.1442 34.357L51.3567 33.4599L40.1423 55.8035L41.9298 56.7007ZM52.699 33.0147L49.3743 31.346L48.4771 33.1335L51.8019 34.8022L52.699 33.0147Z" fill="#1E4364"/>
<path d="M60.0881 48.9186C61.4366 44.5067 63.2284 41.29 65.4636 39.2684C67.7321 37.229 70.6897 36.7667 74.3365 37.8813C77.9833 38.996 80.1643 41.0289 80.8796 43.9802C81.6281 46.9138 81.3282 50.5865 79.9797 54.9984C78.6156 59.4612 76.7955 62.7251 74.5192 64.7899C72.2762 66.837 69.3313 67.3033 65.6845 66.1886C62.0377 65.074 59.8439 63.0371 59.1032 60.078C58.3957 57.1013 58.724 53.3814 60.0881 48.9186ZM75.6954 53.6889C76.3267 51.6232 76.7204 49.8334 76.8764 48.3196C77.0578 46.8135 76.877 45.4895 76.3337 44.3475C75.7982 43.18 74.7272 42.3507 73.1206 41.8597C71.5139 41.3686 70.1623 41.4574 69.0656 42.126C67.9767 42.7692 67.0738 43.7619 66.3568 45.1043C65.6652 46.4545 65.0038 48.1624 64.3724 50.2281C63.7177 52.3702 63.2957 54.2071 63.1064 55.7387C62.9171 57.2702 63.0941 58.607 63.6374 59.749C64.2061 60.8988 65.2938 61.7192 66.9005 62.2103C68.5071 62.7014 69.8548 62.6253 70.9437 61.9822C72.0581 61.3468 72.9649 60.3413 73.6643 58.9656C74.3636 57.59 75.0406 55.8311 75.6954 53.6889Z" fill="#1E4364"/>
<path d="M65.4636 39.2684L64.795 38.5247L64.7928 38.5267L65.4636 39.2684ZM80.8796 43.9802L79.9077 44.2158L79.9106 44.2275L80.8796 43.9802ZM74.5192 64.7899L73.8473 64.0492L73.8451 64.0513L74.5192 64.7899ZM59.1032 60.078L58.1302 60.3093L58.1331 60.3209L59.1032 60.078ZM76.8764 48.3196L75.8835 48.2L75.8825 48.2085L75.8816 48.2171L76.8764 48.3196ZM76.3337 44.3475L75.4247 44.7644L75.4307 44.7771L76.3337 44.3475ZM69.0656 42.126L69.5742 42.9871L69.5862 42.9798L69.0656 42.126ZM66.3568 45.1043L65.4747 44.6332L65.4706 44.6408L65.4667 44.6485L66.3568 45.1043ZM63.1064 55.7387L64.0989 55.8613L64.0989 55.8613L63.1064 55.7387ZM63.6374 59.749L62.7343 60.1786L62.7376 60.1855L62.741 60.1924L63.6374 59.749ZM70.9437 61.9822L70.4484 61.1135L70.4418 61.1172L70.4352 61.1212L70.9437 61.9822ZM73.6643 58.9656L74.5557 59.4188L73.6643 58.9656ZM61.0444 49.2109C62.3659 44.8873 64.0863 41.8624 66.1344 40.01L64.7928 38.5267C62.3705 40.7176 60.5072 44.1261 59.1318 48.6263L61.0444 49.2109ZM66.1321 40.012C68.0724 38.2678 70.6359 37.7959 74.0442 38.8377L74.6288 36.925C70.7436 35.7375 67.3918 36.1903 64.7951 38.5247L66.1321 40.012ZM74.0442 38.8377C77.4531 39.8796 79.2977 41.6987 79.9077 44.2157L81.8515 43.7447C81.031 40.3592 78.5136 38.1124 74.6288 36.925L74.0442 38.8377ZM79.9106 44.2275C80.596 46.9136 80.3442 50.3847 79.0234 54.7061L80.936 55.2907C82.3121 50.7884 82.6602 46.914 81.8485 43.733L79.9106 44.2275ZM79.0234 54.7061C77.6868 59.0791 75.9381 62.1527 73.8473 64.0492L75.191 65.5306C77.6528 63.2975 79.5445 59.8433 80.936 55.2907L79.0234 54.7061ZM73.8451 64.0513C71.9321 65.7972 69.3857 66.2742 65.9768 65.2323L65.3922 67.1449C69.2769 68.3323 72.6203 67.8768 75.1933 65.5285L73.8451 64.0513ZM65.9768 65.2323C62.5685 64.1906 60.7068 62.3661 60.0733 59.8352L58.1331 60.3209C58.9811 63.7082 61.5069 65.9574 65.3922 67.1449L65.9768 65.2323ZM60.0761 59.8468C59.4258 57.1108 59.7072 53.586 61.0444 49.2109L59.1318 48.6263C57.7409 53.1769 57.3656 57.0917 58.1303 60.3093L60.0761 59.8468ZM76.6517 53.9812C77.2948 51.8771 77.7064 50.0208 77.8711 48.4221L75.8816 48.2171C75.7344 49.6461 75.3587 51.3693 74.739 53.3966L76.6517 53.9812ZM77.8692 48.4392C78.0687 46.7831 77.8762 45.2622 77.2367 43.9179L75.4307 44.7771C75.8777 45.7168 76.0469 46.8439 75.8835 48.2L77.8692 48.4392ZM77.2427 43.9306C76.5541 42.4293 75.2035 41.4506 73.4129 40.9033L72.8283 42.816C74.2509 43.2508 75.0424 43.9307 75.4247 44.7644L77.2427 43.9306ZM73.4129 40.9033C71.6223 40.356 69.9553 40.4124 68.545 41.2722L69.5862 42.9798C70.3693 42.5024 71.4056 42.3812 72.8283 42.816L73.4129 40.9033ZM68.5571 41.265C67.2809 42.0188 66.2605 43.1621 65.4747 44.6332L67.2388 45.5755C67.8871 44.3618 68.6726 43.5196 69.5742 42.9871L68.5571 41.265ZM65.4667 44.6485C64.7397 46.0679 64.0581 47.8353 63.4161 49.9358L65.3288 50.5204C65.9495 48.4895 66.5908 46.841 67.2468 45.5602L65.4667 44.6485ZM63.4161 49.9358C62.7513 52.1109 62.3127 54.0076 62.114 55.616L64.0989 55.8613C64.2786 54.4066 64.6841 52.6295 65.3288 50.5204L63.4161 49.9358ZM62.114 55.616C61.9065 57.2946 62.093 58.8303 62.7343 60.1786L64.5404 59.3194C64.0953 58.3837 63.9278 57.2458 64.0989 55.8613L62.114 55.616ZM62.741 60.1924C63.4666 61.6592 64.8237 62.6212 66.6082 63.1666L67.1928 61.254C65.7639 60.8173 64.9457 60.1384 64.5337 59.3056L62.741 60.1924ZM66.6082 63.1666C68.3907 63.7115 70.0493 63.6719 71.4523 62.8432L70.4352 61.1212C69.6604 61.5788 68.6234 61.6913 67.1928 61.254L66.6082 63.1666ZM71.439 62.8509C72.7551 62.1006 73.786 60.9329 74.5557 59.4188L72.7728 58.5125C72.1439 59.7497 71.3611 60.5931 70.4484 61.1135L71.439 62.8509ZM74.5557 59.4188C75.2901 57.9741 75.9869 56.1563 76.6517 53.9812L74.739 53.3966C74.0944 55.5058 73.4371 57.2058 72.7728 58.5125L74.5557 59.4188Z" fill="#1E4364"/>
<path d="M87.3861 56.4819C87.7899 51.8862 88.8753 48.3678 90.6425 45.9264C92.4385 43.4608 95.2359 42.3949 99.0346 42.7287C102.833 43.0624 105.389 44.5987 106.701 47.3373C108.042 50.0518 108.51 53.7068 108.106 58.3025C107.698 62.9512 106.594 66.5217 104.796 69.0138C103.027 71.4818 100.242 72.5488 96.4437 72.2151C92.645 71.8813 90.0764 70.3439 88.7379 67.6029C87.4282 64.8376 86.9776 61.1306 87.3861 56.4819ZM103.643 57.9103C103.833 55.7586 103.846 53.9261 103.685 52.4129C103.55 50.9019 103.098 49.6442 102.33 48.6398C101.564 47.6088 100.344 47.0197 98.6705 46.8727C96.9969 46.7257 95.6931 47.0929 94.759 47.9746C93.8273 48.8296 93.1499 49.9881 92.727 51.45C92.3307 52.9143 92.0379 54.7223 91.8489 56.874C91.6528 59.1054 91.6211 60.9899 91.7537 62.5274C91.8863 64.0649 92.3368 65.3358 93.1051 66.3403C93.9001 67.3471 95.1343 67.924 96.8079 68.071C98.4814 68.2181 99.7841 67.8641 100.716 67.009C101.674 66.1563 102.353 64.9845 102.751 63.4937C103.15 62.0029 103.447 60.1417 103.643 57.9103Z" fill="#1E4364"/>
<path d="M90.6425 45.9264L89.8342 45.3376L89.8324 45.34L90.6425 45.9264ZM106.701 47.3373L105.799 47.7694L105.804 47.7802L106.701 47.3373ZM104.796 69.0138L103.985 68.4287L103.983 68.4311L104.796 69.0138ZM88.7379 67.6029L87.834 68.0309L87.8393 68.0417L88.7379 67.6029ZM103.685 52.4129L102.689 52.5018L102.69 52.5104L102.69 52.519L103.685 52.4129ZM102.33 48.6398L101.527 49.2362L101.536 49.2474L102.33 48.6398ZM94.759 47.9746L95.4352 48.7114L95.4454 48.7018L94.759 47.9746ZM92.727 51.45L91.7664 51.1722L91.764 51.1804L91.7617 51.1888L92.727 51.45ZM91.7537 62.5274L92.75 62.4414L92.75 62.4414L91.7537 62.5274ZM93.1051 66.3403L92.3109 66.9479L92.3155 66.954L92.3203 66.96L93.1051 66.3403ZM100.716 67.009L100.051 66.2619L100.045 66.267L100.04 66.2722L100.716 67.009ZM102.751 63.4937L103.717 63.752L102.751 63.4937ZM88.3822 56.5694C88.778 52.0658 89.8334 48.7497 91.4525 46.5127L89.8324 45.34C87.9173 47.9858 86.8018 51.7067 86.3899 56.3943L88.3822 56.5694ZM91.4508 46.5152C92.9869 44.4064 95.3968 43.4129 98.9471 43.7248L99.1221 41.7325C95.075 41.3769 91.8901 42.5152 89.8342 45.3376L91.4508 46.5152ZM98.9471 43.7248C102.498 44.0368 104.68 45.4337 105.799 47.7694L107.602 46.9053C106.097 43.7637 103.169 42.0881 99.1221 41.7325L98.9471 43.7248ZM105.804 47.7802C107.032 50.2657 107.506 53.7135 107.11 58.2149L109.102 58.39C109.514 53.7002 109.051 49.8379 107.597 46.8945L105.804 47.7802ZM107.11 58.2149C106.71 62.7701 105.637 66.1396 103.985 68.4287L105.607 69.599C107.552 66.9037 108.686 63.1323 109.102 58.39L107.11 58.2149ZM103.983 68.4311C102.474 70.5359 100.082 71.5309 96.5313 71.2189L96.3562 73.2112C100.403 73.5668 103.579 72.4276 105.609 69.5965L103.983 68.4311ZM96.5313 71.2189C92.981 70.9069 90.7813 69.5084 89.6364 67.1641L87.8393 68.0417C89.3715 71.1794 92.3091 72.8556 96.3562 73.2112L96.5313 71.2189ZM89.6416 67.1748C88.4379 64.6332 87.9818 61.1268 88.3822 56.5694L86.3899 56.3943C85.9734 61.1345 86.4185 65.042 87.8341 68.0309L89.6416 67.1748ZM104.64 57.9979C104.832 55.8061 104.85 53.9049 104.679 52.3067L102.69 52.519C102.843 53.9474 102.833 55.7111 102.647 57.8228L104.64 57.9979ZM104.681 52.3239C104.532 50.6624 104.029 49.2146 103.124 48.0322L101.536 49.2474C102.168 50.0738 102.567 51.1414 102.689 52.5018L104.681 52.3239ZM103.133 48.0434C102.147 46.7176 100.623 46.0404 98.758 45.8765L98.5829 47.8689C100.065 47.9991 100.98 48.4999 101.527 49.2362L103.133 48.0434ZM98.758 45.8765C96.8928 45.7126 95.2738 46.1136 94.0726 47.2473L95.4454 48.7018C96.1124 48.0722 97.101 47.7387 98.5829 47.8689L98.758 45.8765ZM94.0829 47.2378C92.9908 48.2399 92.2298 49.5701 91.7664 51.1722L93.6876 51.7279C94.07 50.4062 94.6637 49.4193 95.4351 48.7113L94.0829 47.2378ZM91.7617 51.1888C91.345 52.7282 91.045 54.5985 90.8527 56.7865L92.845 56.9615C93.0309 54.8461 93.3163 53.1004 93.6923 51.7113L91.7617 51.1888ZM90.8527 56.7865C90.6536 59.0522 90.6181 60.9987 90.7574 62.6133L92.75 62.4414C92.624 60.9811 92.652 59.1586 92.845 56.9615L90.8527 56.7865ZM90.7574 62.6133C90.9027 64.2984 91.4037 65.762 92.3109 66.9479L93.8994 65.7327C93.2698 64.9097 92.8699 63.8313 92.75 62.4414L90.7574 62.6133ZM92.3203 66.96C93.3344 68.2443 94.8616 68.9039 96.7203 69.0672L96.8954 67.0749C95.407 66.9441 94.4657 66.4498 93.89 65.7206L92.3203 66.96ZM96.7203 69.0672C98.5772 69.2303 100.191 68.8475 101.392 67.7458L100.04 66.2722C99.3767 66.8806 98.3857 67.2058 96.8954 67.0749L96.7203 69.0672ZM101.381 67.7561C102.512 66.749 103.279 65.3929 103.717 63.752L101.785 63.2353C101.427 64.5761 100.836 65.5635 100.051 66.2619L101.381 67.7561ZM103.717 63.752C104.136 62.1864 104.441 60.2636 104.64 57.9979L102.647 57.8228C102.454 60.0198 102.164 61.8193 101.785 63.2353L103.717 63.752Z" fill="#1E4364"/>
<path d="M119.781 72.8377C118.956 72.8934 118.245 72.6608 117.649 72.1398C117.052 71.6188 116.726 70.9459 116.671 70.1211C116.615 69.2963 116.848 68.5857 117.369 67.9892C117.89 67.3928 118.562 67.0667 119.387 67.011C120.185 66.9571 120.883 67.1907 121.479 67.7117C122.076 68.2327 122.402 68.9056 122.457 69.7304C122.513 70.5552 122.28 71.2658 121.759 71.8622C121.238 72.4587 120.579 72.7839 119.781 72.8377Z" fill="#1E4364"/>
<path d="M117.649 72.1398L118.307 71.3866L118.307 71.3866L117.649 72.1398ZM117.369 67.9892L118.122 68.6471L117.369 67.9892ZM121.479 67.7117L120.821 68.4648L121.479 67.7117ZM121.759 71.8622L121.006 71.2044L121.759 71.8622ZM119.713 71.84C119.14 71.8787 118.694 71.7248 118.307 71.3866L116.991 72.8929C117.797 73.5967 118.772 73.9082 119.848 73.8355L119.713 71.84ZM118.307 71.3866C117.92 71.0485 117.707 70.6268 117.668 70.0537L115.673 70.1884C115.746 71.2649 116.185 72.1891 116.991 72.8929L118.307 71.3866ZM117.668 70.0537C117.63 69.4806 117.784 69.0342 118.122 68.6471L116.615 67.3314C115.912 68.1371 115.6 69.112 115.673 70.1884L117.668 70.0537ZM118.122 68.6471C118.46 68.2599 118.882 68.0474 119.455 68.0087L119.32 66.0133C118.243 66.086 117.319 66.5256 116.615 67.3314L118.122 68.6471ZM119.455 68.0087C119.991 67.9725 120.427 68.1203 120.821 68.4648L122.137 66.9585C121.339 66.2611 120.38 65.9417 119.32 66.0133L119.455 68.0087ZM120.821 68.4648C121.208 68.803 121.421 69.2246 121.46 69.7977L123.455 69.663C123.382 68.5865 122.943 67.6624 122.137 66.9585L120.821 68.4648ZM121.46 69.7977C121.498 70.3708 121.344 70.8172 121.006 71.2044L122.513 72.5201C123.216 71.7144 123.528 70.7395 123.455 69.663L121.46 69.7977ZM121.006 71.2044C120.662 71.5988 120.25 71.8038 119.713 71.84L119.848 73.8355C120.908 73.7639 121.815 73.3186 122.513 72.5201L121.006 71.2044Z" fill="#1E4364"/>
<path d="M129.324 56.9315C128.307 52.4319 128.267 48.7499 129.204 45.8858C130.162 42.9897 132.501 41.121 136.22 40.2796C139.94 39.4382 142.842 40.1214 144.927 42.329C147.032 44.5048 148.594 47.8425 149.612 52.3422C150.641 56.8938 150.68 60.6307 149.728 63.5528C148.796 66.4429 146.471 68.3087 142.751 69.1501C139.032 69.9915 136.117 69.3113 134.005 67.1095C131.914 64.8758 130.354 61.4831 129.324 56.9315ZM145.242 53.3306C144.766 51.2239 144.22 49.4746 143.604 48.0828C143.014 46.6851 142.2 45.6252 141.162 44.9031C140.118 44.1551 138.777 43.9664 137.138 44.3371C135.5 44.7077 134.37 45.4554 133.75 46.58C133.123 47.6786 132.832 48.9886 132.875 50.5098C132.944 52.0252 133.217 53.8362 133.694 55.943C134.188 58.1278 134.733 59.9321 135.329 61.3558C135.924 62.7795 136.741 63.8523 137.779 64.5744C138.843 65.2906 140.195 65.4633 141.833 65.0926C143.472 64.7219 144.604 63.9873 145.231 62.8887C145.883 61.7842 146.172 60.4613 146.097 58.9199C146.021 57.3785 145.736 55.5154 145.242 53.3306Z" fill="#1E4364"/>
<path d="M129.204 45.8858L128.255 45.5717L128.254 45.5746L129.204 45.8858ZM144.927 42.329L144.2 43.0157L144.208 43.0244L144.927 42.329ZM149.728 63.5528L148.777 63.243L148.776 63.2459L149.728 63.5528ZM134.005 67.1095L133.275 67.793L133.284 67.8016L134.005 67.1095ZM143.604 48.0828L142.683 48.4714L142.686 48.4794L142.689 48.4873L143.604 48.0828ZM141.162 44.9031L140.58 45.7161L140.591 45.7241L141.162 44.9031ZM133.75 46.58L134.618 47.0754L134.625 47.0631L133.75 46.58ZM132.875 50.5098L131.875 50.5383L131.876 50.5469L131.876 50.5556L132.875 50.5098ZM135.329 61.3558L136.251 60.9699L136.251 60.9699L135.329 61.3558ZM137.779 64.5744L137.208 65.3954L137.214 65.3998L137.221 65.404L137.779 64.5744ZM145.231 62.8887L144.37 62.3801L144.366 62.3867L144.362 62.3934L145.231 62.8887ZM146.097 58.9199L147.095 58.8711L146.097 58.9199ZM130.3 56.7108C129.302 52.3013 129.295 48.8213 130.155 46.1969L128.254 45.5746C127.238 48.6786 127.311 52.5624 128.349 57.1521L130.3 56.7108ZM130.154 46.1998C130.973 43.7228 132.965 42.0413 136.441 41.2549L136 39.3042C132.037 40.2006 129.352 42.2566 128.255 45.5717L130.154 46.1998ZM136.441 41.2549C139.918 40.4685 142.422 41.1328 144.2 43.0157L145.654 41.6424C143.262 39.1099 139.962 38.408 136 39.3042L136.441 41.2549ZM144.208 43.0244C146.136 45.0167 147.639 48.1554 148.636 52.5628L150.587 52.1215C149.548 47.5296 147.929 43.9929 145.646 41.6337L144.208 43.0244ZM148.636 52.5628C149.645 57.0229 149.652 60.559 148.777 63.243L150.679 63.8625C151.709 60.7023 151.638 56.7648 150.587 52.1215L148.636 52.5628ZM148.776 63.2459C147.982 65.7108 146.007 67.3883 142.531 68.1747L142.972 70.1255C146.934 69.2292 149.611 67.1751 150.68 63.8596L148.776 63.2459ZM142.531 68.1747C139.055 68.9611 136.533 68.3006 134.727 66.4174L133.284 67.8016C135.7 70.322 139.009 71.0219 142.972 70.1255L142.531 68.1747ZM134.736 66.4261C132.814 64.373 131.309 61.173 130.3 56.7108L128.349 57.1521C129.399 61.7933 131.015 65.3786 133.275 67.7929L134.736 66.4261ZM146.218 53.11C145.732 50.964 145.169 49.1481 144.519 47.6783L142.689 48.4873C143.271 49.801 143.799 51.4837 144.267 53.5513L146.218 53.11ZM144.525 47.6941C143.877 46.1572 142.955 44.9321 141.733 44.0822L140.591 45.7241C141.446 46.3183 142.152 47.213 142.683 48.4714L144.525 47.6941ZM141.745 44.0902C140.402 43.1283 138.744 42.9486 136.918 43.3617L137.359 45.3124C138.81 44.9842 139.834 45.1819 140.58 45.716L141.745 44.0902ZM136.918 43.3617C135.091 43.7748 133.672 44.6508 132.874 46.0969L134.625 47.0631C135.068 46.26 135.908 45.6407 137.359 45.3124L136.918 43.3617ZM132.881 46.0847C132.147 47.3723 131.828 48.8712 131.875 50.5383L133.875 50.4813C133.835 49.1059 134.1 47.9849 134.618 47.0753L132.881 46.0847ZM131.876 50.5556C131.949 52.1487 132.234 54.0214 132.719 56.1637L134.669 55.7224C134.201 53.6511 133.94 51.9017 133.874 50.4641L131.876 50.5556ZM132.719 56.1637C133.221 58.3821 133.781 60.2465 134.406 61.7416L136.251 60.9699C135.686 59.6176 135.156 57.8735 134.669 55.7224L132.719 56.1637ZM134.406 61.7416C135.059 63.302 135.982 64.5429 137.208 65.3954L138.35 63.7534C137.499 63.1618 136.789 62.2569 136.251 60.9699L134.406 61.7416ZM137.221 65.404C138.579 66.3177 140.234 66.4797 142.054 66.068L141.613 64.1173C140.156 64.4469 139.108 64.2635 138.337 63.7448L137.221 65.404ZM142.054 66.068C143.872 65.6567 145.293 64.7995 146.1 63.384L144.362 62.3934C143.916 63.1751 143.072 63.7872 141.613 64.1173L142.054 66.068ZM146.092 63.3973C146.862 62.0929 147.178 60.5676 147.095 58.8711L145.098 58.9687C145.165 60.3549 144.904 61.4755 144.37 62.3801L146.092 63.3973ZM147.095 58.8711C147.016 57.2524 146.719 55.3284 146.218 53.11L144.267 53.5513C144.754 55.7024 145.026 57.5046 145.098 58.9687L147.095 58.8711Z" fill="#1E4364"/>
<path d="M156.78 49.956C154.85 45.7655 154.047 42.172 154.37 39.1756C154.707 36.1438 156.607 33.8305 160.071 32.2358C163.534 30.641 166.515 30.7072 169.013 32.4342C171.524 34.1259 173.744 37.067 175.673 41.2575C177.625 45.4965 178.438 49.144 178.113 52.2C177.801 55.2207 175.913 57.5284 172.449 59.1231C168.985 60.7178 165.992 60.6573 163.47 58.9414C160.961 57.1901 158.731 54.195 156.78 49.956ZM171.604 43.131C170.701 41.169 169.804 39.5711 168.913 38.3373C168.046 37.0923 167.03 36.2244 165.864 35.7334C164.688 35.2183 163.336 35.312 161.81 36.0145C160.284 36.7171 159.334 37.6828 158.961 38.9117C158.576 40.1164 158.563 41.4583 158.921 42.9374C159.303 44.4054 159.946 46.1205 160.849 48.0825C161.786 50.1172 162.693 51.7692 163.571 53.0384C164.449 54.3075 165.471 55.1876 166.636 55.6785C167.826 56.1583 169.184 56.0469 170.71 55.3443C172.236 54.6418 173.191 53.6882 173.576 52.4835C173.985 51.2677 173.993 49.9137 173.599 48.4214C173.206 46.9292 172.541 45.1658 171.604 43.131Z" fill="#1E4364"/>
<path d="M154.37 39.1756L153.377 39.0653L153.376 39.0683L154.37 39.1756ZM169.013 32.4342L168.444 33.2568L168.454 33.2636L169.013 32.4342ZM178.113 52.2L177.119 52.0943L177.118 52.0973L178.113 52.2ZM163.47 58.9414L162.898 59.7615L162.908 59.7682L163.47 58.9414ZM168.913 38.3373L168.092 38.9086L168.097 38.9157L168.102 38.9227L168.913 38.3373ZM165.864 35.7334L165.463 36.6495L165.476 36.655L165.864 35.7334ZM158.961 38.9117L159.913 39.216L159.918 39.2026L158.961 38.9117ZM158.921 42.9374L157.949 43.1727L157.951 43.1811L157.953 43.1894L158.921 42.9374ZM163.571 53.0384L164.393 52.4695L164.393 52.4695L163.571 53.0384ZM166.636 55.6785L166.248 56.6001L166.255 56.6031L166.262 56.606L166.636 55.6785ZM173.576 52.4835L172.628 52.1646L172.626 52.1719L172.623 52.1792L173.576 52.4835ZM173.599 48.4214L174.566 48.1665L173.599 48.4214ZM157.688 49.5378C155.797 45.4312 155.069 42.0284 155.365 39.2828L153.376 39.0683C153.026 42.3156 153.903 46.0998 155.871 50.3742L157.688 49.5378ZM155.364 39.2858C155.652 36.6927 157.251 34.6346 160.489 33.1441L159.652 31.3274C155.962 33.0264 153.761 35.5948 153.377 39.0653L155.364 39.2858ZM160.489 33.1441C163.727 31.6534 166.314 31.7838 168.444 33.2568L169.582 31.6117C166.717 29.6305 163.342 29.6286 159.652 31.3274L160.489 33.1441ZM168.454 33.2636C170.754 34.8125 172.875 37.5711 174.765 41.6757L176.582 40.8393C174.613 36.5629 172.295 33.4392 169.572 31.6049L168.454 33.2636ZM174.765 41.6757C176.677 45.8294 177.417 49.2873 177.119 52.0943L179.108 52.3058C179.459 49.0007 178.573 45.1636 176.582 40.8393L174.765 41.6757ZM177.118 52.0973C176.852 54.6735 175.269 56.7241 172.031 58.2148L172.867 60.0315C176.557 58.3327 178.75 55.7679 179.108 52.3028L177.118 52.0973ZM172.031 58.2148C168.794 59.7052 166.19 59.5822 164.033 58.1146L162.908 59.7682C165.795 61.7324 169.177 61.7305 172.867 60.0315L172.031 58.2148ZM164.043 58.1214C161.737 56.5118 159.601 53.6935 157.688 49.5378L155.871 50.3742C157.861 54.6966 160.186 57.8685 162.898 59.7614L164.043 58.1214ZM172.512 42.7128C171.592 40.7143 170.664 39.0548 169.723 37.7518L168.102 38.9227C168.943 40.0873 169.809 41.6237 170.696 43.5492L172.512 42.7128ZM169.733 37.7659C168.78 36.3969 167.624 35.3898 166.252 34.8118L165.476 36.655C166.435 37.0589 167.311 37.7877 168.092 38.9086L169.733 37.7659ZM166.265 34.8174C164.752 34.1549 163.093 34.3232 161.392 35.1062L162.229 36.9229C163.58 36.3008 164.623 36.2816 165.463 36.6495L166.265 34.8174ZM161.392 35.1062C159.691 35.8892 158.485 37.0406 158.004 38.6208L159.918 39.2026C160.184 38.3251 160.877 37.545 162.229 36.9229L161.392 35.1062ZM158.008 38.6074C157.557 40.0193 157.556 41.5518 157.949 43.1727L159.893 42.7022C159.569 41.3648 159.595 40.2134 159.913 39.216L158.008 38.6074ZM157.953 43.1894C158.355 44.7328 159.022 46.5056 159.941 48.5007L161.757 47.6643C160.869 45.7353 160.251 44.0781 159.888 42.6854L157.953 43.1894ZM159.941 48.5007C160.892 50.5668 161.827 52.2744 162.749 53.6072L164.393 52.4695C163.56 51.264 162.68 49.6677 161.757 47.6643L159.941 48.5007ZM162.749 53.6072C163.711 54.9983 164.872 56.0205 166.248 56.6001L167.024 54.757C166.069 54.3547 165.187 53.6168 164.393 52.4695L162.749 53.6072ZM166.262 56.606C167.78 57.218 169.433 57.033 171.128 56.2527L170.291 54.436C168.934 55.0608 167.872 55.0986 167.01 54.7511L166.262 56.606ZM171.128 56.2527C172.821 55.4732 174.033 54.3399 174.528 52.7878L172.623 52.1792C172.349 53.0364 171.65 53.8104 170.291 54.436L171.128 56.2527ZM174.524 52.8024C175.007 51.3665 174.999 49.8089 174.566 48.1665L172.632 48.6764C172.986 50.0184 172.963 51.1688 172.628 52.1646L174.524 52.8024ZM174.566 48.1665C174.153 46.5994 173.464 44.7789 172.512 42.7128L170.696 43.5492C171.618 45.5526 172.259 47.259 172.632 48.6764L174.566 48.1665Z" fill="#1E4364"/>
<path d="M182.19 37.4359C179.433 33.7368 177.902 30.3881 177.596 27.3898C177.296 24.3542 178.675 21.6971 181.732 19.4184C184.79 17.1397 187.72 16.586 190.522 17.7572C193.329 18.8911 196.111 21.3076 198.868 25.0067C201.656 28.7486 203.208 32.148 203.524 35.205C203.846 38.2246 202.478 40.8738 199.42 43.1525C196.363 45.4312 193.422 45.9929 190.599 44.8376C187.781 43.645 184.978 41.1778 182.19 37.4359ZM195.275 27.6838C193.985 25.9518 192.775 24.5748 191.648 23.5527C190.542 22.5146 189.368 21.8764 188.126 21.6379C186.868 21.3781 185.565 21.7501 184.218 22.754C182.871 23.7579 182.142 24.8997 182.032 26.1794C181.905 27.4376 182.171 28.7531 182.828 30.1258C183.506 31.4825 184.491 33.0269 185.782 34.7588C187.12 36.5549 188.351 37.9827 189.473 39.0421C190.595 40.1016 191.777 40.7505 193.019 40.989C194.282 41.2115 195.587 40.8208 196.934 39.8169C198.281 38.813 199.018 37.6819 199.145 36.4236C199.293 35.1494 199.019 33.8232 198.325 32.4451C197.63 31.067 196.614 29.4799 195.275 27.6838Z" fill="#1E4364"/>
<path d="M177.596 27.3898L176.601 27.4882L176.601 27.4912L177.596 27.3898ZM190.522 17.7572L190.136 18.6799L190.147 18.6844L190.522 17.7572ZM203.524 35.205L202.53 35.3078L202.53 35.3108L203.524 35.205ZM190.599 44.8376L190.209 45.7586L190.22 45.7631L190.599 44.8376ZM191.648 23.5527L190.964 24.2819L190.97 24.2878L190.976 24.2936L191.648 23.5527ZM188.126 21.6379L187.923 22.6173L187.937 22.62L188.126 21.6379ZM182.032 26.1794L183.027 26.2794L183.028 26.2654L182.032 26.1794ZM182.828 30.1258L181.926 30.5576L181.93 30.5654L181.933 30.5731L182.828 30.1258ZM189.473 39.0421L190.159 38.315L190.159 38.315L189.473 39.0421ZM193.019 40.989L192.83 41.971L192.838 41.9725L192.845 41.9738L193.019 40.989ZM199.145 36.4236L198.151 36.3083L198.15 36.316L198.15 36.3236L199.145 36.4236ZM198.325 32.4451L199.218 31.9951L198.325 32.4451ZM182.991 36.8383C180.29 33.2133 178.871 30.0357 178.591 27.2885L176.601 27.4912C176.932 30.7405 178.576 34.2603 181.388 38.0334L182.991 36.8383ZM178.591 27.2915C178.335 24.6951 179.472 22.3499 182.33 20.2202L181.135 18.6166C177.877 21.0443 176.258 24.0133 176.601 27.4882L178.591 27.2915ZM182.33 20.2202C185.188 18.0902 187.746 17.681 190.136 18.6799L190.907 16.8346C187.693 15.491 184.392 16.1892 181.135 18.6166L182.33 20.2202ZM190.147 18.6844C192.718 19.7227 195.365 21.981 198.066 25.6043L199.669 24.4092C196.856 20.6343 193.94 18.0596 190.896 16.83L190.147 18.6844ZM198.066 25.6043C200.798 29.2708 202.239 32.5 202.53 35.3078L204.519 35.1022C204.177 31.7961 202.514 28.2263 199.669 24.4092L198.066 25.6043ZM202.53 35.3108C202.804 37.8862 201.681 40.2207 198.823 42.3507L200.018 43.9543C203.275 41.527 204.888 38.5631 204.519 35.0991L202.53 35.3108ZM198.823 42.3507C195.965 44.4803 193.392 44.9002 190.978 43.9121L190.22 45.7631C193.452 47.0856 196.76 46.382 200.018 43.9543L198.823 42.3507ZM190.989 43.9167C188.399 42.8205 185.725 40.5066 182.991 36.8383L181.388 38.0334C184.231 41.8489 187.164 44.4694 190.209 45.7585L190.989 43.9167ZM196.077 27.0862C194.762 25.3221 193.51 23.8912 192.32 22.8118L190.976 24.2936C192.041 25.2584 193.207 26.5816 194.474 28.2813L196.077 27.0862ZM192.332 22.8235C191.116 21.682 189.776 20.9366 188.314 20.6559L187.937 22.62C188.959 22.8162 189.968 23.3473 190.964 24.2819L192.332 22.8235ZM188.328 20.6586C186.711 20.3245 185.122 20.8333 183.621 21.9522L184.816 23.5558C186.009 22.6669 187.025 22.4317 187.923 22.6173L188.328 20.6586ZM183.621 21.9522C182.119 23.071 181.178 24.4477 181.036 26.0933L183.028 26.2654C183.107 25.3516 183.623 24.4448 184.816 23.5558L183.621 21.9522ZM181.037 26.0793C180.889 27.5541 181.206 29.0533 181.926 30.5576L183.73 29.694C183.136 28.4529 182.922 27.3212 183.027 26.2794L181.037 26.0793ZM181.933 30.5731C182.647 31.9995 183.667 33.5953 184.98 35.3564L186.584 34.1613C185.315 32.4585 184.366 30.9656 183.722 29.6785L181.933 30.5731ZM184.98 35.3564C186.339 37.1801 187.608 38.6567 188.786 39.7692L190.159 38.315C189.093 37.3087 187.901 35.9297 186.584 34.1613L184.98 35.3564ZM188.786 39.7692C190.016 40.9304 191.364 41.6895 192.83 41.971L193.207 40.0069C192.19 39.8115 191.174 39.2727 190.159 38.315L188.786 39.7692ZM192.845 41.9738C194.457 42.2577 196.036 41.7337 197.532 40.6187L196.337 39.0151C195.139 39.9079 194.107 40.1653 193.192 40.0041L192.845 41.9738ZM197.532 40.6187C199.026 39.5049 199.977 38.1449 200.14 36.5237L198.15 36.3236C198.06 37.2189 197.536 38.1211 196.337 39.0151L197.532 40.6187ZM200.138 36.5389C200.313 35.0341 199.982 33.5119 199.218 31.9951L197.432 32.8951C198.056 34.1346 198.272 35.2647 198.151 36.3083L200.138 36.5389ZM199.218 31.9951C198.489 30.5478 197.436 28.91 196.077 27.0862L194.474 28.2813C195.791 30.0498 196.772 31.5861 197.432 32.8951L199.218 31.9951Z" fill="#1E4364"/>
</svg>
