<svg width="229" height="91" viewBox="0 0 229 91" fill="none" xmlns="http://www.w3.org/2000/svg">
<path d="M31.7294 41.9407C30.9347 43.0113 29.9201 43.8191 28.6854 44.3639C27.4722 44.9247 26.1133 45.1448 24.6087 45.0243C23.1255 44.9197 21.6403 44.4151 20.1531 43.5106L18.222 46.1122L16.1343 44.5627L18.0653 41.961C16.1955 40.2743 15.037 38.4347 14.5897 36.4423C14.1424 34.4498 14.5703 32.5757 15.8736 30.8198L19.7922 33.7282C19.2366 34.611 18.9877 35.5056 19.0456 36.412C19.1193 37.297 19.5395 38.1402 20.3062 38.9417L25.551 31.8754C24.3865 30.4466 23.4896 29.2164 22.8605 28.1848C22.2472 27.1319 21.9214 25.9602 21.8829 24.6697C21.8659 23.3951 22.3818 22.0511 23.4308 20.6379C24.7499 18.8606 26.4596 17.8547 28.5598 17.6202C30.6758 17.3643 32.8118 17.887 34.9677 19.1882L36.8987 16.5865L38.9865 18.1361L37.0554 20.7378C38.8126 22.3077 39.8773 24.0277 40.2493 25.8979C40.6586 27.7625 40.2786 29.6391 39.1094 31.5277L35.1908 28.6192C35.6193 27.9077 35.7994 27.1281 35.7311 26.2805C35.6788 25.4114 35.3494 24.6024 34.743 23.8534L29.5936 30.7912C30.774 32.1987 31.6708 33.4289 32.2841 34.4818C32.9132 35.5133 33.2363 36.6664 33.2534 37.941C33.2863 39.1942 32.7783 40.5274 31.7294 41.9407ZM27.2997 23.2106C26.6481 24.0885 26.3964 24.9644 26.5448 25.8384C26.7146 26.7282 27.17 27.6806 27.9111 28.6956L32.7267 22.2074C31.7265 21.6311 30.7414 21.4147 29.7714 21.5582C28.8229 21.7176 27.999 22.2684 27.2997 23.2106ZM22.394 40.4913C23.4474 41.0407 24.4643 41.2143 25.4446 41.0121C26.4409 40.7884 27.2568 40.2483 27.8926 39.3918C28.5283 38.5353 28.7533 37.6728 28.5676 36.8044C28.4193 35.9305 27.9745 34.986 27.2335 33.971L22.394 40.4913Z" fill="#1E4364"/>
<path d="M28.6854 44.3639L28.2817 43.449L28.2738 43.4525L28.2659 43.4562L28.6854 44.3639ZM24.6087 45.0243L24.6885 44.0274L24.679 44.0268L24.6087 45.0243ZM20.1531 43.5106L20.6727 42.6562L19.8936 42.1823L19.3501 42.9146L20.1531 43.5106ZM18.222 46.1122L17.626 46.9152L18.429 47.5112L19.025 46.7082L18.222 46.1122ZM16.1343 44.5627L15.3313 43.9667L14.7353 44.7696L15.5383 45.3656L16.1343 44.5627ZM18.0653 41.961L18.8683 42.557L19.4099 41.8272L18.7351 41.2184L18.0653 41.961ZM14.5897 36.4423L13.6139 36.6613L14.5897 36.4423ZM15.8736 30.8198L16.4696 30.0168L15.6666 29.4208L15.0706 30.2238L15.8736 30.8198ZM19.7922 33.7282L20.6385 34.2609L21.1317 33.4772L20.3881 32.9252L19.7922 33.7282ZM19.0456 36.412L18.0476 36.4757L18.0482 36.4854L18.049 36.4951L19.0456 36.412ZM20.3062 38.9417L19.5836 39.633L20.4028 40.4894L21.1092 39.5377L20.3062 38.9417ZM25.551 31.8754L26.354 32.4714L26.8176 31.8467L26.3261 31.2437L25.551 31.8754ZM22.8605 28.1848L21.9964 28.6881L22.0015 28.6969L22.0068 28.7055L22.8605 28.1848ZM21.8829 24.6697L20.883 24.683L20.8831 24.6912L20.8833 24.6995L21.8829 24.6697ZM28.5598 17.6202L28.6707 18.6141L28.6798 18.613L28.5598 17.6202ZM34.9677 19.1882L34.4509 20.0443L35.229 20.514L35.7707 19.7842L34.9677 19.1882ZM36.8987 16.5865L37.4947 15.7835L36.6917 15.1875L36.0957 15.9905L36.8987 16.5865ZM38.9865 18.1361L39.7894 18.7321L40.3854 17.9291L39.5825 17.3331L38.9865 18.1361ZM37.0554 20.7378L36.2525 20.1418L35.7082 20.8751L36.3892 21.4835L37.0554 20.7378ZM40.2493 25.8979L39.2685 26.093L39.2704 26.1027L39.2725 26.1123L40.2493 25.8979ZM39.1094 31.5277L38.5134 32.3306L39.387 32.979L39.9596 32.0541L39.1094 31.5277ZM35.1908 28.6192L34.3341 28.1033L33.8658 28.8811L34.5948 29.4222L35.1908 28.6192ZM35.7311 26.2805L34.7329 26.3406L34.7335 26.3507L34.7344 26.3607L35.7311 26.2805ZM34.743 23.8534L35.5202 23.2241L34.7086 22.2218L33.94 23.2574L34.743 23.8534ZM29.5936 30.7912L28.7906 30.1952L28.3202 30.829L28.8274 31.4338L29.5936 30.7912ZM32.2841 34.4818L31.42 34.9851L31.4251 34.9939L31.4303 35.0025L32.2841 34.4818ZM33.2534 37.941L32.2534 37.9544L32.2537 37.9673L33.2534 37.941ZM26.5448 25.8384L25.5589 26.0058L25.5606 26.0158L25.5625 26.0258L26.5448 25.8384ZM27.9111 28.6956L27.1035 29.2853L27.9045 30.3824L28.7141 29.2916L27.9111 28.6956ZM32.7267 22.2074L33.5297 22.8034L34.199 21.9017L33.226 21.341L32.7267 22.2074ZM29.7714 21.5582L29.6251 20.569L29.6154 20.5704L29.6057 20.572L29.7714 21.5582ZM22.394 40.4913L21.591 39.8953L20.8927 40.8362L21.9316 41.378L22.394 40.4913ZM25.4446 41.0121L25.6467 41.9915L25.6552 41.9897L25.6637 41.9878L25.4446 41.0121ZM28.5676 36.8044L27.5817 36.9718L27.5853 36.9927L27.5897 37.0135L28.5676 36.8044ZM27.2335 33.971L28.0411 33.3814L27.2401 32.2843L26.4305 33.375L27.2335 33.971ZM30.9264 41.3447C30.2362 42.2745 29.3599 42.9732 28.2817 43.449L29.0892 45.2788C30.4802 44.6649 31.6332 43.7481 32.5323 42.5367L30.9264 41.3447ZM28.2659 43.4562C27.228 43.9359 26.0443 44.1361 24.6885 44.0275L24.5289 46.0211C26.1823 46.1535 27.7164 45.9134 29.105 45.2716L28.2659 43.4562ZM24.679 44.0268C23.3799 43.9352 22.0469 43.492 20.6727 42.6562L19.6334 44.3649C21.2336 45.3382 22.871 45.9043 24.5383 46.0218L24.679 44.0268ZM19.3501 42.9146L17.419 45.5162L19.025 46.7082L20.956 44.1065L19.3501 42.9146ZM18.818 45.3092L16.7303 43.7597L15.5383 45.3656L17.626 46.9152L18.818 45.3092ZM16.9373 45.1586L18.8683 42.557L17.2623 41.365L15.3313 43.9667L16.9373 45.1586ZM18.7351 41.2184C16.9827 39.6377 15.9577 37.9708 15.5654 36.2232L13.6139 36.6613C14.1162 38.8987 15.4083 40.9109 17.3955 42.7035L18.7351 41.2184ZM15.5654 36.2232C15.1867 34.5367 15.5328 32.9568 16.6766 31.4158L15.0706 30.2238C13.6079 32.1945 13.098 34.363 13.6139 36.6613L15.5654 36.2232ZM15.2776 31.6228L19.1962 34.5312L20.3881 32.9252L16.4696 30.0168L15.2776 31.6228ZM18.9458 33.1956C18.2955 34.2289 17.9744 35.3294 18.0476 36.4757L20.0435 36.3483C20.001 35.6818 20.1776 34.9932 20.6385 34.2609L18.9458 33.1956ZM18.049 36.4951C18.1461 37.6602 18.6991 38.7083 19.5836 39.633L21.0289 38.2505C20.38 37.5722 20.0925 36.9337 20.0421 36.3289L18.049 36.4951ZM21.1092 39.5377L26.354 32.4714L24.748 31.2794L19.5032 38.3457L21.1092 39.5377ZM26.3261 31.2437C25.1771 29.8338 24.3109 28.6424 23.7142 27.6641L22.0068 28.7055C22.6684 29.7903 23.5958 31.0593 24.7758 32.5072L26.3261 31.2437ZM23.7246 27.6815C23.2003 26.7813 22.9162 25.774 22.8825 24.6399L20.8833 24.6995C20.9265 26.1464 21.2942 27.4825 21.9964 28.6881L23.7246 27.6815ZM22.8828 24.6563C22.8696 23.6708 23.2666 22.537 24.2338 21.2339L22.6278 20.0419C21.4971 21.5653 20.8621 23.1193 20.883 24.683L22.8828 24.6563ZM24.2338 21.2339C25.3963 19.6676 26.8608 18.8161 28.6707 18.614L28.4488 16.6264C26.0583 16.8933 24.1035 18.0536 22.6278 20.0419L24.2338 21.2339ZM28.6798 18.613C30.5359 18.3885 32.4501 18.8367 34.4509 20.0443L35.4844 18.3321C33.1735 16.9372 30.8158 16.3401 28.4397 16.6274L28.6798 18.613ZM35.7707 19.7842L37.7017 17.1825L36.0957 15.9905L34.1647 18.5922L35.7707 19.7842ZM36.3027 17.3895L38.3905 18.9391L39.5825 17.3331L37.4947 15.7835L36.3027 17.3895ZM38.1835 17.5401L36.2525 20.1418L37.8584 21.3338L39.7894 18.7321L38.1835 17.5401ZM36.3892 21.4835C38.0235 22.9436 38.948 24.4816 39.2685 26.093L41.2301 25.7028C40.8065 23.5738 39.6018 21.6718 37.7217 19.992L36.3892 21.4835ZM39.2725 26.1123C39.617 27.6815 39.3156 29.2949 38.2592 31.0012L39.9596 32.0541C41.2417 29.9833 41.7002 27.8435 41.226 25.6835L39.2725 26.1123ZM39.7054 30.7247L35.7868 27.8162L34.5948 29.4222L38.5134 32.3306L39.7054 30.7247ZM36.0475 29.1351C36.5865 28.2399 36.8125 27.251 36.7279 26.2002L34.7344 26.3607C34.7862 27.0053 34.652 27.5755 34.3341 28.1033L36.0475 29.1351ZM36.7293 26.2203C36.6631 25.121 36.2431 24.117 35.5202 23.2241L33.9658 24.4826C34.4557 25.0877 34.6945 25.7018 34.7329 26.3406L36.7293 26.2203ZM33.94 23.2574L28.7906 30.1952L30.3966 31.3872L35.546 24.4494L33.94 23.2574ZM28.8274 31.4338C29.9876 32.8172 30.8458 33.9992 31.42 34.9851L33.1482 33.9785C32.4958 32.8585 31.5604 31.5801 30.3598 30.1486L28.8274 31.4338ZM31.4303 35.0025C31.961 35.8726 32.2387 36.8487 32.2535 37.9544L34.2533 37.9276C34.234 36.4841 33.8655 35.1541 33.1378 33.9611L31.4303 35.0025ZM32.2537 37.9673C32.2788 38.9221 31.8948 40.0399 30.9264 41.3447L32.5323 42.5367C33.6618 41.0149 34.2938 39.4663 34.253 37.9147L32.2537 37.9673ZM26.4967 22.6146C25.7231 23.6568 25.3547 24.8027 25.5589 26.0058L27.5307 25.671C27.4382 25.1262 27.573 24.5202 28.1027 23.8066L26.4967 22.6146ZM25.5625 26.0258C25.7686 27.1059 26.3069 28.1943 27.1035 29.2853L28.7187 28.1059C28.0332 27.167 27.6606 26.3505 27.5271 25.651L25.5625 26.0258ZM28.7141 29.2916L33.5297 22.8034L31.9237 21.6114L27.1081 28.0996L28.7141 29.2916ZM33.226 21.341C32.0666 20.6729 30.8559 20.3869 29.6251 20.569L29.9178 22.5474C30.6269 22.4425 31.3864 22.5893 32.2275 23.0739L33.226 21.341ZM29.6057 20.572C28.3486 20.7833 27.3142 21.5132 26.4967 22.6146L28.1027 23.8066C28.6838 23.0236 29.2972 22.6519 29.9372 22.5444L29.6057 20.572ZM21.9316 41.378C23.1494 42.0131 24.4004 42.2485 25.6467 41.9915L25.2426 40.0327C24.5282 40.1801 23.7455 40.0683 22.8564 39.6047L21.9316 41.378ZM25.6637 41.9878C26.9049 41.7091 27.9239 41.0274 28.6956 39.9878L27.0896 38.7958C26.5897 39.4693 25.9768 39.8677 25.2256 40.0364L25.6637 41.9878ZM28.6956 39.9878C29.4649 38.9512 29.8034 37.8011 29.5455 36.5953L27.5897 37.0135C27.7033 37.5445 27.5917 38.1194 27.0896 38.7958L28.6956 39.9878ZM29.5535 36.637C29.3707 35.5603 28.8378 34.4725 28.0411 33.3814L26.4258 34.5607C27.1113 35.4995 27.4678 36.3007 27.5817 36.9718L29.5535 36.637ZM26.4305 33.375L21.591 39.8953L23.197 41.0873L28.0365 34.567L26.4305 33.375Z" fill="#1E4364"/>
<path d="M43.0781 50.6157C46.3395 49.7127 48.9356 48.9368 50.8664 48.2882C52.8327 47.6269 54.593 46.8089 56.1472 45.8341C57.7013 44.8593 58.8098 43.6732 59.4725 42.2757C60.158 40.83 60.3456 39.5318 60.0353 38.3813C59.7491 37.2421 58.8711 36.3241 57.4013 35.6271C55.9797 34.953 54.6543 34.8852 53.4249 35.4238C52.2312 35.9497 51.2503 36.9602 50.4823 38.4554L46.5066 36.5702C47.8814 33.8576 49.6946 32.1498 51.9463 31.4468C54.2336 30.7311 56.594 30.9502 59.0276 32.1041C61.6539 33.3495 63.3592 35.0435 64.1435 37.1862C64.9519 39.3403 64.7848 41.6221 63.6423 44.0316C62.8196 45.7664 61.5798 47.2296 59.9228 48.4213C58.3013 49.6002 56.5733 50.5369 54.7389 51.2312C52.9401 51.9129 50.7067 52.6394 48.039 53.4108L45.727 54.0853L57.1842 59.518L55.5561 62.9516L37.9908 54.6225L39.4133 51.6226L43.0781 50.6157Z" fill="#1E4364"/>
<path d="M43.0781 50.6157L43.343 51.58L43.345 51.5795L43.0781 50.6157ZM50.8664 48.2882L51.1849 49.2361L51.1852 49.236L50.8664 48.2882ZM60.0353 38.3813L59.0654 38.6249L59.0676 38.6333L59.0698 38.6416L60.0353 38.3813ZM53.4249 35.4238L53.0237 34.5079L53.0218 34.5087L53.4249 35.4238ZM50.4823 38.4554L50.0538 39.3589L50.9292 39.774L51.3718 38.9123L50.4823 38.4554ZM46.5066 36.5702L45.6146 36.1181L45.1505 37.0339L46.0782 37.4737L46.5066 36.5702ZM51.9463 31.4468L52.2444 32.4013L52.245 32.4011L51.9463 31.4468ZM64.1435 37.1862L63.2044 37.5299L63.2073 37.5375L64.1435 37.1862ZM59.9228 48.4213L59.3389 47.6094L59.3347 47.6125L59.9228 48.4213ZM54.7389 51.2312L54.3849 50.296L54.3846 50.2961L54.7389 51.2312ZM48.039 53.4108L47.7612 52.4501L47.7589 52.4508L48.039 53.4108ZM45.727 54.0853L45.447 53.1253L42.922 53.8619L45.2986 54.9888L45.727 54.0853ZM57.1842 59.518L58.0878 59.9465L58.5162 59.0429L57.6127 58.6145L57.1842 59.518ZM55.5561 62.9516L55.1276 63.8552L56.0312 64.2836L56.4597 63.38L55.5561 62.9516ZM37.9908 54.6225L37.0873 54.194L36.6588 55.0976L37.5624 55.526L37.9908 54.6225ZM39.4133 51.6226L39.1484 50.6584L38.7062 50.7798L38.5097 51.1942L39.4133 51.6226ZM43.345 51.5795C46.614 50.6743 49.2296 49.893 51.1849 49.2361L50.548 47.3403C48.6417 47.9807 46.0651 48.7511 42.8113 49.652L43.345 51.5795ZM51.1852 49.236C53.2165 48.5529 55.0496 47.7028 56.6785 46.6812L55.6158 44.9869C54.1363 45.9149 52.4489 46.7009 50.5476 47.3404L51.1852 49.236ZM56.6785 46.6812C58.3636 45.6243 59.6175 44.3037 60.376 42.7041L58.5689 41.8472C58.002 43.0427 57.039 44.0943 55.6158 44.9869L56.6785 46.6812ZM60.376 42.7041C61.1283 41.1176 61.3915 39.5696 61.0008 38.1209L59.0698 38.6416C59.2997 39.4941 59.1877 40.5423 58.5689 41.8472L60.376 42.7041ZM61.0052 38.1376C60.6211 36.6088 59.4602 35.4967 57.8298 34.7235L56.9729 36.5307C58.282 37.1514 58.8771 37.8754 59.0654 38.6249L61.0052 38.1376ZM57.8298 34.7235C56.1962 33.9489 54.5649 33.8326 53.0237 34.5079L53.8262 36.3398C54.7436 35.9379 55.7632 35.9571 56.9729 36.5307L57.8298 34.7235ZM53.0218 34.5087C51.564 35.1509 50.4349 36.3591 49.5928 37.9985L51.3718 38.9123C52.0657 37.5614 52.8983 36.7485 53.8281 36.339L53.0218 34.5087ZM50.9107 37.5518L46.9351 35.6666L46.0782 37.4737L50.0538 39.3589L50.9107 37.5518ZM47.3986 37.0223C48.6884 34.4774 50.3193 33.0024 52.2444 32.4013L51.6483 30.4922C49.07 31.2973 47.0744 33.2379 45.6146 36.1181L47.3986 37.0223ZM52.245 32.4011C54.2618 31.77 56.3625 31.9471 58.5991 33.0077L59.456 31.2006C56.8255 29.9532 54.2053 29.6921 51.6477 30.4924L52.245 32.4011ZM58.5991 33.0077C61.0564 34.1729 62.5333 35.6963 63.2044 37.5299L65.0826 36.8425C64.1852 34.3908 62.2515 32.5261 59.456 31.2006L58.5991 33.0077ZM63.2073 37.5375C63.9052 39.3972 63.7852 41.396 62.7387 43.6031L64.5458 44.46C65.7844 41.8481 65.9986 39.2833 65.0798 36.8348L63.2073 37.5375ZM62.7387 43.6031C61.9931 45.1755 60.8676 46.5101 59.3389 47.6094L60.5066 49.2331C62.292 47.9492 63.6462 46.3573 64.5458 44.46L62.7387 43.6031ZM59.3347 47.6125C57.7836 48.7402 56.1342 49.6338 54.3849 50.296L55.0929 52.1665C57.0125 51.4399 58.8189 50.4602 60.5108 49.2301L59.3347 47.6125ZM54.3846 50.2961C52.6192 50.9651 50.4134 51.6833 47.7612 52.4501L48.3167 54.3714C51.0001 53.5955 53.2609 52.8607 55.0933 52.1663L54.3846 50.2961ZM47.7589 52.4508L45.447 53.1253L46.0071 55.0452L48.319 54.3708L47.7589 52.4508ZM45.2986 54.9888L56.7558 60.4216L57.6127 58.6145L46.1555 53.1817L45.2986 54.9888ZM56.2807 59.0896L54.6525 62.5231L56.4597 63.38L58.0878 59.9465L56.2807 59.0896ZM55.9845 62.048L38.4193 53.7189L37.5624 55.526L55.1276 63.8552L55.9845 62.048ZM38.8944 55.0509L40.3168 52.0511L38.5097 51.1942L37.0873 54.194L38.8944 55.0509ZM39.6782 52.5869L43.343 51.58L42.8132 49.6515L39.1484 50.6584L39.6782 52.5869Z" fill="#1E4364"/>
<path d="M68.7893 52.4357C69.9319 47.9661 71.5727 44.6698 73.7118 42.5468C75.8834 40.4045 78.8164 39.8056 82.5109 40.75C86.2055 41.6944 88.4784 43.6241 89.3296 46.5391C90.2133 49.4348 90.0839 53.1175 88.9414 57.5871C87.7856 62.1084 86.1186 65.4531 83.9405 67.6212C81.7948 69.7701 78.8747 70.3723 75.1801 69.4279C71.4856 68.4834 69.1998 66.5504 68.3227 63.6289C67.478 60.6881 67.6336 56.957 68.7893 52.4357ZM84.6009 56.4776C85.1359 54.3849 85.4462 52.5788 85.5318 51.0594C85.6433 49.5465 85.4012 48.2323 84.8057 47.1167C84.2167 45.9752 83.1083 45.1965 81.4807 44.7804C79.853 44.3643 78.5069 44.5157 77.4424 45.2344C76.3845 45.9274 75.5285 46.9609 74.8745 48.3351C74.2463 49.7158 73.6647 51.4526 73.1298 53.5453C72.575 55.7155 72.2386 57.5699 72.1205 59.1086C72.0024 60.6473 72.2412 61.9745 72.8368 63.0901C73.4582 64.2123 74.5827 64.9814 76.2104 65.3975C77.8381 65.8135 79.1808 65.6751 80.2387 64.9822C81.3225 64.2959 82.1818 63.2494 82.8166 61.8428C83.4514 60.4362 84.0462 58.6478 84.6009 56.4776Z" fill="#1E4364"/>
<path d="M73.7118 42.5468L73.0095 41.8349L73.0074 41.837L73.7118 42.5468ZM89.3296 46.5391L88.3697 46.8194L88.3732 46.831L89.3296 46.5391ZM83.9405 67.6212L83.235 66.9125L83.2329 66.9146L83.9405 67.6212ZM68.3227 63.6289L67.3615 63.905L67.3649 63.9164L68.3227 63.6289ZM85.5318 51.0594L84.5345 50.9859L84.5339 50.9945L84.5334 51.0031L85.5318 51.0594ZM84.8057 47.1167L83.9169 47.5753L83.9235 47.5876L84.8057 47.1167ZM77.4424 45.2344L77.9904 46.071L78.002 46.0632L77.4424 45.2344ZM74.8745 48.3351L73.9716 47.9053L73.9679 47.9131L73.9643 47.9209L74.8745 48.3351ZM72.1205 59.1086L73.1176 59.1852L73.1176 59.1851L72.1205 59.1086ZM72.8368 63.0901L71.9546 63.561L71.9582 63.5678L71.9619 63.5745L72.8368 63.0901ZM80.2387 64.9822L79.7037 64.1374L79.6972 64.1415L79.6908 64.1457L80.2387 64.9822ZM82.8166 61.8428L83.728 62.2542L82.8166 61.8428ZM69.7582 52.6834C70.8779 48.3033 72.4563 45.2018 74.4163 43.2565L73.0074 41.837C70.6892 44.1378 68.9859 47.629 67.8205 52.1881L69.7582 52.6834ZM74.4141 43.2587C76.2714 41.4264 78.8103 40.8362 82.2633 41.7189L82.7586 39.7812C78.8225 38.775 75.4953 39.3826 73.0095 41.8349L74.4141 43.2587ZM82.2633 41.7189C85.7168 42.6017 87.6437 44.3334 88.3697 46.8194L90.2895 46.2588C89.313 42.9149 86.6942 40.7872 82.7586 39.7812L82.2633 41.7189ZM88.3732 46.831C89.1823 49.4825 89.0916 52.9615 87.9725 57.3395L89.9102 57.8348C91.0762 53.2736 91.2443 49.3872 90.2861 46.2472L88.3732 46.831ZM87.9725 57.3395C86.84 61.7698 85.2357 64.9211 83.235 66.9125L84.646 68.3299C87.0016 65.9852 88.7312 62.4471 89.9102 57.8348L87.9725 57.3395ZM83.2329 66.9146C81.4029 68.7473 78.8813 69.3418 75.4278 68.459L74.9325 70.3967C78.868 71.4028 82.1867 70.7928 84.6481 68.3278L83.2329 66.9146ZM75.4278 68.459C71.9748 67.5764 70.0306 65.8401 69.2805 63.3413L67.3649 63.9164C68.3689 67.2608 70.9963 69.3905 74.9325 70.3967L75.4278 68.459ZM69.2838 63.3528C68.5075 60.6498 68.6252 57.1158 69.7582 52.6834L67.8205 52.1881C66.642 56.7983 66.4486 60.7263 67.3615 63.9049L69.2838 63.3528ZM85.5698 56.7253C86.1147 54.5936 86.4398 52.7203 86.5302 51.1156L84.5334 51.0031C84.4526 52.4373 84.1571 54.1761 83.6321 56.2299L85.5698 56.7253ZM86.5291 51.1328C86.6517 49.4693 86.3889 47.959 85.6878 46.6457L83.9235 47.5876C84.4136 48.5056 84.6349 49.6237 84.5345 50.9859L86.5291 51.1328ZM85.6943 46.6581C84.9369 45.1903 83.5424 44.2753 81.7283 43.8116L81.233 45.7493C82.6743 46.1177 83.4964 46.7602 83.917 47.5752L85.6943 46.6581ZM81.7283 43.8116C79.9143 43.3479 78.2517 43.4814 76.8828 44.4057L78.002 46.0632C78.7622 45.55 79.7917 45.3808 81.233 45.7493L81.7283 43.8116ZM76.8945 44.3979C75.6546 45.21 74.6883 46.3994 73.9716 47.9053L75.7775 48.7648C76.3688 47.5224 77.1144 46.6447 77.9903 46.071L76.8945 44.3979ZM73.9643 47.9209C73.3038 49.3726 72.7049 51.1696 72.1609 53.2976L74.0986 53.7929C74.6246 51.7355 75.1888 50.0591 75.7847 48.7492L73.9643 47.9209ZM72.1609 53.2976C71.5976 55.5012 71.2474 57.4162 71.1234 59.0321L73.1176 59.1851C73.2297 57.7236 73.5524 55.9297 74.0986 53.7929L72.1609 53.2976ZM71.1234 59.0321C70.994 60.7185 71.2514 62.2439 71.9546 63.561L73.7189 62.6191C73.2309 61.705 73.0108 60.5761 73.1176 59.1852L71.1234 59.0321ZM71.9619 63.5745C72.7547 65.0061 74.1549 65.9042 75.9627 66.3663L76.4581 64.4286C75.0105 64.0586 74.1617 63.4184 73.7116 62.6056L71.9619 63.5745ZM75.9627 66.3663C77.7687 66.828 79.4236 66.7115 80.7867 65.8187L79.6908 64.1457C78.9381 64.6387 77.9075 64.7991 76.4581 64.4286L75.9627 66.3663ZM80.7738 65.827C82.0536 65.0165 83.0294 63.8023 83.728 62.2542L81.9051 61.4315C81.3342 62.6965 80.5913 63.5753 79.7037 64.1374L80.7738 65.827ZM83.728 62.2542C84.3947 60.777 85.0065 58.9289 85.5698 56.7253L83.6321 56.2299C83.0859 58.3667 82.5081 60.0954 81.9051 61.4315L83.728 62.2542Z" fill="#1E4364"/>
<path d="M96.5258 58.7802C96.7625 54.1729 97.7196 50.6173 99.3969 48.1134C101.102 45.5843 103.859 44.4176 107.667 44.6132C111.476 44.8089 114.085 46.2514 115.496 48.9406C116.934 51.6046 117.535 55.2403 117.298 59.8475C117.059 64.508 116.086 68.1162 114.379 70.672C112.7 73.2025 109.957 74.3699 106.149 74.1742C102.34 73.9786 99.7175 72.5354 98.2803 69.8448C96.8712 67.1289 96.2863 63.4407 96.5258 58.7802ZM112.824 59.6176C112.935 57.4605 112.882 55.6287 112.666 54.1223C112.476 52.6172 111.979 51.3767 111.175 50.4008C110.372 49.3983 109.132 48.854 107.454 48.7678C105.776 48.6815 104.487 49.0959 103.585 50.0109C102.685 50.8992 102.05 52.0815 101.681 53.5578C101.338 55.0355 101.111 56.8529 101 59.0101C100.885 61.2471 100.922 63.1315 101.11 64.6632C101.298 66.1948 101.795 67.4486 102.599 68.4245C103.43 69.4018 104.684 69.9335 106.362 70.0197C108.04 70.1059 109.329 69.7049 110.229 68.8166C111.156 67.9296 111.791 66.734 112.135 65.2297C112.48 63.7253 112.709 61.8547 112.824 59.6176Z" fill="#1E4364"/>
<path d="M99.3969 48.1134L98.5678 47.5544L98.5661 47.5569L99.3969 48.1134ZM115.496 48.9406L114.61 49.4052L114.616 49.4158L115.496 48.9406ZM114.379 70.672L113.547 70.1166L113.546 70.1192L114.379 70.672ZM98.2803 69.8448L97.3927 70.3054L97.3983 70.3159L98.2803 69.8448ZM112.666 54.1223L111.674 54.2473L111.675 54.2559L111.676 54.2644L112.666 54.1223ZM111.175 50.4008L110.394 51.026L110.403 51.0369L111.175 50.4008ZM103.585 50.0109L104.288 50.7227L104.297 50.7127L103.585 50.0109ZM101.681 53.5578L100.711 53.315L100.708 53.3233L100.706 53.3317L101.681 53.5578ZM101.11 64.6632L102.102 64.5411L102.102 64.5411L101.11 64.6632ZM102.599 68.4245L101.827 69.0605L101.832 69.0664L101.837 69.0723L102.599 68.4245ZM110.229 68.8166L109.537 68.0941L109.532 68.0994L109.526 68.1048L110.229 68.8166ZM112.135 65.2297L113.11 65.4528L112.135 65.2297ZM97.5245 58.8315C97.7565 54.3165 98.6908 50.9643 100.228 48.67L98.5661 47.5569C96.7483 50.2704 95.7686 54.0293 95.5271 58.7289L97.5245 58.8315ZM100.226 48.6725C101.685 46.5094 104.057 45.429 107.616 45.6119L107.719 43.6145C103.661 43.4061 100.52 44.6592 98.5678 47.5544L100.226 48.6725ZM107.616 45.6119C111.176 45.7948 113.407 47.1116 114.61 49.4051L116.381 48.4761C114.763 45.3912 111.776 43.823 107.719 43.6145L107.616 45.6119ZM114.616 49.4158C115.933 51.8551 116.532 55.2834 116.3 59.7962L118.297 59.8988C118.539 55.1971 117.935 51.3542 116.376 48.4655L114.616 49.4158ZM116.3 59.7962C116.065 64.3629 115.115 67.7691 113.547 70.1166L115.211 71.2273C117.057 68.4632 118.053 64.6531 118.297 59.8988L116.3 59.7962ZM113.546 70.1192C112.114 72.2773 109.76 73.3585 106.2 73.1756L106.097 75.1729C110.154 75.3814 113.287 74.1276 115.212 71.2248L113.546 70.1192ZM106.2 73.1756C102.641 72.9927 100.392 71.6749 99.1624 69.3736L97.3983 70.3159C99.0434 73.3959 102.04 74.9644 106.097 75.1729L106.2 73.1756ZM99.168 69.3842C97.8728 66.888 97.2897 63.4004 97.5245 58.8315L95.5271 58.7289C95.283 63.481 95.8696 67.3698 97.3927 70.3053L99.168 69.3842ZM113.823 59.6689C113.936 57.4717 113.884 55.571 113.656 53.9801L111.676 54.2644C111.88 55.6864 111.934 57.4493 111.826 59.5663L113.823 59.6689ZM113.658 53.9972C113.45 52.3422 112.894 50.9136 111.947 49.7648L110.403 51.0369C111.065 51.8399 111.503 52.8922 111.674 54.2473L113.658 53.9972ZM111.956 49.7757C110.923 48.4866 109.375 47.8651 107.505 47.7691L107.403 49.7664C108.888 49.8428 109.821 50.3101 110.395 51.026L111.956 49.7757ZM107.505 47.7691C105.635 47.673 104.032 48.1325 102.873 49.309L104.297 50.7127C104.941 50.0593 105.917 49.6901 107.403 49.7664L107.505 47.7691ZM102.883 49.2991C101.828 50.3402 101.116 51.6971 100.711 53.315L102.651 53.8006C102.985 52.4659 103.542 51.4581 104.288 50.7226L102.883 49.2991ZM100.706 53.3317C100.346 54.8853 100.114 56.7652 100.001 58.9587L101.999 59.0614C102.108 56.9406 102.329 55.1857 102.655 53.7839L100.706 53.3317ZM100.001 58.9587C99.8845 61.2302 99.9197 63.1767 100.117 64.7852L102.102 64.5411C101.924 63.0863 101.885 61.264 101.999 59.0614L100.001 58.9587ZM100.117 64.7852C100.324 66.4639 100.878 67.9084 101.827 69.0605L103.371 67.7885C102.712 66.9889 102.273 65.9258 102.102 64.5411L100.117 64.7852ZM101.837 69.0723C102.897 70.319 104.447 70.9226 106.311 71.0184L106.413 69.021C104.921 68.9444 103.963 68.4846 103.361 67.7767L101.837 69.0723ZM106.311 71.0184C108.172 71.114 109.772 70.6729 110.931 69.5283L109.526 68.1048C108.886 68.7369 107.907 69.0978 106.413 69.021L106.311 71.0184ZM110.92 69.539C112.015 68.4915 112.731 67.1085 113.11 65.4528L111.161 65.0065C110.851 66.3595 110.296 67.3677 109.537 68.0941L110.92 69.539ZM113.11 65.4528C113.472 63.873 113.706 61.9404 113.823 59.6689L111.826 59.5663C111.712 61.7689 111.488 63.5777 111.161 65.0066L113.11 65.4528Z" fill="#1E4364"/>
<path d="M129.481 74.0356C128.659 74.1151 127.942 73.903 127.33 73.3994C126.719 72.8958 126.374 72.2326 126.294 71.4098C126.215 70.587 126.427 69.8699 126.931 69.2587C127.434 68.6475 128.097 68.3021 128.92 68.2227C129.716 68.1458 130.42 68.3591 131.031 68.8627C131.643 69.3663 131.988 70.0295 132.067 70.8524C132.147 71.6752 131.935 72.3922 131.431 73.0035C130.928 73.6147 130.278 73.9588 129.481 74.0356Z" fill="#1E4364"/>
<path d="M127.33 73.3994L127.966 72.6276L127.966 72.6276L127.33 73.3994ZM126.931 69.2587L127.702 69.8946L126.931 69.2587ZM131.031 68.8627L130.396 69.6345L131.031 68.8627ZM131.431 73.0035L130.659 72.3676L131.431 73.0035ZM129.385 73.0403C128.814 73.0955 128.363 72.9545 127.966 72.6276L126.694 74.1712C127.52 74.8515 128.504 75.1347 129.578 75.031L129.385 73.0403ZM127.966 72.6276C127.569 72.3008 127.345 71.8854 127.29 71.3137L125.299 71.5059C125.403 72.5798 125.869 73.4909 126.694 74.1712L127.966 72.6276ZM127.29 71.3137C127.235 70.7419 127.375 70.2913 127.702 69.8946L126.159 68.6228C125.478 69.4485 125.195 70.432 125.299 71.5059L127.29 71.3137ZM127.702 69.8946C128.029 69.4978 128.445 69.2733 129.016 69.218L128.824 67.2273C127.75 67.331 126.839 67.7971 126.159 68.6228L127.702 69.8946ZM129.016 69.218C129.552 69.1664 129.991 69.3015 130.396 69.6345L131.667 68.0909C130.849 67.4168 129.881 67.1252 128.824 67.2273L129.016 69.218ZM130.396 69.6345C130.792 69.9614 131.017 70.3767 131.072 70.9485L133.063 70.7563C132.959 69.6823 132.493 68.7712 131.667 68.0909L130.396 69.6345ZM131.072 70.9485C131.127 71.5202 130.986 71.9708 130.659 72.3676L132.203 73.6393C132.883 72.8136 133.167 71.8302 133.063 70.7563L131.072 70.9485ZM130.659 72.3676C130.326 72.7718 129.921 72.9886 129.385 73.0403L129.578 75.031C130.635 74.9289 131.529 74.4576 132.203 73.6393L130.659 72.3676Z" fill="#1E4364"/>
<path d="M138.653 57.8446C137.539 53.3677 137.42 49.6875 138.297 46.8039C139.193 43.8881 141.491 41.9698 145.191 41.0491C148.892 40.1284 151.808 40.7493 153.94 42.9119C156.091 45.0422 157.724 48.3458 158.838 52.8226C159.964 57.3512 160.083 61.0864 159.194 64.0282C158.324 66.9376 156.038 68.8527 152.338 69.7734C148.637 70.6941 145.708 70.0763 143.55 67.9202C141.412 65.7317 139.78 62.3732 138.653 57.8446ZM154.49 53.9043C153.969 51.8082 153.385 50.0709 152.74 48.6926C152.121 47.3078 151.284 46.2656 150.231 45.5659C149.171 44.8404 147.826 44.6804 146.196 45.086C144.565 45.4916 143.452 46.2632 142.856 47.4009C142.253 48.5126 141.99 49.8285 142.065 51.3485C142.167 52.862 142.479 54.6668 143 56.7629C143.541 58.9367 144.125 60.7288 144.75 62.1395C145.376 63.5501 146.216 64.6053 147.269 65.305C148.348 65.9982 149.703 66.1421 151.334 65.7364C152.964 65.3308 154.08 64.5721 154.683 63.4604C155.312 62.3422 155.572 61.0134 155.464 59.474C155.355 57.9346 155.031 56.078 154.49 53.9043Z" fill="#1E4364"/>
<path d="M138.297 46.8039L137.341 46.5103L137.34 46.5132L138.297 46.8039ZM153.94 42.9119L153.228 43.614L153.236 43.6225L153.94 42.9119ZM159.194 64.0282L158.236 63.7388L158.236 63.7417L159.194 64.0282ZM143.55 67.9202L142.835 68.6191L142.844 68.6276L143.55 67.9202ZM152.74 48.6926L151.827 49.1009L151.831 49.1088L151.834 49.1166L152.74 48.6926ZM150.231 45.5659L149.666 46.3912L149.678 46.3989L150.231 45.5659ZM142.856 47.4009L143.735 47.8775L143.741 47.8651L142.856 47.4009ZM142.065 51.3485L141.067 51.3983L141.067 51.407L141.068 51.4156L142.065 51.3485ZM144.75 62.1395L145.664 61.734L145.664 61.734L144.75 62.1395ZM147.269 65.305L146.716 66.138L146.722 66.1422L146.729 66.1464L147.269 65.305ZM154.683 63.4604L153.811 62.9703L153.808 62.977L153.804 62.9838L154.683 63.4604ZM155.464 59.474L156.461 59.4039L155.464 59.474ZM139.623 57.6031C138.532 53.2159 138.451 49.7369 139.254 47.0947L137.34 46.5132C136.39 49.6381 136.546 53.5195 137.683 58.086L139.623 57.6031ZM139.253 47.0976C140.019 44.6037 141.974 42.88 145.433 42.0195L144.95 40.0787C141.007 41.0596 138.366 43.1724 137.341 46.5103L139.253 47.0976ZM145.433 42.0195C148.892 41.1589 151.409 41.7696 153.228 43.6139L154.652 42.2099C152.206 39.7291 148.892 39.0979 144.95 40.0787L145.433 42.0195ZM153.236 43.6225C155.206 45.5731 156.776 48.679 157.867 53.064L159.808 52.5812C158.671 48.0125 156.976 44.5113 154.643 42.2013L153.236 43.6225ZM157.867 53.064C158.971 57.5015 159.053 61.0367 158.236 63.7388L160.151 64.3176C161.113 61.136 160.957 57.2009 159.808 52.5812L157.867 53.064ZM158.236 63.7417C157.494 66.223 155.556 67.9423 152.096 68.803L152.579 70.7438C156.521 69.763 159.154 67.6522 160.152 64.3146L158.236 63.7417ZM152.096 68.803C148.638 69.6634 146.103 69.0569 144.257 67.2128L142.844 68.6276C145.314 71.0957 148.637 71.7247 152.579 70.7438L152.096 68.803ZM144.266 67.2213C142.3 65.2098 140.728 62.0427 139.623 57.6031L137.683 58.086C138.831 62.7037 140.524 66.2536 142.835 68.6191L144.266 67.2213ZM155.461 53.6628C154.929 51.5277 154.327 49.7243 153.646 48.2687L151.834 49.1166C152.443 50.4176 153.008 52.0886 153.52 54.1457L155.461 53.6628ZM153.653 48.2843C152.972 46.7616 152.024 45.5566 150.784 44.7329L149.678 46.3989C150.544 46.9747 151.27 47.8541 151.827 49.1009L153.653 48.2843ZM150.796 44.7408C149.433 43.8077 147.771 43.6635 145.954 44.1156L146.437 46.0564C147.881 45.6972 148.909 45.873 149.666 46.3911L150.796 44.7408ZM145.954 44.1156C144.137 44.5677 142.737 45.4737 141.97 46.9366L143.741 47.8651C144.167 47.0528 144.993 46.4156 146.437 46.0564L145.954 44.1156ZM141.977 46.9243C141.27 48.2273 140.984 49.7326 141.067 51.3983L143.064 51.2986C142.996 49.9243 143.236 48.798 143.735 47.8775L141.977 46.9243ZM141.068 51.4156C141.175 53.0068 141.5 54.8729 142.03 57.0044L143.971 56.5215C143.458 54.4607 143.16 52.7172 143.063 51.2814L141.068 51.4156ZM142.03 57.0044C142.579 59.2116 143.179 61.0636 143.836 62.545L145.664 61.734C145.07 60.3941 144.503 58.6617 143.971 56.5215L142.03 57.0044ZM143.836 62.545C144.522 64.0911 145.472 65.3119 146.716 66.138L147.822 64.472C146.959 63.8987 146.23 63.0092 145.664 61.734L143.836 62.545ZM146.729 66.1464C148.106 67.0308 149.764 67.1574 151.575 66.7069L151.092 64.766C149.642 65.1268 148.591 64.9657 147.81 64.4636L146.729 66.1464ZM151.575 66.7069C153.384 66.2568 154.786 65.3694 155.562 63.937L153.804 62.9838C153.375 63.7748 152.544 64.4048 151.092 64.766L151.575 66.7069ZM155.555 63.9504C156.297 62.6299 156.58 61.0982 156.461 59.4039L154.466 59.5441C154.563 60.9286 154.326 62.0545 153.811 62.9703L155.555 63.9504ZM156.461 59.4039C156.348 57.7872 156.01 55.87 155.461 53.6628L153.52 54.1457C154.052 56.286 154.363 58.0819 154.466 59.5441L156.461 59.4039Z" fill="#1E4364"/>
<path d="M166.082 50.2757C164.105 46.1072 163.261 42.523 163.551 39.5232C163.852 36.4877 165.726 34.1531 169.172 32.5193C172.617 30.8854 175.599 30.9178 178.116 32.6165C180.646 34.2796 182.899 37.1954 184.876 41.3638C186.875 45.5804 187.73 49.2185 187.439 52.278C187.161 55.302 185.3 57.6309 181.854 59.2648C178.408 60.8986 175.415 60.8719 172.874 59.1847C170.345 57.462 168.081 54.4923 166.082 50.2757ZM180.828 43.2833C179.902 41.3316 178.987 39.7439 178.082 38.5203C177.201 37.2852 176.176 36.4288 175.005 35.9511C173.822 35.4493 172.472 35.5583 170.954 36.2781C169.436 36.9979 168.497 37.9743 168.138 39.2074C167.766 40.4163 167.768 41.7583 168.143 43.2333C168.542 44.6968 169.204 46.4045 170.13 48.3562C171.089 50.3802 172.015 52.0217 172.907 53.2809C173.8 54.5401 174.831 55.4085 176.002 55.8862C177.197 56.3525 178.554 56.2257 180.072 55.5059C181.59 54.7861 182.534 53.8218 182.905 52.6128C183.301 51.3925 183.293 50.0384 182.883 48.5508C182.472 47.0631 181.787 45.3073 180.828 43.2833Z" fill="#1E4364"/>
<path d="M163.551 39.5232L162.555 39.4242L162.555 39.4272L163.551 39.5232ZM178.116 32.6165L177.557 33.4455L177.567 33.4521L178.116 32.6165ZM187.439 52.278L186.444 52.1835L186.443 52.1865L187.439 52.278ZM172.874 59.1847L172.311 60.0112L172.321 60.0178L172.874 59.1847ZM178.082 38.5203L177.268 39.1009L177.273 39.1079L177.278 39.1149L178.082 38.5203ZM175.005 35.9511L174.614 36.8717L174.627 36.877L175.005 35.9511ZM168.138 39.2074L169.094 39.5009L169.098 39.4874L168.138 39.2074ZM168.143 43.2333L167.174 43.4795L167.176 43.4879L167.178 43.4962L168.143 43.2333ZM172.907 53.2809L173.723 52.7028L173.723 52.7028L172.907 53.2809ZM176.002 55.8862L175.624 56.8121L175.631 56.815L175.639 56.8178L176.002 55.8862ZM182.905 52.6128L181.954 52.3047L181.952 52.312L181.949 52.3193L182.905 52.6128ZM182.883 48.5508L183.847 48.2849L182.883 48.5508ZM166.985 49.8472C165.048 45.7622 164.281 42.3679 164.546 39.6191L162.555 39.4272C162.242 42.6782 163.162 46.4522 165.178 50.7041L166.985 49.8472ZM164.546 39.6221C164.804 37.026 166.38 34.9498 169.6 33.4228L168.743 31.6157C165.072 33.3564 162.901 35.9495 162.555 39.4242L164.546 39.6221ZM169.6 33.4228C172.821 31.8956 175.41 31.9967 177.557 33.4454L178.675 31.7876C175.788 29.839 172.414 29.8753 168.743 31.6157L169.6 33.4228ZM177.567 33.4521C179.883 34.9749 182.036 37.7093 183.972 41.7923L185.779 40.9354C183.762 36.6815 181.409 33.5843 178.665 31.7809L177.567 33.4521ZM183.972 41.7923C185.931 45.9241 186.71 49.3733 186.444 52.1835L188.435 52.3725C188.749 49.0637 187.819 45.2368 185.779 40.9354L183.972 41.7923ZM186.443 52.1865C186.206 54.7656 184.646 56.834 181.426 58.3612L182.282 60.1683C185.953 58.4279 188.116 55.8384 188.435 52.3695L186.443 52.1865ZM181.426 58.3612C178.205 59.8882 175.6 59.7946 173.427 58.3516L172.321 60.0178C175.23 61.9492 178.612 61.909 182.282 60.1683L181.426 58.3612ZM173.437 58.3583C171.113 56.7749 168.945 53.9809 166.985 49.8472L165.178 50.7041C167.217 55.0036 169.578 58.1491 172.311 60.0111L173.437 58.3583ZM181.731 42.8548C180.789 40.8668 179.842 39.218 178.886 37.9257L177.278 39.1149C178.132 40.2699 179.016 41.7963 179.924 43.7117L181.731 42.8548ZM178.896 37.9397C177.928 36.5816 176.761 35.5875 175.382 35.0252L174.627 36.877C175.59 37.2701 176.475 37.9889 177.268 39.1009L178.896 37.9397ZM175.395 35.0306C173.875 34.3853 172.218 34.5723 170.526 35.3745L171.383 37.1817C172.727 36.5443 173.77 36.5133 174.614 36.8716L175.395 35.0306ZM170.526 35.3745C168.834 36.1768 167.64 37.3417 167.178 38.9273L169.098 39.4874C169.354 38.6069 170.038 37.819 171.383 37.1817L170.526 35.3745ZM167.182 38.9139C166.747 40.3308 166.763 41.8631 167.174 43.4795L169.112 42.987C168.773 41.6534 168.786 40.5018 169.094 39.5008L167.182 38.9139ZM167.178 43.4962C167.598 45.0349 168.285 46.8001 169.226 48.7846L171.033 47.9277C170.123 46.0089 169.486 44.3588 169.108 42.9703L167.178 43.4962ZM169.226 48.7846C170.2 50.8398 171.155 52.5367 172.091 53.859L173.723 52.7028C172.876 51.5068 171.978 49.9205 171.033 47.9277L169.226 48.7846ZM172.091 53.859C173.069 55.2391 174.242 56.2481 175.624 56.8121L176.38 54.9603C175.42 54.5689 174.53 53.841 173.723 52.7028L172.091 53.859ZM175.639 56.8178C177.163 57.4127 178.814 57.209 180.5 56.4095L179.643 54.6024C178.293 55.2425 177.231 55.2923 176.366 54.9546L175.639 56.8178ZM180.5 56.4095C182.184 55.6109 183.383 54.464 183.861 52.9063L181.949 52.3193C181.685 53.1796 180.995 53.9614 179.643 54.6024L180.5 56.4095ZM183.857 52.9209C184.323 51.4797 184.298 49.9223 183.847 48.2849L181.919 48.8166C182.288 50.1546 182.278 51.3052 181.954 52.3047L183.857 52.9209ZM183.847 48.2849C183.416 46.7226 182.706 44.91 181.731 42.8548L179.924 43.7117C180.869 45.7046 181.529 47.4036 181.919 48.8166L183.847 48.2849Z" fill="#1E4364"/>
<path d="M191.471 37.436C188.71 33.7403 187.174 30.3936 186.865 27.3957C186.561 24.3605 187.936 21.7016 190.991 19.4191C194.046 17.1365 196.975 16.5791 199.778 17.7468C202.587 18.8772 205.372 21.2902 208.133 24.9858C210.927 28.7241 212.483 32.1216 212.803 35.1781C213.128 38.1974 211.764 40.8483 208.709 43.1308C205.654 45.4134 202.714 45.9788 199.89 44.827C197.071 43.638 194.264 41.1743 191.471 37.436ZM204.544 27.6673C203.252 25.937 202.041 24.5615 200.912 23.5408C199.804 22.5042 198.63 21.8674 197.387 21.6305C196.129 21.3723 194.827 21.7459 193.481 22.7515C192.135 23.7571 191.408 24.8998 191.299 26.1796C191.174 27.4381 191.441 28.7532 192.1 30.1251C192.78 31.481 193.767 33.0241 195.06 34.7544C196.401 36.5488 197.633 37.975 198.756 39.033C199.88 40.091 201.062 40.7385 202.305 40.9754C203.568 41.1963 204.873 40.804 206.219 39.7984C207.565 38.7928 208.3 37.6608 208.425 36.4023C208.571 35.1279 208.296 33.8021 207.6 32.4248C206.904 31.0476 205.885 29.4617 204.544 27.6673Z" fill="#1E4364"/>
<path d="M186.865 27.3957L185.87 27.4953L185.87 27.4983L186.865 27.3957ZM199.778 17.7468L199.394 18.67L199.405 18.6745L199.778 17.7468ZM212.803 35.1781L211.808 35.2822L211.809 35.2853L212.803 35.1781ZM199.89 44.827L199.501 45.7485L199.512 45.753L199.89 44.827ZM200.912 23.5408L200.228 24.2709L200.235 24.2768L200.241 24.2826L200.912 23.5408ZM197.387 21.6305L197.186 22.6102L197.2 22.6128L197.387 21.6305ZM191.299 26.1796L192.294 26.2784L192.296 26.2645L191.299 26.1796ZM192.1 30.1251L191.199 30.558L191.202 30.5658L191.206 30.5735L192.1 30.1251ZM198.756 39.033L199.442 38.305L199.442 38.305L198.756 39.033ZM202.305 40.9754L202.117 41.9577L202.125 41.9591L202.132 41.9604L202.305 40.9754ZM208.425 36.4023L207.431 36.2883L207.431 36.2959L207.43 36.3035L208.425 36.4023ZM207.6 32.4248L208.492 31.9737L207.6 32.4248ZM192.272 36.8374C189.566 33.2158 188.143 30.04 187.86 27.2931L185.87 27.4983C186.205 30.7472 187.853 34.2649 190.67 38.0345L192.272 36.8374ZM187.86 27.2961C187.6 24.7001 188.735 22.3534 191.59 20.2201L190.393 18.618C187.138 21.0498 185.522 24.0209 185.87 27.4953L187.86 27.2961ZM191.59 20.2201C194.445 18.0865 197.003 17.674 199.394 18.6699L200.163 16.8237C196.947 15.4842 193.647 16.1865 190.393 18.618L191.59 20.2201ZM199.405 18.6745C201.977 19.7095 204.627 21.9645 207.332 25.5843L208.934 24.3872C206.116 20.6158 203.197 18.0448 200.152 16.8191L199.405 18.6745ZM207.332 25.5843C210.069 29.2474 211.515 32.4747 211.808 35.2822L213.798 35.0741C213.452 31.7684 211.784 28.2008 208.934 24.3872L207.332 25.5843ZM211.809 35.2853C212.086 37.8603 210.966 40.1961 208.11 42.3298L209.307 43.9319C212.561 41.5004 214.17 38.5345 213.797 35.071L211.809 35.2853ZM208.11 42.3298C205.255 44.463 202.683 44.8861 200.267 43.9011L199.512 45.753C202.746 47.0714 206.053 46.3637 209.307 43.9319L208.11 42.3298ZM200.278 43.9056C197.687 42.8128 195.01 40.5022 192.272 36.8374L190.67 38.0345C193.518 41.8464 196.454 44.4632 199.501 45.7484L200.278 43.9056ZM205.346 27.0688C204.029 25.3063 202.775 23.877 201.583 22.7991L200.241 24.2826C201.307 25.246 202.475 26.5678 203.743 28.2659L205.346 27.0688ZM201.595 22.8108C200.377 21.6709 199.037 20.9271 197.575 20.6482L197.2 22.6128C198.222 22.8077 199.231 23.3375 200.228 24.2709L201.595 22.8108ZM197.588 20.6509C195.97 20.3189 194.383 20.8297 192.883 21.9505L194.08 23.5526C195.272 22.6622 196.288 22.4257 197.186 22.6101L197.588 20.6509ZM192.883 21.9505C191.383 23.0712 190.443 24.4491 190.303 26.0948L192.296 26.2645C192.373 25.3506 192.888 24.443 194.08 23.5526L192.883 21.9505ZM190.304 26.0809C190.158 27.5558 190.477 29.0547 191.199 30.558L193.001 29.6921C192.406 28.4518 192.191 27.3204 192.294 26.2784L190.304 26.0809ZM191.206 30.5735C191.921 31.999 192.944 33.5935 194.259 35.3529L195.861 34.1558C194.59 32.4547 193.639 30.9629 192.994 29.6767L191.206 30.5735ZM194.259 35.3529C195.62 37.175 196.891 38.6499 198.071 39.761L199.442 38.305C198.375 37.3001 197.181 35.9226 195.861 34.1558L194.259 35.3529ZM198.071 39.761C199.302 40.9206 200.651 41.678 202.117 41.9577L202.492 39.9931C201.474 39.799 200.457 39.2615 199.442 38.305L198.071 39.761ZM202.132 41.9604C203.744 42.2423 205.323 41.7163 206.817 40.5994L205.62 38.9973C204.423 39.8916 203.392 40.1503 202.477 39.9903L202.132 41.9604ZM206.817 40.5994C208.311 39.4837 209.259 38.1225 209.42 36.5011L207.43 36.3035C207.341 37.199 206.819 38.1018 205.62 38.9973L206.817 40.5994ZM209.418 36.5163C209.591 35.0113 209.259 33.4895 208.492 31.9737L206.708 32.876C207.334 34.1146 207.551 35.2445 207.431 36.2883L209.418 36.5163ZM208.492 31.9737C207.761 30.5274 206.707 28.8908 205.346 27.0688L203.743 28.2659C205.064 30.0327 206.046 31.5678 206.708 32.876L208.492 31.9737Z" fill="#1E4364"/>
</svg>
