<svg width="226" height="91" viewBox="0 0 226 91" fill="none" xmlns="http://www.w3.org/2000/svg">
<path d="M28.7541 42.7503L19.3666 35.8682L14.3953 39.2665L10.5564 36.4522L35.0494 19.8884L39.3077 23.0102L30.8799 51.3517L27.0088 48.5137L28.7541 42.7503ZM29.9212 38.9934L33.9149 25.9011L22.5983 33.6248L29.9212 38.9934Z" fill="#1E4364"/>
<path d="M28.7541 42.7503L29.7112 43.0402L29.9164 42.3625L29.3453 41.9438L28.7541 42.7503ZM19.3666 35.8682L19.9578 35.0617L19.3868 34.643L18.8022 35.0426L19.3666 35.8682ZM14.3953 39.2665L13.804 40.073L14.3751 40.4917L14.9596 40.0921L14.3953 39.2665ZM10.5564 36.4522L9.99621 35.6238L8.82008 36.4192L9.96515 37.2587L10.5564 36.4522ZM35.0494 19.8884L35.6407 19.0819L35.0727 18.6655L34.4893 19.06L35.0494 19.8884ZM39.3077 23.0102L40.2662 23.2952L40.467 22.6201L39.8989 22.2037L39.3077 23.0102ZM30.8799 51.3517L30.2886 52.1582L31.4337 52.9976L31.8384 51.6367L30.8799 51.3517ZM27.0088 48.5137L26.0517 48.2238L25.8465 48.9015L26.4175 49.3202L27.0088 48.5137ZM29.9212 38.9934L29.33 39.7999L30.4665 40.6331L30.8777 39.2852L29.9212 38.9934ZM33.9149 25.9011L34.8714 26.1929L35.7017 23.4709L33.3511 25.0752L33.9149 25.9011ZM22.5983 33.6248L22.0346 32.7989L20.8672 33.5956L22.0071 34.4313L22.5983 33.6248ZM29.3453 41.9438L19.9578 35.0617L18.7753 36.6747L28.1628 43.5568L29.3453 41.9438ZM18.8022 35.0426L13.8309 38.441L14.9596 40.0921L19.9309 36.6937L18.8022 35.0426ZM14.9865 38.46L11.1477 35.6457L9.96515 37.2587L13.804 40.073L14.9865 38.46ZM11.1166 37.2805L35.6096 20.7168L34.4893 19.06L9.99621 35.6238L11.1166 37.2805ZM34.4582 20.6949L38.7164 23.8167L39.8989 22.2037L35.6407 19.0819L34.4582 20.6949ZM38.3492 22.7252L29.9214 51.0666L31.8384 51.6367L40.2662 23.2952L38.3492 22.7252ZM31.4711 50.5452L27.6 47.7072L26.4175 49.3202L30.2886 52.1582L31.4711 50.5452ZM27.9658 48.8035L29.7112 43.0402L27.797 42.4605L26.0517 48.2238L27.9658 48.8035ZM30.8777 39.2852L34.8714 26.1929L32.9584 25.6093L28.9647 38.7016L30.8777 39.2852ZM33.3511 25.0752L22.0346 32.7989L23.1621 34.4508L34.4786 26.7271L33.3511 25.0752ZM22.0071 34.4313L29.33 39.7999L30.5125 38.1869L23.1896 32.8183L22.0071 34.4313Z" fill="#1E4364"/>
<path d="M59.0199 49.2267C60.2714 50.084 61.1023 51.322 61.5128 52.9408C61.9233 54.5596 61.7885 56.1225 61.1084 57.6295C60.5271 58.9177 59.6603 59.9309 58.5081 60.6689C57.3911 61.3936 56.0635 61.7746 54.5254 61.8119C52.9982 61.8249 51.3961 61.4529 49.7189 60.6961L39.5832 56.1221L51.0182 30.7828L60.6799 35.1429C62.4057 35.9217 63.7567 36.8824 64.7331 38.0252C65.7095 39.168 66.2888 40.3802 66.471 41.662C66.6642 42.9194 66.4866 44.1558 65.9382 45.3711C65.2801 46.8295 64.3427 47.8693 63.1262 48.4905C61.9096 49.1118 60.5409 49.3572 59.0199 49.2267ZM50.3702 43.3046L55.511 45.6245C56.8722 46.2388 58.0666 46.4121 59.0943 46.1445C60.1573 45.8635 60.952 45.1397 61.4785 43.973C61.9941 42.8306 62.0055 41.7679 61.5129 40.7849C61.0556 39.7886 60.1463 38.9833 58.7852 38.3691L53.6444 36.0492L50.3702 43.3046ZM50.8845 57.1408C52.2942 57.777 53.5537 57.9358 54.663 57.6172C55.7722 57.2986 56.601 56.5316 57.1495 55.3163C57.7089 54.0767 57.7278 52.9004 57.2061 51.7873C56.6845 50.6742 55.7188 49.7995 54.309 49.1633L48.8401 46.6953L45.2697 54.607L50.8845 57.1408Z" fill="#1E4364"/>
<path d="M59.0199 49.2267L59.1054 48.2303L55.3223 47.9057L58.4548 50.0517L59.0199 49.2267ZM61.5128 52.9408L62.4821 52.6951L62.4821 52.695L61.5128 52.9408ZM58.5081 60.6689L57.9687 59.8268L57.9638 59.83L58.5081 60.6689ZM54.5254 61.8119L54.5339 62.8119L54.5418 62.8118L54.5496 62.8116L54.5254 61.8119ZM39.5832 56.1221L38.6717 55.7108L38.2604 56.6223L39.1719 57.0336L39.5832 56.1221ZM51.0182 30.7828L51.4295 29.8713L50.518 29.46L50.1067 30.3715L51.0182 30.7828ZM64.7331 38.0252L63.9728 38.6748L63.9728 38.6748L64.7331 38.0252ZM66.471 41.662L65.4809 41.8027L65.4826 41.8138L66.471 41.662ZM63.1262 48.4905L63.581 49.3811L63.581 49.3811L63.1262 48.4905ZM50.3702 43.3046L49.4587 42.8933L49.0474 43.8048L49.9589 44.2161L50.3702 43.3046ZM59.0943 46.1445L59.3463 47.1122L59.3498 47.1113L59.0943 46.1445ZM61.5129 40.7849L60.6041 41.2021L60.6112 41.2177L60.6189 41.233L61.5129 40.7849ZM53.6444 36.0492L54.0557 35.1377L53.1442 34.7264L52.7329 35.6378L53.6444 36.0492ZM54.663 57.6172L54.3869 56.6561L54.663 57.6172ZM48.8401 46.6953L49.2514 45.7839L48.3399 45.3725L47.9286 46.284L48.8401 46.6953ZM45.2697 54.607L44.3582 54.1957L43.9469 55.1072L44.8584 55.5185L45.2697 54.607ZM58.4548 50.0517C59.4847 50.7572 60.1863 51.778 60.5435 53.1866L62.4821 52.695C62.0184 50.8661 61.058 49.4107 59.5851 48.4017L58.4548 50.0517ZM60.5435 53.1866C60.899 54.5886 60.7829 55.9196 60.1969 57.2182L62.0199 58.0408C62.794 56.3254 62.9476 54.5307 62.4821 52.6951L60.5435 53.1866ZM60.1969 57.2182C59.6925 58.336 58.9522 59.1969 57.9687 59.8269L59.0474 61.511C60.3684 60.6649 61.3616 59.4995 62.0199 58.0408L60.1969 57.2182ZM57.9638 59.83C57.0248 60.4392 55.8837 60.7787 54.5012 60.8122L54.5496 62.8116C56.2434 62.7706 57.7574 62.348 59.0523 61.5078L57.9638 59.83ZM54.5169 60.8119C53.161 60.8235 51.7021 60.4939 50.1303 59.7846L49.3076 61.6076C51.0901 62.412 52.8355 62.8263 54.5339 62.8119L54.5169 60.8119ZM50.1303 59.7846L39.9945 55.2106L39.1719 57.0336L49.3076 61.6076L50.1303 59.7846ZM40.4947 56.5334L51.9297 31.1941L50.1067 30.3715L38.6717 55.7108L40.4947 56.5334ZM50.6068 31.6943L60.2686 36.0544L61.0913 34.2314L51.4295 29.8713L50.6068 31.6943ZM60.2686 36.0544C61.894 36.7879 63.1136 37.6691 63.9728 38.6748L65.4934 37.3756C64.3999 36.0958 62.9174 35.0555 61.0913 34.2314L60.2686 36.0544ZM63.9728 38.6748C64.8461 39.6969 65.3295 40.7376 65.481 41.8027L67.4611 41.5212C67.248 40.0228 66.5728 38.639 65.4934 37.3756L63.9728 38.6748ZM65.4826 41.8138C65.645 42.8706 65.4996 43.9119 65.0267 44.9598L66.8497 45.7824C67.4737 44.3997 67.6835 42.9682 67.4594 41.5101L65.4826 41.8138ZM65.0267 44.9598C64.4453 46.2482 63.6523 47.099 62.6714 47.5999L63.581 49.3811C65.0332 48.6395 66.1149 47.4107 66.8497 45.7824L65.0267 44.9598ZM62.6714 47.5999C61.6405 48.1264 60.4625 48.3468 59.1054 48.2303L58.9344 50.223C60.6192 50.3676 62.1787 50.0972 63.581 49.3811L62.6714 47.5999ZM49.9589 44.2161L55.0997 46.536L55.9223 44.713L50.7815 42.3931L49.9589 44.2161ZM55.0997 46.536C56.5859 47.2067 58.023 47.4568 59.3463 47.1122L58.8423 45.1767C58.1102 45.3674 57.1584 45.2708 55.9223 44.713L55.0997 46.536ZM59.3498 47.1113C60.7535 46.7402 61.7624 45.7751 62.39 44.3843L60.5671 43.5616C60.1417 44.5043 59.5611 44.9867 58.8388 45.1777L59.3498 47.1113ZM62.39 44.3843C63.0099 43.0107 63.0544 41.6288 62.4069 40.3369L60.6189 41.233C60.9567 41.907 60.9782 42.6505 60.5671 43.5616L62.39 44.3843ZM62.4217 40.3677C61.8323 39.0835 60.6977 38.135 59.1965 37.4576L58.3739 39.2806C59.595 39.8317 60.2789 40.4937 60.6041 41.2021L62.4217 40.3677ZM59.1965 37.4576L54.0557 35.1377L53.2331 36.9607L58.3739 39.2806L59.1965 37.4576ZM52.7329 35.6378L49.4587 42.8933L51.2817 43.7159L54.5559 36.4605L52.7329 35.6378ZM50.4731 58.0523C52.0249 58.7526 53.5346 58.9818 54.939 58.5784L54.3869 56.6561C53.5729 56.8899 52.5636 56.8015 51.2958 56.2294L50.4731 58.0523ZM54.939 58.5784C56.3759 58.1656 57.4126 57.1644 58.061 55.7277L56.238 54.905C55.7895 55.8989 55.1685 56.4316 54.3869 56.6561L54.939 58.5784ZM58.061 55.7277C58.7261 54.2538 58.7712 52.7704 58.1116 51.3629L56.3006 52.2116C56.6843 53.0303 56.6917 53.8996 56.238 54.905L58.061 55.7277ZM58.1116 51.3629C57.4646 49.9824 56.2898 48.9601 54.7203 48.2518L53.8977 50.0748C55.1477 50.6389 55.9043 51.366 56.3006 52.2116L58.1116 51.3629ZM54.7203 48.2518L49.2514 45.7839L48.4287 47.6068L53.8977 50.0748L54.7203 48.2518ZM47.9286 46.284L44.3582 54.1957L46.1812 55.0184L49.7516 47.1067L47.9286 46.284ZM44.8584 55.5185L50.4731 58.0523L51.2958 56.2294L45.6811 53.6956L44.8584 55.5185Z" fill="#1E4364"/>
<path d="M79.0255 41.8585L75.2412 59.1697C74.7913 61.2278 74.9865 62.8946 75.8269 64.1701C76.6932 65.4514 78.0903 66.3027 80.0181 66.7241C81.972 67.1513 83.5969 66.9605 84.8928 66.152C86.2147 65.3491 87.1007 63.9186 87.5506 61.8606L91.3348 44.5494L95.7896 45.5232L92.0224 62.7562C91.5384 64.9706 90.6464 66.741 89.3465 68.0673C88.0466 69.3936 86.5065 70.258 84.7261 70.6604C82.9458 71.0628 81.0787 71.0504 79.1248 70.6233C77.1709 70.1962 75.469 69.4283 74.019 68.3198C72.595 67.2169 71.582 65.7944 70.9802 64.0524C70.3783 62.3103 70.3195 60.3321 70.8035 58.1177L74.5707 40.8847L79.0255 41.8585Z" fill="#1E4364"/>
<path d="M79.0255 41.8585L80.0024 42.0721L80.216 41.0951L79.2391 40.8816L79.0255 41.8585ZM75.8269 64.1701L74.9917 64.7203L74.9985 64.7303L75.8269 64.1701ZM84.8928 66.152L84.3736 65.2972L84.3634 65.3036L84.8928 66.152ZM91.3348 44.5494L91.5484 43.5724L90.5715 43.3589L90.3579 44.3358L91.3348 44.5494ZM95.7896 45.5232L96.7666 45.7367L96.9801 44.7598L96.0032 44.5463L95.7896 45.5232ZM89.3465 68.0673L90.0607 68.7672L89.3465 68.0673ZM84.7261 70.6604L84.5056 69.685L84.7261 70.6604ZM74.019 68.3198L73.4066 69.1104L73.4116 69.1142L74.019 68.3198ZM70.9802 64.0524L70.035 64.3789L70.9802 64.0524ZM74.5707 40.8847L74.7843 39.9077L73.8073 39.6942L73.5938 40.6711L74.5707 40.8847ZM78.0486 41.6449L74.2643 58.9561L76.2182 59.3833L80.0024 42.0721L78.0486 41.6449ZM74.2643 58.9561C73.7792 61.1752 73.9541 63.1451 74.9918 64.7203L76.6619 63.62C76.019 62.644 75.8035 61.2803 76.2182 59.3833L74.2643 58.9561ZM74.9985 64.7303C76.0453 66.2784 77.698 67.2406 79.8046 67.7011L80.2317 65.7472C78.4827 65.3649 77.3412 64.6244 76.6552 63.61L74.9985 64.7303ZM79.8046 67.7011C81.9317 68.1661 83.8428 67.9858 85.4221 67.0004L84.3634 65.3036C83.3509 65.9353 82.0123 66.1365 80.2317 65.7472L79.8046 67.7011ZM85.4119 67.0067C87.0428 66.0162 88.041 64.2995 88.5275 62.0741L86.5736 61.647C86.1603 63.5377 85.3867 64.682 84.3737 65.2973L85.4119 67.0067ZM88.5275 62.0741L92.3118 44.7629L90.3579 44.3358L86.5736 61.647L88.5275 62.0741ZM91.1213 45.5263L95.5761 46.5001L96.0032 44.5463L91.5484 43.5724L91.1213 45.5263ZM94.8127 45.3096L91.0455 62.5427L92.9994 62.9698L96.7666 45.7367L94.8127 45.3096ZM91.0455 62.5427C90.5927 64.6141 89.7743 66.2021 88.6323 67.3673L90.0607 68.7672C91.5185 67.2798 92.484 65.3272 92.9994 62.9698L91.0455 62.5427ZM88.6323 67.3673C87.4646 68.5588 86.0949 69.3258 84.5056 69.685L84.9466 71.6358C86.918 71.1902 88.6286 70.2284 90.0607 68.7672L88.6323 67.3673ZM84.5056 69.685C82.8813 70.0521 81.163 70.0453 79.3384 69.6464L78.9112 71.6002C80.9943 72.0556 83.0102 72.0735 84.9466 71.6358L84.5056 69.685ZM79.3384 69.6464C77.5137 69.2475 75.9493 68.5368 74.6263 67.5253L73.4116 69.1142C74.9887 70.3199 76.8282 71.1449 78.9112 71.6002L79.3384 69.6464ZM74.6313 67.5292C73.3647 66.5482 72.4653 65.2887 71.9254 63.7258L70.035 64.3789C70.6988 66.3002 71.8252 67.8855 73.4066 69.1104L74.6313 67.5292ZM71.9254 63.7258C71.396 62.1934 71.3266 60.4073 71.7805 58.3313L69.8266 57.9042C69.3123 60.2569 69.3607 62.4272 70.035 64.3789L71.9254 63.7258ZM71.7805 58.3313L75.5476 41.0982L73.5938 40.6711L69.8266 57.9042L71.7805 58.3313ZM74.3572 41.8616L78.812 42.8354L79.2391 40.8816L74.7843 39.9077L74.3572 41.8616Z" fill="#1E4364"/>
<path d="M106.657 49.7632L106.471 57.9211L116.068 58.1402L115.983 61.8592L106.386 61.6401L106.191 70.1579L116.989 70.4044L116.904 74.1234L101.548 73.7728L102.183 45.9401L117.539 46.2907L117.454 50.0097L106.657 49.7632Z" fill="#1E4364"/>
<path d="M106.657 49.7632L106.68 48.7635L105.68 48.7406L105.657 49.7404L106.657 49.7632ZM106.471 57.9211L105.471 57.8982L105.448 58.898L106.448 58.9208L106.471 57.9211ZM116.068 58.1402L117.068 58.163L117.091 57.1633L116.091 57.1404L116.068 58.1402ZM115.983 61.8592L115.961 62.8589L116.96 62.8818L116.983 61.882L115.983 61.8592ZM106.386 61.6401L106.409 60.6404L105.409 60.6175L105.386 61.6173L106.386 61.6401ZM106.191 70.1579L105.192 70.1351L105.169 71.1348L106.169 71.1576L106.191 70.1579ZM116.989 70.4044L117.988 70.4272L118.011 69.4275L117.011 69.4046L116.989 70.4044ZM116.904 74.1234L116.881 75.1231L117.881 75.146L117.903 74.1462L116.904 74.1234ZM101.548 73.7728L100.548 73.75L100.525 74.7497L101.525 74.7726L101.548 73.7728ZM102.183 45.9401L102.206 44.9403L101.206 44.9175L101.183 45.9173L102.183 45.9401ZM117.539 46.2907L118.539 46.3135L118.562 45.3137L117.562 45.2909L117.539 46.2907ZM117.454 50.0097L117.431 51.0094L118.431 51.0323L118.454 50.0325L117.454 50.0097ZM105.657 49.7404L105.471 57.8982L107.471 57.9439L107.657 49.786L105.657 49.7404ZM106.448 58.9208L116.045 59.1399L116.091 57.1404L106.494 56.9213L106.448 58.9208ZM115.069 58.1174L114.984 61.8364L116.983 61.882L117.068 58.163L115.069 58.1174ZM116.006 60.8595L106.409 60.6404L106.363 62.6398L115.961 62.8589L116.006 60.8595ZM105.386 61.6173L105.192 70.1351L107.191 70.1807L107.386 61.6629L105.386 61.6173ZM106.169 71.1576L116.966 71.4041L117.011 69.4046L106.214 69.1581L106.169 71.1576ZM115.989 70.3816L115.904 74.1006L117.903 74.1462L117.988 70.4272L115.989 70.3816ZM116.927 73.1237L101.571 72.7731L101.525 74.7726L116.881 75.1231L116.927 73.1237ZM102.547 73.7957L103.183 45.9629L101.183 45.9173L100.548 73.75L102.547 73.7957ZM102.16 46.9398L117.516 47.2904L117.562 45.2909L102.206 44.9403L102.16 46.9398ZM116.539 46.2678L116.454 49.9869L118.454 50.0325L118.539 46.3135L116.539 46.2678ZM117.477 49.01L106.68 48.7635L106.634 50.7629L117.431 51.0094L117.477 49.01Z" fill="#1E4364"/>
<path d="M131.871 69.0807L141.183 67.7973L141.685 71.4429L127.856 73.3488L124.061 45.8091L128.578 45.1866L131.871 69.0807Z" fill="#1E4364"/>
<path d="M131.871 69.0807L130.88 69.2172L131.017 70.2079L132.008 70.0713L131.871 69.0807ZM141.183 67.7973L142.174 67.6608L142.037 66.6702L141.046 66.8067L141.183 67.7973ZM141.685 71.4429L141.822 72.4335L142.813 72.297L142.676 71.3063L141.685 71.4429ZM127.856 73.3488L126.865 73.4853L127.002 74.476L127.993 74.3394L127.856 73.3488ZM124.061 45.8091L123.924 44.8185L122.933 44.955L123.07 45.9457L124.061 45.8091ZM128.578 45.1866L129.569 45.05L129.432 44.0594L128.441 44.1959L128.578 45.1866ZM132.008 70.0713L141.32 68.788L141.046 66.8067L131.734 68.0901L132.008 70.0713ZM140.192 67.9339L140.695 71.5794L142.676 71.3063L142.174 67.6608L140.192 67.9339ZM141.549 70.4522L127.72 72.3582L127.993 74.3394L141.822 72.4335L141.549 70.4522ZM128.847 73.2123L125.051 45.6726L123.07 45.9457L126.865 73.4853L128.847 73.2123ZM124.197 46.7998L128.714 46.1772L128.441 44.1959L123.924 44.8185L124.197 46.7998ZM127.587 45.3231L130.88 69.2172L132.862 68.9442L129.569 45.05L127.587 45.3231Z" fill="#1E4364"/>
<path d="M147.875 41.2236L155.133 68.0595L150.731 69.2499L143.473 42.4141L147.875 41.2236Z" fill="#1E4364"/>
<path d="M147.875 41.2236L148.84 40.9625L148.579 39.9972L147.614 40.2583L147.875 41.2236ZM155.133 68.0595L155.394 69.0248L156.359 68.7637L156.098 67.7984L155.133 68.0595ZM150.731 69.2499L149.765 69.511L150.026 70.4763L150.992 70.2153L150.731 69.2499ZM143.473 42.4141L143.212 41.4487L142.247 41.7098L142.508 42.6751L143.473 42.4141ZM146.909 41.4846L154.167 68.3205L156.098 67.7984L148.84 40.9625L146.909 41.4846ZM154.871 67.0941L150.47 68.2846L150.992 70.2153L155.394 69.0248L154.871 67.0941ZM151.696 68.9889L144.438 42.153L142.508 42.6751L149.765 69.511L151.696 68.9889ZM143.734 43.3794L148.136 42.1889L147.614 40.2583L143.212 41.4487L143.734 43.3794Z" fill="#1E4364"/>
<path d="M171.833 31.9858L173.307 35.401L166.514 38.3345L176.059 60.4416L171.873 62.2493L162.327 40.1421L155.497 43.0914L154.022 39.6762L171.833 31.9858Z" fill="#1E4364"/>
<path d="M171.833 31.9858L172.751 31.5894L172.354 30.6713L171.436 31.0677L171.833 31.9858ZM173.307 35.401L173.704 36.3191L174.622 35.9227L174.225 35.0046L173.307 35.401ZM166.514 38.3345L166.117 37.4164L165.199 37.8128L165.596 38.7309L166.514 38.3345ZM176.059 60.4416L176.456 61.3597L177.374 60.9633L176.977 60.0452L176.059 60.4416ZM171.873 62.2493L170.955 62.6457L171.351 63.5638L172.269 63.1674L171.873 62.2493ZM162.327 40.1421L163.245 39.7457L162.849 38.8276L161.931 39.224L162.327 40.1421ZM155.497 43.0914L154.579 43.4879L154.975 44.4059L155.893 44.0095L155.497 43.0914ZM154.022 39.6762L153.626 38.7582L152.708 39.1546L153.104 40.0726L154.022 39.6762ZM170.915 32.3822L172.389 35.7974L174.225 35.0046L172.751 31.5894L170.915 32.3822ZM172.911 34.4829L166.117 37.4164L166.91 39.2525L173.704 36.3191L172.911 34.4829ZM165.596 38.7309L175.141 60.838L176.977 60.0452L167.432 37.9381L165.596 38.7309ZM175.663 59.5236L171.476 61.3312L172.269 63.1674L176.456 61.3597L175.663 59.5236ZM172.791 61.8529L163.245 39.7457L161.409 40.5385L170.955 62.6457L172.791 61.8529ZM161.931 39.224L155.1 42.1734L155.893 44.0095L162.724 41.0602L161.931 39.224ZM156.415 42.695L154.94 39.2798L153.104 40.0726L154.579 43.4879L156.415 42.695ZM154.418 40.5943L172.229 32.9038L171.436 31.0677L153.626 38.7582L154.418 40.5943Z" fill="#1E4364"/>
<path d="M202.693 45.5267C200.587 47.0287 198.296 47.9261 195.819 48.2189C193.348 48.4745 190.964 48.0947 188.668 47.0794C186.378 46.027 184.443 44.3936 182.863 42.1791C181.284 39.9647 180.377 37.6143 180.143 35.128C179.931 32.6262 180.356 30.2597 181.418 28.0285C182.486 25.76 184.073 23.8748 186.178 22.3728C188.306 20.8553 190.605 19.9687 193.076 19.7131C195.553 19.4203 197.929 19.7893 200.204 20.82C202.478 21.8507 204.405 23.4733 205.985 25.6878C207.564 27.9022 208.479 30.2634 208.728 32.7715C208.962 35.2578 208.545 37.6351 207.477 39.9036C206.415 42.1348 204.821 44.0092 202.693 45.5267ZM200.393 42.3027C201.891 41.2343 202.987 39.9454 203.679 38.4362C204.356 36.9053 204.571 35.278 204.324 33.5543C204.083 31.7933 203.367 30.077 202.175 28.4054C200.982 26.7337 199.601 25.5083 198.029 24.7291C196.48 23.9345 194.879 23.6187 193.227 23.7819C191.574 23.945 189.999 24.5609 188.501 25.6293C187.003 26.6978 185.908 27.9866 185.216 29.4958C184.523 31.005 184.29 32.6292 184.515 34.3684C184.762 36.0921 185.481 37.7898 186.674 39.4615C187.866 41.1332 189.245 42.3772 190.809 43.1936C192.381 43.9727 194 44.2916 195.668 44.1501C197.32 43.987 198.895 43.3712 200.393 42.3027Z" fill="#1E4364"/>
<path d="M195.819 48.2189L195.921 49.2136L195.929 49.2129L195.936 49.212L195.819 48.2189ZM188.668 47.0794L188.25 47.9881L188.257 47.9911L188.263 47.994L188.668 47.0794ZM180.143 35.128L179.147 35.2125L179.148 35.2217L180.143 35.128ZM181.418 28.0285L182.321 28.4581L182.322 28.4544L181.418 28.0285ZM193.076 19.7131L193.179 20.7078L193.186 20.707L193.193 20.7062L193.076 19.7131ZM200.204 20.82L199.791 21.7309L200.204 20.82ZM208.728 32.7715L209.724 32.6778L209.723 32.6725L208.728 32.7715ZM207.477 39.9036L208.38 40.3332L208.382 40.3295L207.477 39.9036ZM203.679 38.4362L204.588 38.8532L204.594 38.8406L203.679 38.4362ZM204.324 33.5543L203.333 33.6896L203.334 33.696L204.324 33.5543ZM198.029 24.7291L197.573 25.619L197.585 25.625L198.029 24.7291ZM193.227 23.7819L193.325 24.777L193.227 23.7819ZM185.216 29.4958L186.125 29.9127L186.125 29.9127L185.216 29.4958ZM184.515 34.3684L183.523 34.4968L183.525 34.5101L184.515 34.3684ZM190.809 43.1936L190.347 44.0802L190.356 44.0849L190.365 44.0895L190.809 43.1936ZM195.668 44.1501L195.752 45.1467L195.766 45.1453L195.668 44.1501ZM202.112 44.7125C200.138 46.1207 198.005 46.9535 195.701 47.2258L195.936 49.212C198.586 48.8987 201.036 47.9367 203.274 46.3408L202.112 44.7125ZM195.716 47.2242C193.42 47.4617 191.211 47.1105 189.072 46.1648L188.263 47.994C190.717 49.0789 193.276 49.4873 195.921 49.2136L195.716 47.2242ZM189.085 46.1708C186.966 45.1969 185.164 43.6824 183.678 41.5984L182.049 42.7598C183.722 45.1047 185.789 46.8571 188.25 47.9881L189.085 46.1708ZM183.678 41.5984C182.191 39.5143 181.355 37.3297 181.139 35.0343L179.148 35.2217C179.4 37.8989 180.377 40.415 182.049 42.7598L183.678 41.5984ZM181.14 35.0435C180.942 32.7153 181.336 30.5266 182.321 28.4581L180.515 27.5988C179.376 29.9928 178.92 32.5371 179.147 35.2125L181.14 35.0435ZM182.322 28.4544C183.315 26.346 184.788 24.5927 186.759 23.1869L185.598 21.5587C183.357 23.1569 181.656 25.174 180.513 27.6025L182.322 28.4544ZM186.759 23.1869C188.753 21.7645 190.889 20.9446 193.179 20.7078L192.973 18.7184C190.321 18.9928 187.859 19.946 185.598 21.5587L186.759 23.1869ZM193.193 20.7062C195.489 20.4348 197.682 20.7752 199.791 21.7309L200.616 19.9092C198.176 18.8033 195.617 18.4058 192.959 18.72L193.193 20.7062ZM199.791 21.7309C201.891 22.6824 203.684 24.1843 205.171 26.2685L206.799 25.1071C205.126 22.7623 203.066 21.0191 200.616 19.9092L199.791 21.7309ZM205.171 26.2685C206.657 28.3525 207.502 30.5497 207.733 32.8704L209.723 32.6725C209.455 29.9772 208.471 27.452 206.799 25.1071L205.171 26.2685ZM207.732 32.8651C207.949 35.1725 207.564 37.3705 206.572 39.4776L208.382 40.3295C209.526 37.8998 209.974 35.3431 209.724 32.6778L207.732 32.8651ZM206.574 39.4739C205.59 41.5428 204.11 43.2878 202.112 44.7125L203.274 46.3408C205.531 44.7305 207.241 42.7268 208.38 40.3332L206.574 39.4739ZM200.974 43.1168C202.599 41.9582 203.815 40.5379 204.588 38.8532L202.77 38.0193C202.158 39.353 201.184 40.5103 199.813 41.4886L200.974 43.1168ZM204.594 38.8406C205.349 37.1312 205.586 35.3139 205.314 33.4125L203.334 33.696C203.555 35.2421 203.362 36.6795 202.764 38.0319L204.594 38.8406ZM205.315 33.4189C205.049 31.4741 204.26 29.6077 202.989 27.8247L201.36 28.986C202.473 30.5464 203.118 32.1126 203.333 33.6896L205.315 33.4189ZM202.989 27.8247C201.717 26.042 200.215 24.697 198.474 23.8332L197.585 25.625C198.986 26.3195 200.247 27.4253 201.36 28.986L202.989 27.8247ZM198.486 23.8393C196.774 22.9615 194.982 22.6037 193.128 22.7867L193.325 24.777C194.777 24.6337 196.186 24.9074 197.573 25.6189L198.486 23.8393ZM193.128 22.7867C191.284 22.9689 189.545 23.6565 187.92 24.8152L189.082 26.4434C190.453 25.4652 191.865 24.9212 193.325 24.777L193.128 22.7867ZM187.92 24.8152C186.296 25.9738 185.08 27.3941 184.307 29.0788L186.125 29.9127C186.736 28.579 187.71 27.4217 189.082 26.4434L187.92 24.8152ZM184.307 29.0788C183.532 30.7682 183.275 32.5825 183.523 34.4968L185.507 34.24C185.304 32.6758 185.515 31.2418 186.125 29.9127L184.307 29.0788ZM183.525 34.5101C183.798 36.4182 184.591 38.2636 185.859 40.0422L187.488 38.8808C186.372 37.3161 185.725 35.7661 185.505 34.2267L183.525 34.5101ZM185.859 40.0422C187.128 41.8212 188.621 43.1799 190.347 44.0802L191.272 42.307C189.868 41.5745 188.603 40.4452 187.488 38.8808L185.859 40.0422ZM190.365 44.0895C192.092 44.9458 193.894 45.3042 195.752 45.1466L195.583 43.1537C194.107 43.279 192.669 42.9997 191.254 42.2977L190.365 44.0895ZM195.766 45.1453C197.611 44.9632 199.35 44.2755 200.974 43.1168L199.813 41.4886C198.441 42.4668 197.03 43.0108 195.57 43.155L195.766 45.1453Z" fill="#1E4364"/>
</svg>
