<svg width="185" height="82" viewBox="0 0 185 82" fill="none" xmlns="http://www.w3.org/2000/svg">
<path d="M17.7546 32.3418C20.4425 31.1021 23.0314 30.5393 25.5216 30.6535C28.0247 30.7323 30.2679 31.489 32.2511 32.9236C34.2473 34.3228 35.8374 36.3058 37.0214 38.8725C38.2053 41.4393 38.6759 43.924 38.4332 46.3265C38.2147 48.7179 37.323 50.8912 35.7581 52.8464C34.2062 54.7663 32.0863 56.3461 29.3984 57.5859L21.1533 61.389L9.50943 36.1449L17.7546 32.3418ZM27.8403 54.2079C30.7946 52.8453 32.6901 51.0019 33.5269 48.6777C34.3637 46.3535 34.1119 43.7385 32.7716 40.8327C31.4202 37.9027 29.5777 35.9774 27.2442 35.0568C24.9108 34.1362 22.2669 34.3572 19.3127 35.7198L15.2083 37.613L23.7359 56.1011L27.8403 54.2079Z" fill="#1E4364"/>
<path d="M25.5216 30.6535L25.4757 31.6524L25.4829 31.6528L25.4901 31.653L25.5216 30.6535ZM32.2511 32.9236L31.665 33.7338L31.671 33.7382L31.6771 33.7425L32.2511 32.9236ZM38.4332 46.3265L37.4382 46.226L37.4374 46.2355L38.4332 46.3265ZM35.7581 52.8464L36.5358 53.4751L36.5388 53.4713L35.7581 52.8464ZM21.1533 61.389L20.2452 61.8078L20.664 62.7159L21.5721 62.297L21.1533 61.389ZM9.50943 36.1449L9.09059 35.2369L8.18253 35.6557L8.60137 36.5638L9.50943 36.1449ZM33.5269 48.6777L32.586 48.3389L32.586 48.3389L33.5269 48.6777ZM15.2083 37.613L14.7894 36.7049L13.8814 37.1238L14.3002 38.0318L15.2083 37.613ZM23.7359 56.1011L22.8279 56.5199L23.2467 57.428L24.1548 57.0091L23.7359 56.1011ZM18.1734 33.2499C20.7431 32.0647 23.1729 31.5468 25.4757 31.6524L25.5674 29.6545C22.8899 29.5317 20.1419 30.1395 17.3358 31.4338L18.1734 33.2499ZM25.4901 31.653C27.7985 31.7257 29.8476 32.4192 31.665 33.7338L32.8372 32.1133C30.6882 30.5588 28.2509 29.7389 25.553 29.654L25.4901 31.653ZM31.6771 33.7425C33.5069 35.025 34.9915 36.8592 36.1133 39.2914L37.9294 38.4537C36.6834 35.7523 34.9878 33.6206 32.8251 32.1047L31.6771 33.7425ZM36.1133 39.2914C37.2353 41.7239 37.6601 44.0296 37.4383 46.226L39.4281 46.427C39.6917 43.8184 39.1753 41.1548 37.9294 38.4537L36.1133 39.2914ZM37.4374 46.2355C37.2375 48.4231 36.4254 50.4124 34.9774 52.2216L36.5388 53.4713C38.2207 51.37 39.192 49.0127 39.4291 46.4175L37.4374 46.2355ZM34.9804 52.2178C33.5424 53.9967 31.5554 55.4897 28.9796 56.6778L29.8173 58.4939C32.6172 57.2025 34.8699 55.5359 36.5358 53.4751L34.9804 52.2178ZM28.9796 56.6778L20.7344 60.4809L21.5721 62.297L29.8173 58.4939L28.9796 56.6778ZM22.0613 60.9701L10.4175 35.7261L8.60137 36.5638L20.2452 61.8078L22.0613 60.9701ZM9.92827 37.053L18.1734 33.2499L17.3358 31.4338L9.09059 35.2369L9.92827 37.053ZM28.2592 55.116C31.3764 53.6781 33.5141 51.6651 34.4678 49.0164L32.586 48.3389C31.866 50.3386 30.2127 52.0124 27.4215 53.2998L28.2592 55.116ZM34.4678 49.0164C35.4176 46.3784 35.0961 43.4848 33.6797 40.4139L31.8636 41.2516C33.1277 43.9923 33.3098 46.3286 32.586 48.3389L34.4678 49.0164ZM33.6797 40.4139C32.2525 37.3197 30.247 35.1665 27.6112 34.1266L26.8772 35.987C28.9084 36.7884 30.5879 38.4858 31.8636 41.2516L33.6797 40.4139ZM27.6112 34.1266C24.9542 33.0783 22.0187 33.3704 18.8939 34.8118L19.7315 36.6279C22.5152 35.3439 24.8674 35.1941 26.8772 35.987L27.6112 34.1266ZM18.8939 34.8118L14.7894 36.7049L15.6271 38.5211L19.7315 36.6279L18.8939 34.8118ZM14.3002 38.0318L22.8279 56.5199L24.644 55.6822L16.1163 37.1941L14.3002 38.0318ZM24.1548 57.0091L28.2592 55.116L27.4215 53.2998L23.3171 55.193L24.1548 57.0091Z" fill="#1E4364"/>
<path d="M64.6846 46.5652C62.1445 47.0537 59.6874 46.9152 57.3135 46.1498C54.9607 45.3532 52.9518 44.0152 51.2869 42.1358C49.6431 40.2252 48.5644 37.9344 48.0507 35.2633C47.537 32.5923 47.6915 30.0778 48.5144 27.72C49.3634 25.3571 50.7351 23.3825 52.6296 21.7961C54.5453 20.1786 56.7731 19.1255 59.3133 18.637C61.8796 18.1434 64.3391 18.295 66.6919 19.0916C69.0659 19.857 71.0722 21.1819 72.7109 23.0663C74.3497 24.9508 75.4259 27.2285 75.9396 29.8995C76.4533 32.5706 76.3013 35.0981 75.4835 37.4822C74.6606 39.84 73.2914 41.8277 71.3758 43.4453C69.4813 45.0316 67.2509 46.0716 64.6846 46.5652ZM63.9367 42.6764C65.7436 42.3289 67.276 41.6133 68.5339 40.5295C69.7869 39.4196 70.6601 38.0296 71.1535 36.3597C71.6682 34.6586 71.7316 32.7998 71.3438 30.7834C70.956 28.7671 70.2102 27.0775 69.1063 25.7148C68.0285 24.3471 66.7046 23.3933 65.1344 22.8535C63.5642 22.3136 61.8756 22.2175 60.0687 22.565C58.2618 22.9125 56.7294 23.6281 55.4715 24.7119C54.2135 25.7956 53.3247 27.175 52.805 28.85C52.3115 30.5199 52.2587 32.363 52.6465 34.3794C53.0343 36.3958 53.7695 38.101 54.8523 39.4949C55.9562 40.8576 57.2958 41.8219 58.871 42.388C60.4412 42.9278 62.1298 43.0239 63.9367 42.6764Z" fill="#1E4364"/>
<path d="M57.3135 46.1498L56.9928 47.097L56.9997 47.0993L57.0066 47.1016L57.3135 46.1498ZM51.2869 42.1358L50.5288 42.788L50.5336 42.7935L50.5384 42.7989L51.2869 42.1358ZM48.5144 27.72L47.5732 27.3818L47.5702 27.3905L48.5144 27.72ZM52.6296 21.7961L53.2716 22.5629L53.2748 22.5602L52.6296 21.7961ZM66.6919 19.0916L66.3712 20.0388L66.3781 20.0411L66.385 20.0433L66.6919 19.0916ZM72.7109 23.0663L71.9563 23.7226L71.9563 23.7226L72.7109 23.0663ZM75.4835 37.4822L76.4276 37.8116L76.4294 37.8066L75.4835 37.4822ZM71.3758 43.4453L72.0178 44.212L72.0209 44.2093L71.3758 43.4453ZM68.5339 40.5295L69.1867 41.2872L69.197 41.278L68.5339 40.5295ZM71.1535 36.3597L70.1964 36.0702L70.1945 36.0763L71.1535 36.3597ZM69.1063 25.7148L68.3207 26.3338L68.3292 26.3443L69.1063 25.7148ZM65.1344 22.8535L64.8093 23.7991L64.8093 23.7991L65.1344 22.8535ZM55.4715 24.7119L56.1242 25.4695L56.1242 25.4695L55.4715 24.7119ZM52.805 28.85L51.8498 28.5536L51.846 28.5666L52.805 28.85ZM54.8523 39.4949L54.0626 40.1083L54.0688 40.1164L54.0753 40.1243L54.8523 39.4949ZM58.871 42.388L58.5328 43.3291L58.5459 43.3336L58.871 42.388ZM64.4957 45.5831C62.1144 46.0411 59.8282 45.9099 57.6203 45.1981L57.0066 47.1016C59.5467 47.9206 62.1745 48.0662 64.8734 47.5472L64.4957 45.5831ZM57.6342 45.2026C55.4481 44.4625 53.5862 43.2232 52.0354 41.4727L50.5384 42.7989C52.3174 44.8071 54.4732 46.2439 56.9928 47.097L57.6342 45.2026ZM52.045 41.4836C50.5239 39.7157 49.5162 37.5882 49.0327 35.0744L47.0687 35.4522C47.6127 38.2806 48.7623 40.7347 50.5288 42.788L52.045 41.4836ZM49.0327 35.0744C48.5492 32.5606 48.6989 30.2262 49.4585 28.0495L47.5702 27.3905C46.6842 29.9294 46.5247 32.6239 47.0687 35.4522L49.0327 35.0744ZM49.4555 28.0581C50.2455 25.8593 51.5153 24.0335 53.2716 22.5628L51.9876 21.0294C49.9549 22.7315 48.4812 24.8549 47.5733 27.3818L49.4555 28.0581ZM53.2748 22.5602C55.0553 21.0568 57.1247 20.0762 59.5021 19.619L59.1244 17.655C56.4216 18.1748 54.0353 19.3004 51.9845 21.0321L53.2748 22.5602ZM59.5021 19.619C61.9076 19.1563 64.191 19.3006 66.3712 20.0388L67.0126 18.1444C64.4872 17.2893 61.8515 17.1305 59.1244 17.655L59.5021 19.619ZM66.385 20.0433C68.5854 20.7528 70.437 21.9754 71.9563 23.7226L73.4655 22.4101C71.7074 20.3884 69.5463 18.9612 66.9988 18.1398L66.385 20.0433ZM71.9563 23.7226C73.4692 25.4622 74.4741 27.5746 74.9576 30.0884L76.9216 29.7107C76.3776 26.8824 75.2301 24.4393 73.4655 22.4101L71.9563 23.7226ZM74.9576 30.0884C75.441 32.6021 75.2943 34.9517 74.5376 37.1577L76.4294 37.8066C77.3082 35.2446 77.4656 32.5391 76.9216 29.7107L74.9576 30.0884ZM74.5393 37.1527C73.7757 39.3408 72.5101 41.1787 70.7306 42.6812L72.0209 44.2093C74.0728 42.4767 75.5456 40.3392 76.4276 37.8116L74.5393 37.1527ZM70.7338 42.6786C68.9771 44.1495 66.9051 45.1198 64.4957 45.5831L64.8734 47.5472C67.5967 47.0234 69.9854 45.9138 72.0178 44.212L70.7338 42.6786ZM64.1255 43.6584C66.085 43.2816 67.7824 42.4969 69.1866 41.2871L67.8812 39.7719C66.7696 40.7296 65.4021 41.3762 63.7478 41.6944L64.1255 43.6584ZM69.197 41.278C70.596 40.0387 71.5682 38.4851 72.1126 36.6431L70.1945 36.0763C69.7519 37.5742 68.9777 38.8005 67.8708 39.781L69.197 41.278ZM72.1107 36.6493C72.6791 34.7705 72.7394 32.7452 72.3258 30.5946L70.3618 30.9723C70.7238 32.8544 70.6573 34.5466 70.1964 36.0702L72.1107 36.6493ZM72.3258 30.5946C71.9123 28.4444 71.1071 26.5961 69.8833 25.0853L68.3292 26.3443C69.3132 27.559 69.9997 29.0898 70.3618 30.9723L72.3258 30.5946ZM69.8917 25.0959C68.7012 23.585 67.2204 22.5132 65.4595 21.9078L64.8093 23.7991C66.1887 24.2734 67.3559 25.1091 68.3208 26.3337L69.8917 25.0959ZM65.4595 21.9078C63.7067 21.3052 61.8393 21.2061 59.8799 21.583L60.2576 23.547C61.9119 23.2288 63.4216 23.3221 64.8093 23.7991L65.4595 21.9078ZM59.8799 21.583C57.9204 21.9598 56.223 22.7445 54.8188 23.9543L56.1242 25.4695C57.2358 24.5118 58.6032 23.8652 60.2576 23.547L59.8799 21.583ZM54.8188 23.9543C53.4106 25.1674 52.4219 26.7101 51.8499 28.5536L53.7601 29.1463C54.2275 27.6399 55.0164 26.4239 56.1242 25.4695L54.8188 23.9543ZM51.846 28.5666C51.2997 30.415 51.2519 32.423 51.6645 34.5683L53.6285 34.1906C53.2655 32.3031 53.3233 30.6247 53.764 29.1334L51.846 28.5666ZM51.6645 34.5683C52.0772 36.7141 52.8685 38.5711 54.0626 40.1083L55.642 38.8814C54.6706 37.6308 53.9914 36.0775 53.6285 34.1906L51.6645 34.5683ZM54.0753 40.1243C55.2885 41.622 56.7772 42.6982 58.5329 43.329L59.2092 41.4469C57.8143 40.9457 56.6239 40.0932 55.6293 38.8654L54.0753 40.1243ZM58.5459 43.3336C60.2987 43.9362 62.1661 44.0353 64.1255 43.6584L63.7478 41.6944C62.0935 42.0126 60.5837 41.9193 59.1961 41.4423L58.5459 43.3336Z" fill="#1E4364"/>
<path d="M105.215 45.0544L100.659 44.8676L87.8007 23.5629L86.9502 44.3055L82.394 44.1187L83.5346 16.3021L88.0908 16.4889L100.95 37.7536L101.799 17.051L106.355 17.2378L105.215 45.0544Z" fill="#1E4364"/>
<path d="M105.215 45.0544L105.174 46.0536L106.173 46.0946L106.214 45.0954L105.215 45.0544ZM100.659 44.8676L99.8025 45.3843L100.08 45.8447L100.618 45.8668L100.659 44.8676ZM87.8007 23.5629L88.6569 23.0462L86.9379 20.1979L86.8016 23.522L87.8007 23.5629ZM86.9502 44.3055L86.9092 45.3047L87.9084 45.3456L87.9493 44.3465L86.9502 44.3055ZM82.394 44.1187L81.3948 44.0777L81.3539 45.0769L82.353 45.1178L82.394 44.1187ZM83.5346 16.3021L83.5756 15.3029L82.5764 15.2619L82.5355 16.2611L83.5346 16.3021ZM88.0908 16.4889L88.9465 15.9714L88.6685 15.5117L88.1318 15.4897L88.0908 16.4889ZM100.95 37.7536L100.095 38.2711L101.813 41.1133L101.95 37.7946L100.95 37.7536ZM101.799 17.051L101.84 16.0518L100.841 16.0109L100.8 17.01L101.799 17.051ZM106.355 17.2378L107.355 17.2788L107.396 16.2796L106.396 16.2387L106.355 17.2378ZM105.256 44.0553L100.7 43.8685L100.618 45.8668L105.174 46.0536L105.256 44.0553ZM101.515 44.3509L88.6569 23.0462L86.9446 24.0796L99.8025 45.3843L101.515 44.3509ZM86.8016 23.522L85.951 44.2645L87.9493 44.3465L88.7999 23.6039L86.8016 23.522ZM86.9912 43.3063L82.435 43.1195L82.353 45.1178L86.9092 45.3047L86.9912 43.3063ZM83.3932 44.1597L84.5338 16.343L82.5355 16.2611L81.3948 44.0777L83.3932 44.1597ZM83.4937 17.3012L88.0498 17.488L88.1318 15.4897L83.5756 15.3029L83.4937 17.3012ZM87.2351 17.0064L100.095 38.2711L101.806 37.2361L88.9465 15.9714L87.2351 17.0064ZM101.95 37.7946L102.798 17.092L100.8 17.01L99.9512 37.7126L101.95 37.7946ZM101.758 18.0502L106.314 18.237L106.396 16.2387L101.84 16.0518L101.758 18.0502ZM105.356 17.1968L104.216 45.0135L106.214 45.0954L107.355 17.2788L105.356 17.1968Z" fill="#1E4364"/>
<path d="M130.534 45.6737L119.346 42.4634L115.857 47.3715L111.281 46.0587L128.533 22.0454L133.609 23.5016L135.504 53.0088L130.89 51.685L130.534 45.6737ZM130.33 41.745L129.549 28.0794L121.602 39.2407L130.33 41.745Z" fill="#1E4364"/>
<path d="M130.534 45.6737L131.533 45.6146L131.491 44.9078L130.81 44.7125L130.534 45.6737ZM119.346 42.4634L119.622 41.5022L118.941 41.3069L118.531 41.884L119.346 42.4634ZM115.857 47.3715L115.581 48.3327L116.262 48.528L116.672 47.9509L115.857 47.3715ZM111.281 46.0587L110.469 45.4752L109.641 46.6283L111.006 47.0199L111.281 46.0587ZM128.533 22.0454L128.809 21.0842L128.132 20.89L127.721 21.462L128.533 22.0454ZM133.609 23.5016L134.607 23.4375L134.561 22.7347L133.884 22.5404L133.609 23.5016ZM135.504 53.0088L135.228 53.97L136.593 54.3616L136.502 52.9447L135.504 53.0088ZM130.89 51.685L129.892 51.7441L129.934 52.4509L130.614 52.6462L130.89 51.685ZM130.33 41.745L130.054 42.7062L131.409 43.0948L131.328 41.6879L130.33 41.745ZM129.549 28.0794L130.547 28.0224L130.385 25.1812L128.734 27.4995L129.549 28.0794ZM121.602 39.2407L120.788 38.6607L119.968 39.8121L121.326 40.2019L121.602 39.2407ZM130.81 44.7125L119.622 41.5022L119.07 43.4246L130.259 46.6349L130.81 44.7125ZM118.531 41.884L115.042 46.7921L116.672 47.9509L120.161 43.0428L118.531 41.884ZM116.133 46.4103L111.557 45.0975L111.006 47.0199L115.581 48.3327L116.133 46.4103ZM112.094 46.6422L129.346 22.6289L127.721 21.462L110.469 45.4752L112.094 46.6422ZM128.258 23.0066L133.333 24.4629L133.884 22.5404L128.809 21.0842L128.258 23.0066ZM132.611 23.5657L134.506 53.0729L136.502 52.9447L134.607 23.4375L132.611 23.5657ZM135.78 52.0476L131.166 50.7238L130.614 52.6462L135.228 53.97L135.78 52.0476ZM131.889 51.6259L131.533 45.6146L129.536 45.7328L129.892 51.7441L131.889 51.6259ZM131.328 41.6879L130.547 28.0224L128.55 28.1365L129.332 41.802L131.328 41.6879ZM128.734 27.4995L120.788 38.6607L122.417 39.8207L130.363 28.6594L128.734 27.4995ZM121.326 40.2019L130.054 42.7062L130.606 40.7837L121.878 38.2795L121.326 40.2019Z" fill="#1E4364"/>
<path d="M156.462 63.7584L155.928 50.9394L152.843 49.3305L147.702 59.1908L143.658 57.0826L156.51 32.4319L165.023 36.8701C166.915 37.8564 168.338 39.0196 169.293 40.3598C170.272 41.7122 170.791 43.1106 170.85 44.5548C170.933 46.0113 170.617 47.4253 169.902 48.7968C169.063 50.4047 167.826 51.6242 166.19 52.4552C164.59 53.2749 162.697 53.4158 160.511 52.8777L161.286 66.2734L156.462 63.7584ZM154.525 46.1028L158.994 48.4329C160.508 49.2219 161.84 49.4354 162.991 49.0732C164.166 48.7234 165.086 47.91 165.752 46.6332C166.418 45.3563 166.557 44.1659 166.17 43.062C165.796 41.9345 164.84 40.9701 163.303 40.1687L158.834 37.8387L154.525 46.1028Z" fill="#1E4364"/>
<path d="M156.462 63.7584L155.463 63.8001L155.487 64.3778L156 64.6452L156.462 63.7584ZM155.928 50.9394L156.927 50.8977L156.903 50.32L156.391 50.0526L155.928 50.9394ZM152.843 49.3305L153.305 48.4438L152.418 47.9815L151.956 48.8682L152.843 49.3305ZM147.702 59.1908L147.239 60.0775L148.126 60.5398L148.588 59.6531L147.702 59.1908ZM143.658 57.0826L142.771 56.6203L142.309 57.507L143.196 57.9693L143.658 57.0826ZM156.51 32.4319L156.973 31.5452L156.086 31.0829L155.624 31.9696L156.51 32.4319ZM169.293 40.3598L168.479 40.9402L168.483 40.9461L169.293 40.3598ZM170.85 44.5548L169.851 44.5956L169.852 44.6035L169.852 44.6114L170.85 44.5548ZM166.19 52.4552L165.737 51.5636L165.734 51.5652L166.19 52.4552ZM160.511 52.8777L160.75 51.9067L159.435 51.5829L159.513 52.9355L160.511 52.8777ZM161.286 66.2734L160.824 67.1602L162.386 67.9747L162.284 66.2157L161.286 66.2734ZM154.525 46.1028L153.639 45.6405L153.176 46.5273L154.063 46.9896L154.525 46.1028ZM162.991 49.0732L162.706 48.1148L162.698 48.117L162.691 48.1193L162.991 49.0732ZM166.17 43.062L165.221 43.3772L165.224 43.385L165.227 43.3927L166.17 43.062ZM158.834 37.8387L159.296 36.9519L158.41 36.4896L157.947 37.3763L158.834 37.8387ZM157.461 63.7168L156.927 50.8977L154.929 50.981L155.463 63.8001L157.461 63.7168ZM156.391 50.0526L153.305 48.4438L152.38 50.2172L155.466 51.8261L156.391 50.0526ZM151.956 48.8682L146.815 58.7285L148.588 59.6531L153.729 49.7928L151.956 48.8682ZM148.164 58.3041L144.12 56.1959L143.196 57.9693L147.239 60.0775L148.164 58.3041ZM144.545 57.5449L157.397 32.8942L155.624 31.9696L142.771 56.6203L144.545 57.5449ZM156.048 33.3186L164.561 37.7569L165.485 35.9834L156.973 31.5452L156.048 33.3186ZM164.561 37.7569C166.353 38.6911 167.638 39.7608 168.479 40.9402L170.108 39.7793C169.038 38.2784 167.477 37.0217 165.485 35.9834L164.561 37.7569ZM168.483 40.9461C169.365 42.1646 169.801 43.377 169.851 44.5956L171.85 44.514C171.781 42.8442 171.179 41.2598 170.104 39.7734L168.483 40.9461ZM169.852 44.6114C169.924 45.8772 169.652 47.1128 169.015 48.3345L170.789 49.2591C171.582 47.7379 171.942 46.1455 171.849 44.4981L169.852 44.6114ZM169.015 48.3345C168.274 49.7552 167.19 50.8257 165.737 51.5636L166.643 53.3468C168.462 52.4226 169.853 51.0542 170.789 49.2591L169.015 48.3345ZM165.734 51.5652C164.398 52.2495 162.763 52.4022 160.75 51.9067L160.272 53.8488C162.631 54.4293 164.781 54.3003 166.646 53.3452L165.734 51.5652ZM159.513 52.9355L160.288 66.3312L162.284 66.2157L161.51 52.82L159.513 52.9355ZM161.748 65.3867L156.925 62.8717L156 64.6452L160.824 67.1602L161.748 65.3867ZM154.063 46.9896L158.532 49.3196L159.457 47.5462L154.988 45.2161L154.063 46.9896ZM158.532 49.3196C160.182 50.1799 161.798 50.4969 163.291 50.0271L162.691 48.1193C161.882 48.3738 160.833 48.264 159.457 47.5462L158.532 49.3196ZM163.277 50.0316C164.756 49.5911 165.872 48.5669 166.639 47.0955L164.865 46.1708C164.301 47.2532 163.576 47.8557 162.706 48.1148L163.277 50.0316ZM166.639 47.0955C167.401 45.6343 167.613 44.1544 167.114 42.7313L165.227 43.3927C165.502 44.1775 165.435 45.0783 164.865 46.1708L166.639 47.0955ZM167.119 42.7468C166.632 41.2795 165.428 40.1486 163.765 39.282L162.841 41.0554C164.253 41.7915 164.96 42.5895 165.221 43.3772L167.119 42.7468ZM163.765 39.282L159.296 36.9519L158.372 38.7254L162.841 41.0554L163.765 39.282ZM157.947 37.3763L153.639 45.6405L155.412 46.5652L159.721 38.301L157.947 37.3763Z" fill="#1E4364"/>
</svg>
