<svg width="173" height="79" viewBox="0 0 173 79" fill="none" xmlns="http://www.w3.org/2000/svg">
<path d="M30.0899 41.6293L20.0719 35.7023L15.1306 39.3631L11.0339 36.9394L35.3883 19.0765L39.9326 21.765L32.7225 49.7709L28.5913 47.3268L30.0899 41.6293ZM31.0971 37.913L34.5312 24.9681L23.2824 33.2896L31.0971 37.913Z" fill="#1E4364"/>
<path d="M30.0899 41.6293L31.09 41.8359L31.2662 41.166L30.6568 40.8055L30.0899 41.6293ZM20.0719 35.7023L20.6388 34.8785L20.0294 34.518L19.4484 34.9484L20.0719 35.7023ZM15.1306 39.3631L14.5638 40.1869L15.1732 40.5474L15.7542 40.117L15.1306 39.3631ZM11.0339 36.9394L10.4145 36.1824L9.24505 37.0402L10.467 37.7632L11.0339 36.9394ZM35.3883 19.0765L35.9552 18.2527L35.349 17.8941L34.7689 18.3196L35.3883 19.0765ZM39.9326 21.765L40.9339 21.9669L41.1056 21.2998L40.4995 20.9412L39.9326 21.765ZM32.7225 49.7709L32.1556 50.5947L33.3775 51.3176L33.7238 49.9728L32.7225 49.7709ZM28.5913 47.3268L27.5912 47.1201L27.415 47.79L28.0244 48.1506L28.5913 47.3268ZM31.0971 37.913L30.5302 38.7368L31.7431 39.4544L32.0967 38.1216L31.0971 37.913ZM34.5312 24.9681L35.5308 25.1767L36.2447 22.4853L33.9083 24.2137L34.5312 24.9681ZM23.2824 33.2896L22.6595 32.5352L21.499 33.3937L22.7155 34.1134L23.2824 33.2896ZM30.6568 40.8055L20.6388 34.8785L19.505 36.5261L29.523 42.4531L30.6568 40.8055ZM19.4484 34.9484L14.5071 38.6092L15.7542 40.117L20.6954 36.4562L19.4484 34.9484ZM15.6975 38.5393L11.6008 36.1156L10.467 37.7632L14.5638 40.1869L15.6975 38.5393ZM11.6533 37.6963L36.0077 19.8334L34.7689 18.3196L10.4145 36.1824L11.6533 37.6963ZM34.8214 19.9003L39.3657 22.5888L40.4995 20.9412L35.9552 18.2527L34.8214 19.9003ZM38.9313 21.5631L31.7211 49.5689L33.7238 49.9728L40.9339 21.9669L38.9313 21.5631ZM33.2893 48.9471L29.1582 46.503L28.0244 48.1506L32.1556 50.5947L33.2893 48.9471ZM29.5914 47.5335L31.09 41.8359L29.0899 41.4226L27.5912 47.1201L29.5914 47.5335ZM32.0967 38.1216L35.5308 25.1767L33.5316 24.7595L30.0976 37.7044L32.0967 38.1216ZM33.9083 24.2137L22.6595 32.5352L23.9053 34.0439L35.1541 25.7224L33.9083 24.2137ZM22.7155 34.1134L30.5302 38.7368L31.664 37.0892L23.8493 32.4658L22.7155 34.1134Z" fill="#1E4364"/>
<path d="M57.4201 58.5347L54.4632 46.277L51.0964 45.3968L47.8613 56.0358L43.4496 54.8825L51.5372 28.2849L60.8251 30.713C62.889 31.2526 64.5219 32.065 65.7237 33.1503C66.9512 34.2424 67.731 35.479 68.063 36.8603C68.4207 38.2482 68.3746 39.6821 67.9247 41.1619C67.3971 42.8968 66.4002 44.3437 64.9337 45.5027C63.5009 46.6429 61.6491 47.1916 59.3783 47.1488L62.6832 59.9106L57.4201 58.5347ZM52.1553 41.9142L57.0315 43.189C58.6826 43.6206 60.0451 43.5362 61.119 42.9356C62.2186 42.3417 62.9779 41.3559 63.3968 39.9782C63.8158 38.6005 63.7288 37.421 63.1359 36.4398C62.5509 35.4331 61.4198 34.7105 59.7428 34.2721L54.8667 32.9974L52.1553 41.9142Z" fill="#1E4364"/>
<path d="M57.4201 58.5347L56.4365 58.7927L56.5697 59.3452L57.1292 59.4915L57.4201 58.5347ZM54.4632 46.277L55.4469 46.0189L55.3136 45.4665L54.7541 45.3202L54.4632 46.277ZM51.0964 45.3968L51.3873 44.4401L50.4198 44.1871L50.1289 45.1439L51.0964 45.3968ZM47.8613 56.0358L47.5704 56.9926L48.5379 57.2455L48.8288 56.2888L47.8613 56.0358ZM43.4496 54.8825L42.4821 54.6296L42.1912 55.5863L43.1587 55.8392L43.4496 54.8825ZM51.5372 28.2849L51.8281 27.3282L50.8606 27.0753L50.5697 28.032L51.5372 28.2849ZM65.7237 33.1503L65.0255 33.8882L65.0308 33.893L65.7237 33.1503ZM68.063 36.8603L67.0791 37.1175L67.0809 37.1251L67.0829 37.1327L68.063 36.8603ZM64.9337 45.5027L64.3155 44.7408L64.3128 44.743L64.9337 45.5027ZM59.3783 47.1488L59.4317 46.1593L58.0648 46.1336L58.3985 47.4222L59.3783 47.1488ZM62.6832 59.9106L62.3923 60.8674L64.097 61.313L63.663 59.6372L62.6832 59.9106ZM52.1553 41.9142L51.1878 41.6613L50.8969 42.6181L51.8644 42.871L52.1553 41.9142ZM61.119 42.9356L60.6543 42.0726L60.6474 42.0764L60.6406 42.0802L61.119 42.9356ZM63.1359 36.4398L62.2538 36.951L62.2579 36.9579L62.262 36.9648L63.1359 36.4398ZM54.8667 32.9974L55.1576 32.0406L54.1901 31.7877L53.8992 32.7444L54.8667 32.9974ZM58.4037 58.2767L55.4469 46.0189L53.4796 46.535L56.4365 58.7927L58.4037 58.2767ZM54.7541 45.3202L51.3873 44.4401L50.8055 46.3535L54.1723 47.2337L54.7541 45.3202ZM50.1289 45.1439L46.8938 55.7829L48.8288 56.2888L52.0639 45.6497L50.1289 45.1439ZM48.1523 55.0791L43.7405 53.9258L43.1587 55.8392L47.5704 56.9926L48.1523 55.0791ZM44.4171 55.1354L52.5047 28.5378L50.5697 28.032L42.4821 54.6296L44.4171 55.1354ZM51.2463 29.2417L60.5341 31.6697L61.116 29.7562L51.8281 27.3282L51.2463 29.2417ZM60.5341 31.6697C62.4892 32.1808 63.9678 32.933 65.0255 33.8882L66.4219 32.4125C65.076 31.197 63.2888 30.3243 61.116 29.7562L60.5341 31.6697ZM65.0308 33.893C66.1368 34.8769 66.799 35.9521 67.0791 37.1175L69.0468 36.603C68.663 35.006 67.7657 33.6079 66.4165 32.4077L65.0308 33.893ZM67.0829 37.1327C67.3938 38.3388 67.358 39.5908 66.9572 40.909L68.8922 41.4148C69.3913 39.7734 69.4477 38.1577 69.043 36.5879L67.0829 37.1327ZM66.9572 40.909C66.4911 42.4419 65.6176 43.7117 64.3155 44.7408L65.5519 46.2646C67.1827 44.9757 68.3032 43.3517 68.8922 41.4148L66.9572 40.909ZM64.3128 44.743C63.1165 45.6949 61.5227 46.1987 59.4317 46.1593L59.3249 48.1382C61.7754 48.1844 63.8852 47.5909 65.5547 46.2624L64.3128 44.743ZM58.3985 47.4222L61.7034 60.184L63.663 59.6372L60.3581 46.8754L58.3985 47.4222ZM62.9741 58.9539L57.711 57.578L57.1292 59.4915L62.3923 60.8674L62.9741 58.9539ZM51.8644 42.871L56.7405 44.1457L57.3224 42.2322L52.4462 40.9575L51.8644 42.871ZM56.7405 44.1457C58.5408 44.6164 60.2043 44.5701 61.5974 43.7909L60.6406 42.0802C59.886 42.5022 58.8244 42.6249 57.3224 42.2322L56.7405 44.1457ZM61.5836 43.7985C62.9684 43.0507 63.8816 41.8187 64.3643 40.2311L62.4294 39.7253C62.0742 40.8931 61.4689 41.6327 60.6543 42.0726L61.5836 43.7985ZM64.3643 40.2311C64.8437 38.6545 64.7741 37.1797 64.0099 35.9148L62.262 36.9648C62.6835 37.6623 62.7878 38.5465 62.4294 39.7253L64.3643 40.2311ZM64.0181 35.9286C63.2567 34.6185 61.8474 33.7895 60.0338 33.3153L59.4519 35.2288C60.9923 35.6315 61.845 36.2476 62.2538 36.951L64.0181 35.9286ZM60.0338 33.3153L55.1576 32.0406L54.5758 33.9541L59.4519 35.2288L60.0338 33.3153ZM53.8992 32.7444L51.1878 41.6613L53.1228 42.1672L55.8342 33.2503L53.8992 32.7444Z" fill="#1E4364"/>
<path d="M81.4464 37.8984L81.3255 46.0576L90.9247 46.1799L90.8696 49.8995L81.2704 49.7771L81.1441 58.2962L91.9433 58.4338L91.8881 62.1534L76.5294 61.9577L76.9419 34.1208L92.3007 34.3165L92.2456 38.036L81.4464 37.8984Z" fill="#1E4364"/>
<path d="M81.4464 37.8984L81.4613 36.8986L80.4613 36.8858L80.4465 37.8857L81.4464 37.8984ZM81.3255 46.0576L80.3256 46.0448L80.3108 47.0447L81.3107 47.0574L81.3255 46.0576ZM90.9247 46.1799L91.9247 46.1926L91.9395 45.1927L90.9396 45.18L90.9247 46.1799ZM90.8696 49.8995L90.8548 50.8993L91.8547 50.9121L91.8695 49.9122L90.8696 49.8995ZM81.2704 49.7771L81.2852 48.7773L80.2853 48.7645L80.2705 49.7644L81.2704 49.7771ZM81.1441 58.2962L80.1442 58.2835L80.1294 59.2834L81.1293 59.2961L81.1441 58.2962ZM91.9433 58.4338L92.9432 58.4465L92.958 57.4467L91.9581 57.4339L91.9433 58.4338ZM91.8881 62.1534L91.8733 63.1533L92.8732 63.166L92.8881 62.1661L91.8881 62.1534ZM76.5294 61.9577L75.5295 61.945L75.5147 62.9449L76.5146 62.9576L76.5294 61.9577ZM76.9419 34.1208L76.9568 33.1209L75.9568 33.1081L75.942 34.108L76.9419 34.1208ZM92.3007 34.3165L93.3006 34.3292L93.3154 33.3293L92.3155 33.3166L92.3007 34.3165ZM92.2456 38.036L92.2307 39.0359L93.2307 39.0487L93.2455 38.0488L92.2456 38.036ZM80.4465 37.8857L80.3256 46.0448L82.3254 46.0703L82.4464 37.9112L80.4465 37.8857ZM81.3107 47.0574L90.9099 47.1798L90.9396 45.18L81.3403 45.0577L81.3107 47.0574ZM89.9248 46.1671L89.8697 49.8867L91.8695 49.9122L91.9247 46.1926L89.9248 46.1671ZM90.8844 48.8996L81.2852 48.7773L81.2556 50.777L90.8548 50.8993L90.8844 48.8996ZM80.2705 49.7644L80.1442 58.2835L82.1441 58.309L82.2703 49.7899L80.2705 49.7644ZM81.1293 59.2961L91.9285 59.4337L91.9581 57.4339L81.159 57.2963L81.1293 59.2961ZM90.9434 58.4211L90.8882 62.1407L92.8881 62.1661L92.9432 58.4465L90.9434 58.4211ZM91.903 61.1535L76.5442 60.9578L76.5146 62.9576L91.8733 63.1533L91.903 61.1535ZM77.5293 61.9704L77.9419 34.1335L75.942 34.108L75.5295 61.945L77.5293 61.9704ZM76.9271 35.1207L92.2859 35.3163L92.3155 33.3166L76.9568 33.1209L76.9271 35.1207ZM91.3008 34.3037L91.2456 38.0233L93.2455 38.0488L93.3006 34.3292L91.3008 34.3037ZM92.2604 37.0362L81.4613 36.8986L81.4316 38.8983L92.2307 39.0359L92.2604 37.0362Z" fill="#1E4364"/>
<path d="M127.354 55.6081L122.928 56.7045L103.863 40.0551L109.61 60.0036L105.184 61.1L97.4761 34.3484L101.902 33.2519L120.957 49.8629L115.22 29.9529L119.646 28.8564L127.354 55.6081Z" fill="#1E4364"/>
<path d="M127.354 55.6081L127.631 56.569L128.602 56.3285L128.325 55.3676L127.354 55.6081ZM122.928 56.7045L122.271 57.4349L122.683 57.7948L123.205 57.6654L122.928 56.7045ZM103.863 40.0551L104.52 39.3247L101.971 37.0988L102.892 40.2956L103.863 40.0551ZM109.61 60.0036L109.887 60.9645L110.858 60.724L110.581 59.7631L109.61 60.0036ZM105.184 61.1L104.214 61.3405L104.49 62.3014L105.461 62.0609L105.184 61.1ZM97.4761 34.3484L97.1992 33.3875L96.2286 33.6279L96.5054 34.5888L97.4761 34.3484ZM101.902 33.2519L102.559 32.5209L102.147 32.1618L101.625 32.291L101.902 33.2519ZM120.957 49.8629L120.3 50.5939L122.847 52.8141L121.927 49.6224L120.957 49.8629ZM115.22 29.9529L114.943 28.992L113.972 29.2324L114.249 30.1933L115.22 29.9529ZM119.646 28.8564L120.617 28.616L120.34 27.6551L119.369 27.8955L119.646 28.8564ZM127.077 54.6472L122.651 55.7436L123.205 57.6654L127.631 56.569L127.077 54.6472ZM123.585 55.9741L104.52 39.3247L103.205 40.7855L122.271 57.4349L123.585 55.9741ZM102.892 40.2956L108.64 60.244L110.581 59.7631L104.833 39.8147L102.892 40.2956ZM109.334 59.0427L104.907 60.1391L105.461 62.0609L109.887 60.9645L109.334 59.0427ZM106.155 60.8596L98.4467 34.1079L96.5054 34.5888L104.214 61.3405L106.155 60.8596ZM97.753 35.3093L102.179 34.2128L101.625 32.291L97.1992 33.3875L97.753 35.3093ZM101.246 33.9829L120.3 50.5939L121.613 49.1319L102.559 32.5209L101.246 33.9829ZM121.927 49.6224L116.19 29.7124L114.249 30.1933L119.986 50.1033L121.927 49.6224ZM115.497 30.9138L119.923 29.8173L119.369 27.8955L114.943 28.992L115.497 30.9138ZM118.675 29.0969L126.383 55.8485L128.325 55.3676L120.617 28.616L118.675 29.0969Z" fill="#1E4364"/>
<path d="M151.466 36.5672L141.448 42.4942L142.947 48.1917L138.85 50.6154L131.64 22.6095L136.184 19.921L160.539 37.7839L156.407 40.228L151.466 36.5672ZM148.256 34.1545L137.041 25.8126L140.441 38.7779L148.256 34.1545Z" fill="#1E4364"/>
<path d="M151.466 36.5672L152.09 35.8134L151.509 35.3829L150.899 35.7434L151.466 36.5672ZM141.448 42.4942L140.881 41.6704L140.272 42.0309L140.448 42.7009L141.448 42.4942ZM142.947 48.1917L143.514 49.0155L144.123 48.6549L143.947 47.985L142.947 48.1917ZM138.85 50.6154L137.849 50.8174L138.195 52.1622L139.417 51.4392L138.85 50.6154ZM131.64 22.6095L131.073 21.7857L130.467 22.1444L130.639 22.8115L131.64 22.6095ZM136.184 19.921L136.804 19.1641L136.223 18.7386L135.617 19.0972L136.184 19.921ZM160.539 37.7839L161.105 38.6077L162.327 37.8847L161.158 37.027L160.539 37.7839ZM156.407 40.228L155.784 40.9819L156.365 41.4123L156.974 41.0518L156.407 40.228ZM148.256 34.1545L148.823 34.9783L150.035 34.2607L148.881 33.4018L148.256 34.1545ZM137.041 25.8126L137.666 25.06L135.335 23.3256L136.041 26.0186L137.041 25.8126ZM140.441 38.7779L139.441 38.9839L139.791 40.3214L141.008 39.6017L140.441 38.7779ZM150.899 35.7434L140.881 41.6704L142.015 43.318L152.033 37.391L150.899 35.7434ZM140.448 42.7009L141.947 48.3984L143.947 47.985L142.448 42.2875L140.448 42.7009ZM142.38 47.3679L138.283 49.7916L139.417 51.4392L143.514 49.0155L142.38 47.3679ZM139.851 50.4135L132.641 22.4076L130.639 22.8115L137.849 50.8174L139.851 50.4135ZM132.207 23.4333L136.751 20.7448L135.617 19.0972L131.073 21.7857L132.207 23.4333ZM135.565 20.6779L159.919 38.5408L161.158 37.027L136.804 19.1641L135.565 20.6779ZM159.972 36.9601L155.841 39.4042L156.974 41.0518L161.105 38.6077L159.972 36.9601ZM157.031 39.4741L152.09 35.8134L150.843 37.3211L155.784 40.9819L157.031 39.4741ZM148.881 33.4018L137.666 25.06L136.416 26.5653L147.631 34.9071L148.881 33.4018ZM136.041 26.0186L139.441 38.9839L141.441 38.5719L138.042 25.6066L136.041 26.0186ZM141.008 39.6017L148.823 34.9783L147.689 33.3307L139.874 37.9541L141.008 39.6017Z" fill="#1E4364"/>
</svg>
