<svg width="201" height="86" viewBox="0 0 201 86" fill="none" xmlns="http://www.w3.org/2000/svg">
<path d="M31.6236 42.0007C30.8465 43.0842 29.8451 43.9083 28.6195 44.4732C27.4156 45.0536 26.0605 45.2958 24.5541 45.1999C23.0694 45.1194 21.5761 44.6391 20.0744 43.7589L18.186 46.3916L16.0733 44.8762L17.9617 42.2435C16.0647 40.5875 14.8763 38.767 14.3967 36.7821C13.917 34.7972 14.3144 32.9163 15.5889 31.1394L19.5543 33.9837C19.0131 34.8754 18.7789 35.7739 18.8515 36.6793C18.9396 37.5629 19.3735 38.3992 20.1532 39.1881L25.2822 32.0374C24.0946 30.6277 23.1778 29.4122 22.532 28.3911C21.9016 27.3483 21.5567 26.182 21.4973 24.8923C21.4595 23.6182 21.9535 22.266 22.9793 20.8359C24.2693 19.0373 25.9624 18.0037 28.0585 17.7351C30.1701 17.4448 32.3143 17.9326 34.4911 19.1986L36.3795 16.5658L38.4922 18.0812L36.6038 20.7139C38.3863 22.255 39.4788 23.9575 39.8812 25.8214C40.3209 27.6791 39.9715 29.5616 38.8332 31.4689L34.8677 28.6247C35.2845 27.9063 35.4519 27.1239 35.3699 26.2775C35.3034 25.4093 34.9609 24.6058 34.3424 23.8668L29.3066 30.8875C30.5098 32.2756 31.4265 33.491 32.0568 34.5338C32.7027 35.555 33.0445 36.7026 33.0823 37.9768C33.1356 39.2293 32.6494 40.5706 31.6236 42.0007ZM26.8896 23.3452C26.2524 24.2337 26.015 25.1136 26.1776 25.985C26.3618 26.8719 26.8327 27.8168 27.5902 28.8196L32.2996 22.2539C31.2901 21.6939 30.3016 21.4935 29.3341 21.6528C28.3883 21.8277 27.5735 22.3918 26.8896 23.3452ZM22.2659 40.7035C23.3281 41.2357 24.3477 41.3927 25.3246 41.1746C26.3171 40.9347 27.1241 40.3814 27.7458 39.5147C28.3675 38.6479 28.5785 37.7819 28.3787 36.9166C28.2161 36.0452 27.7561 35.1081 26.9986 34.1053L22.2659 40.7035Z" fill="#1E4364"/>
<path d="M28.6195 44.4732L28.201 43.565L28.1931 43.5687L28.1853 43.5724L28.6195 44.4732ZM24.5541 45.1999L24.6177 44.2018L24.6082 44.2013L24.5541 45.1999ZM20.0744 43.7589L20.5801 42.8961L19.7933 42.435L19.2618 43.176L20.0744 43.7589ZM18.186 46.3916L17.6031 47.2042L18.4157 47.7871L18.9986 46.9745L18.186 46.3916ZM16.0733 44.8762L15.2607 44.2934L14.6778 45.106L15.4904 45.6888L16.0733 44.8762ZM17.9617 42.2435L18.7743 42.8263L19.304 42.0878L18.6193 41.4901L17.9617 42.2435ZM14.3967 36.7821L13.4246 37.017L14.3967 36.7821ZM15.5889 31.1394L16.1717 30.3269L15.3591 29.744L14.7763 30.5566L15.5889 31.1394ZM19.5543 33.9837L20.4092 34.5025L20.8896 33.7109L20.1371 33.1711L19.5543 33.9837ZM18.8515 36.6793L17.8547 36.7592L17.8555 36.7689L17.8564 36.7785L18.8515 36.6793ZM20.1532 39.1881L19.4419 39.8911L20.275 40.7341L20.9658 39.771L20.1532 39.1881ZM25.2822 32.0374L26.0948 32.6202L26.5482 31.9881L26.047 31.3931L25.2822 32.0374ZM22.532 28.3911L21.6762 28.9084L21.6814 28.9171L21.6868 28.9256L22.532 28.3911ZM21.4973 24.8923L20.4977 24.922L20.498 24.9302L20.4984 24.9384L21.4973 24.8923ZM28.0585 17.7351L28.1856 18.727L28.1947 18.7258L28.0585 17.7351ZM34.4911 19.1986L33.9883 20.063L34.774 20.5199L35.3037 19.7814L34.4911 19.1986ZM36.3795 16.5658L36.9623 15.7532L36.1498 15.1703L35.5669 15.9829L36.3795 16.5658ZM38.4922 18.0812L39.3048 18.664L39.8876 17.8514L39.0751 17.2686L38.4922 18.0812ZM36.6038 20.7139L35.7912 20.1311L35.259 20.8732L35.9498 21.4704L36.6038 20.7139ZM39.8812 25.8214L38.9037 26.0324L38.9058 26.042L38.9081 26.0516L39.8812 25.8214ZM38.8332 31.4689L38.2503 32.2815L39.1343 32.9156L39.6918 31.9814L38.8332 31.4689ZM34.8677 28.6247L34.0028 28.1228L33.5471 28.9081L34.2849 29.4373L34.8677 28.6247ZM35.3699 26.2775L34.3728 26.3538L34.3736 26.3639L34.3746 26.3739L35.3699 26.2775ZM34.3424 23.8668L35.1092 23.2249L34.2815 22.236L33.5298 23.2839L34.3424 23.8668ZM29.3066 30.8875L28.494 30.3047L28.034 30.946L28.551 31.5425L29.3066 30.8875ZM32.0568 34.5338L31.201 35.0511L31.2063 35.0598L31.2117 35.0684L32.0568 34.5338ZM33.0823 37.9768L32.0827 38.0064L32.0832 38.0193L33.0823 37.9768ZM26.1776 25.985L25.1946 26.1684L25.1964 26.1784L25.1985 26.1884L26.1776 25.985ZM27.5902 28.8196L26.7923 29.4223L27.6111 30.5062L28.4028 29.4024L27.5902 28.8196ZM32.2996 22.2539L33.1122 22.8367L33.7667 21.9242L32.7847 21.3794L32.2996 22.2539ZM29.3341 21.6528L29.1717 20.6661L29.162 20.6677L29.1524 20.6695L29.3341 21.6528ZM22.2659 40.7035L21.4533 40.1207L20.7704 41.0728L21.818 41.5976L22.2659 40.7035ZM25.3246 41.1746L25.5426 42.1505L25.551 42.1486L25.5595 42.1466L25.3246 41.1746ZM28.3787 36.9166L27.3957 37.1L27.3996 37.1209L27.4043 37.1416L28.3787 36.9166ZM26.9986 34.1053L27.7965 33.5026L26.9777 32.4187L26.186 33.5225L26.9986 34.1053ZM30.811 41.4179C30.1361 42.3588 29.2713 43.0717 28.201 43.565L29.0381 45.3814C30.419 44.7449 31.5568 43.8095 32.4362 42.5836L30.811 41.4179ZM28.1853 43.5724C27.1554 44.0689 25.9751 44.2884 24.6177 44.2019L24.4905 46.1978C26.1458 46.3033 27.6759 46.0383 29.0538 45.374L28.1853 43.5724ZM24.6082 44.2013C23.3078 44.1309 21.9677 43.7095 20.5801 42.8961L19.5687 44.6216C21.1845 45.5687 22.831 46.108 24.5 46.1984L24.6082 44.2013ZM19.2618 43.176L17.3734 45.8088L18.9986 46.9745L20.887 44.3417L19.2618 43.176ZM18.7688 45.579L16.6561 44.0637L15.4904 45.6888L17.6031 47.2042L18.7688 45.579ZM16.8859 45.4591L18.7743 42.8263L17.1491 41.6606L15.2607 44.2934L16.8859 45.4591ZM18.6193 41.4901C16.8414 39.9381 15.7894 38.2881 15.3687 36.5472L13.4246 37.017C13.9633 39.2459 15.2879 41.2368 17.304 42.9968L18.6193 41.4901ZM15.3687 36.5472C14.9627 34.867 15.2829 33.2817 16.4015 31.7223L14.7763 30.5566C13.3459 32.5509 12.8713 34.7273 13.4246 37.017L15.3687 36.5472ZM15.006 31.952L18.9715 34.7963L20.1371 33.1711L16.1717 30.3269L15.006 31.952ZM18.6994 33.4649C18.066 34.5086 17.7629 35.6142 17.8547 36.7592L19.8483 36.5993C19.7949 35.9337 19.9603 35.2422 20.4092 34.5025L18.6994 33.4649ZM17.8564 36.7785C17.9725 37.942 18.5424 38.9809 19.4419 39.8911L20.8645 38.4852C20.2047 37.8176 19.9068 37.1839 19.8466 36.58L17.8564 36.7785ZM20.9658 39.771L26.0948 32.6202L24.4696 31.4546L19.3406 38.6053L20.9658 39.771ZM26.047 31.3931C24.8751 30.0021 23.9896 28.825 23.3771 27.8565L21.6868 28.9256C22.366 29.9995 23.314 31.2533 24.5174 32.6817L26.047 31.3931ZM23.3878 27.8738C22.8489 26.9822 22.5485 25.9796 22.4962 24.8463L20.4984 24.9384C20.565 26.3844 20.9544 27.7143 21.6762 28.9084L23.3878 27.8738ZM22.4969 24.8627C22.4676 23.8775 22.8461 22.7374 23.7919 21.4187L22.1667 20.253C21.061 21.7947 20.4514 23.3588 20.4977 24.922L22.4969 24.8627ZM23.7919 21.4187C24.9288 19.8337 26.3792 18.9585 28.1856 18.727L27.9314 16.7432C25.5456 17.049 23.6099 18.241 22.1667 20.253L23.7919 21.4187ZM28.1947 18.7258C30.0469 18.4711 31.9682 18.8881 33.9883 20.063L34.9938 18.3341C32.6605 16.9771 30.2934 16.4184 27.9223 16.7444L28.1947 18.7258ZM35.3037 19.7814L37.1921 17.1486L35.5669 15.9829L33.6785 18.6157L35.3037 19.7814ZM35.7967 17.3784L37.9094 18.8937L39.0751 17.2686L36.9623 15.7532L35.7967 17.3784ZM37.6796 17.4983L35.7912 20.1311L37.4164 21.2968L39.3048 18.664L37.6796 17.4983ZM35.9498 21.4704C37.6076 22.9037 38.557 24.4265 38.9037 26.0324L40.8587 25.6103C40.4006 23.4885 39.165 21.6064 37.2578 19.9575L35.9498 21.4704ZM38.9081 26.0516C39.2781 27.6151 39.003 29.2332 37.9745 30.9564L39.6918 31.9814C40.94 29.8901 41.3636 27.7431 40.8543 25.5911L38.9081 26.0516ZM39.416 30.6564L35.4506 27.8121L34.2849 29.4373L38.2503 32.2815L39.416 30.6564ZM35.7327 29.1265C36.2571 28.2227 36.4669 27.2303 36.3652 26.181L34.3746 26.3739C34.4369 27.0175 34.312 27.5899 34.0028 28.1228L35.7327 29.1265ZM36.367 26.2011C36.2829 25.103 35.8466 24.1059 35.1092 23.2249L33.5755 24.5086C34.0752 25.1056 34.324 25.7157 34.3728 26.3538L36.367 26.2011ZM33.5298 23.2839L28.494 30.3047L30.1192 31.4704L35.155 24.4496L33.5298 23.2839ZM28.551 31.5425C29.7336 32.9068 30.6109 34.0747 31.201 35.0511L32.9126 34.0165C32.2421 32.9072 31.286 31.6443 30.0623 30.2325L28.551 31.5425ZM31.2117 35.0684C31.7564 35.9296 32.05 36.9011 32.0828 38.0064L34.0819 37.9471C34.0391 36.5041 33.649 35.1803 32.902 33.9993L31.2117 35.0684ZM32.0832 38.0193C32.1239 38.9736 31.7581 40.0975 30.811 41.4179L32.4362 42.5836C33.5407 41.0436 34.1474 39.4849 34.0814 37.9342L32.0832 38.0193ZM26.077 22.7624C25.3205 23.8171 24.9708 24.9688 25.1946 26.1684L27.1606 25.8016C27.0593 25.2583 27.1842 24.6502 27.7022 23.9281L26.077 22.7624ZM25.1985 26.1884C25.4222 27.265 25.9781 28.3444 26.7923 29.4223L28.3882 28.2168C27.6874 27.2891 27.3015 26.4788 27.1567 25.7816L25.1985 26.1884ZM28.4028 29.4024L33.1122 22.8367L31.487 21.671L26.7776 28.2367L28.4028 29.4024ZM32.7847 21.3794C31.6146 20.7303 30.3994 20.464 29.1717 20.6661L29.4966 22.6395C30.2039 22.5231 30.9657 22.6575 31.8145 23.1283L32.7847 21.3794ZM29.1524 20.6695C27.8989 20.9012 26.8765 21.6478 26.077 22.7624L27.7022 23.9281C28.2705 23.1358 28.8778 22.7541 29.5159 22.6362L29.1524 20.6695ZM21.818 41.5976C23.046 42.2128 24.3006 42.4279 25.5426 42.1505L25.1066 40.1986C24.3947 40.3576 23.6103 40.2586 22.7138 39.8095L21.818 41.5976ZM25.5595 42.1466C26.796 41.8478 27.8038 41.1495 28.5584 40.0975L26.9332 38.9318C26.4444 39.6133 25.8381 40.0217 25.0897 40.2025L25.5595 42.1466ZM28.5584 40.0975C29.3108 39.0486 29.6305 37.8931 29.3531 36.6916L27.4043 37.1416C27.5265 37.6707 27.4243 38.2473 26.9332 38.9318L28.5584 40.0975ZM29.3617 36.7332C29.1614 35.6596 28.6109 34.5807 27.7965 33.5026L26.2006 34.7081C26.9013 35.6356 27.2708 36.4309 27.3957 37.1L29.3617 36.7332ZM26.186 33.5225L21.4533 40.1207L23.0785 41.2864L27.8112 34.6882L26.186 33.5225Z" fill="#1E4364"/>
<path d="M46.8084 34.6854C47.9133 32.4593 49.5329 31.0413 51.6672 30.4311C53.826 29.8313 56.16 30.0564 58.6692 31.1063C60.3912 31.8268 61.7508 32.7571 62.7481 33.8971C63.7454 35.037 64.3425 36.2697 64.5395 37.5951C64.7364 38.9206 64.557 40.2475 64.0012 41.5759C63.363 43.1011 62.4115 44.235 61.1468 44.9777C59.8821 45.7204 58.6067 46.0396 57.3207 45.9351L57.259 46.0827C58.5251 47.1328 59.317 48.4181 59.6347 49.9385C59.9627 51.4344 59.7459 53.0926 58.9842 54.913C58.3768 56.3643 57.5043 57.5169 56.3666 58.3706C55.229 59.2242 53.8692 59.7104 52.2875 59.829C50.7161 59.9231 49.0202 59.5892 47.1998 58.8275C44.543 57.7158 42.6367 56.1232 41.4808 54.0497C40.3599 51.9618 40.2731 49.613 41.2207 47.0031L45.2796 48.7015C44.8325 50.0465 44.889 51.3276 45.4492 52.5449C46.0198 53.7375 47.0799 54.6581 48.6297 55.3066C50.1303 55.9345 51.4563 56.0124 52.6078 55.5403C53.7696 55.0436 54.6233 54.1433 55.1688 52.8395C55.8894 51.1175 55.8454 49.6682 55.0369 48.4916C54.2633 47.3007 52.7449 46.2318 50.4817 45.2848L49.5223 44.8833L50.9737 41.4147L51.97 41.8316C53.9729 42.6408 55.6247 42.9417 56.9256 42.7345C58.251 42.5375 59.2019 41.7502 59.7784 40.3726C60.2724 39.1918 60.2823 38.0974 59.8079 37.0896C59.3438 36.0571 58.4107 35.2475 57.0085 34.6607C55.6309 34.0843 54.4115 33.9932 53.3504 34.3875C52.2996 34.7572 51.4843 35.4278 50.9043 36.3992L46.8084 34.6854Z" fill="#1E4364"/>
<path d="M46.8084 34.6854L45.9127 34.2408L45.4385 35.1962L46.4224 35.6079L46.8084 34.6854ZM51.6672 30.4311L51.3994 29.4676L51.3923 29.4697L51.6672 30.4311ZM62.7481 33.8971L61.9955 34.5555L61.9955 34.5555L62.7481 33.8971ZM64.5395 37.5951L65.5286 37.4481L65.5286 37.4481L64.5395 37.5951ZM61.1468 44.9777L61.6532 45.84L61.6532 45.84L61.1468 44.9777ZM57.3208 45.9351L57.4017 44.9383L56.6784 44.8796L56.3983 45.549L57.3208 45.9351ZM57.259 46.0827L56.3365 45.6966L56.0507 46.3797L56.6206 46.8524L57.259 46.0827ZM59.6347 49.9385L58.6558 50.1431L58.6579 50.1527L59.6347 49.9385ZM56.3666 58.3706L55.7665 57.5707L56.3666 58.3706ZM52.2875 59.829L52.3473 60.8272L52.3548 60.8268L52.3623 60.8262L52.2875 59.829ZM41.4808 54.0497L40.5998 54.5227L40.6035 54.5297L40.6074 54.5366L41.4808 54.0497ZM41.2207 47.0031L41.6067 46.0806L40.6388 45.6756L40.2807 46.6619L41.2207 47.0031ZM45.2796 48.7015L46.2286 49.017L46.5212 48.137L45.6657 47.7791L45.2796 48.7015ZM45.4492 52.5449L44.5408 52.963L44.5439 52.9697L44.5471 52.9764L45.4492 52.5449ZM52.6078 55.5403L52.9872 56.4655L52.9941 56.4627L53.0009 56.4598L52.6078 55.5403ZM55.0369 48.4916L54.1983 49.0364L54.2054 49.0472L54.2127 49.0579L55.0369 48.4916ZM49.5223 44.8833L48.5998 44.4973L48.2138 45.4198L49.1363 45.8058L49.5223 44.8833ZM50.9737 41.4147L51.3597 40.4922L50.4372 40.1062L50.0512 41.0287L50.9737 41.4147ZM51.97 41.8316L51.584 42.7542L51.5954 42.7588L51.97 41.8316ZM56.9256 42.7345L56.7786 41.7453L56.7682 41.7469L56.9256 42.7345ZM59.8079 37.0896L58.8958 37.4995L58.8994 37.5075L58.9031 37.5154L59.8079 37.0896ZM53.3504 34.3875L53.6823 35.3308L53.6906 35.3279L53.6988 35.3249L53.3504 34.3875ZM50.9043 36.3992L50.5183 37.3217L51.3184 37.6565L51.763 36.9118L50.9043 36.3992ZM47.7042 35.13C48.7006 33.1225 50.1121 31.9157 51.942 31.3926L51.3923 29.4697C48.9537 30.1668 47.1261 31.7962 45.9127 34.2408L47.7042 35.13ZM51.9349 31.3946C53.8341 30.867 55.9355 31.0464 58.2832 32.0288L59.0552 30.1838C56.3846 29.0663 53.8179 28.7957 51.3995 29.4676L51.9349 31.3946ZM58.2832 32.0288C59.8965 32.7039 61.1193 33.5539 61.9955 34.5555L63.5008 33.2386C62.3824 31.9602 60.8859 30.9498 59.0552 30.1838L58.2832 32.0288ZM61.9955 34.5555C62.8834 35.5705 63.3851 36.6303 63.5503 37.7421L65.5286 37.4481C65.2999 35.9092 64.6073 34.5035 63.5008 33.2386L61.9955 34.5555ZM63.5503 37.7421C63.7185 38.8737 63.5696 40.0167 63.0787 41.1899L64.9237 41.9619C65.5445 40.4783 65.7544 38.9675 65.5286 37.4481L63.5503 37.7421ZM63.0787 41.1899C62.5129 42.5421 61.6951 43.4961 60.6404 44.1154L61.6532 45.84C63.1279 44.974 64.2131 43.66 64.9237 41.9619L63.0787 41.1899ZM60.6404 44.1154C59.5279 44.7688 58.4555 45.024 57.4017 44.9383L57.2398 46.9318C58.758 47.0551 60.2363 46.6721 61.6532 45.84L60.6404 44.1154ZM56.3983 45.549L56.3365 45.6966L58.1815 46.4687L58.2432 46.3211L56.3983 45.549ZM56.6206 46.8524C57.7236 47.7672 58.3873 48.8577 58.6559 50.1431L60.6136 49.734C60.2467 47.9784 59.3266 46.4983 57.8974 45.3129L56.6206 46.8524ZM58.6579 50.1527C58.9307 51.3968 58.7668 52.8417 58.0617 54.5269L59.9067 55.299C60.7249 53.3434 60.9947 51.4721 60.6115 49.7244L58.6579 50.1527ZM58.0617 54.5269C57.5156 55.8321 56.7471 56.8349 55.7665 57.5707L56.9668 59.1704C58.2616 58.1989 59.2381 56.8966 59.9067 55.299L58.0617 54.5269ZM55.7665 57.5707C54.7987 58.2969 53.6267 58.7258 52.2127 58.8318L52.3623 60.8262C54.1118 60.695 55.6592 60.1516 56.9668 59.1704L55.7665 57.5707ZM52.2278 58.8308C50.8424 58.9137 49.3001 58.6224 47.5858 57.905L46.8138 59.75C48.7402 60.5561 50.5898 60.9324 52.3473 60.8272L52.2278 58.8308ZM47.5858 57.905C45.0903 56.8608 43.3793 55.4016 42.3543 53.5628L40.6074 54.5366C41.8941 56.8449 43.9957 58.5708 46.8138 59.75L47.5858 57.905ZM42.3619 53.5766C41.3989 51.7832 41.2919 49.7372 42.1606 47.3444L40.2807 46.6619C39.2544 49.4888 39.3208 52.1405 40.5998 54.5227L42.3619 53.5766ZM40.8347 47.9256L44.8936 49.624L45.6657 47.7791L41.6067 46.0806L40.8347 47.9256ZM44.3307 48.3861C43.8086 49.9566 43.868 51.501 44.5408 52.963L46.3577 52.1268C45.9101 51.1543 45.8564 50.1365 46.2286 49.017L44.3307 48.3861ZM44.5471 52.9764C45.2499 54.4455 46.5308 55.5123 48.2437 56.2291L49.0157 54.3841C47.6291 53.8039 46.7896 53.0296 46.3513 52.1134L44.5471 52.9764ZM48.2437 56.2291C49.9108 56.9267 51.5217 57.0664 52.9872 56.4655L52.2285 54.615C51.391 54.9584 50.3498 54.9423 49.0157 54.3841L48.2437 56.2291ZM53.0009 56.4598C54.431 55.8483 55.4583 54.7382 56.0913 53.2255L54.2463 52.4535C53.7882 53.5484 53.1082 54.2388 52.2147 54.6208L53.0009 56.4598ZM56.0913 53.2255C56.8977 51.2983 56.9202 49.4667 55.8611 47.9253L54.2127 49.0579C54.7705 49.8698 54.881 50.9367 54.2463 52.4535L56.0913 53.2255ZM55.8755 47.9469C54.9384 46.5042 53.1967 45.3368 50.8677 44.3623L50.0957 46.2073C52.2931 47.1267 53.5882 48.0972 54.1983 49.0364L55.8755 47.9469ZM50.8677 44.3623L49.9083 43.9608L49.1363 45.8058L50.0957 46.2073L50.8677 44.3623ZM50.4448 45.2693L51.8962 41.8007L50.0512 41.0287L48.5998 44.4973L50.4448 45.2693ZM50.5877 42.3372L51.584 42.7541L52.356 40.9091L51.3597 40.4922L50.5877 42.3372ZM51.5954 42.7588C53.6702 43.597 55.5219 43.9707 57.0829 43.722L56.7682 41.7469C55.7276 41.9127 54.2756 41.6845 52.3446 40.9044L51.5954 42.7588ZM57.0726 43.7236C58.7892 43.4685 60.0078 42.4149 60.7009 40.7586L58.8559 39.9866C58.396 41.0855 57.7128 41.6065 56.7786 41.7453L57.0726 43.7236ZM60.7009 40.7586C61.2862 39.3598 61.326 37.9668 60.7127 36.6637L58.9031 37.5154C59.2386 38.2281 59.2587 39.0238 58.8559 39.9866L60.7009 40.7586ZM60.72 36.6796C60.1205 35.3458 58.9489 34.3886 57.3945 33.7382L56.6225 35.5832C57.8725 36.1063 58.5671 36.7683 58.8958 37.4995L60.72 36.6796ZM57.3945 33.7382C55.8596 33.096 54.3689 32.9423 53.0021 33.4501L53.6988 35.3249C54.4542 35.0442 55.4022 35.0726 56.6225 35.5832L57.3945 33.7382ZM53.0186 33.4442C51.7435 33.8928 50.7434 34.7179 50.0457 35.8866L51.763 36.9118C52.2251 36.1377 52.8558 35.6216 53.6823 35.3308L53.0186 33.4442ZM51.2903 35.4767L47.1944 33.7629L46.4224 35.6079L50.5183 37.3217L51.2903 35.4767Z" fill="#1E4364"/>
<path d="M68.5685 50.6579C69.3675 46.1143 70.7526 42.7026 72.7239 40.4229C74.7261 38.1216 77.6051 37.3012 81.3608 37.9616C85.1165 38.6221 87.5297 40.3732 88.6003 43.2149C89.7019 46.0349 89.8532 49.7168 89.0541 54.2604C88.2459 58.8565 86.8384 62.3184 84.8316 64.646C82.8557 66.952 79.9899 67.7747 76.2342 67.1143C72.4784 66.4538 70.0521 64.7004 68.9552 61.8541C67.8891 58.9861 67.7602 55.2541 68.5685 50.6579ZM84.6418 53.4845C85.016 51.3571 85.1879 49.5327 85.1576 48.0111C85.1536 46.4941 84.8122 45.2021 84.1334 44.1351C83.4593 43.0418 82.2949 42.3497 80.6403 42.0587C78.9857 41.7678 77.655 42.0211 76.6483 42.8188C75.6462 43.5903 74.8714 44.686 74.3239 46.1059C73.8026 47.5305 73.3549 49.3065 72.9808 51.4338C72.5928 53.64 72.3985 55.5147 72.3979 57.0579C72.3973 58.6011 72.7364 59.9062 73.4152 60.9732C74.1202 62.0449 75.3 62.7262 76.9546 63.0171C78.6093 63.3081 79.9376 63.0679 80.9397 62.2965C81.968 61.5296 82.7452 60.4208 83.2711 58.97C83.797 57.5191 84.2539 55.6906 84.6418 53.4845Z" fill="#1E4364"/>
<path d="M72.7239 40.4229L71.9695 39.7666L71.9675 39.7689L72.7239 40.4229ZM88.6003 43.2149L87.6645 43.5675L87.6689 43.5787L88.6003 43.2149ZM84.8316 64.646L84.0742 63.993L84.0722 63.9953L84.8316 64.646ZM68.9552 61.8541L68.0178 62.2025L68.0221 62.2137L68.9552 61.8541ZM85.1576 48.0111L84.1576 48.0137L84.1576 48.0223L84.1578 48.031L85.1576 48.0111ZM84.1334 44.1351L83.2822 44.6601L83.2897 44.6719L84.1334 44.1351ZM76.6483 42.8188L77.2584 43.6113L77.2693 43.6026L76.6483 42.8188ZM74.3239 46.1059L73.3908 45.7461L73.3877 45.7542L73.3847 45.7623L74.3239 46.1059ZM72.3979 57.0579L73.3979 57.0583L73.3979 57.0583L72.3979 57.0579ZM73.4152 60.9732L72.5714 61.51L72.5755 61.5165L72.5797 61.5229L73.4152 60.9732ZM80.9397 62.2965L80.3419 61.4948L80.3358 61.4994L80.3297 61.5041L80.9397 62.2965ZM83.2711 58.97L84.2112 59.3107L83.2711 58.97ZM69.5534 50.8311C70.3364 46.3785 71.6741 43.1659 73.4804 41.077L71.9675 39.7689C69.8312 42.2394 68.3986 45.8501 67.5836 50.4847L69.5534 50.8311ZM73.4784 41.0793C75.1908 39.111 77.6775 38.3292 81.1876 38.9465L81.534 36.9767C77.5327 36.2731 74.2614 37.1322 71.9695 39.7666L73.4784 41.0793ZM81.1876 38.9465C84.6982 39.5639 86.7514 41.1438 87.6645 43.5674L89.5361 42.8623C88.3079 39.6025 85.5347 37.6803 81.534 36.9767L81.1876 38.9465ZM87.6689 43.5787C88.6775 46.1609 88.8519 49.6367 88.0693 54.0872L90.039 54.4336C90.8544 49.7968 90.7263 45.909 89.5318 42.851L87.6689 43.5787ZM88.0693 54.0872C87.2773 58.5909 85.9175 61.8551 84.0742 63.993L85.5889 65.299C87.7593 62.7817 89.2145 59.1222 90.039 54.4336L88.0693 54.0872ZM84.0722 63.9953C82.387 65.962 79.918 66.7468 76.4073 66.1294L76.061 68.0992C80.0617 68.8027 83.3243 67.9419 85.5909 65.2967L84.0722 63.9953ZM76.4073 66.1294C72.8972 65.5121 70.8265 63.9289 69.8883 61.4945L68.0221 62.2137C69.2778 65.4719 72.0597 67.3955 76.061 68.0992L76.4073 66.1294ZM69.8925 61.5057C68.9127 58.8696 68.761 55.3369 69.5534 50.8311L67.5836 50.4847C66.7595 55.1712 66.8656 59.1026 68.0179 62.2025L69.8925 61.5057ZM85.6267 53.6577C86.0078 51.4908 86.1894 49.5981 86.1574 47.9912L84.1578 48.031C84.1864 49.4672 84.0241 51.2235 83.657 53.3113L85.6267 53.6577ZM86.1576 48.0085C86.1532 46.3404 85.7762 44.8544 84.9772 43.5984L83.2897 44.6719C83.8482 45.5499 84.154 46.6479 84.1576 48.0137L86.1576 48.0085ZM84.9846 43.6102C84.1177 42.2044 82.6576 41.3981 80.8135 41.0739L80.4671 43.0436C81.9322 43.3013 82.8008 43.8793 83.2823 44.66L84.9846 43.6102ZM80.8135 41.0739C78.9694 40.7496 77.3218 41.0093 76.0272 42.0351L77.2693 43.6026C77.9882 43.033 79.0019 42.786 80.4671 43.0436L80.8135 41.0739ZM76.0383 42.0264C74.8638 42.9306 73.9908 44.1901 73.3908 45.7461L75.2569 46.4657C75.7519 45.1819 76.4286 44.25 77.2583 43.6112L76.0383 42.0264ZM73.3847 45.7623C72.8367 47.26 72.3763 49.0974 71.9959 51.2606L73.9657 51.607C74.3335 49.5155 74.7684 47.801 75.263 46.4496L73.3847 45.7623ZM71.9959 51.2606C71.602 53.5008 71.3986 55.4369 71.3979 57.0575L73.3979 57.0583C73.3985 55.5925 73.5837 53.7792 73.9657 51.607L71.9959 51.2606ZM71.3979 57.0575C71.3972 58.7488 71.77 60.2502 72.5714 61.51L74.2589 60.4365C73.7027 59.5622 73.3973 58.4533 73.3979 57.0583L71.3979 57.0575ZM72.5797 61.5229C73.4792 62.89 74.9437 63.6789 76.7815 64.002L77.1278 62.0323C75.6563 61.7735 74.7612 61.1998 74.2506 60.4236L72.5797 61.5229ZM76.7815 64.002C78.6173 64.3249 80.2586 64.0828 81.5497 63.0888L80.3297 61.5041C79.6167 62.053 78.6012 62.2914 77.1278 62.0323L76.7815 64.002ZM81.5375 63.0981C82.7519 62.1925 83.6324 60.9076 84.2112 59.3107L82.3309 58.6292C81.8579 59.934 81.1842 60.8667 80.3419 61.4948L81.5375 63.0981ZM84.2112 59.3107C84.7635 57.7871 85.2328 55.8978 85.6267 53.6577L83.657 53.3113C83.275 55.4835 82.8304 57.2511 82.3309 58.6292L84.2112 59.3107Z" fill="#1E4364"/>
<path d="M99.4767 69.5764C98.6501 69.5734 97.9578 69.2908 97.3999 68.7287C96.842 68.1667 96.5645 67.4723 96.5676 66.6456C96.5706 65.819 96.8532 65.1267 97.4153 64.5688C97.9774 64.0108 98.6717 63.7334 99.4984 63.7365C100.298 63.7394 100.977 64.022 101.535 64.584C102.093 65.1461 102.371 65.8405 102.368 66.6671C102.364 67.4938 102.082 68.1861 101.52 68.744C100.958 69.3019 100.277 69.5794 99.4767 69.5764Z" fill="#1E4364"/>
<path d="M97.3999 68.7287L98.1096 68.0243L98.1096 68.0243L97.3999 68.7287ZM97.4153 64.5688L98.1198 65.2785L97.4153 64.5688ZM101.535 64.584L100.826 65.2885L101.535 64.584ZM101.52 68.744L100.815 68.0343L101.52 68.744ZM99.4805 68.5764C98.9061 68.5743 98.4717 68.3891 98.1096 68.0243L96.6902 69.4332C97.4438 70.1925 98.3941 70.5724 99.473 70.5764L99.4805 68.5764ZM98.1096 68.0243C97.7474 67.6594 97.5654 67.2237 97.5676 66.6493L95.5676 66.6419C95.5636 67.7209 95.9365 68.6739 96.6902 69.4332L98.1096 68.0243ZM97.5676 66.6493C97.5697 66.0749 97.7549 65.6406 98.1198 65.2785L96.7108 63.859C95.9515 64.6127 95.5716 65.563 95.5676 66.6419L97.5676 66.6493ZM98.1198 65.2785C98.4846 64.9163 98.9203 64.7343 99.4947 64.7365L99.5021 62.7365C98.4232 62.7325 97.4701 63.1053 96.7108 63.859L98.1198 65.2785ZM99.4947 64.7365C100.032 64.7385 100.457 64.9168 100.826 65.2885L102.245 63.8795C101.498 63.1271 100.564 62.7404 99.5021 62.7365L99.4947 64.7365ZM100.826 65.2885C101.188 65.6533 101.37 66.089 101.368 66.6634L103.368 66.6708C103.372 65.5919 102.999 64.6388 102.245 63.8795L100.826 65.2885ZM101.368 66.6634C101.365 67.2378 101.18 67.6721 100.815 68.0343L102.224 69.4537C102.984 68.7 103.364 67.7497 103.368 66.6708L101.368 66.6634ZM100.815 68.0343C100.444 68.4032 100.018 68.5784 99.4805 68.5764L99.473 70.5764C100.535 70.5804 101.472 70.2006 102.224 69.4537L100.815 68.0343Z" fill="#1E4364"/>
<path d="M109.938 54.4055C109.173 49.8561 109.338 46.1776 110.434 43.3702C111.552 40.5321 113.992 38.7967 117.752 38.1641C121.513 37.5315 124.372 38.3755 126.331 40.696C128.312 42.9858 129.685 46.4054 130.45 50.9548C131.224 55.5568 131.055 59.29 129.941 62.1545C128.849 64.9882 126.423 66.7213 122.663 67.354C118.902 67.9866 116.029 67.1448 114.044 64.8287C112.081 62.4819 110.712 59.0075 109.938 54.4055ZM126.032 51.698C125.674 49.568 125.226 47.7909 124.689 46.367C124.178 44.9386 123.425 43.8349 122.429 43.0561C121.428 42.251 120.099 41.9878 118.442 42.2665C116.786 42.5452 115.616 43.2287 114.934 44.3169C114.247 45.3789 113.883 46.6705 113.842 48.1918C113.826 49.7087 113.998 51.5322 114.356 53.6622C114.728 55.8712 115.171 57.703 115.686 59.1577C116.201 60.6124 116.957 61.7292 117.954 62.508C118.976 63.2825 120.316 63.5303 121.973 63.2516C123.629 62.9729 124.801 62.3026 125.488 61.2406C126.201 60.1742 126.563 58.8694 126.573 57.3262C126.584 55.7831 126.404 53.907 126.032 51.698Z" fill="#1E4364"/>
<path d="M110.434 43.3702L109.504 43.0037L109.503 43.0065L110.434 43.3702ZM126.331 40.696L125.567 41.3411L125.575 41.3502L126.331 40.696ZM129.941 62.1545L129.009 61.7921L129.008 61.795L129.941 62.1545ZM114.044 64.8287L113.277 65.4704L113.285 65.4795L114.044 64.8287ZM124.689 46.367L123.747 46.7036L123.75 46.7118L123.753 46.7198L124.689 46.367ZM122.429 43.0561L121.802 43.8353L121.813 43.844L122.429 43.0561ZM114.934 44.3169L115.774 44.86L115.781 44.8481L114.934 44.3169ZM113.842 48.1918L112.842 48.1645L112.842 48.1732L112.842 48.1818L113.842 48.1918ZM115.686 59.1577L116.629 58.8239L116.629 58.8239L115.686 59.1577ZM117.954 62.508L117.338 63.2959L117.344 63.3006L117.35 63.3053L117.954 62.508ZM125.488 61.2406L124.656 60.6848L124.652 60.6912L124.648 60.6976L125.488 61.2406ZM126.573 57.3262L127.573 57.3332L126.573 57.3262ZM110.924 54.2396C110.174 49.7812 110.362 46.3063 111.366 43.7339L109.503 43.0065C108.315 46.049 108.171 49.9309 108.952 54.5714L110.924 54.2396ZM111.365 43.7367C112.321 41.3093 114.403 39.7415 117.918 39.1503L117.586 37.178C113.58 37.852 110.784 39.7549 109.504 43.0037L111.365 43.7367ZM117.918 39.1503C121.433 38.5589 123.896 39.3619 125.567 41.341L127.095 40.051C124.848 37.389 121.592 36.5041 117.586 37.178L117.918 39.1503ZM125.575 41.3502C127.388 43.4469 128.714 46.6646 129.464 51.1207L131.436 50.7889C130.655 46.1463 129.235 42.5247 127.087 40.0418L125.575 41.3502ZM129.464 51.1207C130.223 55.6301 130.032 59.1611 129.009 61.7921L130.873 62.5168C132.077 59.4189 132.226 55.4835 131.436 50.7889L129.464 51.1207ZM129.008 61.795C128.077 64.2117 126.012 65.7765 122.497 66.3678L122.829 68.3401C126.834 67.6662 129.622 65.7646 130.874 62.514L129.008 61.795ZM122.497 66.3678C118.982 66.9591 116.501 66.1589 114.804 64.178L113.285 65.4795C115.557 68.1308 118.822 69.0141 122.829 68.3401L122.497 66.3678ZM114.811 64.1871C113.007 62.03 111.683 58.7511 110.924 54.2396L108.952 54.5714C109.742 59.2638 111.155 62.9337 113.277 65.4703L114.811 64.1871ZM127.018 51.5321C126.653 49.3625 126.192 47.5179 125.625 46.0141L123.753 46.7198C124.26 48.064 124.694 49.7735 125.046 51.8639L127.018 51.5321ZM125.631 46.0303C125.069 44.4596 124.217 43.1851 123.044 42.2683L121.813 43.844C122.633 44.4848 123.288 45.4175 123.747 46.7036L125.631 46.0303ZM123.055 42.277C121.768 41.2416 120.123 40.9697 118.276 41.2803L118.608 43.2526C120.075 43.0058 121.087 43.2603 121.802 43.8353L123.055 42.277ZM118.276 41.2803C116.43 41.5909 114.964 42.3863 114.087 43.7858L115.781 44.8481C116.268 44.071 117.141 43.4994 118.608 43.2526L118.276 41.2803ZM114.094 43.7739C113.289 45.0186 112.887 46.4974 112.842 48.1645L114.841 48.2191C114.879 46.8436 115.205 45.7392 115.774 44.8599L114.094 43.7739ZM112.842 48.1818C112.826 49.7765 113.006 51.6622 113.37 53.8281L115.342 53.4964C114.99 51.4022 114.827 49.6409 114.841 48.2019L112.842 48.1818ZM113.37 53.8281C113.747 56.0711 114.203 57.9639 114.744 59.4915L116.629 58.8239C116.14 57.4422 115.708 55.6713 115.342 53.4964L113.37 53.8281ZM114.744 59.4915C115.308 61.0859 116.161 62.3764 117.338 63.2959L118.569 61.7202C117.753 61.082 117.095 60.139 116.629 58.8239L114.744 59.4915ZM117.35 63.3053C118.654 64.2932 120.298 64.5473 122.138 64.2377L121.807 62.2655C120.333 62.5133 119.298 62.2717 118.557 61.7108L117.35 63.3053ZM122.138 64.2377C123.977 63.9285 125.443 63.1519 126.327 61.7836L124.648 60.6976C124.159 61.4533 123.282 62.0173 121.807 62.2655L122.138 64.2377ZM126.319 61.7964C127.161 60.537 127.561 59.0317 127.573 57.3332L125.573 57.3192C125.564 58.7071 125.24 59.8114 124.656 60.6848L126.319 61.7964ZM127.573 57.3332C127.585 55.7127 127.396 53.7751 127.018 51.5321L125.046 51.8639C125.412 54.0389 125.584 55.8535 125.573 57.3192L127.573 57.3332Z" fill="#1E4364"/>
<path d="M137.474 48.9713C135.694 44.7155 135.017 41.096 135.446 38.1128C135.888 35.0947 137.869 32.8497 141.386 31.3777C144.904 29.9057 147.881 30.0766 150.316 31.8904C152.766 33.6693 154.882 36.6866 156.662 40.9424C158.464 45.2474 159.148 48.9212 158.716 51.9639C158.298 54.9718 156.33 57.2116 152.812 58.6836C149.294 60.1556 146.305 59.9898 143.845 58.1863C141.399 56.348 139.276 53.2763 137.474 48.9713ZM152.529 42.6717C151.696 40.6791 150.855 39.0506 150.008 37.7863C149.186 36.5116 148.201 35.6085 147.053 35.0769C145.896 34.5207 144.542 34.5668 142.992 35.2153C141.442 35.8638 140.459 36.7955 140.042 38.0105C139.616 39.2009 139.555 40.5415 139.861 42.0323C140.191 43.5128 140.773 45.2494 141.607 47.242C142.472 49.3084 143.32 50.9912 144.153 52.2905C144.986 53.5897 145.976 54.5052 147.123 55.0368C148.296 55.5581 149.656 55.4945 151.206 54.846C152.756 54.1975 153.744 53.2781 154.171 52.0877C154.623 50.887 154.678 49.5341 154.338 48.029C153.997 46.5239 153.394 44.7381 152.529 42.6717Z" fill="#1E4364"/>
<path d="M135.446 38.1128L134.456 37.9677L134.456 37.9707L135.446 38.1128ZM150.316 31.8904L149.719 32.6925L149.729 32.6996L150.316 31.8904ZM158.716 51.9639L157.726 51.8233L157.725 51.8263L158.716 51.9639ZM143.845 58.1863L143.244 58.9858L143.254 58.9928L143.845 58.1863ZM150.008 37.7863L149.168 38.3284L149.173 38.3357L149.177 38.3428L150.008 37.7863ZM147.053 35.0769L146.62 35.9783L146.633 35.9842L147.053 35.0769ZM140.042 38.0105L140.984 38.3481L140.988 38.3349L140.042 38.0105ZM139.861 42.0323L138.881 42.2333L138.883 42.2417L138.885 42.2501L139.861 42.0323ZM144.153 52.2905L144.995 51.7509L144.995 51.7509L144.153 52.2905ZM147.123 55.0368L146.703 55.9441L146.71 55.9474L146.717 55.9505L147.123 55.0368ZM154.171 52.0877L153.235 51.7357L153.233 51.7429L153.23 51.7501L154.171 52.0877ZM154.338 48.029L155.313 47.8082L154.338 48.029ZM138.397 48.5853C136.652 44.4147 136.043 40.9884 136.436 38.2549L134.456 37.9707C133.992 41.2037 134.735 45.0163 136.552 49.3573L138.397 48.5853ZM136.435 38.2579C136.814 35.6766 138.485 33.6759 141.772 32.3002L141 30.4552C137.252 32.0234 134.963 34.5128 134.456 37.9677L136.435 38.2579ZM141.772 32.3002C145.061 30.9243 147.642 31.1455 149.719 32.6924L150.914 31.0884C148.12 29.0077 144.748 28.8872 141 30.4552L141.772 32.3002ZM149.729 32.6996C151.972 34.3284 153.996 37.1599 155.74 41.3284L157.585 40.5564C155.768 36.2134 153.56 33.0101 150.904 31.0812L149.729 32.6996ZM155.74 41.3284C157.505 45.5468 158.123 49.0285 157.726 51.8233L159.706 52.1046C160.173 48.814 159.422 44.948 157.585 40.5564L155.74 41.3284ZM157.725 51.8263C157.369 54.3915 155.714 56.3852 152.426 57.7611L153.198 59.6061C156.945 58.0381 159.227 55.552 159.706 52.1016L157.725 51.8263ZM152.426 57.7611C149.138 59.1368 146.541 58.9223 144.436 57.3798L143.254 58.9928C146.07 61.0573 149.45 61.1743 153.198 59.6061L152.426 57.7611ZM144.446 57.387C142.198 55.6973 140.163 52.8056 138.397 48.5853L136.552 49.3573C138.389 53.7469 140.601 56.9987 143.244 58.9857L144.446 57.387ZM153.452 42.2857C152.603 40.2561 151.734 38.565 150.839 37.2297L149.177 38.3428C149.977 39.5363 150.789 41.1022 151.607 43.0577L153.452 42.2857ZM150.849 37.2441C149.944 35.8425 148.825 34.7953 147.474 34.1695L146.633 35.9842C147.577 36.4216 148.428 37.1807 149.168 38.3284L150.849 37.2441ZM147.486 34.1755C145.998 33.4603 144.333 33.57 142.606 34.2928L143.378 36.1378C144.75 35.5636 145.794 35.5811 146.62 35.9782L147.486 34.1755ZM142.606 34.2928C140.879 35.0155 139.632 36.1238 139.097 37.6861L140.988 38.3349C141.286 37.4673 142.006 36.712 143.378 36.1378L142.606 34.2928ZM139.101 37.6729C138.601 39.0681 138.546 40.5995 138.881 42.2333L140.84 41.8314C140.564 40.4834 140.63 39.3337 140.984 38.3481L139.101 37.6729ZM138.885 42.2501C139.232 43.8067 139.837 45.6018 140.685 47.628L142.53 46.856C141.71 44.897 141.15 43.219 140.837 41.8145L138.885 42.2501ZM140.685 47.628C141.563 49.7262 142.437 51.4657 143.311 52.8301L144.995 51.7509C144.204 50.5168 143.381 48.8906 142.53 46.856L140.685 47.628ZM143.311 52.8301C144.224 54.2541 145.348 55.3165 146.703 55.9441L147.544 54.1294C146.604 53.6938 145.748 52.9254 144.995 51.7509L143.311 52.8301ZM146.717 55.9505C148.212 56.6155 149.871 56.4888 151.592 55.7685L150.82 53.9235C149.442 54.5002 148.379 54.5007 147.53 54.1231L146.717 55.9505ZM151.592 55.7685C153.312 55.049 154.563 53.9591 155.113 52.4253L153.23 51.7501C152.926 52.5971 152.2 53.3461 150.82 53.9235L151.592 55.7685ZM155.107 52.4397C155.641 51.0217 155.688 49.4648 155.313 47.8082L153.362 48.2498C153.669 49.6035 153.605 50.7523 153.235 51.7357L155.107 52.4397ZM155.313 47.8082C154.955 46.2276 154.33 44.3839 153.452 42.2857L151.607 43.0577C152.458 45.0923 153.039 46.8202 153.362 48.2498L155.313 47.8082Z" fill="#1E4364"/>
<path d="M163.052 37.4118C160.349 33.6731 158.867 30.3025 158.605 27.3001C158.349 24.2604 159.766 21.6236 162.856 19.3896C165.947 17.1555 168.884 16.6444 171.669 17.8562C174.459 19.0308 177.206 21.4874 179.909 25.2262C182.642 29.0081 184.145 32.4297 184.417 35.491C184.694 38.515 183.288 41.144 180.198 43.378C177.107 45.6121 174.159 46.131 171.353 44.9348C168.553 43.7014 165.786 41.1938 163.052 37.4118ZM176.278 27.8508C175.012 26.1002 173.823 24.7058 172.711 23.6674C171.62 22.6134 170.455 21.9582 169.217 21.7017C167.963 21.4236 166.655 21.7767 165.294 22.7609C163.932 23.7452 163.187 24.8762 163.058 26.1542C162.913 27.4105 163.159 28.7297 163.796 30.1117C164.455 31.4782 165.417 33.0367 166.682 34.7872C167.995 36.6025 169.204 38.048 170.311 39.1236C171.417 40.1992 172.59 40.8653 173.828 41.1218C175.088 41.3626 176.399 40.9909 177.76 40.0067C179.122 39.0225 179.875 37.9022 180.02 36.6459C180.186 35.3739 179.932 34.0439 179.258 32.6559C178.583 31.2678 177.59 29.6661 176.278 27.8508Z" fill="#1E4364"/>
<path d="M158.605 27.3001L157.608 27.384L157.609 27.387L158.605 27.3001ZM171.669 17.8562L171.27 18.7732L171.281 18.7779L171.669 17.8562ZM184.417 35.491L183.421 35.5793L183.421 35.5824L184.417 35.491ZM171.353 44.9348L170.95 45.8501L170.961 45.8547L171.353 44.9348ZM172.711 23.6674L172.016 24.3866L172.022 24.3926L172.029 24.3985L172.711 23.6674ZM169.217 21.7017L169 22.6781L169.014 22.6809L169.217 21.7017ZM163.058 26.1542L164.051 26.2686L164.053 26.2547L163.058 26.1542ZM163.796 30.1117L162.888 30.5304L162.892 30.5382L162.895 30.546L163.796 30.1117ZM170.311 39.1236L171.008 38.4066L171.008 38.4066L170.311 39.1236ZM173.828 41.1218L173.625 42.101L173.633 42.1025L173.64 42.104L173.828 41.1218ZM180.02 36.6459L179.028 36.5162L179.027 36.5238L179.026 36.5314L180.02 36.6459ZM179.258 32.6559L180.157 32.2189L179.258 32.6559ZM163.862 36.8259C161.214 33.1621 159.841 29.9642 159.601 27.2132L157.609 27.387C157.892 30.6408 159.485 34.184 162.241 37.9976L163.862 36.8259ZM159.601 27.2162C159.382 24.6164 160.554 22.2879 163.442 20.2L162.271 18.5792C158.978 20.9593 157.315 23.9045 157.608 27.384L159.601 27.2162ZM163.442 20.2C166.331 18.1117 168.895 17.7396 171.27 18.7731L172.068 16.9393C168.874 15.5492 165.563 16.1994 162.271 18.5792L163.442 20.2ZM171.281 18.7779C173.836 19.8534 176.451 22.1499 179.098 25.812L180.719 24.6403C177.961 20.8249 175.083 18.2082 172.057 16.9345L171.281 18.7779ZM179.098 25.812C181.777 29.5179 183.171 32.7676 183.421 35.5793L185.413 35.4026C185.119 32.0919 183.508 28.4984 180.719 24.6403L179.098 25.812ZM183.421 35.5824C183.658 38.1614 182.501 40.4793 179.612 42.5676L180.783 44.1885C184.075 41.8087 185.731 38.8685 185.413 35.3996L183.421 35.5824ZM179.612 42.5676C176.723 44.6556 174.145 45.038 171.745 44.0149L170.961 45.8547C174.173 47.224 177.491 46.5686 180.783 44.1885L179.612 42.5676ZM171.756 44.0197C169.182 42.886 166.542 40.5335 163.862 36.8259L162.241 37.9976C165.029 41.854 167.923 44.5168 170.95 45.85L171.756 44.0197ZM177.088 27.2649C175.799 25.4818 174.568 24.033 173.393 22.9364L172.029 24.3985C173.079 25.3786 174.226 26.7186 175.467 28.4366L177.088 27.2649ZM173.406 22.9482C172.206 21.7892 170.877 21.0244 169.42 20.7225L169.014 22.6809C170.033 22.892 171.034 23.4376 172.016 24.3866L173.406 22.9482ZM169.433 20.7254C167.821 20.3678 166.225 20.8536 164.708 21.9505L165.879 23.5713C167.085 22.6998 168.105 22.4794 169 22.678L169.433 20.7254ZM164.708 21.9505C163.19 23.0474 162.229 24.4103 162.063 26.0536L164.053 26.2547C164.145 25.3422 164.674 24.4429 165.879 23.5713L164.708 21.9505ZM162.064 26.0397C161.895 27.5121 162.19 29.0158 162.888 30.5304L164.704 29.6931C164.128 28.4435 163.931 27.3088 164.051 26.2686L162.064 26.0397ZM162.895 30.546C163.588 31.9826 164.585 33.593 165.872 35.373L167.493 34.2013C166.249 32.4803 165.322 30.9738 164.697 29.6775L162.895 30.546ZM165.872 35.373C167.205 37.2163 168.452 38.7111 169.614 39.8407L171.008 38.4066C169.957 37.3849 168.785 35.9887 167.493 34.2013L165.872 35.373ZM169.614 39.8407C170.827 41.0196 172.163 41.7982 173.625 42.101L174.031 40.1425C173.016 39.9324 172.008 39.3789 171.008 38.4066L169.614 39.8407ZM173.64 42.104C175.248 42.4112 176.834 41.9103 178.346 40.8171L177.175 39.1963C175.964 40.0716 174.929 40.314 174.016 40.1395L173.64 42.104ZM178.346 40.8171C179.857 39.7251 180.827 38.3791 181.013 36.7604L179.026 36.5314C178.923 37.4253 178.387 38.3198 177.175 39.1963L178.346 40.8171ZM181.011 36.7756C181.208 35.2735 180.9 33.7466 180.157 32.2189L178.358 33.0929C178.965 34.3412 179.165 35.4744 179.028 36.5162L181.011 36.7756ZM180.157 32.2189C179.449 30.7612 178.421 29.1082 177.088 27.2649L175.467 28.4366C176.76 30.224 177.718 31.7744 178.358 33.0929L180.157 32.2189Z" fill="#1E4364"/>
</svg>
