<svg width="176" height="81" viewBox="0 0 176 81" fill="none" xmlns="http://www.w3.org/2000/svg">
<path d="M17.1486 26.2497C18.5916 23.944 20.4172 22.2081 22.6255 21.0419C24.8564 19.89 27.2056 19.3783 29.6732 19.5069C32.1776 19.6271 34.5261 20.3733 36.7188 21.7455C39.228 23.3158 41.0655 25.3309 42.2315 27.7907C43.4342 30.2422 43.7691 32.874 43.236 35.6862L38.5907 32.7791C38.7584 31.1539 38.4907 29.6966 37.7876 28.4072C37.0845 27.1178 36.0209 26.0275 34.5968 25.1363C33.0371 24.1602 31.4276 23.6405 29.7684 23.5774C28.1092 23.5142 26.5189 23.9189 24.9977 24.7915C23.499 25.6782 22.2051 26.9918 21.1158 28.7324C20.0265 30.473 19.4107 32.211 19.2683 33.9465C19.1486 35.6962 19.4727 37.3146 20.2407 38.8019C21.0228 40.2665 22.1938 41.4869 23.7535 42.463C25.1776 43.3543 26.6232 43.8342 28.0902 43.9029C29.5572 43.9716 30.9849 43.5753 32.3733 42.714L37.0186 45.6211C34.7224 47.3299 32.209 48.1793 29.4784 48.1692C26.7705 48.1732 24.1619 47.3902 21.6528 45.8199C19.4375 44.4335 17.7326 42.6588 16.5382 40.4957C15.3579 38.31 14.7982 35.9621 14.859 33.4521C14.9425 30.9562 15.7057 28.5554 17.1486 26.2497Z" fill="#1E4364"/>
<path d="M22.6255 21.0419L22.1666 20.1534L22.1585 20.1577L22.6255 21.0419ZM29.6732 19.5069L29.6212 20.5056L29.6253 20.5058L29.6732 19.5069ZM42.2315 27.7907L41.3278 28.2191L41.3337 28.2312L42.2315 27.7907ZM43.236 35.6862L42.7055 36.5339L43.946 37.3102L44.2185 35.8724L43.236 35.6862ZM38.5907 32.7791L37.596 32.6764L37.532 33.2962L38.0602 33.6268L38.5907 32.7791ZM37.7876 28.4072L38.6656 27.9284L37.7876 28.4072ZM29.7684 23.5774L29.7303 24.5767L29.7303 24.5767L29.7684 23.5774ZM24.9977 24.7915L24.5001 23.924L24.4885 23.9308L24.9977 24.7915ZM19.2683 33.9465L18.2716 33.8648L18.2707 33.8782L19.2683 33.9465ZM20.2407 38.8019L19.3521 39.2607L19.3586 39.2729L20.2407 38.8019ZM28.0902 43.9029L28.0434 44.9018L28.0902 43.9029ZM32.3733 42.714L32.9038 41.8663L32.3756 41.5358L31.8461 41.8642L32.3733 42.714ZM37.0186 45.6211L37.6156 46.4233L38.7896 45.5497L37.5491 44.7734L37.0186 45.6211ZM29.4784 48.1692L29.4821 47.1692L29.4769 47.1692L29.4784 48.1692ZM16.5382 40.4957L15.6583 40.9709L15.6628 40.9791L16.5382 40.4957ZM14.859 33.4521L13.8596 33.4187L13.8593 33.4279L14.859 33.4521ZM17.9963 26.7802C19.3543 24.6102 21.0537 23.0028 23.0924 21.9262L22.1585 20.1577C19.7806 21.4133 17.8288 23.2778 16.3009 25.7192L17.9963 26.7802ZM23.0843 21.9305C25.1603 20.8585 27.3336 20.3863 29.6212 20.5056L29.7253 18.5083C27.0777 18.3703 24.5524 18.9215 22.1667 20.1534L23.0843 21.9305ZM29.6253 20.5058C31.9529 20.6175 34.1361 21.3089 36.1883 22.5932L37.2493 20.8978C34.9162 19.4377 32.4022 18.6368 29.7212 18.5081L29.6253 20.5058ZM36.1883 22.5932C38.5503 24.0714 40.2508 25.9468 41.3279 28.2191L43.1351 27.3624C41.8802 24.715 39.9056 22.5602 37.2493 20.8978L36.1883 22.5932ZM41.3337 28.2312C42.4364 30.4786 42.7483 32.8893 42.2535 35.5L44.2185 35.8724C44.7898 32.8586 44.4321 30.0057 43.1293 27.3503L41.3337 28.2312ZM43.7665 34.8385L39.1212 31.9314L38.0602 33.6268L42.7055 36.5339L43.7665 34.8385ZM39.5854 32.8817C39.7714 31.0789 39.4762 29.4151 38.6656 27.9284L36.9097 28.8859C37.5052 29.978 37.7454 31.2288 37.596 32.6764L39.5854 32.8817ZM38.6656 27.9284C37.8691 26.4677 36.6758 25.2576 35.1273 24.2886L34.0663 25.984C35.3661 26.7974 36.3 27.7679 36.9097 28.8859L38.6656 27.9284ZM35.1273 24.2886C33.4359 23.2301 31.6586 22.6486 29.8064 22.5781L29.7303 24.5767C31.1966 24.6325 32.6383 25.0903 34.0663 25.984L35.1273 24.2886ZM29.8064 22.5781C27.9491 22.5074 26.1745 22.9637 24.5001 23.924L25.4952 25.6589C26.8634 24.8742 28.2692 24.5211 29.7303 24.5767L29.8064 22.5781ZM24.4885 23.9308C22.8296 24.9123 21.427 26.35 20.2681 28.2019L21.9635 29.2629C22.9831 27.6336 24.1685 26.444 25.5069 25.6521L24.4885 23.9308ZM20.2681 28.2019C19.1092 30.0538 18.4293 31.9437 18.2717 33.8648L20.265 34.0283C20.3921 32.4783 20.9438 30.8922 21.9635 29.2629L20.2681 28.2019ZM18.2707 33.8782C18.1391 35.8011 18.4962 37.6031 19.3522 39.2607L21.1292 38.3431C20.4492 37.0261 20.1581 35.5912 20.266 34.0148L18.2707 33.8782ZM19.3586 39.2729C20.2317 40.9079 21.5316 42.2522 23.223 43.3107L24.284 41.6154C22.856 40.7217 21.814 39.6252 21.1228 38.3308L19.3586 39.2729ZM23.223 43.3107C24.7715 44.2798 26.3815 44.824 28.0434 44.9018L28.137 42.904C26.8649 42.8445 25.5838 42.4288 24.284 41.6154L23.223 43.3107ZM28.0434 44.9018C29.7348 44.981 31.3604 44.5192 32.9004 43.5638L31.8461 41.8642C30.6094 42.6315 29.3795 42.9622 28.137 42.904L28.0434 44.9018ZM31.8428 43.5617L36.4881 46.4688L37.5491 44.7734L32.9038 41.8663L31.8428 43.5617ZM36.4216 44.8189C34.29 46.4052 31.9854 47.1784 29.4821 47.1692L29.4747 49.1692C32.4325 49.1801 35.1548 48.2546 37.6156 46.4233L36.4216 44.8189ZM29.4769 47.1692C26.9745 47.1729 24.5483 46.4523 22.1833 44.9722L21.1223 46.6676C23.7755 48.328 26.5665 49.1736 29.4799 49.1692L29.4769 47.1692ZM22.1833 44.9722C20.1034 43.6706 18.5211 42.018 17.4136 40.0123L15.6628 40.9791C16.9441 43.2996 18.7715 45.1964 21.1223 46.6676L22.1833 44.9722ZM17.4181 40.0206C16.3215 37.9898 15.8021 35.8143 15.8587 33.4763L13.8593 33.4279C13.7943 36.11 14.3944 38.6302 15.6583 40.9709L17.4181 40.0206ZM15.8585 33.4855C15.9355 31.1813 16.6383 28.9502 17.9963 26.7802L16.3009 25.7192C14.7731 28.1606 13.9494 30.7311 13.8596 33.4187L15.8585 33.4855Z" fill="#1E4364"/>
<path d="M60.6564 55.8346L49.4619 52.6453L45.9821 57.5599L41.4042 56.2556L58.6113 32.2101L63.6892 33.6569L65.6398 63.1605L61.0235 61.8453L60.6564 55.8346ZM60.4447 51.9063L59.6377 38.2422L51.7122 49.4183L60.4447 51.9063Z" fill="#1E4364"/>
<path d="M60.6564 55.8346L61.6545 55.7737L61.6114 55.0669L60.9304 54.8729L60.6564 55.8346ZM49.4619 52.6453L49.7359 51.6835L49.0549 51.4895L48.6457 52.0674L49.4619 52.6453ZM45.9821 57.5599L45.7081 58.5216L46.389 58.7156L46.7982 58.1377L45.9821 57.5599ZM41.4042 56.2556L40.591 55.6737L39.7648 56.8283L41.1302 57.2174L41.4042 56.2556ZM58.6113 32.2101L58.8853 31.2484L58.2079 31.0554L57.798 31.6282L58.6113 32.2101ZM63.6892 33.6569L64.687 33.5909L64.6406 32.8881L63.9632 32.6951L63.6892 33.6569ZM65.6398 63.1605L65.3658 64.1222L66.7313 64.5112L66.6376 63.0945L65.6398 63.1605ZM61.0235 61.8453L60.0254 61.9062L60.0686 62.613L60.7495 62.807L61.0235 61.8453ZM60.4447 51.9063L60.1707 52.868L61.526 53.2541L61.4429 51.8473L60.4447 51.9063ZM59.6377 38.2422L60.636 38.1833L60.4682 35.3424L58.822 37.6638L59.6377 38.2422ZM51.7122 49.4183L50.8965 48.8399L50.0789 49.9928L51.4382 50.3801L51.7122 49.4183ZM60.9304 54.8729L49.7359 51.6835L49.1879 53.607L60.3824 56.7964L60.9304 54.8729ZM48.6457 52.0674L45.1659 56.982L46.7982 58.1377L50.278 53.2231L48.6457 52.0674ZM46.2561 56.5981L41.6782 55.2939L41.1302 57.2174L45.7081 58.5216L46.2561 56.5981ZM42.2175 56.8376L59.4245 32.7921L57.798 31.6282L40.591 55.6737L42.2175 56.8376ZM58.3373 33.1719L63.4152 34.6186L63.9632 32.6951L58.8853 31.2484L58.3373 33.1719ZM62.6914 33.7228L64.642 63.2264L66.6376 63.0945L64.687 33.5909L62.6914 33.7228ZM65.9138 62.1987L61.2975 60.8835L60.7495 62.807L65.3658 64.1222L65.9138 62.1987ZM62.0217 61.7843L61.6545 55.7737L59.6582 55.8956L60.0254 61.9062L62.0217 61.7843ZM61.4429 51.8473L60.636 38.1833L58.6395 38.3012L59.4464 51.9652L61.4429 51.8473ZM58.822 37.6638L50.8965 48.8399L52.5279 49.9968L60.4534 38.8207L58.822 37.6638ZM51.4382 50.3801L60.1707 52.868L60.7187 50.9445L51.9862 48.4566L51.4382 50.3801Z" fill="#1E4364"/>
<path d="M104.317 36.3051L104.998 64.0967L100.44 64.2084L99.9733 45.1741L91.9621 64.4161L88.803 64.4934L79.8193 45.6678L80.2856 64.7021L75.7269 64.8137L75.0462 37.0221L79.9647 36.9016L90.2556 58.4561L99.4389 36.4246L104.317 36.3051Z" fill="#1E4364"/>
<path d="M104.317 36.3051L105.317 36.2806L105.293 35.2809L104.293 35.3054L104.317 36.3051ZM104.998 64.0967L105.023 65.0964L106.022 65.072L105.998 64.0723L104.998 64.0967ZM100.44 64.2084L99.4398 64.2329L99.4643 65.2326L100.464 65.2081L100.44 64.2084ZM99.9733 45.1741L100.973 45.1496L99.0501 44.7898L99.9733 45.1741ZM91.9621 64.4161L91.9866 65.4158L92.6357 65.3999L92.8852 64.8004L91.9621 64.4161ZM88.803 64.4934L87.9005 64.9241L88.1796 65.509L88.8275 65.4931L88.803 64.4934ZM79.8193 45.6678L80.7218 45.2371L78.8196 45.6923L79.8193 45.6678ZM80.2856 64.7021L80.3101 65.7018L81.3098 65.6773L81.2853 64.6776L80.2856 64.7021ZM75.7269 64.8137L74.7272 64.8382L74.7517 65.8379L75.7514 65.8134L75.7269 64.8137ZM75.0462 37.0221L75.0217 36.0224L74.022 36.0469L74.0465 37.0466L75.0462 37.0221ZM79.9647 36.9016L80.8671 36.4707L80.588 35.886L79.9402 35.9019L79.9647 36.9016ZM90.2556 58.4561L89.3532 58.8869L90.3175 60.9067L91.1786 58.8408L90.2556 58.4561ZM99.4389 36.4246L99.4144 35.4249L98.7656 35.4408L98.5158 36.0398L99.4389 36.4246ZM103.318 36.3296L103.998 64.1212L105.998 64.0723L105.317 36.2806L103.318 36.3296ZM104.974 63.097L100.415 63.2087L100.464 65.2081L105.023 65.0964L104.974 63.097ZM101.439 64.1839L100.973 45.1496L98.9736 45.1986L99.4398 64.2329L101.439 64.1839ZM99.0501 44.7898L91.0389 64.0317L92.8852 64.8004L100.896 45.5585L99.0501 44.7898ZM91.9376 63.4164L88.7785 63.4937L88.8275 65.4931L91.9866 65.4158L91.9376 63.4164ZM89.7055 64.0628L80.7218 45.2371L78.9168 46.0985L87.9005 64.9241L89.7055 64.0628ZM78.8196 45.6923L79.2859 64.7266L81.2853 64.6776L80.819 45.6433L78.8196 45.6923ZM80.2611 63.7024L75.7024 63.814L75.7514 65.8134L80.3101 65.7018L80.2611 63.7024ZM76.7266 64.7892L76.0459 36.9976L74.0465 37.0466L74.7272 64.8382L76.7266 64.7892ZM75.0707 38.0218L79.9892 37.9013L79.9402 35.9019L75.0217 36.0224L75.0707 38.0218ZM79.0623 37.3324L89.3532 58.8869L91.158 58.0252L80.8671 36.4707L79.0623 37.3324ZM91.1786 58.8408L100.362 36.8093L98.5158 36.0398L89.3326 58.0713L91.1786 58.8408ZM99.4634 37.4243L104.342 37.3048L104.293 35.3054L99.4144 35.4249L99.4634 37.4243Z" fill="#1E4364"/>
<path d="M131.242 50.6777L120.217 54.4113L120.144 60.4327L115.636 61.9596L116.14 32.3958L121.141 30.7022L139.504 53.8764L134.958 55.4161L131.242 50.6777ZM128.836 47.5648L120.411 36.7774L120.236 50.4773L128.836 47.5648Z" fill="#1E4364"/>
<path d="M131.242 50.6777L132.029 50.0606L131.592 49.5034L130.921 49.7306L131.242 50.6777ZM120.217 54.4113L119.896 53.4642L119.225 53.6913L119.217 54.3993L120.217 54.4113ZM120.144 60.4327L120.465 61.3799L121.136 61.1528L121.144 60.4448L120.144 60.4327ZM115.636 61.9596L114.636 61.9425L114.612 63.3621L115.957 62.9067L115.636 61.9596ZM116.14 32.3958L115.819 31.4487L115.152 31.6746L115.14 32.3788L116.14 32.3958ZM121.141 30.7022L121.924 30.0812L121.487 29.5291L120.82 29.7551L121.141 30.7022ZM139.504 53.8764L139.825 54.8236L141.17 54.3682L140.288 53.2554L139.504 53.8764ZM134.958 55.4161L134.171 56.0332L134.608 56.5903L135.279 56.3632L134.958 55.4161ZM128.836 47.5648L129.157 48.512L130.492 48.06L129.624 46.9493L128.836 47.5648ZM120.411 36.7774L121.199 36.1618L119.447 33.919L119.411 36.7646L120.411 36.7774ZM120.236 50.4773L119.236 50.4646L119.218 51.8779L120.557 51.4245L120.236 50.4773ZM130.921 49.7306L119.896 53.4642L120.538 55.3585L131.563 51.6249L130.921 49.7306ZM119.217 54.3993L119.144 60.4207L121.144 60.4448L121.217 54.4234L119.217 54.3993ZM119.824 59.4856L115.315 61.0124L115.957 62.9067L120.465 61.3799L119.824 59.4856ZM116.636 61.9766L117.14 32.4129L115.14 32.3788L114.636 61.9425L116.636 61.9766ZM116.46 33.343L121.461 31.6494L120.82 29.7551L115.819 31.4487L116.46 33.343ZM120.357 31.3233L138.721 54.4975L140.288 53.2554L121.924 30.0812L120.357 31.3233ZM139.184 52.9293L134.637 54.4689L135.279 56.3632L139.825 54.8236L139.184 52.9293ZM135.745 54.7989L132.029 50.0606L130.455 51.2948L134.171 56.0332L135.745 54.7989ZM129.624 46.9493L121.199 36.1618L119.623 37.3929L128.048 48.1804L129.624 46.9493ZM119.411 36.7646L119.236 50.4646L121.236 50.4901L121.411 36.7901L119.411 36.7646ZM120.557 51.4245L129.157 48.512L128.515 46.6177L119.915 49.5302L120.557 51.4245Z" fill="#1E4364"/>
<path d="M156.155 44.2928C154.597 45.3215 153.019 45.9803 151.42 46.2692C149.807 46.5359 148.313 46.4037 146.94 45.8727C145.566 45.3416 144.439 44.4085 143.557 43.0734L147.629 40.3841C148.379 41.3266 149.313 41.8927 150.429 42.0825C151.567 42.2575 152.77 41.9262 154.039 41.0885C155.351 40.2215 156.169 39.234 156.492 38.1259C156.8 36.9957 156.624 35.9299 155.962 34.9285C155.448 34.1497 154.795 33.6699 154.005 33.4889C153.236 33.2933 152.419 33.2898 151.553 33.4783C150.709 33.6522 149.584 33.9801 148.176 34.4622C146.399 35.061 144.899 35.476 143.678 35.7074C142.464 35.9019 141.237 35.7856 139.996 35.3587C138.755 34.9317 137.657 33.9951 136.702 32.5487C135.82 31.2136 135.383 29.8249 135.389 28.3827C135.395 26.9405 135.823 25.5556 136.672 24.228C137.52 22.9004 138.735 21.7148 140.315 20.6714C142.562 19.1872 144.773 18.5422 146.946 18.7365C149.127 18.8939 150.943 19.9002 152.392 21.7555L148.186 24.533C147.561 23.7315 146.683 23.2728 145.551 23.157C144.42 23.0412 143.254 23.38 142.052 24.1736C140.962 24.8937 140.256 25.7597 139.933 26.7715C139.611 27.7834 139.795 28.8123 140.486 29.8581C140.956 30.5702 141.557 31.0202 142.288 31.2083C143.027 31.3594 143.819 31.348 144.663 31.1742C145.506 31.0003 146.61 30.6871 147.973 30.2344C149.787 29.6432 151.313 29.243 152.549 29.0339C153.807 28.8101 155.064 28.9227 156.319 29.3719C157.582 29.7842 158.699 30.7246 159.668 32.1933C160.447 33.3726 160.859 34.6983 160.905 36.1703C160.973 37.6276 160.608 39.0831 159.81 40.5366C159.02 41.9533 157.801 43.2053 156.155 44.2928Z" fill="#1E4364"/>
<path d="M151.42 46.2692L151.583 47.2559L151.591 47.2546L151.598 47.2533L151.42 46.2692ZM146.94 45.8727L147.3 44.94L146.94 45.8727ZM143.557 43.0734L143.006 42.2389L142.172 42.79L142.723 43.6245L143.557 43.0734ZM147.629 40.3841L148.412 39.7612L147.842 39.0453L147.078 39.5496L147.629 40.3841ZM150.429 42.0825L150.261 43.0683L150.269 43.0697L150.277 43.0709L150.429 42.0825ZM156.492 38.1259L157.452 38.4057L157.455 38.3973L157.457 38.389L156.492 38.1259ZM154.005 33.4889L153.758 34.458L153.77 34.461L153.782 34.4637L154.005 33.4889ZM151.553 33.4783L151.755 34.4578L151.766 34.4554L151.553 33.4783ZM148.176 34.4622L148.495 35.4099L148.5 35.4082L148.176 34.4622ZM143.678 35.7074L143.836 36.6948L143.85 36.6926L143.864 36.6899L143.678 35.7074ZM135.389 28.3827L136.389 28.387L136.389 28.387L135.389 28.3827ZM136.672 24.228L137.514 24.7667L137.514 24.7667L136.672 24.228ZM146.946 18.7365L146.857 19.7325L146.866 19.7333L146.874 19.7339L146.946 18.7365ZM152.392 21.7555L152.943 22.5899L153.846 21.9932L153.18 21.1399L152.392 21.7555ZM148.186 24.533L147.397 25.148L147.966 25.8767L148.737 25.3674L148.186 24.533ZM139.933 26.7715L140.886 27.0751L140.886 27.0751L139.933 26.7715ZM142.288 31.2083L142.039 32.1768L142.063 32.183L142.088 32.188L142.288 31.2083ZM147.973 30.2344L147.663 29.2836L147.657 29.2854L147.973 30.2344ZM152.549 29.0339L152.715 30.0199L152.724 30.0184L152.549 29.0339ZM156.319 29.3719L155.982 30.3135L155.995 30.3182L156.009 30.3226L156.319 29.3719ZM160.905 36.1703L159.905 36.2011L159.906 36.2089L159.906 36.2167L160.905 36.1703ZM159.81 40.5366L160.683 41.0237L160.687 41.0177L159.81 40.5366ZM155.604 43.4584C154.142 44.4235 152.689 45.0237 151.242 45.2852L151.598 47.2533C153.348 46.937 155.052 46.2195 156.706 45.1272L155.604 43.4584ZM151.257 45.2826C149.8 45.5235 148.489 45.3996 147.3 44.94L146.579 46.8054C148.137 47.4078 149.813 47.5484 151.583 47.2559L151.257 45.2826ZM147.3 44.94C146.138 44.4904 145.169 43.6999 144.392 42.5223L142.723 43.6245C143.708 45.1171 144.995 46.1928 146.579 46.8054L147.3 44.94ZM144.108 43.9078L148.18 41.2185L147.078 39.5496L143.006 42.2389L144.108 43.9078ZM146.847 41.0069C147.74 42.1285 148.886 42.8345 150.261 43.0683L150.596 41.0966C149.739 40.9509 149.019 40.5247 148.412 39.7612L146.847 41.0069ZM150.277 43.0709C151.73 43.2944 153.182 42.8527 154.59 41.923L153.487 40.2541C152.358 40.9997 151.404 41.2207 150.581 41.0941L150.277 43.0709ZM154.59 41.923C156.028 40.9728 157.042 39.8121 157.452 38.4057L155.532 37.8462C155.296 38.6558 154.674 39.4702 153.487 40.2541L154.59 41.923ZM157.457 38.389C157.843 36.9736 157.612 35.6121 156.797 34.3775L155.128 35.4796C155.635 36.2476 155.758 37.0178 155.527 37.8629L157.457 38.389ZM156.797 34.3775C156.164 33.4189 155.307 32.7611 154.228 32.5141L153.782 34.4637C154.284 34.5786 154.732 34.8806 155.128 35.4796L156.797 34.3775ZM154.252 32.5198C153.316 32.2816 152.34 32.2836 151.34 32.5012L151.766 34.4554C152.498 34.296 153.157 34.305 153.758 34.458L154.252 32.5198ZM151.351 32.4989C150.447 32.6852 149.275 33.0287 147.852 33.5161L148.5 35.4082C149.892 34.9316 150.972 34.6191 151.755 34.4577L151.351 32.4989ZM147.857 33.5145C146.103 34.1052 144.651 34.5052 143.492 34.7249L143.864 36.6899C145.147 36.4469 146.694 36.0167 148.495 35.4099L147.857 33.5145ZM143.52 34.72C142.479 34.8867 141.418 34.7903 140.321 34.4131L139.671 36.3042C141.056 36.7809 142.449 36.917 143.836 36.6948L143.52 34.72ZM140.321 34.4131C139.347 34.0779 138.409 33.319 137.537 31.9976L135.868 33.0998C136.905 34.6711 138.163 35.7855 139.671 36.3042L140.321 34.4131ZM137.537 31.9976C136.751 30.8085 136.384 29.6105 136.389 28.387L134.389 28.3784C134.382 30.0393 134.889 31.6187 135.868 33.0998L137.537 31.9976ZM136.389 28.387C136.394 27.1517 136.757 25.95 137.514 24.7667L135.829 23.6893C134.888 25.1611 134.396 26.7293 134.389 28.3784L136.389 28.387ZM137.514 24.7667C138.274 23.5782 139.38 22.4874 140.866 21.5059L139.764 19.837C138.09 20.9423 136.767 22.2225 135.829 23.6893L137.514 24.7667ZM140.866 21.5059C142.97 20.1164 144.958 19.5627 146.857 19.7325L147.035 17.7405C144.587 17.5216 142.155 18.258 139.764 19.837L140.866 21.5059ZM146.874 19.7339C148.75 19.8692 150.313 20.7194 151.603 22.371L153.18 21.1399C151.572 19.081 149.505 17.9185 147.018 17.7391L146.874 19.7339ZM151.84 20.921L147.635 23.6985L148.737 25.3674L152.943 22.5899L151.84 20.921ZM148.974 23.9179C148.161 22.8751 147.02 22.3022 145.653 22.1622L145.45 24.1518C146.345 24.2435 146.961 24.5879 147.397 25.148L148.974 23.9179ZM145.653 22.1622C144.237 22.0172 142.843 22.453 141.501 23.3392L142.604 25.0081C143.665 24.3071 144.604 24.0652 145.45 24.1518L145.653 22.1622ZM141.501 23.3392C140.266 24.1553 139.387 25.1919 138.981 26.468L140.886 27.0751C141.124 26.3275 141.659 25.6321 142.604 25.0081L141.501 23.3392ZM138.981 26.468C138.549 27.8213 138.827 29.1617 139.651 30.4092L141.32 29.307C140.763 28.4628 140.672 27.7456 140.886 27.0751L138.981 26.468ZM139.651 30.4092C140.239 31.2993 141.036 31.9189 142.039 32.1768L142.537 30.2398C142.078 30.1216 141.673 29.841 141.32 29.307L139.651 30.4092ZM142.088 32.188C142.977 32.3699 143.907 32.3509 144.864 32.1536L144.461 30.1948C143.731 30.3452 143.077 30.349 142.489 30.2286L142.088 32.188ZM144.864 32.1536C145.763 31.9684 146.909 31.6415 148.288 31.1835L147.657 29.2854C146.311 29.7327 145.249 30.0323 144.461 30.1948L144.864 32.1536ZM148.282 31.1852C150.072 30.6022 151.546 30.2178 152.715 30.0199L152.382 28.0479C151.079 28.2683 149.503 28.6842 147.663 29.2836L148.282 31.1852ZM152.724 30.0184C153.803 29.8265 154.883 29.9203 155.982 30.3135L156.656 28.4304C155.244 27.9252 153.811 27.7937 152.373 28.0493L152.724 30.0184ZM156.009 30.3226C156.996 30.6448 157.948 31.4029 158.834 32.7443L160.503 31.6422C159.449 30.0464 158.168 28.9235 156.629 28.4213L156.009 30.3226ZM158.834 32.7443C159.506 33.7623 159.865 34.9063 159.905 36.2011L161.904 36.1395C161.854 34.4902 161.388 32.9829 160.503 31.6422L158.834 32.7443ZM159.906 36.2167C159.964 37.4662 159.655 38.7407 158.933 40.0555L160.687 41.0177C161.56 39.4254 161.981 37.789 161.904 36.1239L159.906 36.2167ZM158.936 40.0495C158.24 41.2991 157.145 42.4403 155.604 43.4584L156.706 45.1272C158.458 43.9704 159.8 42.6074 160.683 41.0237L158.936 40.0495Z" fill="#1E4364"/>
</svg>
