<svg width="322" height="137" viewBox="0 0 322 137" fill="none" xmlns="http://www.w3.org/2000/svg">
<path d="M39.8067 15.7296L32.3234 18.9833L36.1513 27.7871L32.7398 29.2704L28.9119 20.4666L21.0985 23.8638L25.4049 33.7681L21.9934 35.2514L15.8688 21.1653L41.3999 10.0644L47.5245 24.1505L44.113 25.6339L39.8067 15.7296Z" fill="#1E4364"/>
<path d="M39.8067 15.7296L40.7237 15.3308L40.325 14.4138L39.4079 14.8125L39.8067 15.7296ZM32.3234 18.9833L31.9247 18.0662L31.0076 18.4649L31.4063 19.382L32.3234 18.9833ZM36.1513 27.7871L36.55 28.7041L37.4671 28.3054L37.0684 27.3883L36.1513 27.7871ZM32.7398 29.2704L31.8227 29.6691L32.2215 30.5862L33.1385 30.1875L32.7398 29.2704ZM28.9119 20.4666L29.829 20.0678L29.4302 19.1508L28.5132 19.5495L28.9119 20.4666ZM21.0985 23.8638L20.6998 22.9468L19.7827 23.3455L20.1815 24.2626L21.0985 23.8638ZM25.4049 33.7681L25.8036 34.6852L26.7207 34.2864L26.322 33.3694L25.4049 33.7681ZM21.9934 35.2514L21.0764 35.6502L21.4751 36.5672L22.3922 36.1685L21.9934 35.2514ZM15.8688 21.1653L15.4701 20.2482L14.553 20.647L14.9517 21.564L15.8688 21.1653ZM41.3999 10.0644L42.317 9.66569L41.9182 8.74863L41.0011 9.14737L41.3999 10.0644ZM47.5245 24.1505L47.9232 25.0676L48.8403 24.6689L48.4416 23.7518L47.5245 24.1505ZM44.113 25.6339L43.196 26.0326L43.5947 26.9497L44.5118 26.5509L44.113 25.6339ZM39.4079 14.8125L31.9247 18.0662L32.7221 19.9003L40.2054 16.6466L39.4079 14.8125ZM31.4063 19.382L35.2342 28.1858L37.0684 27.3883L33.2405 18.5845L31.4063 19.382ZM35.7526 26.87L32.3411 28.3533L33.1385 30.1875L36.55 28.7041L35.7526 26.87ZM33.6569 28.8716L29.829 20.0678L27.9949 20.8653L31.8227 29.6691L33.6569 28.8716ZM28.5132 19.5495L20.6998 22.9468L21.4973 24.7809L29.3107 21.3836L28.5132 19.5495ZM20.1815 24.2626L24.4878 34.1669L26.322 33.3694L22.0156 23.4651L20.1815 24.2626ZM25.0062 32.8511L21.5947 34.3344L22.3922 36.1685L25.8036 34.6852L25.0062 32.8511ZM22.9105 34.8527L16.7859 20.7666L14.9517 21.564L21.0764 35.6502L22.9105 34.8527ZM16.2675 22.0824L41.7986 10.9815L41.0011 9.14737L15.4701 20.2482L16.2675 22.0824ZM40.4828 10.4632L46.6074 24.5493L48.4416 23.7518L42.317 9.66569L40.4828 10.4632ZM47.1258 23.2335L43.7143 24.7168L44.5118 26.5509L47.9232 25.0676L47.1258 23.2335ZM45.0301 25.2351L40.7237 15.3308L38.8896 16.1283L43.196 26.0326L45.0301 25.2351Z" fill="#1E4364"/>
<path d="M32.0665 52.7511C31.0222 51.2039 30.3475 49.6324 30.0425 48.0366C29.7596 46.4259 29.8767 44.9312 30.3939 43.5525C30.9111 42.1739 31.8328 41.037 33.159 40.1418L35.8892 44.1866C34.9543 44.9464 34.3975 45.8852 34.2191 47.003C34.0555 48.143 34.3989 49.3429 35.2493 50.6027C36.1295 51.9068 37.1253 52.7147 38.2365 53.0263C39.3698 53.323 40.4338 53.1357 41.4284 52.4644C42.202 51.9422 42.6752 51.2849 42.8482 50.4925C43.0361 49.7222 43.0314 48.905 42.8341 48.0408C42.6518 47.1987 42.3125 46.0764 41.8163 44.674C41.1996 42.9025 40.7695 41.4072 40.5258 40.1883C40.3191 38.9765 40.423 37.7481 40.8374 36.5032C41.2519 35.2583 42.1774 34.1509 43.6141 33.1812C44.9403 32.286 46.3244 31.8343 47.7666 31.826C49.2088 31.8177 50.598 32.2313 51.9341 33.0668C53.2702 33.9023 54.4679 35.1047 55.5271 36.674C57.034 38.9064 57.7012 41.1103 57.5288 43.2857C57.3934 45.4684 56.4054 47.2935 54.5648 48.7611L51.7451 44.5837C52.5402 43.9504 52.99 43.0677 53.0944 41.9355C53.1989 40.8033 52.8483 39.6404 52.0426 38.4469C51.3116 37.3639 50.4386 36.6662 49.4235 36.354C48.4084 36.0418 47.3815 36.2363 46.3427 36.9375C45.6354 37.415 45.1914 38.0203 45.0107 38.7535C44.867 39.494 44.8864 40.2853 45.0687 41.1274C45.2511 41.9695 45.5754 43.0696 46.0418 44.4278C46.6512 46.2364 47.0668 47.7576 47.2883 48.9915C47.5248 50.2475 47.4248 51.5054 46.9883 52.7652C46.5888 54.0323 45.6596 55.1581 44.2009 56.1428C43.0294 56.9335 41.708 57.359 40.2365 57.4192C38.7799 57.5015 37.3209 57.1512 35.8593 56.3682C34.4348 55.5924 33.1705 54.3867 32.0665 52.7511Z" fill="#1E4364"/>
<path d="M30.0425 48.0366L29.0576 48.2096L29.0589 48.217L29.0603 48.2243L30.0425 48.0366ZM30.3939 43.5525L31.3302 43.9038L30.3939 43.5525ZM33.159 40.1418L33.9878 39.5824L33.4284 38.7535L32.5995 39.313L33.159 40.1418ZM35.8892 44.1866L36.5199 44.9627L37.23 44.3856L36.718 43.6272L35.8892 44.1866ZM34.2191 47.003L33.2316 46.8454L33.2303 46.8532L33.2292 46.861L34.2191 47.003ZM38.2365 53.0263L37.9664 53.9892L37.9748 53.9915L37.9832 53.9937L38.2365 53.0263ZM42.8482 50.4925L41.8767 50.2556L41.8738 50.2674L41.8712 50.2793L42.8482 50.4925ZM42.8341 48.0408L41.8567 48.2524L41.8592 48.2633L42.8341 48.0408ZM41.8163 44.674L40.8719 45.0028L40.8736 45.0076L41.8163 44.674ZM40.5258 40.1883L39.54 40.3564L39.5424 40.3704L39.5452 40.3843L40.5258 40.1883ZM47.7666 31.826L47.7724 32.826L47.7724 32.826L47.7666 31.826ZM51.9341 33.0668L51.4039 33.9147L51.4039 33.9147L51.9341 33.0668ZM57.5288 43.2857L56.5319 43.2067L56.5312 43.2153L56.5307 43.2238L57.5288 43.2857ZM54.5648 48.7611L53.736 49.3206L54.3417 50.218L55.1882 49.543L54.5648 48.7611ZM51.7451 44.5837L51.1221 43.8014L50.3992 44.3772L50.9162 45.1432L51.7451 44.5837ZM49.4235 36.354L49.1295 37.3099L49.1295 37.3099L49.4235 36.354ZM45.0107 38.7535L44.0397 38.5143L44.0338 38.5385L44.029 38.5631L45.0107 38.7535ZM46.0418 44.4278L46.9894 44.1085L46.9876 44.1031L46.0418 44.4278ZM47.2883 48.9915L46.3041 49.1682L46.3056 49.1765L47.2883 48.9915ZM46.9883 52.7652L46.0434 52.4378L46.0388 52.4511L46.0346 52.4645L46.9883 52.7652ZM40.2365 57.4192L40.1956 56.42L40.1878 56.4204L40.18 56.4208L40.2365 57.4192ZM35.8593 56.3682L35.381 57.2464L35.3871 57.2497L35.8593 56.3682ZM32.8954 52.1916C31.9156 50.7401 31.3008 49.2933 31.0247 47.8489L29.0603 48.2243C29.3942 49.9715 30.1288 51.6677 31.2377 53.3106L32.8954 52.1916ZM31.0274 47.8636C30.7719 46.4089 30.8825 45.0972 31.3302 43.9038L29.4576 43.2013C28.8709 44.7652 28.7473 46.4429 29.0576 48.2096L31.0274 47.8636ZM31.3302 43.9038C31.7681 42.7366 32.5488 41.7602 33.7185 40.9707L32.5995 39.313C31.1169 40.3138 30.0542 41.6112 29.4576 43.2013L31.3302 43.9038ZM32.3301 40.7013L35.0603 44.7461L36.718 43.6272L33.9878 39.5824L32.3301 40.7013ZM35.2585 43.4106C34.146 44.3147 33.4515 45.468 33.2316 46.8454L35.2066 47.1607C35.3436 46.3024 35.7625 45.5781 36.5199 44.9627L35.2585 43.4106ZM33.2292 46.861C33.0203 48.3166 33.4766 49.7639 34.4205 51.1622L36.0782 50.0433C35.3213 48.9219 35.0907 47.9694 35.2089 47.1451L33.2292 46.861ZM34.4205 51.1622C35.3851 52.5913 36.5559 53.5936 37.9664 53.9892L38.5065 52.0635C37.6946 51.8357 36.874 51.2223 36.0782 50.0433L34.4205 51.1622ZM37.9832 53.9937C39.4024 54.3653 40.7615 54.121 41.9878 53.2932L40.8689 51.6355C40.106 52.1504 39.3372 52.2808 38.4898 52.0589L37.9832 53.9937ZM41.9878 53.2932C42.94 52.6505 43.5891 51.7874 43.8252 50.7058L41.8712 50.2793C41.7614 50.7824 41.4639 51.2339 40.8689 51.6355L41.9878 53.2932ZM43.8197 50.7295C44.0485 49.7914 44.0367 48.8158 43.809 47.8183L41.8592 48.2633C42.026 48.9942 42.0236 49.6531 41.8767 50.2556L43.8197 50.7295ZM43.8115 47.8292C43.616 46.9266 43.2608 45.7586 42.759 44.3404L40.8736 45.0076C41.3642 46.3942 41.6875 47.4708 41.8568 48.2524L43.8115 47.8292ZM42.7607 44.3453C42.1524 42.5976 41.7378 41.1497 41.5064 39.9922L39.5452 40.3843C39.8012 41.6647 40.2469 43.2073 40.8719 45.0027L42.7607 44.3453ZM41.5116 40.0202C41.3344 38.9812 41.4201 37.919 41.7863 36.8191L39.8886 36.1874C39.4259 37.5773 39.3039 38.9718 39.54 40.3564L41.5116 40.0202ZM41.7863 36.8191C42.1116 35.8418 42.861 34.896 44.1736 34.01L43.0546 32.3523C41.4938 33.4059 40.3922 34.6747 39.8886 36.1874L41.7863 36.8191ZM44.1736 34.01C45.3547 33.2128 46.5489 32.833 47.7724 32.826L47.7609 30.8261C46.1 30.8356 44.5258 31.3593 43.0546 32.3523L44.1736 34.01ZM47.7724 32.826C49.0077 32.8189 50.213 33.17 51.4039 33.9147L52.4643 32.219C50.983 31.2927 49.41 30.8166 47.7609 30.8261L47.7724 32.826ZM51.4039 33.9147C52.5999 34.6626 53.7018 35.7572 54.6983 37.2335L56.356 36.1145C55.2339 34.4522 53.9404 33.142 52.4643 32.219L51.4039 33.9147ZM54.6983 37.2335C56.1089 39.3233 56.6826 41.3059 56.5319 43.2067L58.5257 43.3647C58.7198 40.9147 57.959 38.4894 56.356 36.1145L54.6983 37.2335ZM56.5307 43.2238C56.4143 45.1009 55.5799 46.6727 53.9414 47.9792L55.1882 49.543C57.2309 47.9143 58.3725 45.8358 58.5269 43.3476L56.5307 43.2238ZM55.3937 48.2016L52.5739 44.0242L50.9162 45.1432L53.736 49.3206L55.3937 48.2016ZM52.368 45.3659C53.4026 44.542 53.964 43.3955 54.0902 42.0274L52.0987 41.8437C52.016 42.74 51.6778 43.3589 51.1221 43.8014L52.368 45.3659ZM54.0902 42.0274C54.221 40.6097 53.7711 39.2202 52.8715 37.8874L51.2138 39.0064C51.9254 40.0607 52.1768 40.997 52.0987 41.8437L54.0902 42.0274ZM52.8715 37.8874C52.043 36.66 50.9976 35.7919 49.7175 35.3982L49.1295 37.3099C49.8795 37.5405 50.5802 38.0677 51.2138 39.0064L52.8715 37.8874ZM49.7175 35.3982C48.3599 34.9807 47.0223 35.2723 45.7832 36.1087L46.9021 37.7664C47.7407 37.2004 48.457 37.103 49.1295 37.3099L49.7175 35.3982ZM45.7832 36.1087C44.8991 36.7055 44.2875 37.5087 44.0397 38.5143L45.9816 38.9928C46.0952 38.5319 46.3717 38.1244 46.9021 37.7664L45.7832 36.1087ZM44.029 38.5631C43.8561 39.4541 43.8844 40.3833 44.0914 41.339L46.0461 40.9157C45.8883 40.1872 45.8779 39.5339 45.9924 38.944L44.029 38.5631ZM44.0914 41.339C44.2856 42.2362 44.6241 43.3782 45.096 44.7526L46.9876 44.1031C46.5268 42.761 46.2165 41.7028 46.0461 40.9157L44.0914 41.339ZM45.0941 44.7472C45.6951 46.5305 46.0944 48.0008 46.3041 49.1682L48.2726 48.8147C48.0391 47.5145 47.6074 45.9422 46.9894 44.1085L45.0941 44.7472ZM46.3056 49.1765C46.5085 50.2538 46.4255 51.3352 46.0434 52.4378L47.9332 53.0926C48.4242 51.6756 48.5412 50.2412 48.2711 48.8064L46.3056 49.1765ZM46.0346 52.4645C45.7223 53.455 44.9738 54.4145 43.6414 55.3139L44.7603 56.9716C46.3454 55.9017 47.4553 54.6095 47.942 53.066L46.0346 52.4645ZM43.6414 55.3139C42.6303 55.9964 41.4899 56.3671 40.1956 56.42L40.2774 58.4184C41.926 58.3509 43.4285 57.8706 44.7603 56.9716L43.6414 55.3139ZM40.18 56.4208C38.9312 56.4914 37.6536 56.195 36.3316 55.4867L35.3871 57.2497C36.9881 58.1074 38.6287 58.5117 40.2929 58.4176L40.18 56.4208ZM36.3376 55.49C35.0811 54.8057 33.9289 53.7229 32.8954 52.1916L31.2377 53.3106C32.4122 55.0506 33.7885 56.3791 35.381 57.2464L36.3376 55.49Z" fill="#1E4364"/>
<path d="M77.5025 62.5945L74.8682 65.2211L69.6434 59.9807L52.5909 76.9825L49.3713 73.7533L66.4238 56.7515L61.1707 51.4828L63.8051 48.8563L77.5025 62.5945Z" fill="#1E4364"/>
<path d="M77.5025 62.5945L78.2086 63.3027L78.9167 62.5966L78.2107 61.8885L77.5025 62.5945ZM74.8682 65.2211L74.16 65.9271L74.8661 66.6353L75.5742 65.9292L74.8682 65.2211ZM69.6434 59.9807L70.3515 59.2746L69.6455 58.5665L68.9373 59.2725L69.6434 59.9807ZM52.5909 76.9825L51.8828 77.6885L52.5888 78.3967L53.297 77.6906L52.5909 76.9825ZM49.3713 73.7533L48.6653 73.0451L47.9571 73.7512L48.6632 74.4593L49.3713 73.7533ZM66.4238 56.7515L67.1298 57.4597L67.838 56.7536L67.1319 56.0454L66.4238 56.7515ZM61.1707 51.4828L60.4647 50.7746L59.7565 51.4807L60.4626 52.1889L61.1707 51.4828ZM63.8051 48.8563L64.5132 48.1502L63.8072 47.4421L63.099 48.1481L63.8051 48.8563ZM76.7965 61.8864L74.1621 64.5129L75.5742 65.9292L78.2086 63.3027L76.7965 61.8864ZM75.5763 64.515L70.3515 59.2746L68.9352 60.6868L74.16 65.9271L75.5763 64.515ZM68.9373 59.2725L51.8849 76.2743L53.297 77.6906L70.3494 60.6889L68.9373 59.2725ZM53.2991 76.2764L50.0795 73.0472L48.6632 74.4593L51.8828 77.6885L53.2991 76.2764ZM50.0774 74.4614L67.1298 57.4597L65.7177 56.0433L48.6653 73.0451L50.0774 74.4614ZM67.1319 56.0454L61.8789 50.7768L60.4626 52.1889L65.7156 57.4576L67.1319 56.0454ZM61.8768 52.191L64.5111 49.5644L63.099 48.1481L60.4647 50.7746L61.8768 52.191ZM63.0969 49.5623L76.7944 63.3006L78.2107 61.8885L64.5132 48.1502L63.0969 49.5623Z" fill="#1E4364"/>
<path d="M83.4637 71.6322L78.7902 78.3213L86.6597 83.8195L84.5291 86.869L76.6596 81.3707L71.7799 88.3549L80.6331 94.5404L78.5025 97.5899L65.9113 88.7927L81.8562 65.9711L94.4474 74.7683L92.3169 77.8177L83.4637 71.6322Z" fill="#1E4364"/>
<path d="M83.4637 71.6322L84.0364 70.8124L83.2167 70.2397L82.6439 71.0595L83.4637 71.6322ZM78.7902 78.3213L77.9704 77.7486L77.3977 78.5683L78.2174 79.141L78.7902 78.3213ZM86.6597 83.8195L87.4794 84.3923L88.0522 83.5725L87.2324 82.9998L86.6597 83.8195ZM84.5291 86.869L83.9564 87.6887L84.7761 88.2614L85.3489 87.4417L84.5291 86.869ZM76.6596 81.3707L77.2323 80.551L76.4126 79.9782L75.8398 80.798L76.6596 81.3707ZM71.7799 88.3549L70.9602 87.7822L70.3874 88.6019L71.2072 89.1747L71.7799 88.3549ZM80.6331 94.5404L81.4529 95.1132L82.0256 94.2934L81.2058 93.7207L80.6331 94.5404ZM78.5025 97.5899L77.9298 98.4096L78.7496 98.9824L79.3223 98.1626L78.5025 97.5899ZM65.9113 88.7927L65.0916 88.22L64.5188 89.0397L65.3386 89.6124L65.9113 88.7927ZM81.8562 65.9711L82.4289 65.1513L81.6092 64.5786L81.0365 65.3984L81.8562 65.9711ZM94.4474 74.7683L95.2672 75.341L95.8399 74.5213L95.0202 73.9485L94.4474 74.7683ZM92.3169 77.8177L91.7441 78.6374L92.5639 79.2102L93.1366 78.3904L92.3169 77.8177ZM82.6439 71.0595L77.9704 77.7486L79.6099 78.894L84.2834 72.2049L82.6439 71.0595ZM78.2174 79.141L86.0869 84.6393L87.2324 82.9998L79.3629 77.5015L78.2174 79.141ZM85.8399 83.2468L83.7094 86.2962L85.3489 87.4417L87.4794 84.3923L85.8399 83.2468ZM85.1018 86.0492L77.2323 80.551L76.0869 82.1905L83.9564 87.6887L85.1018 86.0492ZM75.8398 80.798L70.9602 87.7822L72.5996 88.9277L77.4793 81.9435L75.8398 80.798ZM71.2072 89.1747L80.0604 95.3602L81.2058 93.7207L72.3526 87.5352L71.2072 89.1747ZM79.8134 93.9677L77.6828 97.0172L79.3223 98.1626L81.4529 95.1132L79.8134 93.9677ZM79.0753 96.7701L66.484 87.973L65.3386 89.6124L77.9298 98.4096L79.0753 96.7701ZM66.7311 89.3654L82.6759 66.5438L81.0365 65.3984L65.0916 88.22L66.7311 89.3654ZM81.2835 66.7908L93.8747 75.588L95.0202 73.9485L82.4289 65.1513L81.2835 66.7908ZM93.6277 74.1955L91.4971 77.245L93.1366 78.3904L95.2672 75.341L93.6277 74.1955ZM92.8896 76.998L84.0364 70.8124L82.8909 72.4519L91.7441 78.6374L92.8896 76.998Z" fill="#1E4364"/>
<path d="M101.179 109.146L99.9074 96.3793L96.7341 94.9509L92.1698 105.091L88.0116 103.219L99.4222 77.8691L108.176 81.8094C110.122 82.6851 111.61 83.7643 112.641 85.0472C113.696 86.341 114.295 87.7071 114.437 89.1455C114.603 90.5949 114.369 92.0248 113.734 93.4351C112.99 95.0887 111.825 96.3774 110.239 97.3013C108.689 98.2119 106.807 98.4616 104.595 98.0504L106.14 111.379L101.179 109.146ZM98.2281 91.6317L102.824 93.7004C104.38 94.4009 105.723 94.5372 106.851 94.1093C108.004 93.6924 108.876 92.8273 109.467 91.5142C110.058 90.2011 110.128 89.0047 109.679 87.9249C109.24 86.8208 108.23 85.9131 106.649 85.2016L102.054 83.1329L98.2281 91.6317Z" fill="#1E4364"/>
<path d="M101.179 109.146L100.184 109.245L100.241 109.821L100.769 110.058L101.179 109.146ZM99.9074 96.3793L100.902 96.2802L100.845 95.7048L100.318 95.4674L99.9074 96.3793ZM96.7341 94.9509L97.1445 94.039L96.2326 93.6286L95.8222 94.5405L96.7341 94.9509ZM92.1698 105.091L91.7594 106.003L92.6713 106.413L93.0817 105.502L92.1698 105.091ZM88.0116 103.219L87.0998 102.809L86.6893 103.721L87.6012 104.131L88.0116 103.219ZM99.4222 77.8691L99.8327 76.9572L98.9208 76.5467L98.5104 77.4586L99.4222 77.8691ZM112.641 85.0472L111.861 85.6736L111.866 85.6792L112.641 85.0472ZM114.437 89.1455L113.442 89.2439L113.442 89.2517L113.443 89.2596L114.437 89.1455ZM110.239 97.3013L109.736 96.4373L109.733 96.4391L110.239 97.3013ZM104.595 98.0504L104.777 97.0672L103.445 96.8197L103.601 98.1656L104.595 98.0504ZM106.14 111.379L105.729 112.291L107.336 113.014L107.133 111.264L106.14 111.379ZM98.2281 91.6317L97.3162 91.2212L96.9058 92.1331L97.8177 92.5436L98.2281 91.6317ZM106.851 94.1093L106.511 93.1689L106.504 93.1715L106.496 93.1743L106.851 94.1093ZM109.679 87.9249L108.749 88.2943L108.752 88.3019L108.755 88.3094L109.679 87.9249ZM102.054 83.1329L102.464 82.2211L101.552 81.8106L101.142 82.7225L102.054 83.1329ZM102.174 109.047L100.902 96.2802L98.9123 96.4784L100.184 109.245L102.174 109.047ZM100.318 95.4674L97.1445 94.039L96.3236 95.8628L99.497 97.2912L100.318 95.4674ZM95.8222 94.5405L91.2579 104.681L93.0817 105.502L97.646 95.3614L95.8222 94.5405ZM92.5803 104.179L88.4221 102.308L87.6012 104.131L91.7594 106.003L92.5803 104.179ZM88.9235 103.63L100.334 78.2795L98.5104 77.4586L87.0998 102.809L88.9235 103.63ZM99.0118 78.781L107.766 82.7213L108.587 80.8975L99.8327 76.9572L99.0118 78.781ZM107.766 82.7213C109.609 83.5507 110.954 84.5446 111.861 85.6736L113.42 84.4208C112.266 82.984 110.635 81.8194 108.587 80.8975L107.766 82.7213ZM111.866 85.6792C112.817 86.8449 113.322 88.0301 113.442 89.2439L115.432 89.0472C115.268 87.3841 114.575 85.8371 113.416 84.4151L111.866 85.6792ZM113.443 89.2596C113.588 90.5191 113.388 91.7683 112.822 93.0247L114.646 93.8456C115.35 92.2812 115.619 90.6707 115.43 89.0314L113.443 89.2596ZM112.822 93.0247C112.165 94.4857 111.144 95.617 109.736 96.4373L110.743 98.1654C112.506 97.1379 113.815 95.6916 114.646 93.8456L112.822 93.0247ZM109.733 96.4391C108.439 97.1993 106.815 97.4459 104.777 97.0672L104.412 99.0336C106.8 99.4773 108.939 99.2245 110.746 98.1636L109.733 96.4391ZM103.601 98.1656L105.147 111.494L107.133 111.264L105.588 97.9352L103.601 98.1656ZM106.55 110.467L101.59 108.234L100.769 110.058L105.729 112.291L106.55 110.467ZM97.8177 92.5436L102.414 94.6122L103.234 92.7885L98.6386 90.7198L97.8177 92.5436ZM102.414 94.6122C104.11 95.376 105.742 95.5994 107.206 95.0443L106.496 93.1743C105.704 93.4749 104.65 93.4257 103.234 92.7885L102.414 94.6122ZM107.191 95.0497C108.643 94.5246 109.697 93.4378 110.379 91.9247L108.555 91.1038C108.054 92.2168 107.365 92.8601 106.511 93.1689L107.191 95.0497ZM110.379 91.9247C111.055 90.422 111.181 88.9323 110.602 87.5404L108.755 88.3094C109.075 89.077 109.06 89.9802 108.555 91.1038L110.379 91.9247ZM110.608 87.5556C110.037 86.1188 108.769 85.0592 107.06 84.2897L106.239 86.1135C107.691 86.767 108.443 87.5229 108.749 88.2943L110.608 87.5556ZM107.06 84.2897L102.464 82.2211L101.643 84.0448L106.239 86.1135L107.06 84.2897ZM101.142 82.7225L97.3162 91.2212L99.14 92.0421L102.965 83.5434L101.142 82.7225Z" fill="#1E4364"/>
<path d="M128.878 89.134L121.493 115.935L117.097 114.724L124.482 87.9227L128.878 89.134Z" fill="#1E4364"/>
<path d="M128.878 89.134L129.842 89.3996L130.108 88.4355L129.143 88.1699L128.878 89.134ZM121.493 115.935L121.228 116.899L122.192 117.165L122.458 116.201L121.493 115.935ZM117.097 114.724L116.133 114.458L115.868 115.422L116.832 115.688L117.097 114.724ZM124.482 87.9227L124.747 86.9586L123.783 86.693L123.518 87.6571L124.482 87.9227ZM127.914 88.8683L120.529 115.67L122.458 116.201L129.842 89.3996L127.914 88.8683ZM121.759 114.971L117.363 113.76L116.832 115.688L121.228 116.899L121.759 114.971ZM118.061 114.99L125.446 88.1883L123.518 87.6571L116.133 114.458L118.061 114.99ZM124.216 88.8868L128.612 90.098L129.143 88.1699L124.747 86.9586L124.216 88.8868Z" fill="#1E4364"/>
<path d="M137.929 115.559L147.235 116.88L146.718 120.524L132.897 118.562L136.803 91.038L141.318 91.6787L137.929 115.559Z" fill="#1E4364"/>
<path d="M137.929 115.559L136.939 115.419L136.798 116.409L137.788 116.549L137.929 115.559ZM147.235 116.88L148.226 117.021L148.366 116.031L147.376 115.89L147.235 116.88ZM146.718 120.524L146.578 121.514L147.568 121.654L147.708 120.664L146.718 120.524ZM132.897 118.562L131.907 118.422L131.766 119.412L132.756 119.552L132.897 118.562ZM136.803 91.038L136.944 90.0479L135.954 89.9074L135.813 90.8974L136.803 91.038ZM141.318 91.6787L142.308 91.8192L142.449 90.8292L141.459 90.6886L141.318 91.6787ZM137.788 116.549L147.095 117.87L147.376 115.89L138.069 114.569L137.788 116.549ZM146.245 116.74L145.728 120.383L147.708 120.664L148.226 117.021L146.245 116.74ZM146.859 119.534L133.037 117.572L132.756 119.552L146.578 121.514L146.859 119.534ZM133.887 118.703L137.793 91.1785L135.813 90.8974L131.907 118.422L133.887 118.703ZM136.663 92.028L141.177 92.6688L141.459 90.6886L136.944 90.0479L136.663 92.028ZM140.328 91.5382L136.939 115.419L138.919 115.7L142.308 91.8192L140.328 91.5382Z" fill="#1E4364"/>
<path d="M160.945 93.1542L160.58 120.952L156.02 120.892L156.385 93.0944L160.945 93.1542Z" fill="#1E4364"/>
<path d="M160.945 93.1542L161.944 93.1673L161.958 92.1674L160.958 92.1543L160.945 93.1542ZM160.58 120.952L160.567 121.952L161.567 121.965L161.58 120.965L160.58 120.952ZM156.02 120.892L155.02 120.879L155.007 121.879L156.007 121.892L156.02 120.892ZM156.385 93.0944L156.398 92.0945L155.398 92.0814L155.385 93.0813L156.385 93.0944ZM159.945 93.1411L159.58 120.939L161.58 120.965L161.944 93.1673L159.945 93.1411ZM160.593 119.952L156.033 119.892L156.007 121.892L160.567 121.952L160.593 119.952ZM157.02 120.905L157.385 93.1075L155.385 93.0813L155.02 120.879L157.02 120.905ZM156.372 94.0943L160.931 94.1541L160.958 92.1543L156.398 92.0945L156.372 94.0943Z" fill="#1E4364"/>
<path d="M176.168 116.222L188.977 114.532L189.495 118.458L171.332 120.854L170.867 117.324L180.984 95.5342L168.215 97.2185L167.697 93.2925L185.86 90.8968L186.325 94.4262L176.168 116.222Z" fill="#1E4364"/>
<path d="M176.168 116.222L175.262 115.799L174.492 117.451L176.299 117.213L176.168 116.222ZM188.977 114.532L189.969 114.401L189.838 113.41L188.847 113.541L188.977 114.532ZM189.495 118.458L189.626 119.449L190.617 119.319L190.487 118.327L189.495 118.458ZM171.332 120.854L170.341 120.985L170.472 121.976L171.463 121.845L171.332 120.854ZM170.867 117.324L169.96 116.903L169.838 117.167L169.876 117.455L170.867 117.324ZM180.984 95.5342L181.891 95.9553L182.658 94.3048L180.854 94.5427L180.984 95.5342ZM168.215 97.2185L167.223 97.3493L167.354 98.3407L168.346 98.2099L168.215 97.2185ZM167.697 93.2925L167.566 92.3011L166.575 92.4319L166.706 93.4233L167.697 93.2925ZM185.86 90.8968L186.851 90.766L186.72 89.7746L185.729 89.9053L185.86 90.8968ZM186.325 94.4262L187.232 94.8486L187.355 94.5844L187.317 94.2954L186.325 94.4262ZM176.299 117.213L189.108 115.523L188.847 113.541L176.037 115.23L176.299 117.213ZM187.986 114.663L188.504 118.589L190.487 118.327L189.969 114.401L187.986 114.663ZM189.364 117.467L171.202 119.862L171.463 121.845L189.626 119.449L189.364 117.467ZM172.324 120.723L171.858 117.194L169.876 117.455L170.341 120.985L172.324 120.723ZM171.774 117.745L181.891 95.9553L180.077 95.113L169.96 116.903L171.774 117.745ZM180.854 94.5427L168.084 96.2271L168.346 98.2099L181.115 96.5256L180.854 94.5427ZM169.206 97.0877L168.688 93.1617L166.706 93.4233L167.223 97.3493L169.206 97.0877ZM167.828 94.2839L185.99 91.8882L185.729 89.9053L167.566 92.3011L167.828 94.2839ZM184.868 91.0275L185.334 94.557L187.317 94.2954L186.851 90.766L184.868 91.0275ZM185.419 94.0038L175.262 115.799L177.075 116.644L187.232 94.8486L185.419 94.0038Z" fill="#1E4364"/>
<path d="M214.38 105.3L203.372 109.084L203.328 115.106L198.826 116.654L199.193 87.0879L204.187 85.3712L222.657 108.46L218.118 110.021L214.38 105.3ZM211.96 102.198L203.485 91.4497L203.373 105.15L211.96 102.198Z" fill="#1E4364"/>
<path d="M214.38 105.3L215.164 104.679L214.724 104.124L214.055 104.354L214.38 105.3ZM203.372 109.084L203.047 108.139L202.377 108.369L202.372 109.077L203.372 109.084ZM203.328 115.106L203.653 116.052L204.322 115.821L204.327 115.113L203.328 115.106ZM198.826 116.654L197.826 116.641L197.809 118.061L199.151 117.599L198.826 116.654ZM199.193 87.0879L198.868 86.1422L198.202 86.3712L198.194 87.0755L199.193 87.0879ZM204.187 85.3712L204.967 84.7465L204.527 84.1966L203.861 84.4255L204.187 85.3712ZM222.657 108.46L222.982 109.406L224.325 108.944L223.438 107.836L222.657 108.46ZM218.118 110.021L217.334 110.642L217.773 111.197L218.443 110.967L218.118 110.021ZM211.96 102.198L212.285 103.144L213.618 102.686L212.745 101.579L211.96 102.198ZM203.485 91.4497L204.27 90.8305L202.508 88.5958L202.485 91.4415L203.485 91.4497ZM203.373 105.15L202.373 105.142L202.362 106.556L203.698 106.096L203.373 105.15ZM214.055 104.354L203.047 108.139L203.697 110.03L214.705 106.246L214.055 104.354ZM202.372 109.077L202.328 115.099L204.327 115.113L204.372 109.092L202.372 109.077ZM203.002 114.16L198.501 115.708L199.151 117.599L203.653 116.052L203.002 114.16ZM199.826 116.666L200.193 87.1003L198.194 87.0755L197.826 116.641L199.826 116.666ZM199.519 88.0336L204.512 86.3169L203.861 84.4255L198.868 86.1422L199.519 88.0336ZM203.406 85.9959L221.876 109.085L223.438 107.836L204.967 84.7465L203.406 85.9959ZM222.332 107.515L217.793 109.075L218.443 110.967L222.982 109.406L222.332 107.515ZM218.902 109.4L215.164 104.679L213.596 105.921L217.334 110.642L218.902 109.4ZM212.745 101.579L204.27 90.8305L202.699 92.0688L211.175 102.817L212.745 101.579ZM202.485 91.4415L202.373 105.142L204.373 105.158L204.485 91.4578L202.485 91.4415ZM203.698 106.096L212.285 103.144L211.635 101.252L203.048 104.205L203.698 106.096Z" fill="#1E4364"/>
<path d="M222.988 93.1226C221.549 90.8142 220.79 88.4121 220.711 85.916C220.655 83.4059 221.226 81.0703 222.424 78.9094C223.631 76.7117 225.332 74.9288 227.527 73.5605C230.039 71.9948 232.656 71.2277 235.378 71.2593C238.109 71.2542 240.621 72.1081 242.914 73.821L238.263 76.7197C236.877 75.8559 235.45 75.457 233.982 75.5231C232.515 75.5891 231.069 76.0665 229.643 76.9551C228.082 77.9284 226.909 79.1467 226.124 80.6099C225.339 82.0732 225.005 83.6797 225.121 85.4296C225.261 87.1653 225.873 88.9045 226.959 90.647C228.046 92.3896 229.337 93.7055 230.834 94.5949C232.354 95.4702 233.95 95.8891 235.624 95.8516C237.283 95.7914 238.894 95.2747 240.455 94.3014C241.881 93.4128 242.946 92.3244 243.652 91.0363C244.357 89.7482 244.628 88.2914 244.463 86.6659L249.113 83.7671C249.641 86.5803 249.302 89.2115 248.095 91.6608C246.91 94.0959 245.062 96.0963 242.55 97.6621C240.332 99.0444 237.989 99.7977 235.521 99.9219C233.039 100.023 230.684 99.4962 228.455 98.3402C226.249 97.1701 224.427 95.4309 222.988 93.1226Z" fill="#1E4364"/>
<path d="M220.711 85.916L219.711 85.9384L219.712 85.9476L220.711 85.916ZM222.424 78.9094L223.299 79.3944L223.301 79.3907L222.424 78.9094ZM235.378 71.2593L235.367 72.2593L235.38 72.2593L235.378 71.2593ZM242.914 73.821L243.443 74.6697L244.685 73.8956L243.512 73.0199L242.914 73.821ZM238.263 76.7197L237.735 77.5685L238.264 77.898L238.792 77.5684L238.263 76.7197ZM233.982 75.5231L233.937 74.5241L233.982 75.5231ZM226.124 80.6099L227.005 81.0826L227.005 81.0826L226.124 80.6099ZM225.121 85.4296L224.124 85.4961L224.125 85.5095L225.121 85.4296ZM230.834 94.5949L230.323 95.4547L230.335 95.4615L230.834 94.5949ZM235.624 95.8516L235.646 96.8514L235.66 96.8509L235.624 95.8516ZM243.652 91.0363L244.529 91.5166L243.652 91.0363ZM244.463 86.6658L243.934 85.8172L243.405 86.1468L243.468 86.7667L244.463 86.6658ZM249.113 83.7671L250.096 83.5827L249.826 82.1444L248.584 82.9185L249.113 83.7671ZM248.095 91.6608L247.198 91.2187L247.195 91.2233L248.095 91.6608ZM235.521 99.9219L235.562 100.921L235.572 100.921L235.521 99.9219ZM228.455 98.3402L227.987 99.2237L227.995 99.2279L228.455 98.3402ZM223.836 92.5936C222.482 90.4211 221.784 88.1888 221.711 85.8844L219.712 85.9476C219.797 88.6354 220.616 91.2074 222.139 93.6515L223.836 92.5936ZM221.711 85.8936C221.659 83.5577 222.188 81.3977 223.299 79.3944L221.55 78.4244C220.264 80.743 219.651 83.2541 219.712 85.9384L221.711 85.8936ZM223.301 79.3907C224.423 77.3482 226.002 75.6898 228.056 74.4092L226.998 72.7119C224.663 74.1678 222.84 76.0753 221.548 78.4281L223.301 79.3907ZM228.056 74.4092C230.421 72.9353 232.852 72.2301 235.367 72.2593L235.39 70.2594C232.46 70.2254 229.658 71.0543 226.998 72.7119L228.056 74.4092ZM235.38 72.2593C237.884 72.2546 240.187 73.032 242.315 74.6222L243.512 73.0199C241.055 71.1841 238.334 70.2538 235.376 70.2593L235.38 72.2593ZM242.385 72.9724L237.734 75.8711L238.792 77.5684L243.443 74.6697L242.385 72.9724ZM238.792 75.8709C237.254 74.9127 235.629 74.4479 233.937 74.5241L234.027 76.522C235.27 76.4661 236.499 76.7991 237.735 77.5685L238.792 75.8709ZM233.937 74.5241C232.275 74.5989 230.664 75.1402 229.114 76.1065L230.172 77.8038C231.473 76.9927 232.755 76.5793 234.027 76.522L233.937 74.5241ZM229.114 76.1065C227.421 77.1619 226.119 78.5039 225.242 80.1373L227.005 81.0826C227.699 79.7895 228.742 78.6949 230.172 77.8038L229.114 76.1065ZM225.242 80.1373C224.364 81.7752 223.995 83.5701 224.124 85.496L226.119 85.3631C226.014 83.7893 226.314 82.3711 227.005 81.0826L225.242 80.1373ZM224.125 85.5095C224.279 87.4309 224.955 89.322 226.111 91.176L227.808 90.118C226.791 88.4869 226.243 86.8998 226.118 85.3496L224.125 85.5095ZM226.111 91.176C227.266 93.03 228.666 94.4702 230.323 95.4547L231.345 93.7352C230.008 92.9409 228.825 91.7492 227.808 90.118L226.111 91.176ZM230.335 95.4615C232.005 96.4235 233.781 96.8932 235.646 96.8513L235.601 94.8518C234.12 94.8851 232.703 94.517 231.333 93.7284L230.335 95.4615ZM235.66 96.8509C237.512 96.7838 239.291 96.2055 240.984 95.1501L239.926 93.4528C238.497 94.3439 237.054 94.7991 235.588 94.8523L235.66 96.8509ZM240.984 95.1501C242.534 94.1838 243.73 92.9759 244.529 91.5166L242.775 90.556C242.163 91.6729 241.227 92.6417 239.926 93.4528L240.984 95.1501ZM244.529 91.5166C245.342 90.0315 245.64 88.3681 245.458 86.565L243.468 86.7667C243.615 88.2146 243.372 89.4649 242.775 90.556L244.529 91.5166ZM244.992 87.5145L249.642 84.6158L248.584 82.9185L243.934 85.8172L244.992 87.5145ZM248.131 83.9516C248.621 86.5631 248.304 88.9733 247.198 91.2187L248.992 92.1029C250.299 89.4498 250.662 86.5975 250.096 83.5827L248.131 83.9516ZM247.195 91.2233C246.101 93.4737 244.389 95.3376 242.021 96.8134L243.079 98.5107C245.735 96.8551 247.719 94.7181 248.994 92.0982L247.195 91.2233ZM242.021 96.8134C239.939 98.1112 237.759 98.808 235.471 98.9231L235.572 100.921C238.219 100.787 240.725 99.9776 243.079 98.5107L242.021 96.8134ZM235.481 98.9227C233.175 99.0171 230.992 98.5292 228.916 97.4525L227.995 99.2279C230.376 100.463 232.904 101.03 235.562 100.921L235.481 98.9227ZM228.924 97.4568C226.887 96.3765 225.191 94.7661 223.836 92.5936L222.139 93.6515C223.663 96.0957 225.611 97.9637 227.987 99.2236L228.924 97.4568Z" fill="#1E4364"/>
<path d="M246.375 59.661L264.87 80.4163L261.465 83.45L242.97 62.6947L246.375 59.661Z" fill="#1E4364"/>
<path d="M246.375 59.661L247.122 58.9957L246.456 58.2491L245.71 58.9144L246.375 59.661ZM264.87 80.4163L265.535 81.1629L266.282 80.4976L265.616 79.751L264.87 80.4163ZM261.465 83.45L260.719 84.1153L261.384 84.8619L262.131 84.1966L261.465 83.45ZM242.97 62.6947L242.305 61.9481L241.559 62.6134L242.224 63.36L242.97 62.6947ZM245.628 60.3263L264.123 81.0816L265.616 79.751L247.122 58.9957L245.628 60.3263ZM264.204 79.6697L260.8 82.7034L262.131 84.1966L265.535 81.1629L264.204 79.6697ZM262.212 82.7847L243.717 62.0294L242.224 63.36L260.719 84.1153L262.212 82.7847ZM243.636 63.4413L247.04 60.4076L245.71 58.9144L242.305 61.9481L243.636 63.4413Z" fill="#1E4364"/>
<path d="M281.749 62.7032C280.144 64.732 278.193 66.2318 275.895 67.2025C273.593 68.1357 271.198 68.4344 268.71 68.0984C266.217 67.725 263.904 66.6947 261.771 65.0074C259.637 63.3201 258.112 61.315 257.196 58.9921C256.295 56.6482 256.045 54.257 256.443 51.8184C256.838 49.3424 257.837 47.0899 259.442 45.0611C261.063 43.0114 263.024 41.5199 265.326 40.5866C267.624 39.6159 270.009 39.309 272.48 39.6658C274.952 40.0227 277.255 41.0447 279.388 42.732C281.521 44.4193 283.057 46.4327 283.995 48.7722C284.911 51.0951 285.173 53.4946 284.778 55.9707C284.38 58.4092 283.37 60.6534 281.749 62.7032ZM278.642 60.2467C279.784 58.8035 280.477 57.2607 280.722 55.6185C280.946 53.9597 280.699 52.3368 279.983 50.7499C279.261 49.1255 278.095 47.6765 276.485 46.4028C274.874 45.129 273.206 44.3366 271.48 44.0256C269.771 43.6936 268.145 43.836 266.604 44.4526C265.062 45.0693 263.721 46.0992 262.579 47.5424C261.438 48.9856 260.745 50.5283 260.5 52.1706C260.255 53.8128 260.483 55.4379 261.183 57.0457C261.9 58.6326 263.063 60.063 264.674 61.3367C266.284 62.6104 267.955 63.4215 269.685 63.77C271.411 64.0811 273.055 63.9366 274.618 63.3364C276.16 62.7198 277.501 61.6899 278.642 60.2467ZM257.605 38.3558L255.541 47.994L252.906 45.9097L254.562 35.9489L257.605 38.3558Z" fill="#1E4364"/>
<path d="M275.895 67.2025L276.271 68.1292L276.278 68.1265L276.284 68.1236L275.895 67.2025ZM268.71 68.0984L268.562 69.0874L268.569 69.0885L268.576 69.0895L268.71 68.0984ZM257.196 58.9921L256.262 59.3506L256.265 59.3592L257.196 58.9921ZM256.443 51.8184L257.43 51.9798L257.431 51.9757L256.443 51.8184ZM265.326 40.5866L265.702 41.5133L265.709 41.5106L265.716 41.5078L265.326 40.5866ZM272.48 39.6658L272.338 40.6556L272.48 39.6658ZM283.995 48.7722L284.925 48.4051L284.923 48.4002L283.995 48.7722ZM284.778 55.9707L285.765 56.132L285.766 56.1279L284.778 55.9707ZM280.722 55.6185L281.711 55.766L281.713 55.7523L280.722 55.6185ZM279.983 50.7499L279.069 51.1557L279.071 51.1616L279.983 50.7499ZM271.48 44.0256L271.29 45.0073L271.303 45.0097L271.48 44.0256ZM266.604 44.4526L266.975 45.3811L266.604 44.4526ZM260.5 52.1706L261.489 52.3181L261.489 52.3181L260.5 52.1706ZM261.183 57.0457L260.266 57.4451L260.272 57.4574L261.183 57.0457ZM269.685 63.77L269.488 64.7504L269.498 64.7524L269.508 64.7542L269.685 63.77ZM274.618 63.3364L274.976 64.27L274.989 64.2649L274.618 63.3364ZM257.605 38.3558L258.583 38.5652L258.713 37.9572L258.225 37.5714L257.605 38.3558ZM255.541 47.994L254.921 48.7784L256.182 49.776L256.519 48.2034L255.541 47.994ZM252.906 45.9097L251.919 45.7457L251.823 46.3279L252.285 46.6941L252.906 45.9097ZM254.562 35.9489L255.182 35.1646L253.853 34.1136L253.575 35.7849L254.562 35.9489ZM280.964 62.0828C279.46 63.9848 277.643 65.3785 275.506 66.2813L276.284 68.1236C278.743 67.085 280.828 65.4792 282.533 63.3235L280.964 62.0828ZM275.519 66.2757C273.381 67.1428 271.161 67.4203 268.844 67.1074L268.576 69.0895C271.235 69.4484 273.806 69.1286 276.271 68.1292L275.519 66.2757ZM268.858 67.1095C266.552 66.764 264.399 65.811 262.391 64.2231L261.15 65.7918C263.41 67.5784 265.883 68.6861 268.562 69.0874L268.858 67.1095ZM262.391 64.2231C260.383 62.6351 258.972 60.7695 258.126 58.625L256.265 59.3592C257.253 61.8605 258.892 64.0052 261.15 65.7918L262.391 64.2231ZM258.129 58.6336C257.291 56.4524 257.061 54.2404 257.43 51.9798L255.457 51.6571C255.029 54.2735 255.299 56.844 256.262 59.3506L258.129 58.6336ZM257.431 51.9757C257.797 49.6744 258.724 47.5803 260.226 45.6814L258.657 44.4408C256.95 46.5996 255.878 49.0104 255.456 51.6611L257.431 51.9757ZM260.226 45.6814C261.746 43.7601 263.569 42.3781 265.702 41.5133L264.951 39.6599C262.48 40.6616 260.38 42.2626 258.657 44.4408L260.226 45.6814ZM265.716 41.5078C267.845 40.608 270.046 40.3247 272.338 40.6556L272.623 38.6761C269.972 38.2932 267.403 38.6237 264.937 39.6654L265.716 41.5078ZM272.338 40.6556C274.619 40.985 276.76 41.9284 278.768 43.5164L280.008 41.9477C277.749 40.1611 275.285 39.0603 272.623 38.6761L272.338 40.6556ZM278.768 43.5164C280.775 45.1043 282.199 46.9794 283.066 49.1442L284.923 48.4002C283.915 45.886 282.267 43.7343 280.008 41.9477L278.768 43.5164ZM283.064 49.1393C283.915 51.295 284.157 53.5134 283.791 55.8134L285.766 56.1279C286.188 53.4759 285.907 50.8952 284.925 48.4051L283.064 49.1393ZM283.791 55.8093C283.422 58.0704 282.486 60.1584 280.964 62.0828L282.533 63.3235C284.253 61.1484 285.337 58.748 285.765 56.132L283.791 55.8093ZM279.427 60.867C280.665 59.302 281.438 57.5992 281.711 55.766L279.733 55.471C279.516 56.9223 278.903 58.305 277.858 59.6263L279.427 60.867ZM281.713 55.7523C281.963 53.9001 281.685 52.0887 280.894 50.3382L279.071 51.1616C279.714 52.585 279.929 54.0193 279.731 55.4847L281.713 55.7523ZM280.897 50.3441C280.1 48.5501 278.823 46.977 277.105 45.6184L275.865 47.1871C277.368 48.376 278.423 49.701 279.069 51.1557L280.897 50.3441ZM277.105 45.6184C275.388 44.2601 273.571 43.3863 271.658 43.0414L271.303 45.0097C272.841 45.287 274.361 45.9979 275.865 47.1871L277.105 45.6184ZM271.671 43.0439C269.783 42.6772 267.961 42.8326 266.232 43.5242L266.975 45.3811C268.329 44.8394 269.759 44.71 271.29 45.0073L271.671 43.0439ZM266.232 43.5242C264.511 44.2125 263.033 45.357 261.795 46.9221L263.363 48.1627C264.408 46.8414 265.613 45.9261 266.975 45.3811L266.232 43.5242ZM261.795 46.9221C260.557 48.4871 259.784 50.1899 259.511 52.0231L261.489 52.3181C261.705 50.8668 262.318 49.4841 263.363 48.1627L261.795 46.9221ZM259.511 52.0231C259.237 53.8614 259.495 55.6754 260.266 57.4451L262.1 56.6464C261.47 55.2003 261.273 53.7643 261.489 52.3181L259.511 52.0231ZM260.272 57.4574C261.065 59.214 262.34 60.7659 264.054 62.121L265.294 60.5523C263.787 59.3601 262.734 58.0513 262.094 56.634L260.272 57.4574ZM264.054 62.121C265.768 63.4765 267.58 64.366 269.488 64.7504L269.883 62.7897C268.33 62.477 266.801 61.7443 265.294 60.5523L264.054 62.121ZM269.508 64.7542C271.405 65.096 273.235 64.9388 274.976 64.27L274.259 62.4029C272.876 62.9343 271.418 63.0661 269.863 62.7859L269.508 64.7542ZM274.989 64.2649C276.71 63.5766 278.189 62.432 279.427 60.867L277.858 59.6263C276.813 60.9477 275.609 61.863 274.247 62.408L274.989 64.2649ZM256.627 38.1464L254.563 47.7846L256.519 48.2034L258.583 38.5652L256.627 38.1464ZM256.162 47.2097L253.526 45.1254L252.285 46.6941L254.921 48.7784L256.162 47.2097ZM253.892 46.0737L255.548 36.1129L253.575 35.7849L251.919 45.7457L253.892 46.0737ZM253.942 36.7333L256.985 39.1401L258.225 37.5714L255.182 35.1646L253.942 36.7333Z" fill="#1E4364"/>
<path d="M305.361 21.4604L303.433 25.593L278.82 29.2531L297.635 38.0274L295.707 42.1601L270.476 30.3934L272.403 26.2607L296.981 22.5838L278.202 13.8264L280.13 9.69371L305.361 21.4604Z" fill="#1E4364"/>
<path d="M305.361 21.4604L306.267 21.883L306.69 20.9767L305.783 20.5541L305.361 21.4604ZM303.433 25.593L303.58 26.5822L304.112 26.5031L304.34 26.0157L303.433 25.593ZM278.82 29.2531L278.673 28.264L275.382 28.7533L278.397 30.1594L278.82 29.2531ZM297.635 38.0274L298.541 38.45L298.964 37.5437L298.057 37.1211L297.635 38.0274ZM295.707 42.1601L295.285 43.0664L296.191 43.489L296.614 42.5827L295.707 42.1601ZM270.476 30.3934L269.57 29.9708L269.147 30.8771L270.053 31.2997L270.476 30.3934ZM272.403 26.2607L272.255 25.2717L271.724 25.3512L271.497 25.8381L272.403 26.2607ZM296.981 22.5838L297.129 23.5728L300.413 23.0813L297.403 21.6775L296.981 22.5838ZM278.202 13.8264L277.296 13.4037L276.873 14.31L277.78 14.7327L278.202 13.8264ZM280.13 9.69371L280.552 8.78742L279.646 8.36476L279.223 9.27106L280.13 9.69371ZM304.454 21.0377L302.527 25.1704L304.34 26.0157L306.267 21.883L304.454 21.0377ZM303.286 24.6039L278.673 28.264L278.967 30.2422L303.58 26.5822L303.286 24.6039ZM278.397 30.1594L297.212 38.9337L298.057 37.1211L279.243 28.3468L278.397 30.1594ZM296.728 37.6047L294.801 41.7374L296.614 42.5827L298.541 38.45L296.728 37.6047ZM296.13 41.2538L270.899 29.4871L270.053 31.2997L295.285 43.0664L296.13 41.2538ZM271.382 30.8161L273.31 26.6834L271.497 25.8381L269.57 29.9708L271.382 30.8161ZM272.551 27.2497L297.129 23.5728L296.833 21.5948L272.255 25.2717L272.551 27.2497ZM297.403 21.6775L278.625 12.9201L277.78 14.7327L296.558 23.4901L297.403 21.6775ZM279.109 14.2491L281.036 10.1164L279.223 9.27106L277.296 13.4037L279.109 14.2491ZM279.707 10.6L304.938 22.3666L305.783 20.5541L280.552 8.78742L279.707 10.6Z" fill="#1E4364"/>
</svg>
