<svg width="327" height="144" viewBox="0 0 327 144" fill="none" xmlns="http://www.w3.org/2000/svg">
<path d="M28.1306 45.7599L23.0492 35.2875L17.0659 35.9677L14.988 31.6852L44.3832 28.4928L46.6881 33.2432L25.9888 54.3573L23.8934 50.0388L28.1306 45.7599ZM30.9186 42.9844L40.5694 33.2777L26.9548 34.8152L30.9186 42.9844Z" fill="#1E4364"/>
<path d="M28.1306 45.7599L28.8411 46.4635L29.3393 45.9604L29.0302 45.3233L28.1306 45.7599ZM23.0492 35.2875L23.9489 34.851L23.6398 34.214L22.9363 34.2939L23.0492 35.2875ZM17.0659 35.9677L16.1663 36.4043L16.4754 37.0413L17.1789 36.9613L17.0659 35.9677ZM14.988 31.6852L14.88 30.6911L13.4685 30.8444L14.0883 32.1218L14.988 31.6852ZM44.3832 28.4928L45.2829 28.0563L44.9754 27.4226L44.2752 27.4987L44.3832 28.4928ZM46.6881 33.2432L47.4022 33.9432L47.8953 33.4403L47.5878 32.8066L46.6881 33.2432ZM25.9888 54.3573L25.0891 54.7938L25.7089 56.0712L26.7029 55.0573L25.9888 54.3573ZM23.8934 50.0388L23.1829 49.3352L22.6846 49.8383L22.9937 50.4753L23.8934 50.0388ZM30.9186 42.9844L30.0189 43.4209L30.6341 44.6888L31.6278 43.6894L30.9186 42.9844ZM40.5694 33.2777L41.2785 33.9827L43.285 31.9646L40.4572 32.284L40.5694 33.2777ZM26.9548 34.8152L26.8426 33.8215L25.4381 33.9801L26.0552 35.2518L26.9548 34.8152ZM29.0302 45.3233L23.9489 34.851L22.1496 35.7241L27.2309 46.1964L29.0302 45.3233ZM22.9363 34.2939L16.953 34.9741L17.1789 36.9613L23.1622 36.2811L22.9363 34.2939ZM17.9656 35.5312L15.8877 31.2487L14.0883 32.1218L16.1663 36.4043L17.9656 35.5312ZM15.096 32.6794L44.4912 29.487L44.2752 27.4987L14.88 30.6911L15.096 32.6794ZM43.4835 28.9294L45.7884 33.6797L47.5878 32.8066L45.2829 28.0563L43.4835 28.9294ZM45.974 32.5431L25.2747 53.6572L26.7029 55.0573L47.4022 33.9432L45.974 32.5431ZM26.8885 53.9207L24.7931 49.6023L22.9937 50.4753L25.0891 54.7938L26.8885 53.9207ZM24.604 50.7424L28.8411 46.4635L27.42 45.0562L23.1829 49.3352L24.604 50.7424ZM31.6278 43.6894L41.2785 33.9827L39.8602 32.5726L30.2095 42.2793L31.6278 43.6894ZM40.4572 32.284L26.8426 33.8215L27.0671 35.8089L40.6816 34.2714L40.4572 32.284ZM26.0552 35.2518L30.0189 43.4209L31.8183 42.5478L27.8545 34.3787L26.0552 35.2518Z" fill="#1E4364"/>
<path d="M37.3293 63.9028L42.9597 71.43L40.0129 73.6343L31.6512 62.4556L53.9124 45.804L56.6438 49.4555L37.3293 63.9028Z" fill="#1E4364"/>
<path d="M37.3293 63.9028L36.7303 63.1021L35.9296 63.7011L36.5286 64.5018L37.3293 63.9028ZM42.9597 71.43L43.5587 72.2308L44.3595 71.6318L43.7605 70.8311L42.9597 71.43ZM40.0129 73.6343L39.2121 74.2333L39.8111 75.034L40.6119 74.435L40.0129 73.6343ZM31.6512 62.4556L31.0522 61.6548L30.2514 62.2538L30.8504 63.0546L31.6512 62.4556ZM53.9124 45.804L54.7132 45.205L54.1142 44.4042L53.3135 45.0032L53.9124 45.804ZM56.6438 49.4555L57.2428 50.2562L58.0435 49.6573L57.4445 48.8565L56.6438 49.4555ZM36.5286 64.5018L42.159 72.029L43.7605 70.8311L38.1301 63.3039L36.5286 64.5018ZM42.3607 70.6293L39.4139 72.8335L40.6119 74.435L43.5587 72.2308L42.3607 70.6293ZM40.8137 73.0353L32.4519 61.8566L30.8504 63.0546L39.2121 74.2333L40.8137 73.0353ZM32.2501 63.2564L54.5114 46.6048L53.3135 45.0032L31.0522 61.6548L32.2501 63.2564ZM53.1117 46.403L55.843 50.0545L57.4445 48.8565L54.7132 45.205L53.1117 46.403ZM56.0448 48.6547L36.7303 63.1021L37.9283 64.7036L57.2428 50.2562L56.0448 48.6547Z" fill="#1E4364"/>
<path d="M69.4036 64.2796L49.5404 83.7293L46.3501 80.4711L66.2133 61.0215L69.4036 64.2796Z" fill="#1E4364"/>
<path d="M69.4036 64.2796L70.1033 64.9941L70.8178 64.2945L70.1182 63.58L69.4036 64.2796ZM49.5404 83.7293L48.8259 84.4289L49.5255 85.1434L50.24 84.4438L49.5404 83.7293ZM46.3501 80.4711L45.6504 79.7566L44.9359 80.4563L45.6355 81.1708L46.3501 80.4711ZM66.2133 61.0215L66.9278 60.3218L66.2282 59.6073L65.5137 60.3069L66.2133 61.0215ZM68.704 63.5651L48.8407 83.0148L50.24 84.4438L70.1033 64.9941L68.704 63.5651ZM50.2549 83.0297L47.0646 79.7715L45.6355 81.1708L48.8259 84.4289L50.2549 83.0297ZM47.0497 81.1856L66.913 61.736L65.5137 60.3069L45.6504 79.7566L47.0497 81.1856ZM65.4988 61.7211L68.6891 64.9792L70.1182 63.58L66.9278 60.3218L65.4988 61.7211Z" fill="#1E4364"/>
<path d="M97.6899 85.9906L81.946 108.903L78.1877 106.32L88.9706 90.628L71.1987 101.518L68.5943 99.7284L72.3551 79.2109L61.5722 94.9033L57.814 92.3209L73.5578 69.4086L77.6128 72.1949L73.3109 95.6894L93.6679 83.227L97.6899 85.9906Z" fill="#1E4364"/>
<path d="M97.6899 85.9906L98.5141 86.557L99.0804 85.7328L98.2562 85.1665L97.6899 85.9906ZM81.946 108.903L81.3797 109.727L82.2039 110.293L82.7702 109.469L81.946 108.903ZM78.1878 106.32L77.3636 105.754L76.7972 106.578L77.6214 107.145L78.1878 106.32ZM88.9706 90.628L89.7948 91.1944L88.4481 89.7754L88.9706 90.628ZM71.1987 101.518L70.6324 102.342L71.1675 102.71L71.7212 102.371L71.1987 101.518ZM68.5943 99.7284L67.6107 99.5481L67.4938 100.186L68.028 100.553L68.5943 99.7284ZM72.3551 79.2109L73.3387 79.3912L71.5309 78.6446L72.3551 79.2109ZM61.5722 94.9033L61.0059 95.7275L61.8301 96.2938L62.3964 95.4696L61.5722 94.9033ZM57.814 92.3209L56.9898 91.7545L56.4235 92.5787L57.2477 93.1451L57.814 92.3209ZM73.5578 69.4086L74.1242 68.5844L73.3 68.0181L72.7337 68.8423L73.5578 69.4086ZM77.6128 72.1949L78.5965 72.3751L78.7132 71.7377L78.1791 71.3708L77.6128 72.1949ZM73.3109 95.6894L72.3273 95.5093L71.9242 97.7109L73.833 96.5423L73.3109 95.6894ZM93.6679 83.227L94.2342 82.4028L93.6993 82.0352L93.1457 82.3741L93.6679 83.227ZM96.8657 85.4243L81.1218 108.337L82.7702 109.469L98.5141 86.557L96.8657 85.4243ZM82.5123 108.079L78.7541 105.496L77.6214 107.145L81.3797 109.727L82.5123 108.079ZM79.0119 106.887L89.7948 91.1944L88.1464 90.0617L77.3636 105.754L79.0119 106.887ZM88.4481 89.7754L70.6762 100.665L71.7212 102.371L89.4931 91.4807L88.4481 89.7754ZM71.765 100.694L69.1606 98.9042L68.028 100.553L70.6324 102.342L71.765 100.694ZM69.5779 99.9087L73.3387 79.3912L71.3715 79.0306L67.6107 99.5481L69.5779 99.9087ZM71.5309 78.6446L60.7481 94.337L62.3964 95.4696L73.1793 79.7772L71.5309 78.6446ZM62.1386 94.0791L58.3803 91.4967L57.2477 93.1451L61.0059 95.7275L62.1386 94.0791ZM58.6382 92.8872L74.382 69.975L72.7337 68.8423L56.9898 91.7545L58.6382 92.8872ZM72.9915 70.2328L77.0465 73.0191L78.1791 71.3708L74.1242 68.5844L72.9915 70.2328ZM76.6292 72.0148L72.3273 95.5093L74.2946 95.8696L78.5965 72.3751L76.6292 72.0148ZM73.833 96.5423L94.19 84.0798L93.1457 82.3741L72.7888 94.8366L73.833 96.5423ZM93.1015 84.0512L97.1235 86.8148L98.2562 85.1665L94.2342 82.4028L93.1015 84.0512Z" fill="#1E4364"/>
<path d="M106.181 93.1788L103.199 100.774L112.135 104.283L110.775 107.746L101.839 104.237L98.7256 112.168L108.778 116.115L107.419 119.577L93.1214 113.964L103.296 88.0496L117.594 93.6634L116.234 97.126L106.181 93.1788Z" fill="#1E4364"/>
<path d="M106.181 93.1788L106.547 92.248L105.616 91.8825L105.251 92.8134L106.181 93.1788ZM103.199 100.774L102.268 100.409L101.903 101.34L102.834 101.705L103.199 100.774ZM112.135 104.283L113.066 104.648L113.431 103.718L112.5 103.352L112.135 104.283ZM110.775 107.746L110.41 108.676L111.341 109.042L111.706 108.111L110.775 107.746ZM101.839 104.237L102.205 103.306L101.274 102.941L100.909 103.871L101.839 104.237ZM98.7256 112.168L97.7947 111.802L97.4293 112.733L98.3601 113.098L98.7256 112.168ZM108.778 116.115L109.709 116.48L110.075 115.549L109.144 115.184L108.778 116.115ZM107.419 119.577L107.053 120.508L107.984 120.874L108.35 119.943L107.419 119.577ZM93.1214 113.964L92.1906 113.598L91.8251 114.529L92.756 114.894L93.1214 113.964ZM103.296 88.0496L103.662 87.1188L102.731 86.7533L102.366 87.6841L103.296 88.0496ZM117.594 93.6634L118.525 94.0289L118.89 93.0981L117.959 92.7326L117.594 93.6634ZM116.234 97.126L115.869 98.0569L116.8 98.4223L117.165 97.4915L116.234 97.126ZM105.251 92.8134L102.268 100.409L104.13 101.14L107.112 93.5443L105.251 92.8134ZM102.834 101.705L111.769 105.214L112.5 103.352L103.565 99.8435L102.834 101.705ZM111.204 103.917L109.845 107.38L111.706 108.111L113.066 104.648L111.204 103.917ZM111.141 106.815L102.205 103.306L101.474 105.168L110.41 108.676L111.141 106.815ZM100.909 103.871L97.7947 111.802L99.6564 112.533L102.77 104.602L100.909 103.871ZM98.3601 113.098L108.413 117.046L109.144 115.184L99.091 111.237L98.3601 113.098ZM107.848 115.749L106.488 119.212L108.35 119.943L109.709 116.48L107.848 115.749ZM107.784 118.647L93.4869 113.033L92.756 114.894L107.053 120.508L107.784 118.647ZM94.0523 114.329L104.227 88.4151L102.366 87.6841L92.1906 113.598L94.0523 114.329ZM102.931 88.9804L117.228 94.5942L117.959 92.7326L103.662 87.1188L102.931 88.9804ZM116.663 93.2979L115.303 96.7606L117.165 97.4915L118.525 94.0289L116.663 93.2979ZM116.6 96.1952L106.547 92.248L105.816 94.1097L115.869 98.0569L116.6 96.1952Z" fill="#1E4364"/>
<path d="M140.518 126.783L136.024 126.011L126.016 103.228L122.502 123.689L118.008 122.917L122.72 95.4786L127.214 96.2503L137.229 118.994L140.736 98.5724L145.23 99.3442L140.518 126.783Z" fill="#1E4364"/>
<path d="M140.518 126.783L140.349 127.768L141.335 127.937L141.504 126.952L140.518 126.783ZM136.024 126.011L135.109 126.413L135.325 126.905L135.855 126.996L136.024 126.011ZM126.016 103.228L126.931 102.826L125.593 99.7801L125.03 103.059L126.016 103.228ZM122.502 123.689L122.333 124.674L123.318 124.844L123.488 123.858L122.502 123.689ZM118.008 122.917L117.022 122.748L116.853 123.733L117.839 123.902L118.008 122.917ZM122.72 95.4786L122.889 94.493L121.903 94.3237L121.734 95.3093L122.72 95.4786ZM127.214 96.2503L128.129 95.8473L127.913 95.3557L127.383 95.2648L127.214 96.2503ZM137.229 118.994L136.314 119.397L137.653 122.436L138.215 119.163L137.229 118.994ZM140.736 98.5724L140.905 97.5869L139.92 97.4176L139.75 98.4032L140.736 98.5724ZM145.23 99.3442L146.216 99.5135L146.385 98.5279L145.399 98.3586L145.23 99.3442ZM140.688 125.797L136.193 125.025L135.855 126.996L140.349 127.768L140.688 125.797ZM136.94 125.609L126.931 102.826L125.1 103.63L135.109 126.413L136.94 125.609ZM125.03 103.059L121.516 123.519L123.488 123.858L127.001 103.397L125.03 103.059ZM122.671 122.703L118.177 121.931L117.839 123.902L122.333 124.674L122.671 122.703ZM118.993 123.086L123.705 95.6478L121.734 95.3093L117.022 122.748L118.993 123.086ZM122.55 96.4641L127.045 97.2359L127.383 95.2648L122.889 94.493L122.55 96.4641ZM126.299 96.6533L136.314 119.397L138.144 118.591L128.129 95.8473L126.299 96.6533ZM138.215 119.163L141.722 98.7417L139.75 98.4032L136.244 118.824L138.215 119.163ZM140.567 99.558L145.061 100.33L145.399 98.3586L140.905 97.5869L140.567 99.558ZM144.245 99.175L139.533 126.613L141.504 126.952L146.216 99.5135L144.245 99.175Z" fill="#1E4364"/>
<path d="M168.957 98.7258L169.109 102.443L161.715 102.745L162.698 126.805L158.141 126.991L157.159 102.931L149.725 103.234L149.573 99.5174L168.957 98.7258Z" fill="#1E4364"/>
<path d="M168.957 98.7258L169.956 98.685L169.915 97.6858L168.916 97.7266L168.957 98.7258ZM169.109 102.443L169.15 103.442L170.149 103.401L170.108 102.402L169.109 102.443ZM161.715 102.745L161.674 101.745L160.675 101.786L160.716 102.785L161.715 102.745ZM162.698 126.805L162.738 127.804L163.738 127.763L163.697 126.764L162.698 126.805ZM158.141 126.991L157.142 127.031L157.183 128.031L158.182 127.99L158.141 126.991ZM157.159 102.931L158.158 102.89L158.117 101.891L157.118 101.932L157.159 102.931ZM149.725 103.234L148.726 103.275L148.767 104.274L149.766 104.233L149.725 103.234ZM149.573 99.5174L149.532 98.5182L148.533 98.559L148.574 99.5582L149.573 99.5174ZM167.958 98.7666L168.11 102.483L170.108 102.402L169.956 98.685L167.958 98.7666ZM169.068 101.443L161.674 101.745L161.756 103.744L169.15 103.442L169.068 101.443ZM160.716 102.785L161.698 126.845L163.697 126.764L162.714 102.704L160.716 102.785ZM162.657 125.805L158.101 125.991L158.182 127.99L162.738 127.804L162.657 125.805ZM159.141 126.95L158.158 102.89L156.16 102.971L157.142 127.031L159.141 126.95ZM157.118 101.932L149.684 102.235L149.766 104.233L157.2 103.93L157.118 101.932ZM150.724 103.193L150.572 99.4766L148.574 99.5582L148.726 103.275L150.724 103.193ZM149.614 100.517L168.998 99.7249L168.916 97.7266L149.532 98.5182L149.614 100.517Z" fill="#1E4364"/>
<path d="M195.364 115.522L184.081 118.383L183.539 124.38L178.925 125.55L181.737 96.1158L186.855 94.8183L203.352 119.357L198.699 120.536L195.364 115.522ZM193.209 112.231L185.653 100.818L184.408 114.462L193.209 112.231Z" fill="#1E4364"/>
<path d="M195.364 115.522L196.197 114.968L195.805 114.379L195.119 114.553L195.364 115.522ZM184.081 118.383L183.836 117.413L183.149 117.587L183.085 118.293L184.081 118.383ZM183.539 124.38L183.784 125.349L184.471 125.175L184.534 124.47L183.539 124.38ZM178.925 125.55L177.929 125.455L177.794 126.868L179.17 126.519L178.925 125.55ZM181.737 96.1158L181.491 95.1465L180.809 95.3196L180.742 96.0207L181.737 96.1158ZM186.855 94.8183L187.685 94.2603L187.292 93.6758L186.61 93.8489L186.855 94.8183ZM203.352 119.357L203.597 120.326L204.974 119.977L204.182 118.799L203.352 119.357ZM198.699 120.536L197.866 121.09L198.258 121.68L198.945 121.506L198.699 120.536ZM193.209 112.231L193.455 113.2L194.821 112.854L194.043 111.679L193.209 112.231ZM185.653 100.818L186.487 100.266L184.916 97.8928L184.657 100.727L185.653 100.818ZM184.408 114.462L183.412 114.371L183.284 115.779L184.654 115.432L184.408 114.462ZM195.119 114.553L183.836 117.413L184.327 119.352L195.61 116.491L195.119 114.553ZM183.085 118.293L182.543 124.29L184.534 124.47L185.077 118.473L183.085 118.293ZM183.293 123.411L178.679 124.58L179.17 126.519L183.784 125.349L183.293 123.411ZM179.92 125.645L182.733 96.211L180.742 96.0207L177.929 125.455L179.92 125.645ZM181.983 97.0852L187.101 95.7876L186.61 93.8489L181.491 95.1465L181.983 97.0852ZM186.025 95.3762L202.522 119.915L204.182 118.799L187.685 94.2603L186.025 95.3762ZM203.106 118.387L198.453 119.567L198.945 121.506L203.597 120.326L203.106 118.387ZM199.532 119.983L196.197 114.968L194.532 116.076L197.866 121.09L199.532 119.983ZM194.043 111.679L186.487 100.266L184.819 101.37L192.376 112.783L194.043 111.679ZM184.657 100.727L183.412 114.371L185.404 114.553L186.649 100.909L184.657 100.727ZM184.654 115.432L193.455 113.2L192.964 111.261L184.162 113.493L184.654 115.432Z" fill="#1E4364"/>
<path d="M204.86 104.117C203.597 101.708 203.018 99.2557 203.125 96.7607C203.256 94.2533 203.999 91.9667 205.354 89.9008C206.721 87.7989 208.55 86.1473 210.841 84.9459C213.462 83.5712 216.129 83.0008 218.841 83.2346C221.564 83.4323 224.006 84.4706 226.165 86.3492L221.312 88.8943C219.993 87.9298 218.6 87.4259 217.132 87.3828C215.664 87.3396 214.186 87.7081 212.698 88.4884C211.069 89.3429 209.808 90.4707 208.917 91.8715C208.026 93.2724 207.573 94.8497 207.559 96.6034C207.569 98.3447 208.051 100.125 209.005 101.943C209.958 103.761 211.148 105.17 212.575 106.168C214.026 107.154 215.587 107.69 217.258 107.777C218.917 107.84 220.562 107.445 222.191 106.59C223.679 105.81 224.823 104.804 225.622 103.572C226.421 102.34 226.799 100.907 226.755 99.2736L231.608 96.7285C231.926 99.5731 231.392 102.172 230.006 104.525C228.644 106.865 226.652 108.723 224.03 110.097C221.716 111.311 219.324 111.888 216.854 111.828C214.371 111.745 212.061 111.044 209.924 109.726C207.811 108.395 206.123 106.525 204.86 104.117Z" fill="#1E4364"/>
<path d="M203.125 96.7607L202.127 96.7088L202.126 96.718L203.125 96.7607ZM205.354 89.9008L206.19 90.4494L206.193 90.4459L205.354 89.9008ZM218.841 83.2346L218.755 84.231L218.769 84.2319L218.841 83.2346ZM226.165 86.3492L226.63 87.2348L227.926 86.5551L226.822 85.5947L226.165 86.3492ZM221.312 88.8943L220.722 89.7014L221.225 90.0692L221.777 89.7799L221.312 88.8943ZM217.132 87.3828L217.161 86.3832L217.132 87.3828ZM208.917 91.8715L209.761 92.4084L209.761 92.4084L208.917 91.8715ZM207.559 96.6034L206.559 96.5955L206.559 96.609L207.559 96.6034ZM212.575 106.168L212.002 106.987L212.013 106.995L212.575 106.168ZM217.258 107.777L217.206 108.776L217.22 108.776L217.258 107.777ZM225.622 103.572L226.461 104.116L225.622 103.572ZM226.755 99.2736L226.291 98.388L225.739 98.6774L225.756 99.3002L226.755 99.2736ZM231.608 96.7285L232.602 96.6176L232.44 95.1633L231.144 95.8429L231.608 96.7285ZM230.006 104.525L229.144 104.017L229.142 104.022L230.006 104.525ZM216.854 111.828L216.82 112.828L216.829 112.828L216.854 111.828ZM209.924 109.726L209.392 110.572L209.399 110.577L209.924 109.726ZM205.746 103.652C204.557 101.385 204.026 99.1069 204.124 96.8035L202.126 96.718C202.011 99.4046 202.637 102.03 203.974 104.581L205.746 103.652ZM204.124 96.8127C204.245 94.4793 204.934 92.3646 206.19 90.4494L204.518 89.3522C203.064 91.5688 202.266 94.0274 202.127 96.7088L204.124 96.8127ZM206.193 90.4459C207.463 88.4924 209.161 86.9559 211.305 85.8315L210.376 84.0603C207.939 85.3386 205.979 87.1054 204.516 89.3556L206.193 90.4459ZM211.305 85.8315C213.773 84.5375 216.25 84.0149 218.755 84.2309L218.927 82.2382C216.008 81.9866 213.151 82.605 210.376 84.0603L211.305 85.8315ZM218.769 84.2319C221.265 84.4133 223.504 85.3597 225.509 87.1036L226.822 85.5947C224.507 83.5814 221.863 82.4514 218.913 82.2372L218.769 84.2319ZM225.701 85.4636L220.848 88.0086L221.777 89.7799L226.63 87.2348L225.701 85.4636ZM221.903 88.0871C220.44 87.0172 218.854 86.433 217.161 86.3832L217.103 88.3823C218.346 88.4189 219.547 88.8423 220.722 89.7014L221.903 88.0871ZM217.161 86.3832C215.498 86.3343 213.852 86.7544 212.234 87.6028L213.163 89.374C214.521 88.6619 215.83 88.3449 217.103 88.3823L217.161 86.3832ZM212.234 87.6028C210.467 88.5295 209.068 89.7709 208.073 91.3347L209.761 92.4084C210.548 91.1704 211.671 90.1564 213.163 89.374L212.234 87.6028ZM208.073 91.3347C207.076 92.9028 206.575 94.6654 206.559 96.5955L208.559 96.6112C208.572 95.034 208.976 93.642 209.761 92.4084L208.073 91.3347ZM206.559 96.609C206.57 98.5365 207.104 100.473 208.119 102.407L209.89 101.479C208.997 99.7764 208.568 98.1528 208.559 96.5977L206.559 96.609ZM208.119 102.407C209.134 104.342 210.423 105.882 212.002 106.987L213.148 105.349C211.874 104.457 210.783 103.181 209.89 101.479L208.119 102.407ZM212.013 106.995C213.607 108.078 215.343 108.679 217.206 108.776L217.31 106.778C215.83 106.701 214.444 106.229 213.137 105.341L212.013 106.995ZM217.22 108.776C219.072 108.847 220.889 108.403 222.656 107.476L221.727 105.705C220.235 106.487 218.763 106.834 217.296 106.778L217.22 108.776ZM222.656 107.476C224.273 106.627 225.555 105.512 226.461 104.116L224.783 103.028C224.09 104.096 223.085 104.992 221.727 105.705L222.656 107.476ZM226.461 104.116C227.382 102.695 227.803 101.059 227.755 99.2469L225.756 99.3002C225.794 100.755 225.46 101.984 224.783 103.028L226.461 104.116ZM227.22 100.159L232.073 97.6141L231.144 95.8429L226.291 98.388L227.22 100.159ZM230.615 96.8394C230.909 99.4801 230.415 101.86 229.144 104.017L230.868 105.032C232.369 102.484 232.943 99.6662 232.602 96.6176L230.615 96.8394ZM229.142 104.022C227.883 106.184 226.037 107.916 223.566 109.212L224.495 110.983C227.267 109.529 229.405 107.546 230.87 105.028L229.142 104.022ZM223.566 109.212C221.393 110.351 219.168 110.884 216.878 110.829L216.829 112.828C219.479 112.892 222.039 112.271 224.495 110.983L223.566 109.212ZM216.887 110.829C214.58 110.752 212.44 110.103 210.45 108.875L209.399 110.577C211.683 111.986 214.161 112.739 216.82 112.828L216.887 110.829ZM210.457 108.88C208.507 107.651 206.934 105.919 205.746 103.652L203.974 104.581C205.312 107.132 207.116 109.139 209.392 110.572L210.457 108.88Z" fill="#1E4364"/>
<path d="M230.484 72.5072L247.525 94.4713L243.923 97.2666L226.881 75.3025L230.484 72.5072Z" fill="#1E4364"/>
<path d="M230.484 72.5072L231.274 71.8941L230.661 71.1041L229.871 71.7171L230.484 72.5072ZM247.525 94.4713L248.138 95.2613L248.929 94.6483L248.316 93.8583L247.525 94.4713ZM243.923 97.2666L243.133 97.8796L243.746 98.6697L244.536 98.0567L243.923 97.2666ZM226.881 75.3025L226.268 74.5124L225.478 75.1254L226.091 75.9155L226.881 75.3025ZM229.694 73.1202L246.735 95.0843L248.316 93.8583L231.274 71.8941L229.694 73.1202ZM246.912 93.6812L243.31 96.4765L244.536 98.0567L248.138 95.2613L246.912 93.6812ZM244.713 96.6536L227.671 74.6895L226.091 75.9155L243.133 97.8796L244.713 96.6536ZM227.494 76.0926L231.097 73.2972L229.871 71.7171L226.268 74.5124L227.494 76.0926Z" fill="#1E4364"/>
<path d="M265.519 77.8748C263.793 79.8012 261.753 81.1782 259.4 82.0058C257.045 82.7958 254.636 82.9467 252.174 82.4585C249.709 81.9326 247.463 80.762 245.438 78.9468C243.412 77.1316 242.013 75.0365 241.241 72.6616C240.486 70.2669 240.383 67.8647 240.931 65.4553C241.477 63.0082 242.613 60.8214 244.339 58.895C246.083 56.9488 248.133 55.5807 250.488 54.7907C252.841 53.963 255.24 53.8033 257.685 54.3114C260.13 54.8195 262.365 55.9811 264.391 57.7964C266.416 59.6116 267.825 61.7155 268.617 64.1082C269.389 66.4831 269.503 68.8941 268.957 71.3413C268.409 73.7507 267.263 75.9286 265.519 77.8748ZM262.57 75.2321C263.798 73.8617 264.585 72.3645 264.93 70.7404C265.255 69.0985 265.109 67.4636 264.491 65.8356C263.871 64.17 262.797 62.652 261.267 61.2817C259.738 59.9114 258.122 59.018 256.418 58.6014C254.733 58.165 253.101 58.2072 251.525 58.7279C249.948 59.2487 248.546 60.1942 247.318 61.5645C246.09 62.9348 245.303 64.432 244.958 66.0561C244.613 67.6802 244.74 69.3162 245.34 70.964C245.958 72.592 247.032 74.0911 248.561 75.4614C250.09 76.8318 251.707 77.744 253.413 78.1982C255.117 78.6147 256.767 78.5715 258.363 78.0686C259.94 77.5479 261.342 76.6024 262.57 75.2321ZM242.918 52.0895L240.266 61.5827L237.763 59.3403L240.028 49.5001L242.918 52.0895Z" fill="#1E4364"/>
<path d="M259.4 82.0058L259.718 82.9539L259.725 82.9516L259.732 82.9492L259.4 82.0058ZM252.174 82.4585L251.965 83.4365L251.972 83.438L251.979 83.4394L252.174 82.4585ZM241.241 72.6616L240.287 72.9621L240.29 72.9708L241.241 72.6616ZM240.931 65.4553L241.906 65.677L241.907 65.673L240.931 65.4553ZM250.488 54.7907L250.806 55.7388L250.812 55.7365L250.819 55.734L250.488 54.7907ZM257.685 54.3114L257.481 55.2904L257.685 54.3114ZM268.617 64.1082L269.568 63.799L269.567 63.794L268.617 64.1082ZM268.957 71.3413L269.932 71.563L269.933 71.5589L268.957 71.3413ZM264.93 70.7404L265.908 70.9484L265.911 70.9349L264.93 70.7404ZM264.491 65.8356L263.554 66.1845L263.556 66.1905L264.491 65.8356ZM256.418 58.6014L256.168 59.5696L256.181 59.5728L256.418 58.6014ZM251.525 58.7279L251.838 59.6775L251.525 58.7279ZM244.958 66.0561L245.936 66.2641L245.936 66.2641L244.958 66.0561ZM245.34 70.964L244.4 71.3063L244.405 71.3189L245.34 70.964ZM253.413 78.1982L253.156 79.1645L253.166 79.1672L253.176 79.1696L253.413 78.1982ZM258.363 78.0686L258.664 79.0225L258.677 79.0182L258.363 78.0686ZM242.918 52.0895L243.881 52.3586L244.048 51.7597L243.585 51.3448L242.918 52.0895ZM240.266 61.5827L239.598 62.3274L240.796 63.4007L241.229 61.8518L240.266 61.5827ZM237.763 59.3403L236.789 59.116L236.656 59.6912L237.096 60.0851L237.763 59.3403ZM240.028 49.5002L240.696 48.7554L239.434 47.6247L239.054 49.2758L240.028 49.5002ZM264.774 77.2074C263.156 79.0134 261.257 80.2928 259.069 81.0625L259.732 82.9492C262.25 82.0636 264.43 80.589 266.264 78.5422L264.774 77.2074ZM259.082 81.0578C256.894 81.7918 254.662 81.9323 252.368 81.4776L251.979 83.4394C254.611 83.9611 257.196 83.7999 259.718 82.9539L259.082 81.0578ZM252.382 81.4805C250.101 80.9939 248.011 79.9104 246.105 78.2021L244.77 79.6915C246.915 81.6137 249.316 82.8713 251.965 83.4365L252.382 81.4805ZM246.105 78.2021C244.199 76.4937 242.905 74.5449 242.192 72.3524L240.29 72.9708C241.121 75.5281 242.625 77.7695 244.77 79.6915L246.105 78.2021ZM242.195 72.3611C241.493 70.1326 241.398 67.9107 241.906 65.677L239.956 65.2336C239.368 67.8188 239.48 70.4011 240.287 72.9621L242.195 72.3611ZM241.907 65.673C242.414 63.3985 243.468 61.3654 245.084 59.5624L243.594 58.2277C241.757 60.2774 240.539 62.6178 239.955 65.2376L241.907 65.673ZM245.084 59.5624C246.718 57.7381 248.623 56.4708 250.806 55.7388L250.17 53.8426C247.642 54.6906 245.448 56.1595 243.594 58.2277L245.084 59.5624ZM250.819 55.734C253 54.9669 255.214 54.8194 257.481 55.2904L257.888 53.3323C255.265 52.7872 252.681 52.9592 250.156 53.8473L250.819 55.734ZM257.481 55.2904C259.738 55.7595 261.817 56.8327 263.723 58.5411L265.058 57.0516C262.913 55.1296 260.521 53.8794 257.888 53.3323L257.481 55.2904ZM263.723 58.5411C265.63 60.2494 266.935 62.2085 267.668 64.4225L269.567 63.794C268.715 61.2226 267.203 58.9738 265.058 57.0516L263.723 58.5411ZM267.666 64.4174C268.383 66.6214 268.488 68.8504 267.981 71.1236L269.933 71.5589C270.518 68.9378 270.396 66.3449 269.568 63.799L267.666 64.4174ZM267.982 71.1196C267.474 73.3537 266.412 75.3802 264.774 77.2074L266.264 78.5422C268.115 76.4769 269.344 74.1477 269.932 71.563L267.982 71.1196ZM263.315 75.8994C264.646 74.4134 265.523 72.7614 265.908 70.9484L263.952 70.5324C263.647 71.9677 262.95 73.3101 261.825 74.5647L263.315 75.8994ZM265.911 70.9349C266.274 69.1016 266.108 67.2765 265.426 65.4807L263.556 66.1905C264.111 67.6507 264.237 69.0955 263.949 70.546L265.911 70.9349ZM265.428 65.4868C264.744 63.6472 263.566 61.9986 261.935 60.537L260.6 62.0264C262.027 63.3055 262.999 64.6928 263.554 66.1845L265.428 65.4868ZM261.935 60.537C260.304 59.0757 258.544 58.0918 256.656 57.63L256.181 59.5728C257.699 59.9441 259.172 60.7471 260.6 62.0264L261.935 60.537ZM256.669 57.6333C254.807 57.1513 252.979 57.1944 251.211 57.7784L251.838 59.6775C253.224 59.22 254.658 59.1788 256.168 59.5695L256.669 57.6333ZM251.211 57.7784C249.451 58.3597 247.905 59.4111 246.573 60.8971L248.063 62.2318C249.187 60.9772 250.445 60.1376 251.838 59.6775L251.211 57.7784ZM246.573 60.8971C245.242 62.3831 244.365 64.0351 243.98 65.8481L245.936 66.2641C246.241 64.8289 246.938 63.4865 248.063 62.2318L246.573 60.8971ZM243.98 65.8481C243.593 67.6661 243.74 69.4926 244.401 71.3062L246.28 70.6218C245.74 69.1398 245.632 67.6943 245.936 66.2641L243.98 65.8481ZM244.405 71.3189C245.089 73.1209 246.267 74.7482 247.894 76.2062L249.228 74.7167C247.797 73.434 246.827 72.063 246.275 70.6091L244.405 71.3189ZM247.894 76.2062C249.521 77.6644 251.275 78.6637 253.156 79.1645L253.67 77.2319C252.14 76.8244 250.659 75.9991 249.228 74.7167L247.894 76.2062ZM253.176 79.1696C255.048 79.6274 256.884 79.5829 258.664 79.0224L258.063 77.1148C256.649 77.5602 255.185 77.6021 253.651 77.2268L253.176 79.1696ZM258.677 79.0182C260.437 78.4369 261.983 77.3854 263.315 75.8994L261.825 74.5647C260.701 75.8193 259.443 76.6589 258.05 77.1191L258.677 79.0182ZM241.955 51.8204L239.302 61.3136L241.229 61.8518L243.881 52.3586L241.955 51.8204ZM240.933 60.8379L238.431 58.5956L237.096 60.0851L239.598 62.3274L240.933 60.8379ZM238.738 59.5647L241.003 49.7245L239.054 49.2758L236.789 59.116L238.738 59.5647ZM239.361 50.2449L242.251 52.8342L243.585 51.3448L240.696 48.7554L239.361 50.2449Z" fill="#1E4364"/>
<path d="M291.413 38.0158L289.271 42.041L264.499 44.3972L282.824 54.152L280.681 58.1773L256.106 45.0956L258.249 41.0704L282.986 38.6954L264.696 28.9594L266.838 24.9341L291.413 38.0158Z" fill="#1E4364"/>
<path d="M291.413 38.0158L292.296 38.4857L292.766 37.603L291.883 37.1331L291.413 38.0158ZM289.271 42.041L289.365 43.0365L289.901 42.9856L290.154 42.5109L289.271 42.041ZM264.499 44.3972L264.404 43.4017L261.092 43.7167L264.029 45.2799L264.499 44.3972ZM282.824 54.152L283.707 54.6219L284.177 53.7392L283.294 53.2693L282.824 54.152ZM280.681 58.1773L280.211 59.06L281.094 59.5299L281.564 58.6472L280.681 58.1773ZM256.106 45.0956L255.223 44.6257L254.754 45.5084L255.636 45.9783L256.106 45.0956ZM258.249 41.0704L258.153 40.0749L257.619 40.1263L257.366 40.6005L258.249 41.0704ZM282.986 38.6954L283.081 39.6909L286.388 39.3734L283.456 37.8127L282.986 38.6954ZM264.696 28.9594L263.813 28.4895L263.343 29.3722L264.226 29.8421L264.696 28.9594ZM266.838 24.9341L267.308 24.0514L266.426 23.5815L265.956 24.4642L266.838 24.9341ZM290.531 37.5459L288.388 41.5712L290.154 42.5109L292.296 38.4857L290.531 37.5459ZM289.176 41.0455L264.404 43.4017L264.593 45.3927L289.365 43.0365L289.176 41.0455ZM264.029 45.2799L282.354 55.0348L283.294 53.2693L264.968 43.5144L264.029 45.2799ZM281.941 53.6822L279.799 57.7074L281.564 58.6472L283.707 54.6219L281.941 53.6822ZM281.151 57.2945L256.576 44.2129L255.636 45.9783L280.211 59.06L281.151 57.2945ZM256.989 45.5655L259.132 41.5403L257.366 40.6005L255.223 44.6257L256.989 45.5655ZM258.344 42.0658L283.081 39.6909L282.89 37.7L258.153 40.0749L258.344 42.0658ZM283.456 37.8127L265.166 28.0766L264.226 29.8421L282.516 39.5782L283.456 37.8127ZM265.578 29.4293L267.721 25.404L265.956 24.4642L263.813 28.4895L265.578 29.4293ZM266.369 25.8169L290.944 38.8985L291.883 37.1331L267.308 24.0514L266.369 25.8169Z" fill="#1E4364"/>
</svg>
