<svg width="328" height="138" viewBox="0 0 328 138" fill="none" xmlns="http://www.w3.org/2000/svg">
<path d="M53.903 36.0969L29.4858 49.3876L27.3058 45.3825L44.0289 36.2798L23.2516 37.9344L21.7409 35.1589L34.3908 18.573L17.6676 27.6757L15.4876 23.6705L39.9048 10.3799L42.2569 14.7012L27.7757 33.6957L51.5699 31.8108L53.903 36.0969Z" fill="#1E4364"/>
<path d="M53.903 36.0969L54.3811 36.9753L55.2594 36.4972L54.7813 35.6189L53.903 36.0969ZM29.4858 49.3876L28.6075 49.8657L29.0856 50.744L29.9639 50.2659L29.4858 49.3876ZM27.3058 45.3825L26.8277 44.5042L25.9494 44.9823L26.4274 45.8606L27.3058 45.3825ZM44.0289 36.2798L44.507 37.1581L43.9495 35.283L44.0289 36.2798ZM23.2516 37.9344L22.3733 38.4125L22.6837 38.9828L23.331 38.9312L23.2516 37.9344ZM21.7409 35.1589L20.9458 34.5525L20.5527 35.0678L20.8626 35.637L21.7409 35.1589ZM34.3908 18.573L35.1859 19.1794L33.9127 17.6947L34.3908 18.573ZM17.6676 27.6757L16.7893 28.1537L17.2674 29.0321L18.1457 28.554L17.6676 27.6757ZM15.4876 23.6705L15.0095 22.7922L14.1312 23.2703L14.6093 24.1486L15.4876 23.6705ZM39.9048 10.3799L40.7831 9.90179L40.305 9.02347L39.4267 9.50155L39.9048 10.3799ZM42.2569 14.7012L43.0522 15.3075L43.445 14.7922L43.1352 14.2231L42.2569 14.7012ZM27.7757 33.6957L26.9805 33.0894L25.6235 34.8693L27.8547 34.6926L27.7757 33.6957ZM51.5699 31.8108L52.4483 31.3327L52.138 30.7626L51.491 30.8139L51.5699 31.8108ZM53.4249 35.2186L29.0077 48.5093L29.9639 50.2659L54.3811 36.9753L53.4249 35.2186ZM30.3641 48.9095L28.1841 44.9044L26.4274 45.8606L28.6075 49.8657L30.3641 48.9095ZM27.7838 46.2608L44.507 37.1581L43.5508 35.4015L26.8277 44.5042L27.7838 46.2608ZM43.9495 35.283L23.1723 36.9375L23.331 38.9312L44.1083 37.2767L43.9495 35.283ZM24.1299 37.4563L22.6192 34.6808L20.8626 35.637L22.3733 38.4125L24.1299 37.4563ZM22.536 35.7653L35.1859 19.1794L33.5956 17.9665L20.9458 34.5525L22.536 35.7653ZM33.9127 17.6947L17.1896 26.7973L18.1457 28.554L34.8688 19.4513L33.9127 17.6947ZM18.546 27.1976L16.3659 23.1925L14.6093 24.1486L16.7893 28.1537L18.546 27.1976ZM15.9657 24.5489L40.3828 11.2582L39.4267 9.50155L15.0095 22.7922L15.9657 24.5489ZM39.0264 10.8579L41.3786 15.1793L43.1352 14.2231L40.7831 9.90179L39.0264 10.8579ZM41.4617 14.0949L26.9805 33.0894L28.571 34.302L43.0522 15.3075L41.4617 14.0949ZM27.8547 34.6926L51.6489 32.8076L51.491 30.8139L27.6967 32.6988L27.8547 34.6926ZM50.6916 32.2888L53.0247 36.575L54.7813 35.6189L52.4483 31.3327L50.6916 32.2888Z" fill="#1E4364"/>
<path d="M58.2735 46.7789L52.0808 52.0926L58.3323 59.3781L55.5091 61.8006L49.2576 54.5151L42.7917 60.0633L49.8247 68.2595L47.0015 70.6819L36.9991 59.0251L58.1271 40.8958L68.1295 52.5526L65.3064 54.9751L58.2735 46.7789Z" fill="#1E4364"/>
<path d="M58.2735 46.7789L59.0324 46.1277L58.3812 45.3687L57.6223 46.0199L58.2735 46.7789ZM52.0808 52.0926L51.4296 51.3337L50.6707 51.9849L51.3219 52.7438L52.0808 52.0926ZM58.3323 59.3781L58.9835 60.1371L59.7424 59.4859L59.0912 58.7269L58.3323 59.3781ZM55.5091 61.8006L54.7502 62.4518L55.4014 63.2107L56.1603 62.5595L55.5091 61.8006ZM49.2576 54.5151L50.0165 53.8639L49.3653 53.105L48.6064 53.7562L49.2576 54.5151ZM42.7917 60.0633L42.1405 59.3044L41.3816 59.9556L42.0328 60.7145L42.7917 60.0633ZM49.8247 68.2595L50.4759 69.0184L51.2348 68.3672L50.5836 67.6083L49.8247 68.2595ZM47.0015 70.6819L46.2426 71.3331L46.8938 72.0921L47.6527 71.4409L47.0015 70.6819ZM36.9991 59.0251L36.3479 58.2662L35.589 58.9174L36.2402 59.6763L36.9991 59.0251ZM58.1271 40.8958L58.886 40.2446L58.2348 39.4857L57.4759 40.1369L58.1271 40.8958ZM68.1295 52.5526L68.7807 53.3115L69.5396 52.6603L68.8884 51.9014L68.1295 52.5526ZM65.3064 54.9751L64.5475 55.6263L65.1987 56.3852L65.9576 55.734L65.3064 54.9751ZM57.6223 46.0199L51.4296 51.3337L52.732 52.8515L58.9247 47.5378L57.6223 46.0199ZM51.3219 52.7438L57.5733 60.0293L59.0912 58.7269L52.8397 51.4414L51.3219 52.7438ZM57.6811 58.6192L54.8579 61.0417L56.1603 62.5595L58.9835 60.1371L57.6811 58.6192ZM56.268 61.1494L50.0165 53.8639L48.4987 55.1663L54.7502 62.4518L56.268 61.1494ZM48.6064 53.7562L42.1405 59.3044L43.4429 60.8222L49.9088 55.274L48.6064 53.7562ZM42.0328 60.7145L49.0657 68.9107L50.5836 67.6083L43.5506 59.4121L42.0328 60.7145ZM49.1735 67.5006L46.3503 69.923L47.6527 71.4409L50.4759 69.0184L49.1735 67.5006ZM47.7604 70.0307L37.758 58.3739L36.2402 59.6763L46.2426 71.3331L47.7604 70.0307ZM37.6503 59.784L58.7783 41.6547L57.4759 40.1369L36.3479 58.2662L37.6503 59.784ZM57.3682 41.547L67.3706 53.2038L68.8884 51.9014L58.886 40.2446L57.3682 41.547ZM67.4783 51.7937L64.6552 54.2162L65.9576 55.734L68.7807 53.3115L67.4783 51.7937ZM66.0653 54.3239L59.0324 46.1277L57.5145 47.4301L64.5475 55.6263L66.0653 54.3239Z" fill="#1E4364"/>
<path d="M79.1516 62.5257C81.4663 64.3707 83.1317 66.4313 84.1477 68.7075C85.2013 70.9795 85.5324 73.3236 85.1411 75.7398C84.7872 78.1518 83.7293 80.463 81.9675 82.6734C80.2056 84.8838 78.1968 86.42 75.9411 87.2819C73.7063 88.1605 71.364 88.3396 68.9143 87.8192C66.502 87.2946 64.1385 86.1098 61.8239 84.2648L54.7235 78.6053L72.0512 56.8661L79.1516 62.5257ZM64.1426 81.3559C66.6866 83.3837 69.1848 84.2496 71.6373 83.9537C74.0897 83.6578 76.3132 82.2587 78.3078 79.7563C80.319 77.2331 81.212 74.7223 80.9868 72.224C80.7616 69.7256 79.377 67.4625 76.8329 65.4347L73.2984 62.6174L60.608 78.5385L64.1426 81.3559Z" fill="#1E4364"/>
<path d="M84.1477 68.7075L83.2346 69.1151L83.2375 69.1217L83.2405 69.1282L84.1477 68.7075ZM85.1411 75.7398L84.1539 75.58L84.1527 75.5873L84.1516 75.5947L85.1411 75.7398ZM75.9411 87.2819L75.5842 86.3477L75.5753 86.3512L75.9411 87.2819ZM68.9143 87.8192L68.7018 88.7964L68.7065 88.7974L68.9143 87.8192ZM54.7235 78.6053L53.9415 77.982L53.3182 78.7639L54.1002 79.3872L54.7235 78.6053ZM72.0512 56.8661L72.6745 56.0842L71.8925 55.4609L71.2692 56.2428L72.0512 56.8661ZM71.6373 83.9537L71.5175 82.9609L71.6373 83.9537ZM73.2984 62.6174L73.9217 61.8354L73.1397 61.2121L72.5164 61.9941L73.2984 62.6174ZM60.608 78.5385L59.826 77.9152L59.2027 78.6972L59.9847 79.3205L60.608 78.5385ZM78.5283 63.3077C80.7412 65.0715 82.2949 67.0101 83.2346 69.1151L85.0609 68.2999C83.9684 65.8524 82.1914 63.6699 79.7749 61.7437L78.5283 63.3077ZM83.2405 69.1282C84.2121 71.2235 84.5125 73.3657 84.1539 75.58L86.1282 75.8997C86.5522 73.2816 86.1904 70.7356 85.0549 68.2869L83.2405 69.1282ZM84.1516 75.5947C83.8273 77.8055 82.855 79.9556 81.1855 82.0501L82.7495 83.2967C84.6037 80.9704 85.7471 78.4981 86.1305 75.885L84.1516 75.5947ZM81.1855 82.0501C79.5158 84.1448 77.6464 85.5598 75.5842 86.3478L76.2981 88.216C78.7473 87.2801 80.8954 85.6227 82.7495 83.2967L81.1855 82.0501ZM75.5753 86.3512C73.531 87.1549 71.3887 87.3225 69.1221 86.841L68.7065 88.7974C71.3393 89.3566 73.8816 89.166 76.307 88.2126L75.5753 86.3512ZM69.1268 86.842C66.8916 86.3559 64.6654 85.2509 62.4472 83.4828L61.2006 85.0468C63.6117 86.9687 66.1124 88.2332 68.7018 88.7963L69.1268 86.842ZM62.4472 83.4828L55.3468 77.8233L54.1002 79.3872L61.2006 85.0468L62.4472 83.4828ZM55.5055 79.2286L72.8332 57.4894L71.2692 56.2428L53.9415 77.982L55.5055 79.2286ZM71.4279 57.6481L78.5283 63.3077L79.7749 61.7437L72.6745 56.0842L71.4279 57.6481ZM63.5193 82.1378C66.2037 84.2775 68.9622 85.2837 71.7571 84.9465L71.5175 82.9609C69.4075 83.2155 67.1695 82.4898 64.7659 80.5739L63.5193 82.1378ZM71.7571 84.9465C74.5407 84.6106 76.9819 83.0241 79.0898 80.3796L77.5258 79.133C75.6446 81.4932 73.6388 82.705 71.5175 82.9609L71.7571 84.9465ZM79.0898 80.3796C81.2137 77.715 82.2371 74.9562 81.9828 72.1342L79.9908 72.3137C80.1868 74.4885 79.4243 76.7513 77.5258 79.133L79.0898 80.3796ZM81.9828 72.1342C81.7263 69.2893 80.1472 66.7976 77.4562 64.6527L76.2096 66.2167C78.6068 68.1274 79.7969 70.1618 79.9908 72.3137L81.9828 72.1342ZM77.4562 64.6527L73.9217 61.8354L72.6751 63.3993L76.2096 66.2167L77.4562 64.6527ZM72.5164 61.9941L59.826 77.9152L61.39 79.1618L74.0804 63.2407L72.5164 61.9941ZM59.9847 79.3205L63.5193 82.1378L64.7659 80.5739L61.2313 77.7566L59.9847 79.3205Z" fill="#1E4364"/>
<path d="M100.169 76.7656L86.4595 100.95L82.4926 98.701L96.2026 74.5168L100.169 76.7656Z" fill="#1E4364"/>
<path d="M100.169 76.7656L101.039 77.2588L101.533 76.3889L100.663 75.8957L100.169 76.7656ZM86.4595 100.95L85.9664 101.82L86.8363 102.313L87.3295 101.443L86.4595 100.95ZM82.4926 98.701L81.6227 98.2079L81.1295 99.0778L81.9995 99.571L82.4926 98.701ZM96.2026 74.5168L96.6957 73.6469L95.8258 73.1537L95.3326 74.0236L96.2026 74.5168ZM99.2996 76.2725L85.5896 100.457L87.3295 101.443L101.039 77.2588L99.2996 76.2725ZM86.9527 100.08L82.9858 97.8311L81.9995 99.571L85.9664 101.82L86.9527 100.08ZM83.3626 99.1942L97.0725 75.01L95.3326 74.0236L81.6227 98.2079L83.3626 99.1942ZM95.7094 75.3867L99.6763 77.6356L100.663 75.8957L96.6957 73.6469L95.7094 75.3867Z" fill="#1E4364"/>
<path d="M100.185 93.0518C101.123 90.4987 102.553 88.4247 104.474 86.8296C106.421 85.2438 108.615 84.2603 111.056 83.879C113.532 83.482 115.984 83.7296 118.411 84.6219C121.19 85.643 123.402 87.2375 125.049 89.4052C126.73 91.5571 127.598 94.064 127.654 96.9257L122.511 95.0353C122.341 93.4103 121.78 92.0391 120.826 90.9217C119.873 89.8044 118.608 88.9559 117.032 88.3764C115.305 87.7417 113.623 87.5639 111.986 87.8431C110.349 88.1222 108.876 88.8451 107.566 90.0116C106.282 91.1874 105.286 92.7389 104.577 94.6662C103.869 96.5935 103.624 98.421 103.841 100.149C104.083 101.886 104.733 103.403 105.79 104.701C106.857 105.973 108.253 106.927 109.981 107.562C111.557 108.141 113.071 108.314 114.521 108.08C115.97 107.845 117.286 107.164 118.468 106.036L123.611 107.926C121.715 110.07 119.43 111.418 116.756 111.97C114.107 112.53 111.393 112.3 108.614 111.279C106.162 110.377 104.128 108.991 102.515 107.119C100.911 105.223 99.8804 103.04 99.4241 100.571C98.9928 98.1112 99.2463 95.6048 100.185 93.0518Z" fill="#1E4364"/>
<path d="M104.474 86.8296L103.843 86.0543L103.836 86.0602L104.474 86.8296ZM111.056 83.879L111.211 84.8671L111.215 84.8664L111.056 83.879ZM125.049 89.4052L124.252 90.0101L124.261 90.0208L125.049 89.4052ZM127.654 96.9257L127.31 97.8643L128.683 98.3691L128.654 96.9061L127.654 96.9257ZM122.511 95.0353L121.516 95.1393L121.581 95.759L122.166 95.9739L122.511 95.0353ZM120.826 90.9217L121.587 90.2728L120.826 90.9217ZM111.986 87.8431L112.154 88.8288L112.154 88.8288L111.986 87.8431ZM107.566 90.0116L106.901 89.2649L106.891 89.274L107.566 90.0116ZM103.841 100.149L102.849 100.274L102.85 100.287L103.841 100.149ZM105.79 104.701L105.015 105.332L105.024 105.343L105.79 104.701ZM114.521 108.08L114.68 109.067L114.521 108.08ZM118.468 106.036L118.813 105.097L118.228 104.882L117.777 105.313L118.468 106.036ZM123.611 107.926L124.361 108.589L125.33 107.492L123.956 106.988L123.611 107.926ZM116.756 111.97L116.554 110.99L116.549 110.991L116.756 111.97ZM102.515 107.119L101.751 107.765L101.758 107.772L102.515 107.119ZM99.4241 100.571L98.4391 100.744L98.4407 100.753L99.4241 100.571ZM101.123 93.3967C102.006 90.994 103.339 89.0716 105.113 87.5991L103.836 86.0602C101.767 87.7778 100.24 90.0035 99.246 92.7068L101.123 93.3967ZM105.106 87.6049C106.917 86.1291 108.947 85.2205 111.211 84.8671L110.902 82.891C108.282 83.3 105.924 84.3584 103.843 86.0544L105.106 87.6049ZM111.215 84.8664C113.516 84.4974 115.794 84.7254 118.066 85.5605L118.756 83.6833C116.173 82.7339 113.548 82.4666 110.898 82.8917L111.215 84.8664ZM118.066 85.5605C120.682 86.5218 122.731 88.0076 124.253 90.0101L125.845 88.8003C124.073 86.4673 121.698 84.7643 118.756 83.6833L118.066 85.5605ZM124.261 90.0208C125.802 91.9936 126.602 94.2888 126.655 96.9454L128.654 96.9061C128.594 93.8392 127.658 91.1207 125.837 88.7896L124.261 90.0208ZM127.999 95.9871L122.856 94.0967L122.166 95.9739L127.31 97.8643L127.999 95.9871ZM123.505 94.9313C123.317 93.1288 122.686 91.5611 121.587 90.2728L120.066 91.5707C120.873 92.5171 121.365 93.6918 121.516 95.1393L123.505 94.9313ZM121.587 90.2728C120.508 89.007 119.091 88.0679 117.377 87.4378L116.687 89.315C118.126 89.844 119.239 90.6018 120.066 91.5707L121.587 90.2728ZM117.377 87.4378C115.504 86.7495 113.645 86.5457 111.818 86.8573L112.154 88.8288C113.6 88.5821 115.105 88.7339 116.687 89.315L117.377 87.4378ZM111.818 86.8573C109.986 87.1698 108.343 87.981 106.901 89.265L108.232 90.7583C109.409 89.7091 110.713 89.0747 112.154 88.8288L111.818 86.8573ZM106.891 89.274C105.469 90.5755 104.392 92.2707 103.639 94.3212L105.516 95.0112C106.179 93.2071 107.095 91.7993 108.242 90.7493L106.891 89.274ZM103.639 94.3212C102.885 96.3718 102.608 98.3611 102.849 100.274L104.833 100.024C104.639 98.4809 104.853 96.8152 105.516 95.0112L103.639 94.3212ZM102.85 100.287C103.117 102.196 103.837 103.886 105.015 105.332L106.566 104.069C105.629 102.92 105.05 101.575 104.831 100.01L102.85 100.287ZM105.024 105.343C106.214 106.764 107.763 107.812 109.636 108.5L110.325 106.623C108.744 106.042 107.499 105.183 106.557 104.058L105.024 105.343ZM109.636 108.5C111.35 109.13 113.038 109.332 114.68 109.067L114.361 107.092C113.104 107.296 111.765 107.152 110.325 106.623L109.636 108.5ZM114.68 109.067C116.352 108.797 117.848 108.011 119.158 106.759L117.777 105.313C116.725 106.318 115.589 106.894 114.361 107.092L114.68 109.067ZM118.123 106.974L123.267 108.865L123.956 106.988L118.813 105.097L118.123 106.974ZM122.862 107.264C121.102 109.254 119.006 110.485 116.554 110.99L116.958 112.949C119.855 112.352 122.329 110.887 124.361 108.589L122.862 107.264ZM116.549 110.991C114.101 111.509 111.578 111.302 108.959 110.34L108.269 112.217C111.207 113.297 114.112 113.551 116.963 112.948L116.549 110.991ZM108.959 110.34C106.657 109.494 104.768 108.201 103.272 106.466L101.758 107.772C103.488 109.78 105.667 111.261 108.269 112.217L108.959 110.34ZM103.278 106.473C101.788 104.711 100.832 102.689 100.407 100.389L98.4407 100.753C98.9283 103.391 100.033 105.734 101.751 107.765L103.278 106.473ZM100.409 100.398C100.011 98.1274 100.24 95.7995 101.123 93.3967L99.246 92.7068C98.2525 95.4101 97.9747 98.095 98.4391 100.744L100.409 100.398Z" fill="#1E4364"/>
<path d="M148.836 114.553L137.302 112.984L134.554 118.342L129.838 117.701L143.46 91.4575L148.692 92.1693L154.808 121.098L150.052 120.451L148.836 114.553ZM148.069 110.694L145.332 97.283L139.072 109.47L148.069 110.694Z" fill="#1E4364"/>
<path d="M148.836 114.553L149.815 114.351L149.672 113.658L148.97 113.562L148.836 114.553ZM137.302 112.984L137.437 111.993L136.735 111.897L136.412 112.528L137.302 112.984ZM134.554 118.342L134.42 119.333L135.121 119.429L135.444 118.799L134.554 118.342ZM129.838 117.701L128.95 117.24L128.296 118.5L129.703 118.692L129.838 117.701ZM143.46 91.4575L143.595 90.4666L142.897 90.3716L142.572 90.9968L143.46 91.4575ZM148.692 92.1692L149.67 91.9624L149.525 91.2733L148.827 91.1784L148.692 92.1692ZM154.808 121.098L154.673 122.089L156.08 122.28L155.786 120.891L154.808 121.098ZM150.052 120.451L149.072 120.653L149.215 121.346L149.917 121.442L150.052 120.451ZM148.069 110.694L147.934 111.685L149.33 111.875L149.049 110.494L148.069 110.694ZM145.332 97.283L146.312 97.083L145.743 94.2947L144.442 96.8261L145.332 97.283ZM139.072 109.47L138.182 109.013L137.536 110.271L138.937 110.461L139.072 109.47ZM148.97 113.562L137.437 111.993L137.167 113.975L148.701 115.544L148.97 113.562ZM136.412 112.528L133.665 117.886L135.444 118.799L138.192 113.44L136.412 112.528ZM134.689 117.351L129.973 116.71L129.703 118.692L134.42 119.333L134.689 117.351ZM130.725 118.161L144.348 91.9182L142.572 90.9968L128.95 117.24L130.725 118.161ZM143.325 92.4483L148.557 93.1601L148.827 91.1784L143.595 90.4666L143.325 92.4483ZM147.713 92.3761L153.829 121.305L155.786 120.891L149.67 91.9624L147.713 92.3761ZM154.943 120.107L150.186 119.46L149.917 121.442L154.673 122.089L154.943 120.107ZM151.031 120.249L149.815 114.351L147.856 114.755L149.072 120.653L151.031 120.249ZM149.049 110.494L146.312 97.083L144.352 97.4829L147.089 110.894L149.049 110.494ZM144.442 96.8261L138.182 109.013L139.961 109.927L146.221 97.7399L144.442 96.8261ZM138.937 110.461L147.934 111.685L148.204 109.703L139.207 108.479L138.937 110.461Z" fill="#1E4364"/>
<path d="M191.245 91.0516L193.95 118.72L189.412 119.163L187.559 100.214L180.972 119.989L177.827 120.296L167.494 102.176L169.348 121.126L164.809 121.569L162.104 93.9014L167 93.4225L178.836 114.169L186.388 91.5266L191.245 91.0516Z" fill="#1E4364"/>
<path d="M191.245 91.0516L192.24 90.9543L192.142 89.959L191.147 90.0563L191.245 91.0516ZM193.95 118.72L194.048 119.715L195.043 119.618L194.946 118.622L193.95 118.72ZM189.412 119.163L188.417 119.261L188.514 120.256L189.509 120.159L189.412 119.163ZM187.559 100.214L188.554 100.116L186.61 99.8978L187.559 100.214ZM180.972 119.989L181.07 120.984L181.716 120.921L181.921 120.305L180.972 119.989ZM177.827 120.296L176.958 120.792L177.28 121.355L177.925 121.292L177.827 120.296ZM167.494 102.176L168.363 101.681L166.499 102.273L167.494 102.176ZM169.348 121.126L169.445 122.121L170.44 122.024L170.343 121.028L169.348 121.126ZM164.809 121.569L163.814 121.667L163.911 122.662L164.907 122.565L164.809 121.569ZM162.104 93.9014L162.006 92.9062L161.011 93.0035L161.108 93.9987L162.104 93.9014ZM167 93.4225L167.869 92.927L167.548 92.3642L166.903 92.4273L167 93.4225ZM178.836 114.169L177.967 114.665L179.076 116.609L179.784 114.486L178.836 114.169ZM186.388 91.5266L186.29 90.5313L185.644 90.5945L185.439 91.2102L186.388 91.5266ZM190.249 91.1489L192.955 118.817L194.946 118.622L192.24 90.9543L190.249 91.1489ZM193.853 117.724L189.315 118.168L189.509 120.159L194.048 119.715L193.853 117.724ZM190.407 119.066L188.554 100.116L186.564 100.311L188.417 119.261L190.407 119.066ZM186.61 99.8978L180.023 119.673L181.921 120.305L188.508 100.53L186.61 99.8978ZM180.875 118.994L177.73 119.301L177.925 121.292L181.07 120.984L180.875 118.994ZM178.696 119.801L168.363 101.681L166.626 102.671L176.958 120.792L178.696 119.801ZM166.499 102.273L168.352 121.223L170.343 121.028L168.49 102.079L166.499 102.273ZM169.25 120.13L164.712 120.574L164.907 122.565L169.445 122.121L169.25 120.13ZM165.805 121.472L163.099 93.8041L161.108 93.9987L163.814 121.667L165.805 121.472ZM162.201 94.8967L167.097 94.4178L166.903 92.4273L162.006 92.9062L162.201 94.8967ZM166.132 93.9181L177.967 114.665L179.704 113.674L167.869 92.927L166.132 93.9181ZM179.784 114.486L187.336 91.843L185.439 91.2102L177.887 113.853L179.784 114.486ZM186.485 92.5218L191.342 92.0468L191.147 90.0563L186.29 90.5313L186.485 92.5218Z" fill="#1E4364"/>
<path d="M202.785 91.1972L205.26 98.9728L214.407 96.0609L215.536 99.6056L206.388 102.518L208.972 110.636L219.264 107.36L220.392 110.905L205.756 115.564L197.311 89.0356L211.947 84.3766L213.076 87.9213L202.785 91.1972Z" fill="#1E4364"/>
<path d="M202.785 91.1972L202.481 90.2443L201.528 90.5476L201.832 91.5005L202.785 91.1972ZM205.26 98.9728L204.307 99.2761L204.61 100.229L205.563 99.9256L205.26 98.9728ZM214.407 96.0609L215.36 95.7576L215.057 94.8047L214.104 95.108L214.407 96.0609ZM215.536 99.6056L215.839 100.559L216.792 100.255L216.489 99.3023L215.536 99.6056ZM206.388 102.517L206.085 101.565L205.132 101.868L205.435 102.821L206.388 102.517ZM208.972 110.636L208.02 110.939L208.323 111.892L209.276 111.589L208.972 110.636ZM219.264 107.36L220.216 107.057L219.913 106.104L218.96 106.407L219.264 107.36ZM220.392 110.905L220.695 111.858L221.648 111.555L221.345 110.602L220.392 110.905ZM205.756 115.564L204.803 115.867L205.106 116.82L206.059 116.517L205.756 115.564ZM197.311 89.0356L197.008 88.0827L196.055 88.386L196.358 89.3389L197.311 89.0356ZM211.947 84.3766L212.9 84.0733L212.597 83.1204L211.644 83.4237L211.947 84.3766ZM213.076 87.9213L213.379 88.8742L214.332 88.5709L214.029 87.618L213.076 87.9213ZM201.832 91.5005L204.307 99.2761L206.213 98.6694L203.738 90.8939L201.832 91.5005ZM205.563 99.9256L214.711 97.0138L214.104 95.108L204.956 98.0199L205.563 99.9256ZM213.455 96.3642L214.583 99.9089L216.489 99.3023L215.36 95.7576L213.455 96.3642ZM215.233 98.6527L206.085 101.565L206.691 103.47L215.839 100.559L215.233 98.6527ZM205.435 102.821L208.02 110.939L209.925 110.333L207.341 102.214L205.435 102.821ZM209.276 111.589L219.567 108.313L218.96 106.407L208.669 109.683L209.276 111.589ZM218.311 107.664L219.439 111.208L221.345 110.602L220.216 107.057L218.311 107.664ZM220.089 109.952L205.452 114.611L206.059 116.517L220.695 111.858L220.089 109.952ZM206.708 115.261L198.264 88.7323L196.358 89.3389L204.803 115.867L206.708 115.261ZM197.614 89.9885L212.251 85.3295L211.644 83.4237L197.008 88.0827L197.614 89.9885ZM210.995 84.6799L212.123 88.2246L214.029 87.618L212.9 84.0733L210.995 84.6799ZM212.773 86.9684L202.481 90.2443L203.088 92.1501L213.379 88.8742L212.773 86.9684Z" fill="#1E4364"/>
<path d="M250.779 96.0015L246.77 98.1751L224.813 86.465L234.709 104.715L230.7 106.888L217.43 82.4147L221.439 80.2411L243.376 91.916L233.5 73.7013L237.508 71.5277L250.779 96.0015Z" fill="#1E4364"/>
<path d="M250.779 96.0015L251.255 96.8806L252.134 96.4039L251.658 95.5248L250.779 96.0015ZM246.77 98.175L246.299 99.0574L246.774 99.3105L247.247 99.0541L246.77 98.175ZM224.813 86.465L225.284 85.5827L222.349 84.0171L223.934 86.9417L224.813 86.465ZM234.709 104.715L235.186 105.594L236.065 105.117L235.588 104.238L234.709 104.715ZM230.7 106.888L229.821 107.365L230.298 108.244L231.177 107.768L230.7 106.888ZM217.43 82.4147L216.953 81.5356L216.074 82.0123L216.551 82.8914L217.43 82.4147ZM221.439 80.2411L221.908 79.3583L221.434 79.106L220.962 79.362L221.439 80.2411ZM243.376 91.916L242.906 92.7987L245.838 94.3592L244.255 91.4393L243.376 91.916ZM233.5 73.7013L233.023 72.8222L232.144 73.2989L232.621 74.178L233.5 73.7013ZM237.508 71.5277L238.387 71.051L237.911 70.172L237.032 70.6486L237.508 71.5277ZM250.302 95.1224L246.293 97.296L247.247 99.0541L251.255 96.8806L250.302 95.1224ZM247.241 97.2927L225.284 85.5827L224.343 87.3474L246.299 99.0574L247.241 97.2927ZM223.934 86.9417L233.83 105.192L235.588 104.238L225.692 85.9884L223.934 86.9417ZM234.232 103.836L230.224 106.009L231.177 107.768L235.186 105.594L234.232 103.836ZM231.579 106.412L218.309 81.938L216.551 82.8914L229.821 107.365L231.579 106.412ZM217.907 83.2938L221.915 81.1202L220.962 79.362L216.953 81.5356L217.907 83.2938ZM220.969 81.1239L242.906 92.7987L243.846 91.0332L221.908 79.3583L220.969 81.1239ZM244.255 91.4393L234.379 73.2246L232.621 74.178L242.497 92.3926L244.255 91.4393ZM233.976 74.5804L237.985 72.4068L237.032 70.6486L233.023 72.8222L233.976 74.5804ZM236.629 72.0044L249.9 96.4781L251.658 95.5248L238.387 71.051L236.629 72.0044Z" fill="#1E4364"/>
<path d="M256.327 56.4141L258.7 59.2788L253.002 63.9996L268.363 82.5432L264.852 85.4523L249.49 66.9086L243.761 71.6549L241.388 68.7902L256.327 56.4141Z" fill="#1E4364"/>
<path d="M256.327 56.4141L257.097 55.7762L256.459 55.0061L255.689 55.644L256.327 56.4141ZM258.7 59.2788L259.338 60.0489L260.108 59.411L259.47 58.6409L258.7 59.2788ZM253.002 63.9996L252.364 63.2295L251.594 63.8675L252.232 64.6376L253.002 63.9996ZM268.363 82.5432L269.001 83.3133L269.771 82.6754L269.133 81.9053L268.363 82.5432ZM264.852 85.4523L264.082 86.0902L264.72 86.8603L265.49 86.2223L264.852 85.4523ZM249.49 66.9086L250.26 66.2707L249.622 65.5006L248.852 66.1386L249.49 66.9086ZM243.761 71.6549L242.991 72.2929L243.629 73.063L244.399 72.425L243.761 71.6549ZM241.388 68.7902L240.75 68.0201L239.98 68.6581L240.617 69.4282L241.388 68.7902ZM255.557 57.0521L257.93 59.9168L259.47 58.6409L257.097 55.7762L255.557 57.0521ZM258.062 58.5088L252.364 63.2295L253.64 64.7697L259.338 60.0489L258.062 58.5088ZM252.232 64.6376L267.593 83.1812L269.133 81.9053L253.772 63.3617L252.232 64.6376ZM267.725 81.7732L264.214 84.6822L265.49 86.2223L269.001 83.3133L267.725 81.7732ZM265.622 84.8143L250.26 66.2707L248.72 67.5466L264.082 86.0902L265.622 84.8143ZM248.852 66.1386L243.123 70.8849L244.399 72.425L250.128 67.6787L248.852 66.1386ZM244.531 71.017L242.158 68.1523L240.617 69.4282L242.991 72.2929L244.531 71.017ZM242.026 69.5603L256.965 57.1842L255.689 55.644L240.75 68.0201L242.026 69.5603Z" fill="#1E4364"/>
<path d="M289.824 60.8532C288.208 62.8734 286.249 64.3626 283.946 65.3208C281.639 66.2416 279.243 66.5273 276.756 66.1779C274.266 65.791 271.958 64.7481 269.834 63.0493C267.71 61.3505 266.196 59.3372 265.292 57.0093C264.404 54.6606 264.166 52.2681 264.578 49.8317C264.986 47.3578 265.997 45.1108 267.613 43.0907C269.245 41.0498 271.215 39.5689 273.522 38.6481C275.825 37.6899 278.211 37.3958 280.681 37.7661C283.15 38.1363 285.447 39.1708 287.572 40.8696C289.696 42.5684 291.22 44.5901 292.145 46.9346C293.05 49.2625 293.298 51.6634 292.89 54.1372C292.478 56.5736 291.456 58.8123 289.824 60.8532ZM286.731 58.38C287.88 56.943 288.582 55.404 288.836 53.7631C289.069 52.1056 288.831 50.4814 288.123 48.8906C287.41 47.2624 286.252 45.807 284.649 44.5246C283.045 43.2422 281.381 42.4408 279.657 42.1204C277.949 41.7792 276.323 41.9127 274.778 42.521C273.233 43.1293 271.886 44.152 270.737 45.589C269.588 47.026 268.886 48.5649 268.632 50.2058C268.379 51.8467 268.598 53.473 269.289 55.0846C269.997 56.6753 271.153 58.1119 272.757 59.3944C274.361 60.6768 276.027 61.497 277.755 61.8548C279.479 62.1752 281.124 62.0396 282.69 61.4479C284.235 60.8396 285.582 59.817 286.731 58.38Z" fill="#1E4364"/>
<path d="M283.946 65.3208L284.317 66.2496L284.324 66.2469L284.331 66.2441L283.946 65.3208ZM276.756 66.1779L276.603 67.166L276.61 67.1671L276.617 67.1681L276.756 66.1779ZM265.292 57.0093L264.356 57.3628L264.359 57.3714L265.292 57.0093ZM264.578 49.8317L265.564 49.9984L265.565 49.9943L264.578 49.8317ZM273.522 38.6481L273.893 39.5769L273.899 39.5742L273.906 39.5714L273.522 38.6481ZM280.681 37.7661L280.532 38.755L280.681 37.7661ZM292.145 46.9346L293.078 46.5726L293.076 46.5677L292.145 46.9346ZM292.89 54.1372L293.876 54.3039L293.877 54.2999L292.89 54.1372ZM288.836 53.7631L289.824 53.916L289.826 53.9023L288.836 53.7631ZM288.123 48.8906L287.207 49.2915L287.209 49.2974L288.123 48.8906ZM279.657 42.1204L279.461 43.1011L279.474 43.1035L279.657 42.1204ZM274.778 42.521L275.145 43.4515L274.778 42.521ZM268.632 50.2058L269.621 50.3586L269.621 50.3586L268.632 50.2058ZM269.289 55.0846L268.37 55.479L268.376 55.4913L269.289 55.0846ZM277.755 61.8548L277.552 62.8341L277.562 62.8361L277.572 62.838L277.755 61.8548ZM282.69 61.4479L283.044 62.3835L283.056 62.3784L282.69 61.4479ZM289.043 60.2287C287.528 62.1225 285.704 63.5064 283.562 64.3976L284.331 66.2441C286.795 65.2188 288.888 63.6242 290.605 61.4778L289.043 60.2287ZM283.576 64.3921C281.432 65.2476 279.211 65.5131 276.895 65.1876L276.617 67.1681C279.274 67.5415 281.846 67.2356 284.317 66.2496L283.576 64.3921ZM276.91 65.1897C274.605 64.8317 272.458 63.8671 270.459 62.2684L269.21 63.8303C271.459 65.6292 273.926 66.7503 276.603 67.166L276.91 65.1897ZM270.459 62.2684C268.459 60.6695 267.058 58.7964 266.224 56.6473L264.359 57.3714C265.333 59.878 266.96 62.0315 269.21 63.8303L270.459 62.2684ZM266.227 56.6559C265.401 54.4702 265.182 52.257 265.564 49.9984L263.592 49.665C263.15 52.2791 263.407 54.851 264.356 57.3628L266.227 56.6559ZM265.565 49.9943C265.944 47.695 266.882 45.606 268.394 43.7153L266.832 42.4662C265.113 44.6157 264.028 47.0207 263.591 49.6691L265.565 49.9943ZM268.394 43.7153C269.924 41.8022 271.755 40.4301 273.893 39.5769L273.151 37.7194C270.675 38.7077 268.566 40.2973 266.832 42.4662L268.394 43.7153ZM273.906 39.5714C276.041 38.6832 278.243 38.4118 280.532 38.755L280.829 36.7771C278.179 36.3799 275.609 36.6965 273.138 37.7249L273.906 39.5714ZM280.532 38.755C282.812 39.0968 284.948 40.0518 286.947 41.6506L288.196 40.0887C285.947 38.2899 283.488 37.1758 280.829 36.7771L280.532 38.755ZM286.947 41.6506C288.946 43.2494 290.359 45.1322 291.215 47.3016L293.076 46.5677C292.082 44.0481 290.446 41.8875 288.196 40.0887L286.947 41.6506ZM291.213 47.2967C292.052 49.457 292.282 51.6766 291.903 53.9746L293.877 54.2999C294.313 51.6501 294.047 49.068 293.078 46.5726L291.213 47.2967ZM291.904 53.9706C291.522 56.2297 290.575 58.3125 289.043 60.2287L290.605 61.4778C292.337 59.312 293.434 56.9176 293.876 54.3039L291.904 53.9706ZM287.512 59.0045C288.758 57.4462 289.541 55.7477 289.824 53.916L287.847 53.6103C287.623 55.0604 287.002 56.4397 285.95 57.7554L287.512 59.0045ZM289.826 53.9023C290.086 52.0515 289.818 50.2386 289.036 48.4839L287.209 49.2974C287.844 50.7242 288.051 52.1597 287.845 53.624L289.826 53.9023ZM289.039 48.4898C288.252 46.6915 286.984 45.1115 285.273 43.7436L284.024 45.3056C285.521 46.5026 286.569 47.8332 287.207 49.2915L289.039 48.4898ZM285.273 43.7436C283.563 42.3761 281.751 41.4924 279.84 41.1372L279.474 43.1035C281.011 43.3891 282.527 44.1083 284.024 45.3056L285.273 43.7436ZM279.853 41.1398C277.967 40.7628 276.144 40.9083 274.412 41.5905L275.145 43.4515C276.502 42.9171 277.932 42.7955 279.461 43.101L279.853 41.1398ZM274.412 41.5905C272.687 42.2696 271.202 43.4061 269.956 44.9644L271.518 46.2135C272.57 44.8978 273.779 43.9891 275.145 43.4515L274.412 41.5905ZM269.956 44.9644C268.71 46.5227 267.927 48.2213 267.644 50.053L269.621 50.3586C269.845 48.9086 270.466 47.5292 271.518 46.2135L269.956 44.9644ZM267.644 50.053C267.36 51.8898 267.609 53.7052 268.37 55.4789L270.208 54.6902C269.586 53.2408 269.397 51.8037 269.621 50.3586L267.644 50.053ZM268.376 55.4913C269.16 57.2522 270.426 58.8109 272.132 60.1754L273.382 58.6134C271.881 57.413 270.835 56.0985 270.203 54.6778L268.376 55.4913ZM272.132 60.1754C273.839 61.5401 275.646 62.4394 277.552 62.8341L277.958 60.8756C276.407 60.5545 274.882 59.8135 273.382 58.6134L272.132 60.1754ZM277.572 62.838C279.467 63.1901 281.298 63.0428 283.043 62.3834L282.337 60.5125C280.95 61.0364 279.491 61.1603 277.938 60.8716L277.572 62.838ZM283.056 62.3784C284.781 61.6994 286.266 60.5629 287.512 59.0045L285.95 57.7554C284.898 59.0711 283.689 59.9799 282.324 60.5174L283.056 62.3784Z" fill="#1E4364"/>
<path d="M308.153 32.3381C307.317 34.0075 306.28 35.3668 305.039 36.416C303.775 37.4532 302.415 38.085 300.96 38.3112C299.505 38.5375 298.062 38.2927 296.631 37.5768L298.815 33.2125C299.936 33.654 301.027 33.6781 302.088 33.2848C303.162 32.8677 304.038 31.9794 304.718 30.62C305.422 29.213 305.637 27.9489 305.363 26.8278C305.065 25.6948 304.38 24.8599 303.307 24.3229C302.472 23.9054 301.667 23.8157 300.892 24.0541C300.128 24.2685 299.419 24.6739 298.763 25.27C298.119 25.8423 297.308 26.6888 296.329 27.8096C295.089 29.2166 293.997 30.3254 293.055 31.1361C292.101 31.9111 290.98 32.4236 289.692 32.6738C288.404 32.9239 286.984 32.6612 285.434 31.8857C284.003 31.1698 282.93 30.1857 282.215 28.9333C281.5 27.681 281.178 26.2677 281.25 24.6935C281.322 23.1193 281.781 21.4856 282.629 19.7924C283.834 17.3837 285.426 15.7204 287.406 14.8026C289.374 13.849 291.449 13.8137 293.631 14.6967L291.376 19.2041C290.434 18.8222 289.444 18.8637 288.407 19.3286C287.369 19.7935 286.528 20.6698 285.884 21.9576C285.299 23.1262 285.12 24.2293 285.346 25.2669C285.573 26.3045 286.246 27.1037 287.367 27.6644C288.13 28.0462 288.876 28.1358 289.603 27.9333C290.319 27.6949 290.999 27.2896 291.643 26.7173C292.287 26.145 293.086 25.3223 294.04 24.2493C295.317 22.8304 296.438 21.7216 297.404 20.9228C298.382 20.1001 299.527 19.5697 300.839 19.3315C302.139 19.0575 303.576 19.3142 305.15 20.1017C306.414 20.734 307.434 21.6764 308.208 22.9288C308.995 24.1573 309.406 25.6004 309.442 27.2581C309.465 28.88 309.036 30.5733 308.153 32.3381Z" fill="#1E4364"/>
<path d="M305.039 36.416L305.673 37.1891L305.679 37.1844L305.685 37.1795L305.039 36.416ZM300.96 38.3112L300.806 37.3231L300.96 38.3112ZM296.631 37.5768L295.737 37.1294L295.289 38.0237L296.184 38.4711L296.631 37.5768ZM298.815 33.2125L299.181 32.2821L298.33 31.9467L297.92 32.7651L298.815 33.2125ZM302.088 33.2848L302.436 34.2225L302.443 34.2198L302.45 34.2169L302.088 33.2848ZM305.363 26.8278L306.335 26.5904L306.333 26.5819L306.33 26.5735L305.363 26.8278ZM300.892 24.0541L301.162 25.0168L301.174 25.0135L301.186 25.0099L300.892 24.0541ZM298.763 25.27L299.427 26.0176L299.435 26.0101L298.763 25.27ZM296.329 27.8096L297.079 28.471L297.083 28.4671L296.329 27.8096ZM293.055 31.1361L293.685 31.9124L293.696 31.9034L293.707 31.8942L293.055 31.1361ZM282.215 28.9333L283.083 28.4374L283.083 28.4374L282.215 28.9333ZM281.25 24.6935L282.249 24.7392L282.249 24.7392L281.25 24.6935ZM287.406 14.8026L287.827 15.7098L287.834 15.7062L287.842 15.7025L287.406 14.8026ZM293.631 14.6967L294.526 15.1441L295.01 14.1758L294.006 13.7697L293.631 14.6967ZM291.376 19.2041L291.001 20.1308L291.857 20.478L292.271 19.6515L291.376 19.2041ZM285.346 25.2669L286.323 25.0538L286.323 25.0538L285.346 25.2669ZM289.603 27.9333L289.871 28.8966L289.896 28.8899L289.919 28.882L289.603 27.9333ZM294.04 24.2493L293.297 23.5805L293.293 23.5847L294.04 24.2493ZM297.404 20.9228L298.041 21.6935L298.048 21.6881L297.404 20.9228ZM300.839 19.3315L301.018 20.3154L301.032 20.3129L301.045 20.31L300.839 19.3315ZM308.208 22.9288L307.358 23.4549L307.362 23.4615L307.366 23.4681L308.208 22.9288ZM309.442 27.2581L310.442 27.2436L310.442 27.2367L309.442 27.2581ZM307.258 31.8907C306.475 33.4569 305.516 34.7028 304.393 35.6525L305.685 37.1795C307.043 36.0308 308.16 34.5582 309.047 32.7856L307.258 31.8907ZM304.405 35.6429C303.263 36.5797 302.066 37.1273 300.806 37.3231L301.114 39.2994C302.764 39.0427 304.287 38.3268 305.673 37.1891L304.405 35.6429ZM300.806 37.3231C299.575 37.5147 298.341 37.3139 297.079 36.6825L296.184 38.4711C297.784 39.2715 299.436 39.5603 301.114 39.2994L300.806 37.3231ZM297.526 38.0242L299.709 33.6599L297.92 32.7651L295.737 37.1294L297.526 38.0242ZM298.448 34.1429C299.782 34.6683 301.128 34.7071 302.436 34.2225L301.741 32.3471C300.926 32.6491 300.089 32.6397 299.181 32.2821L298.448 34.1429ZM302.45 34.2169C303.821 33.6842 304.858 32.5763 305.613 31.0675L303.824 30.1726C303.219 31.3825 302.502 32.0511 301.726 32.3527L302.45 34.2169ZM305.613 31.0675C306.384 29.5255 306.683 28.0134 306.335 26.5904L304.392 27.0653C304.592 27.8844 304.461 28.9004 303.824 30.1726L305.613 31.0675ZM306.33 26.5735C305.957 25.1547 305.077 24.0906 303.754 23.4286L302.859 25.2173C303.682 25.6291 304.173 26.2349 304.396 27.0821L306.33 26.5735ZM303.754 23.4286C302.727 22.9146 301.656 22.7729 300.598 23.0982L301.186 25.0099C301.678 24.8586 302.217 24.8961 302.859 25.2173L303.754 23.4286ZM300.621 23.0913C299.692 23.3526 298.848 23.8418 298.09 24.5299L299.435 26.0101C299.99 25.5059 300.565 25.1845 301.162 25.0168L300.621 23.0913ZM298.099 24.5224C297.408 25.1358 296.565 26.0187 295.576 27.1521L297.083 28.4671C298.05 27.3589 298.829 26.5487 299.427 26.0176L298.099 24.5224ZM295.579 27.1482C294.355 28.5362 293.298 29.6082 292.403 30.3781L293.707 31.8942C294.697 31.0425 295.822 29.8969 297.079 28.471L295.579 27.1482ZM292.425 30.3599C291.606 31.0243 290.639 31.4711 289.501 31.6921L289.882 33.6554C291.32 33.3761 292.595 32.7978 293.685 31.9124L292.425 30.3599ZM289.501 31.6921C288.49 31.8885 287.298 31.6999 285.882 30.9914L284.987 32.78C286.671 33.6226 288.317 33.9594 289.882 33.6554L289.501 31.6921ZM285.882 30.9914C284.607 30.3538 283.69 29.4998 283.083 28.4374L281.347 29.4293C282.17 30.8716 283.399 31.9858 284.987 32.78L285.882 30.9914ZM283.083 28.4374C282.471 27.3647 282.185 26.1423 282.249 24.7392L280.251 24.6479C280.171 26.3931 280.529 27.9973 281.347 29.4293L283.083 28.4374ZM282.249 24.7392C282.313 23.33 282.726 21.8327 283.523 20.2398L281.734 19.345C280.837 21.1386 280.331 22.9087 280.251 24.6479L282.249 24.7392ZM283.523 20.2398C284.651 17.9849 286.097 16.5118 287.827 15.7098L286.985 13.8953C284.756 14.929 283.016 16.7825 281.734 19.345L283.523 20.2398ZM287.842 15.7025C289.535 14.8824 291.313 14.8376 293.256 15.6237L294.006 13.7697C291.585 12.7898 289.213 12.8156 286.97 13.9027L287.842 15.7025ZM292.737 14.2493L290.482 18.7567L292.271 19.6515L294.526 15.1441L292.737 14.2493ZM291.752 18.2773C290.526 17.7805 289.252 17.8543 287.998 18.416L288.816 20.2412C289.637 19.8732 290.342 19.864 291.001 20.1308L291.752 18.2773ZM287.998 18.416C286.699 18.9981 285.709 20.0722 284.989 21.5102L286.778 22.4051C287.347 21.2675 288.04 20.5889 288.816 20.2412L287.998 18.416ZM284.989 21.5102C284.327 22.8346 284.084 24.1715 284.369 25.48L286.323 25.0538C286.156 24.2871 286.271 23.4178 286.778 22.4051L284.989 21.5102ZM284.369 25.48C284.672 26.8678 285.583 27.8899 286.92 28.5588L287.815 26.7701C286.91 26.3175 286.473 25.7412 286.323 25.0538L284.369 25.48ZM286.92 28.5588C287.874 29.036 288.874 29.1744 289.871 28.8966L289.335 26.9699C288.878 27.0973 288.387 27.0564 287.815 26.7701L286.92 28.5588ZM289.919 28.882C290.78 28.5952 291.576 28.1144 292.307 27.4649L290.979 25.9698C290.421 26.4648 289.857 26.7946 289.287 26.9845L289.919 28.882ZM292.307 27.4649C292.993 26.8552 293.822 25.9997 294.788 24.9138L293.293 23.5847C292.35 24.645 291.581 25.4349 290.979 25.9698L292.307 27.4649ZM294.784 24.918C296.042 23.519 297.127 22.4493 298.041 21.6935L296.767 20.1521C295.749 20.9938 294.591 22.1418 293.297 23.5805L294.784 24.918ZM298.048 21.6881C298.887 20.9825 299.87 20.5239 301.018 20.3154L300.661 18.3476C299.185 18.6155 297.878 19.2177 296.761 20.1575L298.048 21.6881ZM301.045 20.31C302.062 20.0958 303.265 20.2767 304.703 20.996L305.598 19.2073C303.887 18.3517 302.217 18.0192 300.633 18.353L301.045 20.31ZM304.703 20.996C305.794 21.5418 306.676 22.3533 307.358 23.4549L309.059 22.4026C308.191 20.9995 307.035 19.9263 305.598 19.2073L304.703 20.996ZM307.366 23.4681C308.041 24.5215 308.41 25.7799 308.442 27.2794L310.442 27.2367C310.403 25.4209 309.95 23.7931 309.051 22.3894L307.366 23.4681ZM308.442 27.2726C308.463 28.7032 308.085 30.2385 307.258 31.8907L309.047 32.7856C309.986 30.9081 310.468 29.0568 310.442 27.2436L308.442 27.2726Z" fill="#1E4364"/>
</svg>
